%TF.GenerationSoftware,KiCad,Pcbnew,8.0.6*%
%TF.CreationDate,2025-02-04T19:04:09-05:00*%
%TF.ProjectId,Jetson_Extension_Board,4a657473-6f6e-45f4-9578-74656e73696f,rev?*%
%TF.SameCoordinates,Original*%
%TF.FileFunction,Legend,Top*%
%TF.FilePolarity,Positive*%
%FSLAX46Y46*%
G04 Gerber Fmt 4.6, Leading zero omitted, Abs format (unit mm)*
G04 Created by KiCad (PCBNEW 8.0.6) date 2025-02-04 19:04:09*
%MOMM*%
%LPD*%
G01*
G04 APERTURE LIST*
%ADD10C,0.127000*%
%ADD11C,0.150000*%
%ADD12C,0.200000*%
%ADD13C,0.120000*%
%ADD14C,0.000000*%
G04 APERTURE END LIST*
D10*
X115574266Y-80810684D02*
X115967361Y-80810684D01*
X115967361Y-80810684D02*
X115755694Y-81052588D01*
X115755694Y-81052588D02*
X115846409Y-81052588D01*
X115846409Y-81052588D02*
X115906885Y-81082826D01*
X115906885Y-81082826D02*
X115937123Y-81113065D01*
X115937123Y-81113065D02*
X115967361Y-81173541D01*
X115967361Y-81173541D02*
X115967361Y-81324731D01*
X115967361Y-81324731D02*
X115937123Y-81385207D01*
X115937123Y-81385207D02*
X115906885Y-81415446D01*
X115906885Y-81415446D02*
X115846409Y-81445684D01*
X115846409Y-81445684D02*
X115664980Y-81445684D01*
X115664980Y-81445684D02*
X115604504Y-81415446D01*
X115604504Y-81415446D02*
X115574266Y-81385207D01*
X116239504Y-81385207D02*
X116269742Y-81415446D01*
X116269742Y-81415446D02*
X116239504Y-81445684D01*
X116239504Y-81445684D02*
X116209266Y-81415446D01*
X116209266Y-81415446D02*
X116239504Y-81385207D01*
X116239504Y-81385207D02*
X116239504Y-81445684D01*
X116481409Y-80810684D02*
X116874504Y-80810684D01*
X116874504Y-80810684D02*
X116662837Y-81052588D01*
X116662837Y-81052588D02*
X116753552Y-81052588D01*
X116753552Y-81052588D02*
X116814028Y-81082826D01*
X116814028Y-81082826D02*
X116844266Y-81113065D01*
X116844266Y-81113065D02*
X116874504Y-81173541D01*
X116874504Y-81173541D02*
X116874504Y-81324731D01*
X116874504Y-81324731D02*
X116844266Y-81385207D01*
X116844266Y-81385207D02*
X116814028Y-81415446D01*
X116814028Y-81415446D02*
X116753552Y-81445684D01*
X116753552Y-81445684D02*
X116572123Y-81445684D01*
X116572123Y-81445684D02*
X116511647Y-81415446D01*
X116511647Y-81415446D02*
X116481409Y-81385207D01*
X117055933Y-80810684D02*
X117267599Y-81445684D01*
X117267599Y-81445684D02*
X117479266Y-80810684D01*
X110897361Y-80840922D02*
X110836885Y-80810684D01*
X110836885Y-80810684D02*
X110746171Y-80810684D01*
X110746171Y-80810684D02*
X110655456Y-80840922D01*
X110655456Y-80840922D02*
X110594980Y-80901398D01*
X110594980Y-80901398D02*
X110564742Y-80961874D01*
X110564742Y-80961874D02*
X110534504Y-81082826D01*
X110534504Y-81082826D02*
X110534504Y-81173541D01*
X110534504Y-81173541D02*
X110564742Y-81294493D01*
X110564742Y-81294493D02*
X110594980Y-81354969D01*
X110594980Y-81354969D02*
X110655456Y-81415446D01*
X110655456Y-81415446D02*
X110746171Y-81445684D01*
X110746171Y-81445684D02*
X110806647Y-81445684D01*
X110806647Y-81445684D02*
X110897361Y-81415446D01*
X110897361Y-81415446D02*
X110927599Y-81385207D01*
X110927599Y-81385207D02*
X110927599Y-81173541D01*
X110927599Y-81173541D02*
X110806647Y-81173541D01*
X111199742Y-81445684D02*
X111199742Y-80810684D01*
X111199742Y-80810684D02*
X111562599Y-81445684D01*
X111562599Y-81445684D02*
X111562599Y-80810684D01*
X111864980Y-81445684D02*
X111864980Y-80810684D01*
X111864980Y-80810684D02*
X112016170Y-80810684D01*
X112016170Y-80810684D02*
X112106885Y-80840922D01*
X112106885Y-80840922D02*
X112167361Y-80901398D01*
X112167361Y-80901398D02*
X112197599Y-80961874D01*
X112197599Y-80961874D02*
X112227837Y-81082826D01*
X112227837Y-81082826D02*
X112227837Y-81173541D01*
X112227837Y-81173541D02*
X112197599Y-81294493D01*
X112197599Y-81294493D02*
X112167361Y-81354969D01*
X112167361Y-81354969D02*
X112106885Y-81415446D01*
X112106885Y-81415446D02*
X112016170Y-81445684D01*
X112016170Y-81445684D02*
X111864980Y-81445684D01*
X105464504Y-81415446D02*
X105555218Y-81445684D01*
X105555218Y-81445684D02*
X105706409Y-81445684D01*
X105706409Y-81445684D02*
X105766885Y-81415446D01*
X105766885Y-81415446D02*
X105797123Y-81385207D01*
X105797123Y-81385207D02*
X105827361Y-81324731D01*
X105827361Y-81324731D02*
X105827361Y-81264255D01*
X105827361Y-81264255D02*
X105797123Y-81203779D01*
X105797123Y-81203779D02*
X105766885Y-81173541D01*
X105766885Y-81173541D02*
X105706409Y-81143303D01*
X105706409Y-81143303D02*
X105585456Y-81113065D01*
X105585456Y-81113065D02*
X105524980Y-81082826D01*
X105524980Y-81082826D02*
X105494742Y-81052588D01*
X105494742Y-81052588D02*
X105464504Y-80992112D01*
X105464504Y-80992112D02*
X105464504Y-80931636D01*
X105464504Y-80931636D02*
X105494742Y-80871160D01*
X105494742Y-80871160D02*
X105524980Y-80840922D01*
X105524980Y-80840922D02*
X105585456Y-80810684D01*
X105585456Y-80810684D02*
X105736647Y-80810684D01*
X105736647Y-80810684D02*
X105827361Y-80840922D01*
X106099504Y-81445684D02*
X106099504Y-80810684D01*
X106099504Y-80810684D02*
X106250694Y-80810684D01*
X106250694Y-80810684D02*
X106341409Y-80840922D01*
X106341409Y-80840922D02*
X106401885Y-80901398D01*
X106401885Y-80901398D02*
X106432123Y-80961874D01*
X106432123Y-80961874D02*
X106462361Y-81082826D01*
X106462361Y-81082826D02*
X106462361Y-81173541D01*
X106462361Y-81173541D02*
X106432123Y-81294493D01*
X106432123Y-81294493D02*
X106401885Y-81354969D01*
X106401885Y-81354969D02*
X106341409Y-81415446D01*
X106341409Y-81415446D02*
X106250694Y-81445684D01*
X106250694Y-81445684D02*
X106099504Y-81445684D01*
X106704266Y-81264255D02*
X107006647Y-81264255D01*
X106643790Y-81445684D02*
X106855456Y-80810684D01*
X106855456Y-80810684D02*
X107067123Y-81445684D01*
X100394504Y-81415446D02*
X100485218Y-81445684D01*
X100485218Y-81445684D02*
X100636409Y-81445684D01*
X100636409Y-81445684D02*
X100696885Y-81415446D01*
X100696885Y-81415446D02*
X100727123Y-81385207D01*
X100727123Y-81385207D02*
X100757361Y-81324731D01*
X100757361Y-81324731D02*
X100757361Y-81264255D01*
X100757361Y-81264255D02*
X100727123Y-81203779D01*
X100727123Y-81203779D02*
X100696885Y-81173541D01*
X100696885Y-81173541D02*
X100636409Y-81143303D01*
X100636409Y-81143303D02*
X100515456Y-81113065D01*
X100515456Y-81113065D02*
X100454980Y-81082826D01*
X100454980Y-81082826D02*
X100424742Y-81052588D01*
X100424742Y-81052588D02*
X100394504Y-80992112D01*
X100394504Y-80992112D02*
X100394504Y-80931636D01*
X100394504Y-80931636D02*
X100424742Y-80871160D01*
X100424742Y-80871160D02*
X100454980Y-80840922D01*
X100454980Y-80840922D02*
X100515456Y-80810684D01*
X100515456Y-80810684D02*
X100666647Y-80810684D01*
X100666647Y-80810684D02*
X100757361Y-80840922D01*
X101392361Y-81385207D02*
X101362123Y-81415446D01*
X101362123Y-81415446D02*
X101271409Y-81445684D01*
X101271409Y-81445684D02*
X101210933Y-81445684D01*
X101210933Y-81445684D02*
X101120218Y-81415446D01*
X101120218Y-81415446D02*
X101059742Y-81354969D01*
X101059742Y-81354969D02*
X101029504Y-81294493D01*
X101029504Y-81294493D02*
X100999266Y-81173541D01*
X100999266Y-81173541D02*
X100999266Y-81082826D01*
X100999266Y-81082826D02*
X101029504Y-80961874D01*
X101029504Y-80961874D02*
X101059742Y-80901398D01*
X101059742Y-80901398D02*
X101120218Y-80840922D01*
X101120218Y-80840922D02*
X101210933Y-80810684D01*
X101210933Y-80810684D02*
X101271409Y-80810684D01*
X101271409Y-80810684D02*
X101362123Y-80840922D01*
X101362123Y-80840922D02*
X101392361Y-80871160D01*
X101966885Y-81445684D02*
X101664504Y-81445684D01*
X101664504Y-81445684D02*
X101664504Y-80810684D01*
X138037123Y-89780684D02*
X137734742Y-89780684D01*
X137734742Y-89780684D02*
X137704504Y-90083065D01*
X137704504Y-90083065D02*
X137734742Y-90052826D01*
X137734742Y-90052826D02*
X137795218Y-90022588D01*
X137795218Y-90022588D02*
X137946409Y-90022588D01*
X137946409Y-90022588D02*
X138006885Y-90052826D01*
X138006885Y-90052826D02*
X138037123Y-90083065D01*
X138037123Y-90083065D02*
X138067361Y-90143541D01*
X138067361Y-90143541D02*
X138067361Y-90294731D01*
X138067361Y-90294731D02*
X138037123Y-90355207D01*
X138037123Y-90355207D02*
X138006885Y-90385446D01*
X138006885Y-90385446D02*
X137946409Y-90415684D01*
X137946409Y-90415684D02*
X137795218Y-90415684D01*
X137795218Y-90415684D02*
X137734742Y-90385446D01*
X137734742Y-90385446D02*
X137704504Y-90355207D01*
X138248790Y-89780684D02*
X138460456Y-90415684D01*
X138460456Y-90415684D02*
X138672123Y-89780684D01*
X137734742Y-93915684D02*
X137734742Y-93280684D01*
X137734742Y-93280684D02*
X137976647Y-93280684D01*
X137976647Y-93280684D02*
X138037123Y-93310922D01*
X138037123Y-93310922D02*
X138067361Y-93341160D01*
X138067361Y-93341160D02*
X138097599Y-93401636D01*
X138097599Y-93401636D02*
X138097599Y-93492350D01*
X138097599Y-93492350D02*
X138067361Y-93552826D01*
X138067361Y-93552826D02*
X138037123Y-93583065D01*
X138037123Y-93583065D02*
X137976647Y-93613303D01*
X137976647Y-93613303D02*
X137734742Y-93613303D01*
X138460456Y-93915684D02*
X138399980Y-93885446D01*
X138399980Y-93885446D02*
X138369742Y-93855207D01*
X138369742Y-93855207D02*
X138339504Y-93794731D01*
X138339504Y-93794731D02*
X138339504Y-93613303D01*
X138339504Y-93613303D02*
X138369742Y-93552826D01*
X138369742Y-93552826D02*
X138399980Y-93522588D01*
X138399980Y-93522588D02*
X138460456Y-93492350D01*
X138460456Y-93492350D02*
X138551171Y-93492350D01*
X138551171Y-93492350D02*
X138611647Y-93522588D01*
X138611647Y-93522588D02*
X138641885Y-93552826D01*
X138641885Y-93552826D02*
X138672123Y-93613303D01*
X138672123Y-93613303D02*
X138672123Y-93794731D01*
X138672123Y-93794731D02*
X138641885Y-93855207D01*
X138641885Y-93855207D02*
X138611647Y-93885446D01*
X138611647Y-93885446D02*
X138551171Y-93915684D01*
X138551171Y-93915684D02*
X138460456Y-93915684D01*
X138853552Y-93492350D02*
X139095456Y-93492350D01*
X138944266Y-93280684D02*
X138944266Y-93824969D01*
X138944266Y-93824969D02*
X138974504Y-93885446D01*
X138974504Y-93885446D02*
X139034980Y-93915684D01*
X139034980Y-93915684D02*
X139095456Y-93915684D01*
X139639742Y-93915684D02*
X139276885Y-93915684D01*
X139458313Y-93915684D02*
X139458313Y-93280684D01*
X139458313Y-93280684D02*
X139397837Y-93371398D01*
X139397837Y-93371398D02*
X139337361Y-93431874D01*
X139337361Y-93431874D02*
X139276885Y-93462112D01*
X164704504Y-94385446D02*
X164795218Y-94415684D01*
X164795218Y-94415684D02*
X164946409Y-94415684D01*
X164946409Y-94415684D02*
X165006885Y-94385446D01*
X165006885Y-94385446D02*
X165037123Y-94355207D01*
X165037123Y-94355207D02*
X165067361Y-94294731D01*
X165067361Y-94294731D02*
X165067361Y-94234255D01*
X165067361Y-94234255D02*
X165037123Y-94173779D01*
X165037123Y-94173779D02*
X165006885Y-94143541D01*
X165006885Y-94143541D02*
X164946409Y-94113303D01*
X164946409Y-94113303D02*
X164825456Y-94083065D01*
X164825456Y-94083065D02*
X164764980Y-94052826D01*
X164764980Y-94052826D02*
X164734742Y-94022588D01*
X164734742Y-94022588D02*
X164704504Y-93962112D01*
X164704504Y-93962112D02*
X164704504Y-93901636D01*
X164704504Y-93901636D02*
X164734742Y-93841160D01*
X164734742Y-93841160D02*
X164764980Y-93810922D01*
X164764980Y-93810922D02*
X164825456Y-93780684D01*
X164825456Y-93780684D02*
X164976647Y-93780684D01*
X164976647Y-93780684D02*
X165067361Y-93810922D01*
X165339504Y-94415684D02*
X165339504Y-93992350D01*
X165339504Y-93780684D02*
X165309266Y-93810922D01*
X165309266Y-93810922D02*
X165339504Y-93841160D01*
X165339504Y-93841160D02*
X165369742Y-93810922D01*
X165369742Y-93810922D02*
X165339504Y-93780684D01*
X165339504Y-93780684D02*
X165339504Y-93841160D01*
X165914028Y-93992350D02*
X165914028Y-94506398D01*
X165914028Y-94506398D02*
X165883790Y-94566874D01*
X165883790Y-94566874D02*
X165853552Y-94597112D01*
X165853552Y-94597112D02*
X165793075Y-94627350D01*
X165793075Y-94627350D02*
X165702361Y-94627350D01*
X165702361Y-94627350D02*
X165641885Y-94597112D01*
X165914028Y-94385446D02*
X165853552Y-94415684D01*
X165853552Y-94415684D02*
X165732599Y-94415684D01*
X165732599Y-94415684D02*
X165672123Y-94385446D01*
X165672123Y-94385446D02*
X165641885Y-94355207D01*
X165641885Y-94355207D02*
X165611647Y-94294731D01*
X165611647Y-94294731D02*
X165611647Y-94113303D01*
X165611647Y-94113303D02*
X165641885Y-94052826D01*
X165641885Y-94052826D02*
X165672123Y-94022588D01*
X165672123Y-94022588D02*
X165732599Y-93992350D01*
X165732599Y-93992350D02*
X165853552Y-93992350D01*
X165853552Y-93992350D02*
X165914028Y-94022588D01*
X166639743Y-93780684D02*
X167032838Y-93780684D01*
X167032838Y-93780684D02*
X166821171Y-94022588D01*
X166821171Y-94022588D02*
X166911886Y-94022588D01*
X166911886Y-94022588D02*
X166972362Y-94052826D01*
X166972362Y-94052826D02*
X167002600Y-94083065D01*
X167002600Y-94083065D02*
X167032838Y-94143541D01*
X167032838Y-94143541D02*
X167032838Y-94294731D01*
X167032838Y-94294731D02*
X167002600Y-94355207D01*
X167002600Y-94355207D02*
X166972362Y-94385446D01*
X166972362Y-94385446D02*
X166911886Y-94415684D01*
X166911886Y-94415684D02*
X166730457Y-94415684D01*
X166730457Y-94415684D02*
X166669981Y-94385446D01*
X166669981Y-94385446D02*
X166639743Y-94355207D01*
X97515446Y-125625495D02*
X97545684Y-125534781D01*
X97545684Y-125534781D02*
X97545684Y-125383590D01*
X97545684Y-125383590D02*
X97515446Y-125323114D01*
X97515446Y-125323114D02*
X97485207Y-125292876D01*
X97485207Y-125292876D02*
X97424731Y-125262638D01*
X97424731Y-125262638D02*
X97364255Y-125262638D01*
X97364255Y-125262638D02*
X97303779Y-125292876D01*
X97303779Y-125292876D02*
X97273541Y-125323114D01*
X97273541Y-125323114D02*
X97243303Y-125383590D01*
X97243303Y-125383590D02*
X97213065Y-125504543D01*
X97213065Y-125504543D02*
X97182826Y-125565019D01*
X97182826Y-125565019D02*
X97152588Y-125595257D01*
X97152588Y-125595257D02*
X97092112Y-125625495D01*
X97092112Y-125625495D02*
X97031636Y-125625495D01*
X97031636Y-125625495D02*
X96971160Y-125595257D01*
X96971160Y-125595257D02*
X96940922Y-125565019D01*
X96940922Y-125565019D02*
X96910684Y-125504543D01*
X96910684Y-125504543D02*
X96910684Y-125353352D01*
X96910684Y-125353352D02*
X96940922Y-125262638D01*
X96910684Y-125081209D02*
X96910684Y-124718352D01*
X97545684Y-124899781D02*
X96910684Y-124899781D01*
X97545684Y-124174066D02*
X97545684Y-124536923D01*
X97545684Y-124355495D02*
X96910684Y-124355495D01*
X96910684Y-124355495D02*
X97001398Y-124415971D01*
X97001398Y-124415971D02*
X97061874Y-124476447D01*
X97061874Y-124476447D02*
X97092112Y-124536923D01*
X131574266Y-122980684D02*
X131967361Y-122980684D01*
X131967361Y-122980684D02*
X131755694Y-123222588D01*
X131755694Y-123222588D02*
X131846409Y-123222588D01*
X131846409Y-123222588D02*
X131906885Y-123252826D01*
X131906885Y-123252826D02*
X131937123Y-123283065D01*
X131937123Y-123283065D02*
X131967361Y-123343541D01*
X131967361Y-123343541D02*
X131967361Y-123494731D01*
X131967361Y-123494731D02*
X131937123Y-123555207D01*
X131937123Y-123555207D02*
X131906885Y-123585446D01*
X131906885Y-123585446D02*
X131846409Y-123615684D01*
X131846409Y-123615684D02*
X131664980Y-123615684D01*
X131664980Y-123615684D02*
X131604504Y-123585446D01*
X131604504Y-123585446D02*
X131574266Y-123555207D01*
X132239504Y-123555207D02*
X132269742Y-123585446D01*
X132269742Y-123585446D02*
X132239504Y-123615684D01*
X132239504Y-123615684D02*
X132209266Y-123585446D01*
X132209266Y-123585446D02*
X132239504Y-123555207D01*
X132239504Y-123555207D02*
X132239504Y-123615684D01*
X132481409Y-122980684D02*
X132874504Y-122980684D01*
X132874504Y-122980684D02*
X132662837Y-123222588D01*
X132662837Y-123222588D02*
X132753552Y-123222588D01*
X132753552Y-123222588D02*
X132814028Y-123252826D01*
X132814028Y-123252826D02*
X132844266Y-123283065D01*
X132844266Y-123283065D02*
X132874504Y-123343541D01*
X132874504Y-123343541D02*
X132874504Y-123494731D01*
X132874504Y-123494731D02*
X132844266Y-123555207D01*
X132844266Y-123555207D02*
X132814028Y-123585446D01*
X132814028Y-123585446D02*
X132753552Y-123615684D01*
X132753552Y-123615684D02*
X132572123Y-123615684D01*
X132572123Y-123615684D02*
X132511647Y-123585446D01*
X132511647Y-123585446D02*
X132481409Y-123555207D01*
X133055933Y-122980684D02*
X133267599Y-123615684D01*
X133267599Y-123615684D02*
X133479266Y-122980684D01*
X121204504Y-143917946D02*
X121295218Y-143948184D01*
X121295218Y-143948184D02*
X121446409Y-143948184D01*
X121446409Y-143948184D02*
X121506885Y-143917946D01*
X121506885Y-143917946D02*
X121537123Y-143887707D01*
X121537123Y-143887707D02*
X121567361Y-143827231D01*
X121567361Y-143827231D02*
X121567361Y-143766755D01*
X121567361Y-143766755D02*
X121537123Y-143706279D01*
X121537123Y-143706279D02*
X121506885Y-143676041D01*
X121506885Y-143676041D02*
X121446409Y-143645803D01*
X121446409Y-143645803D02*
X121325456Y-143615565D01*
X121325456Y-143615565D02*
X121264980Y-143585326D01*
X121264980Y-143585326D02*
X121234742Y-143555088D01*
X121234742Y-143555088D02*
X121204504Y-143494612D01*
X121204504Y-143494612D02*
X121204504Y-143434136D01*
X121204504Y-143434136D02*
X121234742Y-143373660D01*
X121234742Y-143373660D02*
X121264980Y-143343422D01*
X121264980Y-143343422D02*
X121325456Y-143313184D01*
X121325456Y-143313184D02*
X121476647Y-143313184D01*
X121476647Y-143313184D02*
X121567361Y-143343422D01*
X121839504Y-143948184D02*
X121839504Y-143524850D01*
X121839504Y-143313184D02*
X121809266Y-143343422D01*
X121809266Y-143343422D02*
X121839504Y-143373660D01*
X121839504Y-143373660D02*
X121869742Y-143343422D01*
X121869742Y-143343422D02*
X121839504Y-143313184D01*
X121839504Y-143313184D02*
X121839504Y-143373660D01*
X122414028Y-143524850D02*
X122414028Y-144038898D01*
X122414028Y-144038898D02*
X122383790Y-144099374D01*
X122383790Y-144099374D02*
X122353552Y-144129612D01*
X122353552Y-144129612D02*
X122293075Y-144159850D01*
X122293075Y-144159850D02*
X122202361Y-144159850D01*
X122202361Y-144159850D02*
X122141885Y-144129612D01*
X122414028Y-143917946D02*
X122353552Y-143948184D01*
X122353552Y-143948184D02*
X122232599Y-143948184D01*
X122232599Y-143948184D02*
X122172123Y-143917946D01*
X122172123Y-143917946D02*
X122141885Y-143887707D01*
X122141885Y-143887707D02*
X122111647Y-143827231D01*
X122111647Y-143827231D02*
X122111647Y-143645803D01*
X122111647Y-143645803D02*
X122141885Y-143585326D01*
X122141885Y-143585326D02*
X122172123Y-143555088D01*
X122172123Y-143555088D02*
X122232599Y-143524850D01*
X122232599Y-143524850D02*
X122353552Y-143524850D01*
X122353552Y-143524850D02*
X122414028Y-143555088D01*
X123139743Y-143313184D02*
X123532838Y-143313184D01*
X123532838Y-143313184D02*
X123321171Y-143555088D01*
X123321171Y-143555088D02*
X123411886Y-143555088D01*
X123411886Y-143555088D02*
X123472362Y-143585326D01*
X123472362Y-143585326D02*
X123502600Y-143615565D01*
X123502600Y-143615565D02*
X123532838Y-143676041D01*
X123532838Y-143676041D02*
X123532838Y-143827231D01*
X123532838Y-143827231D02*
X123502600Y-143887707D01*
X123502600Y-143887707D02*
X123472362Y-143917946D01*
X123472362Y-143917946D02*
X123411886Y-143948184D01*
X123411886Y-143948184D02*
X123230457Y-143948184D01*
X123230457Y-143948184D02*
X123169981Y-143917946D01*
X123169981Y-143917946D02*
X123139743Y-143887707D01*
X108704504Y-143917946D02*
X108795218Y-143948184D01*
X108795218Y-143948184D02*
X108946409Y-143948184D01*
X108946409Y-143948184D02*
X109006885Y-143917946D01*
X109006885Y-143917946D02*
X109037123Y-143887707D01*
X109037123Y-143887707D02*
X109067361Y-143827231D01*
X109067361Y-143827231D02*
X109067361Y-143766755D01*
X109067361Y-143766755D02*
X109037123Y-143706279D01*
X109037123Y-143706279D02*
X109006885Y-143676041D01*
X109006885Y-143676041D02*
X108946409Y-143645803D01*
X108946409Y-143645803D02*
X108825456Y-143615565D01*
X108825456Y-143615565D02*
X108764980Y-143585326D01*
X108764980Y-143585326D02*
X108734742Y-143555088D01*
X108734742Y-143555088D02*
X108704504Y-143494612D01*
X108704504Y-143494612D02*
X108704504Y-143434136D01*
X108704504Y-143434136D02*
X108734742Y-143373660D01*
X108734742Y-143373660D02*
X108764980Y-143343422D01*
X108764980Y-143343422D02*
X108825456Y-143313184D01*
X108825456Y-143313184D02*
X108976647Y-143313184D01*
X108976647Y-143313184D02*
X109067361Y-143343422D01*
X109339504Y-143948184D02*
X109339504Y-143524850D01*
X109339504Y-143313184D02*
X109309266Y-143343422D01*
X109309266Y-143343422D02*
X109339504Y-143373660D01*
X109339504Y-143373660D02*
X109369742Y-143343422D01*
X109369742Y-143343422D02*
X109339504Y-143313184D01*
X109339504Y-143313184D02*
X109339504Y-143373660D01*
X109914028Y-143524850D02*
X109914028Y-144038898D01*
X109914028Y-144038898D02*
X109883790Y-144099374D01*
X109883790Y-144099374D02*
X109853552Y-144129612D01*
X109853552Y-144129612D02*
X109793075Y-144159850D01*
X109793075Y-144159850D02*
X109702361Y-144159850D01*
X109702361Y-144159850D02*
X109641885Y-144129612D01*
X109914028Y-143917946D02*
X109853552Y-143948184D01*
X109853552Y-143948184D02*
X109732599Y-143948184D01*
X109732599Y-143948184D02*
X109672123Y-143917946D01*
X109672123Y-143917946D02*
X109641885Y-143887707D01*
X109641885Y-143887707D02*
X109611647Y-143827231D01*
X109611647Y-143827231D02*
X109611647Y-143645803D01*
X109611647Y-143645803D02*
X109641885Y-143585326D01*
X109641885Y-143585326D02*
X109672123Y-143555088D01*
X109672123Y-143555088D02*
X109732599Y-143524850D01*
X109732599Y-143524850D02*
X109853552Y-143524850D01*
X109853552Y-143524850D02*
X109914028Y-143555088D01*
X110669981Y-143373660D02*
X110700219Y-143343422D01*
X110700219Y-143343422D02*
X110760695Y-143313184D01*
X110760695Y-143313184D02*
X110911886Y-143313184D01*
X110911886Y-143313184D02*
X110972362Y-143343422D01*
X110972362Y-143343422D02*
X111002600Y-143373660D01*
X111002600Y-143373660D02*
X111032838Y-143434136D01*
X111032838Y-143434136D02*
X111032838Y-143494612D01*
X111032838Y-143494612D02*
X111002600Y-143585326D01*
X111002600Y-143585326D02*
X110639743Y-143948184D01*
X110639743Y-143948184D02*
X111032838Y-143948184D01*
X93152004Y-136417946D02*
X93242718Y-136448184D01*
X93242718Y-136448184D02*
X93393909Y-136448184D01*
X93393909Y-136448184D02*
X93454385Y-136417946D01*
X93454385Y-136417946D02*
X93484623Y-136387707D01*
X93484623Y-136387707D02*
X93514861Y-136327231D01*
X93514861Y-136327231D02*
X93514861Y-136266755D01*
X93514861Y-136266755D02*
X93484623Y-136206279D01*
X93484623Y-136206279D02*
X93454385Y-136176041D01*
X93454385Y-136176041D02*
X93393909Y-136145803D01*
X93393909Y-136145803D02*
X93272956Y-136115565D01*
X93272956Y-136115565D02*
X93212480Y-136085326D01*
X93212480Y-136085326D02*
X93182242Y-136055088D01*
X93182242Y-136055088D02*
X93152004Y-135994612D01*
X93152004Y-135994612D02*
X93152004Y-135934136D01*
X93152004Y-135934136D02*
X93182242Y-135873660D01*
X93182242Y-135873660D02*
X93212480Y-135843422D01*
X93212480Y-135843422D02*
X93272956Y-135813184D01*
X93272956Y-135813184D02*
X93424147Y-135813184D01*
X93424147Y-135813184D02*
X93514861Y-135843422D01*
X93787004Y-136448184D02*
X93787004Y-136024850D01*
X93787004Y-135813184D02*
X93756766Y-135843422D01*
X93756766Y-135843422D02*
X93787004Y-135873660D01*
X93787004Y-135873660D02*
X93817242Y-135843422D01*
X93817242Y-135843422D02*
X93787004Y-135813184D01*
X93787004Y-135813184D02*
X93787004Y-135873660D01*
X94361528Y-136024850D02*
X94361528Y-136538898D01*
X94361528Y-136538898D02*
X94331290Y-136599374D01*
X94331290Y-136599374D02*
X94301052Y-136629612D01*
X94301052Y-136629612D02*
X94240575Y-136659850D01*
X94240575Y-136659850D02*
X94149861Y-136659850D01*
X94149861Y-136659850D02*
X94089385Y-136629612D01*
X94361528Y-136417946D02*
X94301052Y-136448184D01*
X94301052Y-136448184D02*
X94180099Y-136448184D01*
X94180099Y-136448184D02*
X94119623Y-136417946D01*
X94119623Y-136417946D02*
X94089385Y-136387707D01*
X94089385Y-136387707D02*
X94059147Y-136327231D01*
X94059147Y-136327231D02*
X94059147Y-136145803D01*
X94059147Y-136145803D02*
X94089385Y-136085326D01*
X94089385Y-136085326D02*
X94119623Y-136055088D01*
X94119623Y-136055088D02*
X94180099Y-136024850D01*
X94180099Y-136024850D02*
X94301052Y-136024850D01*
X94301052Y-136024850D02*
X94361528Y-136055088D01*
X95480338Y-136448184D02*
X95117481Y-136448184D01*
X95298909Y-136448184D02*
X95298909Y-135813184D01*
X95298909Y-135813184D02*
X95238433Y-135903898D01*
X95238433Y-135903898D02*
X95177957Y-135964374D01*
X95177957Y-135964374D02*
X95117481Y-135994612D01*
X123674266Y-122980684D02*
X124067361Y-122980684D01*
X124067361Y-122980684D02*
X123855694Y-123222588D01*
X123855694Y-123222588D02*
X123946409Y-123222588D01*
X123946409Y-123222588D02*
X124006885Y-123252826D01*
X124006885Y-123252826D02*
X124037123Y-123283065D01*
X124037123Y-123283065D02*
X124067361Y-123343541D01*
X124067361Y-123343541D02*
X124067361Y-123494731D01*
X124067361Y-123494731D02*
X124037123Y-123555207D01*
X124037123Y-123555207D02*
X124006885Y-123585446D01*
X124006885Y-123585446D02*
X123946409Y-123615684D01*
X123946409Y-123615684D02*
X123764980Y-123615684D01*
X123764980Y-123615684D02*
X123704504Y-123585446D01*
X123704504Y-123585446D02*
X123674266Y-123555207D01*
X124339504Y-123555207D02*
X124369742Y-123585446D01*
X124369742Y-123585446D02*
X124339504Y-123615684D01*
X124339504Y-123615684D02*
X124309266Y-123585446D01*
X124309266Y-123585446D02*
X124339504Y-123555207D01*
X124339504Y-123555207D02*
X124339504Y-123615684D01*
X124581409Y-122980684D02*
X124974504Y-122980684D01*
X124974504Y-122980684D02*
X124762837Y-123222588D01*
X124762837Y-123222588D02*
X124853552Y-123222588D01*
X124853552Y-123222588D02*
X124914028Y-123252826D01*
X124914028Y-123252826D02*
X124944266Y-123283065D01*
X124944266Y-123283065D02*
X124974504Y-123343541D01*
X124974504Y-123343541D02*
X124974504Y-123494731D01*
X124974504Y-123494731D02*
X124944266Y-123555207D01*
X124944266Y-123555207D02*
X124914028Y-123585446D01*
X124914028Y-123585446D02*
X124853552Y-123615684D01*
X124853552Y-123615684D02*
X124672123Y-123615684D01*
X124672123Y-123615684D02*
X124611647Y-123585446D01*
X124611647Y-123585446D02*
X124581409Y-123555207D01*
X125155933Y-122980684D02*
X125367599Y-123615684D01*
X125367599Y-123615684D02*
X125579266Y-122980684D01*
X164704504Y-107885446D02*
X164795218Y-107915684D01*
X164795218Y-107915684D02*
X164946409Y-107915684D01*
X164946409Y-107915684D02*
X165006885Y-107885446D01*
X165006885Y-107885446D02*
X165037123Y-107855207D01*
X165037123Y-107855207D02*
X165067361Y-107794731D01*
X165067361Y-107794731D02*
X165067361Y-107734255D01*
X165067361Y-107734255D02*
X165037123Y-107673779D01*
X165037123Y-107673779D02*
X165006885Y-107643541D01*
X165006885Y-107643541D02*
X164946409Y-107613303D01*
X164946409Y-107613303D02*
X164825456Y-107583065D01*
X164825456Y-107583065D02*
X164764980Y-107552826D01*
X164764980Y-107552826D02*
X164734742Y-107522588D01*
X164734742Y-107522588D02*
X164704504Y-107462112D01*
X164704504Y-107462112D02*
X164704504Y-107401636D01*
X164704504Y-107401636D02*
X164734742Y-107341160D01*
X164734742Y-107341160D02*
X164764980Y-107310922D01*
X164764980Y-107310922D02*
X164825456Y-107280684D01*
X164825456Y-107280684D02*
X164976647Y-107280684D01*
X164976647Y-107280684D02*
X165067361Y-107310922D01*
X165339504Y-107915684D02*
X165339504Y-107492350D01*
X165339504Y-107280684D02*
X165309266Y-107310922D01*
X165309266Y-107310922D02*
X165339504Y-107341160D01*
X165339504Y-107341160D02*
X165369742Y-107310922D01*
X165369742Y-107310922D02*
X165339504Y-107280684D01*
X165339504Y-107280684D02*
X165339504Y-107341160D01*
X165914028Y-107492350D02*
X165914028Y-108006398D01*
X165914028Y-108006398D02*
X165883790Y-108066874D01*
X165883790Y-108066874D02*
X165853552Y-108097112D01*
X165853552Y-108097112D02*
X165793075Y-108127350D01*
X165793075Y-108127350D02*
X165702361Y-108127350D01*
X165702361Y-108127350D02*
X165641885Y-108097112D01*
X165914028Y-107885446D02*
X165853552Y-107915684D01*
X165853552Y-107915684D02*
X165732599Y-107915684D01*
X165732599Y-107915684D02*
X165672123Y-107885446D01*
X165672123Y-107885446D02*
X165641885Y-107855207D01*
X165641885Y-107855207D02*
X165611647Y-107794731D01*
X165611647Y-107794731D02*
X165611647Y-107613303D01*
X165611647Y-107613303D02*
X165641885Y-107552826D01*
X165641885Y-107552826D02*
X165672123Y-107522588D01*
X165672123Y-107522588D02*
X165732599Y-107492350D01*
X165732599Y-107492350D02*
X165853552Y-107492350D01*
X165853552Y-107492350D02*
X165914028Y-107522588D01*
X166669981Y-107341160D02*
X166700219Y-107310922D01*
X166700219Y-107310922D02*
X166760695Y-107280684D01*
X166760695Y-107280684D02*
X166911886Y-107280684D01*
X166911886Y-107280684D02*
X166972362Y-107310922D01*
X166972362Y-107310922D02*
X167002600Y-107341160D01*
X167002600Y-107341160D02*
X167032838Y-107401636D01*
X167032838Y-107401636D02*
X167032838Y-107462112D01*
X167032838Y-107462112D02*
X167002600Y-107552826D01*
X167002600Y-107552826D02*
X166639743Y-107915684D01*
X166639743Y-107915684D02*
X167032838Y-107915684D01*
X164704504Y-79885446D02*
X164795218Y-79915684D01*
X164795218Y-79915684D02*
X164946409Y-79915684D01*
X164946409Y-79915684D02*
X165006885Y-79885446D01*
X165006885Y-79885446D02*
X165037123Y-79855207D01*
X165037123Y-79855207D02*
X165067361Y-79794731D01*
X165067361Y-79794731D02*
X165067361Y-79734255D01*
X165067361Y-79734255D02*
X165037123Y-79673779D01*
X165037123Y-79673779D02*
X165006885Y-79643541D01*
X165006885Y-79643541D02*
X164946409Y-79613303D01*
X164946409Y-79613303D02*
X164825456Y-79583065D01*
X164825456Y-79583065D02*
X164764980Y-79552826D01*
X164764980Y-79552826D02*
X164734742Y-79522588D01*
X164734742Y-79522588D02*
X164704504Y-79462112D01*
X164704504Y-79462112D02*
X164704504Y-79401636D01*
X164704504Y-79401636D02*
X164734742Y-79341160D01*
X164734742Y-79341160D02*
X164764980Y-79310922D01*
X164764980Y-79310922D02*
X164825456Y-79280684D01*
X164825456Y-79280684D02*
X164976647Y-79280684D01*
X164976647Y-79280684D02*
X165067361Y-79310922D01*
X165339504Y-79915684D02*
X165339504Y-79492350D01*
X165339504Y-79280684D02*
X165309266Y-79310922D01*
X165309266Y-79310922D02*
X165339504Y-79341160D01*
X165339504Y-79341160D02*
X165369742Y-79310922D01*
X165369742Y-79310922D02*
X165339504Y-79280684D01*
X165339504Y-79280684D02*
X165339504Y-79341160D01*
X165914028Y-79492350D02*
X165914028Y-80006398D01*
X165914028Y-80006398D02*
X165883790Y-80066874D01*
X165883790Y-80066874D02*
X165853552Y-80097112D01*
X165853552Y-80097112D02*
X165793075Y-80127350D01*
X165793075Y-80127350D02*
X165702361Y-80127350D01*
X165702361Y-80127350D02*
X165641885Y-80097112D01*
X165914028Y-79885446D02*
X165853552Y-79915684D01*
X165853552Y-79915684D02*
X165732599Y-79915684D01*
X165732599Y-79915684D02*
X165672123Y-79885446D01*
X165672123Y-79885446D02*
X165641885Y-79855207D01*
X165641885Y-79855207D02*
X165611647Y-79794731D01*
X165611647Y-79794731D02*
X165611647Y-79613303D01*
X165611647Y-79613303D02*
X165641885Y-79552826D01*
X165641885Y-79552826D02*
X165672123Y-79522588D01*
X165672123Y-79522588D02*
X165732599Y-79492350D01*
X165732599Y-79492350D02*
X165853552Y-79492350D01*
X165853552Y-79492350D02*
X165914028Y-79522588D01*
X166972362Y-79492350D02*
X166972362Y-79915684D01*
X166821171Y-79250446D02*
X166669981Y-79704017D01*
X166669981Y-79704017D02*
X167063076Y-79704017D01*
X140567361Y-73310922D02*
X140506885Y-73280684D01*
X140506885Y-73280684D02*
X140416171Y-73280684D01*
X140416171Y-73280684D02*
X140325456Y-73310922D01*
X140325456Y-73310922D02*
X140264980Y-73371398D01*
X140264980Y-73371398D02*
X140234742Y-73431874D01*
X140234742Y-73431874D02*
X140204504Y-73552826D01*
X140204504Y-73552826D02*
X140204504Y-73643541D01*
X140204504Y-73643541D02*
X140234742Y-73764493D01*
X140234742Y-73764493D02*
X140264980Y-73824969D01*
X140264980Y-73824969D02*
X140325456Y-73885446D01*
X140325456Y-73885446D02*
X140416171Y-73915684D01*
X140416171Y-73915684D02*
X140476647Y-73915684D01*
X140476647Y-73915684D02*
X140567361Y-73885446D01*
X140567361Y-73885446D02*
X140597599Y-73855207D01*
X140597599Y-73855207D02*
X140597599Y-73643541D01*
X140597599Y-73643541D02*
X140476647Y-73643541D01*
X140869742Y-73915684D02*
X140869742Y-73280684D01*
X140869742Y-73280684D02*
X141232599Y-73915684D01*
X141232599Y-73915684D02*
X141232599Y-73280684D01*
X141534980Y-73915684D02*
X141534980Y-73280684D01*
X141534980Y-73280684D02*
X141686170Y-73280684D01*
X141686170Y-73280684D02*
X141776885Y-73310922D01*
X141776885Y-73310922D02*
X141837361Y-73371398D01*
X141837361Y-73371398D02*
X141867599Y-73431874D01*
X141867599Y-73431874D02*
X141897837Y-73552826D01*
X141897837Y-73552826D02*
X141897837Y-73643541D01*
X141897837Y-73643541D02*
X141867599Y-73764493D01*
X141867599Y-73764493D02*
X141837361Y-73824969D01*
X141837361Y-73824969D02*
X141776885Y-73885446D01*
X141776885Y-73885446D02*
X141686170Y-73915684D01*
X141686170Y-73915684D02*
X141534980Y-73915684D01*
X100055446Y-125625495D02*
X100085684Y-125534781D01*
X100085684Y-125534781D02*
X100085684Y-125383590D01*
X100085684Y-125383590D02*
X100055446Y-125323114D01*
X100055446Y-125323114D02*
X100025207Y-125292876D01*
X100025207Y-125292876D02*
X99964731Y-125262638D01*
X99964731Y-125262638D02*
X99904255Y-125262638D01*
X99904255Y-125262638D02*
X99843779Y-125292876D01*
X99843779Y-125292876D02*
X99813541Y-125323114D01*
X99813541Y-125323114D02*
X99783303Y-125383590D01*
X99783303Y-125383590D02*
X99753065Y-125504543D01*
X99753065Y-125504543D02*
X99722826Y-125565019D01*
X99722826Y-125565019D02*
X99692588Y-125595257D01*
X99692588Y-125595257D02*
X99632112Y-125625495D01*
X99632112Y-125625495D02*
X99571636Y-125625495D01*
X99571636Y-125625495D02*
X99511160Y-125595257D01*
X99511160Y-125595257D02*
X99480922Y-125565019D01*
X99480922Y-125565019D02*
X99450684Y-125504543D01*
X99450684Y-125504543D02*
X99450684Y-125353352D01*
X99450684Y-125353352D02*
X99480922Y-125262638D01*
X99450684Y-125081209D02*
X99450684Y-124718352D01*
X100085684Y-124899781D02*
X99450684Y-124899781D01*
X99511160Y-124536923D02*
X99480922Y-124506685D01*
X99480922Y-124506685D02*
X99450684Y-124446209D01*
X99450684Y-124446209D02*
X99450684Y-124295018D01*
X99450684Y-124295018D02*
X99480922Y-124234542D01*
X99480922Y-124234542D02*
X99511160Y-124204304D01*
X99511160Y-124204304D02*
X99571636Y-124174066D01*
X99571636Y-124174066D02*
X99632112Y-124174066D01*
X99632112Y-124174066D02*
X99722826Y-124204304D01*
X99722826Y-124204304D02*
X100085684Y-124567161D01*
X100085684Y-124567161D02*
X100085684Y-124174066D01*
X151567361Y-96810922D02*
X151506885Y-96780684D01*
X151506885Y-96780684D02*
X151416171Y-96780684D01*
X151416171Y-96780684D02*
X151325456Y-96810922D01*
X151325456Y-96810922D02*
X151264980Y-96871398D01*
X151264980Y-96871398D02*
X151234742Y-96931874D01*
X151234742Y-96931874D02*
X151204504Y-97052826D01*
X151204504Y-97052826D02*
X151204504Y-97143541D01*
X151204504Y-97143541D02*
X151234742Y-97264493D01*
X151234742Y-97264493D02*
X151264980Y-97324969D01*
X151264980Y-97324969D02*
X151325456Y-97385446D01*
X151325456Y-97385446D02*
X151416171Y-97415684D01*
X151416171Y-97415684D02*
X151476647Y-97415684D01*
X151476647Y-97415684D02*
X151567361Y-97385446D01*
X151567361Y-97385446D02*
X151597599Y-97355207D01*
X151597599Y-97355207D02*
X151597599Y-97143541D01*
X151597599Y-97143541D02*
X151476647Y-97143541D01*
X151869742Y-97415684D02*
X151869742Y-96780684D01*
X151869742Y-96780684D02*
X152232599Y-97415684D01*
X152232599Y-97415684D02*
X152232599Y-96780684D01*
X152534980Y-97415684D02*
X152534980Y-96780684D01*
X152534980Y-96780684D02*
X152686170Y-96780684D01*
X152686170Y-96780684D02*
X152776885Y-96810922D01*
X152776885Y-96810922D02*
X152837361Y-96871398D01*
X152837361Y-96871398D02*
X152867599Y-96931874D01*
X152867599Y-96931874D02*
X152897837Y-97052826D01*
X152897837Y-97052826D02*
X152897837Y-97143541D01*
X152897837Y-97143541D02*
X152867599Y-97264493D01*
X152867599Y-97264493D02*
X152837361Y-97324969D01*
X152837361Y-97324969D02*
X152776885Y-97385446D01*
X152776885Y-97385446D02*
X152686170Y-97415684D01*
X152686170Y-97415684D02*
X152534980Y-97415684D01*
X107675446Y-125625495D02*
X107705684Y-125534781D01*
X107705684Y-125534781D02*
X107705684Y-125383590D01*
X107705684Y-125383590D02*
X107675446Y-125323114D01*
X107675446Y-125323114D02*
X107645207Y-125292876D01*
X107645207Y-125292876D02*
X107584731Y-125262638D01*
X107584731Y-125262638D02*
X107524255Y-125262638D01*
X107524255Y-125262638D02*
X107463779Y-125292876D01*
X107463779Y-125292876D02*
X107433541Y-125323114D01*
X107433541Y-125323114D02*
X107403303Y-125383590D01*
X107403303Y-125383590D02*
X107373065Y-125504543D01*
X107373065Y-125504543D02*
X107342826Y-125565019D01*
X107342826Y-125565019D02*
X107312588Y-125595257D01*
X107312588Y-125595257D02*
X107252112Y-125625495D01*
X107252112Y-125625495D02*
X107191636Y-125625495D01*
X107191636Y-125625495D02*
X107131160Y-125595257D01*
X107131160Y-125595257D02*
X107100922Y-125565019D01*
X107100922Y-125565019D02*
X107070684Y-125504543D01*
X107070684Y-125504543D02*
X107070684Y-125353352D01*
X107070684Y-125353352D02*
X107100922Y-125262638D01*
X107070684Y-125081209D02*
X107070684Y-124718352D01*
X107705684Y-124899781D02*
X107070684Y-124899781D01*
X107070684Y-124204304D02*
X107070684Y-124506685D01*
X107070684Y-124506685D02*
X107373065Y-124536923D01*
X107373065Y-124536923D02*
X107342826Y-124506685D01*
X107342826Y-124506685D02*
X107312588Y-124446209D01*
X107312588Y-124446209D02*
X107312588Y-124295018D01*
X107312588Y-124295018D02*
X107342826Y-124234542D01*
X107342826Y-124234542D02*
X107373065Y-124204304D01*
X107373065Y-124204304D02*
X107433541Y-124174066D01*
X107433541Y-124174066D02*
X107584731Y-124174066D01*
X107584731Y-124174066D02*
X107645207Y-124204304D01*
X107645207Y-124204304D02*
X107675446Y-124234542D01*
X107675446Y-124234542D02*
X107705684Y-124295018D01*
X107705684Y-124295018D02*
X107705684Y-124446209D01*
X107705684Y-124446209D02*
X107675446Y-124506685D01*
X107675446Y-124506685D02*
X107645207Y-124536923D01*
X147234742Y-73915684D02*
X147234742Y-73280684D01*
X147234742Y-73280684D02*
X147476647Y-73280684D01*
X147476647Y-73280684D02*
X147537123Y-73310922D01*
X147537123Y-73310922D02*
X147567361Y-73341160D01*
X147567361Y-73341160D02*
X147597599Y-73401636D01*
X147597599Y-73401636D02*
X147597599Y-73492350D01*
X147597599Y-73492350D02*
X147567361Y-73552826D01*
X147567361Y-73552826D02*
X147537123Y-73583065D01*
X147537123Y-73583065D02*
X147476647Y-73613303D01*
X147476647Y-73613303D02*
X147234742Y-73613303D01*
X147960456Y-73915684D02*
X147899980Y-73885446D01*
X147899980Y-73885446D02*
X147869742Y-73855207D01*
X147869742Y-73855207D02*
X147839504Y-73794731D01*
X147839504Y-73794731D02*
X147839504Y-73613303D01*
X147839504Y-73613303D02*
X147869742Y-73552826D01*
X147869742Y-73552826D02*
X147899980Y-73522588D01*
X147899980Y-73522588D02*
X147960456Y-73492350D01*
X147960456Y-73492350D02*
X148051171Y-73492350D01*
X148051171Y-73492350D02*
X148111647Y-73522588D01*
X148111647Y-73522588D02*
X148141885Y-73552826D01*
X148141885Y-73552826D02*
X148172123Y-73613303D01*
X148172123Y-73613303D02*
X148172123Y-73794731D01*
X148172123Y-73794731D02*
X148141885Y-73855207D01*
X148141885Y-73855207D02*
X148111647Y-73885446D01*
X148111647Y-73885446D02*
X148051171Y-73915684D01*
X148051171Y-73915684D02*
X147960456Y-73915684D01*
X148353552Y-73492350D02*
X148595456Y-73492350D01*
X148444266Y-73280684D02*
X148444266Y-73824969D01*
X148444266Y-73824969D02*
X148474504Y-73885446D01*
X148474504Y-73885446D02*
X148534980Y-73915684D01*
X148534980Y-73915684D02*
X148595456Y-73915684D01*
X149139742Y-73915684D02*
X148776885Y-73915684D01*
X148958313Y-73915684D02*
X148958313Y-73280684D01*
X148958313Y-73280684D02*
X148897837Y-73371398D01*
X148897837Y-73371398D02*
X148837361Y-73431874D01*
X148837361Y-73431874D02*
X148776885Y-73462112D01*
X138067361Y-96810922D02*
X138006885Y-96780684D01*
X138006885Y-96780684D02*
X137916171Y-96780684D01*
X137916171Y-96780684D02*
X137825456Y-96810922D01*
X137825456Y-96810922D02*
X137764980Y-96871398D01*
X137764980Y-96871398D02*
X137734742Y-96931874D01*
X137734742Y-96931874D02*
X137704504Y-97052826D01*
X137704504Y-97052826D02*
X137704504Y-97143541D01*
X137704504Y-97143541D02*
X137734742Y-97264493D01*
X137734742Y-97264493D02*
X137764980Y-97324969D01*
X137764980Y-97324969D02*
X137825456Y-97385446D01*
X137825456Y-97385446D02*
X137916171Y-97415684D01*
X137916171Y-97415684D02*
X137976647Y-97415684D01*
X137976647Y-97415684D02*
X138067361Y-97385446D01*
X138067361Y-97385446D02*
X138097599Y-97355207D01*
X138097599Y-97355207D02*
X138097599Y-97143541D01*
X138097599Y-97143541D02*
X137976647Y-97143541D01*
X138369742Y-97415684D02*
X138369742Y-96780684D01*
X138369742Y-96780684D02*
X138732599Y-97415684D01*
X138732599Y-97415684D02*
X138732599Y-96780684D01*
X139034980Y-97415684D02*
X139034980Y-96780684D01*
X139034980Y-96780684D02*
X139186170Y-96780684D01*
X139186170Y-96780684D02*
X139276885Y-96810922D01*
X139276885Y-96810922D02*
X139337361Y-96871398D01*
X139337361Y-96871398D02*
X139367599Y-96931874D01*
X139367599Y-96931874D02*
X139397837Y-97052826D01*
X139397837Y-97052826D02*
X139397837Y-97143541D01*
X139397837Y-97143541D02*
X139367599Y-97264493D01*
X139367599Y-97264493D02*
X139337361Y-97324969D01*
X139337361Y-97324969D02*
X139276885Y-97385446D01*
X139276885Y-97385446D02*
X139186170Y-97415684D01*
X139186170Y-97415684D02*
X139034980Y-97415684D01*
X144004504Y-123285446D02*
X144095218Y-123315684D01*
X144095218Y-123315684D02*
X144246409Y-123315684D01*
X144246409Y-123315684D02*
X144306885Y-123285446D01*
X144306885Y-123285446D02*
X144337123Y-123255207D01*
X144337123Y-123255207D02*
X144367361Y-123194731D01*
X144367361Y-123194731D02*
X144367361Y-123134255D01*
X144367361Y-123134255D02*
X144337123Y-123073779D01*
X144337123Y-123073779D02*
X144306885Y-123043541D01*
X144306885Y-123043541D02*
X144246409Y-123013303D01*
X144246409Y-123013303D02*
X144125456Y-122983065D01*
X144125456Y-122983065D02*
X144064980Y-122952826D01*
X144064980Y-122952826D02*
X144034742Y-122922588D01*
X144034742Y-122922588D02*
X144004504Y-122862112D01*
X144004504Y-122862112D02*
X144004504Y-122801636D01*
X144004504Y-122801636D02*
X144034742Y-122741160D01*
X144034742Y-122741160D02*
X144064980Y-122710922D01*
X144064980Y-122710922D02*
X144125456Y-122680684D01*
X144125456Y-122680684D02*
X144276647Y-122680684D01*
X144276647Y-122680684D02*
X144367361Y-122710922D01*
X145002361Y-123255207D02*
X144972123Y-123285446D01*
X144972123Y-123285446D02*
X144881409Y-123315684D01*
X144881409Y-123315684D02*
X144820933Y-123315684D01*
X144820933Y-123315684D02*
X144730218Y-123285446D01*
X144730218Y-123285446D02*
X144669742Y-123224969D01*
X144669742Y-123224969D02*
X144639504Y-123164493D01*
X144639504Y-123164493D02*
X144609266Y-123043541D01*
X144609266Y-123043541D02*
X144609266Y-122952826D01*
X144609266Y-122952826D02*
X144639504Y-122831874D01*
X144639504Y-122831874D02*
X144669742Y-122771398D01*
X144669742Y-122771398D02*
X144730218Y-122710922D01*
X144730218Y-122710922D02*
X144820933Y-122680684D01*
X144820933Y-122680684D02*
X144881409Y-122680684D01*
X144881409Y-122680684D02*
X144972123Y-122710922D01*
X144972123Y-122710922D02*
X145002361Y-122741160D01*
X145576885Y-123315684D02*
X145274504Y-123315684D01*
X145274504Y-123315684D02*
X145274504Y-122680684D01*
X151234742Y-93915684D02*
X151234742Y-93280684D01*
X151234742Y-93280684D02*
X151476647Y-93280684D01*
X151476647Y-93280684D02*
X151537123Y-93310922D01*
X151537123Y-93310922D02*
X151567361Y-93341160D01*
X151567361Y-93341160D02*
X151597599Y-93401636D01*
X151597599Y-93401636D02*
X151597599Y-93492350D01*
X151597599Y-93492350D02*
X151567361Y-93552826D01*
X151567361Y-93552826D02*
X151537123Y-93583065D01*
X151537123Y-93583065D02*
X151476647Y-93613303D01*
X151476647Y-93613303D02*
X151234742Y-93613303D01*
X151960456Y-93915684D02*
X151899980Y-93885446D01*
X151899980Y-93885446D02*
X151869742Y-93855207D01*
X151869742Y-93855207D02*
X151839504Y-93794731D01*
X151839504Y-93794731D02*
X151839504Y-93613303D01*
X151839504Y-93613303D02*
X151869742Y-93552826D01*
X151869742Y-93552826D02*
X151899980Y-93522588D01*
X151899980Y-93522588D02*
X151960456Y-93492350D01*
X151960456Y-93492350D02*
X152051171Y-93492350D01*
X152051171Y-93492350D02*
X152111647Y-93522588D01*
X152111647Y-93522588D02*
X152141885Y-93552826D01*
X152141885Y-93552826D02*
X152172123Y-93613303D01*
X152172123Y-93613303D02*
X152172123Y-93794731D01*
X152172123Y-93794731D02*
X152141885Y-93855207D01*
X152141885Y-93855207D02*
X152111647Y-93885446D01*
X152111647Y-93885446D02*
X152051171Y-93915684D01*
X152051171Y-93915684D02*
X151960456Y-93915684D01*
X152353552Y-93492350D02*
X152595456Y-93492350D01*
X152444266Y-93280684D02*
X152444266Y-93824969D01*
X152444266Y-93824969D02*
X152474504Y-93885446D01*
X152474504Y-93885446D02*
X152534980Y-93915684D01*
X152534980Y-93915684D02*
X152595456Y-93915684D01*
X152776885Y-93341160D02*
X152807123Y-93310922D01*
X152807123Y-93310922D02*
X152867599Y-93280684D01*
X152867599Y-93280684D02*
X153018790Y-93280684D01*
X153018790Y-93280684D02*
X153079266Y-93310922D01*
X153079266Y-93310922D02*
X153109504Y-93341160D01*
X153109504Y-93341160D02*
X153139742Y-93401636D01*
X153139742Y-93401636D02*
X153139742Y-93462112D01*
X153139742Y-93462112D02*
X153109504Y-93552826D01*
X153109504Y-93552826D02*
X152746647Y-93915684D01*
X152746647Y-93915684D02*
X153139742Y-93915684D01*
X146204504Y-143885446D02*
X146295218Y-143915684D01*
X146295218Y-143915684D02*
X146446409Y-143915684D01*
X146446409Y-143915684D02*
X146506885Y-143885446D01*
X146506885Y-143885446D02*
X146537123Y-143855207D01*
X146537123Y-143855207D02*
X146567361Y-143794731D01*
X146567361Y-143794731D02*
X146567361Y-143734255D01*
X146567361Y-143734255D02*
X146537123Y-143673779D01*
X146537123Y-143673779D02*
X146506885Y-143643541D01*
X146506885Y-143643541D02*
X146446409Y-143613303D01*
X146446409Y-143613303D02*
X146325456Y-143583065D01*
X146325456Y-143583065D02*
X146264980Y-143552826D01*
X146264980Y-143552826D02*
X146234742Y-143522588D01*
X146234742Y-143522588D02*
X146204504Y-143462112D01*
X146204504Y-143462112D02*
X146204504Y-143401636D01*
X146204504Y-143401636D02*
X146234742Y-143341160D01*
X146234742Y-143341160D02*
X146264980Y-143310922D01*
X146264980Y-143310922D02*
X146325456Y-143280684D01*
X146325456Y-143280684D02*
X146476647Y-143280684D01*
X146476647Y-143280684D02*
X146567361Y-143310922D01*
X146839504Y-143915684D02*
X146839504Y-143492350D01*
X146839504Y-143280684D02*
X146809266Y-143310922D01*
X146809266Y-143310922D02*
X146839504Y-143341160D01*
X146839504Y-143341160D02*
X146869742Y-143310922D01*
X146869742Y-143310922D02*
X146839504Y-143280684D01*
X146839504Y-143280684D02*
X146839504Y-143341160D01*
X147414028Y-143492350D02*
X147414028Y-144006398D01*
X147414028Y-144006398D02*
X147383790Y-144066874D01*
X147383790Y-144066874D02*
X147353552Y-144097112D01*
X147353552Y-144097112D02*
X147293075Y-144127350D01*
X147293075Y-144127350D02*
X147202361Y-144127350D01*
X147202361Y-144127350D02*
X147141885Y-144097112D01*
X147414028Y-143885446D02*
X147353552Y-143915684D01*
X147353552Y-143915684D02*
X147232599Y-143915684D01*
X147232599Y-143915684D02*
X147172123Y-143885446D01*
X147172123Y-143885446D02*
X147141885Y-143855207D01*
X147141885Y-143855207D02*
X147111647Y-143794731D01*
X147111647Y-143794731D02*
X147111647Y-143613303D01*
X147111647Y-143613303D02*
X147141885Y-143552826D01*
X147141885Y-143552826D02*
X147172123Y-143522588D01*
X147172123Y-143522588D02*
X147232599Y-143492350D01*
X147232599Y-143492350D02*
X147353552Y-143492350D01*
X147353552Y-143492350D02*
X147414028Y-143522588D01*
X148502600Y-143280684D02*
X148200219Y-143280684D01*
X148200219Y-143280684D02*
X148169981Y-143583065D01*
X148169981Y-143583065D02*
X148200219Y-143552826D01*
X148200219Y-143552826D02*
X148260695Y-143522588D01*
X148260695Y-143522588D02*
X148411886Y-143522588D01*
X148411886Y-143522588D02*
X148472362Y-143552826D01*
X148472362Y-143552826D02*
X148502600Y-143583065D01*
X148502600Y-143583065D02*
X148532838Y-143643541D01*
X148532838Y-143643541D02*
X148532838Y-143794731D01*
X148532838Y-143794731D02*
X148502600Y-143855207D01*
X148502600Y-143855207D02*
X148472362Y-143885446D01*
X148472362Y-143885446D02*
X148411886Y-143915684D01*
X148411886Y-143915684D02*
X148260695Y-143915684D01*
X148260695Y-143915684D02*
X148200219Y-143885446D01*
X148200219Y-143885446D02*
X148169981Y-143855207D01*
X133704504Y-143917946D02*
X133795218Y-143948184D01*
X133795218Y-143948184D02*
X133946409Y-143948184D01*
X133946409Y-143948184D02*
X134006885Y-143917946D01*
X134006885Y-143917946D02*
X134037123Y-143887707D01*
X134037123Y-143887707D02*
X134067361Y-143827231D01*
X134067361Y-143827231D02*
X134067361Y-143766755D01*
X134067361Y-143766755D02*
X134037123Y-143706279D01*
X134037123Y-143706279D02*
X134006885Y-143676041D01*
X134006885Y-143676041D02*
X133946409Y-143645803D01*
X133946409Y-143645803D02*
X133825456Y-143615565D01*
X133825456Y-143615565D02*
X133764980Y-143585326D01*
X133764980Y-143585326D02*
X133734742Y-143555088D01*
X133734742Y-143555088D02*
X133704504Y-143494612D01*
X133704504Y-143494612D02*
X133704504Y-143434136D01*
X133704504Y-143434136D02*
X133734742Y-143373660D01*
X133734742Y-143373660D02*
X133764980Y-143343422D01*
X133764980Y-143343422D02*
X133825456Y-143313184D01*
X133825456Y-143313184D02*
X133976647Y-143313184D01*
X133976647Y-143313184D02*
X134067361Y-143343422D01*
X134339504Y-143948184D02*
X134339504Y-143524850D01*
X134339504Y-143313184D02*
X134309266Y-143343422D01*
X134309266Y-143343422D02*
X134339504Y-143373660D01*
X134339504Y-143373660D02*
X134369742Y-143343422D01*
X134369742Y-143343422D02*
X134339504Y-143313184D01*
X134339504Y-143313184D02*
X134339504Y-143373660D01*
X134914028Y-143524850D02*
X134914028Y-144038898D01*
X134914028Y-144038898D02*
X134883790Y-144099374D01*
X134883790Y-144099374D02*
X134853552Y-144129612D01*
X134853552Y-144129612D02*
X134793075Y-144159850D01*
X134793075Y-144159850D02*
X134702361Y-144159850D01*
X134702361Y-144159850D02*
X134641885Y-144129612D01*
X134914028Y-143917946D02*
X134853552Y-143948184D01*
X134853552Y-143948184D02*
X134732599Y-143948184D01*
X134732599Y-143948184D02*
X134672123Y-143917946D01*
X134672123Y-143917946D02*
X134641885Y-143887707D01*
X134641885Y-143887707D02*
X134611647Y-143827231D01*
X134611647Y-143827231D02*
X134611647Y-143645803D01*
X134611647Y-143645803D02*
X134641885Y-143585326D01*
X134641885Y-143585326D02*
X134672123Y-143555088D01*
X134672123Y-143555088D02*
X134732599Y-143524850D01*
X134732599Y-143524850D02*
X134853552Y-143524850D01*
X134853552Y-143524850D02*
X134914028Y-143555088D01*
X135972362Y-143524850D02*
X135972362Y-143948184D01*
X135821171Y-143282946D02*
X135669981Y-143736517D01*
X135669981Y-143736517D02*
X136063076Y-143736517D01*
X146504504Y-123285446D02*
X146595218Y-123315684D01*
X146595218Y-123315684D02*
X146746409Y-123315684D01*
X146746409Y-123315684D02*
X146806885Y-123285446D01*
X146806885Y-123285446D02*
X146837123Y-123255207D01*
X146837123Y-123255207D02*
X146867361Y-123194731D01*
X146867361Y-123194731D02*
X146867361Y-123134255D01*
X146867361Y-123134255D02*
X146837123Y-123073779D01*
X146837123Y-123073779D02*
X146806885Y-123043541D01*
X146806885Y-123043541D02*
X146746409Y-123013303D01*
X146746409Y-123013303D02*
X146625456Y-122983065D01*
X146625456Y-122983065D02*
X146564980Y-122952826D01*
X146564980Y-122952826D02*
X146534742Y-122922588D01*
X146534742Y-122922588D02*
X146504504Y-122862112D01*
X146504504Y-122862112D02*
X146504504Y-122801636D01*
X146504504Y-122801636D02*
X146534742Y-122741160D01*
X146534742Y-122741160D02*
X146564980Y-122710922D01*
X146564980Y-122710922D02*
X146625456Y-122680684D01*
X146625456Y-122680684D02*
X146776647Y-122680684D01*
X146776647Y-122680684D02*
X146867361Y-122710922D01*
X147139504Y-123315684D02*
X147139504Y-122680684D01*
X147139504Y-122680684D02*
X147290694Y-122680684D01*
X147290694Y-122680684D02*
X147381409Y-122710922D01*
X147381409Y-122710922D02*
X147441885Y-122771398D01*
X147441885Y-122771398D02*
X147472123Y-122831874D01*
X147472123Y-122831874D02*
X147502361Y-122952826D01*
X147502361Y-122952826D02*
X147502361Y-123043541D01*
X147502361Y-123043541D02*
X147472123Y-123164493D01*
X147472123Y-123164493D02*
X147441885Y-123224969D01*
X147441885Y-123224969D02*
X147381409Y-123285446D01*
X147381409Y-123285446D02*
X147290694Y-123315684D01*
X147290694Y-123315684D02*
X147139504Y-123315684D01*
X147744266Y-123134255D02*
X148046647Y-123134255D01*
X147683790Y-123315684D02*
X147895456Y-122680684D01*
X147895456Y-122680684D02*
X148107123Y-123315684D01*
X94905814Y-132313184D02*
X94603433Y-132313184D01*
X94603433Y-132313184D02*
X94573195Y-132615565D01*
X94573195Y-132615565D02*
X94603433Y-132585326D01*
X94603433Y-132585326D02*
X94663909Y-132555088D01*
X94663909Y-132555088D02*
X94815100Y-132555088D01*
X94815100Y-132555088D02*
X94875576Y-132585326D01*
X94875576Y-132585326D02*
X94905814Y-132615565D01*
X94905814Y-132615565D02*
X94936052Y-132676041D01*
X94936052Y-132676041D02*
X94936052Y-132827231D01*
X94936052Y-132827231D02*
X94905814Y-132887707D01*
X94905814Y-132887707D02*
X94875576Y-132917946D01*
X94875576Y-132917946D02*
X94815100Y-132948184D01*
X94815100Y-132948184D02*
X94663909Y-132948184D01*
X94663909Y-132948184D02*
X94603433Y-132917946D01*
X94603433Y-132917946D02*
X94573195Y-132887707D01*
X95117481Y-132313184D02*
X95329147Y-132948184D01*
X95329147Y-132948184D02*
X95540814Y-132313184D01*
X105135446Y-125625495D02*
X105165684Y-125534781D01*
X105165684Y-125534781D02*
X105165684Y-125383590D01*
X105165684Y-125383590D02*
X105135446Y-125323114D01*
X105135446Y-125323114D02*
X105105207Y-125292876D01*
X105105207Y-125292876D02*
X105044731Y-125262638D01*
X105044731Y-125262638D02*
X104984255Y-125262638D01*
X104984255Y-125262638D02*
X104923779Y-125292876D01*
X104923779Y-125292876D02*
X104893541Y-125323114D01*
X104893541Y-125323114D02*
X104863303Y-125383590D01*
X104863303Y-125383590D02*
X104833065Y-125504543D01*
X104833065Y-125504543D02*
X104802826Y-125565019D01*
X104802826Y-125565019D02*
X104772588Y-125595257D01*
X104772588Y-125595257D02*
X104712112Y-125625495D01*
X104712112Y-125625495D02*
X104651636Y-125625495D01*
X104651636Y-125625495D02*
X104591160Y-125595257D01*
X104591160Y-125595257D02*
X104560922Y-125565019D01*
X104560922Y-125565019D02*
X104530684Y-125504543D01*
X104530684Y-125504543D02*
X104530684Y-125353352D01*
X104530684Y-125353352D02*
X104560922Y-125262638D01*
X104530684Y-125081209D02*
X104530684Y-124718352D01*
X105165684Y-124899781D02*
X104530684Y-124899781D01*
X104742350Y-124234542D02*
X105165684Y-124234542D01*
X104500446Y-124385733D02*
X104954017Y-124536923D01*
X104954017Y-124536923D02*
X104954017Y-124143828D01*
X124825456Y-129277496D02*
X125006885Y-129337972D01*
X125006885Y-129337972D02*
X125309266Y-129337972D01*
X125309266Y-129337972D02*
X125430218Y-129277496D01*
X125430218Y-129277496D02*
X125490694Y-129217019D01*
X125490694Y-129217019D02*
X125551171Y-129096067D01*
X125551171Y-129096067D02*
X125551171Y-128975115D01*
X125551171Y-128975115D02*
X125490694Y-128854162D01*
X125490694Y-128854162D02*
X125430218Y-128793686D01*
X125430218Y-128793686D02*
X125309266Y-128733210D01*
X125309266Y-128733210D02*
X125067361Y-128672734D01*
X125067361Y-128672734D02*
X124946409Y-128612257D01*
X124946409Y-128612257D02*
X124885932Y-128551781D01*
X124885932Y-128551781D02*
X124825456Y-128430829D01*
X124825456Y-128430829D02*
X124825456Y-128309876D01*
X124825456Y-128309876D02*
X124885932Y-128188924D01*
X124885932Y-128188924D02*
X124946409Y-128128448D01*
X124946409Y-128128448D02*
X125067361Y-128067972D01*
X125067361Y-128067972D02*
X125369742Y-128067972D01*
X125369742Y-128067972D02*
X125551171Y-128128448D01*
X126821171Y-129217019D02*
X126760695Y-129277496D01*
X126760695Y-129277496D02*
X126579266Y-129337972D01*
X126579266Y-129337972D02*
X126458314Y-129337972D01*
X126458314Y-129337972D02*
X126276885Y-129277496D01*
X126276885Y-129277496D02*
X126155933Y-129156543D01*
X126155933Y-129156543D02*
X126095456Y-129035591D01*
X126095456Y-129035591D02*
X126034980Y-128793686D01*
X126034980Y-128793686D02*
X126034980Y-128612257D01*
X126034980Y-128612257D02*
X126095456Y-128370353D01*
X126095456Y-128370353D02*
X126155933Y-128249400D01*
X126155933Y-128249400D02*
X126276885Y-128128448D01*
X126276885Y-128128448D02*
X126458314Y-128067972D01*
X126458314Y-128067972D02*
X126579266Y-128067972D01*
X126579266Y-128067972D02*
X126760695Y-128128448D01*
X126760695Y-128128448D02*
X126821171Y-128188924D01*
X127365456Y-129337972D02*
X127365456Y-128067972D01*
X127365456Y-128672734D02*
X128091171Y-128672734D01*
X128091171Y-129337972D02*
X128091171Y-128067972D01*
X128695932Y-129337972D02*
X128695932Y-128067972D01*
X128695932Y-128067972D02*
X129119266Y-128975115D01*
X129119266Y-128975115D02*
X129542599Y-128067972D01*
X129542599Y-128067972D02*
X129542599Y-129337972D01*
X130147361Y-129337972D02*
X130147361Y-128067972D01*
X130570695Y-128067972D02*
X131296409Y-128067972D01*
X130933552Y-129337972D02*
X130933552Y-128067972D01*
X131538314Y-128067972D02*
X132264028Y-128067972D01*
X131901171Y-129337972D02*
X131901171Y-128067972D01*
X133473552Y-128067972D02*
X134199266Y-128067972D01*
X133836409Y-129337972D02*
X133836409Y-128067972D01*
X135348314Y-129337972D02*
X134924980Y-128733210D01*
X134622599Y-129337972D02*
X134622599Y-128067972D01*
X134622599Y-128067972D02*
X135106409Y-128067972D01*
X135106409Y-128067972D02*
X135227361Y-128128448D01*
X135227361Y-128128448D02*
X135287838Y-128188924D01*
X135287838Y-128188924D02*
X135348314Y-128309876D01*
X135348314Y-128309876D02*
X135348314Y-128491305D01*
X135348314Y-128491305D02*
X135287838Y-128612257D01*
X135287838Y-128612257D02*
X135227361Y-128672734D01*
X135227361Y-128672734D02*
X135106409Y-128733210D01*
X135106409Y-128733210D02*
X134622599Y-128733210D01*
X135892599Y-129337972D02*
X135892599Y-128067972D01*
X137162600Y-128128448D02*
X137041647Y-128067972D01*
X137041647Y-128067972D02*
X136860219Y-128067972D01*
X136860219Y-128067972D02*
X136678790Y-128128448D01*
X136678790Y-128128448D02*
X136557838Y-128249400D01*
X136557838Y-128249400D02*
X136497361Y-128370353D01*
X136497361Y-128370353D02*
X136436885Y-128612257D01*
X136436885Y-128612257D02*
X136436885Y-128793686D01*
X136436885Y-128793686D02*
X136497361Y-129035591D01*
X136497361Y-129035591D02*
X136557838Y-129156543D01*
X136557838Y-129156543D02*
X136678790Y-129277496D01*
X136678790Y-129277496D02*
X136860219Y-129337972D01*
X136860219Y-129337972D02*
X136981171Y-129337972D01*
X136981171Y-129337972D02*
X137162600Y-129277496D01*
X137162600Y-129277496D02*
X137223076Y-129217019D01*
X137223076Y-129217019D02*
X137223076Y-128793686D01*
X137223076Y-128793686D02*
X136981171Y-128793686D01*
X138432600Y-128128448D02*
X138311647Y-128067972D01*
X138311647Y-128067972D02*
X138130219Y-128067972D01*
X138130219Y-128067972D02*
X137948790Y-128128448D01*
X137948790Y-128128448D02*
X137827838Y-128249400D01*
X137827838Y-128249400D02*
X137767361Y-128370353D01*
X137767361Y-128370353D02*
X137706885Y-128612257D01*
X137706885Y-128612257D02*
X137706885Y-128793686D01*
X137706885Y-128793686D02*
X137767361Y-129035591D01*
X137767361Y-129035591D02*
X137827838Y-129156543D01*
X137827838Y-129156543D02*
X137948790Y-129277496D01*
X137948790Y-129277496D02*
X138130219Y-129337972D01*
X138130219Y-129337972D02*
X138251171Y-129337972D01*
X138251171Y-129337972D02*
X138432600Y-129277496D01*
X138432600Y-129277496D02*
X138493076Y-129217019D01*
X138493076Y-129217019D02*
X138493076Y-128793686D01*
X138493076Y-128793686D02*
X138251171Y-128793686D01*
X139037361Y-128672734D02*
X139460695Y-128672734D01*
X139642123Y-129337972D02*
X139037361Y-129337972D01*
X139037361Y-129337972D02*
X139037361Y-128067972D01*
X139037361Y-128067972D02*
X139642123Y-128067972D01*
X140912124Y-129337972D02*
X140488790Y-128733210D01*
X140186409Y-129337972D02*
X140186409Y-128067972D01*
X140186409Y-128067972D02*
X140670219Y-128067972D01*
X140670219Y-128067972D02*
X140791171Y-128128448D01*
X140791171Y-128128448D02*
X140851648Y-128188924D01*
X140851648Y-128188924D02*
X140912124Y-128309876D01*
X140912124Y-128309876D02*
X140912124Y-128491305D01*
X140912124Y-128491305D02*
X140851648Y-128612257D01*
X140851648Y-128612257D02*
X140791171Y-128672734D01*
X140791171Y-128672734D02*
X140670219Y-128733210D01*
X140670219Y-128733210D02*
X140186409Y-128733210D01*
X142424028Y-129337972D02*
X142424028Y-128067972D01*
X143028790Y-129337972D02*
X143028790Y-128067972D01*
X143028790Y-128067972D02*
X143754505Y-129337972D01*
X143754505Y-129337972D02*
X143754505Y-128067972D01*
X144359266Y-129337972D02*
X144359266Y-128067972D01*
X144359266Y-128067972D02*
X144843076Y-128067972D01*
X144843076Y-128067972D02*
X144964028Y-128128448D01*
X144964028Y-128128448D02*
X145024505Y-128188924D01*
X145024505Y-128188924D02*
X145084981Y-128309876D01*
X145084981Y-128309876D02*
X145084981Y-128491305D01*
X145084981Y-128491305D02*
X145024505Y-128612257D01*
X145024505Y-128612257D02*
X144964028Y-128672734D01*
X144964028Y-128672734D02*
X144843076Y-128733210D01*
X144843076Y-128733210D02*
X144359266Y-128733210D01*
X145629266Y-128067972D02*
X145629266Y-129096067D01*
X145629266Y-129096067D02*
X145689743Y-129217019D01*
X145689743Y-129217019D02*
X145750219Y-129277496D01*
X145750219Y-129277496D02*
X145871171Y-129337972D01*
X145871171Y-129337972D02*
X146113076Y-129337972D01*
X146113076Y-129337972D02*
X146234028Y-129277496D01*
X146234028Y-129277496D02*
X146294505Y-129217019D01*
X146294505Y-129217019D02*
X146354981Y-129096067D01*
X146354981Y-129096067D02*
X146354981Y-128067972D01*
X146778314Y-128067972D02*
X147504028Y-128067972D01*
X147141171Y-129337972D02*
X147141171Y-128067972D01*
X147866885Y-129277496D02*
X148048314Y-129337972D01*
X148048314Y-129337972D02*
X148350695Y-129337972D01*
X148350695Y-129337972D02*
X148471647Y-129277496D01*
X148471647Y-129277496D02*
X148532123Y-129217019D01*
X148532123Y-129217019D02*
X148592600Y-129096067D01*
X148592600Y-129096067D02*
X148592600Y-128975115D01*
X148592600Y-128975115D02*
X148532123Y-128854162D01*
X148532123Y-128854162D02*
X148471647Y-128793686D01*
X148471647Y-128793686D02*
X148350695Y-128733210D01*
X148350695Y-128733210D02*
X148108790Y-128672734D01*
X148108790Y-128672734D02*
X147987838Y-128612257D01*
X147987838Y-128612257D02*
X147927361Y-128551781D01*
X147927361Y-128551781D02*
X147866885Y-128430829D01*
X147866885Y-128430829D02*
X147866885Y-128309876D01*
X147866885Y-128309876D02*
X147927361Y-128188924D01*
X147927361Y-128188924D02*
X147987838Y-128128448D01*
X147987838Y-128128448D02*
X148108790Y-128067972D01*
X148108790Y-128067972D02*
X148411171Y-128067972D01*
X148411171Y-128067972D02*
X148592600Y-128128448D01*
X158704504Y-143917946D02*
X158795218Y-143948184D01*
X158795218Y-143948184D02*
X158946409Y-143948184D01*
X158946409Y-143948184D02*
X159006885Y-143917946D01*
X159006885Y-143917946D02*
X159037123Y-143887707D01*
X159037123Y-143887707D02*
X159067361Y-143827231D01*
X159067361Y-143827231D02*
X159067361Y-143766755D01*
X159067361Y-143766755D02*
X159037123Y-143706279D01*
X159037123Y-143706279D02*
X159006885Y-143676041D01*
X159006885Y-143676041D02*
X158946409Y-143645803D01*
X158946409Y-143645803D02*
X158825456Y-143615565D01*
X158825456Y-143615565D02*
X158764980Y-143585326D01*
X158764980Y-143585326D02*
X158734742Y-143555088D01*
X158734742Y-143555088D02*
X158704504Y-143494612D01*
X158704504Y-143494612D02*
X158704504Y-143434136D01*
X158704504Y-143434136D02*
X158734742Y-143373660D01*
X158734742Y-143373660D02*
X158764980Y-143343422D01*
X158764980Y-143343422D02*
X158825456Y-143313184D01*
X158825456Y-143313184D02*
X158976647Y-143313184D01*
X158976647Y-143313184D02*
X159067361Y-143343422D01*
X159339504Y-143948184D02*
X159339504Y-143524850D01*
X159339504Y-143313184D02*
X159309266Y-143343422D01*
X159309266Y-143343422D02*
X159339504Y-143373660D01*
X159339504Y-143373660D02*
X159369742Y-143343422D01*
X159369742Y-143343422D02*
X159339504Y-143313184D01*
X159339504Y-143313184D02*
X159339504Y-143373660D01*
X159914028Y-143524850D02*
X159914028Y-144038898D01*
X159914028Y-144038898D02*
X159883790Y-144099374D01*
X159883790Y-144099374D02*
X159853552Y-144129612D01*
X159853552Y-144129612D02*
X159793075Y-144159850D01*
X159793075Y-144159850D02*
X159702361Y-144159850D01*
X159702361Y-144159850D02*
X159641885Y-144129612D01*
X159914028Y-143917946D02*
X159853552Y-143948184D01*
X159853552Y-143948184D02*
X159732599Y-143948184D01*
X159732599Y-143948184D02*
X159672123Y-143917946D01*
X159672123Y-143917946D02*
X159641885Y-143887707D01*
X159641885Y-143887707D02*
X159611647Y-143827231D01*
X159611647Y-143827231D02*
X159611647Y-143645803D01*
X159611647Y-143645803D02*
X159641885Y-143585326D01*
X159641885Y-143585326D02*
X159672123Y-143555088D01*
X159672123Y-143555088D02*
X159732599Y-143524850D01*
X159732599Y-143524850D02*
X159853552Y-143524850D01*
X159853552Y-143524850D02*
X159914028Y-143555088D01*
X160972362Y-143313184D02*
X160851409Y-143313184D01*
X160851409Y-143313184D02*
X160790933Y-143343422D01*
X160790933Y-143343422D02*
X160760695Y-143373660D01*
X160760695Y-143373660D02*
X160700219Y-143464374D01*
X160700219Y-143464374D02*
X160669981Y-143585326D01*
X160669981Y-143585326D02*
X160669981Y-143827231D01*
X160669981Y-143827231D02*
X160700219Y-143887707D01*
X160700219Y-143887707D02*
X160730457Y-143917946D01*
X160730457Y-143917946D02*
X160790933Y-143948184D01*
X160790933Y-143948184D02*
X160911886Y-143948184D01*
X160911886Y-143948184D02*
X160972362Y-143917946D01*
X160972362Y-143917946D02*
X161002600Y-143887707D01*
X161002600Y-143887707D02*
X161032838Y-143827231D01*
X161032838Y-143827231D02*
X161032838Y-143676041D01*
X161032838Y-143676041D02*
X161002600Y-143615565D01*
X161002600Y-143615565D02*
X160972362Y-143585326D01*
X160972362Y-143585326D02*
X160911886Y-143555088D01*
X160911886Y-143555088D02*
X160790933Y-143555088D01*
X160790933Y-143555088D02*
X160730457Y-143585326D01*
X160730457Y-143585326D02*
X160700219Y-143615565D01*
X160700219Y-143615565D02*
X160669981Y-143676041D01*
X164704504Y-120885446D02*
X164795218Y-120915684D01*
X164795218Y-120915684D02*
X164946409Y-120915684D01*
X164946409Y-120915684D02*
X165006885Y-120885446D01*
X165006885Y-120885446D02*
X165037123Y-120855207D01*
X165037123Y-120855207D02*
X165067361Y-120794731D01*
X165067361Y-120794731D02*
X165067361Y-120734255D01*
X165067361Y-120734255D02*
X165037123Y-120673779D01*
X165037123Y-120673779D02*
X165006885Y-120643541D01*
X165006885Y-120643541D02*
X164946409Y-120613303D01*
X164946409Y-120613303D02*
X164825456Y-120583065D01*
X164825456Y-120583065D02*
X164764980Y-120552826D01*
X164764980Y-120552826D02*
X164734742Y-120522588D01*
X164734742Y-120522588D02*
X164704504Y-120462112D01*
X164704504Y-120462112D02*
X164704504Y-120401636D01*
X164704504Y-120401636D02*
X164734742Y-120341160D01*
X164734742Y-120341160D02*
X164764980Y-120310922D01*
X164764980Y-120310922D02*
X164825456Y-120280684D01*
X164825456Y-120280684D02*
X164976647Y-120280684D01*
X164976647Y-120280684D02*
X165067361Y-120310922D01*
X165339504Y-120915684D02*
X165339504Y-120492350D01*
X165339504Y-120280684D02*
X165309266Y-120310922D01*
X165309266Y-120310922D02*
X165339504Y-120341160D01*
X165339504Y-120341160D02*
X165369742Y-120310922D01*
X165369742Y-120310922D02*
X165339504Y-120280684D01*
X165339504Y-120280684D02*
X165339504Y-120341160D01*
X165914028Y-120492350D02*
X165914028Y-121006398D01*
X165914028Y-121006398D02*
X165883790Y-121066874D01*
X165883790Y-121066874D02*
X165853552Y-121097112D01*
X165853552Y-121097112D02*
X165793075Y-121127350D01*
X165793075Y-121127350D02*
X165702361Y-121127350D01*
X165702361Y-121127350D02*
X165641885Y-121097112D01*
X165914028Y-120885446D02*
X165853552Y-120915684D01*
X165853552Y-120915684D02*
X165732599Y-120915684D01*
X165732599Y-120915684D02*
X165672123Y-120885446D01*
X165672123Y-120885446D02*
X165641885Y-120855207D01*
X165641885Y-120855207D02*
X165611647Y-120794731D01*
X165611647Y-120794731D02*
X165611647Y-120613303D01*
X165611647Y-120613303D02*
X165641885Y-120552826D01*
X165641885Y-120552826D02*
X165672123Y-120522588D01*
X165672123Y-120522588D02*
X165732599Y-120492350D01*
X165732599Y-120492350D02*
X165853552Y-120492350D01*
X165853552Y-120492350D02*
X165914028Y-120522588D01*
X167032838Y-120915684D02*
X166669981Y-120915684D01*
X166851409Y-120915684D02*
X166851409Y-120280684D01*
X166851409Y-120280684D02*
X166790933Y-120371398D01*
X166790933Y-120371398D02*
X166730457Y-120431874D01*
X166730457Y-120431874D02*
X166669981Y-120462112D01*
X166531290Y-76280684D02*
X166924385Y-76280684D01*
X166924385Y-76280684D02*
X166712718Y-76522588D01*
X166712718Y-76522588D02*
X166803433Y-76522588D01*
X166803433Y-76522588D02*
X166863909Y-76552826D01*
X166863909Y-76552826D02*
X166894147Y-76583065D01*
X166894147Y-76583065D02*
X166924385Y-76643541D01*
X166924385Y-76643541D02*
X166924385Y-76794731D01*
X166924385Y-76794731D02*
X166894147Y-76855207D01*
X166894147Y-76855207D02*
X166863909Y-76885446D01*
X166863909Y-76885446D02*
X166803433Y-76915684D01*
X166803433Y-76915684D02*
X166622004Y-76915684D01*
X166622004Y-76915684D02*
X166561528Y-76885446D01*
X166561528Y-76885446D02*
X166531290Y-76855207D01*
X167196528Y-76855207D02*
X167226766Y-76885446D01*
X167226766Y-76885446D02*
X167196528Y-76915684D01*
X167196528Y-76915684D02*
X167166290Y-76885446D01*
X167166290Y-76885446D02*
X167196528Y-76855207D01*
X167196528Y-76855207D02*
X167196528Y-76915684D01*
X167438433Y-76280684D02*
X167831528Y-76280684D01*
X167831528Y-76280684D02*
X167619861Y-76522588D01*
X167619861Y-76522588D02*
X167710576Y-76522588D01*
X167710576Y-76522588D02*
X167771052Y-76552826D01*
X167771052Y-76552826D02*
X167801290Y-76583065D01*
X167801290Y-76583065D02*
X167831528Y-76643541D01*
X167831528Y-76643541D02*
X167831528Y-76794731D01*
X167831528Y-76794731D02*
X167801290Y-76855207D01*
X167801290Y-76855207D02*
X167771052Y-76885446D01*
X167771052Y-76885446D02*
X167710576Y-76915684D01*
X167710576Y-76915684D02*
X167529147Y-76915684D01*
X167529147Y-76915684D02*
X167468671Y-76885446D01*
X167468671Y-76885446D02*
X167438433Y-76855207D01*
X168012957Y-76280684D02*
X168224623Y-76915684D01*
X168224623Y-76915684D02*
X168436290Y-76280684D01*
X146167972Y-117514067D02*
X147196067Y-117514067D01*
X147196067Y-117514067D02*
X147317019Y-117453590D01*
X147317019Y-117453590D02*
X147377496Y-117393114D01*
X147377496Y-117393114D02*
X147437972Y-117272162D01*
X147437972Y-117272162D02*
X147437972Y-117030257D01*
X147437972Y-117030257D02*
X147377496Y-116909305D01*
X147377496Y-116909305D02*
X147317019Y-116848828D01*
X147317019Y-116848828D02*
X147196067Y-116788352D01*
X147196067Y-116788352D02*
X146167972Y-116788352D01*
X146288924Y-116244067D02*
X146228448Y-116183591D01*
X146228448Y-116183591D02*
X146167972Y-116062638D01*
X146167972Y-116062638D02*
X146167972Y-115760257D01*
X146167972Y-115760257D02*
X146228448Y-115639305D01*
X146228448Y-115639305D02*
X146288924Y-115578829D01*
X146288924Y-115578829D02*
X146409876Y-115518352D01*
X146409876Y-115518352D02*
X146530829Y-115518352D01*
X146530829Y-115518352D02*
X146712257Y-115578829D01*
X146712257Y-115578829D02*
X147437972Y-116304543D01*
X147437972Y-116304543D02*
X147437972Y-115518352D01*
X169475115Y-111674543D02*
X169475115Y-111069781D01*
X169837972Y-111795495D02*
X168567972Y-111372162D01*
X168567972Y-111372162D02*
X169837972Y-110948828D01*
X169837972Y-110525496D02*
X168567972Y-110525496D01*
X168567972Y-110525496D02*
X168567972Y-110223115D01*
X168567972Y-110223115D02*
X168628448Y-110041686D01*
X168628448Y-110041686D02*
X168749400Y-109920734D01*
X168749400Y-109920734D02*
X168870353Y-109860257D01*
X168870353Y-109860257D02*
X169112257Y-109799781D01*
X169112257Y-109799781D02*
X169293686Y-109799781D01*
X169293686Y-109799781D02*
X169535591Y-109860257D01*
X169535591Y-109860257D02*
X169656543Y-109920734D01*
X169656543Y-109920734D02*
X169777496Y-110041686D01*
X169777496Y-110041686D02*
X169837972Y-110223115D01*
X169837972Y-110223115D02*
X169837972Y-110525496D01*
X169717019Y-108529781D02*
X169777496Y-108590257D01*
X169777496Y-108590257D02*
X169837972Y-108771686D01*
X169837972Y-108771686D02*
X169837972Y-108892638D01*
X169837972Y-108892638D02*
X169777496Y-109074067D01*
X169777496Y-109074067D02*
X169656543Y-109195019D01*
X169656543Y-109195019D02*
X169535591Y-109255496D01*
X169535591Y-109255496D02*
X169293686Y-109315972D01*
X169293686Y-109315972D02*
X169112257Y-109315972D01*
X169112257Y-109315972D02*
X168870353Y-109255496D01*
X168870353Y-109255496D02*
X168749400Y-109195019D01*
X168749400Y-109195019D02*
X168628448Y-109074067D01*
X168628448Y-109074067D02*
X168567972Y-108892638D01*
X168567972Y-108892638D02*
X168567972Y-108771686D01*
X168567972Y-108771686D02*
X168628448Y-108590257D01*
X168628448Y-108590257D02*
X168688924Y-108529781D01*
X169837972Y-107017877D02*
X168567972Y-107017877D01*
X169837972Y-106413115D02*
X168567972Y-106413115D01*
X168567972Y-106413115D02*
X169837972Y-105687400D01*
X169837972Y-105687400D02*
X168567972Y-105687400D01*
X169837972Y-105082639D02*
X168567972Y-105082639D01*
X168567972Y-105082639D02*
X168567972Y-104598829D01*
X168567972Y-104598829D02*
X168628448Y-104477877D01*
X168628448Y-104477877D02*
X168688924Y-104417400D01*
X168688924Y-104417400D02*
X168809876Y-104356924D01*
X168809876Y-104356924D02*
X168991305Y-104356924D01*
X168991305Y-104356924D02*
X169112257Y-104417400D01*
X169112257Y-104417400D02*
X169172734Y-104477877D01*
X169172734Y-104477877D02*
X169233210Y-104598829D01*
X169233210Y-104598829D02*
X169233210Y-105082639D01*
X168567972Y-103812639D02*
X169596067Y-103812639D01*
X169596067Y-103812639D02*
X169717019Y-103752162D01*
X169717019Y-103752162D02*
X169777496Y-103691686D01*
X169777496Y-103691686D02*
X169837972Y-103570734D01*
X169837972Y-103570734D02*
X169837972Y-103328829D01*
X169837972Y-103328829D02*
X169777496Y-103207877D01*
X169777496Y-103207877D02*
X169717019Y-103147400D01*
X169717019Y-103147400D02*
X169596067Y-103086924D01*
X169596067Y-103086924D02*
X168567972Y-103086924D01*
X168567972Y-102663591D02*
X168567972Y-101937877D01*
X169837972Y-102300734D02*
X168567972Y-102300734D01*
X169777496Y-101575020D02*
X169837972Y-101393591D01*
X169837972Y-101393591D02*
X169837972Y-101091210D01*
X169837972Y-101091210D02*
X169777496Y-100970258D01*
X169777496Y-100970258D02*
X169717019Y-100909782D01*
X169717019Y-100909782D02*
X169596067Y-100849305D01*
X169596067Y-100849305D02*
X169475115Y-100849305D01*
X169475115Y-100849305D02*
X169354162Y-100909782D01*
X169354162Y-100909782D02*
X169293686Y-100970258D01*
X169293686Y-100970258D02*
X169233210Y-101091210D01*
X169233210Y-101091210D02*
X169172734Y-101333115D01*
X169172734Y-101333115D02*
X169112257Y-101454067D01*
X169112257Y-101454067D02*
X169051781Y-101514544D01*
X169051781Y-101514544D02*
X168930829Y-101575020D01*
X168930829Y-101575020D02*
X168809876Y-101575020D01*
X168809876Y-101575020D02*
X168688924Y-101514544D01*
X168688924Y-101514544D02*
X168628448Y-101454067D01*
X168628448Y-101454067D02*
X168567972Y-101333115D01*
X168567972Y-101333115D02*
X168567972Y-101030734D01*
X168567972Y-101030734D02*
X168628448Y-100849305D01*
X102595446Y-125625495D02*
X102625684Y-125534781D01*
X102625684Y-125534781D02*
X102625684Y-125383590D01*
X102625684Y-125383590D02*
X102595446Y-125323114D01*
X102595446Y-125323114D02*
X102565207Y-125292876D01*
X102565207Y-125292876D02*
X102504731Y-125262638D01*
X102504731Y-125262638D02*
X102444255Y-125262638D01*
X102444255Y-125262638D02*
X102383779Y-125292876D01*
X102383779Y-125292876D02*
X102353541Y-125323114D01*
X102353541Y-125323114D02*
X102323303Y-125383590D01*
X102323303Y-125383590D02*
X102293065Y-125504543D01*
X102293065Y-125504543D02*
X102262826Y-125565019D01*
X102262826Y-125565019D02*
X102232588Y-125595257D01*
X102232588Y-125595257D02*
X102172112Y-125625495D01*
X102172112Y-125625495D02*
X102111636Y-125625495D01*
X102111636Y-125625495D02*
X102051160Y-125595257D01*
X102051160Y-125595257D02*
X102020922Y-125565019D01*
X102020922Y-125565019D02*
X101990684Y-125504543D01*
X101990684Y-125504543D02*
X101990684Y-125353352D01*
X101990684Y-125353352D02*
X102020922Y-125262638D01*
X101990684Y-125081209D02*
X101990684Y-124718352D01*
X102625684Y-124899781D02*
X101990684Y-124899781D01*
X101990684Y-124567161D02*
X101990684Y-124174066D01*
X101990684Y-124174066D02*
X102232588Y-124385733D01*
X102232588Y-124385733D02*
X102232588Y-124295018D01*
X102232588Y-124295018D02*
X102262826Y-124234542D01*
X102262826Y-124234542D02*
X102293065Y-124204304D01*
X102293065Y-124204304D02*
X102353541Y-124174066D01*
X102353541Y-124174066D02*
X102504731Y-124174066D01*
X102504731Y-124174066D02*
X102565207Y-124204304D01*
X102565207Y-124204304D02*
X102595446Y-124234542D01*
X102595446Y-124234542D02*
X102625684Y-124295018D01*
X102625684Y-124295018D02*
X102625684Y-124476447D01*
X102625684Y-124476447D02*
X102595446Y-124536923D01*
X102595446Y-124536923D02*
X102565207Y-124567161D01*
X143734742Y-73915684D02*
X143734742Y-73280684D01*
X143734742Y-73280684D02*
X143976647Y-73280684D01*
X143976647Y-73280684D02*
X144037123Y-73310922D01*
X144037123Y-73310922D02*
X144067361Y-73341160D01*
X144067361Y-73341160D02*
X144097599Y-73401636D01*
X144097599Y-73401636D02*
X144097599Y-73492350D01*
X144097599Y-73492350D02*
X144067361Y-73552826D01*
X144067361Y-73552826D02*
X144037123Y-73583065D01*
X144037123Y-73583065D02*
X143976647Y-73613303D01*
X143976647Y-73613303D02*
X143734742Y-73613303D01*
X144460456Y-73915684D02*
X144399980Y-73885446D01*
X144399980Y-73885446D02*
X144369742Y-73855207D01*
X144369742Y-73855207D02*
X144339504Y-73794731D01*
X144339504Y-73794731D02*
X144339504Y-73613303D01*
X144339504Y-73613303D02*
X144369742Y-73552826D01*
X144369742Y-73552826D02*
X144399980Y-73522588D01*
X144399980Y-73522588D02*
X144460456Y-73492350D01*
X144460456Y-73492350D02*
X144551171Y-73492350D01*
X144551171Y-73492350D02*
X144611647Y-73522588D01*
X144611647Y-73522588D02*
X144641885Y-73552826D01*
X144641885Y-73552826D02*
X144672123Y-73613303D01*
X144672123Y-73613303D02*
X144672123Y-73794731D01*
X144672123Y-73794731D02*
X144641885Y-73855207D01*
X144641885Y-73855207D02*
X144611647Y-73885446D01*
X144611647Y-73885446D02*
X144551171Y-73915684D01*
X144551171Y-73915684D02*
X144460456Y-73915684D01*
X144853552Y-73492350D02*
X145095456Y-73492350D01*
X144944266Y-73280684D02*
X144944266Y-73824969D01*
X144944266Y-73824969D02*
X144974504Y-73885446D01*
X144974504Y-73885446D02*
X145034980Y-73915684D01*
X145034980Y-73915684D02*
X145095456Y-73915684D01*
X145276885Y-73341160D02*
X145307123Y-73310922D01*
X145307123Y-73310922D02*
X145367599Y-73280684D01*
X145367599Y-73280684D02*
X145518790Y-73280684D01*
X145518790Y-73280684D02*
X145579266Y-73310922D01*
X145579266Y-73310922D02*
X145609504Y-73341160D01*
X145609504Y-73341160D02*
X145639742Y-73401636D01*
X145639742Y-73401636D02*
X145639742Y-73462112D01*
X145639742Y-73462112D02*
X145609504Y-73552826D01*
X145609504Y-73552826D02*
X145246647Y-73915684D01*
X145246647Y-73915684D02*
X145639742Y-73915684D01*
X88334742Y-131315684D02*
X88334742Y-130680684D01*
X88334742Y-130680684D02*
X88576647Y-130680684D01*
X88576647Y-130680684D02*
X88637123Y-130710922D01*
X88637123Y-130710922D02*
X88667361Y-130741160D01*
X88667361Y-130741160D02*
X88697599Y-130801636D01*
X88697599Y-130801636D02*
X88697599Y-130892350D01*
X88697599Y-130892350D02*
X88667361Y-130952826D01*
X88667361Y-130952826D02*
X88637123Y-130983065D01*
X88637123Y-130983065D02*
X88576647Y-131013303D01*
X88576647Y-131013303D02*
X88334742Y-131013303D01*
X89060456Y-131315684D02*
X88999980Y-131285446D01*
X88999980Y-131285446D02*
X88969742Y-131255207D01*
X88969742Y-131255207D02*
X88939504Y-131194731D01*
X88939504Y-131194731D02*
X88939504Y-131013303D01*
X88939504Y-131013303D02*
X88969742Y-130952826D01*
X88969742Y-130952826D02*
X88999980Y-130922588D01*
X88999980Y-130922588D02*
X89060456Y-130892350D01*
X89060456Y-130892350D02*
X89151171Y-130892350D01*
X89151171Y-130892350D02*
X89211647Y-130922588D01*
X89211647Y-130922588D02*
X89241885Y-130952826D01*
X89241885Y-130952826D02*
X89272123Y-131013303D01*
X89272123Y-131013303D02*
X89272123Y-131194731D01*
X89272123Y-131194731D02*
X89241885Y-131255207D01*
X89241885Y-131255207D02*
X89211647Y-131285446D01*
X89211647Y-131285446D02*
X89151171Y-131315684D01*
X89151171Y-131315684D02*
X89060456Y-131315684D01*
X89483790Y-130892350D02*
X89604742Y-131315684D01*
X89604742Y-131315684D02*
X89725695Y-131013303D01*
X89725695Y-131013303D02*
X89846647Y-131315684D01*
X89846647Y-131315684D02*
X89967599Y-130892350D01*
X90451409Y-131285446D02*
X90390933Y-131315684D01*
X90390933Y-131315684D02*
X90269980Y-131315684D01*
X90269980Y-131315684D02*
X90209504Y-131285446D01*
X90209504Y-131285446D02*
X90179266Y-131224969D01*
X90179266Y-131224969D02*
X90179266Y-130983065D01*
X90179266Y-130983065D02*
X90209504Y-130922588D01*
X90209504Y-130922588D02*
X90269980Y-130892350D01*
X90269980Y-130892350D02*
X90390933Y-130892350D01*
X90390933Y-130892350D02*
X90451409Y-130922588D01*
X90451409Y-130922588D02*
X90481647Y-130983065D01*
X90481647Y-130983065D02*
X90481647Y-131043541D01*
X90481647Y-131043541D02*
X90179266Y-131104017D01*
X90753790Y-131315684D02*
X90753790Y-130892350D01*
X90753790Y-131013303D02*
X90784028Y-130952826D01*
X90784028Y-130952826D02*
X90814266Y-130922588D01*
X90814266Y-130922588D02*
X90874742Y-130892350D01*
X90874742Y-130892350D02*
X90935219Y-130892350D01*
X151537123Y-89780684D02*
X151234742Y-89780684D01*
X151234742Y-89780684D02*
X151204504Y-90083065D01*
X151204504Y-90083065D02*
X151234742Y-90052826D01*
X151234742Y-90052826D02*
X151295218Y-90022588D01*
X151295218Y-90022588D02*
X151446409Y-90022588D01*
X151446409Y-90022588D02*
X151506885Y-90052826D01*
X151506885Y-90052826D02*
X151537123Y-90083065D01*
X151537123Y-90083065D02*
X151567361Y-90143541D01*
X151567361Y-90143541D02*
X151567361Y-90294731D01*
X151567361Y-90294731D02*
X151537123Y-90355207D01*
X151537123Y-90355207D02*
X151506885Y-90385446D01*
X151506885Y-90385446D02*
X151446409Y-90415684D01*
X151446409Y-90415684D02*
X151295218Y-90415684D01*
X151295218Y-90415684D02*
X151234742Y-90385446D01*
X151234742Y-90385446D02*
X151204504Y-90355207D01*
X151748790Y-89780684D02*
X151960456Y-90415684D01*
X151960456Y-90415684D02*
X152172123Y-89780684D01*
X94149862Y-139843422D02*
X94089386Y-139813184D01*
X94089386Y-139813184D02*
X93998672Y-139813184D01*
X93998672Y-139813184D02*
X93907957Y-139843422D01*
X93907957Y-139843422D02*
X93847481Y-139903898D01*
X93847481Y-139903898D02*
X93817243Y-139964374D01*
X93817243Y-139964374D02*
X93787005Y-140085326D01*
X93787005Y-140085326D02*
X93787005Y-140176041D01*
X93787005Y-140176041D02*
X93817243Y-140296993D01*
X93817243Y-140296993D02*
X93847481Y-140357469D01*
X93847481Y-140357469D02*
X93907957Y-140417946D01*
X93907957Y-140417946D02*
X93998672Y-140448184D01*
X93998672Y-140448184D02*
X94059148Y-140448184D01*
X94059148Y-140448184D02*
X94149862Y-140417946D01*
X94149862Y-140417946D02*
X94180100Y-140387707D01*
X94180100Y-140387707D02*
X94180100Y-140176041D01*
X94180100Y-140176041D02*
X94059148Y-140176041D01*
X94452243Y-140448184D02*
X94452243Y-139813184D01*
X94452243Y-139813184D02*
X94815100Y-140448184D01*
X94815100Y-140448184D02*
X94815100Y-139813184D01*
X95117481Y-140448184D02*
X95117481Y-139813184D01*
X95117481Y-139813184D02*
X95268671Y-139813184D01*
X95268671Y-139813184D02*
X95359386Y-139843422D01*
X95359386Y-139843422D02*
X95419862Y-139903898D01*
X95419862Y-139903898D02*
X95450100Y-139964374D01*
X95450100Y-139964374D02*
X95480338Y-140085326D01*
X95480338Y-140085326D02*
X95480338Y-140176041D01*
X95480338Y-140176041D02*
X95450100Y-140296993D01*
X95450100Y-140296993D02*
X95419862Y-140357469D01*
X95419862Y-140357469D02*
X95359386Y-140417946D01*
X95359386Y-140417946D02*
X95268671Y-140448184D01*
X95268671Y-140448184D02*
X95117481Y-140448184D01*
X110215446Y-125625495D02*
X110245684Y-125534781D01*
X110245684Y-125534781D02*
X110245684Y-125383590D01*
X110245684Y-125383590D02*
X110215446Y-125323114D01*
X110215446Y-125323114D02*
X110185207Y-125292876D01*
X110185207Y-125292876D02*
X110124731Y-125262638D01*
X110124731Y-125262638D02*
X110064255Y-125262638D01*
X110064255Y-125262638D02*
X110003779Y-125292876D01*
X110003779Y-125292876D02*
X109973541Y-125323114D01*
X109973541Y-125323114D02*
X109943303Y-125383590D01*
X109943303Y-125383590D02*
X109913065Y-125504543D01*
X109913065Y-125504543D02*
X109882826Y-125565019D01*
X109882826Y-125565019D02*
X109852588Y-125595257D01*
X109852588Y-125595257D02*
X109792112Y-125625495D01*
X109792112Y-125625495D02*
X109731636Y-125625495D01*
X109731636Y-125625495D02*
X109671160Y-125595257D01*
X109671160Y-125595257D02*
X109640922Y-125565019D01*
X109640922Y-125565019D02*
X109610684Y-125504543D01*
X109610684Y-125504543D02*
X109610684Y-125353352D01*
X109610684Y-125353352D02*
X109640922Y-125262638D01*
X109610684Y-125081209D02*
X109610684Y-124718352D01*
X110245684Y-124899781D02*
X109610684Y-124899781D01*
X109610684Y-124234542D02*
X109610684Y-124355495D01*
X109610684Y-124355495D02*
X109640922Y-124415971D01*
X109640922Y-124415971D02*
X109671160Y-124446209D01*
X109671160Y-124446209D02*
X109761874Y-124506685D01*
X109761874Y-124506685D02*
X109882826Y-124536923D01*
X109882826Y-124536923D02*
X110124731Y-124536923D01*
X110124731Y-124536923D02*
X110185207Y-124506685D01*
X110185207Y-124506685D02*
X110215446Y-124476447D01*
X110215446Y-124476447D02*
X110245684Y-124415971D01*
X110245684Y-124415971D02*
X110245684Y-124295018D01*
X110245684Y-124295018D02*
X110215446Y-124234542D01*
X110215446Y-124234542D02*
X110185207Y-124204304D01*
X110185207Y-124204304D02*
X110124731Y-124174066D01*
X110124731Y-124174066D02*
X109973541Y-124174066D01*
X109973541Y-124174066D02*
X109913065Y-124204304D01*
X109913065Y-124204304D02*
X109882826Y-124234542D01*
X109882826Y-124234542D02*
X109852588Y-124295018D01*
X109852588Y-124295018D02*
X109852588Y-124415971D01*
X109852588Y-124415971D02*
X109882826Y-124476447D01*
X109882826Y-124476447D02*
X109913065Y-124506685D01*
X109913065Y-124506685D02*
X109973541Y-124536923D01*
X134855694Y-73280684D02*
X134976647Y-73280684D01*
X134976647Y-73280684D02*
X135037123Y-73310922D01*
X135037123Y-73310922D02*
X135097599Y-73371398D01*
X135097599Y-73371398D02*
X135127837Y-73492350D01*
X135127837Y-73492350D02*
X135127837Y-73704017D01*
X135127837Y-73704017D02*
X135097599Y-73824969D01*
X135097599Y-73824969D02*
X135037123Y-73885446D01*
X135037123Y-73885446D02*
X134976647Y-73915684D01*
X134976647Y-73915684D02*
X134855694Y-73915684D01*
X134855694Y-73915684D02*
X134795218Y-73885446D01*
X134795218Y-73885446D02*
X134734742Y-73824969D01*
X134734742Y-73824969D02*
X134704504Y-73704017D01*
X134704504Y-73704017D02*
X134704504Y-73492350D01*
X134704504Y-73492350D02*
X134734742Y-73371398D01*
X134734742Y-73371398D02*
X134795218Y-73310922D01*
X134795218Y-73310922D02*
X134855694Y-73280684D01*
X135611647Y-73583065D02*
X135399980Y-73583065D01*
X135399980Y-73915684D02*
X135399980Y-73280684D01*
X135399980Y-73280684D02*
X135702361Y-73280684D01*
X136155933Y-73583065D02*
X135944266Y-73583065D01*
X135944266Y-73915684D02*
X135944266Y-73280684D01*
X135944266Y-73280684D02*
X136246647Y-73280684D01*
X126274266Y-122980684D02*
X126667361Y-122980684D01*
X126667361Y-122980684D02*
X126455694Y-123222588D01*
X126455694Y-123222588D02*
X126546409Y-123222588D01*
X126546409Y-123222588D02*
X126606885Y-123252826D01*
X126606885Y-123252826D02*
X126637123Y-123283065D01*
X126637123Y-123283065D02*
X126667361Y-123343541D01*
X126667361Y-123343541D02*
X126667361Y-123494731D01*
X126667361Y-123494731D02*
X126637123Y-123555207D01*
X126637123Y-123555207D02*
X126606885Y-123585446D01*
X126606885Y-123585446D02*
X126546409Y-123615684D01*
X126546409Y-123615684D02*
X126364980Y-123615684D01*
X126364980Y-123615684D02*
X126304504Y-123585446D01*
X126304504Y-123585446D02*
X126274266Y-123555207D01*
X126939504Y-123555207D02*
X126969742Y-123585446D01*
X126969742Y-123585446D02*
X126939504Y-123615684D01*
X126939504Y-123615684D02*
X126909266Y-123585446D01*
X126909266Y-123585446D02*
X126939504Y-123555207D01*
X126939504Y-123555207D02*
X126939504Y-123615684D01*
X127181409Y-122980684D02*
X127574504Y-122980684D01*
X127574504Y-122980684D02*
X127362837Y-123222588D01*
X127362837Y-123222588D02*
X127453552Y-123222588D01*
X127453552Y-123222588D02*
X127514028Y-123252826D01*
X127514028Y-123252826D02*
X127544266Y-123283065D01*
X127544266Y-123283065D02*
X127574504Y-123343541D01*
X127574504Y-123343541D02*
X127574504Y-123494731D01*
X127574504Y-123494731D02*
X127544266Y-123555207D01*
X127544266Y-123555207D02*
X127514028Y-123585446D01*
X127514028Y-123585446D02*
X127453552Y-123615684D01*
X127453552Y-123615684D02*
X127272123Y-123615684D01*
X127272123Y-123615684D02*
X127211647Y-123585446D01*
X127211647Y-123585446D02*
X127181409Y-123555207D01*
X127755933Y-122980684D02*
X127967599Y-123615684D01*
X127967599Y-123615684D02*
X128179266Y-122980684D01*
X128874266Y-122880684D02*
X129267361Y-122880684D01*
X129267361Y-122880684D02*
X129055694Y-123122588D01*
X129055694Y-123122588D02*
X129146409Y-123122588D01*
X129146409Y-123122588D02*
X129206885Y-123152826D01*
X129206885Y-123152826D02*
X129237123Y-123183065D01*
X129237123Y-123183065D02*
X129267361Y-123243541D01*
X129267361Y-123243541D02*
X129267361Y-123394731D01*
X129267361Y-123394731D02*
X129237123Y-123455207D01*
X129237123Y-123455207D02*
X129206885Y-123485446D01*
X129206885Y-123485446D02*
X129146409Y-123515684D01*
X129146409Y-123515684D02*
X128964980Y-123515684D01*
X128964980Y-123515684D02*
X128904504Y-123485446D01*
X128904504Y-123485446D02*
X128874266Y-123455207D01*
X129539504Y-123455207D02*
X129569742Y-123485446D01*
X129569742Y-123485446D02*
X129539504Y-123515684D01*
X129539504Y-123515684D02*
X129509266Y-123485446D01*
X129509266Y-123485446D02*
X129539504Y-123455207D01*
X129539504Y-123455207D02*
X129539504Y-123515684D01*
X129781409Y-122880684D02*
X130174504Y-122880684D01*
X130174504Y-122880684D02*
X129962837Y-123122588D01*
X129962837Y-123122588D02*
X130053552Y-123122588D01*
X130053552Y-123122588D02*
X130114028Y-123152826D01*
X130114028Y-123152826D02*
X130144266Y-123183065D01*
X130144266Y-123183065D02*
X130174504Y-123243541D01*
X130174504Y-123243541D02*
X130174504Y-123394731D01*
X130174504Y-123394731D02*
X130144266Y-123455207D01*
X130144266Y-123455207D02*
X130114028Y-123485446D01*
X130114028Y-123485446D02*
X130053552Y-123515684D01*
X130053552Y-123515684D02*
X129872123Y-123515684D01*
X129872123Y-123515684D02*
X129811647Y-123485446D01*
X129811647Y-123485446D02*
X129781409Y-123455207D01*
X130355933Y-122880684D02*
X130567599Y-123515684D01*
X130567599Y-123515684D02*
X130779266Y-122880684D01*
X123855694Y-73280684D02*
X123976647Y-73280684D01*
X123976647Y-73280684D02*
X124037123Y-73310922D01*
X124037123Y-73310922D02*
X124097599Y-73371398D01*
X124097599Y-73371398D02*
X124127837Y-73492350D01*
X124127837Y-73492350D02*
X124127837Y-73704017D01*
X124127837Y-73704017D02*
X124097599Y-73824969D01*
X124097599Y-73824969D02*
X124037123Y-73885446D01*
X124037123Y-73885446D02*
X123976647Y-73915684D01*
X123976647Y-73915684D02*
X123855694Y-73915684D01*
X123855694Y-73915684D02*
X123795218Y-73885446D01*
X123795218Y-73885446D02*
X123734742Y-73824969D01*
X123734742Y-73824969D02*
X123704504Y-73704017D01*
X123704504Y-73704017D02*
X123704504Y-73492350D01*
X123704504Y-73492350D02*
X123734742Y-73371398D01*
X123734742Y-73371398D02*
X123795218Y-73310922D01*
X123795218Y-73310922D02*
X123855694Y-73280684D01*
X124399980Y-73915684D02*
X124399980Y-73280684D01*
X124399980Y-73280684D02*
X124762837Y-73915684D01*
X124762837Y-73915684D02*
X124762837Y-73280684D01*
X166984861Y-83310922D02*
X166924385Y-83280684D01*
X166924385Y-83280684D02*
X166833671Y-83280684D01*
X166833671Y-83280684D02*
X166742956Y-83310922D01*
X166742956Y-83310922D02*
X166682480Y-83371398D01*
X166682480Y-83371398D02*
X166652242Y-83431874D01*
X166652242Y-83431874D02*
X166622004Y-83552826D01*
X166622004Y-83552826D02*
X166622004Y-83643541D01*
X166622004Y-83643541D02*
X166652242Y-83764493D01*
X166652242Y-83764493D02*
X166682480Y-83824969D01*
X166682480Y-83824969D02*
X166742956Y-83885446D01*
X166742956Y-83885446D02*
X166833671Y-83915684D01*
X166833671Y-83915684D02*
X166894147Y-83915684D01*
X166894147Y-83915684D02*
X166984861Y-83885446D01*
X166984861Y-83885446D02*
X167015099Y-83855207D01*
X167015099Y-83855207D02*
X167015099Y-83643541D01*
X167015099Y-83643541D02*
X166894147Y-83643541D01*
X167287242Y-83915684D02*
X167287242Y-83280684D01*
X167287242Y-83280684D02*
X167650099Y-83915684D01*
X167650099Y-83915684D02*
X167650099Y-83280684D01*
X167952480Y-83915684D02*
X167952480Y-83280684D01*
X167952480Y-83280684D02*
X168103670Y-83280684D01*
X168103670Y-83280684D02*
X168194385Y-83310922D01*
X168194385Y-83310922D02*
X168254861Y-83371398D01*
X168254861Y-83371398D02*
X168285099Y-83431874D01*
X168285099Y-83431874D02*
X168315337Y-83552826D01*
X168315337Y-83552826D02*
X168315337Y-83643541D01*
X168315337Y-83643541D02*
X168285099Y-83764493D01*
X168285099Y-83764493D02*
X168254861Y-83824969D01*
X168254861Y-83824969D02*
X168194385Y-83885446D01*
X168194385Y-83885446D02*
X168103670Y-83915684D01*
X168103670Y-83915684D02*
X167952480Y-83915684D01*
D11*
X94110476Y-73984819D02*
X94110476Y-74699104D01*
X94110476Y-74699104D02*
X94062857Y-74841961D01*
X94062857Y-74841961D02*
X93967619Y-74937200D01*
X93967619Y-74937200D02*
X93824762Y-74984819D01*
X93824762Y-74984819D02*
X93729524Y-74984819D01*
X95110476Y-74984819D02*
X94539048Y-74984819D01*
X94824762Y-74984819D02*
X94824762Y-73984819D01*
X94824762Y-73984819D02*
X94729524Y-74127676D01*
X94729524Y-74127676D02*
X94634286Y-74222914D01*
X94634286Y-74222914D02*
X94539048Y-74270533D01*
X95586667Y-74984819D02*
X95777143Y-74984819D01*
X95777143Y-74984819D02*
X95872381Y-74937200D01*
X95872381Y-74937200D02*
X95920000Y-74889580D01*
X95920000Y-74889580D02*
X96015238Y-74746723D01*
X96015238Y-74746723D02*
X96062857Y-74556247D01*
X96062857Y-74556247D02*
X96062857Y-74175295D01*
X96062857Y-74175295D02*
X96015238Y-74080057D01*
X96015238Y-74080057D02*
X95967619Y-74032438D01*
X95967619Y-74032438D02*
X95872381Y-73984819D01*
X95872381Y-73984819D02*
X95681905Y-73984819D01*
X95681905Y-73984819D02*
X95586667Y-74032438D01*
X95586667Y-74032438D02*
X95539048Y-74080057D01*
X95539048Y-74080057D02*
X95491429Y-74175295D01*
X95491429Y-74175295D02*
X95491429Y-74413390D01*
X95491429Y-74413390D02*
X95539048Y-74508628D01*
X95539048Y-74508628D02*
X95586667Y-74556247D01*
X95586667Y-74556247D02*
X95681905Y-74603866D01*
X95681905Y-74603866D02*
X95872381Y-74603866D01*
X95872381Y-74603866D02*
X95967619Y-74556247D01*
X95967619Y-74556247D02*
X96015238Y-74508628D01*
X96015238Y-74508628D02*
X96062857Y-74413390D01*
X115990476Y-91354819D02*
X115990476Y-92069104D01*
X115990476Y-92069104D02*
X115942857Y-92211961D01*
X115942857Y-92211961D02*
X115847619Y-92307200D01*
X115847619Y-92307200D02*
X115704762Y-92354819D01*
X115704762Y-92354819D02*
X115609524Y-92354819D01*
X116990476Y-92354819D02*
X116419048Y-92354819D01*
X116704762Y-92354819D02*
X116704762Y-91354819D01*
X116704762Y-91354819D02*
X116609524Y-91497676D01*
X116609524Y-91497676D02*
X116514286Y-91592914D01*
X116514286Y-91592914D02*
X116419048Y-91640533D01*
X117895238Y-91354819D02*
X117419048Y-91354819D01*
X117419048Y-91354819D02*
X117371429Y-91831009D01*
X117371429Y-91831009D02*
X117419048Y-91783390D01*
X117419048Y-91783390D02*
X117514286Y-91735771D01*
X117514286Y-91735771D02*
X117752381Y-91735771D01*
X117752381Y-91735771D02*
X117847619Y-91783390D01*
X117847619Y-91783390D02*
X117895238Y-91831009D01*
X117895238Y-91831009D02*
X117942857Y-91926247D01*
X117942857Y-91926247D02*
X117942857Y-92164342D01*
X117942857Y-92164342D02*
X117895238Y-92259580D01*
X117895238Y-92259580D02*
X117847619Y-92307200D01*
X117847619Y-92307200D02*
X117752381Y-92354819D01*
X117752381Y-92354819D02*
X117514286Y-92354819D01*
X117514286Y-92354819D02*
X117419048Y-92307200D01*
X117419048Y-92307200D02*
X117371429Y-92259580D01*
X98215476Y-88829819D02*
X98215476Y-89544104D01*
X98215476Y-89544104D02*
X98167857Y-89686961D01*
X98167857Y-89686961D02*
X98072619Y-89782200D01*
X98072619Y-89782200D02*
X97929762Y-89829819D01*
X97929762Y-89829819D02*
X97834524Y-89829819D01*
X99215476Y-89829819D02*
X98644048Y-89829819D01*
X98929762Y-89829819D02*
X98929762Y-88829819D01*
X98929762Y-88829819D02*
X98834524Y-88972676D01*
X98834524Y-88972676D02*
X98739286Y-89067914D01*
X98739286Y-89067914D02*
X98644048Y-89115533D01*
X100072619Y-89163152D02*
X100072619Y-89829819D01*
X99834524Y-88782200D02*
X99596429Y-89496485D01*
X99596429Y-89496485D02*
X100215476Y-89496485D01*
X170238095Y-141154819D02*
X170238095Y-140154819D01*
X170238095Y-140631009D02*
X170809523Y-140631009D01*
X170809523Y-141154819D02*
X170809523Y-140154819D01*
X171714285Y-140488152D02*
X171714285Y-141154819D01*
X171476190Y-140107200D02*
X171238095Y-140821485D01*
X171238095Y-140821485D02*
X171857142Y-140821485D01*
X124763736Y-144487319D02*
X124763736Y-145201604D01*
X124763736Y-145201604D02*
X124716117Y-145344461D01*
X124716117Y-145344461D02*
X124620879Y-145439700D01*
X124620879Y-145439700D02*
X124478022Y-145487319D01*
X124478022Y-145487319D02*
X124382784Y-145487319D01*
X125144689Y-144487319D02*
X125763736Y-144487319D01*
X125763736Y-144487319D02*
X125430403Y-144868271D01*
X125430403Y-144868271D02*
X125573260Y-144868271D01*
X125573260Y-144868271D02*
X125668498Y-144915890D01*
X125668498Y-144915890D02*
X125716117Y-144963509D01*
X125716117Y-144963509D02*
X125763736Y-145058747D01*
X125763736Y-145058747D02*
X125763736Y-145296842D01*
X125763736Y-145296842D02*
X125716117Y-145392080D01*
X125716117Y-145392080D02*
X125668498Y-145439700D01*
X125668498Y-145439700D02*
X125573260Y-145487319D01*
X125573260Y-145487319D02*
X125287546Y-145487319D01*
X125287546Y-145487319D02*
X125192308Y-145439700D01*
X125192308Y-145439700D02*
X125144689Y-145392080D01*
X165554819Y-117833333D02*
X166269104Y-117833333D01*
X166269104Y-117833333D02*
X166411961Y-117880952D01*
X166411961Y-117880952D02*
X166507200Y-117976190D01*
X166507200Y-117976190D02*
X166554819Y-118119047D01*
X166554819Y-118119047D02*
X166554819Y-118214285D01*
X165554819Y-117452380D02*
X165554819Y-116785714D01*
X165554819Y-116785714D02*
X166554819Y-117214285D01*
X112438951Y-144487319D02*
X112438951Y-145201604D01*
X112438951Y-145201604D02*
X112391332Y-145344461D01*
X112391332Y-145344461D02*
X112296094Y-145439700D01*
X112296094Y-145439700D02*
X112153237Y-145487319D01*
X112153237Y-145487319D02*
X112057999Y-145487319D01*
X113343713Y-144820652D02*
X113343713Y-145487319D01*
X113105618Y-144439700D02*
X112867523Y-145153985D01*
X112867523Y-145153985D02*
X113486570Y-145153985D01*
X112334819Y-116641904D02*
X113144342Y-116641904D01*
X113144342Y-116641904D02*
X113239580Y-116594285D01*
X113239580Y-116594285D02*
X113287200Y-116546666D01*
X113287200Y-116546666D02*
X113334819Y-116451428D01*
X113334819Y-116451428D02*
X113334819Y-116260952D01*
X113334819Y-116260952D02*
X113287200Y-116165714D01*
X113287200Y-116165714D02*
X113239580Y-116118095D01*
X113239580Y-116118095D02*
X113144342Y-116070476D01*
X113144342Y-116070476D02*
X112334819Y-116070476D01*
X112668152Y-115165714D02*
X113334819Y-115165714D01*
X112287200Y-115403809D02*
X113001485Y-115641904D01*
X113001485Y-115641904D02*
X113001485Y-115022857D01*
X94806666Y-128214819D02*
X94806666Y-128929104D01*
X94806666Y-128929104D02*
X94759047Y-129071961D01*
X94759047Y-129071961D02*
X94663809Y-129167200D01*
X94663809Y-129167200D02*
X94520952Y-129214819D01*
X94520952Y-129214819D02*
X94425714Y-129214819D01*
X95711428Y-128214819D02*
X95520952Y-128214819D01*
X95520952Y-128214819D02*
X95425714Y-128262438D01*
X95425714Y-128262438D02*
X95378095Y-128310057D01*
X95378095Y-128310057D02*
X95282857Y-128452914D01*
X95282857Y-128452914D02*
X95235238Y-128643390D01*
X95235238Y-128643390D02*
X95235238Y-129024342D01*
X95235238Y-129024342D02*
X95282857Y-129119580D01*
X95282857Y-129119580D02*
X95330476Y-129167200D01*
X95330476Y-129167200D02*
X95425714Y-129214819D01*
X95425714Y-129214819D02*
X95616190Y-129214819D01*
X95616190Y-129214819D02*
X95711428Y-129167200D01*
X95711428Y-129167200D02*
X95759047Y-129119580D01*
X95759047Y-129119580D02*
X95806666Y-129024342D01*
X95806666Y-129024342D02*
X95806666Y-128786247D01*
X95806666Y-128786247D02*
X95759047Y-128691009D01*
X95759047Y-128691009D02*
X95711428Y-128643390D01*
X95711428Y-128643390D02*
X95616190Y-128595771D01*
X95616190Y-128595771D02*
X95425714Y-128595771D01*
X95425714Y-128595771D02*
X95330476Y-128643390D01*
X95330476Y-128643390D02*
X95282857Y-128691009D01*
X95282857Y-128691009D02*
X95235238Y-128786247D01*
X165054819Y-75309523D02*
X165769104Y-75309523D01*
X165769104Y-75309523D02*
X165911961Y-75357142D01*
X165911961Y-75357142D02*
X166007200Y-75452380D01*
X166007200Y-75452380D02*
X166054819Y-75595237D01*
X166054819Y-75595237D02*
X166054819Y-75690475D01*
X166054819Y-74309523D02*
X166054819Y-74880951D01*
X166054819Y-74595237D02*
X165054819Y-74595237D01*
X165054819Y-74595237D02*
X165197676Y-74690475D01*
X165197676Y-74690475D02*
X165292914Y-74785713D01*
X165292914Y-74785713D02*
X165340533Y-74880951D01*
X165054819Y-73690475D02*
X165054819Y-73595237D01*
X165054819Y-73595237D02*
X165102438Y-73499999D01*
X165102438Y-73499999D02*
X165150057Y-73452380D01*
X165150057Y-73452380D02*
X165245295Y-73404761D01*
X165245295Y-73404761D02*
X165435771Y-73357142D01*
X165435771Y-73357142D02*
X165673866Y-73357142D01*
X165673866Y-73357142D02*
X165864342Y-73404761D01*
X165864342Y-73404761D02*
X165959580Y-73452380D01*
X165959580Y-73452380D02*
X166007200Y-73499999D01*
X166007200Y-73499999D02*
X166054819Y-73595237D01*
X166054819Y-73595237D02*
X166054819Y-73690475D01*
X166054819Y-73690475D02*
X166007200Y-73785713D01*
X166007200Y-73785713D02*
X165959580Y-73833332D01*
X165959580Y-73833332D02*
X165864342Y-73880951D01*
X165864342Y-73880951D02*
X165673866Y-73928570D01*
X165673866Y-73928570D02*
X165435771Y-73928570D01*
X165435771Y-73928570D02*
X165245295Y-73880951D01*
X165245295Y-73880951D02*
X165150057Y-73833332D01*
X165150057Y-73833332D02*
X165102438Y-73785713D01*
X165102438Y-73785713D02*
X165054819Y-73690475D01*
X112294819Y-122939523D02*
X113009104Y-122939523D01*
X113009104Y-122939523D02*
X113151961Y-122987142D01*
X113151961Y-122987142D02*
X113247200Y-123082380D01*
X113247200Y-123082380D02*
X113294819Y-123225237D01*
X113294819Y-123225237D02*
X113294819Y-123320475D01*
X113294819Y-121939523D02*
X113294819Y-122510951D01*
X113294819Y-122225237D02*
X112294819Y-122225237D01*
X112294819Y-122225237D02*
X112437676Y-122320475D01*
X112437676Y-122320475D02*
X112532914Y-122415713D01*
X112532914Y-122415713D02*
X112580533Y-122510951D01*
X113294819Y-120987142D02*
X113294819Y-121558570D01*
X113294819Y-121272856D02*
X112294819Y-121272856D01*
X112294819Y-121272856D02*
X112437676Y-121368094D01*
X112437676Y-121368094D02*
X112532914Y-121463332D01*
X112532914Y-121463332D02*
X112580533Y-121558570D01*
X165639819Y-104466633D02*
X166354104Y-104466633D01*
X166354104Y-104466633D02*
X166496961Y-104514252D01*
X166496961Y-104514252D02*
X166592200Y-104609490D01*
X166592200Y-104609490D02*
X166639819Y-104752347D01*
X166639819Y-104752347D02*
X166639819Y-104847585D01*
X166068390Y-103847585D02*
X166020771Y-103942823D01*
X166020771Y-103942823D02*
X165973152Y-103990442D01*
X165973152Y-103990442D02*
X165877914Y-104038061D01*
X165877914Y-104038061D02*
X165830295Y-104038061D01*
X165830295Y-104038061D02*
X165735057Y-103990442D01*
X165735057Y-103990442D02*
X165687438Y-103942823D01*
X165687438Y-103942823D02*
X165639819Y-103847585D01*
X165639819Y-103847585D02*
X165639819Y-103657109D01*
X165639819Y-103657109D02*
X165687438Y-103561871D01*
X165687438Y-103561871D02*
X165735057Y-103514252D01*
X165735057Y-103514252D02*
X165830295Y-103466633D01*
X165830295Y-103466633D02*
X165877914Y-103466633D01*
X165877914Y-103466633D02*
X165973152Y-103514252D01*
X165973152Y-103514252D02*
X166020771Y-103561871D01*
X166020771Y-103561871D02*
X166068390Y-103657109D01*
X166068390Y-103657109D02*
X166068390Y-103847585D01*
X166068390Y-103847585D02*
X166116009Y-103942823D01*
X166116009Y-103942823D02*
X166163628Y-103990442D01*
X166163628Y-103990442D02*
X166258866Y-104038061D01*
X166258866Y-104038061D02*
X166449342Y-104038061D01*
X166449342Y-104038061D02*
X166544580Y-103990442D01*
X166544580Y-103990442D02*
X166592200Y-103942823D01*
X166592200Y-103942823D02*
X166639819Y-103847585D01*
X166639819Y-103847585D02*
X166639819Y-103657109D01*
X166639819Y-103657109D02*
X166592200Y-103561871D01*
X166592200Y-103561871D02*
X166544580Y-103514252D01*
X166544580Y-103514252D02*
X166449342Y-103466633D01*
X166449342Y-103466633D02*
X166258866Y-103466633D01*
X166258866Y-103466633D02*
X166163628Y-103514252D01*
X166163628Y-103514252D02*
X166116009Y-103561871D01*
X166116009Y-103561871D02*
X166068390Y-103657109D01*
X165639819Y-91187533D02*
X166354104Y-91187533D01*
X166354104Y-91187533D02*
X166496961Y-91235152D01*
X166496961Y-91235152D02*
X166592200Y-91330390D01*
X166592200Y-91330390D02*
X166639819Y-91473247D01*
X166639819Y-91473247D02*
X166639819Y-91568485D01*
X166639819Y-90663723D02*
X166639819Y-90473247D01*
X166639819Y-90473247D02*
X166592200Y-90378009D01*
X166592200Y-90378009D02*
X166544580Y-90330390D01*
X166544580Y-90330390D02*
X166401723Y-90235152D01*
X166401723Y-90235152D02*
X166211247Y-90187533D01*
X166211247Y-90187533D02*
X165830295Y-90187533D01*
X165830295Y-90187533D02*
X165735057Y-90235152D01*
X165735057Y-90235152D02*
X165687438Y-90282771D01*
X165687438Y-90282771D02*
X165639819Y-90378009D01*
X165639819Y-90378009D02*
X165639819Y-90568485D01*
X165639819Y-90568485D02*
X165687438Y-90663723D01*
X165687438Y-90663723D02*
X165735057Y-90711342D01*
X165735057Y-90711342D02*
X165830295Y-90758961D01*
X165830295Y-90758961D02*
X166068390Y-90758961D01*
X166068390Y-90758961D02*
X166163628Y-90711342D01*
X166163628Y-90711342D02*
X166211247Y-90663723D01*
X166211247Y-90663723D02*
X166258866Y-90568485D01*
X166258866Y-90568485D02*
X166258866Y-90378009D01*
X166258866Y-90378009D02*
X166211247Y-90282771D01*
X166211247Y-90282771D02*
X166163628Y-90235152D01*
X166163628Y-90235152D02*
X166068390Y-90187533D01*
X88238095Y-141154819D02*
X88238095Y-140154819D01*
X88238095Y-140631009D02*
X88809523Y-140631009D01*
X88809523Y-141154819D02*
X88809523Y-140154819D01*
X89238095Y-140250057D02*
X89285714Y-140202438D01*
X89285714Y-140202438D02*
X89380952Y-140154819D01*
X89380952Y-140154819D02*
X89619047Y-140154819D01*
X89619047Y-140154819D02*
X89714285Y-140202438D01*
X89714285Y-140202438D02*
X89761904Y-140250057D01*
X89761904Y-140250057D02*
X89809523Y-140345295D01*
X89809523Y-140345295D02*
X89809523Y-140440533D01*
X89809523Y-140440533D02*
X89761904Y-140583390D01*
X89761904Y-140583390D02*
X89190476Y-141154819D01*
X89190476Y-141154819D02*
X89809523Y-141154819D01*
X141544819Y-126133333D02*
X142259104Y-126133333D01*
X142259104Y-126133333D02*
X142401961Y-126180952D01*
X142401961Y-126180952D02*
X142497200Y-126276190D01*
X142497200Y-126276190D02*
X142544819Y-126419047D01*
X142544819Y-126419047D02*
X142544819Y-126514285D01*
X142544819Y-125133333D02*
X142544819Y-125704761D01*
X142544819Y-125419047D02*
X141544819Y-125419047D01*
X141544819Y-125419047D02*
X141687676Y-125514285D01*
X141687676Y-125514285D02*
X141782914Y-125609523D01*
X141782914Y-125609523D02*
X141830533Y-125704761D01*
X127369819Y-97397023D02*
X128084104Y-97397023D01*
X128084104Y-97397023D02*
X128226961Y-97444642D01*
X128226961Y-97444642D02*
X128322200Y-97539880D01*
X128322200Y-97539880D02*
X128369819Y-97682737D01*
X128369819Y-97682737D02*
X128369819Y-97777975D01*
X128369819Y-96397023D02*
X128369819Y-96968451D01*
X128369819Y-96682737D02*
X127369819Y-96682737D01*
X127369819Y-96682737D02*
X127512676Y-96777975D01*
X127512676Y-96777975D02*
X127607914Y-96873213D01*
X127607914Y-96873213D02*
X127655533Y-96968451D01*
X127369819Y-95539880D02*
X127369819Y-95730356D01*
X127369819Y-95730356D02*
X127417438Y-95825594D01*
X127417438Y-95825594D02*
X127465057Y-95873213D01*
X127465057Y-95873213D02*
X127607914Y-95968451D01*
X127607914Y-95968451D02*
X127798390Y-96016070D01*
X127798390Y-96016070D02*
X128179342Y-96016070D01*
X128179342Y-96016070D02*
X128274580Y-95968451D01*
X128274580Y-95968451D02*
X128322200Y-95920832D01*
X128322200Y-95920832D02*
X128369819Y-95825594D01*
X128369819Y-95825594D02*
X128369819Y-95635118D01*
X128369819Y-95635118D02*
X128322200Y-95539880D01*
X128322200Y-95539880D02*
X128274580Y-95492261D01*
X128274580Y-95492261D02*
X128179342Y-95444642D01*
X128179342Y-95444642D02*
X127941247Y-95444642D01*
X127941247Y-95444642D02*
X127846009Y-95492261D01*
X127846009Y-95492261D02*
X127798390Y-95539880D01*
X127798390Y-95539880D02*
X127750771Y-95635118D01*
X127750771Y-95635118D02*
X127750771Y-95825594D01*
X127750771Y-95825594D02*
X127798390Y-95920832D01*
X127798390Y-95920832D02*
X127846009Y-95968451D01*
X127846009Y-95968451D02*
X127941247Y-96016070D01*
X170238095Y-72354819D02*
X170238095Y-71354819D01*
X170238095Y-71831009D02*
X170809523Y-71831009D01*
X170809523Y-72354819D02*
X170809523Y-71354819D01*
X171190476Y-71354819D02*
X171809523Y-71354819D01*
X171809523Y-71354819D02*
X171476190Y-71735771D01*
X171476190Y-71735771D02*
X171619047Y-71735771D01*
X171619047Y-71735771D02*
X171714285Y-71783390D01*
X171714285Y-71783390D02*
X171761904Y-71831009D01*
X171761904Y-71831009D02*
X171809523Y-71926247D01*
X171809523Y-71926247D02*
X171809523Y-72164342D01*
X171809523Y-72164342D02*
X171761904Y-72259580D01*
X171761904Y-72259580D02*
X171714285Y-72307200D01*
X171714285Y-72307200D02*
X171619047Y-72354819D01*
X171619047Y-72354819D02*
X171333333Y-72354819D01*
X171333333Y-72354819D02*
X171238095Y-72307200D01*
X171238095Y-72307200D02*
X171190476Y-72259580D01*
D10*
X135662618Y-102980922D02*
X135662618Y-101710922D01*
X135662618Y-101710922D02*
X135964999Y-101710922D01*
X135964999Y-101710922D02*
X136146428Y-101771398D01*
X136146428Y-101771398D02*
X136267380Y-101892350D01*
X136267380Y-101892350D02*
X136327857Y-102013303D01*
X136327857Y-102013303D02*
X136388333Y-102255207D01*
X136388333Y-102255207D02*
X136388333Y-102436636D01*
X136388333Y-102436636D02*
X136327857Y-102678541D01*
X136327857Y-102678541D02*
X136267380Y-102799493D01*
X136267380Y-102799493D02*
X136146428Y-102920446D01*
X136146428Y-102920446D02*
X135964999Y-102980922D01*
X135964999Y-102980922D02*
X135662618Y-102980922D01*
X137597857Y-102980922D02*
X136872142Y-102980922D01*
X137234999Y-102980922D02*
X137234999Y-101710922D01*
X137234999Y-101710922D02*
X137114047Y-101892350D01*
X137114047Y-101892350D02*
X136993095Y-102013303D01*
X136993095Y-102013303D02*
X136872142Y-102073779D01*
X130706666Y-82720446D02*
X130888095Y-82780922D01*
X130888095Y-82780922D02*
X131190476Y-82780922D01*
X131190476Y-82780922D02*
X131311428Y-82720446D01*
X131311428Y-82720446D02*
X131371904Y-82659969D01*
X131371904Y-82659969D02*
X131432381Y-82539017D01*
X131432381Y-82539017D02*
X131432381Y-82418065D01*
X131432381Y-82418065D02*
X131371904Y-82297112D01*
X131371904Y-82297112D02*
X131311428Y-82236636D01*
X131311428Y-82236636D02*
X131190476Y-82176160D01*
X131190476Y-82176160D02*
X130948571Y-82115684D01*
X130948571Y-82115684D02*
X130827619Y-82055207D01*
X130827619Y-82055207D02*
X130767142Y-81994731D01*
X130767142Y-81994731D02*
X130706666Y-81873779D01*
X130706666Y-81873779D02*
X130706666Y-81752826D01*
X130706666Y-81752826D02*
X130767142Y-81631874D01*
X130767142Y-81631874D02*
X130827619Y-81571398D01*
X130827619Y-81571398D02*
X130948571Y-81510922D01*
X130948571Y-81510922D02*
X131250952Y-81510922D01*
X131250952Y-81510922D02*
X131432381Y-81571398D01*
X131855714Y-81510922D02*
X132158095Y-82780922D01*
X132158095Y-82780922D02*
X132400000Y-81873779D01*
X132400000Y-81873779D02*
X132641905Y-82780922D01*
X132641905Y-82780922D02*
X132944286Y-81510922D01*
X134093334Y-82780922D02*
X133367619Y-82780922D01*
X133730476Y-82780922D02*
X133730476Y-81510922D01*
X133730476Y-81510922D02*
X133609524Y-81692350D01*
X133609524Y-81692350D02*
X133488572Y-81813303D01*
X133488572Y-81813303D02*
X133367619Y-81873779D01*
D11*
X162690476Y-144487319D02*
X162690476Y-145201604D01*
X162690476Y-145201604D02*
X162642857Y-145344461D01*
X162642857Y-145344461D02*
X162547619Y-145439700D01*
X162547619Y-145439700D02*
X162404762Y-145487319D01*
X162404762Y-145487319D02*
X162309524Y-145487319D01*
X163690476Y-145487319D02*
X163119048Y-145487319D01*
X163404762Y-145487319D02*
X163404762Y-144487319D01*
X163404762Y-144487319D02*
X163309524Y-144630176D01*
X163309524Y-144630176D02*
X163214286Y-144725414D01*
X163214286Y-144725414D02*
X163119048Y-144773033D01*
X164023810Y-144487319D02*
X164642857Y-144487319D01*
X164642857Y-144487319D02*
X164309524Y-144868271D01*
X164309524Y-144868271D02*
X164452381Y-144868271D01*
X164452381Y-144868271D02*
X164547619Y-144915890D01*
X164547619Y-144915890D02*
X164595238Y-144963509D01*
X164595238Y-144963509D02*
X164642857Y-145058747D01*
X164642857Y-145058747D02*
X164642857Y-145296842D01*
X164642857Y-145296842D02*
X164595238Y-145392080D01*
X164595238Y-145392080D02*
X164547619Y-145439700D01*
X164547619Y-145439700D02*
X164452381Y-145487319D01*
X164452381Y-145487319D02*
X164166667Y-145487319D01*
X164166667Y-145487319D02*
X164071429Y-145439700D01*
X164071429Y-145439700D02*
X164023810Y-145392080D01*
X149413306Y-144487319D02*
X149413306Y-145201604D01*
X149413306Y-145201604D02*
X149365687Y-145344461D01*
X149365687Y-145344461D02*
X149270449Y-145439700D01*
X149270449Y-145439700D02*
X149127592Y-145487319D01*
X149127592Y-145487319D02*
X149032354Y-145487319D01*
X150413306Y-145487319D02*
X149841878Y-145487319D01*
X150127592Y-145487319D02*
X150127592Y-144487319D01*
X150127592Y-144487319D02*
X150032354Y-144630176D01*
X150032354Y-144630176D02*
X149937116Y-144725414D01*
X149937116Y-144725414D02*
X149841878Y-144773033D01*
X150794259Y-144582557D02*
X150841878Y-144534938D01*
X150841878Y-144534938D02*
X150937116Y-144487319D01*
X150937116Y-144487319D02*
X151175211Y-144487319D01*
X151175211Y-144487319D02*
X151270449Y-144534938D01*
X151270449Y-144534938D02*
X151318068Y-144582557D01*
X151318068Y-144582557D02*
X151365687Y-144677795D01*
X151365687Y-144677795D02*
X151365687Y-144773033D01*
X151365687Y-144773033D02*
X151318068Y-144915890D01*
X151318068Y-144915890D02*
X150746640Y-145487319D01*
X150746640Y-145487319D02*
X151365687Y-145487319D01*
X137088521Y-144487319D02*
X137088521Y-145201604D01*
X137088521Y-145201604D02*
X137040902Y-145344461D01*
X137040902Y-145344461D02*
X136945664Y-145439700D01*
X136945664Y-145439700D02*
X136802807Y-145487319D01*
X136802807Y-145487319D02*
X136707569Y-145487319D01*
X137517093Y-144582557D02*
X137564712Y-144534938D01*
X137564712Y-144534938D02*
X137659950Y-144487319D01*
X137659950Y-144487319D02*
X137898045Y-144487319D01*
X137898045Y-144487319D02*
X137993283Y-144534938D01*
X137993283Y-144534938D02*
X138040902Y-144582557D01*
X138040902Y-144582557D02*
X138088521Y-144677795D01*
X138088521Y-144677795D02*
X138088521Y-144773033D01*
X138088521Y-144773033D02*
X138040902Y-144915890D01*
X138040902Y-144915890D02*
X137469474Y-145487319D01*
X137469474Y-145487319D02*
X138088521Y-145487319D01*
X118809580Y-116166666D02*
X118857200Y-116214285D01*
X118857200Y-116214285D02*
X118904819Y-116357142D01*
X118904819Y-116357142D02*
X118904819Y-116452380D01*
X118904819Y-116452380D02*
X118857200Y-116595237D01*
X118857200Y-116595237D02*
X118761961Y-116690475D01*
X118761961Y-116690475D02*
X118666723Y-116738094D01*
X118666723Y-116738094D02*
X118476247Y-116785713D01*
X118476247Y-116785713D02*
X118333390Y-116785713D01*
X118333390Y-116785713D02*
X118142914Y-116738094D01*
X118142914Y-116738094D02*
X118047676Y-116690475D01*
X118047676Y-116690475D02*
X117952438Y-116595237D01*
X117952438Y-116595237D02*
X117904819Y-116452380D01*
X117904819Y-116452380D02*
X117904819Y-116357142D01*
X117904819Y-116357142D02*
X117952438Y-116214285D01*
X117952438Y-116214285D02*
X118000057Y-116166666D01*
X118000057Y-115785713D02*
X117952438Y-115738094D01*
X117952438Y-115738094D02*
X117904819Y-115642856D01*
X117904819Y-115642856D02*
X117904819Y-115404761D01*
X117904819Y-115404761D02*
X117952438Y-115309523D01*
X117952438Y-115309523D02*
X118000057Y-115261904D01*
X118000057Y-115261904D02*
X118095295Y-115214285D01*
X118095295Y-115214285D02*
X118190533Y-115214285D01*
X118190533Y-115214285D02*
X118333390Y-115261904D01*
X118333390Y-115261904D02*
X118904819Y-115833332D01*
X118904819Y-115833332D02*
X118904819Y-115214285D01*
X88238095Y-72354819D02*
X88238095Y-71354819D01*
X88238095Y-71831009D02*
X88809523Y-71831009D01*
X88809523Y-72354819D02*
X88809523Y-71354819D01*
X89809523Y-72354819D02*
X89238095Y-72354819D01*
X89523809Y-72354819D02*
X89523809Y-71354819D01*
X89523809Y-71354819D02*
X89428571Y-71497676D01*
X89428571Y-71497676D02*
X89333333Y-71592914D01*
X89333333Y-71592914D02*
X89238095Y-71640533D01*
X100114166Y-144487319D02*
X100114166Y-145201604D01*
X100114166Y-145201604D02*
X100066547Y-145344461D01*
X100066547Y-145344461D02*
X99971309Y-145439700D01*
X99971309Y-145439700D02*
X99828452Y-145487319D01*
X99828452Y-145487319D02*
X99733214Y-145487319D01*
X101066547Y-144487319D02*
X100590357Y-144487319D01*
X100590357Y-144487319D02*
X100542738Y-144963509D01*
X100542738Y-144963509D02*
X100590357Y-144915890D01*
X100590357Y-144915890D02*
X100685595Y-144868271D01*
X100685595Y-144868271D02*
X100923690Y-144868271D01*
X100923690Y-144868271D02*
X101018928Y-144915890D01*
X101018928Y-144915890D02*
X101066547Y-144963509D01*
X101066547Y-144963509D02*
X101114166Y-145058747D01*
X101114166Y-145058747D02*
X101114166Y-145296842D01*
X101114166Y-145296842D02*
X101066547Y-145392080D01*
X101066547Y-145392080D02*
X101018928Y-145439700D01*
X101018928Y-145439700D02*
X100923690Y-145487319D01*
X100923690Y-145487319D02*
X100685595Y-145487319D01*
X100685595Y-145487319D02*
X100590357Y-145439700D01*
X100590357Y-145439700D02*
X100542738Y-145392080D01*
X140869819Y-97397023D02*
X141584104Y-97397023D01*
X141584104Y-97397023D02*
X141726961Y-97444642D01*
X141726961Y-97444642D02*
X141822200Y-97539880D01*
X141822200Y-97539880D02*
X141869819Y-97682737D01*
X141869819Y-97682737D02*
X141869819Y-97777975D01*
X141869819Y-96397023D02*
X141869819Y-96968451D01*
X141869819Y-96682737D02*
X140869819Y-96682737D01*
X140869819Y-96682737D02*
X141012676Y-96777975D01*
X141012676Y-96777975D02*
X141107914Y-96873213D01*
X141107914Y-96873213D02*
X141155533Y-96968451D01*
X140869819Y-96063689D02*
X140869819Y-95397023D01*
X140869819Y-95397023D02*
X141869819Y-95825594D01*
D10*
X144988333Y-102980922D02*
X144564999Y-102376160D01*
X144262618Y-102980922D02*
X144262618Y-101710922D01*
X144262618Y-101710922D02*
X144746428Y-101710922D01*
X144746428Y-101710922D02*
X144867380Y-101771398D01*
X144867380Y-101771398D02*
X144927857Y-101831874D01*
X144927857Y-101831874D02*
X144988333Y-101952826D01*
X144988333Y-101952826D02*
X144988333Y-102134255D01*
X144988333Y-102134255D02*
X144927857Y-102255207D01*
X144927857Y-102255207D02*
X144867380Y-102315684D01*
X144867380Y-102315684D02*
X144746428Y-102376160D01*
X144746428Y-102376160D02*
X144262618Y-102376160D01*
X145411666Y-101710922D02*
X146197857Y-101710922D01*
X146197857Y-101710922D02*
X145774523Y-102194731D01*
X145774523Y-102194731D02*
X145955952Y-102194731D01*
X145955952Y-102194731D02*
X146076904Y-102255207D01*
X146076904Y-102255207D02*
X146137380Y-102315684D01*
X146137380Y-102315684D02*
X146197857Y-102436636D01*
X146197857Y-102436636D02*
X146197857Y-102739017D01*
X146197857Y-102739017D02*
X146137380Y-102859969D01*
X146137380Y-102859969D02*
X146076904Y-102920446D01*
X146076904Y-102920446D02*
X145955952Y-102980922D01*
X145955952Y-102980922D02*
X145593095Y-102980922D01*
X145593095Y-102980922D02*
X145472142Y-102920446D01*
X145472142Y-102920446D02*
X145411666Y-102859969D01*
D11*
X146777976Y-83439819D02*
X146777976Y-84154104D01*
X146777976Y-84154104D02*
X146730357Y-84296961D01*
X146730357Y-84296961D02*
X146635119Y-84392200D01*
X146635119Y-84392200D02*
X146492262Y-84439819D01*
X146492262Y-84439819D02*
X146397024Y-84439819D01*
X147777976Y-84439819D02*
X147206548Y-84439819D01*
X147492262Y-84439819D02*
X147492262Y-83439819D01*
X147492262Y-83439819D02*
X147397024Y-83582676D01*
X147397024Y-83582676D02*
X147301786Y-83677914D01*
X147301786Y-83677914D02*
X147206548Y-83725533D01*
X148349405Y-83868390D02*
X148254167Y-83820771D01*
X148254167Y-83820771D02*
X148206548Y-83773152D01*
X148206548Y-83773152D02*
X148158929Y-83677914D01*
X148158929Y-83677914D02*
X148158929Y-83630295D01*
X148158929Y-83630295D02*
X148206548Y-83535057D01*
X148206548Y-83535057D02*
X148254167Y-83487438D01*
X148254167Y-83487438D02*
X148349405Y-83439819D01*
X148349405Y-83439819D02*
X148539881Y-83439819D01*
X148539881Y-83439819D02*
X148635119Y-83487438D01*
X148635119Y-83487438D02*
X148682738Y-83535057D01*
X148682738Y-83535057D02*
X148730357Y-83630295D01*
X148730357Y-83630295D02*
X148730357Y-83677914D01*
X148730357Y-83677914D02*
X148682738Y-83773152D01*
X148682738Y-83773152D02*
X148635119Y-83820771D01*
X148635119Y-83820771D02*
X148539881Y-83868390D01*
X148539881Y-83868390D02*
X148349405Y-83868390D01*
X148349405Y-83868390D02*
X148254167Y-83916009D01*
X148254167Y-83916009D02*
X148206548Y-83963628D01*
X148206548Y-83963628D02*
X148158929Y-84058866D01*
X148158929Y-84058866D02*
X148158929Y-84249342D01*
X148158929Y-84249342D02*
X148206548Y-84344580D01*
X148206548Y-84344580D02*
X148254167Y-84392200D01*
X148254167Y-84392200D02*
X148349405Y-84439819D01*
X148349405Y-84439819D02*
X148539881Y-84439819D01*
X148539881Y-84439819D02*
X148635119Y-84392200D01*
X148635119Y-84392200D02*
X148682738Y-84344580D01*
X148682738Y-84344580D02*
X148730357Y-84249342D01*
X148730357Y-84249342D02*
X148730357Y-84058866D01*
X148730357Y-84058866D02*
X148682738Y-83963628D01*
X148682738Y-83963628D02*
X148635119Y-83916009D01*
X148635119Y-83916009D02*
X148539881Y-83868390D01*
D10*
%TO.C,J19*%
X97910000Y-71610000D02*
X119310000Y-71610000D01*
X97910000Y-80110000D02*
X97910000Y-71610000D01*
X119310000Y-71610000D02*
X119310000Y-80110000D01*
X119310000Y-80110000D02*
X97910000Y-80110000D01*
D12*
X97260000Y-75510000D02*
G75*
G02*
X97060000Y-75510000I-100000J0D01*
G01*
X97060000Y-75510000D02*
G75*
G02*
X97260000Y-75510000I100000J0D01*
G01*
D13*
%TO.C,J15*%
X115470000Y-95940000D02*
X115470000Y-103620000D01*
X115470000Y-95940000D02*
X118130000Y-95940000D01*
X115470000Y-103620000D02*
X118130000Y-103620000D01*
X116800000Y-93340000D02*
X118130000Y-93340000D01*
X118130000Y-93340000D02*
X118130000Y-94670000D01*
X118130000Y-95940000D02*
X118130000Y-103620000D01*
%TO.C,J14*%
X97695000Y-93415000D02*
X97695000Y-106175000D01*
X97695000Y-93415000D02*
X100355000Y-93415000D01*
X97695000Y-106175000D02*
X100355000Y-106175000D01*
X99025000Y-90815000D02*
X100355000Y-90815000D01*
X100355000Y-90815000D02*
X100355000Y-92145000D01*
X100355000Y-93415000D02*
X100355000Y-106175000D01*
D10*
%TO.C,J3*%
X121400000Y-130812500D02*
X128600000Y-130812500D01*
X121400000Y-142512500D02*
X121400000Y-130812500D01*
X128600000Y-130812500D02*
X128600000Y-142512500D01*
X128600000Y-142512500D02*
X121400000Y-142512500D01*
D12*
X125700000Y-143262500D02*
G75*
G02*
X125500000Y-143262500I-100000J0D01*
G01*
X125500000Y-143262500D02*
G75*
G02*
X125700000Y-143262500I100000J0D01*
G01*
D10*
%TO.C,J7*%
X157100000Y-114487500D02*
X164300000Y-114487500D01*
X157100000Y-126187500D02*
X157100000Y-114487500D01*
X164300000Y-114487500D02*
X164300000Y-126187500D01*
X164300000Y-126187500D02*
X157100000Y-126187500D01*
D12*
X160200000Y-113737500D02*
G75*
G02*
X160000000Y-113737500I-100000J0D01*
G01*
X160000000Y-113737500D02*
G75*
G02*
X160200000Y-113737500I100000J0D01*
G01*
D10*
%TO.C,J4*%
X108900000Y-130812500D02*
X116100000Y-130812500D01*
X108900000Y-142512500D02*
X108900000Y-130812500D01*
X116100000Y-130812500D02*
X116100000Y-142512500D01*
X116100000Y-142512500D02*
X108900000Y-142512500D01*
D12*
X113200000Y-143262500D02*
G75*
G02*
X113000000Y-143262500I-100000J0D01*
G01*
X113000000Y-143262500D02*
G75*
G02*
X113200000Y-143262500I100000J0D01*
G01*
D11*
%TO.C,U4*%
X113805000Y-114255000D02*
X114030000Y-114255000D01*
X113805000Y-117505000D02*
X113805000Y-114255000D01*
X113805000Y-117505000D02*
X114030000Y-117505000D01*
X117055000Y-114255000D02*
X116830000Y-114255000D01*
X117055000Y-117505000D02*
X116830000Y-117505000D01*
X117055000Y-117505000D02*
X117055000Y-114255000D01*
D13*
X114030000Y-117980000D02*
X113700000Y-118220000D01*
X113700000Y-117740000D01*
X114030000Y-117980000D01*
G36*
X114030000Y-117980000D02*
G01*
X113700000Y-118220000D01*
X113700000Y-117740000D01*
X114030000Y-117980000D01*
G37*
%TO.C,J6*%
X88270000Y-129950000D02*
X88270000Y-79030000D01*
X90870000Y-127350000D02*
X90870000Y-129950000D01*
X90870000Y-129950000D02*
X88270000Y-129950000D01*
X93470000Y-79030000D02*
X88270000Y-79030000D01*
X93470000Y-127350000D02*
X90870000Y-127350000D01*
X93470000Y-127350000D02*
X93470000Y-79030000D01*
X93470000Y-128620000D02*
X93470000Y-129950000D01*
X93470000Y-129950000D02*
X92140000Y-129950000D01*
D10*
%TO.C,J10*%
X157100000Y-74650000D02*
X164300000Y-74650000D01*
X157100000Y-86350000D02*
X157100000Y-74650000D01*
X164300000Y-74650000D02*
X164300000Y-86350000D01*
X164300000Y-86350000D02*
X157100000Y-86350000D01*
D12*
X160200000Y-73900000D02*
G75*
G02*
X160000000Y-73900000I-100000J0D01*
G01*
X160000000Y-73900000D02*
G75*
G02*
X160200000Y-73900000I100000J0D01*
G01*
D13*
%TO.C,J11*%
X108800000Y-123460000D02*
X96040000Y-123460000D01*
X111400000Y-123460000D02*
X110070000Y-123460000D01*
X111400000Y-122130000D02*
X111400000Y-123460000D01*
X96040000Y-120800000D02*
X96040000Y-123460000D01*
X108800000Y-120800000D02*
X108800000Y-123460000D01*
X108800000Y-120800000D02*
X96040000Y-120800000D01*
D10*
%TO.C,J8*%
X157100000Y-101208300D02*
X164300000Y-101208300D01*
X157100000Y-112908300D02*
X157100000Y-101208300D01*
X164300000Y-101208300D02*
X164300000Y-112908300D01*
X164300000Y-112908300D02*
X157100000Y-112908300D01*
D12*
X160200000Y-100458300D02*
G75*
G02*
X160000000Y-100458300I-100000J0D01*
G01*
X160000000Y-100458300D02*
G75*
G02*
X160200000Y-100458300I100000J0D01*
G01*
D10*
%TO.C,J9*%
X157100000Y-87929200D02*
X164300000Y-87929200D01*
X157100000Y-99629200D02*
X157100000Y-87929200D01*
X164300000Y-87929200D02*
X164300000Y-99629200D01*
X164300000Y-99629200D02*
X157100000Y-99629200D01*
D12*
X160200000Y-87179200D02*
G75*
G02*
X160000000Y-87179200I-100000J0D01*
G01*
X160000000Y-87179200D02*
G75*
G02*
X160200000Y-87179200I100000J0D01*
G01*
D13*
%TO.C,J1*%
X143530000Y-124470000D02*
X144860000Y-124470000D01*
X143530000Y-125800000D02*
X143530000Y-124470000D01*
X146130000Y-124470000D02*
X148730000Y-124470000D01*
X146130000Y-127130000D02*
X146130000Y-124470000D01*
X146130000Y-127130000D02*
X148730000Y-127130000D01*
X148730000Y-127130000D02*
X148730000Y-124470000D01*
D10*
%TO.C,J16*%
X129800000Y-87812500D02*
X137000000Y-87812500D01*
X129800000Y-99512500D02*
X129800000Y-87812500D01*
X137000000Y-87812500D02*
X137000000Y-99512500D01*
X137000000Y-99512500D02*
X129800000Y-99512500D01*
D12*
X134100000Y-100262500D02*
G75*
G02*
X133900000Y-100262500I-100000J0D01*
G01*
X133900000Y-100262500D02*
G75*
G02*
X134100000Y-100262500I100000J0D01*
G01*
D13*
%TO.C,SW1*%
X125400000Y-76050000D02*
X126600000Y-76050000D01*
X125400000Y-80250000D02*
X125400000Y-76050000D01*
X126600000Y-80250000D02*
X125400000Y-80250000D01*
X134250000Y-80250000D02*
X134600000Y-80250000D01*
X134600000Y-76050000D02*
X133400000Y-76050000D01*
X134600000Y-80250000D02*
X134600000Y-76050000D01*
X133500000Y-80730000D02*
X133500000Y-80250000D01*
X133980000Y-80250000D01*
X133500000Y-80730000D01*
G36*
X133500000Y-80730000D02*
G01*
X133500000Y-80250000D01*
X133980000Y-80250000D01*
X133500000Y-80730000D01*
G37*
D10*
%TO.C,J13*%
X158900000Y-130812500D02*
X166100000Y-130812500D01*
X158900000Y-142512500D02*
X158900000Y-130812500D01*
X166100000Y-130812500D02*
X166100000Y-142512500D01*
X166100000Y-142512500D02*
X158900000Y-142512500D01*
D12*
X163200000Y-143262500D02*
G75*
G02*
X163000000Y-143262500I-100000J0D01*
G01*
X163000000Y-143262500D02*
G75*
G02*
X163200000Y-143262500I100000J0D01*
G01*
D10*
%TO.C,J12*%
X146400000Y-130812500D02*
X153600000Y-130812500D01*
X146400000Y-142512500D02*
X146400000Y-130812500D01*
X153600000Y-130812500D02*
X153600000Y-142512500D01*
X153600000Y-142512500D02*
X146400000Y-142512500D01*
D12*
X150700000Y-143262500D02*
G75*
G02*
X150500000Y-143262500I-100000J0D01*
G01*
X150500000Y-143262500D02*
G75*
G02*
X150700000Y-143262500I100000J0D01*
G01*
D14*
%TO.C,G\u002A\u002A\u002A*%
G36*
X150868157Y-101469181D02*
G01*
X151223570Y-101595661D01*
X151601261Y-101801415D01*
X151935538Y-102045785D01*
X152137365Y-102254696D01*
X152271959Y-102545328D01*
X152342698Y-102929038D01*
X152344952Y-103340266D01*
X152274090Y-103713451D01*
X152245774Y-103789870D01*
X152167055Y-104017216D01*
X152171724Y-104152040D01*
X152215765Y-104213153D01*
X152318900Y-104290915D01*
X152538930Y-104442767D01*
X152850169Y-104651449D01*
X153226935Y-104899698D01*
X153548000Y-105108545D01*
X154071833Y-105451506D01*
X154466281Y-105720646D01*
X154747382Y-105928899D01*
X154931171Y-106089201D01*
X155033685Y-106214486D01*
X155070960Y-106317690D01*
X155072000Y-106337813D01*
X155014542Y-106433249D01*
X154857245Y-106620430D01*
X154622725Y-106874145D01*
X154333600Y-107169183D01*
X154267666Y-107234421D01*
X153463333Y-108025976D01*
X153463333Y-110889750D01*
X153463333Y-113753525D01*
X153230500Y-113842752D01*
X153017937Y-113888368D01*
X152710311Y-113911181D01*
X152351000Y-113913247D01*
X151983382Y-113896623D01*
X151650834Y-113863365D01*
X151396734Y-113815530D01*
X151264461Y-113755175D01*
X151260098Y-113749334D01*
X151228323Y-113617794D01*
X151202269Y-113355873D01*
X151184761Y-113002495D01*
X151178630Y-112627500D01*
X151174766Y-112194579D01*
X151162268Y-111904800D01*
X151137769Y-111732054D01*
X151097902Y-111650232D01*
X151050333Y-111632667D01*
X150966075Y-111683219D01*
X150928111Y-111854622D01*
X150923333Y-112008155D01*
X150885084Y-112429314D01*
X150773215Y-112716311D01*
X150595401Y-112856927D01*
X150448562Y-112983042D01*
X150368687Y-113181671D01*
X150193723Y-113666947D01*
X149909014Y-114026008D01*
X149521984Y-114252663D01*
X149040056Y-114340723D01*
X148977512Y-114341684D01*
X148522002Y-114291577D01*
X148235166Y-114173595D01*
X148057333Y-114071031D01*
X147957996Y-114025031D01*
X147951256Y-114025745D01*
X147939305Y-114114282D01*
X147920619Y-114308901D01*
X147915591Y-114367624D01*
X147852848Y-114685172D01*
X147716838Y-114862837D01*
X147486920Y-114921683D01*
X147376527Y-114917781D01*
X147126897Y-114855465D01*
X146978669Y-114700301D01*
X146968361Y-114680667D01*
X146945500Y-114551146D01*
X146925305Y-114271504D01*
X146907784Y-113860933D01*
X146892947Y-113338624D01*
X146886664Y-113020450D01*
X148379650Y-113020450D01*
X148440864Y-113280984D01*
X148571505Y-113448199D01*
X148799247Y-113550896D01*
X148976000Y-113580000D01*
X149287909Y-113512311D01*
X149490343Y-113319248D01*
X149568261Y-113015818D01*
X149568666Y-112988678D01*
X149501242Y-112671938D01*
X149323984Y-112454805D01*
X149074418Y-112353462D01*
X148790066Y-112384092D01*
X148531500Y-112541386D01*
X148408805Y-112749964D01*
X148379650Y-113020450D01*
X146886664Y-113020450D01*
X146880805Y-112723770D01*
X146871367Y-112035561D01*
X146864707Y-111300274D01*
X147916971Y-111300274D01*
X147920151Y-111545741D01*
X147929447Y-111776545D01*
X147943797Y-111931437D01*
X147949641Y-111955932D01*
X148017092Y-111929485D01*
X148172718Y-111830578D01*
X148231888Y-111789263D01*
X148598270Y-111624017D01*
X149019939Y-111581153D01*
X149074418Y-111591374D01*
X149436579Y-111659320D01*
X149745992Y-111823167D01*
X149940351Y-111963262D01*
X150077212Y-112046249D01*
X150105825Y-112056000D01*
X150132117Y-111978175D01*
X150151680Y-111772006D01*
X150161004Y-111478450D01*
X150161333Y-111407878D01*
X150158760Y-111084117D01*
X150145794Y-110902148D01*
X150114567Y-110834449D01*
X150057208Y-110853498D01*
X150013166Y-110889668D01*
X149586652Y-111159189D01*
X149111219Y-111280486D01*
X148623193Y-111248372D01*
X148298910Y-111134444D01*
X148090522Y-111044696D01*
X147954910Y-111006698D01*
X147933218Y-111010337D01*
X147920972Y-111101391D01*
X147916971Y-111300274D01*
X146864707Y-111300274D01*
X146864643Y-111293189D01*
X146860642Y-110515846D01*
X146859662Y-109902566D01*
X148383333Y-109902566D01*
X148408218Y-110172004D01*
X148498325Y-110338706D01*
X148571505Y-110400199D01*
X148874021Y-110529203D01*
X149166044Y-110510145D01*
X149407853Y-110352793D01*
X149526036Y-110165437D01*
X149583775Y-109853602D01*
X149506918Y-109579553D01*
X149323032Y-109377794D01*
X149059686Y-109282826D01*
X148834830Y-109300324D01*
X148570117Y-109399227D01*
X148431704Y-109556458D01*
X148384826Y-109818391D01*
X148383333Y-109902566D01*
X146859662Y-109902566D01*
X146859374Y-109722724D01*
X146860849Y-108933013D01*
X146863769Y-108403034D01*
X147922116Y-108403034D01*
X147925520Y-108631133D01*
X147942163Y-108792261D01*
X147950195Y-108819221D01*
X148023441Y-108798572D01*
X148197174Y-108719896D01*
X148295294Y-108671054D01*
X148748721Y-108525447D01*
X149059686Y-108529613D01*
X149200792Y-108531504D01*
X149621054Y-108674075D01*
X149979058Y-108938007D01*
X150114567Y-109127073D01*
X150244351Y-109308151D01*
X150376358Y-109706500D01*
X150441112Y-109914925D01*
X150527915Y-110020070D01*
X150546955Y-110024000D01*
X150691020Y-110096990D01*
X150825934Y-110274976D01*
X150911544Y-110496484D01*
X150923333Y-110600228D01*
X150959442Y-110746583D01*
X151029166Y-110764964D01*
X151079224Y-110688130D01*
X151116406Y-110485740D01*
X151142442Y-110143095D01*
X151158639Y-109664870D01*
X151182278Y-108599924D01*
X150735306Y-108335505D01*
X150472484Y-108177720D01*
X150254076Y-108042548D01*
X150151989Y-107975934D01*
X150025306Y-107933896D01*
X149843218Y-107973584D01*
X149638425Y-108063391D01*
X149171584Y-108219678D01*
X148736240Y-108214926D01*
X148361220Y-108076667D01*
X148149400Y-107971345D01*
X148000518Y-107912087D01*
X147975174Y-107907334D01*
X147948561Y-107982092D01*
X147930336Y-108167006D01*
X147922116Y-108403034D01*
X146863769Y-108403034D01*
X146865076Y-108165907D01*
X146872066Y-107440596D01*
X146881342Y-106809359D01*
X148376809Y-106809359D01*
X148419847Y-107091500D01*
X148552666Y-107314667D01*
X148795439Y-107462845D01*
X149051399Y-107473700D01*
X149288345Y-107373047D01*
X149474072Y-107186698D01*
X149576379Y-106940468D01*
X149563062Y-106660170D01*
X149516886Y-106541760D01*
X149318926Y-106311010D01*
X149047222Y-106212034D01*
X148744498Y-106253690D01*
X148571505Y-106345801D01*
X148427786Y-106539007D01*
X148376809Y-106809359D01*
X146881342Y-106809359D01*
X146881828Y-106776271D01*
X146894371Y-106192126D01*
X146909705Y-105707350D01*
X146927841Y-105341137D01*
X146948787Y-105112677D01*
X146963490Y-105047993D01*
X147138669Y-104861591D01*
X147398801Y-104786022D01*
X147612587Y-104814224D01*
X147738401Y-104923654D01*
X147850650Y-105126480D01*
X147920665Y-105351663D01*
X147919773Y-105528161D01*
X147909495Y-105549888D01*
X147881815Y-105671146D01*
X147975174Y-105711774D01*
X147977248Y-105712677D01*
X148167359Y-105670294D01*
X148305015Y-105608117D01*
X148601823Y-105491002D01*
X148919991Y-105459615D01*
X149047222Y-105466379D01*
X149092796Y-105468802D01*
X149580804Y-105580224D01*
X149959837Y-105818830D01*
X150221226Y-106175377D01*
X150356301Y-106640620D01*
X150372341Y-106833080D01*
X150394129Y-107090357D01*
X150462471Y-107249133D01*
X150617432Y-107380119D01*
X150718660Y-107444271D01*
X150930192Y-107566930D01*
X151080835Y-107641026D01*
X151113833Y-107650691D01*
X151141961Y-107573607D01*
X151163703Y-107365076D01*
X151175851Y-107062952D01*
X151177333Y-106901700D01*
X151181626Y-106722000D01*
X151937297Y-106722000D01*
X151959482Y-109918167D01*
X151981666Y-113114334D01*
X152320333Y-113114334D01*
X152659000Y-113114334D01*
X152681185Y-109918167D01*
X152703369Y-106722000D01*
X152320333Y-106722000D01*
X151937297Y-106722000D01*
X151181626Y-106722000D01*
X151187251Y-106486544D01*
X151219052Y-106217529D01*
X151275808Y-106072513D01*
X151295175Y-106052268D01*
X151451060Y-106003795D01*
X151773875Y-105978142D01*
X152262752Y-105975367D01*
X152320333Y-105976500D01*
X152417008Y-105978401D01*
X153421000Y-106002334D01*
X153446805Y-106404500D01*
X153469531Y-106638976D01*
X153498368Y-106783913D01*
X153513284Y-106806667D01*
X153640423Y-106755048D01*
X153802470Y-106636409D01*
X153933355Y-106505074D01*
X153971333Y-106430047D01*
X153903385Y-106357962D01*
X153711703Y-106206650D01*
X153414534Y-105989163D01*
X153030123Y-105718556D01*
X152576716Y-105407881D01*
X152072559Y-105070191D01*
X152045166Y-105052050D01*
X151428347Y-104644249D01*
X150936530Y-104320710D01*
X150553780Y-104071832D01*
X150264159Y-103888015D01*
X150051733Y-103759660D01*
X149900564Y-103677167D01*
X149794716Y-103630936D01*
X149718252Y-103611367D01*
X149655236Y-103608862D01*
X149649815Y-103609137D01*
X149165768Y-103614084D01*
X148835573Y-103561888D01*
X148651507Y-103446077D01*
X148605848Y-103260182D01*
X148690874Y-102997731D01*
X148762314Y-102865475D01*
X148843805Y-102746600D01*
X149800053Y-102746600D01*
X149822535Y-102793485D01*
X149912064Y-102813876D01*
X150104037Y-102878971D01*
X150343602Y-103005183D01*
X150408062Y-103046404D01*
X150689232Y-103237175D01*
X150976382Y-103435095D01*
X151008000Y-103457147D01*
X151215230Y-103587377D01*
X151374794Y-103662397D01*
X151406330Y-103669119D01*
X151489231Y-103598199D01*
X151553010Y-103414574D01*
X151586491Y-103174686D01*
X151578501Y-102934976D01*
X151565176Y-102866789D01*
X151460584Y-102699209D01*
X151253529Y-102504989D01*
X150997701Y-102322994D01*
X150746786Y-102192087D01*
X150574991Y-102150000D01*
X150434113Y-102203681D01*
X150226855Y-102341782D01*
X150074403Y-102467500D01*
X149879510Y-102647538D01*
X149800053Y-102746600D01*
X148843805Y-102746600D01*
X148939521Y-102606975D01*
X149185049Y-102302567D01*
X149423877Y-102041135D01*
X149836783Y-101686192D01*
X150232013Y-101487335D01*
X150574991Y-101443206D01*
X150631286Y-101435963D01*
X150868157Y-101469181D01*
G37*
D13*
%TO.C,U2*%
X126495000Y-111370000D02*
X126495000Y-121650000D01*
X126495000Y-121650000D02*
X144515000Y-121650000D01*
X126555000Y-113860000D02*
X126555000Y-119160000D01*
X126555000Y-119160000D02*
X144455000Y-119160000D01*
X144455000Y-113860000D02*
X126555000Y-113860000D01*
X144455000Y-115510000D02*
X144455000Y-113860000D01*
X144455000Y-119160000D02*
X144455000Y-117510000D01*
X144515000Y-111370000D02*
X126495000Y-111370000D01*
X144515000Y-121650000D02*
X144515000Y-111370000D01*
X144455000Y-117510000D02*
G75*
G02*
X144455000Y-115510000I0J1000000D01*
G01*
D10*
%TO.C,J2*%
X133900000Y-130812500D02*
X141100000Y-130812500D01*
X133900000Y-142512500D02*
X133900000Y-130812500D01*
X141100000Y-130812500D02*
X141100000Y-142512500D01*
X141100000Y-142512500D02*
X133900000Y-142512500D01*
D12*
X138200000Y-143262500D02*
G75*
G02*
X138000000Y-143262500I-100000J0D01*
G01*
X138000000Y-143262500D02*
G75*
G02*
X138200000Y-143262500I100000J0D01*
G01*
D13*
%TO.C,C2*%
X119390000Y-116711252D02*
X119390000Y-115288748D01*
X121210000Y-116711252D02*
X121210000Y-115288748D01*
D10*
%TO.C,J5*%
X96400000Y-130812500D02*
X103600000Y-130812500D01*
X96400000Y-142512500D02*
X96400000Y-130812500D01*
X103600000Y-130812500D02*
X103600000Y-142512500D01*
X103600000Y-142512500D02*
X96400000Y-142512500D01*
D12*
X100700000Y-143262500D02*
G75*
G02*
X100500000Y-143262500I-100000J0D01*
G01*
X100500000Y-143262500D02*
G75*
G02*
X100700000Y-143262500I100000J0D01*
G01*
D10*
%TO.C,J17*%
X143300000Y-87812500D02*
X150500000Y-87812500D01*
X143300000Y-99512500D02*
X143300000Y-87812500D01*
X150500000Y-87812500D02*
X150500000Y-99512500D01*
X150500000Y-99512500D02*
X143300000Y-99512500D01*
D12*
X147600000Y-100262500D02*
G75*
G02*
X147400000Y-100262500I-100000J0D01*
G01*
X147400000Y-100262500D02*
G75*
G02*
X147600000Y-100262500I100000J0D01*
G01*
D13*
%TO.C,R3*%
X140972936Y-101490000D02*
X142427064Y-101490000D01*
X140972936Y-103310000D02*
X142427064Y-103310000D01*
D10*
%TO.C,J18*%
X138812500Y-74900000D02*
X150512500Y-74900000D01*
X138812500Y-82100000D02*
X138812500Y-74900000D01*
X150512500Y-74900000D02*
X150512500Y-82100000D01*
X150512500Y-82100000D02*
X138812500Y-82100000D01*
D12*
X151362500Y-77900000D02*
G75*
G02*
X151162500Y-77900000I-100000J0D01*
G01*
X151162500Y-77900000D02*
G75*
G02*
X151362500Y-77900000I100000J0D01*
G01*
%TD*%
M02*
