%TF.GenerationSoftware,KiCad,Pcbnew,8.0.6*%
%TF.CreationDate,2025-02-04T19:04:09-05:00*%
%TF.ProjectId,Jetson_Extension_Board,4a657473-6f6e-45f4-9578-74656e73696f,rev?*%
%TF.SameCoordinates,Original*%
%TF.FileFunction,Copper,L1,Top*%
%TF.FilePolarity,Positive*%
%FSLAX46Y46*%
G04 Gerber Fmt 4.6, Leading zero omitted, Abs format (unit mm)*
G04 Created by KiCad (PCBNEW 8.0.6) date 2025-02-04 19:04:09*
%MOMM*%
%LPD*%
G01*
G04 APERTURE LIST*
G04 Aperture macros list*
%AMRoundRect*
0 Rectangle with rounded corners*
0 $1 Rounding radius*
0 $2 $3 $4 $5 $6 $7 $8 $9 X,Y pos of 4 corners*
0 Add a 4 corners polygon primitive as box body*
4,1,4,$2,$3,$4,$5,$6,$7,$8,$9,$2,$3,0*
0 Add four circle primitives for the rounded corners*
1,1,$1+$1,$2,$3*
1,1,$1+$1,$4,$5*
1,1,$1+$1,$6,$7*
1,1,$1+$1,$8,$9*
0 Add four rect primitives between the rounded corners*
20,1,$1+$1,$2,$3,$4,$5,0*
20,1,$1+$1,$4,$5,$6,$7,0*
20,1,$1+$1,$6,$7,$8,$9,0*
20,1,$1+$1,$8,$9,$2,$3,0*%
G04 Aperture macros list end*
%TA.AperFunction,ComponentPad*%
%ADD10R,2.550000X2.550000*%
%TD*%
%TA.AperFunction,ComponentPad*%
%ADD11C,2.550000*%
%TD*%
%TA.AperFunction,ComponentPad*%
%ADD12R,1.700000X1.700000*%
%TD*%
%TA.AperFunction,ComponentPad*%
%ADD13O,1.700000X1.700000*%
%TD*%
%TA.AperFunction,ComponentPad*%
%ADD14R,2.100000X2.100000*%
%TD*%
%TA.AperFunction,ComponentPad*%
%ADD15C,2.100000*%
%TD*%
%TA.AperFunction,SMDPad,CuDef*%
%ADD16R,0.250000X1.100000*%
%TD*%
%TA.AperFunction,SMDPad,CuDef*%
%ADD17R,1.100000X1.000000*%
%TD*%
%TA.AperFunction,ComponentPad*%
%ADD18RoundRect,0.250000X0.450000X0.450000X-0.450000X0.450000X-0.450000X-0.450000X0.450000X-0.450000X0*%
%TD*%
%TA.AperFunction,ComponentPad*%
%ADD19C,1.400000*%
%TD*%
%TA.AperFunction,ComponentPad*%
%ADD20R,1.600000X1.600000*%
%TD*%
%TA.AperFunction,ComponentPad*%
%ADD21O,1.600000X1.600000*%
%TD*%
%TA.AperFunction,SMDPad,CuDef*%
%ADD22RoundRect,0.250000X0.650000X-0.325000X0.650000X0.325000X-0.650000X0.325000X-0.650000X-0.325000X0*%
%TD*%
%TA.AperFunction,SMDPad,CuDef*%
%ADD23RoundRect,0.250000X-0.312500X-0.625000X0.312500X-0.625000X0.312500X0.625000X-0.312500X0.625000X0*%
%TD*%
%TA.AperFunction,ViaPad*%
%ADD24C,0.600000*%
%TD*%
%TA.AperFunction,Conductor*%
%ADD25C,0.200000*%
%TD*%
G04 APERTURE END LIST*
D10*
%TO.P,J19,1,Pin_1*%
%TO.N,SCL*%
X101110000Y-75510000D03*
D11*
%TO.P,J19,2,Pin_2*%
%TO.N,SDA*%
X106110000Y-75510000D03*
%TO.P,J19,3,Pin_3*%
%TO.N,GND*%
X111110000Y-75510000D03*
%TO.P,J19,4,Pin_4*%
%TO.N,3.3V*%
X116110000Y-75510000D03*
%TD*%
D12*
%TO.P,J15,1,Pin_1*%
%TO.N,COM 3*%
X116800000Y-94670000D03*
D13*
%TO.P,J15,2,Pin_2*%
%TO.N,IMU INT*%
X116800000Y-97210000D03*
%TO.P,J15,3,Pin_3*%
%TO.N,GND*%
X116800000Y-99750000D03*
%TO.P,J15,4,Pin_4*%
X116800000Y-102290000D03*
%TD*%
D12*
%TO.P,J14,1,Pin_1*%
%TO.N,IMU nRESET*%
X99025000Y-92145000D03*
D13*
%TO.P,J14,2,Pin_2*%
%TO.N,SCL*%
X99025000Y-94685000D03*
%TO.P,J14,3,Pin_3*%
%TO.N,SDA*%
X99025000Y-97225000D03*
%TO.P,J14,4,Pin_4*%
%TO.N,GND*%
X99025000Y-99765000D03*
%TO.P,J14,5,Pin_5*%
%TO.N,/ADC/3.3V*%
X99025000Y-102305000D03*
%TO.P,J14,6,Pin_6*%
%TO.N,unconnected-(J14-Pin_6-Pad6)*%
X99025000Y-104845000D03*
%TD*%
D14*
%TO.P,J3,1,1*%
%TO.N,GND*%
X125600000Y-140162500D03*
D15*
%TO.P,J3,2,2*%
%TO.N,Net-(J3-Pad2)*%
X125600000Y-136662500D03*
%TO.P,J3,3,3*%
%TO.N,/SchmittTrigger(74LV14)/5V*%
X125600000Y-133162500D03*
%TD*%
D14*
%TO.P,J7,1,1*%
%TO.N,/ADC/3.3V*%
X160100000Y-116837500D03*
D15*
%TO.P,J7,2,2*%
%TO.N,/ADC/Signal 1*%
X160100000Y-120337500D03*
%TO.P,J7,3,3*%
%TO.N,GND*%
X160100000Y-123837500D03*
%TD*%
D14*
%TO.P,J4,1,1*%
%TO.N,GND*%
X113100000Y-140162500D03*
D15*
%TO.P,J4,2,2*%
%TO.N,Net-(J4-Pad2)*%
X113100000Y-136662500D03*
%TO.P,J4,3,3*%
%TO.N,/SchmittTrigger(74LV14)/5V*%
X113100000Y-133162500D03*
%TD*%
D16*
%TO.P,U4,1,ADDR*%
%TO.N,unconnected-(U4-ADDR-Pad1)*%
X114430000Y-118030000D03*
%TO.P,U4,2,ALERT/RDY*%
%TO.N,ADC ALERT*%
X114930000Y-118030000D03*
%TO.P,U4,3,GND*%
%TO.N,GND*%
X115430000Y-118030000D03*
%TO.P,U4,4,AIN0*%
%TO.N,/ADC/Signal 1*%
X115930000Y-118030000D03*
%TO.P,U4,5,AIN1*%
%TO.N,/ADC/Signal 2*%
X116430000Y-118030000D03*
%TO.P,U4,6,AIN2*%
%TO.N,/ADC/Signal 3*%
X116430000Y-113730000D03*
%TO.P,U4,7,AIN3*%
%TO.N,/ADC/Signal 4*%
X115930000Y-113730000D03*
%TO.P,U4,8,VDD*%
%TO.N,/ADC/3.3V*%
X115430000Y-113730000D03*
%TO.P,U4,9,SDA*%
%TO.N,SDA*%
X114930000Y-113730000D03*
%TO.P,U4,10,SCL*%
%TO.N,SCL*%
X114430000Y-113730000D03*
%TD*%
D12*
%TO.P,J6,1,Pin_1*%
%TO.N,3.3V*%
X92140000Y-128620000D03*
D13*
%TO.P,J6,2,Pin_2*%
%TO.N,5V*%
X89600000Y-128620000D03*
%TO.P,J6,3,Pin_3*%
%TO.N,SDA*%
X92140000Y-126080000D03*
%TO.P,J6,4,Pin_4*%
%TO.N,5V*%
X89600000Y-126080000D03*
%TO.P,J6,5,Pin_5*%
%TO.N,SCL*%
X92140000Y-123540000D03*
%TO.P,J6,6,Pin_6*%
%TO.N,GND*%
X89600000Y-123540000D03*
%TO.P,J6,7,Pin_7*%
%TO.N,ADC ALERT*%
X92140000Y-121000000D03*
%TO.P,J6,8,Pin_8*%
%TO.N,/UART_2_TX*%
X89600000Y-121000000D03*
%TO.P,J6,9,Pin_9*%
%TO.N,GND*%
X92140000Y-118460000D03*
%TO.P,J6,10,Pin_10*%
%TO.N,/UART_2_RX*%
X89600000Y-118460000D03*
%TO.P,J6,11,Pin_11*%
%TO.N,/gpio50*%
X92140000Y-115920000D03*
%TO.P,J6,12,Pin_12*%
%TO.N,/gpio79*%
X89600000Y-115920000D03*
%TO.P,J6,13,Pin_13*%
%TO.N,/gpio14*%
X92140000Y-113380000D03*
%TO.P,J6,14,Pin_14*%
%TO.N,GND*%
X89600000Y-113380000D03*
%TO.P,J6,15,Pin_15*%
%TO.N,/gpio194*%
X92140000Y-110840000D03*
%TO.P,J6,16,Pin_16*%
%TO.N,/gpio232*%
X89600000Y-110840000D03*
%TO.P,J6,17,Pin_17*%
%TO.N,3.3V*%
X92140000Y-108300000D03*
%TO.P,J6,18,Pin_18*%
%TO.N,/gpio15*%
X89600000Y-108300000D03*
%TO.P,J6,19,Pin_19*%
%TO.N,/gpio16*%
X92140000Y-105760000D03*
%TO.P,J6,20,Pin_20*%
%TO.N,GND*%
X89600000Y-105760000D03*
%TO.P,J6,21,Pin_21*%
%TO.N,ST 6*%
X92140000Y-103220000D03*
%TO.P,J6,22,Pin_22*%
%TO.N,/gpio13*%
X89600000Y-103220000D03*
%TO.P,J6,23,Pin_23*%
%TO.N,ST 5*%
X92140000Y-100680000D03*
%TO.P,J6,24,Pin_24*%
%TO.N,/gpio19*%
X89600000Y-100680000D03*
%TO.P,J6,25,Pin_25*%
%TO.N,GND*%
X92140000Y-98140000D03*
%TO.P,J6,26,Pin_26*%
%TO.N,/gpio20*%
X89600000Y-98140000D03*
%TO.P,J6,27,Pin_27*%
%TO.N,/I2C_1_SDA*%
X92140000Y-95600000D03*
%TO.P,J6,28,Pin_28*%
%TO.N,/I2C_1_SCL*%
X89600000Y-95600000D03*
%TO.P,J6,29,Pin_29*%
%TO.N,IMU nRESET*%
X92140000Y-93060000D03*
%TO.P,J6,30,Pin_30*%
%TO.N,GND*%
X89600000Y-93060000D03*
%TO.P,J6,31,Pin_31*%
%TO.N,IMU INT*%
X92140000Y-90520000D03*
%TO.P,J6,32,Pin_32*%
%TO.N,ST 1*%
X89600000Y-90520000D03*
%TO.P,J6,33,Pin_33*%
%TO.N,/gpio38*%
X92140000Y-87980000D03*
%TO.P,J6,34,Pin_34*%
%TO.N,GND*%
X89600000Y-87980000D03*
%TO.P,J6,35,Pin_35*%
%TO.N,COM 3*%
X92140000Y-85440000D03*
%TO.P,J6,36,Pin_36*%
%TO.N,ST 2*%
X89600000Y-85440000D03*
%TO.P,J6,37,Pin_37*%
%TO.N,/gpio12*%
X92140000Y-82900000D03*
%TO.P,J6,38,Pin_38*%
%TO.N,ST 3*%
X89600000Y-82900000D03*
%TO.P,J6,39,Pin_39*%
%TO.N,GND*%
X92140000Y-80360000D03*
%TO.P,J6,40,Pin_40*%
%TO.N,ST 4*%
X89600000Y-80360000D03*
%TD*%
D14*
%TO.P,J10,1,1*%
%TO.N,/ADC/3.3V*%
X160100000Y-77000000D03*
D15*
%TO.P,J10,2,2*%
%TO.N,/ADC/Signal 4*%
X160100000Y-80500000D03*
%TO.P,J10,3,3*%
%TO.N,GND*%
X160100000Y-84000000D03*
%TD*%
D12*
%TO.P,J11,1,Pin_1*%
%TO.N,ST 6*%
X110070000Y-122130000D03*
D13*
%TO.P,J11,2,Pin_2*%
%TO.N,ST 5*%
X107530000Y-122130000D03*
%TO.P,J11,3,Pin_3*%
%TO.N,ST 4*%
X104990000Y-122130000D03*
%TO.P,J11,4,Pin_4*%
%TO.N,ST 3*%
X102450000Y-122130000D03*
%TO.P,J11,5,Pin_5*%
%TO.N,ST 2*%
X99910000Y-122130000D03*
%TO.P,J11,6,Pin_6*%
%TO.N,ST 1*%
X97370000Y-122130000D03*
%TD*%
D14*
%TO.P,J8,1,1*%
%TO.N,/ADC/3.3V*%
X160100000Y-103558300D03*
D15*
%TO.P,J8,2,2*%
%TO.N,/ADC/Signal 2*%
X160100000Y-107058300D03*
%TO.P,J8,3,3*%
%TO.N,GND*%
X160100000Y-110558300D03*
%TD*%
D14*
%TO.P,J9,1,1*%
%TO.N,/ADC/3.3V*%
X160100000Y-90279200D03*
D15*
%TO.P,J9,2,2*%
%TO.N,/ADC/Signal 3*%
X160100000Y-93779200D03*
%TO.P,J9,3,3*%
%TO.N,GND*%
X160100000Y-97279200D03*
%TD*%
D12*
%TO.P,J1,1,Pin_1*%
%TO.N,SCL*%
X144860000Y-125800000D03*
D13*
%TO.P,J1,2,Pin_2*%
%TO.N,SDA*%
X147400000Y-125800000D03*
%TD*%
D14*
%TO.P,J16,1,1*%
%TO.N,GND*%
X134000000Y-97162500D03*
D15*
%TO.P,J16,2,2*%
%TO.N,Net-(J16-Pad2)*%
X134000000Y-93662500D03*
%TO.P,J16,3,3*%
%TO.N,5V*%
X134000000Y-90162500D03*
%TD*%
D17*
%TO.P,D1,1*%
%TO.N,GND*%
X132750000Y-102400000D03*
%TO.P,D1,2*%
%TO.N,Net-(D1-Pad2)*%
X134450000Y-102400000D03*
%TD*%
D18*
%TO.P,SW1,1,A*%
%TO.N,GND*%
X132500000Y-79800000D03*
D19*
%TO.P,SW1,2,B*%
%TO.N,/ADC/3.3V*%
X130000000Y-79800000D03*
%TO.P,SW1,3,C*%
%TO.N,3.3V*%
X127500000Y-79800000D03*
%TO.P,SW1,4,A*%
%TO.N,5V*%
X127500000Y-76500000D03*
%TO.P,SW1,5,B*%
%TO.N,/SchmittTrigger(74LV14)/5V*%
X130000000Y-76500000D03*
%TO.P,SW1,6,C*%
%TO.N,GND*%
X132500000Y-76500000D03*
%TD*%
D14*
%TO.P,J13,1,1*%
%TO.N,GND*%
X163100000Y-140162500D03*
D15*
%TO.P,J13,2,2*%
%TO.N,Net-(J13-Pad2)*%
X163100000Y-136662500D03*
%TO.P,J13,3,3*%
%TO.N,/SchmittTrigger(74LV14)/5V*%
X163100000Y-133162500D03*
%TD*%
D14*
%TO.P,J12,1,1*%
%TO.N,GND*%
X150600000Y-140162500D03*
D15*
%TO.P,J12,2,2*%
%TO.N,Net-(J12-Pad2)*%
X150600000Y-136662500D03*
%TO.P,J12,3,3*%
%TO.N,/SchmittTrigger(74LV14)/5V*%
X150600000Y-133162500D03*
%TD*%
D20*
%TO.P,U2,1*%
%TO.N,Net-(J2-Pad2)*%
X143125000Y-112700000D03*
D21*
%TO.P,U2,2*%
%TO.N,ST 1*%
X140585000Y-112700000D03*
%TO.P,U2,3*%
%TO.N,Net-(J3-Pad2)*%
X138045000Y-112700000D03*
%TO.P,U2,4*%
%TO.N,ST 2*%
X135505000Y-112700000D03*
%TO.P,U2,5*%
%TO.N,Net-(J4-Pad2)*%
X132965000Y-112700000D03*
%TO.P,U2,6*%
%TO.N,ST 3*%
X130425000Y-112700000D03*
%TO.P,U2,7,GND*%
%TO.N,GND*%
X127885000Y-112700000D03*
%TO.P,U2,8*%
%TO.N,ST 4*%
X127885000Y-120320000D03*
%TO.P,U2,9*%
%TO.N,Net-(J5-Pad2)*%
X130425000Y-120320000D03*
%TO.P,U2,10*%
%TO.N,ST 5*%
X132965000Y-120320000D03*
%TO.P,U2,11*%
%TO.N,Net-(J12-Pad2)*%
X135505000Y-120320000D03*
%TO.P,U2,12*%
%TO.N,ST 6*%
X138045000Y-120320000D03*
%TO.P,U2,13*%
%TO.N,Net-(J13-Pad2)*%
X140585000Y-120320000D03*
%TO.P,U2,14,3.3V*%
%TO.N,/SchmittTrigger(74LV14)/5V*%
X143125000Y-120320000D03*
%TD*%
D14*
%TO.P,J2,1,1*%
%TO.N,GND*%
X138100000Y-140162500D03*
D15*
%TO.P,J2,2,2*%
%TO.N,Net-(J2-Pad2)*%
X138100000Y-136662500D03*
%TO.P,J2,3,3*%
%TO.N,/SchmittTrigger(74LV14)/5V*%
X138100000Y-133162500D03*
%TD*%
D22*
%TO.P,C2,1*%
%TO.N,/ADC/3.3V*%
X120300000Y-117475000D03*
%TO.P,C2,2*%
%TO.N,GND*%
X120300000Y-114525000D03*
%TD*%
D14*
%TO.P,J5,1,1*%
%TO.N,GND*%
X100600000Y-140162500D03*
D15*
%TO.P,J5,2,2*%
%TO.N,Net-(J5-Pad2)*%
X100600000Y-136662500D03*
%TO.P,J5,3,3*%
%TO.N,/SchmittTrigger(74LV14)/5V*%
X100600000Y-133162500D03*
%TD*%
D14*
%TO.P,J17,1,1*%
%TO.N,GND*%
X147500000Y-97162500D03*
D15*
%TO.P,J17,2,2*%
%TO.N,Net-(J17-Pad2)*%
X147500000Y-93662500D03*
%TO.P,J17,3,3*%
%TO.N,5V*%
X147500000Y-90162500D03*
%TD*%
D23*
%TO.P,R3,1*%
%TO.N,/SchmittTrigger(74LV14)/5V*%
X140237500Y-102400000D03*
%TO.P,R3,2*%
%TO.N,Net-(D1-Pad2)*%
X143162500Y-102400000D03*
%TD*%
D14*
%TO.P,J18,1,1*%
%TO.N,Net-(J16-Pad2)*%
X148162500Y-77900000D03*
D15*
%TO.P,J18,2,2*%
%TO.N,Net-(J17-Pad2)*%
X144662500Y-77900000D03*
%TO.P,J18,3,3*%
%TO.N,GND*%
X141162500Y-77900000D03*
%TD*%
D24*
%TO.N,GND*%
X122000000Y-113000000D03*
X118000000Y-114000000D03*
X93611585Y-104388415D03*
X128000000Y-111000000D03*
X115964835Y-116035165D03*
X87000000Y-125000000D03*
X89024000Y-124859047D03*
X133000000Y-101000000D03*
X95000000Y-99000000D03*
X97000000Y-100000000D03*
X88000000Y-87000000D03*
X94000000Y-98000000D03*
X95000000Y-94000000D03*
X87009900Y-113000000D03*
X94000000Y-118000000D03*
%TO.N,Net-(J16-Pad2)*%
X145486500Y-90833400D03*
%TO.N,Net-(J12-Pad2)*%
X137134200Y-134828300D03*
%TO.N,ST 5*%
X103813100Y-101958300D03*
%TO.N,/SchmittTrigger(74LV14)/5V*%
X141639200Y-104990000D03*
%TO.N,/ADC/Signal 2*%
X156187700Y-117653200D03*
%TO.N,/ADC/Signal 4*%
X153278000Y-113909300D03*
%TO.N,ST 6*%
X101297000Y-109156100D03*
%TO.N,ST 2*%
X86409900Y-122828600D03*
X136439800Y-125007600D03*
%TO.N,ST 3*%
X129435300Y-122733200D03*
X86409900Y-113909300D03*
X101356800Y-114802600D03*
%TO.N,ST 1*%
X138729500Y-122828600D03*
%TO.N,SDA*%
X100903400Y-113909300D03*
%TO.N,SCL*%
X118360000Y-125800100D03*
X114663500Y-114837900D03*
%TO.N,ST 4*%
X109632500Y-119623600D03*
X107193800Y-81205200D03*
%TO.N,Net-(J5-Pad2)*%
X124541400Y-134313300D03*
%TO.N,5V*%
X118157200Y-127182000D03*
%TO.N,3.3V*%
X92174300Y-78127800D03*
%TD*%
D25*
%TO.N,GND*%
X121825000Y-113000000D02*
X122000000Y-113000000D01*
X120300000Y-114525000D02*
X121825000Y-113000000D01*
X118525000Y-114525000D02*
X118000000Y-114000000D01*
X120300000Y-114525000D02*
X118525000Y-114525000D01*
X90971585Y-104388415D02*
X93611585Y-104388415D01*
X89600000Y-105760000D02*
X90971585Y-104388415D01*
X127885000Y-111115000D02*
X128000000Y-111000000D01*
X127885000Y-112700000D02*
X127885000Y-111115000D01*
X115430000Y-116570000D02*
X115964835Y-116035165D01*
X115430000Y-118030000D02*
X115430000Y-116570000D01*
X89024000Y-124859047D02*
X88883047Y-125000000D01*
X88883047Y-125000000D02*
X87000000Y-125000000D01*
X132750000Y-101250000D02*
X133000000Y-101000000D01*
X132750000Y-102400000D02*
X132750000Y-101250000D01*
X96000000Y-100000000D02*
X95000000Y-99000000D01*
X97000000Y-100000000D02*
X96000000Y-100000000D01*
X95000000Y-99000000D02*
X94000000Y-99000000D01*
X88620000Y-87000000D02*
X88000000Y-87000000D01*
X89600000Y-87980000D02*
X88620000Y-87000000D01*
X93860000Y-98140000D02*
X94000000Y-98000000D01*
X92140000Y-98140000D02*
X93860000Y-98140000D01*
X94790000Y-94210000D02*
X95000000Y-94000000D01*
X90750000Y-94210000D02*
X94790000Y-94210000D01*
X89600000Y-93060000D02*
X90750000Y-94210000D01*
X87389900Y-113380000D02*
X87009900Y-113000000D01*
X89600000Y-113380000D02*
X87389900Y-113380000D01*
X93540000Y-118460000D02*
X94000000Y-118000000D01*
X92140000Y-118460000D02*
X93540000Y-118460000D01*
%TO.N,Net-(J16-Pad2)*%
X142657400Y-93662500D02*
X145486500Y-90833400D01*
X134000000Y-93662500D02*
X142657400Y-93662500D01*
%TO.N,Net-(J13-Pad2)*%
X141686700Y-120548300D02*
X141686700Y-120320000D01*
X143533700Y-122395300D02*
X141686700Y-120548300D01*
X154248800Y-122395300D02*
X143533700Y-122395300D01*
X164452400Y-132598900D02*
X154248800Y-122395300D01*
X164452400Y-135310100D02*
X164452400Y-132598900D01*
X163100000Y-136662500D02*
X164452400Y-135310100D01*
X140585000Y-120320000D02*
X141686700Y-120320000D01*
%TO.N,Net-(J12-Pad2)*%
X148765800Y-134828300D02*
X150600000Y-136662500D01*
X137134200Y-134828300D02*
X148765800Y-134828300D01*
%TO.N,ST 5*%
X102889800Y-101035000D02*
X103813100Y-101958300D01*
X93646700Y-101035000D02*
X102889800Y-101035000D01*
X93291700Y-100680000D02*
X93646700Y-101035000D01*
X92140000Y-100680000D02*
X93291700Y-100680000D01*
X108681700Y-121315500D02*
X108681700Y-122130000D01*
X109018900Y-120978300D02*
X108681700Y-121315500D01*
X126783300Y-120978300D02*
X109018900Y-120978300D01*
X127245200Y-121440200D02*
X126783300Y-120978300D01*
X130880800Y-121440200D02*
X127245200Y-121440200D01*
X131863300Y-120457700D02*
X130880800Y-121440200D01*
X131863300Y-120320000D02*
X131863300Y-120457700D01*
X132965000Y-120320000D02*
X131863300Y-120320000D01*
X107530000Y-122130000D02*
X108681700Y-122130000D01*
%TO.N,Net-(D1-Pad2)*%
X134863100Y-101185200D02*
X134450000Y-101598300D01*
X141947700Y-101185200D02*
X134863100Y-101185200D01*
X143162500Y-102400000D02*
X141947700Y-101185200D01*
X134450000Y-102400000D02*
X134450000Y-101598300D01*
%TO.N,/SchmittTrigger(74LV14)/5V*%
X141639200Y-103801700D02*
X141639200Y-104990000D01*
X140237500Y-102400000D02*
X141639200Y-103801700D01*
X100600000Y-133162500D02*
X113100000Y-133162500D01*
X138100000Y-133162500D02*
X125600000Y-133162500D01*
X150600000Y-133162500D02*
X138100000Y-133162500D01*
X163100000Y-133162500D02*
X150600000Y-133162500D01*
X137425500Y-132488000D02*
X138100000Y-133162500D01*
X113774500Y-132488000D02*
X137425500Y-132488000D01*
X113100000Y-133162500D02*
X113774500Y-132488000D01*
%TO.N,/ADC/3.3V*%
X156496600Y-79251700D02*
X158748300Y-77000000D01*
X140602600Y-79251700D02*
X156496600Y-79251700D01*
X140109300Y-78758400D02*
X140602600Y-79251700D01*
X131041600Y-78758400D02*
X140109300Y-78758400D01*
X130000000Y-79800000D02*
X131041600Y-78758400D01*
X160100000Y-77000000D02*
X158748300Y-77000000D01*
X160100000Y-116837500D02*
X158748300Y-116837500D01*
X115430000Y-114651800D02*
X115430000Y-113730000D01*
X118253200Y-117475000D02*
X115430000Y-114651800D01*
X120300000Y-117475000D02*
X118253200Y-117475000D01*
X99025000Y-102305000D02*
X99025000Y-103456700D01*
X98737100Y-103456700D02*
X99025000Y-103456700D01*
X97852200Y-104341600D02*
X98737100Y-103456700D01*
X97852200Y-105372200D02*
X97852200Y-104341600D01*
X101034400Y-108554400D02*
X97852200Y-105372200D01*
X111188100Y-108554400D02*
X101034400Y-108554400D01*
X115430000Y-112796300D02*
X111188100Y-108554400D01*
X115430000Y-113730000D02*
X115430000Y-112796300D01*
X120937500Y-116837500D02*
X120300000Y-117475000D01*
X158748300Y-116837500D02*
X120937500Y-116837500D01*
%TO.N,/ADC/Signal 2*%
X155424600Y-118416300D02*
X156187700Y-117653200D01*
X116816300Y-118416300D02*
X155424600Y-118416300D01*
X116430000Y-118030000D02*
X116816300Y-118416300D01*
%TO.N,/ADC/Signal 1*%
X115930000Y-118030000D02*
X115930000Y-118881700D01*
X158644200Y-118881700D02*
X160100000Y-120337500D01*
X115930000Y-118881700D02*
X158644200Y-118881700D01*
%TO.N,/ADC/Signal 3*%
X123199300Y-106109000D02*
X116430000Y-112878300D01*
X147770200Y-106109000D02*
X123199300Y-106109000D01*
X160100000Y-93779200D02*
X147770200Y-106109000D01*
X116430000Y-113730000D02*
X116430000Y-112878300D01*
%TO.N,/ADC/Signal 4*%
X115930000Y-113730000D02*
X115930000Y-114581700D01*
X116752100Y-115403800D02*
X115930000Y-114581700D01*
X139439300Y-115403800D02*
X116752100Y-115403800D01*
X141686700Y-113156400D02*
X139439300Y-115403800D01*
X141686700Y-112082000D02*
X141686700Y-113156400D01*
X142170400Y-111598300D02*
X141686700Y-112082000D01*
X144050000Y-111598300D02*
X142170400Y-111598300D01*
X146360900Y-113909200D02*
X144050000Y-111598300D01*
X146360900Y-113909300D02*
X146360900Y-113909200D01*
X153278000Y-113909300D02*
X146360900Y-113909300D01*
%TO.N,ST 6*%
X138045000Y-120320000D02*
X136943300Y-120320000D01*
X99227800Y-109156100D02*
X93291700Y-103220000D01*
X101297000Y-109156100D02*
X99227800Y-109156100D01*
X92140000Y-103220000D02*
X93291700Y-103220000D01*
X135271000Y-122130000D02*
X110070000Y-122130000D01*
X136943300Y-120457700D02*
X135271000Y-122130000D01*
X136943300Y-120320000D02*
X136943300Y-120457700D01*
%TO.N,ST 2*%
X99910000Y-122130000D02*
X101061700Y-122130000D01*
X98590400Y-125007600D02*
X95677700Y-122094800D01*
X136439800Y-125007600D02*
X98590400Y-125007600D01*
X96844500Y-120928000D02*
X95677700Y-122094800D01*
X100147600Y-120928000D02*
X96844500Y-120928000D01*
X101061700Y-121842100D02*
X100147600Y-120928000D01*
X101061700Y-122130000D02*
X101061700Y-121842100D01*
X86864000Y-122374500D02*
X86409900Y-122828600D01*
X95398000Y-122374500D02*
X86864000Y-122374500D01*
X95677700Y-122094800D02*
X95398000Y-122374500D01*
%TO.N,COM 3*%
X106418300Y-85440000D02*
X115648300Y-94670000D01*
X92140000Y-85440000D02*
X106418300Y-85440000D01*
X116800000Y-94670000D02*
X115648300Y-94670000D01*
%TO.N,IMU INT*%
X108958300Y-90520000D02*
X115648300Y-97210000D01*
X92140000Y-90520000D02*
X108958300Y-90520000D01*
X116800000Y-97210000D02*
X115648300Y-97210000D01*
%TO.N,ST 3*%
X128882500Y-123286000D02*
X129435300Y-122733200D01*
X104469800Y-123286000D02*
X128882500Y-123286000D01*
X103601700Y-122417900D02*
X104469800Y-123286000D01*
X103601700Y-122130000D02*
X103601700Y-122417900D01*
X102450000Y-122130000D02*
X103601700Y-122130000D01*
X101204200Y-114650000D02*
X101356800Y-114802600D01*
X87150600Y-114650000D02*
X101204200Y-114650000D01*
X86409900Y-113909300D02*
X87150600Y-114650000D01*
%TO.N,ADC ALERT*%
X97113400Y-117178300D02*
X114930000Y-117178300D01*
X93291700Y-121000000D02*
X97113400Y-117178300D01*
X92140000Y-121000000D02*
X93291700Y-121000000D01*
X114930000Y-118030000D02*
X114930000Y-117178300D01*
%TO.N,ST 1*%
X137826600Y-123731500D02*
X138729500Y-122828600D01*
X99835300Y-123731500D02*
X137826600Y-123731500D01*
X98521700Y-122417900D02*
X99835300Y-123731500D01*
X98521700Y-122130000D02*
X98521700Y-122417900D01*
X97370000Y-122130000D02*
X98521700Y-122130000D01*
%TO.N,SDA*%
X101934400Y-112878300D02*
X100903400Y-113909300D01*
X114930000Y-112878300D02*
X101934400Y-112878300D01*
X114930000Y-113730000D02*
X114930000Y-112878300D01*
X147400000Y-125800000D02*
X146248300Y-125800000D01*
X92140000Y-126080000D02*
X93291700Y-126080000D01*
X93792000Y-126580300D02*
X93291700Y-126080000D01*
X118406400Y-126580300D02*
X93792000Y-126580300D01*
X118801800Y-126975700D02*
X118406400Y-126580300D01*
X145864400Y-126975700D02*
X118801800Y-126975700D01*
X146248300Y-126591800D02*
X145864400Y-126975700D01*
X146248300Y-125800000D02*
X146248300Y-126591800D01*
%TO.N,SCL*%
X92140000Y-123540000D02*
X93291700Y-123540000D01*
X114430000Y-114604400D02*
X114430000Y-113730000D01*
X114663500Y-114837900D02*
X114430000Y-114604400D01*
X118360000Y-125800000D02*
X118360000Y-125800100D01*
X144860000Y-125800000D02*
X118360000Y-125800000D01*
X95551700Y-125800000D02*
X93291700Y-123540000D01*
X118360000Y-125800000D02*
X95551700Y-125800000D01*
%TO.N,IMU nRESET*%
X96958300Y-93060000D02*
X97873300Y-92145000D01*
X92140000Y-93060000D02*
X96958300Y-93060000D01*
X99025000Y-92145000D02*
X97873300Y-92145000D01*
%TO.N,ST 4*%
X104990000Y-122130000D02*
X106141700Y-122130000D01*
X90751700Y-80628500D02*
X90751700Y-80360000D01*
X91647000Y-81523800D02*
X90751700Y-80628500D01*
X106875200Y-81523800D02*
X91647000Y-81523800D01*
X107193800Y-81205200D02*
X106875200Y-81523800D01*
X89600000Y-80360000D02*
X90751700Y-80360000D01*
X127885000Y-120320000D02*
X126783300Y-120320000D01*
X109632500Y-120320000D02*
X126783300Y-120320000D01*
X107683200Y-120320000D02*
X109632500Y-120320000D01*
X106141700Y-121861500D02*
X107683200Y-120320000D01*
X106141700Y-122130000D02*
X106141700Y-121861500D01*
X109632500Y-120320000D02*
X109632500Y-119623600D01*
%TO.N,Net-(J5-Pad2)*%
X102350000Y-134912500D02*
X100600000Y-136662500D01*
X122903300Y-134912500D02*
X102350000Y-134912500D01*
X123502500Y-134313300D02*
X122903300Y-134912500D01*
X124541400Y-134313300D02*
X123502500Y-134313300D01*
%TO.N,5V*%
X147500000Y-90162500D02*
X134000000Y-90162500D01*
X90751700Y-126348500D02*
X90751700Y-126080000D01*
X91642200Y-127239000D02*
X90751700Y-126348500D01*
X118100200Y-127239000D02*
X91642200Y-127239000D01*
X118157200Y-127182000D02*
X118100200Y-127239000D01*
X89600000Y-126080000D02*
X90751700Y-126080000D01*
%TO.N,3.3V*%
X120400000Y-79800000D02*
X116110000Y-75510000D01*
X127500000Y-79800000D02*
X120400000Y-79800000D01*
X113492200Y-78127800D02*
X116110000Y-75510000D01*
X92174300Y-78127800D02*
X113492200Y-78127800D01*
%TD*%
M02*
