M48
; DRILL file {KiCad 8.0.5} date 2024-10-20T15:20:31-0400
; FORMAT={-:-/ absolute / inch / decimal}
; #@! TF.CreationDate,2024-10-20T15:20:31-04:00
; #@! TF.GenerationSoftware,Kicad,Pcbnew,8.0.5
; #@! TF.FileFunction,Plated,1,2,PTH
FMAT,2
INCH
; #@! TA.AperFunction,Plated,PTH,ViaDrill
T1C0.0118
; #@! TA.AperFunction,Plated,PTH,ComponentDrill
T2C0.0315
; #@! TA.AperFunction,Plated,PTH,ComponentDrill
T3C0.0394
; #@! TA.AperFunction,Plated,PTH,ComponentDrill
T4C0.0551
%
G90
G05
T1
X4.395Y-4.675
X4.72Y-5.15
X4.83Y-3.915
X4.875Y-4.615
X5.03Y-4.77
X5.16Y-4.6538
X5.445Y-4.36
X5.455Y-4.665
X5.47Y-4.5126
X5.515Y-4.615
X5.525Y-4.735
X5.555Y-4.355
X5.695Y-3.775
X5.8Y-4.45
X5.87Y-3.805
X5.905Y-4.035
X5.95Y-3.95
X6.065Y-4.215
X6.165Y-4.5328
T2
X5.3551Y-5.0655
X5.3551Y-5.3655
X5.4551Y-5.0655
X5.4551Y-5.3655
X5.5551Y-5.0655
X5.5551Y-5.3655
X5.6551Y-5.0655
X5.6551Y-5.3655
X5.7551Y-5.0655
X5.7551Y-5.3655
X5.8551Y-5.0655
X5.8551Y-5.3655
X5.9551Y-5.0655
X5.9551Y-5.3655
T3
X4.4882Y-3.8803
X4.4882Y-3.9803
X4.4882Y-4.0803
X4.4882Y-4.1803
X4.4882Y-4.2803
X4.4882Y-4.3803
X4.4882Y-4.4803
X4.4882Y-4.5803
X4.4882Y-4.6803
X4.4882Y-4.7803
X4.4882Y-4.8803
X4.4882Y-4.9803
X4.4882Y-5.0803
X4.4882Y-5.1803
X4.4882Y-5.2803
X4.4882Y-5.3803
X4.4882Y-5.4803
X4.4882Y-5.5803
X4.4882Y-5.6803
X4.4882Y-5.7803
X4.5882Y-3.8803
X4.5882Y-3.9803
X4.5882Y-4.0803
X4.5882Y-4.1803
X4.5882Y-4.2803
X4.5882Y-4.3803
X4.5882Y-4.4803
X4.5882Y-4.5803
X4.5882Y-4.6803
X4.5882Y-4.7803
X4.5882Y-4.8803
X4.5882Y-4.9803
X4.5882Y-5.0803
X4.5882Y-5.1803
X4.5882Y-5.2803
X4.5882Y-5.3803
X4.5882Y-5.4803
X4.5882Y-5.5803
X4.5882Y-5.6803
X4.5882Y-5.7803
T4
X4.9646Y-5.7938
X4.9646Y-5.9316
X4.9646Y-6.0694
X5.3911Y-5.7938
X5.3911Y-5.9316
X5.3911Y-6.0694
X5.8176Y-5.7938
X5.8176Y-5.9316
X5.8176Y-6.0694
X6.2441Y-5.7938
X6.2441Y-5.9316
X6.2441Y-6.0694
X6.5748Y-3.7992
X6.5748Y-3.937
X6.5748Y-4.0748
X6.5748Y-4.3963
X6.5748Y-4.5341
X6.5748Y-4.6719
X6.5748Y-4.9934
X6.5748Y-5.1312
X6.5748Y-5.269
X6.5748Y-5.5906
X6.5748Y-5.7283
X6.5748Y-5.8661
M30
