%TF.GenerationSoftware,KiCad,Pcbnew,8.0.5*%
%TF.CreationDate,2024-10-20T15:20:27-04:00*%
%TF.ProjectId,Jetson_Extension_Board,4a657473-6f6e-45f4-9578-74656e73696f,rev?*%
%TF.SameCoordinates,Original*%
%TF.FileFunction,Legend,Top*%
%TF.FilePolarity,Positive*%
%FSLAX46Y46*%
G04 Gerber Fmt 4.6, Leading zero omitted, Abs format (unit mm)*
G04 Created by KiCad (PCBNEW 8.0.5) date 2024-10-20 15:20:27*
%MOMM*%
%LPD*%
G01*
G04 APERTURE LIST*
%ADD10C,0.100000*%
%ADD11C,0.120000*%
%ADD12C,0.150000*%
%ADD13C,0.127000*%
%ADD14C,0.200000*%
%ADD15C,0.000000*%
G04 APERTURE END LIST*
D10*
X172049169Y-130287800D02*
X172163455Y-130325895D01*
X172163455Y-130325895D02*
X172353931Y-130325895D01*
X172353931Y-130325895D02*
X172430122Y-130287800D01*
X172430122Y-130287800D02*
X172468217Y-130249704D01*
X172468217Y-130249704D02*
X172506312Y-130173514D01*
X172506312Y-130173514D02*
X172506312Y-130097323D01*
X172506312Y-130097323D02*
X172468217Y-130021133D01*
X172468217Y-130021133D02*
X172430122Y-129983038D01*
X172430122Y-129983038D02*
X172353931Y-129944942D01*
X172353931Y-129944942D02*
X172201550Y-129906847D01*
X172201550Y-129906847D02*
X172125360Y-129868752D01*
X172125360Y-129868752D02*
X172087265Y-129830657D01*
X172087265Y-129830657D02*
X172049169Y-129754466D01*
X172049169Y-129754466D02*
X172049169Y-129678276D01*
X172049169Y-129678276D02*
X172087265Y-129602085D01*
X172087265Y-129602085D02*
X172125360Y-129563990D01*
X172125360Y-129563990D02*
X172201550Y-129525895D01*
X172201550Y-129525895D02*
X172392027Y-129525895D01*
X172392027Y-129525895D02*
X172506312Y-129563990D01*
X172849170Y-130325895D02*
X172849170Y-129792561D01*
X172849170Y-129525895D02*
X172811074Y-129563990D01*
X172811074Y-129563990D02*
X172849170Y-129602085D01*
X172849170Y-129602085D02*
X172887265Y-129563990D01*
X172887265Y-129563990D02*
X172849170Y-129525895D01*
X172849170Y-129525895D02*
X172849170Y-129602085D01*
X173572979Y-129792561D02*
X173572979Y-130440180D01*
X173572979Y-130440180D02*
X173534884Y-130516371D01*
X173534884Y-130516371D02*
X173496788Y-130554466D01*
X173496788Y-130554466D02*
X173420598Y-130592561D01*
X173420598Y-130592561D02*
X173306312Y-130592561D01*
X173306312Y-130592561D02*
X173230122Y-130554466D01*
X173572979Y-130287800D02*
X173496788Y-130325895D01*
X173496788Y-130325895D02*
X173344407Y-130325895D01*
X173344407Y-130325895D02*
X173268217Y-130287800D01*
X173268217Y-130287800D02*
X173230122Y-130249704D01*
X173230122Y-130249704D02*
X173192026Y-130173514D01*
X173192026Y-130173514D02*
X173192026Y-129944942D01*
X173192026Y-129944942D02*
X173230122Y-129868752D01*
X173230122Y-129868752D02*
X173268217Y-129830657D01*
X173268217Y-129830657D02*
X173344407Y-129792561D01*
X173344407Y-129792561D02*
X173496788Y-129792561D01*
X173496788Y-129792561D02*
X173572979Y-129830657D01*
X174525360Y-129602085D02*
X174563456Y-129563990D01*
X174563456Y-129563990D02*
X174639646Y-129525895D01*
X174639646Y-129525895D02*
X174830122Y-129525895D01*
X174830122Y-129525895D02*
X174906313Y-129563990D01*
X174906313Y-129563990D02*
X174944408Y-129602085D01*
X174944408Y-129602085D02*
X174982503Y-129678276D01*
X174982503Y-129678276D02*
X174982503Y-129754466D01*
X174982503Y-129754466D02*
X174944408Y-129868752D01*
X174944408Y-129868752D02*
X174487265Y-130325895D01*
X174487265Y-130325895D02*
X174982503Y-130325895D01*
X120334741Y-152931990D02*
X120287122Y-152893895D01*
X120287122Y-152893895D02*
X120215693Y-152893895D01*
X120215693Y-152893895D02*
X120144265Y-152931990D01*
X120144265Y-152931990D02*
X120096646Y-153008180D01*
X120096646Y-153008180D02*
X120072836Y-153084371D01*
X120072836Y-153084371D02*
X120049027Y-153236752D01*
X120049027Y-153236752D02*
X120049027Y-153351038D01*
X120049027Y-153351038D02*
X120072836Y-153503419D01*
X120072836Y-153503419D02*
X120096646Y-153579609D01*
X120096646Y-153579609D02*
X120144265Y-153655800D01*
X120144265Y-153655800D02*
X120215693Y-153693895D01*
X120215693Y-153693895D02*
X120263312Y-153693895D01*
X120263312Y-153693895D02*
X120334741Y-153655800D01*
X120334741Y-153655800D02*
X120358550Y-153617704D01*
X120358550Y-153617704D02*
X120358550Y-153351038D01*
X120358550Y-153351038D02*
X120263312Y-153351038D01*
X120572836Y-153693895D02*
X120572836Y-152893895D01*
X120572836Y-152893895D02*
X120858550Y-153693895D01*
X120858550Y-153693895D02*
X120858550Y-152893895D01*
X121096646Y-153693895D02*
X121096646Y-152893895D01*
X121096646Y-152893895D02*
X121215694Y-152893895D01*
X121215694Y-152893895D02*
X121287122Y-152931990D01*
X121287122Y-152931990D02*
X121334741Y-153008180D01*
X121334741Y-153008180D02*
X121358551Y-153084371D01*
X121358551Y-153084371D02*
X121382360Y-153236752D01*
X121382360Y-153236752D02*
X121382360Y-153351038D01*
X121382360Y-153351038D02*
X121358551Y-153503419D01*
X121358551Y-153503419D02*
X121334741Y-153579609D01*
X121334741Y-153579609D02*
X121287122Y-153655800D01*
X121287122Y-153655800D02*
X121215694Y-153693895D01*
X121215694Y-153693895D02*
X121096646Y-153693895D01*
X161257704Y-125981734D02*
X161257704Y-125505544D01*
X161543419Y-126076972D02*
X160543419Y-125743639D01*
X160543419Y-125743639D02*
X161543419Y-125410306D01*
X161543419Y-125076972D02*
X160543419Y-125076972D01*
X160543419Y-125076972D02*
X160543419Y-124838877D01*
X160543419Y-124838877D02*
X160591038Y-124696020D01*
X160591038Y-124696020D02*
X160686276Y-124600782D01*
X160686276Y-124600782D02*
X160781514Y-124553163D01*
X160781514Y-124553163D02*
X160971990Y-124505544D01*
X160971990Y-124505544D02*
X161114847Y-124505544D01*
X161114847Y-124505544D02*
X161305323Y-124553163D01*
X161305323Y-124553163D02*
X161400561Y-124600782D01*
X161400561Y-124600782D02*
X161495800Y-124696020D01*
X161495800Y-124696020D02*
X161543419Y-124838877D01*
X161543419Y-124838877D02*
X161543419Y-125076972D01*
X161448180Y-123505544D02*
X161495800Y-123553163D01*
X161495800Y-123553163D02*
X161543419Y-123696020D01*
X161543419Y-123696020D02*
X161543419Y-123791258D01*
X161543419Y-123791258D02*
X161495800Y-123934115D01*
X161495800Y-123934115D02*
X161400561Y-124029353D01*
X161400561Y-124029353D02*
X161305323Y-124076972D01*
X161305323Y-124076972D02*
X161114847Y-124124591D01*
X161114847Y-124124591D02*
X160971990Y-124124591D01*
X160971990Y-124124591D02*
X160781514Y-124076972D01*
X160781514Y-124076972D02*
X160686276Y-124029353D01*
X160686276Y-124029353D02*
X160591038Y-123934115D01*
X160591038Y-123934115D02*
X160543419Y-123791258D01*
X160543419Y-123791258D02*
X160543419Y-123696020D01*
X160543419Y-123696020D02*
X160591038Y-123553163D01*
X160591038Y-123553163D02*
X160638657Y-123505544D01*
X161543419Y-122315067D02*
X160543419Y-122315067D01*
X160876752Y-121838877D02*
X161543419Y-121838877D01*
X160971990Y-121838877D02*
X160924371Y-121791258D01*
X160924371Y-121791258D02*
X160876752Y-121696020D01*
X160876752Y-121696020D02*
X160876752Y-121553163D01*
X160876752Y-121553163D02*
X160924371Y-121457925D01*
X160924371Y-121457925D02*
X161019609Y-121410306D01*
X161019609Y-121410306D02*
X161543419Y-121410306D01*
X160876752Y-120934115D02*
X161876752Y-120934115D01*
X160924371Y-120934115D02*
X160876752Y-120838877D01*
X160876752Y-120838877D02*
X160876752Y-120648401D01*
X160876752Y-120648401D02*
X160924371Y-120553163D01*
X160924371Y-120553163D02*
X160971990Y-120505544D01*
X160971990Y-120505544D02*
X161067228Y-120457925D01*
X161067228Y-120457925D02*
X161352942Y-120457925D01*
X161352942Y-120457925D02*
X161448180Y-120505544D01*
X161448180Y-120505544D02*
X161495800Y-120553163D01*
X161495800Y-120553163D02*
X161543419Y-120648401D01*
X161543419Y-120648401D02*
X161543419Y-120838877D01*
X161543419Y-120838877D02*
X161495800Y-120934115D01*
X160876752Y-119600782D02*
X161543419Y-119600782D01*
X160876752Y-120029353D02*
X161400561Y-120029353D01*
X161400561Y-120029353D02*
X161495800Y-119981734D01*
X161495800Y-119981734D02*
X161543419Y-119886496D01*
X161543419Y-119886496D02*
X161543419Y-119743639D01*
X161543419Y-119743639D02*
X161495800Y-119648401D01*
X161495800Y-119648401D02*
X161448180Y-119600782D01*
X160876752Y-119267448D02*
X160876752Y-118886496D01*
X160543419Y-119124591D02*
X161400561Y-119124591D01*
X161400561Y-119124591D02*
X161495800Y-119076972D01*
X161495800Y-119076972D02*
X161543419Y-118981734D01*
X161543419Y-118981734D02*
X161543419Y-118886496D01*
X161495800Y-118600781D02*
X161543419Y-118505543D01*
X161543419Y-118505543D02*
X161543419Y-118315067D01*
X161543419Y-118315067D02*
X161495800Y-118219829D01*
X161495800Y-118219829D02*
X161400561Y-118172210D01*
X161400561Y-118172210D02*
X161352942Y-118172210D01*
X161352942Y-118172210D02*
X161257704Y-118219829D01*
X161257704Y-118219829D02*
X161210085Y-118315067D01*
X161210085Y-118315067D02*
X161210085Y-118457924D01*
X161210085Y-118457924D02*
X161162466Y-118553162D01*
X161162466Y-118553162D02*
X161067228Y-118600781D01*
X161067228Y-118600781D02*
X161019609Y-118600781D01*
X161019609Y-118600781D02*
X160924371Y-118553162D01*
X160924371Y-118553162D02*
X160876752Y-118457924D01*
X160876752Y-118457924D02*
X160876752Y-118315067D01*
X160876752Y-118315067D02*
X160924371Y-118219829D01*
X161457312Y-102766990D02*
X161381122Y-102728895D01*
X161381122Y-102728895D02*
X161266836Y-102728895D01*
X161266836Y-102728895D02*
X161152550Y-102766990D01*
X161152550Y-102766990D02*
X161076360Y-102843180D01*
X161076360Y-102843180D02*
X161038265Y-102919371D01*
X161038265Y-102919371D02*
X161000169Y-103071752D01*
X161000169Y-103071752D02*
X161000169Y-103186038D01*
X161000169Y-103186038D02*
X161038265Y-103338419D01*
X161038265Y-103338419D02*
X161076360Y-103414609D01*
X161076360Y-103414609D02*
X161152550Y-103490800D01*
X161152550Y-103490800D02*
X161266836Y-103528895D01*
X161266836Y-103528895D02*
X161343027Y-103528895D01*
X161343027Y-103528895D02*
X161457312Y-103490800D01*
X161457312Y-103490800D02*
X161495408Y-103452704D01*
X161495408Y-103452704D02*
X161495408Y-103186038D01*
X161495408Y-103186038D02*
X161343027Y-103186038D01*
X161838265Y-103528895D02*
X161838265Y-102728895D01*
X161838265Y-102728895D02*
X162295408Y-103528895D01*
X162295408Y-103528895D02*
X162295408Y-102728895D01*
X162676360Y-103528895D02*
X162676360Y-102728895D01*
X162676360Y-102728895D02*
X162866836Y-102728895D01*
X162866836Y-102728895D02*
X162981122Y-102766990D01*
X162981122Y-102766990D02*
X163057312Y-102843180D01*
X163057312Y-102843180D02*
X163095407Y-102919371D01*
X163095407Y-102919371D02*
X163133503Y-103071752D01*
X163133503Y-103071752D02*
X163133503Y-103186038D01*
X163133503Y-103186038D02*
X163095407Y-103338419D01*
X163095407Y-103338419D02*
X163057312Y-103414609D01*
X163057312Y-103414609D02*
X162981122Y-103490800D01*
X162981122Y-103490800D02*
X162866836Y-103528895D01*
X162866836Y-103528895D02*
X162676360Y-103528895D01*
X119541027Y-150734800D02*
X119612455Y-150772895D01*
X119612455Y-150772895D02*
X119731503Y-150772895D01*
X119731503Y-150772895D02*
X119779122Y-150734800D01*
X119779122Y-150734800D02*
X119802931Y-150696704D01*
X119802931Y-150696704D02*
X119826741Y-150620514D01*
X119826741Y-150620514D02*
X119826741Y-150544323D01*
X119826741Y-150544323D02*
X119802931Y-150468133D01*
X119802931Y-150468133D02*
X119779122Y-150430038D01*
X119779122Y-150430038D02*
X119731503Y-150391942D01*
X119731503Y-150391942D02*
X119636265Y-150353847D01*
X119636265Y-150353847D02*
X119588646Y-150315752D01*
X119588646Y-150315752D02*
X119564836Y-150277657D01*
X119564836Y-150277657D02*
X119541027Y-150201466D01*
X119541027Y-150201466D02*
X119541027Y-150125276D01*
X119541027Y-150125276D02*
X119564836Y-150049085D01*
X119564836Y-150049085D02*
X119588646Y-150010990D01*
X119588646Y-150010990D02*
X119636265Y-149972895D01*
X119636265Y-149972895D02*
X119755312Y-149972895D01*
X119755312Y-149972895D02*
X119826741Y-150010990D01*
X120041026Y-150772895D02*
X120041026Y-150239561D01*
X120041026Y-149972895D02*
X120017217Y-150010990D01*
X120017217Y-150010990D02*
X120041026Y-150049085D01*
X120041026Y-150049085D02*
X120064836Y-150010990D01*
X120064836Y-150010990D02*
X120041026Y-149972895D01*
X120041026Y-149972895D02*
X120041026Y-150049085D01*
X120493407Y-150239561D02*
X120493407Y-150887180D01*
X120493407Y-150887180D02*
X120469597Y-150963371D01*
X120469597Y-150963371D02*
X120445788Y-151001466D01*
X120445788Y-151001466D02*
X120398169Y-151039561D01*
X120398169Y-151039561D02*
X120326740Y-151039561D01*
X120326740Y-151039561D02*
X120279121Y-151001466D01*
X120493407Y-150734800D02*
X120445788Y-150772895D01*
X120445788Y-150772895D02*
X120350550Y-150772895D01*
X120350550Y-150772895D02*
X120302931Y-150734800D01*
X120302931Y-150734800D02*
X120279121Y-150696704D01*
X120279121Y-150696704D02*
X120255312Y-150620514D01*
X120255312Y-150620514D02*
X120255312Y-150391942D01*
X120255312Y-150391942D02*
X120279121Y-150315752D01*
X120279121Y-150315752D02*
X120302931Y-150277657D01*
X120302931Y-150277657D02*
X120350550Y-150239561D01*
X120350550Y-150239561D02*
X120445788Y-150239561D01*
X120445788Y-150239561D02*
X120493407Y-150277657D01*
X121374359Y-150772895D02*
X121088645Y-150772895D01*
X121231502Y-150772895D02*
X121231502Y-149972895D01*
X121231502Y-149972895D02*
X121183883Y-150087180D01*
X121183883Y-150087180D02*
X121136264Y-150163371D01*
X121136264Y-150163371D02*
X121088645Y-150201466D01*
X172049169Y-145654800D02*
X172163455Y-145692895D01*
X172163455Y-145692895D02*
X172353931Y-145692895D01*
X172353931Y-145692895D02*
X172430122Y-145654800D01*
X172430122Y-145654800D02*
X172468217Y-145616704D01*
X172468217Y-145616704D02*
X172506312Y-145540514D01*
X172506312Y-145540514D02*
X172506312Y-145464323D01*
X172506312Y-145464323D02*
X172468217Y-145388133D01*
X172468217Y-145388133D02*
X172430122Y-145350038D01*
X172430122Y-145350038D02*
X172353931Y-145311942D01*
X172353931Y-145311942D02*
X172201550Y-145273847D01*
X172201550Y-145273847D02*
X172125360Y-145235752D01*
X172125360Y-145235752D02*
X172087265Y-145197657D01*
X172087265Y-145197657D02*
X172049169Y-145121466D01*
X172049169Y-145121466D02*
X172049169Y-145045276D01*
X172049169Y-145045276D02*
X172087265Y-144969085D01*
X172087265Y-144969085D02*
X172125360Y-144930990D01*
X172125360Y-144930990D02*
X172201550Y-144892895D01*
X172201550Y-144892895D02*
X172392027Y-144892895D01*
X172392027Y-144892895D02*
X172506312Y-144930990D01*
X172849170Y-145692895D02*
X172849170Y-145159561D01*
X172849170Y-144892895D02*
X172811074Y-144930990D01*
X172811074Y-144930990D02*
X172849170Y-144969085D01*
X172849170Y-144969085D02*
X172887265Y-144930990D01*
X172887265Y-144930990D02*
X172849170Y-144892895D01*
X172849170Y-144892895D02*
X172849170Y-144969085D01*
X173572979Y-145159561D02*
X173572979Y-145807180D01*
X173572979Y-145807180D02*
X173534884Y-145883371D01*
X173534884Y-145883371D02*
X173496788Y-145921466D01*
X173496788Y-145921466D02*
X173420598Y-145959561D01*
X173420598Y-145959561D02*
X173306312Y-145959561D01*
X173306312Y-145959561D02*
X173230122Y-145921466D01*
X173572979Y-145654800D02*
X173496788Y-145692895D01*
X173496788Y-145692895D02*
X173344407Y-145692895D01*
X173344407Y-145692895D02*
X173268217Y-145654800D01*
X173268217Y-145654800D02*
X173230122Y-145616704D01*
X173230122Y-145616704D02*
X173192026Y-145540514D01*
X173192026Y-145540514D02*
X173192026Y-145311942D01*
X173192026Y-145311942D02*
X173230122Y-145235752D01*
X173230122Y-145235752D02*
X173268217Y-145197657D01*
X173268217Y-145197657D02*
X173344407Y-145159561D01*
X173344407Y-145159561D02*
X173496788Y-145159561D01*
X173496788Y-145159561D02*
X173572979Y-145197657D01*
X174982503Y-145692895D02*
X174525360Y-145692895D01*
X174753932Y-145692895D02*
X174753932Y-144892895D01*
X174753932Y-144892895D02*
X174677741Y-145007180D01*
X174677741Y-145007180D02*
X174601551Y-145083371D01*
X174601551Y-145083371D02*
X174525360Y-145121466D01*
X172049169Y-100569800D02*
X172163455Y-100607895D01*
X172163455Y-100607895D02*
X172353931Y-100607895D01*
X172353931Y-100607895D02*
X172430122Y-100569800D01*
X172430122Y-100569800D02*
X172468217Y-100531704D01*
X172468217Y-100531704D02*
X172506312Y-100455514D01*
X172506312Y-100455514D02*
X172506312Y-100379323D01*
X172506312Y-100379323D02*
X172468217Y-100303133D01*
X172468217Y-100303133D02*
X172430122Y-100265038D01*
X172430122Y-100265038D02*
X172353931Y-100226942D01*
X172353931Y-100226942D02*
X172201550Y-100188847D01*
X172201550Y-100188847D02*
X172125360Y-100150752D01*
X172125360Y-100150752D02*
X172087265Y-100112657D01*
X172087265Y-100112657D02*
X172049169Y-100036466D01*
X172049169Y-100036466D02*
X172049169Y-99960276D01*
X172049169Y-99960276D02*
X172087265Y-99884085D01*
X172087265Y-99884085D02*
X172125360Y-99845990D01*
X172125360Y-99845990D02*
X172201550Y-99807895D01*
X172201550Y-99807895D02*
X172392027Y-99807895D01*
X172392027Y-99807895D02*
X172506312Y-99845990D01*
X172849170Y-100607895D02*
X172849170Y-100074561D01*
X172849170Y-99807895D02*
X172811074Y-99845990D01*
X172811074Y-99845990D02*
X172849170Y-99884085D01*
X172849170Y-99884085D02*
X172887265Y-99845990D01*
X172887265Y-99845990D02*
X172849170Y-99807895D01*
X172849170Y-99807895D02*
X172849170Y-99884085D01*
X173572979Y-100074561D02*
X173572979Y-100722180D01*
X173572979Y-100722180D02*
X173534884Y-100798371D01*
X173534884Y-100798371D02*
X173496788Y-100836466D01*
X173496788Y-100836466D02*
X173420598Y-100874561D01*
X173420598Y-100874561D02*
X173306312Y-100874561D01*
X173306312Y-100874561D02*
X173230122Y-100836466D01*
X173572979Y-100569800D02*
X173496788Y-100607895D01*
X173496788Y-100607895D02*
X173344407Y-100607895D01*
X173344407Y-100607895D02*
X173268217Y-100569800D01*
X173268217Y-100569800D02*
X173230122Y-100531704D01*
X173230122Y-100531704D02*
X173192026Y-100455514D01*
X173192026Y-100455514D02*
X173192026Y-100226942D01*
X173192026Y-100226942D02*
X173230122Y-100150752D01*
X173230122Y-100150752D02*
X173268217Y-100112657D01*
X173268217Y-100112657D02*
X173344407Y-100074561D01*
X173344407Y-100074561D02*
X173496788Y-100074561D01*
X173496788Y-100074561D02*
X173572979Y-100112657D01*
X174906313Y-100074561D02*
X174906313Y-100607895D01*
X174715837Y-99769800D02*
X174525360Y-100341228D01*
X174525360Y-100341228D02*
X175020599Y-100341228D01*
X129605693Y-102361419D02*
X129034265Y-102361419D01*
X129319979Y-102361419D02*
X129319979Y-101361419D01*
X129319979Y-101361419D02*
X129224741Y-101504276D01*
X129224741Y-101504276D02*
X129129503Y-101599514D01*
X129129503Y-101599514D02*
X129034265Y-101647133D01*
X130224741Y-101361419D02*
X130319979Y-101361419D01*
X130319979Y-101361419D02*
X130415217Y-101409038D01*
X130415217Y-101409038D02*
X130462836Y-101456657D01*
X130462836Y-101456657D02*
X130510455Y-101551895D01*
X130510455Y-101551895D02*
X130558074Y-101742371D01*
X130558074Y-101742371D02*
X130558074Y-101980466D01*
X130558074Y-101980466D02*
X130510455Y-102170942D01*
X130510455Y-102170942D02*
X130462836Y-102266180D01*
X130462836Y-102266180D02*
X130415217Y-102313800D01*
X130415217Y-102313800D02*
X130319979Y-102361419D01*
X130319979Y-102361419D02*
X130224741Y-102361419D01*
X130224741Y-102361419D02*
X130129503Y-102313800D01*
X130129503Y-102313800D02*
X130081884Y-102266180D01*
X130081884Y-102266180D02*
X130034265Y-102170942D01*
X130034265Y-102170942D02*
X129986646Y-101980466D01*
X129986646Y-101980466D02*
X129986646Y-101742371D01*
X129986646Y-101742371D02*
X130034265Y-101551895D01*
X130034265Y-101551895D02*
X130081884Y-101456657D01*
X130081884Y-101456657D02*
X130129503Y-101409038D01*
X130129503Y-101409038D02*
X130224741Y-101361419D01*
X131700931Y-101313800D02*
X130843789Y-102599514D01*
X132558074Y-102361419D02*
X131986646Y-102361419D01*
X132272360Y-102361419D02*
X132272360Y-101361419D01*
X132272360Y-101361419D02*
X132177122Y-101504276D01*
X132177122Y-101504276D02*
X132081884Y-101599514D01*
X132081884Y-101599514D02*
X131986646Y-101647133D01*
X133129503Y-101789990D02*
X133034265Y-101742371D01*
X133034265Y-101742371D02*
X132986646Y-101694752D01*
X132986646Y-101694752D02*
X132939027Y-101599514D01*
X132939027Y-101599514D02*
X132939027Y-101551895D01*
X132939027Y-101551895D02*
X132986646Y-101456657D01*
X132986646Y-101456657D02*
X133034265Y-101409038D01*
X133034265Y-101409038D02*
X133129503Y-101361419D01*
X133129503Y-101361419D02*
X133319979Y-101361419D01*
X133319979Y-101361419D02*
X133415217Y-101409038D01*
X133415217Y-101409038D02*
X133462836Y-101456657D01*
X133462836Y-101456657D02*
X133510455Y-101551895D01*
X133510455Y-101551895D02*
X133510455Y-101599514D01*
X133510455Y-101599514D02*
X133462836Y-101694752D01*
X133462836Y-101694752D02*
X133415217Y-101742371D01*
X133415217Y-101742371D02*
X133319979Y-101789990D01*
X133319979Y-101789990D02*
X133129503Y-101789990D01*
X133129503Y-101789990D02*
X133034265Y-101837609D01*
X133034265Y-101837609D02*
X132986646Y-101885228D01*
X132986646Y-101885228D02*
X132939027Y-101980466D01*
X132939027Y-101980466D02*
X132939027Y-102170942D01*
X132939027Y-102170942D02*
X132986646Y-102266180D01*
X132986646Y-102266180D02*
X133034265Y-102313800D01*
X133034265Y-102313800D02*
X133129503Y-102361419D01*
X133129503Y-102361419D02*
X133319979Y-102361419D01*
X133319979Y-102361419D02*
X133415217Y-102313800D01*
X133415217Y-102313800D02*
X133462836Y-102266180D01*
X133462836Y-102266180D02*
X133510455Y-102170942D01*
X133510455Y-102170942D02*
X133510455Y-101980466D01*
X133510455Y-101980466D02*
X133462836Y-101885228D01*
X133462836Y-101885228D02*
X133415217Y-101837609D01*
X133415217Y-101837609D02*
X133319979Y-101789990D01*
X134653312Y-101313800D02*
X133796170Y-102599514D01*
X134939027Y-101456657D02*
X134986646Y-101409038D01*
X134986646Y-101409038D02*
X135081884Y-101361419D01*
X135081884Y-101361419D02*
X135319979Y-101361419D01*
X135319979Y-101361419D02*
X135415217Y-101409038D01*
X135415217Y-101409038D02*
X135462836Y-101456657D01*
X135462836Y-101456657D02*
X135510455Y-101551895D01*
X135510455Y-101551895D02*
X135510455Y-101647133D01*
X135510455Y-101647133D02*
X135462836Y-101789990D01*
X135462836Y-101789990D02*
X134891408Y-102361419D01*
X134891408Y-102361419D02*
X135510455Y-102361419D01*
X136129503Y-101361419D02*
X136224741Y-101361419D01*
X136224741Y-101361419D02*
X136319979Y-101409038D01*
X136319979Y-101409038D02*
X136367598Y-101456657D01*
X136367598Y-101456657D02*
X136415217Y-101551895D01*
X136415217Y-101551895D02*
X136462836Y-101742371D01*
X136462836Y-101742371D02*
X136462836Y-101980466D01*
X136462836Y-101980466D02*
X136415217Y-102170942D01*
X136415217Y-102170942D02*
X136367598Y-102266180D01*
X136367598Y-102266180D02*
X136319979Y-102313800D01*
X136319979Y-102313800D02*
X136224741Y-102361419D01*
X136224741Y-102361419D02*
X136129503Y-102361419D01*
X136129503Y-102361419D02*
X136034265Y-102313800D01*
X136034265Y-102313800D02*
X135986646Y-102266180D01*
X135986646Y-102266180D02*
X135939027Y-102170942D01*
X135939027Y-102170942D02*
X135891408Y-101980466D01*
X135891408Y-101980466D02*
X135891408Y-101742371D01*
X135891408Y-101742371D02*
X135939027Y-101551895D01*
X135939027Y-101551895D02*
X135986646Y-101456657D01*
X135986646Y-101456657D02*
X136034265Y-101409038D01*
X136034265Y-101409038D02*
X136129503Y-101361419D01*
X136843789Y-101456657D02*
X136891408Y-101409038D01*
X136891408Y-101409038D02*
X136986646Y-101361419D01*
X136986646Y-101361419D02*
X137224741Y-101361419D01*
X137224741Y-101361419D02*
X137319979Y-101409038D01*
X137319979Y-101409038D02*
X137367598Y-101456657D01*
X137367598Y-101456657D02*
X137415217Y-101551895D01*
X137415217Y-101551895D02*
X137415217Y-101647133D01*
X137415217Y-101647133D02*
X137367598Y-101789990D01*
X137367598Y-101789990D02*
X136796170Y-102361419D01*
X136796170Y-102361419D02*
X137415217Y-102361419D01*
X138272360Y-101694752D02*
X138272360Y-102361419D01*
X138034265Y-101313800D02*
X137796170Y-102028085D01*
X137796170Y-102028085D02*
X138415217Y-102028085D01*
X140129503Y-102361419D02*
X139796170Y-101885228D01*
X139558075Y-102361419D02*
X139558075Y-101361419D01*
X139558075Y-101361419D02*
X139939027Y-101361419D01*
X139939027Y-101361419D02*
X140034265Y-101409038D01*
X140034265Y-101409038D02*
X140081884Y-101456657D01*
X140081884Y-101456657D02*
X140129503Y-101551895D01*
X140129503Y-101551895D02*
X140129503Y-101694752D01*
X140129503Y-101694752D02*
X140081884Y-101789990D01*
X140081884Y-101789990D02*
X140034265Y-101837609D01*
X140034265Y-101837609D02*
X139939027Y-101885228D01*
X139939027Y-101885228D02*
X139558075Y-101885228D01*
X140939027Y-102313800D02*
X140843789Y-102361419D01*
X140843789Y-102361419D02*
X140653313Y-102361419D01*
X140653313Y-102361419D02*
X140558075Y-102313800D01*
X140558075Y-102313800D02*
X140510456Y-102218561D01*
X140510456Y-102218561D02*
X140510456Y-101837609D01*
X140510456Y-101837609D02*
X140558075Y-101742371D01*
X140558075Y-101742371D02*
X140653313Y-101694752D01*
X140653313Y-101694752D02*
X140843789Y-101694752D01*
X140843789Y-101694752D02*
X140939027Y-101742371D01*
X140939027Y-101742371D02*
X140986646Y-101837609D01*
X140986646Y-101837609D02*
X140986646Y-101932847D01*
X140986646Y-101932847D02*
X140510456Y-102028085D01*
X141319980Y-101694752D02*
X141558075Y-102361419D01*
X141558075Y-102361419D02*
X141796170Y-101694752D01*
X142177123Y-102266180D02*
X142224742Y-102313800D01*
X142224742Y-102313800D02*
X142177123Y-102361419D01*
X142177123Y-102361419D02*
X142129504Y-102313800D01*
X142129504Y-102313800D02*
X142177123Y-102266180D01*
X142177123Y-102266180D02*
X142177123Y-102361419D01*
X143939027Y-102361419D02*
X143367599Y-102361419D01*
X143653313Y-102361419D02*
X143653313Y-101361419D01*
X143653313Y-101361419D02*
X143558075Y-101504276D01*
X143558075Y-101504276D02*
X143462837Y-101599514D01*
X143462837Y-101599514D02*
X143367599Y-101647133D01*
X140623027Y-150734800D02*
X140694455Y-150772895D01*
X140694455Y-150772895D02*
X140813503Y-150772895D01*
X140813503Y-150772895D02*
X140861122Y-150734800D01*
X140861122Y-150734800D02*
X140884931Y-150696704D01*
X140884931Y-150696704D02*
X140908741Y-150620514D01*
X140908741Y-150620514D02*
X140908741Y-150544323D01*
X140908741Y-150544323D02*
X140884931Y-150468133D01*
X140884931Y-150468133D02*
X140861122Y-150430038D01*
X140861122Y-150430038D02*
X140813503Y-150391942D01*
X140813503Y-150391942D02*
X140718265Y-150353847D01*
X140718265Y-150353847D02*
X140670646Y-150315752D01*
X140670646Y-150315752D02*
X140646836Y-150277657D01*
X140646836Y-150277657D02*
X140623027Y-150201466D01*
X140623027Y-150201466D02*
X140623027Y-150125276D01*
X140623027Y-150125276D02*
X140646836Y-150049085D01*
X140646836Y-150049085D02*
X140670646Y-150010990D01*
X140670646Y-150010990D02*
X140718265Y-149972895D01*
X140718265Y-149972895D02*
X140837312Y-149972895D01*
X140837312Y-149972895D02*
X140908741Y-150010990D01*
X141123026Y-150772895D02*
X141123026Y-150239561D01*
X141123026Y-149972895D02*
X141099217Y-150010990D01*
X141099217Y-150010990D02*
X141123026Y-150049085D01*
X141123026Y-150049085D02*
X141146836Y-150010990D01*
X141146836Y-150010990D02*
X141123026Y-149972895D01*
X141123026Y-149972895D02*
X141123026Y-150049085D01*
X141575407Y-150239561D02*
X141575407Y-150887180D01*
X141575407Y-150887180D02*
X141551597Y-150963371D01*
X141551597Y-150963371D02*
X141527788Y-151001466D01*
X141527788Y-151001466D02*
X141480169Y-151039561D01*
X141480169Y-151039561D02*
X141408740Y-151039561D01*
X141408740Y-151039561D02*
X141361121Y-151001466D01*
X141575407Y-150734800D02*
X141527788Y-150772895D01*
X141527788Y-150772895D02*
X141432550Y-150772895D01*
X141432550Y-150772895D02*
X141384931Y-150734800D01*
X141384931Y-150734800D02*
X141361121Y-150696704D01*
X141361121Y-150696704D02*
X141337312Y-150620514D01*
X141337312Y-150620514D02*
X141337312Y-150391942D01*
X141337312Y-150391942D02*
X141361121Y-150315752D01*
X141361121Y-150315752D02*
X141384931Y-150277657D01*
X141384931Y-150277657D02*
X141432550Y-150239561D01*
X141432550Y-150239561D02*
X141527788Y-150239561D01*
X141527788Y-150239561D02*
X141575407Y-150277657D01*
X142146835Y-149972895D02*
X142456359Y-149972895D01*
X142456359Y-149972895D02*
X142289692Y-150277657D01*
X142289692Y-150277657D02*
X142361121Y-150277657D01*
X142361121Y-150277657D02*
X142408740Y-150315752D01*
X142408740Y-150315752D02*
X142432549Y-150353847D01*
X142432549Y-150353847D02*
X142456359Y-150430038D01*
X142456359Y-150430038D02*
X142456359Y-150620514D01*
X142456359Y-150620514D02*
X142432549Y-150696704D01*
X142432549Y-150696704D02*
X142408740Y-150734800D01*
X142408740Y-150734800D02*
X142361121Y-150772895D01*
X142361121Y-150772895D02*
X142218264Y-150772895D01*
X142218264Y-150772895D02*
X142170645Y-150734800D01*
X142170645Y-150734800D02*
X142146835Y-150696704D01*
X130209027Y-150353800D02*
X130280455Y-150391895D01*
X130280455Y-150391895D02*
X130399503Y-150391895D01*
X130399503Y-150391895D02*
X130447122Y-150353800D01*
X130447122Y-150353800D02*
X130470931Y-150315704D01*
X130470931Y-150315704D02*
X130494741Y-150239514D01*
X130494741Y-150239514D02*
X130494741Y-150163323D01*
X130494741Y-150163323D02*
X130470931Y-150087133D01*
X130470931Y-150087133D02*
X130447122Y-150049038D01*
X130447122Y-150049038D02*
X130399503Y-150010942D01*
X130399503Y-150010942D02*
X130304265Y-149972847D01*
X130304265Y-149972847D02*
X130256646Y-149934752D01*
X130256646Y-149934752D02*
X130232836Y-149896657D01*
X130232836Y-149896657D02*
X130209027Y-149820466D01*
X130209027Y-149820466D02*
X130209027Y-149744276D01*
X130209027Y-149744276D02*
X130232836Y-149668085D01*
X130232836Y-149668085D02*
X130256646Y-149629990D01*
X130256646Y-149629990D02*
X130304265Y-149591895D01*
X130304265Y-149591895D02*
X130423312Y-149591895D01*
X130423312Y-149591895D02*
X130494741Y-149629990D01*
X130709026Y-150391895D02*
X130709026Y-149858561D01*
X130709026Y-149591895D02*
X130685217Y-149629990D01*
X130685217Y-149629990D02*
X130709026Y-149668085D01*
X130709026Y-149668085D02*
X130732836Y-149629990D01*
X130732836Y-149629990D02*
X130709026Y-149591895D01*
X130709026Y-149591895D02*
X130709026Y-149668085D01*
X131161407Y-149858561D02*
X131161407Y-150506180D01*
X131161407Y-150506180D02*
X131137597Y-150582371D01*
X131137597Y-150582371D02*
X131113788Y-150620466D01*
X131113788Y-150620466D02*
X131066169Y-150658561D01*
X131066169Y-150658561D02*
X130994740Y-150658561D01*
X130994740Y-150658561D02*
X130947121Y-150620466D01*
X131161407Y-150353800D02*
X131113788Y-150391895D01*
X131113788Y-150391895D02*
X131018550Y-150391895D01*
X131018550Y-150391895D02*
X130970931Y-150353800D01*
X130970931Y-150353800D02*
X130947121Y-150315704D01*
X130947121Y-150315704D02*
X130923312Y-150239514D01*
X130923312Y-150239514D02*
X130923312Y-150010942D01*
X130923312Y-150010942D02*
X130947121Y-149934752D01*
X130947121Y-149934752D02*
X130970931Y-149896657D01*
X130970931Y-149896657D02*
X131018550Y-149858561D01*
X131018550Y-149858561D02*
X131113788Y-149858561D01*
X131113788Y-149858561D02*
X131161407Y-149896657D01*
X131756645Y-149668085D02*
X131780454Y-149629990D01*
X131780454Y-149629990D02*
X131828073Y-149591895D01*
X131828073Y-149591895D02*
X131947121Y-149591895D01*
X131947121Y-149591895D02*
X131994740Y-149629990D01*
X131994740Y-149629990D02*
X132018549Y-149668085D01*
X132018549Y-149668085D02*
X132042359Y-149744276D01*
X132042359Y-149744276D02*
X132042359Y-149820466D01*
X132042359Y-149820466D02*
X132018549Y-149934752D01*
X132018549Y-149934752D02*
X131732835Y-150391895D01*
X131732835Y-150391895D02*
X132042359Y-150391895D01*
X172420598Y-124348419D02*
X172420598Y-125062704D01*
X172420598Y-125062704D02*
X172372979Y-125205561D01*
X172372979Y-125205561D02*
X172277741Y-125300800D01*
X172277741Y-125300800D02*
X172134884Y-125348419D01*
X172134884Y-125348419D02*
X172039646Y-125348419D01*
X173039646Y-124776990D02*
X172944408Y-124729371D01*
X172944408Y-124729371D02*
X172896789Y-124681752D01*
X172896789Y-124681752D02*
X172849170Y-124586514D01*
X172849170Y-124586514D02*
X172849170Y-124538895D01*
X172849170Y-124538895D02*
X172896789Y-124443657D01*
X172896789Y-124443657D02*
X172944408Y-124396038D01*
X172944408Y-124396038D02*
X173039646Y-124348419D01*
X173039646Y-124348419D02*
X173230122Y-124348419D01*
X173230122Y-124348419D02*
X173325360Y-124396038D01*
X173325360Y-124396038D02*
X173372979Y-124443657D01*
X173372979Y-124443657D02*
X173420598Y-124538895D01*
X173420598Y-124538895D02*
X173420598Y-124586514D01*
X173420598Y-124586514D02*
X173372979Y-124681752D01*
X173372979Y-124681752D02*
X173325360Y-124729371D01*
X173325360Y-124729371D02*
X173230122Y-124776990D01*
X173230122Y-124776990D02*
X173039646Y-124776990D01*
X173039646Y-124776990D02*
X172944408Y-124824609D01*
X172944408Y-124824609D02*
X172896789Y-124872228D01*
X172896789Y-124872228D02*
X172849170Y-124967466D01*
X172849170Y-124967466D02*
X172849170Y-125157942D01*
X172849170Y-125157942D02*
X172896789Y-125253180D01*
X172896789Y-125253180D02*
X172944408Y-125300800D01*
X172944408Y-125300800D02*
X173039646Y-125348419D01*
X173039646Y-125348419D02*
X173230122Y-125348419D01*
X173230122Y-125348419D02*
X173325360Y-125300800D01*
X173325360Y-125300800D02*
X173372979Y-125253180D01*
X173372979Y-125253180D02*
X173420598Y-125157942D01*
X173420598Y-125157942D02*
X173420598Y-124967466D01*
X173420598Y-124967466D02*
X173372979Y-124872228D01*
X173372979Y-124872228D02*
X173325360Y-124824609D01*
X173325360Y-124824609D02*
X173230122Y-124776990D01*
D11*
X122042808Y-98205998D02*
X122042808Y-99634569D01*
X122042808Y-99634569D02*
X121969547Y-99920283D01*
X121969547Y-99920283D02*
X121823027Y-100110760D01*
X121823027Y-100110760D02*
X121603247Y-100205998D01*
X121603247Y-100205998D02*
X121456727Y-100205998D01*
X123361490Y-100110760D02*
X123214970Y-100205998D01*
X123214970Y-100205998D02*
X122921929Y-100205998D01*
X122921929Y-100205998D02*
X122775409Y-100110760D01*
X122775409Y-100110760D02*
X122702149Y-99920283D01*
X122702149Y-99920283D02*
X122702149Y-99158379D01*
X122702149Y-99158379D02*
X122775409Y-98967902D01*
X122775409Y-98967902D02*
X122921929Y-98872664D01*
X122921929Y-98872664D02*
X123214970Y-98872664D01*
X123214970Y-98872664D02*
X123361490Y-98967902D01*
X123361490Y-98967902D02*
X123434750Y-99158379D01*
X123434750Y-99158379D02*
X123434750Y-99348855D01*
X123434750Y-99348855D02*
X122702149Y-99539331D01*
X123874311Y-98872664D02*
X124460391Y-98872664D01*
X124094091Y-98205998D02*
X124094091Y-99920283D01*
X124094091Y-99920283D02*
X124167351Y-100110760D01*
X124167351Y-100110760D02*
X124313871Y-100205998D01*
X124313871Y-100205998D02*
X124460391Y-100205998D01*
X124899952Y-100110760D02*
X125046472Y-100205998D01*
X125046472Y-100205998D02*
X125339512Y-100205998D01*
X125339512Y-100205998D02*
X125486033Y-100110760D01*
X125486033Y-100110760D02*
X125559293Y-99920283D01*
X125559293Y-99920283D02*
X125559293Y-99825045D01*
X125559293Y-99825045D02*
X125486033Y-99634569D01*
X125486033Y-99634569D02*
X125339512Y-99539331D01*
X125339512Y-99539331D02*
X125119732Y-99539331D01*
X125119732Y-99539331D02*
X124973212Y-99444093D01*
X124973212Y-99444093D02*
X124899952Y-99253617D01*
X124899952Y-99253617D02*
X124899952Y-99158379D01*
X124899952Y-99158379D02*
X124973212Y-98967902D01*
X124973212Y-98967902D02*
X125119732Y-98872664D01*
X125119732Y-98872664D02*
X125339512Y-98872664D01*
X125339512Y-98872664D02*
X125486033Y-98967902D01*
X126438414Y-100205998D02*
X126291894Y-100110760D01*
X126291894Y-100110760D02*
X126218634Y-100015521D01*
X126218634Y-100015521D02*
X126145374Y-99825045D01*
X126145374Y-99825045D02*
X126145374Y-99253617D01*
X126145374Y-99253617D02*
X126218634Y-99063140D01*
X126218634Y-99063140D02*
X126291894Y-98967902D01*
X126291894Y-98967902D02*
X126438414Y-98872664D01*
X126438414Y-98872664D02*
X126658195Y-98872664D01*
X126658195Y-98872664D02*
X126804715Y-98967902D01*
X126804715Y-98967902D02*
X126877975Y-99063140D01*
X126877975Y-99063140D02*
X126951235Y-99253617D01*
X126951235Y-99253617D02*
X126951235Y-99825045D01*
X126951235Y-99825045D02*
X126877975Y-100015521D01*
X126877975Y-100015521D02*
X126804715Y-100110760D01*
X126804715Y-100110760D02*
X126658195Y-100205998D01*
X126658195Y-100205998D02*
X126438414Y-100205998D01*
X127610576Y-98872664D02*
X127610576Y-100205998D01*
X127610576Y-99063140D02*
X127683836Y-98967902D01*
X127683836Y-98967902D02*
X127830356Y-98872664D01*
X127830356Y-98872664D02*
X128050137Y-98872664D01*
X128050137Y-98872664D02*
X128196657Y-98967902D01*
X128196657Y-98967902D02*
X128269917Y-99158379D01*
X128269917Y-99158379D02*
X128269917Y-100205998D01*
X130174680Y-99158379D02*
X130687501Y-99158379D01*
X130907281Y-100205998D02*
X130174680Y-100205998D01*
X130174680Y-100205998D02*
X130174680Y-98205998D01*
X130174680Y-98205998D02*
X130907281Y-98205998D01*
X131420102Y-100205998D02*
X132225963Y-98872664D01*
X131420102Y-98872664D02*
X132225963Y-100205998D01*
X132592264Y-98872664D02*
X133178344Y-98872664D01*
X132812044Y-98205998D02*
X132812044Y-99920283D01*
X132812044Y-99920283D02*
X132885304Y-100110760D01*
X132885304Y-100110760D02*
X133031824Y-100205998D01*
X133031824Y-100205998D02*
X133178344Y-100205998D01*
X134277246Y-100110760D02*
X134130726Y-100205998D01*
X134130726Y-100205998D02*
X133837685Y-100205998D01*
X133837685Y-100205998D02*
X133691165Y-100110760D01*
X133691165Y-100110760D02*
X133617905Y-99920283D01*
X133617905Y-99920283D02*
X133617905Y-99158379D01*
X133617905Y-99158379D02*
X133691165Y-98967902D01*
X133691165Y-98967902D02*
X133837685Y-98872664D01*
X133837685Y-98872664D02*
X134130726Y-98872664D01*
X134130726Y-98872664D02*
X134277246Y-98967902D01*
X134277246Y-98967902D02*
X134350506Y-99158379D01*
X134350506Y-99158379D02*
X134350506Y-99348855D01*
X134350506Y-99348855D02*
X133617905Y-99539331D01*
X135009847Y-98872664D02*
X135009847Y-100205998D01*
X135009847Y-99063140D02*
X135083107Y-98967902D01*
X135083107Y-98967902D02*
X135229627Y-98872664D01*
X135229627Y-98872664D02*
X135449408Y-98872664D01*
X135449408Y-98872664D02*
X135595928Y-98967902D01*
X135595928Y-98967902D02*
X135669188Y-99158379D01*
X135669188Y-99158379D02*
X135669188Y-100205998D01*
X136328529Y-100110760D02*
X136475049Y-100205998D01*
X136475049Y-100205998D02*
X136768089Y-100205998D01*
X136768089Y-100205998D02*
X136914610Y-100110760D01*
X136914610Y-100110760D02*
X136987870Y-99920283D01*
X136987870Y-99920283D02*
X136987870Y-99825045D01*
X136987870Y-99825045D02*
X136914610Y-99634569D01*
X136914610Y-99634569D02*
X136768089Y-99539331D01*
X136768089Y-99539331D02*
X136548309Y-99539331D01*
X136548309Y-99539331D02*
X136401789Y-99444093D01*
X136401789Y-99444093D02*
X136328529Y-99253617D01*
X136328529Y-99253617D02*
X136328529Y-99158379D01*
X136328529Y-99158379D02*
X136401789Y-98967902D01*
X136401789Y-98967902D02*
X136548309Y-98872664D01*
X136548309Y-98872664D02*
X136768089Y-98872664D01*
X136768089Y-98872664D02*
X136914610Y-98967902D01*
X137647211Y-100205998D02*
X137647211Y-98872664D01*
X137647211Y-98205998D02*
X137573951Y-98301236D01*
X137573951Y-98301236D02*
X137647211Y-98396474D01*
X137647211Y-98396474D02*
X137720471Y-98301236D01*
X137720471Y-98301236D02*
X137647211Y-98205998D01*
X137647211Y-98205998D02*
X137647211Y-98396474D01*
X138599592Y-100205998D02*
X138453072Y-100110760D01*
X138453072Y-100110760D02*
X138379812Y-100015521D01*
X138379812Y-100015521D02*
X138306552Y-99825045D01*
X138306552Y-99825045D02*
X138306552Y-99253617D01*
X138306552Y-99253617D02*
X138379812Y-99063140D01*
X138379812Y-99063140D02*
X138453072Y-98967902D01*
X138453072Y-98967902D02*
X138599592Y-98872664D01*
X138599592Y-98872664D02*
X138819373Y-98872664D01*
X138819373Y-98872664D02*
X138965893Y-98967902D01*
X138965893Y-98967902D02*
X139039153Y-99063140D01*
X139039153Y-99063140D02*
X139112413Y-99253617D01*
X139112413Y-99253617D02*
X139112413Y-99825045D01*
X139112413Y-99825045D02*
X139039153Y-100015521D01*
X139039153Y-100015521D02*
X138965893Y-100110760D01*
X138965893Y-100110760D02*
X138819373Y-100205998D01*
X138819373Y-100205998D02*
X138599592Y-100205998D01*
X139771754Y-98872664D02*
X139771754Y-100205998D01*
X139771754Y-99063140D02*
X139845014Y-98967902D01*
X139845014Y-98967902D02*
X139991534Y-98872664D01*
X139991534Y-98872664D02*
X140211315Y-98872664D01*
X140211315Y-98872664D02*
X140357835Y-98967902D01*
X140357835Y-98967902D02*
X140431095Y-99158379D01*
X140431095Y-99158379D02*
X140431095Y-100205998D01*
X142848679Y-99158379D02*
X143068459Y-99253617D01*
X143068459Y-99253617D02*
X143141719Y-99348855D01*
X143141719Y-99348855D02*
X143214979Y-99539331D01*
X143214979Y-99539331D02*
X143214979Y-99825045D01*
X143214979Y-99825045D02*
X143141719Y-100015521D01*
X143141719Y-100015521D02*
X143068459Y-100110760D01*
X143068459Y-100110760D02*
X142921939Y-100205998D01*
X142921939Y-100205998D02*
X142335858Y-100205998D01*
X142335858Y-100205998D02*
X142335858Y-98205998D01*
X142335858Y-98205998D02*
X142848679Y-98205998D01*
X142848679Y-98205998D02*
X142995199Y-98301236D01*
X142995199Y-98301236D02*
X143068459Y-98396474D01*
X143068459Y-98396474D02*
X143141719Y-98586950D01*
X143141719Y-98586950D02*
X143141719Y-98777426D01*
X143141719Y-98777426D02*
X143068459Y-98967902D01*
X143068459Y-98967902D02*
X142995199Y-99063140D01*
X142995199Y-99063140D02*
X142848679Y-99158379D01*
X142848679Y-99158379D02*
X142335858Y-99158379D01*
X144094100Y-100205998D02*
X143947580Y-100110760D01*
X143947580Y-100110760D02*
X143874320Y-100015521D01*
X143874320Y-100015521D02*
X143801060Y-99825045D01*
X143801060Y-99825045D02*
X143801060Y-99253617D01*
X143801060Y-99253617D02*
X143874320Y-99063140D01*
X143874320Y-99063140D02*
X143947580Y-98967902D01*
X143947580Y-98967902D02*
X144094100Y-98872664D01*
X144094100Y-98872664D02*
X144313881Y-98872664D01*
X144313881Y-98872664D02*
X144460401Y-98967902D01*
X144460401Y-98967902D02*
X144533661Y-99063140D01*
X144533661Y-99063140D02*
X144606921Y-99253617D01*
X144606921Y-99253617D02*
X144606921Y-99825045D01*
X144606921Y-99825045D02*
X144533661Y-100015521D01*
X144533661Y-100015521D02*
X144460401Y-100110760D01*
X144460401Y-100110760D02*
X144313881Y-100205998D01*
X144313881Y-100205998D02*
X144094100Y-100205998D01*
X145925603Y-100205998D02*
X145925603Y-99158379D01*
X145925603Y-99158379D02*
X145852343Y-98967902D01*
X145852343Y-98967902D02*
X145705823Y-98872664D01*
X145705823Y-98872664D02*
X145412782Y-98872664D01*
X145412782Y-98872664D02*
X145266262Y-98967902D01*
X145925603Y-100110760D02*
X145779083Y-100205998D01*
X145779083Y-100205998D02*
X145412782Y-100205998D01*
X145412782Y-100205998D02*
X145266262Y-100110760D01*
X145266262Y-100110760D02*
X145193002Y-99920283D01*
X145193002Y-99920283D02*
X145193002Y-99729807D01*
X145193002Y-99729807D02*
X145266262Y-99539331D01*
X145266262Y-99539331D02*
X145412782Y-99444093D01*
X145412782Y-99444093D02*
X145779083Y-99444093D01*
X145779083Y-99444093D02*
X145925603Y-99348855D01*
X146658204Y-100205998D02*
X146658204Y-98872664D01*
X146658204Y-99253617D02*
X146731464Y-99063140D01*
X146731464Y-99063140D02*
X146804724Y-98967902D01*
X146804724Y-98967902D02*
X146951244Y-98872664D01*
X146951244Y-98872664D02*
X147097765Y-98872664D01*
X148269926Y-100205998D02*
X148269926Y-98205998D01*
X148269926Y-100110760D02*
X148123406Y-100205998D01*
X148123406Y-100205998D02*
X147830365Y-100205998D01*
X147830365Y-100205998D02*
X147683845Y-100110760D01*
X147683845Y-100110760D02*
X147610585Y-100015521D01*
X147610585Y-100015521D02*
X147537325Y-99825045D01*
X147537325Y-99825045D02*
X147537325Y-99253617D01*
X147537325Y-99253617D02*
X147610585Y-99063140D01*
X147610585Y-99063140D02*
X147683845Y-98967902D01*
X147683845Y-98967902D02*
X147830365Y-98872664D01*
X147830365Y-98872664D02*
X148123406Y-98872664D01*
X148123406Y-98872664D02*
X148269926Y-98967902D01*
D10*
X172176169Y-115555800D02*
X172290455Y-115593895D01*
X172290455Y-115593895D02*
X172480931Y-115593895D01*
X172480931Y-115593895D02*
X172557122Y-115555800D01*
X172557122Y-115555800D02*
X172595217Y-115517704D01*
X172595217Y-115517704D02*
X172633312Y-115441514D01*
X172633312Y-115441514D02*
X172633312Y-115365323D01*
X172633312Y-115365323D02*
X172595217Y-115289133D01*
X172595217Y-115289133D02*
X172557122Y-115251038D01*
X172557122Y-115251038D02*
X172480931Y-115212942D01*
X172480931Y-115212942D02*
X172328550Y-115174847D01*
X172328550Y-115174847D02*
X172252360Y-115136752D01*
X172252360Y-115136752D02*
X172214265Y-115098657D01*
X172214265Y-115098657D02*
X172176169Y-115022466D01*
X172176169Y-115022466D02*
X172176169Y-114946276D01*
X172176169Y-114946276D02*
X172214265Y-114870085D01*
X172214265Y-114870085D02*
X172252360Y-114831990D01*
X172252360Y-114831990D02*
X172328550Y-114793895D01*
X172328550Y-114793895D02*
X172519027Y-114793895D01*
X172519027Y-114793895D02*
X172633312Y-114831990D01*
X172976170Y-115593895D02*
X172976170Y-115060561D01*
X172976170Y-114793895D02*
X172938074Y-114831990D01*
X172938074Y-114831990D02*
X172976170Y-114870085D01*
X172976170Y-114870085D02*
X173014265Y-114831990D01*
X173014265Y-114831990D02*
X172976170Y-114793895D01*
X172976170Y-114793895D02*
X172976170Y-114870085D01*
X173699979Y-115060561D02*
X173699979Y-115708180D01*
X173699979Y-115708180D02*
X173661884Y-115784371D01*
X173661884Y-115784371D02*
X173623788Y-115822466D01*
X173623788Y-115822466D02*
X173547598Y-115860561D01*
X173547598Y-115860561D02*
X173433312Y-115860561D01*
X173433312Y-115860561D02*
X173357122Y-115822466D01*
X173699979Y-115555800D02*
X173623788Y-115593895D01*
X173623788Y-115593895D02*
X173471407Y-115593895D01*
X173471407Y-115593895D02*
X173395217Y-115555800D01*
X173395217Y-115555800D02*
X173357122Y-115517704D01*
X173357122Y-115517704D02*
X173319026Y-115441514D01*
X173319026Y-115441514D02*
X173319026Y-115212942D01*
X173319026Y-115212942D02*
X173357122Y-115136752D01*
X173357122Y-115136752D02*
X173395217Y-115098657D01*
X173395217Y-115098657D02*
X173471407Y-115060561D01*
X173471407Y-115060561D02*
X173623788Y-115060561D01*
X173623788Y-115060561D02*
X173699979Y-115098657D01*
X174614265Y-114793895D02*
X175109503Y-114793895D01*
X175109503Y-114793895D02*
X174842837Y-115098657D01*
X174842837Y-115098657D02*
X174957122Y-115098657D01*
X174957122Y-115098657D02*
X175033313Y-115136752D01*
X175033313Y-115136752D02*
X175071408Y-115174847D01*
X175071408Y-115174847D02*
X175109503Y-115251038D01*
X175109503Y-115251038D02*
X175109503Y-115441514D01*
X175109503Y-115441514D02*
X175071408Y-115517704D01*
X175071408Y-115517704D02*
X175033313Y-115555800D01*
X175033313Y-115555800D02*
X174957122Y-115593895D01*
X174957122Y-115593895D02*
X174728551Y-115593895D01*
X174728551Y-115593895D02*
X174652360Y-115555800D01*
X174652360Y-115555800D02*
X174614265Y-115517704D01*
X160962074Y-95616895D02*
X161457312Y-95616895D01*
X161457312Y-95616895D02*
X161190646Y-95921657D01*
X161190646Y-95921657D02*
X161304931Y-95921657D01*
X161304931Y-95921657D02*
X161381122Y-95959752D01*
X161381122Y-95959752D02*
X161419217Y-95997847D01*
X161419217Y-95997847D02*
X161457312Y-96074038D01*
X161457312Y-96074038D02*
X161457312Y-96264514D01*
X161457312Y-96264514D02*
X161419217Y-96340704D01*
X161419217Y-96340704D02*
X161381122Y-96378800D01*
X161381122Y-96378800D02*
X161304931Y-96416895D01*
X161304931Y-96416895D02*
X161076360Y-96416895D01*
X161076360Y-96416895D02*
X161000169Y-96378800D01*
X161000169Y-96378800D02*
X160962074Y-96340704D01*
X161800170Y-96340704D02*
X161838265Y-96378800D01*
X161838265Y-96378800D02*
X161800170Y-96416895D01*
X161800170Y-96416895D02*
X161762074Y-96378800D01*
X161762074Y-96378800D02*
X161800170Y-96340704D01*
X161800170Y-96340704D02*
X161800170Y-96416895D01*
X162104931Y-95616895D02*
X162600169Y-95616895D01*
X162600169Y-95616895D02*
X162333503Y-95921657D01*
X162333503Y-95921657D02*
X162447788Y-95921657D01*
X162447788Y-95921657D02*
X162523979Y-95959752D01*
X162523979Y-95959752D02*
X162562074Y-95997847D01*
X162562074Y-95997847D02*
X162600169Y-96074038D01*
X162600169Y-96074038D02*
X162600169Y-96264514D01*
X162600169Y-96264514D02*
X162562074Y-96340704D01*
X162562074Y-96340704D02*
X162523979Y-96378800D01*
X162523979Y-96378800D02*
X162447788Y-96416895D01*
X162447788Y-96416895D02*
X162219217Y-96416895D01*
X162219217Y-96416895D02*
X162143026Y-96378800D01*
X162143026Y-96378800D02*
X162104931Y-96340704D01*
X162828741Y-95616895D02*
X163095408Y-96416895D01*
X163095408Y-96416895D02*
X163362074Y-95616895D01*
X120564931Y-145781895D02*
X120326836Y-145781895D01*
X120326836Y-145781895D02*
X120303027Y-146162847D01*
X120303027Y-146162847D02*
X120326836Y-146124752D01*
X120326836Y-146124752D02*
X120374455Y-146086657D01*
X120374455Y-146086657D02*
X120493503Y-146086657D01*
X120493503Y-146086657D02*
X120541122Y-146124752D01*
X120541122Y-146124752D02*
X120564931Y-146162847D01*
X120564931Y-146162847D02*
X120588741Y-146239038D01*
X120588741Y-146239038D02*
X120588741Y-146429514D01*
X120588741Y-146429514D02*
X120564931Y-146505704D01*
X120564931Y-146505704D02*
X120541122Y-146543800D01*
X120541122Y-146543800D02*
X120493503Y-146581895D01*
X120493503Y-146581895D02*
X120374455Y-146581895D01*
X120374455Y-146581895D02*
X120326836Y-146543800D01*
X120326836Y-146543800D02*
X120303027Y-146505704D01*
X120731598Y-145781895D02*
X120898264Y-146581895D01*
X120898264Y-146581895D02*
X121064931Y-145781895D01*
X151926027Y-151115800D02*
X151997455Y-151153895D01*
X151997455Y-151153895D02*
X152116503Y-151153895D01*
X152116503Y-151153895D02*
X152164122Y-151115800D01*
X152164122Y-151115800D02*
X152187931Y-151077704D01*
X152187931Y-151077704D02*
X152211741Y-151001514D01*
X152211741Y-151001514D02*
X152211741Y-150925323D01*
X152211741Y-150925323D02*
X152187931Y-150849133D01*
X152187931Y-150849133D02*
X152164122Y-150811038D01*
X152164122Y-150811038D02*
X152116503Y-150772942D01*
X152116503Y-150772942D02*
X152021265Y-150734847D01*
X152021265Y-150734847D02*
X151973646Y-150696752D01*
X151973646Y-150696752D02*
X151949836Y-150658657D01*
X151949836Y-150658657D02*
X151926027Y-150582466D01*
X151926027Y-150582466D02*
X151926027Y-150506276D01*
X151926027Y-150506276D02*
X151949836Y-150430085D01*
X151949836Y-150430085D02*
X151973646Y-150391990D01*
X151973646Y-150391990D02*
X152021265Y-150353895D01*
X152021265Y-150353895D02*
X152140312Y-150353895D01*
X152140312Y-150353895D02*
X152211741Y-150391990D01*
X152426026Y-151153895D02*
X152426026Y-150620561D01*
X152426026Y-150353895D02*
X152402217Y-150391990D01*
X152402217Y-150391990D02*
X152426026Y-150430085D01*
X152426026Y-150430085D02*
X152449836Y-150391990D01*
X152449836Y-150391990D02*
X152426026Y-150353895D01*
X152426026Y-150353895D02*
X152426026Y-150430085D01*
X152878407Y-150620561D02*
X152878407Y-151268180D01*
X152878407Y-151268180D02*
X152854597Y-151344371D01*
X152854597Y-151344371D02*
X152830788Y-151382466D01*
X152830788Y-151382466D02*
X152783169Y-151420561D01*
X152783169Y-151420561D02*
X152711740Y-151420561D01*
X152711740Y-151420561D02*
X152664121Y-151382466D01*
X152878407Y-151115800D02*
X152830788Y-151153895D01*
X152830788Y-151153895D02*
X152735550Y-151153895D01*
X152735550Y-151153895D02*
X152687931Y-151115800D01*
X152687931Y-151115800D02*
X152664121Y-151077704D01*
X152664121Y-151077704D02*
X152640312Y-151001514D01*
X152640312Y-151001514D02*
X152640312Y-150772942D01*
X152640312Y-150772942D02*
X152664121Y-150696752D01*
X152664121Y-150696752D02*
X152687931Y-150658657D01*
X152687931Y-150658657D02*
X152735550Y-150620561D01*
X152735550Y-150620561D02*
X152830788Y-150620561D01*
X152830788Y-150620561D02*
X152878407Y-150658657D01*
X153711740Y-150620561D02*
X153711740Y-151153895D01*
X153592692Y-150315800D02*
X153473645Y-150887228D01*
X153473645Y-150887228D02*
X153783168Y-150887228D01*
X172420598Y-109362419D02*
X172420598Y-110076704D01*
X172420598Y-110076704D02*
X172372979Y-110219561D01*
X172372979Y-110219561D02*
X172277741Y-110314800D01*
X172277741Y-110314800D02*
X172134884Y-110362419D01*
X172134884Y-110362419D02*
X172039646Y-110362419D01*
X172944408Y-110362419D02*
X173134884Y-110362419D01*
X173134884Y-110362419D02*
X173230122Y-110314800D01*
X173230122Y-110314800D02*
X173277741Y-110267180D01*
X173277741Y-110267180D02*
X173372979Y-110124323D01*
X173372979Y-110124323D02*
X173420598Y-109933847D01*
X173420598Y-109933847D02*
X173420598Y-109552895D01*
X173420598Y-109552895D02*
X173372979Y-109457657D01*
X173372979Y-109457657D02*
X173325360Y-109410038D01*
X173325360Y-109410038D02*
X173230122Y-109362419D01*
X173230122Y-109362419D02*
X173039646Y-109362419D01*
X173039646Y-109362419D02*
X172944408Y-109410038D01*
X172944408Y-109410038D02*
X172896789Y-109457657D01*
X172896789Y-109457657D02*
X172849170Y-109552895D01*
X172849170Y-109552895D02*
X172849170Y-109790990D01*
X172849170Y-109790990D02*
X172896789Y-109886228D01*
X172896789Y-109886228D02*
X172944408Y-109933847D01*
X172944408Y-109933847D02*
X173039646Y-109981466D01*
X173039646Y-109981466D02*
X173230122Y-109981466D01*
X173230122Y-109981466D02*
X173325360Y-109933847D01*
X173325360Y-109933847D02*
X173372979Y-109886228D01*
X173372979Y-109886228D02*
X173420598Y-109790990D01*
X134368265Y-143080800D02*
X134511122Y-143128419D01*
X134511122Y-143128419D02*
X134749217Y-143128419D01*
X134749217Y-143128419D02*
X134844455Y-143080800D01*
X134844455Y-143080800D02*
X134892074Y-143033180D01*
X134892074Y-143033180D02*
X134939693Y-142937942D01*
X134939693Y-142937942D02*
X134939693Y-142842704D01*
X134939693Y-142842704D02*
X134892074Y-142747466D01*
X134892074Y-142747466D02*
X134844455Y-142699847D01*
X134844455Y-142699847D02*
X134749217Y-142652228D01*
X134749217Y-142652228D02*
X134558741Y-142604609D01*
X134558741Y-142604609D02*
X134463503Y-142556990D01*
X134463503Y-142556990D02*
X134415884Y-142509371D01*
X134415884Y-142509371D02*
X134368265Y-142414133D01*
X134368265Y-142414133D02*
X134368265Y-142318895D01*
X134368265Y-142318895D02*
X134415884Y-142223657D01*
X134415884Y-142223657D02*
X134463503Y-142176038D01*
X134463503Y-142176038D02*
X134558741Y-142128419D01*
X134558741Y-142128419D02*
X134796836Y-142128419D01*
X134796836Y-142128419D02*
X134939693Y-142176038D01*
X135796836Y-143080800D02*
X135701598Y-143128419D01*
X135701598Y-143128419D02*
X135511122Y-143128419D01*
X135511122Y-143128419D02*
X135415884Y-143080800D01*
X135415884Y-143080800D02*
X135368265Y-143033180D01*
X135368265Y-143033180D02*
X135320646Y-142937942D01*
X135320646Y-142937942D02*
X135320646Y-142652228D01*
X135320646Y-142652228D02*
X135368265Y-142556990D01*
X135368265Y-142556990D02*
X135415884Y-142509371D01*
X135415884Y-142509371D02*
X135511122Y-142461752D01*
X135511122Y-142461752D02*
X135701598Y-142461752D01*
X135701598Y-142461752D02*
X135796836Y-142509371D01*
X136225408Y-143128419D02*
X136225408Y-142128419D01*
X136653979Y-143128419D02*
X136653979Y-142604609D01*
X136653979Y-142604609D02*
X136606360Y-142509371D01*
X136606360Y-142509371D02*
X136511122Y-142461752D01*
X136511122Y-142461752D02*
X136368265Y-142461752D01*
X136368265Y-142461752D02*
X136273027Y-142509371D01*
X136273027Y-142509371D02*
X136225408Y-142556990D01*
X137130170Y-143128419D02*
X137130170Y-142461752D01*
X137130170Y-142556990D02*
X137177789Y-142509371D01*
X137177789Y-142509371D02*
X137273027Y-142461752D01*
X137273027Y-142461752D02*
X137415884Y-142461752D01*
X137415884Y-142461752D02*
X137511122Y-142509371D01*
X137511122Y-142509371D02*
X137558741Y-142604609D01*
X137558741Y-142604609D02*
X137558741Y-143128419D01*
X137558741Y-142604609D02*
X137606360Y-142509371D01*
X137606360Y-142509371D02*
X137701598Y-142461752D01*
X137701598Y-142461752D02*
X137844455Y-142461752D01*
X137844455Y-142461752D02*
X137939694Y-142509371D01*
X137939694Y-142509371D02*
X137987313Y-142604609D01*
X137987313Y-142604609D02*
X137987313Y-143128419D01*
X138463503Y-143128419D02*
X138463503Y-142461752D01*
X138463503Y-142128419D02*
X138415884Y-142176038D01*
X138415884Y-142176038D02*
X138463503Y-142223657D01*
X138463503Y-142223657D02*
X138511122Y-142176038D01*
X138511122Y-142176038D02*
X138463503Y-142128419D01*
X138463503Y-142128419D02*
X138463503Y-142223657D01*
X138796836Y-142461752D02*
X139177788Y-142461752D01*
X138939693Y-142128419D02*
X138939693Y-142985561D01*
X138939693Y-142985561D02*
X138987312Y-143080800D01*
X138987312Y-143080800D02*
X139082550Y-143128419D01*
X139082550Y-143128419D02*
X139177788Y-143128419D01*
X139368265Y-142461752D02*
X139749217Y-142461752D01*
X139511122Y-142128419D02*
X139511122Y-142985561D01*
X139511122Y-142985561D02*
X139558741Y-143080800D01*
X139558741Y-143080800D02*
X139653979Y-143128419D01*
X139653979Y-143128419D02*
X139749217Y-143128419D01*
X140701599Y-142128419D02*
X141273027Y-142128419D01*
X140987313Y-143128419D02*
X140987313Y-142128419D01*
X141606361Y-143128419D02*
X141606361Y-142461752D01*
X141606361Y-142652228D02*
X141653980Y-142556990D01*
X141653980Y-142556990D02*
X141701599Y-142509371D01*
X141701599Y-142509371D02*
X141796837Y-142461752D01*
X141796837Y-142461752D02*
X141892075Y-142461752D01*
X142225409Y-143128419D02*
X142225409Y-142461752D01*
X142225409Y-142128419D02*
X142177790Y-142176038D01*
X142177790Y-142176038D02*
X142225409Y-142223657D01*
X142225409Y-142223657D02*
X142273028Y-142176038D01*
X142273028Y-142176038D02*
X142225409Y-142128419D01*
X142225409Y-142128419D02*
X142225409Y-142223657D01*
X143130170Y-142461752D02*
X143130170Y-143271276D01*
X143130170Y-143271276D02*
X143082551Y-143366514D01*
X143082551Y-143366514D02*
X143034932Y-143414133D01*
X143034932Y-143414133D02*
X142939694Y-143461752D01*
X142939694Y-143461752D02*
X142796837Y-143461752D01*
X142796837Y-143461752D02*
X142701599Y-143414133D01*
X143130170Y-143080800D02*
X143034932Y-143128419D01*
X143034932Y-143128419D02*
X142844456Y-143128419D01*
X142844456Y-143128419D02*
X142749218Y-143080800D01*
X142749218Y-143080800D02*
X142701599Y-143033180D01*
X142701599Y-143033180D02*
X142653980Y-142937942D01*
X142653980Y-142937942D02*
X142653980Y-142652228D01*
X142653980Y-142652228D02*
X142701599Y-142556990D01*
X142701599Y-142556990D02*
X142749218Y-142509371D01*
X142749218Y-142509371D02*
X142844456Y-142461752D01*
X142844456Y-142461752D02*
X143034932Y-142461752D01*
X143034932Y-142461752D02*
X143130170Y-142509371D01*
X144034932Y-142461752D02*
X144034932Y-143271276D01*
X144034932Y-143271276D02*
X143987313Y-143366514D01*
X143987313Y-143366514D02*
X143939694Y-143414133D01*
X143939694Y-143414133D02*
X143844456Y-143461752D01*
X143844456Y-143461752D02*
X143701599Y-143461752D01*
X143701599Y-143461752D02*
X143606361Y-143414133D01*
X144034932Y-143080800D02*
X143939694Y-143128419D01*
X143939694Y-143128419D02*
X143749218Y-143128419D01*
X143749218Y-143128419D02*
X143653980Y-143080800D01*
X143653980Y-143080800D02*
X143606361Y-143033180D01*
X143606361Y-143033180D02*
X143558742Y-142937942D01*
X143558742Y-142937942D02*
X143558742Y-142652228D01*
X143558742Y-142652228D02*
X143606361Y-142556990D01*
X143606361Y-142556990D02*
X143653980Y-142509371D01*
X143653980Y-142509371D02*
X143749218Y-142461752D01*
X143749218Y-142461752D02*
X143939694Y-142461752D01*
X143939694Y-142461752D02*
X144034932Y-142509371D01*
X144892075Y-143080800D02*
X144796837Y-143128419D01*
X144796837Y-143128419D02*
X144606361Y-143128419D01*
X144606361Y-143128419D02*
X144511123Y-143080800D01*
X144511123Y-143080800D02*
X144463504Y-142985561D01*
X144463504Y-142985561D02*
X144463504Y-142604609D01*
X144463504Y-142604609D02*
X144511123Y-142509371D01*
X144511123Y-142509371D02*
X144606361Y-142461752D01*
X144606361Y-142461752D02*
X144796837Y-142461752D01*
X144796837Y-142461752D02*
X144892075Y-142509371D01*
X144892075Y-142509371D02*
X144939694Y-142604609D01*
X144939694Y-142604609D02*
X144939694Y-142699847D01*
X144939694Y-142699847D02*
X144463504Y-142795085D01*
X145368266Y-143128419D02*
X145368266Y-142461752D01*
X145368266Y-142652228D02*
X145415885Y-142556990D01*
X145415885Y-142556990D02*
X145463504Y-142509371D01*
X145463504Y-142509371D02*
X145558742Y-142461752D01*
X145558742Y-142461752D02*
X145653980Y-142461752D01*
X146749219Y-143128419D02*
X146749219Y-142128419D01*
X147225409Y-142461752D02*
X147225409Y-143128419D01*
X147225409Y-142556990D02*
X147273028Y-142509371D01*
X147273028Y-142509371D02*
X147368266Y-142461752D01*
X147368266Y-142461752D02*
X147511123Y-142461752D01*
X147511123Y-142461752D02*
X147606361Y-142509371D01*
X147606361Y-142509371D02*
X147653980Y-142604609D01*
X147653980Y-142604609D02*
X147653980Y-143128419D01*
X148130171Y-142461752D02*
X148130171Y-143461752D01*
X148130171Y-142509371D02*
X148225409Y-142461752D01*
X148225409Y-142461752D02*
X148415885Y-142461752D01*
X148415885Y-142461752D02*
X148511123Y-142509371D01*
X148511123Y-142509371D02*
X148558742Y-142556990D01*
X148558742Y-142556990D02*
X148606361Y-142652228D01*
X148606361Y-142652228D02*
X148606361Y-142937942D01*
X148606361Y-142937942D02*
X148558742Y-143033180D01*
X148558742Y-143033180D02*
X148511123Y-143080800D01*
X148511123Y-143080800D02*
X148415885Y-143128419D01*
X148415885Y-143128419D02*
X148225409Y-143128419D01*
X148225409Y-143128419D02*
X148130171Y-143080800D01*
X149463504Y-142461752D02*
X149463504Y-143128419D01*
X149034933Y-142461752D02*
X149034933Y-142985561D01*
X149034933Y-142985561D02*
X149082552Y-143080800D01*
X149082552Y-143080800D02*
X149177790Y-143128419D01*
X149177790Y-143128419D02*
X149320647Y-143128419D01*
X149320647Y-143128419D02*
X149415885Y-143080800D01*
X149415885Y-143080800D02*
X149463504Y-143033180D01*
X149796838Y-142461752D02*
X150177790Y-142461752D01*
X149939695Y-142128419D02*
X149939695Y-142985561D01*
X149939695Y-142985561D02*
X149987314Y-143080800D01*
X149987314Y-143080800D02*
X150082552Y-143128419D01*
X150082552Y-143128419D02*
X150177790Y-143128419D01*
X150463505Y-143080800D02*
X150558743Y-143128419D01*
X150558743Y-143128419D02*
X150749219Y-143128419D01*
X150749219Y-143128419D02*
X150844457Y-143080800D01*
X150844457Y-143080800D02*
X150892076Y-142985561D01*
X150892076Y-142985561D02*
X150892076Y-142937942D01*
X150892076Y-142937942D02*
X150844457Y-142842704D01*
X150844457Y-142842704D02*
X150749219Y-142795085D01*
X150749219Y-142795085D02*
X150606362Y-142795085D01*
X150606362Y-142795085D02*
X150511124Y-142747466D01*
X150511124Y-142747466D02*
X150463505Y-142652228D01*
X150463505Y-142652228D02*
X150463505Y-142604609D01*
X150463505Y-142604609D02*
X150511124Y-142509371D01*
X150511124Y-142509371D02*
X150606362Y-142461752D01*
X150606362Y-142461752D02*
X150749219Y-142461752D01*
X150749219Y-142461752D02*
X150844457Y-142509371D01*
X124763884Y-112648419D02*
X124763884Y-111648419D01*
X124763884Y-111648419D02*
X125097217Y-112362704D01*
X125097217Y-112362704D02*
X125430550Y-111648419D01*
X125430550Y-111648419D02*
X125430550Y-112648419D01*
X125859122Y-112362704D02*
X126335312Y-112362704D01*
X125763884Y-112648419D02*
X126097217Y-111648419D01*
X126097217Y-111648419D02*
X126430550Y-112648419D01*
X127335312Y-112648419D02*
X127001979Y-112172228D01*
X126763884Y-112648419D02*
X126763884Y-111648419D01*
X126763884Y-111648419D02*
X127144836Y-111648419D01*
X127144836Y-111648419D02*
X127240074Y-111696038D01*
X127240074Y-111696038D02*
X127287693Y-111743657D01*
X127287693Y-111743657D02*
X127335312Y-111838895D01*
X127335312Y-111838895D02*
X127335312Y-111981752D01*
X127335312Y-111981752D02*
X127287693Y-112076990D01*
X127287693Y-112076990D02*
X127240074Y-112124609D01*
X127240074Y-112124609D02*
X127144836Y-112172228D01*
X127144836Y-112172228D02*
X126763884Y-112172228D01*
X127716265Y-112600800D02*
X127859122Y-112648419D01*
X127859122Y-112648419D02*
X128097217Y-112648419D01*
X128097217Y-112648419D02*
X128192455Y-112600800D01*
X128192455Y-112600800D02*
X128240074Y-112553180D01*
X128240074Y-112553180D02*
X128287693Y-112457942D01*
X128287693Y-112457942D02*
X128287693Y-112362704D01*
X128287693Y-112362704D02*
X128240074Y-112267466D01*
X128240074Y-112267466D02*
X128192455Y-112219847D01*
X128192455Y-112219847D02*
X128097217Y-112172228D01*
X128097217Y-112172228D02*
X127906741Y-112124609D01*
X127906741Y-112124609D02*
X127811503Y-112076990D01*
X127811503Y-112076990D02*
X127763884Y-112029371D01*
X127763884Y-112029371D02*
X127716265Y-111934133D01*
X127716265Y-111934133D02*
X127716265Y-111838895D01*
X127716265Y-111838895D02*
X127763884Y-111743657D01*
X127763884Y-111743657D02*
X127811503Y-111696038D01*
X127811503Y-111696038D02*
X127906741Y-111648419D01*
X127906741Y-111648419D02*
X128144836Y-111648419D01*
X128144836Y-111648419D02*
X128287693Y-111696038D01*
D12*
X141906666Y-155156819D02*
X141906666Y-155871104D01*
X141906666Y-155871104D02*
X141859047Y-156013961D01*
X141859047Y-156013961D02*
X141763809Y-156109200D01*
X141763809Y-156109200D02*
X141620952Y-156156819D01*
X141620952Y-156156819D02*
X141525714Y-156156819D01*
X142287619Y-155156819D02*
X142906666Y-155156819D01*
X142906666Y-155156819D02*
X142573333Y-155537771D01*
X142573333Y-155537771D02*
X142716190Y-155537771D01*
X142716190Y-155537771D02*
X142811428Y-155585390D01*
X142811428Y-155585390D02*
X142859047Y-155633009D01*
X142859047Y-155633009D02*
X142906666Y-155728247D01*
X142906666Y-155728247D02*
X142906666Y-155966342D01*
X142906666Y-155966342D02*
X142859047Y-156061580D01*
X142859047Y-156061580D02*
X142811428Y-156109200D01*
X142811428Y-156109200D02*
X142716190Y-156156819D01*
X142716190Y-156156819D02*
X142430476Y-156156819D01*
X142430476Y-156156819D02*
X142335238Y-156109200D01*
X142335238Y-156109200D02*
X142287619Y-156061580D01*
X149732319Y-113836666D02*
X149256128Y-114169999D01*
X149732319Y-114408094D02*
X148732319Y-114408094D01*
X148732319Y-114408094D02*
X148732319Y-114027142D01*
X148732319Y-114027142D02*
X148779938Y-113931904D01*
X148779938Y-113931904D02*
X148827557Y-113884285D01*
X148827557Y-113884285D02*
X148922795Y-113836666D01*
X148922795Y-113836666D02*
X149065652Y-113836666D01*
X149065652Y-113836666D02*
X149160890Y-113884285D01*
X149160890Y-113884285D02*
X149208509Y-113931904D01*
X149208509Y-113931904D02*
X149256128Y-114027142D01*
X149256128Y-114027142D02*
X149256128Y-114408094D01*
X148827557Y-113455713D02*
X148779938Y-113408094D01*
X148779938Y-113408094D02*
X148732319Y-113312856D01*
X148732319Y-113312856D02*
X148732319Y-113074761D01*
X148732319Y-113074761D02*
X148779938Y-112979523D01*
X148779938Y-112979523D02*
X148827557Y-112931904D01*
X148827557Y-112931904D02*
X148922795Y-112884285D01*
X148922795Y-112884285D02*
X149018033Y-112884285D01*
X149018033Y-112884285D02*
X149160890Y-112931904D01*
X149160890Y-112931904D02*
X149732319Y-113503332D01*
X149732319Y-113503332D02*
X149732319Y-112884285D01*
X172132666Y-139789819D02*
X172132666Y-140504104D01*
X172132666Y-140504104D02*
X172085047Y-140646961D01*
X172085047Y-140646961D02*
X171989809Y-140742200D01*
X171989809Y-140742200D02*
X171846952Y-140789819D01*
X171846952Y-140789819D02*
X171751714Y-140789819D01*
X172513619Y-139789819D02*
X173180285Y-139789819D01*
X173180285Y-139789819D02*
X172751714Y-140789819D01*
X130984666Y-155156819D02*
X130984666Y-155871104D01*
X130984666Y-155871104D02*
X130937047Y-156013961D01*
X130937047Y-156013961D02*
X130841809Y-156109200D01*
X130841809Y-156109200D02*
X130698952Y-156156819D01*
X130698952Y-156156819D02*
X130603714Y-156156819D01*
X131889428Y-155490152D02*
X131889428Y-156156819D01*
X131651333Y-155109200D02*
X131413238Y-155823485D01*
X131413238Y-155823485D02*
X132032285Y-155823485D01*
X150904819Y-102261904D02*
X151714342Y-102261904D01*
X151714342Y-102261904D02*
X151809580Y-102214285D01*
X151809580Y-102214285D02*
X151857200Y-102166666D01*
X151857200Y-102166666D02*
X151904819Y-102071428D01*
X151904819Y-102071428D02*
X151904819Y-101880952D01*
X151904819Y-101880952D02*
X151857200Y-101785714D01*
X151857200Y-101785714D02*
X151809580Y-101738095D01*
X151809580Y-101738095D02*
X151714342Y-101690476D01*
X151714342Y-101690476D02*
X150904819Y-101690476D01*
X151238152Y-100785714D02*
X151904819Y-100785714D01*
X150857200Y-101023809D02*
X151571485Y-101261904D01*
X151571485Y-101261904D02*
X151571485Y-100642857D01*
X114936666Y-95684819D02*
X114936666Y-96399104D01*
X114936666Y-96399104D02*
X114889047Y-96541961D01*
X114889047Y-96541961D02*
X114793809Y-96637200D01*
X114793809Y-96637200D02*
X114650952Y-96684819D01*
X114650952Y-96684819D02*
X114555714Y-96684819D01*
X115841428Y-95684819D02*
X115650952Y-95684819D01*
X115650952Y-95684819D02*
X115555714Y-95732438D01*
X115555714Y-95732438D02*
X115508095Y-95780057D01*
X115508095Y-95780057D02*
X115412857Y-95922914D01*
X115412857Y-95922914D02*
X115365238Y-96113390D01*
X115365238Y-96113390D02*
X115365238Y-96494342D01*
X115365238Y-96494342D02*
X115412857Y-96589580D01*
X115412857Y-96589580D02*
X115460476Y-96637200D01*
X115460476Y-96637200D02*
X115555714Y-96684819D01*
X115555714Y-96684819D02*
X115746190Y-96684819D01*
X115746190Y-96684819D02*
X115841428Y-96637200D01*
X115841428Y-96637200D02*
X115889047Y-96589580D01*
X115889047Y-96589580D02*
X115936666Y-96494342D01*
X115936666Y-96494342D02*
X115936666Y-96256247D01*
X115936666Y-96256247D02*
X115889047Y-96161009D01*
X115889047Y-96161009D02*
X115841428Y-96113390D01*
X115841428Y-96113390D02*
X115746190Y-96065771D01*
X115746190Y-96065771D02*
X115555714Y-96065771D01*
X115555714Y-96065771D02*
X115460476Y-96113390D01*
X115460476Y-96113390D02*
X115412857Y-96161009D01*
X115412857Y-96161009D02*
X115365238Y-96256247D01*
X172037476Y-93815819D02*
X172037476Y-94530104D01*
X172037476Y-94530104D02*
X171989857Y-94672961D01*
X171989857Y-94672961D02*
X171894619Y-94768200D01*
X171894619Y-94768200D02*
X171751762Y-94815819D01*
X171751762Y-94815819D02*
X171656524Y-94815819D01*
X173037476Y-94815819D02*
X172466048Y-94815819D01*
X172751762Y-94815819D02*
X172751762Y-93815819D01*
X172751762Y-93815819D02*
X172656524Y-93958676D01*
X172656524Y-93958676D02*
X172561286Y-94053914D01*
X172561286Y-94053914D02*
X172466048Y-94101533D01*
X173656524Y-93815819D02*
X173751762Y-93815819D01*
X173751762Y-93815819D02*
X173847000Y-93863438D01*
X173847000Y-93863438D02*
X173894619Y-93911057D01*
X173894619Y-93911057D02*
X173942238Y-94006295D01*
X173942238Y-94006295D02*
X173989857Y-94196771D01*
X173989857Y-94196771D02*
X173989857Y-94434866D01*
X173989857Y-94434866D02*
X173942238Y-94625342D01*
X173942238Y-94625342D02*
X173894619Y-94720580D01*
X173894619Y-94720580D02*
X173847000Y-94768200D01*
X173847000Y-94768200D02*
X173751762Y-94815819D01*
X173751762Y-94815819D02*
X173656524Y-94815819D01*
X173656524Y-94815819D02*
X173561286Y-94768200D01*
X173561286Y-94768200D02*
X173513667Y-94720580D01*
X173513667Y-94720580D02*
X173466048Y-94625342D01*
X173466048Y-94625342D02*
X173418429Y-94434866D01*
X173418429Y-94434866D02*
X173418429Y-94196771D01*
X173418429Y-94196771D02*
X173466048Y-94006295D01*
X173466048Y-94006295D02*
X173513667Y-93911057D01*
X173513667Y-93911057D02*
X173561286Y-93863438D01*
X173561286Y-93863438D02*
X173656524Y-93815819D01*
X143955833Y-119392080D02*
X143908214Y-119439700D01*
X143908214Y-119439700D02*
X143765357Y-119487319D01*
X143765357Y-119487319D02*
X143670119Y-119487319D01*
X143670119Y-119487319D02*
X143527262Y-119439700D01*
X143527262Y-119439700D02*
X143432024Y-119344461D01*
X143432024Y-119344461D02*
X143384405Y-119249223D01*
X143384405Y-119249223D02*
X143336786Y-119058747D01*
X143336786Y-119058747D02*
X143336786Y-118915890D01*
X143336786Y-118915890D02*
X143384405Y-118725414D01*
X143384405Y-118725414D02*
X143432024Y-118630176D01*
X143432024Y-118630176D02*
X143527262Y-118534938D01*
X143527262Y-118534938D02*
X143670119Y-118487319D01*
X143670119Y-118487319D02*
X143765357Y-118487319D01*
X143765357Y-118487319D02*
X143908214Y-118534938D01*
X143908214Y-118534938D02*
X143955833Y-118582557D01*
X144289167Y-118487319D02*
X144955833Y-118487319D01*
X144955833Y-118487319D02*
X144527262Y-119487319D01*
X141184333Y-106785580D02*
X141136714Y-106833200D01*
X141136714Y-106833200D02*
X140993857Y-106880819D01*
X140993857Y-106880819D02*
X140898619Y-106880819D01*
X140898619Y-106880819D02*
X140755762Y-106833200D01*
X140755762Y-106833200D02*
X140660524Y-106737961D01*
X140660524Y-106737961D02*
X140612905Y-106642723D01*
X140612905Y-106642723D02*
X140565286Y-106452247D01*
X140565286Y-106452247D02*
X140565286Y-106309390D01*
X140565286Y-106309390D02*
X140612905Y-106118914D01*
X140612905Y-106118914D02*
X140660524Y-106023676D01*
X140660524Y-106023676D02*
X140755762Y-105928438D01*
X140755762Y-105928438D02*
X140898619Y-105880819D01*
X140898619Y-105880819D02*
X140993857Y-105880819D01*
X140993857Y-105880819D02*
X141136714Y-105928438D01*
X141136714Y-105928438D02*
X141184333Y-105976057D01*
X141755762Y-106309390D02*
X141660524Y-106261771D01*
X141660524Y-106261771D02*
X141612905Y-106214152D01*
X141612905Y-106214152D02*
X141565286Y-106118914D01*
X141565286Y-106118914D02*
X141565286Y-106071295D01*
X141565286Y-106071295D02*
X141612905Y-105976057D01*
X141612905Y-105976057D02*
X141660524Y-105928438D01*
X141660524Y-105928438D02*
X141755762Y-105880819D01*
X141755762Y-105880819D02*
X141946238Y-105880819D01*
X141946238Y-105880819D02*
X142041476Y-105928438D01*
X142041476Y-105928438D02*
X142089095Y-105976057D01*
X142089095Y-105976057D02*
X142136714Y-106071295D01*
X142136714Y-106071295D02*
X142136714Y-106118914D01*
X142136714Y-106118914D02*
X142089095Y-106214152D01*
X142089095Y-106214152D02*
X142041476Y-106261771D01*
X142041476Y-106261771D02*
X141946238Y-106309390D01*
X141946238Y-106309390D02*
X141755762Y-106309390D01*
X141755762Y-106309390D02*
X141660524Y-106357009D01*
X141660524Y-106357009D02*
X141612905Y-106404628D01*
X141612905Y-106404628D02*
X141565286Y-106499866D01*
X141565286Y-106499866D02*
X141565286Y-106690342D01*
X141565286Y-106690342D02*
X141612905Y-106785580D01*
X141612905Y-106785580D02*
X141660524Y-106833200D01*
X141660524Y-106833200D02*
X141755762Y-106880819D01*
X141755762Y-106880819D02*
X141946238Y-106880819D01*
X141946238Y-106880819D02*
X142041476Y-106833200D01*
X142041476Y-106833200D02*
X142089095Y-106785580D01*
X142089095Y-106785580D02*
X142136714Y-106690342D01*
X142136714Y-106690342D02*
X142136714Y-106499866D01*
X142136714Y-106499866D02*
X142089095Y-106404628D01*
X142089095Y-106404628D02*
X142041476Y-106357009D01*
X142041476Y-106357009D02*
X141946238Y-106309390D01*
X153307080Y-119899166D02*
X153354700Y-119946785D01*
X153354700Y-119946785D02*
X153402319Y-120089642D01*
X153402319Y-120089642D02*
X153402319Y-120184880D01*
X153402319Y-120184880D02*
X153354700Y-120327737D01*
X153354700Y-120327737D02*
X153259461Y-120422975D01*
X153259461Y-120422975D02*
X153164223Y-120470594D01*
X153164223Y-120470594D02*
X152973747Y-120518213D01*
X152973747Y-120518213D02*
X152830890Y-120518213D01*
X152830890Y-120518213D02*
X152640414Y-120470594D01*
X152640414Y-120470594D02*
X152545176Y-120422975D01*
X152545176Y-120422975D02*
X152449938Y-120327737D01*
X152449938Y-120327737D02*
X152402319Y-120184880D01*
X152402319Y-120184880D02*
X152402319Y-120089642D01*
X152402319Y-120089642D02*
X152449938Y-119946785D01*
X152449938Y-119946785D02*
X152497557Y-119899166D01*
X152402319Y-119042023D02*
X152402319Y-119232499D01*
X152402319Y-119232499D02*
X152449938Y-119327737D01*
X152449938Y-119327737D02*
X152497557Y-119375356D01*
X152497557Y-119375356D02*
X152640414Y-119470594D01*
X152640414Y-119470594D02*
X152830890Y-119518213D01*
X152830890Y-119518213D02*
X153211842Y-119518213D01*
X153211842Y-119518213D02*
X153307080Y-119470594D01*
X153307080Y-119470594D02*
X153354700Y-119422975D01*
X153354700Y-119422975D02*
X153402319Y-119327737D01*
X153402319Y-119327737D02*
X153402319Y-119137261D01*
X153402319Y-119137261D02*
X153354700Y-119042023D01*
X153354700Y-119042023D02*
X153307080Y-118994404D01*
X153307080Y-118994404D02*
X153211842Y-118946785D01*
X153211842Y-118946785D02*
X152973747Y-118946785D01*
X152973747Y-118946785D02*
X152878509Y-118994404D01*
X152878509Y-118994404D02*
X152830890Y-119042023D01*
X152830890Y-119042023D02*
X152783271Y-119137261D01*
X152783271Y-119137261D02*
X152783271Y-119327737D01*
X152783271Y-119327737D02*
X152830890Y-119422975D01*
X152830890Y-119422975D02*
X152878509Y-119470594D01*
X152878509Y-119470594D02*
X152973747Y-119518213D01*
X137807080Y-119849166D02*
X137854700Y-119896785D01*
X137854700Y-119896785D02*
X137902319Y-120039642D01*
X137902319Y-120039642D02*
X137902319Y-120134880D01*
X137902319Y-120134880D02*
X137854700Y-120277737D01*
X137854700Y-120277737D02*
X137759461Y-120372975D01*
X137759461Y-120372975D02*
X137664223Y-120420594D01*
X137664223Y-120420594D02*
X137473747Y-120468213D01*
X137473747Y-120468213D02*
X137330890Y-120468213D01*
X137330890Y-120468213D02*
X137140414Y-120420594D01*
X137140414Y-120420594D02*
X137045176Y-120372975D01*
X137045176Y-120372975D02*
X136949938Y-120277737D01*
X136949938Y-120277737D02*
X136902319Y-120134880D01*
X136902319Y-120134880D02*
X136902319Y-120039642D01*
X136902319Y-120039642D02*
X136949938Y-119896785D01*
X136949938Y-119896785D02*
X136997557Y-119849166D01*
X137902319Y-118896785D02*
X137902319Y-119468213D01*
X137902319Y-119182499D02*
X136902319Y-119182499D01*
X136902319Y-119182499D02*
X137045176Y-119277737D01*
X137045176Y-119277737D02*
X137140414Y-119372975D01*
X137140414Y-119372975D02*
X137188033Y-119468213D01*
X153044819Y-133234404D02*
X153854342Y-133234404D01*
X153854342Y-133234404D02*
X153949580Y-133186785D01*
X153949580Y-133186785D02*
X153997200Y-133139166D01*
X153997200Y-133139166D02*
X154044819Y-133043928D01*
X154044819Y-133043928D02*
X154044819Y-132853452D01*
X154044819Y-132853452D02*
X153997200Y-132758214D01*
X153997200Y-132758214D02*
X153949580Y-132710595D01*
X153949580Y-132710595D02*
X153854342Y-132662976D01*
X153854342Y-132662976D02*
X153044819Y-132662976D01*
X153140057Y-132234404D02*
X153092438Y-132186785D01*
X153092438Y-132186785D02*
X153044819Y-132091547D01*
X153044819Y-132091547D02*
X153044819Y-131853452D01*
X153044819Y-131853452D02*
X153092438Y-131758214D01*
X153092438Y-131758214D02*
X153140057Y-131710595D01*
X153140057Y-131710595D02*
X153235295Y-131662976D01*
X153235295Y-131662976D02*
X153330533Y-131662976D01*
X153330533Y-131662976D02*
X153473390Y-131710595D01*
X153473390Y-131710595D02*
X154044819Y-132282023D01*
X154044819Y-132282023D02*
X154044819Y-131662976D01*
X152574666Y-155156819D02*
X152574666Y-155871104D01*
X152574666Y-155871104D02*
X152527047Y-156013961D01*
X152527047Y-156013961D02*
X152431809Y-156109200D01*
X152431809Y-156109200D02*
X152288952Y-156156819D01*
X152288952Y-156156819D02*
X152193714Y-156156819D01*
X153003238Y-155252057D02*
X153050857Y-155204438D01*
X153050857Y-155204438D02*
X153146095Y-155156819D01*
X153146095Y-155156819D02*
X153384190Y-155156819D01*
X153384190Y-155156819D02*
X153479428Y-155204438D01*
X153479428Y-155204438D02*
X153527047Y-155252057D01*
X153527047Y-155252057D02*
X153574666Y-155347295D01*
X153574666Y-155347295D02*
X153574666Y-155442533D01*
X153574666Y-155442533D02*
X153527047Y-155585390D01*
X153527047Y-155585390D02*
X152955619Y-156156819D01*
X152955619Y-156156819D02*
X153574666Y-156156819D01*
X134232319Y-110911666D02*
X133756128Y-111244999D01*
X134232319Y-111483094D02*
X133232319Y-111483094D01*
X133232319Y-111483094D02*
X133232319Y-111102142D01*
X133232319Y-111102142D02*
X133279938Y-111006904D01*
X133279938Y-111006904D02*
X133327557Y-110959285D01*
X133327557Y-110959285D02*
X133422795Y-110911666D01*
X133422795Y-110911666D02*
X133565652Y-110911666D01*
X133565652Y-110911666D02*
X133660890Y-110959285D01*
X133660890Y-110959285D02*
X133708509Y-111006904D01*
X133708509Y-111006904D02*
X133756128Y-111102142D01*
X133756128Y-111102142D02*
X133756128Y-111483094D01*
X134232319Y-109959285D02*
X134232319Y-110530713D01*
X134232319Y-110244999D02*
X133232319Y-110244999D01*
X133232319Y-110244999D02*
X133375176Y-110340237D01*
X133375176Y-110340237D02*
X133470414Y-110435475D01*
X133470414Y-110435475D02*
X133518033Y-110530713D01*
X120189666Y-155029819D02*
X120189666Y-155744104D01*
X120189666Y-155744104D02*
X120142047Y-155886961D01*
X120142047Y-155886961D02*
X120046809Y-155982200D01*
X120046809Y-155982200D02*
X119903952Y-156029819D01*
X119903952Y-156029819D02*
X119808714Y-156029819D01*
X121142047Y-155029819D02*
X120665857Y-155029819D01*
X120665857Y-155029819D02*
X120618238Y-155506009D01*
X120618238Y-155506009D02*
X120665857Y-155458390D01*
X120665857Y-155458390D02*
X120761095Y-155410771D01*
X120761095Y-155410771D02*
X120999190Y-155410771D01*
X120999190Y-155410771D02*
X121094428Y-155458390D01*
X121094428Y-155458390D02*
X121142047Y-155506009D01*
X121142047Y-155506009D02*
X121189666Y-155601247D01*
X121189666Y-155601247D02*
X121189666Y-155839342D01*
X121189666Y-155839342D02*
X121142047Y-155934580D01*
X121142047Y-155934580D02*
X121094428Y-155982200D01*
X121094428Y-155982200D02*
X120999190Y-156029819D01*
X120999190Y-156029819D02*
X120761095Y-156029819D01*
X120761095Y-156029819D02*
X120665857Y-155982200D01*
X120665857Y-155982200D02*
X120618238Y-155934580D01*
X141585595Y-116574819D02*
X141585595Y-117384342D01*
X141585595Y-117384342D02*
X141633214Y-117479580D01*
X141633214Y-117479580D02*
X141680833Y-117527200D01*
X141680833Y-117527200D02*
X141776071Y-117574819D01*
X141776071Y-117574819D02*
X141966547Y-117574819D01*
X141966547Y-117574819D02*
X142061785Y-117527200D01*
X142061785Y-117527200D02*
X142109404Y-117479580D01*
X142109404Y-117479580D02*
X142157023Y-117384342D01*
X142157023Y-117384342D02*
X142157023Y-116574819D01*
X143157023Y-117574819D02*
X142585595Y-117574819D01*
X142871309Y-117574819D02*
X142871309Y-116574819D01*
X142871309Y-116574819D02*
X142776071Y-116717676D01*
X142776071Y-116717676D02*
X142680833Y-116812914D01*
X142680833Y-116812914D02*
X142585595Y-116860533D01*
D13*
%TO.C,J3*%
X143566667Y-144812500D02*
X150766667Y-144812500D01*
X143566667Y-156512500D02*
X143566667Y-144812500D01*
X150766667Y-144812500D02*
X150766667Y-156512500D01*
X150766667Y-156512500D02*
X143566667Y-156512500D01*
D14*
X147866667Y-157262500D02*
G75*
G02*
X147666667Y-157262500I-100000J0D01*
G01*
X147666667Y-157262500D02*
G75*
G02*
X147866667Y-157262500I100000J0D01*
G01*
D11*
%TO.C,R2*%
X150187500Y-114397064D02*
X150187500Y-112942936D01*
X152007500Y-114397064D02*
X152007500Y-112942936D01*
D13*
%TO.C,J7*%
X164000000Y-139650000D02*
X171200000Y-139650000D01*
X164000000Y-151350000D02*
X164000000Y-139650000D01*
X171200000Y-139650000D02*
X171200000Y-151350000D01*
X171200000Y-151350000D02*
X164000000Y-151350000D01*
D14*
X167100000Y-138900000D02*
G75*
G02*
X166900000Y-138900000I-100000J0D01*
G01*
X166900000Y-138900000D02*
G75*
G02*
X167100000Y-138900000I100000J0D01*
G01*
D13*
%TO.C,J4*%
X132733334Y-144812500D02*
X139933334Y-144812500D01*
X132733334Y-156512500D02*
X132733334Y-144812500D01*
X139933334Y-144812500D02*
X139933334Y-156512500D01*
X139933334Y-156512500D02*
X132733334Y-156512500D01*
D14*
X137033334Y-157262500D02*
G75*
G02*
X136833334Y-157262500I-100000J0D01*
G01*
X136833334Y-157262500D02*
G75*
G02*
X137033334Y-157262500I100000J0D01*
G01*
D12*
%TO.C,U4*%
X152375000Y-99875000D02*
X152600000Y-99875000D01*
X152375000Y-103125000D02*
X152375000Y-99875000D01*
X152375000Y-103125000D02*
X152600000Y-103125000D01*
X155625000Y-99875000D02*
X155400000Y-99875000D01*
X155625000Y-103125000D02*
X155400000Y-103125000D01*
X155625000Y-103125000D02*
X155625000Y-99875000D01*
D11*
X152600000Y-103600000D02*
X152270000Y-103840000D01*
X152270000Y-103360000D01*
X152600000Y-103600000D01*
G36*
X152600000Y-103600000D02*
G01*
X152270000Y-103840000D01*
X152270000Y-103360000D01*
X152600000Y-103600000D01*
G37*
%TO.C,J6*%
X112670000Y-97230000D02*
X114000000Y-97230000D01*
X112670000Y-98560000D02*
X112670000Y-97230000D01*
X112670000Y-99830000D02*
X112670000Y-148150000D01*
X112670000Y-99830000D02*
X115270000Y-99830000D01*
X112670000Y-148150000D02*
X117870000Y-148150000D01*
X115270000Y-97230000D02*
X117870000Y-97230000D01*
X115270000Y-99830000D02*
X115270000Y-97230000D01*
X117870000Y-97230000D02*
X117870000Y-148150000D01*
D13*
%TO.C,J10*%
X164000000Y-94150000D02*
X171200000Y-94150000D01*
X164000000Y-105850000D02*
X164000000Y-94150000D01*
X171200000Y-94150000D02*
X171200000Y-105850000D01*
X171200000Y-105850000D02*
X164000000Y-105850000D01*
D14*
X167100000Y-93400000D02*
G75*
G02*
X166900000Y-93400000I-100000J0D01*
G01*
X166900000Y-93400000D02*
G75*
G02*
X167100000Y-93400000I100000J0D01*
G01*
D15*
%TO.C,G\u002A\u002A\u002A*%
G36*
X124634071Y-106421674D02*
G01*
X124744829Y-106514749D01*
X124894956Y-106653518D01*
X125069535Y-106824598D01*
X125108137Y-106863612D01*
X125576513Y-107339549D01*
X127271054Y-107339549D01*
X128965595Y-107339549D01*
X129018392Y-107477320D01*
X129045384Y-107603097D01*
X129058883Y-107785124D01*
X129060105Y-107997734D01*
X129050268Y-108215260D01*
X129030589Y-108412034D01*
X129002285Y-108562388D01*
X128966572Y-108640657D01*
X128963115Y-108643238D01*
X128885281Y-108662040D01*
X128730298Y-108677457D01*
X128521198Y-108687816D01*
X128299308Y-108691444D01*
X128043142Y-108693730D01*
X127871675Y-108701126D01*
X127769458Y-108715622D01*
X127721043Y-108739212D01*
X127710649Y-108767359D01*
X127740562Y-108817216D01*
X127841984Y-108839680D01*
X127932832Y-108842507D01*
X128182038Y-108865140D01*
X128351859Y-108931334D01*
X128435063Y-109036550D01*
X128509688Y-109123437D01*
X128627220Y-109170700D01*
X128914366Y-109274230D01*
X129126827Y-109442696D01*
X129260943Y-109671708D01*
X129313049Y-109956873D01*
X129313618Y-109993881D01*
X129283969Y-110263414D01*
X129214157Y-110433139D01*
X129153469Y-110538366D01*
X129126249Y-110597145D01*
X129126672Y-110601133D01*
X129179061Y-110608204D01*
X129294220Y-110619261D01*
X129328967Y-110622236D01*
X129516865Y-110659362D01*
X129621993Y-110739842D01*
X129656813Y-110875888D01*
X129654504Y-110941209D01*
X129617630Y-111088919D01*
X129525818Y-111176628D01*
X129514200Y-111182727D01*
X129437560Y-111196254D01*
X129272092Y-111208205D01*
X129029150Y-111218572D01*
X128720092Y-111227351D01*
X128356272Y-111234536D01*
X127949048Y-111240120D01*
X127509775Y-111244099D01*
X127049809Y-111246467D01*
X126580505Y-111247217D01*
X126113221Y-111246344D01*
X125659312Y-111243843D01*
X125230134Y-111239707D01*
X124837043Y-111233931D01*
X124491394Y-111226509D01*
X124204545Y-111217435D01*
X123987851Y-111206704D01*
X123852667Y-111194310D01*
X123814393Y-111185610D01*
X123704096Y-111081954D01*
X123659380Y-110928030D01*
X123676068Y-110801529D01*
X123740819Y-110727083D01*
X123860835Y-110660663D01*
X123994079Y-110619234D01*
X124098516Y-110619762D01*
X124111372Y-110625843D01*
X124183122Y-110642222D01*
X124207162Y-110586980D01*
X125506310Y-110586980D01*
X125550546Y-110602728D01*
X125659963Y-110613512D01*
X125799624Y-110618375D01*
X125934594Y-110616361D01*
X126029936Y-110606513D01*
X126045888Y-110601761D01*
X126033670Y-110558420D01*
X125987117Y-110455619D01*
X125958216Y-110397560D01*
X125872058Y-110129260D01*
X125874523Y-109945257D01*
X126320211Y-109945257D01*
X126330565Y-110078308D01*
X126389088Y-110234943D01*
X126482124Y-110316844D01*
X126637113Y-110344582D01*
X126686921Y-110345466D01*
X126846352Y-110330741D01*
X126944992Y-110277423D01*
X126981379Y-110234121D01*
X127057712Y-110055118D01*
X127046435Y-109882323D01*
X126953328Y-109739241D01*
X126842466Y-109669310D01*
X126657948Y-109635146D01*
X126495789Y-109680623D01*
X126376405Y-109789431D01*
X126320211Y-109945257D01*
X125874523Y-109945257D01*
X125875642Y-109861763D01*
X125960003Y-109613087D01*
X126116176Y-109401250D01*
X126228050Y-109321067D01*
X127238331Y-109321067D01*
X127249603Y-109355007D01*
X127271005Y-109381067D01*
X127430485Y-109633443D01*
X127502258Y-109914764D01*
X127483256Y-110203537D01*
X127415843Y-110395420D01*
X127362738Y-110518727D01*
X127340254Y-110598971D01*
X127342407Y-110611806D01*
X127396285Y-110619052D01*
X127513967Y-110621420D01*
X127659214Y-110619538D01*
X127795784Y-110614037D01*
X127887436Y-110605546D01*
X127901931Y-110602088D01*
X127886281Y-110562176D01*
X127827757Y-110470090D01*
X127803310Y-110435079D01*
X127705531Y-110218284D01*
X127680168Y-109968776D01*
X127686216Y-109936540D01*
X128137156Y-109936540D01*
X128155280Y-110104796D01*
X128248353Y-110257793D01*
X128371772Y-110330394D01*
X128531823Y-110347645D01*
X128685985Y-110311424D01*
X128784929Y-110234121D01*
X128845696Y-110099363D01*
X128862918Y-109994776D01*
X128822865Y-109810214D01*
X128708626Y-109690430D01*
X128529082Y-109644325D01*
X128513023Y-109644085D01*
X128325603Y-109683981D01*
X128197122Y-109788868D01*
X128137156Y-109936540D01*
X127686216Y-109936540D01*
X127726420Y-109722244D01*
X127823371Y-109539159D01*
X127906268Y-109424154D01*
X127955372Y-109343171D01*
X127961142Y-109326240D01*
X127915092Y-109310682D01*
X127793098Y-109299107D01*
X127619397Y-109293590D01*
X127577638Y-109293395D01*
X127386063Y-109294918D01*
X127278389Y-109302590D01*
X127238331Y-109321067D01*
X126228050Y-109321067D01*
X126335196Y-109244272D01*
X126570906Y-109166161D01*
X126694234Y-109127845D01*
X126756450Y-109076482D01*
X126758776Y-109065216D01*
X126801965Y-108979971D01*
X126907282Y-108900140D01*
X127038352Y-108849483D01*
X127099739Y-108842507D01*
X127186340Y-108821141D01*
X127197216Y-108779884D01*
X127151752Y-108750264D01*
X127031994Y-108728263D01*
X126829246Y-108712857D01*
X126546272Y-108703273D01*
X125916127Y-108689285D01*
X125759666Y-108953766D01*
X125666302Y-109109282D01*
X125586319Y-109238517D01*
X125546902Y-109298924D01*
X125522028Y-109373884D01*
X125545512Y-109481629D01*
X125598652Y-109602808D01*
X125691129Y-109879045D01*
X125688317Y-110136645D01*
X125606507Y-110358551D01*
X125544186Y-110483888D01*
X125509123Y-110571984D01*
X125506310Y-110586980D01*
X124207162Y-110586980D01*
X124207696Y-110585753D01*
X124182618Y-110473262D01*
X124145827Y-110391808D01*
X124076528Y-110216182D01*
X124057956Y-110027917D01*
X124061958Y-109952632D01*
X124503175Y-109952632D01*
X124527823Y-110131759D01*
X124582326Y-110234121D01*
X124696650Y-110319163D01*
X124856621Y-110349326D01*
X125023569Y-110323860D01*
X125155620Y-110245269D01*
X125243299Y-110101617D01*
X125249722Y-109950161D01*
X125190164Y-109809956D01*
X125079898Y-109700058D01*
X124934200Y-109639522D01*
X124768343Y-109647402D01*
X124698279Y-109674725D01*
X124561740Y-109791861D01*
X124503175Y-109952632D01*
X124061958Y-109952632D01*
X124063392Y-109925666D01*
X124129322Y-109636903D01*
X124270509Y-109412623D01*
X124481484Y-109257955D01*
X124756775Y-109178030D01*
X124870657Y-109168538D01*
X125022892Y-109155646D01*
X125116842Y-109115207D01*
X125194349Y-109023514D01*
X125232309Y-108963616D01*
X125304888Y-108838449D01*
X125348731Y-108749311D01*
X125354451Y-108729785D01*
X125308839Y-108713142D01*
X125185448Y-108700276D01*
X125006676Y-108693089D01*
X124911261Y-108692211D01*
X124665606Y-108686343D01*
X124506426Y-108667526D01*
X124420617Y-108633942D01*
X124408638Y-108622483D01*
X124379956Y-108530243D01*
X124364777Y-108339228D01*
X124364228Y-108242529D01*
X124804929Y-108242529D01*
X126696152Y-108229402D01*
X128587375Y-108216275D01*
X128587375Y-108015880D01*
X128587375Y-107815486D01*
X126696152Y-107802359D01*
X124804929Y-107789231D01*
X124804929Y-108015880D01*
X124804929Y-108242529D01*
X124364228Y-108242529D01*
X124363134Y-108049952D01*
X124363804Y-108015880D01*
X124364930Y-107958676D01*
X124379091Y-107364598D01*
X124617060Y-107349328D01*
X124755803Y-107335882D01*
X124841564Y-107318818D01*
X124855028Y-107309992D01*
X124824485Y-107234762D01*
X124754284Y-107138876D01*
X124676571Y-107061429D01*
X124632176Y-107038957D01*
X124589522Y-107079163D01*
X124499988Y-107192584D01*
X124371298Y-107368424D01*
X124211175Y-107595886D01*
X124027344Y-107864174D01*
X123827527Y-108162492D01*
X123816793Y-108178701D01*
X123575491Y-108543683D01*
X123384048Y-108834699D01*
X123236782Y-109061178D01*
X123128015Y-109232551D01*
X123052065Y-109358247D01*
X123003253Y-109447696D01*
X122975897Y-109510328D01*
X122964318Y-109555573D01*
X122962836Y-109592861D01*
X122962999Y-109596069D01*
X122965926Y-109882487D01*
X122935040Y-110077869D01*
X122866513Y-110186783D01*
X122756516Y-110213800D01*
X122601220Y-110163489D01*
X122522962Y-110121217D01*
X122370003Y-110016361D01*
X122189880Y-109871078D01*
X122035186Y-109729759D01*
X121825161Y-109485436D01*
X121707495Y-109251573D01*
X121681383Y-109048627D01*
X122099604Y-109048627D01*
X122131368Y-109131986D01*
X122213084Y-109254625D01*
X122287474Y-109344833D01*
X122394005Y-109460154D01*
X122452622Y-109507170D01*
X122480364Y-109493867D01*
X122492430Y-109440892D01*
X122530947Y-109327298D01*
X122605629Y-109185544D01*
X122630020Y-109147402D01*
X122742903Y-108981029D01*
X122860015Y-108811118D01*
X122873064Y-108792409D01*
X122950123Y-108669788D01*
X122994513Y-108575371D01*
X122998491Y-108556710D01*
X122956527Y-108507656D01*
X122847873Y-108469918D01*
X122705927Y-108450106D01*
X122564087Y-108454834D01*
X122523739Y-108462718D01*
X122424580Y-108524607D01*
X122309657Y-108647125D01*
X122201967Y-108798503D01*
X122124508Y-108946973D01*
X122099604Y-109048627D01*
X121681383Y-109048627D01*
X121677097Y-109015316D01*
X121696753Y-108875156D01*
X121771593Y-108664852D01*
X121893340Y-108441367D01*
X122037938Y-108243570D01*
X122161554Y-108124145D01*
X122333526Y-108044504D01*
X122560573Y-108002646D01*
X122803903Y-108001313D01*
X123024723Y-108043243D01*
X123069941Y-108059998D01*
X123204465Y-108106577D01*
X123284243Y-108103815D01*
X123320405Y-108077755D01*
X123366417Y-108016728D01*
X123456271Y-107886533D01*
X123579751Y-107702368D01*
X123726644Y-107479429D01*
X123850222Y-107289450D01*
X124053158Y-106979490D01*
X124212412Y-106746088D01*
X124335639Y-106579757D01*
X124430492Y-106471006D01*
X124504625Y-106410347D01*
X124565693Y-106388290D01*
X124577600Y-106387675D01*
X124634071Y-106421674D01*
G37*
D11*
%TO.C,C7*%
X143411248Y-119972500D02*
X144833752Y-119972500D01*
X143411248Y-121792500D02*
X144833752Y-121792500D01*
D13*
%TO.C,J8*%
X164000000Y-124483332D02*
X171200000Y-124483332D01*
X164000000Y-136183332D02*
X164000000Y-124483332D01*
X171200000Y-124483332D02*
X171200000Y-136183332D01*
X171200000Y-136183332D02*
X164000000Y-136183332D01*
D14*
X167100000Y-123733332D02*
G75*
G02*
X166900000Y-123733332I-100000J0D01*
G01*
X166900000Y-123733332D02*
G75*
G02*
X167100000Y-123733332I100000J0D01*
G01*
D13*
%TO.C,J9*%
X164000000Y-109316666D02*
X171200000Y-109316666D01*
X164000000Y-121016666D02*
X164000000Y-109316666D01*
X171200000Y-109316666D02*
X171200000Y-121016666D01*
X171200000Y-121016666D02*
X164000000Y-121016666D01*
D14*
X167100000Y-108566666D02*
G75*
G02*
X166900000Y-108566666I-100000J0D01*
G01*
X166900000Y-108566666D02*
G75*
G02*
X167100000Y-108566666I100000J0D01*
G01*
D11*
%TO.C,C8*%
X142333752Y-107548000D02*
X140911248Y-107548000D01*
X142333752Y-109368000D02*
X140911248Y-109368000D01*
%TO.C,C6*%
X150187500Y-119021248D02*
X150187500Y-120443752D01*
X152007500Y-119021248D02*
X152007500Y-120443752D01*
%TO.C,C1*%
X134687500Y-118971248D02*
X134687500Y-120393752D01*
X136507500Y-118971248D02*
X136507500Y-120393752D01*
%TO.C,U2*%
X134630000Y-127332500D02*
X134630000Y-137612500D01*
X134630000Y-137612500D02*
X152650000Y-137612500D01*
X134690000Y-129822500D02*
X134690000Y-135122500D01*
X134690000Y-135122500D02*
X152590000Y-135122500D01*
X152590000Y-129822500D02*
X134690000Y-129822500D01*
X152590000Y-131472500D02*
X152590000Y-129822500D01*
X152590000Y-135122500D02*
X152590000Y-133472500D01*
X152650000Y-127332500D02*
X134630000Y-127332500D01*
X152650000Y-137612500D02*
X152650000Y-127332500D01*
X152590000Y-133472500D02*
G75*
G02*
X152590000Y-131472500I0J1000000D01*
G01*
D13*
%TO.C,J2*%
X154400000Y-144812500D02*
X161600000Y-144812500D01*
X154400000Y-156512500D02*
X154400000Y-144812500D01*
X161600000Y-144812500D02*
X161600000Y-156512500D01*
X161600000Y-156512500D02*
X154400000Y-156512500D01*
D14*
X158700000Y-157262500D02*
G75*
G02*
X158500000Y-157262500I-100000J0D01*
G01*
X158500000Y-157262500D02*
G75*
G02*
X158700000Y-157262500I100000J0D01*
G01*
D11*
%TO.C,R1*%
X134687500Y-111472064D02*
X134687500Y-110017936D01*
X136507500Y-111472064D02*
X136507500Y-110017936D01*
D13*
%TO.C,J5*%
X121900000Y-144812500D02*
X129100000Y-144812500D01*
X121900000Y-156512500D02*
X121900000Y-144812500D01*
X129100000Y-144812500D02*
X129100000Y-156512500D01*
X129100000Y-156512500D02*
X121900000Y-156512500D01*
D14*
X126200000Y-157262500D02*
G75*
G02*
X126000000Y-157262500I-100000J0D01*
G01*
X126000000Y-157262500D02*
G75*
G02*
X126200000Y-157262500I100000J0D01*
G01*
D11*
%TO.C,U1*%
X139637500Y-111860000D02*
X139637500Y-112120000D01*
X139637500Y-111860000D02*
X139897500Y-111860000D01*
X139637500Y-115880000D02*
X139637500Y-115620000D01*
X139637500Y-115880000D02*
X139897500Y-115880000D01*
X145057500Y-111860000D02*
X144797500Y-111860000D01*
X145057500Y-111860000D02*
X145057500Y-112120000D01*
D10*
X145057500Y-116240000D02*
X145057500Y-115880000D01*
X145417500Y-115880000D01*
X145057500Y-116240000D01*
G36*
X145057500Y-116240000D02*
G01*
X145057500Y-115880000D01*
X145417500Y-115880000D01*
X145057500Y-116240000D01*
G37*
%TD*%
M02*
