%TF.GenerationSoftware,KiCad,Pcbnew,8.0.5*%
%TF.CreationDate,2024-10-29T23:26:29-04:00*%
%TF.ProjectId,Jetson_Extension_Board,4a657473-6f6e-45f4-9578-74656e73696f,rev?*%
%TF.SameCoordinates,Original*%
%TF.FileFunction,Soldermask,Bot*%
%TF.FilePolarity,Negative*%
%FSLAX46Y46*%
G04 Gerber Fmt 4.6, Leading zero omitted, Abs format (unit mm)*
G04 Created by KiCad (PCBNEW 8.0.5) date 2024-10-29 23:26:29*
%MOMM*%
%LPD*%
G01*
G04 APERTURE LIST*
G04 Aperture macros list*
%AMRoundRect*
0 Rectangle with rounded corners*
0 $1 Rounding radius*
0 $2 $3 $4 $5 $6 $7 $8 $9 X,Y pos of 4 corners*
0 Add a 4 corners polygon primitive as box body*
4,1,4,$2,$3,$4,$5,$6,$7,$8,$9,$2,$3,0*
0 Add four circle primitives for the rounded corners*
1,1,$1+$1,$2,$3*
1,1,$1+$1,$4,$5*
1,1,$1+$1,$6,$7*
1,1,$1+$1,$8,$9*
0 Add four rect primitives between the rounded corners*
20,1,$1+$1,$2,$3,$4,$5,0*
20,1,$1+$1,$4,$5,$6,$7,0*
20,1,$1+$1,$6,$7,$8,$9,0*
20,1,$1+$1,$8,$9,$2,$3,0*%
G04 Aperture macros list end*
%ADD10C,2.100000*%
%ADD11RoundRect,0.102000X1.050000X-1.050000X1.050000X1.050000X-1.050000X1.050000X-1.050000X-1.050000X0*%
%ADD12C,2.304000*%
%ADD13RoundRect,0.102000X-1.050000X1.050000X-1.050000X-1.050000X1.050000X-1.050000X1.050000X1.050000X0*%
%ADD14R,1.700000X1.700000*%
%ADD15O,1.700000X1.700000*%
%ADD16RoundRect,0.250000X0.450000X0.450000X-0.450000X0.450000X-0.450000X-0.450000X0.450000X-0.450000X0*%
%ADD17C,1.400000*%
%ADD18R,1.600000X1.600000*%
%ADD19O,1.600000X1.600000*%
G04 APERTURE END LIST*
D10*
%TO.C,H4*%
X177800000Y-142240000D03*
%TD*%
D11*
%TO.C,J3*%
X141652500Y-137130000D03*
D12*
X141652500Y-133630000D03*
X141652500Y-130130000D03*
%TD*%
D13*
%TO.C,J7*%
X168900000Y-129805000D03*
D12*
X168900000Y-133305000D03*
X168900000Y-136805000D03*
%TD*%
D11*
%TO.C,J4*%
X129152500Y-137130000D03*
D12*
X129152500Y-133630000D03*
X129152500Y-130130000D03*
%TD*%
D14*
%TO.C,J6*%
X96460000Y-79280000D03*
D15*
X99000000Y-79280000D03*
X96460000Y-81820000D03*
X99000000Y-81820000D03*
X96460000Y-84360000D03*
X99000000Y-84360000D03*
X96460000Y-86900000D03*
X99000000Y-86900000D03*
X96460000Y-89440000D03*
X99000000Y-89440000D03*
X96460000Y-91980000D03*
X99000000Y-91980000D03*
X96460000Y-94520000D03*
X99000000Y-94520000D03*
X96460000Y-97060000D03*
X99000000Y-97060000D03*
X96460000Y-99600000D03*
X99000000Y-99600000D03*
X96460000Y-102140000D03*
X99000000Y-102140000D03*
X96460000Y-104680000D03*
X99000000Y-104680000D03*
X96460000Y-107220000D03*
X99000000Y-107220000D03*
X96460000Y-109760000D03*
X99000000Y-109760000D03*
X96460000Y-112300000D03*
X99000000Y-112300000D03*
X96460000Y-114840000D03*
X99000000Y-114840000D03*
X96460000Y-117380000D03*
X99000000Y-117380000D03*
X96460000Y-119920000D03*
X99000000Y-119920000D03*
X96460000Y-122460000D03*
X99000000Y-122460000D03*
X96460000Y-125000000D03*
X99000000Y-125000000D03*
X96460000Y-127540000D03*
X99000000Y-127540000D03*
%TD*%
D13*
%TO.C,J10*%
X168900000Y-78305000D03*
D12*
X168900000Y-81805000D03*
X168900000Y-85305000D03*
%TD*%
D14*
%TO.C,J11*%
X96420000Y-134000000D03*
D15*
X98960000Y-134000000D03*
X101500000Y-134000000D03*
X104040000Y-134000000D03*
%TD*%
D13*
%TO.C,J8*%
X168900000Y-112642500D03*
D12*
X168900000Y-116142500D03*
X168900000Y-119642500D03*
%TD*%
D13*
%TO.C,J9*%
X168900000Y-95642500D03*
D12*
X168900000Y-99142500D03*
X168900000Y-102642500D03*
%TD*%
D10*
%TO.C,H2*%
X91440000Y-142240000D03*
%TD*%
D14*
%TO.C,J1*%
X150960000Y-73000000D03*
D15*
X153500000Y-73000000D03*
%TD*%
D10*
%TO.C,H3*%
X177800000Y-71120000D03*
%TD*%
D16*
%TO.C,SW1*%
X119000000Y-75800000D03*
D17*
X116500000Y-75800000D03*
X114000000Y-75800000D03*
X114000000Y-72500000D03*
X116500000Y-72500000D03*
X119000000Y-72500000D03*
%TD*%
D18*
%TO.C,U2*%
X143125000Y-112700000D03*
D19*
X140585000Y-112700000D03*
X138045000Y-112700000D03*
X135505000Y-112700000D03*
X132965000Y-112700000D03*
X130425000Y-112700000D03*
X127885000Y-112700000D03*
X127885000Y-120320000D03*
X130425000Y-120320000D03*
X132965000Y-120320000D03*
X135505000Y-120320000D03*
X138045000Y-120320000D03*
X140585000Y-120320000D03*
X143125000Y-120320000D03*
%TD*%
D11*
%TO.C,J2*%
X154152500Y-137130000D03*
D12*
X154152500Y-133630000D03*
X154152500Y-130130000D03*
%TD*%
D10*
%TO.C,H1*%
X91440000Y-71120000D03*
%TD*%
D11*
%TO.C,J5*%
X116652500Y-137130000D03*
D12*
X116652500Y-133630000D03*
X116652500Y-130130000D03*
%TD*%
M02*
