%TF.GenerationSoftware,KiCad,Pcbnew,8.0.5*%
%TF.CreationDate,2024-10-27T16:25:35-04:00*%
%TF.ProjectId,Jetson_Extension_Board,4a657473-6f6e-45f4-9578-74656e73696f,rev?*%
%TF.SameCoordinates,Original*%
%TF.FileFunction,Copper,L2,Bot*%
%TF.FilePolarity,Positive*%
%FSLAX46Y46*%
G04 Gerber Fmt 4.6, Leading zero omitted, Abs format (unit mm)*
G04 Created by KiCad (PCBNEW 8.0.5) date 2024-10-27 16:25:35*
%MOMM*%
%LPD*%
G01*
G04 APERTURE LIST*
G04 Aperture macros list*
%AMRoundRect*
0 Rectangle with rounded corners*
0 $1 Rounding radius*
0 $2 $3 $4 $5 $6 $7 $8 $9 X,Y pos of 4 corners*
0 Add a 4 corners polygon primitive as box body*
4,1,4,$2,$3,$4,$5,$6,$7,$8,$9,$2,$3,0*
0 Add four circle primitives for the rounded corners*
1,1,$1+$1,$2,$3*
1,1,$1+$1,$4,$5*
1,1,$1+$1,$6,$7*
1,1,$1+$1,$8,$9*
0 Add four rect primitives between the rounded corners*
20,1,$1+$1,$2,$3,$4,$5,0*
20,1,$1+$1,$4,$5,$6,$7,0*
20,1,$1+$1,$6,$7,$8,$9,0*
20,1,$1+$1,$8,$9,$2,$3,0*%
G04 Aperture macros list end*
%TA.AperFunction,ComponentPad*%
%ADD10R,2.100000X2.100000*%
%TD*%
%TA.AperFunction,ComponentPad*%
%ADD11C,2.100000*%
%TD*%
%TA.AperFunction,ComponentPad*%
%ADD12R,1.700000X1.700000*%
%TD*%
%TA.AperFunction,ComponentPad*%
%ADD13O,1.700000X1.700000*%
%TD*%
%TA.AperFunction,ComponentPad*%
%ADD14RoundRect,0.250000X0.450000X0.450000X-0.450000X0.450000X-0.450000X-0.450000X0.450000X-0.450000X0*%
%TD*%
%TA.AperFunction,ComponentPad*%
%ADD15C,1.400000*%
%TD*%
%TA.AperFunction,ComponentPad*%
%ADD16R,1.600000X1.600000*%
%TD*%
%TA.AperFunction,ComponentPad*%
%ADD17O,1.600000X1.600000*%
%TD*%
%TA.AperFunction,ViaPad*%
%ADD18C,0.600000*%
%TD*%
%TA.AperFunction,Conductor*%
%ADD19C,0.200000*%
%TD*%
G04 APERTURE END LIST*
D10*
%TO.P,J3,1,1*%
%TO.N,GND*%
X141652500Y-137130000D03*
D11*
%TO.P,J3,2,2*%
%TO.N,Net-(J3-Pad2)*%
X141652500Y-133630000D03*
%TO.P,J3,3,3*%
%TO.N,/SchmittTrigger(74LV14)/5V*%
X141652500Y-130130000D03*
%TD*%
D10*
%TO.P,J7,1,1*%
%TO.N,/ADC/3.3V*%
X168900000Y-129805000D03*
D11*
%TO.P,J7,2,2*%
%TO.N,/ADC/Signal 1*%
X168900000Y-133305000D03*
%TO.P,J7,3,3*%
%TO.N,GND*%
X168900000Y-136805000D03*
%TD*%
D10*
%TO.P,J4,1,1*%
%TO.N,GND*%
X129152500Y-137130000D03*
D11*
%TO.P,J4,2,2*%
%TO.N,Net-(J4-Pad2)*%
X129152500Y-133630000D03*
%TO.P,J4,3,3*%
%TO.N,/SchmittTrigger(74LV14)/5V*%
X129152500Y-130130000D03*
%TD*%
D12*
%TO.P,J6,1,Pin_1*%
%TO.N,3.3V*%
X96460000Y-79280000D03*
D13*
%TO.P,J6,2,Pin_2*%
%TO.N,5V*%
X99000000Y-79280000D03*
%TO.P,J6,3,Pin_3*%
%TO.N,/I2C_2_SDA*%
X96460000Y-81820000D03*
%TO.P,J6,4,Pin_4*%
%TO.N,5V*%
X99000000Y-81820000D03*
%TO.P,J6,5,Pin_5*%
%TO.N,/I2C_2_SCL*%
X96460000Y-84360000D03*
%TO.P,J6,6,Pin_6*%
%TO.N,GND*%
X99000000Y-84360000D03*
%TO.P,J6,7,Pin_7*%
%TO.N,ADC ALERT*%
X96460000Y-86900000D03*
%TO.P,J6,8,Pin_8*%
%TO.N,/UART_2_TX*%
X99000000Y-86900000D03*
%TO.P,J6,9,Pin_9*%
%TO.N,GND*%
X96460000Y-89440000D03*
%TO.P,J6,10,Pin_10*%
%TO.N,/UART_2_RX*%
X99000000Y-89440000D03*
%TO.P,J6,11,Pin_11*%
%TO.N,/gpio50*%
X96460000Y-91980000D03*
%TO.P,J6,12,Pin_12*%
%TO.N,/gpio79*%
X99000000Y-91980000D03*
%TO.P,J6,13,Pin_13*%
%TO.N,/gpio14*%
X96460000Y-94520000D03*
%TO.P,J6,14,Pin_14*%
%TO.N,GND*%
X99000000Y-94520000D03*
%TO.P,J6,15,Pin_15*%
%TO.N,/gpio194*%
X96460000Y-97060000D03*
%TO.P,J6,16,Pin_16*%
%TO.N,/gpio232*%
X99000000Y-97060000D03*
%TO.P,J6,17,Pin_17*%
%TO.N,3.3V*%
X96460000Y-99600000D03*
%TO.P,J6,18,Pin_18*%
%TO.N,/gpio15*%
X99000000Y-99600000D03*
%TO.P,J6,19,Pin_19*%
%TO.N,/gpio16*%
X96460000Y-102140000D03*
%TO.P,J6,20,Pin_20*%
%TO.N,GND*%
X99000000Y-102140000D03*
%TO.P,J6,21,Pin_21*%
%TO.N,/gpio17*%
X96460000Y-104680000D03*
%TO.P,J6,22,Pin_22*%
%TO.N,/gpio13*%
X99000000Y-104680000D03*
%TO.P,J6,23,Pin_23*%
%TO.N,/gpio18*%
X96460000Y-107220000D03*
%TO.P,J6,24,Pin_24*%
%TO.N,/gpio19*%
X99000000Y-107220000D03*
%TO.P,J6,25,Pin_25*%
%TO.N,GND*%
X96460000Y-109760000D03*
%TO.P,J6,26,Pin_26*%
%TO.N,/gpio20*%
X99000000Y-109760000D03*
%TO.P,J6,27,Pin_27*%
%TO.N,/I2C_1_SDA*%
X96460000Y-112300000D03*
%TO.P,J6,28,Pin_28*%
%TO.N,/I2C_1_SCL*%
X99000000Y-112300000D03*
%TO.P,J6,29,Pin_29*%
%TO.N,IMU nRESET*%
X96460000Y-114840000D03*
%TO.P,J6,30,Pin_30*%
%TO.N,GND*%
X99000000Y-114840000D03*
%TO.P,J6,31,Pin_31*%
%TO.N,IMU INT*%
X96460000Y-117380000D03*
%TO.P,J6,32,Pin_32*%
%TO.N,ST 1*%
X99000000Y-117380000D03*
%TO.P,J6,33,Pin_33*%
%TO.N,IMU nBOOT*%
X96460000Y-119920000D03*
%TO.P,J6,34,Pin_34*%
%TO.N,GND*%
X99000000Y-119920000D03*
%TO.P,J6,35,Pin_35*%
%TO.N,COM 3*%
X96460000Y-122460000D03*
%TO.P,J6,36,Pin_36*%
%TO.N,ST 2*%
X99000000Y-122460000D03*
%TO.P,J6,37,Pin_37*%
%TO.N,/gpio12*%
X96460000Y-125000000D03*
%TO.P,J6,38,Pin_38*%
%TO.N,ST 3*%
X99000000Y-125000000D03*
%TO.P,J6,39,Pin_39*%
%TO.N,GND*%
X96460000Y-127540000D03*
%TO.P,J6,40,Pin_40*%
%TO.N,ST 4*%
X99000000Y-127540000D03*
%TD*%
D10*
%TO.P,J10,1,1*%
%TO.N,/ADC/3.3V*%
X168900000Y-78305000D03*
D11*
%TO.P,J10,2,2*%
%TO.N,/ADC/Signal 4*%
X168900000Y-81805000D03*
%TO.P,J10,3,3*%
%TO.N,GND*%
X168900000Y-85305000D03*
%TD*%
D12*
%TO.P,J11,1,Pin_1*%
%TO.N,ST 1*%
X96420000Y-134000000D03*
D13*
%TO.P,J11,2,Pin_2*%
%TO.N,ST 2*%
X98960000Y-134000000D03*
%TO.P,J11,3,Pin_3*%
%TO.N,ST 3*%
X101500000Y-134000000D03*
%TO.P,J11,4,Pin_4*%
%TO.N,ST 4*%
X104040000Y-134000000D03*
%TD*%
D10*
%TO.P,J8,1,1*%
%TO.N,/ADC/3.3V*%
X168900000Y-112642500D03*
D11*
%TO.P,J8,2,2*%
%TO.N,/ADC/Signal 2*%
X168900000Y-116142500D03*
%TO.P,J8,3,3*%
%TO.N,GND*%
X168900000Y-119642500D03*
%TD*%
D10*
%TO.P,J9,1,1*%
%TO.N,/ADC/3.3V*%
X168900000Y-95642500D03*
D11*
%TO.P,J9,2,2*%
%TO.N,/ADC/Signal 3*%
X168900000Y-99142500D03*
%TO.P,J9,3,3*%
%TO.N,GND*%
X168900000Y-102642500D03*
%TD*%
D12*
%TO.P,J1,1,Pin_1*%
%TO.N,/I2C_2_SCL*%
X150960000Y-73000000D03*
D13*
%TO.P,J1,2,Pin_2*%
%TO.N,/I2C_2_SDA*%
X153500000Y-73000000D03*
%TD*%
D14*
%TO.P,SW1,1,A*%
%TO.N,3.3V*%
X119000000Y-75800000D03*
D15*
%TO.P,SW1,2,B*%
%TO.N,/ADC/3.3V*%
X116500000Y-75800000D03*
%TO.P,SW1,3,C*%
%TO.N,GND*%
X114000000Y-75800000D03*
%TO.P,SW1,4,A*%
%TO.N,5V*%
X114000000Y-72500000D03*
%TO.P,SW1,5,B*%
%TO.N,/SchmittTrigger(74LV14)/5V*%
X116500000Y-72500000D03*
%TO.P,SW1,6,C*%
%TO.N,GND*%
X119000000Y-72500000D03*
%TD*%
D16*
%TO.P,U2,1*%
%TO.N,Net-(J2-Pad2)*%
X143125000Y-112700000D03*
D17*
%TO.P,U2,2*%
%TO.N,ST 1*%
X140585000Y-112700000D03*
%TO.P,U2,3*%
%TO.N,Net-(J3-Pad2)*%
X138045000Y-112700000D03*
%TO.P,U2,4*%
%TO.N,ST 2*%
X135505000Y-112700000D03*
%TO.P,U2,5*%
%TO.N,Net-(J4-Pad2)*%
X132965000Y-112700000D03*
%TO.P,U2,6*%
%TO.N,ST 3*%
X130425000Y-112700000D03*
%TO.P,U2,7,GND*%
%TO.N,GND*%
X127885000Y-112700000D03*
%TO.P,U2,8*%
%TO.N,ST 4*%
X127885000Y-120320000D03*
%TO.P,U2,9*%
%TO.N,Net-(J5-Pad2)*%
X130425000Y-120320000D03*
%TO.P,U2,10*%
%TO.N,unconnected-(U2-Pad10)*%
X132965000Y-120320000D03*
%TO.P,U2,11*%
%TO.N,unconnected-(U2-Pad11)*%
X135505000Y-120320000D03*
%TO.P,U2,12*%
%TO.N,unconnected-(U2-Pad12)*%
X138045000Y-120320000D03*
%TO.P,U2,13*%
%TO.N,unconnected-(U2-Pad13)*%
X140585000Y-120320000D03*
%TO.P,U2,14,5V*%
%TO.N,/SchmittTrigger(74LV14)/5V*%
X143125000Y-120320000D03*
%TD*%
D10*
%TO.P,J2,1,1*%
%TO.N,GND*%
X154152500Y-137130000D03*
D11*
%TO.P,J2,2,2*%
%TO.N,Net-(J2-Pad2)*%
X154152500Y-133630000D03*
%TO.P,J2,3,3*%
%TO.N,/SchmittTrigger(74LV14)/5V*%
X154152500Y-130130000D03*
%TD*%
D10*
%TO.P,J5,1,1*%
%TO.N,GND*%
X116652500Y-137130000D03*
D11*
%TO.P,J5,2,2*%
%TO.N,Net-(J5-Pad2)*%
X116652500Y-133630000D03*
%TO.P,J5,3,3*%
%TO.N,/SchmittTrigger(74LV14)/5V*%
X116652500Y-130130000D03*
%TD*%
D18*
%TO.N,IMU nBOOT*%
X134064000Y-87669000D03*
%TO.N,IMU nRESET*%
X125392000Y-84257100D03*
%TO.N,/I2C_2_SDA*%
X142439000Y-96246800D03*
%TO.N,/I2C_2_SCL*%
X136700000Y-89618300D03*
X132196000Y-87597300D03*
%TO.N,ADC ALERT*%
X140055000Y-93192400D03*
%TO.N,/SchmittTrigger(74LV14)/5V*%
X125000000Y-75000000D03*
%TD*%
D19*
%TO.N,GND*%
X99000000Y-102140000D02*
X100158000Y-100982000D01*
X100152000Y-115992000D02*
X100152000Y-119920000D01*
X110248000Y-129252000D02*
X110232000Y-129252000D01*
X99000000Y-114840000D02*
X100152000Y-115992000D01*
X154152000Y-137130000D02*
X154152500Y-137130000D01*
X154152500Y-137130000D02*
X165872000Y-137130000D01*
X100158000Y-95678000D02*
X99000000Y-94520000D01*
X168731000Y-119811000D02*
X168731500Y-119811000D01*
X97611700Y-103528300D02*
X97611700Y-108608300D01*
X99000000Y-102140000D02*
X97611700Y-103528300D01*
X100158000Y-100982000D02*
X100158000Y-95678000D01*
X105440000Y-84360000D02*
X114000000Y-75800000D01*
X167548000Y-86656700D02*
X168900000Y-85305000D01*
X168731000Y-102811000D02*
X168900000Y-102642000D01*
X126800000Y-112700000D02*
X110248000Y-129252000D01*
X165872000Y-137130000D02*
X167548000Y-135453000D01*
X99000000Y-119920000D02*
X100152000Y-119920000D01*
X168562000Y-119980000D02*
X168731000Y-119811000D01*
X168731500Y-102811000D02*
X168900000Y-102642500D01*
X110232000Y-130732000D02*
X116630000Y-137130000D01*
X168900000Y-119642000D02*
X167548000Y-118291000D01*
X168224000Y-103318000D02*
X168562000Y-102980000D01*
X168900000Y-136805000D02*
X167548000Y-135453000D01*
X168224000Y-120318000D02*
X168562000Y-119980000D01*
X167548000Y-101291000D02*
X167548000Y-86656700D01*
X99000000Y-84360000D02*
X105440000Y-84360000D01*
X167548000Y-120994000D02*
X168224000Y-120318000D01*
X167548000Y-118291000D02*
X167548000Y-103994000D01*
X116630000Y-137130000D02*
X116652500Y-137130000D01*
X168224000Y-120318000D02*
X168562000Y-119980000D01*
X168224000Y-103318000D02*
X168562000Y-102980000D01*
X168900000Y-102642000D02*
X167548000Y-101291000D01*
X168562000Y-102980000D02*
X168731000Y-102811000D01*
X168731500Y-119811000D02*
X168900000Y-119642500D01*
X100900000Y-119920000D02*
X100152000Y-119920000D01*
X168731000Y-119811000D02*
X168900000Y-119642000D01*
X110232000Y-129252000D02*
X110232000Y-130732000D01*
X168562000Y-102980000D02*
X168731000Y-102811000D01*
X168562000Y-119980000D02*
X168731000Y-119811000D01*
X168731000Y-102811000D02*
X168731500Y-102811000D01*
X167548000Y-135453000D02*
X167548000Y-120994000D01*
X127885000Y-112700000D02*
X126800000Y-112700000D01*
X168731000Y-119811000D02*
X168900000Y-119642000D01*
X167548000Y-103994000D02*
X168224000Y-103318000D01*
X110232000Y-129252000D02*
X100900000Y-119920000D01*
X97611700Y-108608300D02*
X96460000Y-109760000D01*
X168731000Y-102811000D02*
X168900000Y-102642000D01*
%TO.N,3.3V*%
X97611700Y-80431700D02*
X97611700Y-98448300D01*
X96460000Y-79280000D02*
X97611700Y-80431700D01*
X97611700Y-98448300D02*
X96460000Y-99600000D01*
%TO.N,Net-(J2-Pad2)*%
X144227000Y-123704000D02*
X152977000Y-132455000D01*
X143125000Y-112700000D02*
X143125000Y-113802000D01*
X152978000Y-132455000D02*
X153565000Y-133042500D01*
X153565000Y-133042500D02*
X154152000Y-133630000D01*
X143125000Y-113802000D02*
X144227000Y-114903000D01*
X144227000Y-114903000D02*
X144227000Y-123704000D01*
X153565000Y-133042500D02*
X154152500Y-133630000D01*
X152977000Y-132455000D02*
X152978000Y-132455000D01*
X154152000Y-133630000D02*
X152977000Y-132455000D01*
%TO.N,5V*%
X99000000Y-81820000D02*
X99000000Y-79280000D01*
%TO.N,Net-(J3-Pad2)*%
X138045000Y-112700000D02*
X139250000Y-113905000D01*
X139250000Y-113905000D02*
X139250000Y-131228000D01*
X139250000Y-131228000D02*
X141652000Y-133630000D01*
X141652000Y-133630000D02*
X141652500Y-133630000D01*
%TO.N,Net-(J4-Pad2)*%
X132965000Y-112700000D02*
X131750000Y-113915000D01*
X131750000Y-113915000D02*
X131750000Y-131032000D01*
X129152500Y-133629500D02*
X129152500Y-133630000D01*
X129152500Y-133629500D02*
X129152000Y-133630000D01*
X131750000Y-131032000D02*
X129152500Y-133629500D01*
%TO.N,Net-(J5-Pad2)*%
X116652500Y-133629500D02*
X129323000Y-120959000D01*
X129323000Y-120320000D02*
X130425000Y-120320000D01*
X116652500Y-133629500D02*
X116652500Y-133630000D01*
X116652000Y-133630000D02*
X116652500Y-133629500D01*
X129323000Y-120959000D02*
X129323000Y-120320000D01*
%TO.N,IMU nBOOT*%
X96460000Y-119920000D02*
X97611700Y-118768300D01*
X97611700Y-118768300D02*
X97611700Y-114540000D01*
X97611700Y-114540000D02*
X98631900Y-113520000D01*
X108213000Y-113520000D02*
X134064000Y-87669000D01*
X98631900Y-113520000D02*
X108213000Y-113520000D01*
%TO.N,IMU nRESET*%
X99470000Y-111030000D02*
X125392000Y-85108000D01*
X96460000Y-114840000D02*
X97611700Y-113688300D01*
X125392000Y-85108000D02*
X125392000Y-84257100D01*
X97611700Y-112000000D02*
X98581600Y-111030000D01*
X98581600Y-111030000D02*
X99470000Y-111030000D01*
X97611700Y-113688300D02*
X97611700Y-112000000D01*
%TO.N,/I2C_2_SDA*%
X142439000Y-84386853D02*
X142439000Y-96246800D01*
X153500000Y-73000000D02*
X153500000Y-73325853D01*
X153500000Y-73325853D02*
X142439000Y-84386853D01*
%TO.N,/I2C_2_SCL*%
X114775400Y-74775400D02*
X115250000Y-75250000D01*
X132196000Y-87597300D02*
X132735000Y-87058300D01*
X95289800Y-83189800D02*
X95289800Y-78312800D01*
X132735000Y-87058300D02*
X134383000Y-87058300D01*
X115250000Y-76500000D02*
X121324400Y-82574400D01*
X96460000Y-84360000D02*
X95289800Y-83189800D01*
X134383000Y-87058300D02*
X136700000Y-89375600D01*
X98827200Y-74775400D02*
X114775400Y-74775400D01*
X115250000Y-75250000D02*
X115250000Y-76500000D01*
X95289800Y-78312800D02*
X98827200Y-74775400D01*
X136700000Y-89375600D02*
X136700000Y-89618300D01*
X121324400Y-82574400D02*
X127174000Y-82574400D01*
X127174000Y-82574400D02*
X132196000Y-87597300D01*
%TO.N,ST 1*%
X99000000Y-117380000D02*
X99000000Y-117945686D01*
X97051500Y-123730000D02*
X96055800Y-123730000D01*
X97730000Y-123051500D02*
X97051500Y-123730000D01*
X95303700Y-124482000D02*
X95303700Y-132883700D01*
X97730000Y-119215686D02*
X97730000Y-123051500D01*
X95303700Y-132883700D02*
X96420000Y-134000000D01*
X96055800Y-123730000D02*
X95303700Y-124482000D01*
X99000000Y-117945686D02*
X97730000Y-119215686D01*
%TO.N,ADC ALERT*%
X140055000Y-92112900D02*
X140055000Y-93192400D01*
X122693000Y-74750700D02*
X140055000Y-92112900D01*
X117032000Y-74750700D02*
X122693000Y-74750700D01*
X116614000Y-74332400D02*
X117032000Y-74750700D01*
X94865100Y-78169400D02*
X98702100Y-74332400D01*
X98702100Y-74332400D02*
X116614000Y-74332400D01*
X96460000Y-86900000D02*
X94865100Y-85305100D01*
X94865100Y-85305100D02*
X94865100Y-78169400D01*
%TO.N,ST 3*%
X99000000Y-125864000D02*
X101500000Y-128364000D01*
X101500000Y-128364000D02*
X101500000Y-134000000D01*
X99000000Y-125000000D02*
X99000000Y-125864000D01*
%TO.N,ST 2*%
X97806900Y-132846900D02*
X98960000Y-134000000D01*
X97806900Y-123653100D02*
X97806900Y-132846900D01*
X99000000Y-122460000D02*
X97806900Y-123653100D01*
%TO.N,/ADC/3.3V*%
X168900000Y-94290800D02*
X168900000Y-95642500D01*
X168900000Y-78305000D02*
X170252000Y-79657000D01*
X170252000Y-109939000D02*
X170252000Y-98345900D01*
X168900000Y-96994200D02*
X168900000Y-95642500D01*
X170252000Y-79657000D02*
X170252000Y-92939100D01*
X170252000Y-98345900D02*
X168900000Y-96994200D01*
X168900000Y-112642500D02*
X168900000Y-112642000D01*
X168900000Y-111291000D02*
X170252000Y-109939000D01*
X168900000Y-112642000D02*
X168900000Y-111291000D01*
X170252000Y-92939100D02*
X168900000Y-94290800D01*
%TO.N,/SchmittTrigger(74LV14)/5V*%
X143125000Y-120320000D02*
X143125000Y-128658000D01*
X142756500Y-129026000D02*
X142388000Y-129394000D01*
X122508600Y-73991400D02*
X122466000Y-73948800D01*
X122466000Y-73948800D02*
X117949000Y-73948800D01*
X123991400Y-73991400D02*
X125000000Y-75000000D01*
X117949000Y-73948800D02*
X116500000Y-72500000D01*
X142756500Y-129026000D02*
X141652500Y-130130000D01*
X143125000Y-128658000D02*
X142756500Y-129026000D01*
X124914400Y-76397200D02*
X122508600Y-73991400D01*
X143125000Y-120320000D02*
X143125000Y-119218000D01*
X143125000Y-119218000D02*
X141837000Y-117930000D01*
X122508600Y-73991400D02*
X123991400Y-73991400D01*
X141837000Y-93319400D02*
X124914400Y-76397200D01*
X141837000Y-117930000D02*
X141837000Y-93319400D01*
%TD*%
M02*
