M48
; DRILL file {KiCad 8.0.5} date 2024-10-27T16:25:39-0400
; FORMAT={-:-/ absolute / inch / decimal}
; #@! TF.CreationDate,2024-10-27T16:25:39-04:00
; #@! TF.GenerationSoftware,Kicad,Pcbnew,8.0.5
; #@! TF.FileFunction,Plated,1,2,PTH
FMAT,2
INCH
; #@! TA.AperFunction,Plated,PTH,ViaDrill
T1C0.0118
; #@! TA.AperFunction,Plated,PTH,ComponentDrill
T2C0.0315
; #@! TA.AperFunction,Plated,PTH,ComponentDrill
T3C0.0354
; #@! TA.AperFunction,Plated,PTH,ComponentDrill
T4C0.0394
; #@! TA.AperFunction,Plated,PTH,ComponentDrill
T5C0.0551
%
G90
G05
T1
X4.9213Y-2.9528
X4.9367Y-3.3172
X5.2046Y-3.4487
X5.2781Y-3.4515
X5.3819Y-3.5283
X5.514Y-3.669
X5.6078Y-3.7892
T2
X5.0348Y-4.437
X5.0348Y-4.737
X5.1348Y-4.437
X5.1348Y-4.737
X5.2348Y-4.437
X5.2348Y-4.737
X5.3348Y-4.437
X5.3348Y-4.737
X5.4348Y-4.437
X5.4348Y-4.737
X5.5348Y-4.437
X5.5348Y-4.737
X5.6348Y-4.437
X5.6348Y-4.737
T3
X4.4882Y-2.8543
X4.4882Y-2.9843
X4.5866Y-2.8543
X4.5866Y-2.9843
X4.685Y-2.8543
X4.685Y-2.9843
T4
X3.7961Y-5.2756
X3.7976Y-3.1213
X3.7976Y-3.2213
X3.7976Y-3.3213
X3.7976Y-3.4213
X3.7976Y-3.5213
X3.7976Y-3.6213
X3.7976Y-3.7213
X3.7976Y-3.8213
X3.7976Y-3.9213
X3.7976Y-4.0213
X3.7976Y-4.1213
X3.7976Y-4.2213
X3.7976Y-4.3213
X3.7976Y-4.4213
X3.7976Y-4.5213
X3.7976Y-4.6213
X3.7976Y-4.7213
X3.7976Y-4.8213
X3.7976Y-4.9213
X3.7976Y-5.0213
X3.8961Y-5.2756
X3.8976Y-3.1213
X3.8976Y-3.2213
X3.8976Y-3.3213
X3.8976Y-3.4213
X3.8976Y-3.5213
X3.8976Y-3.6213
X3.8976Y-3.7213
X3.8976Y-3.8213
X3.8976Y-3.9213
X3.8976Y-4.0213
X3.8976Y-4.1213
X3.8976Y-4.2213
X3.8976Y-4.3213
X3.8976Y-4.4213
X3.8976Y-4.5213
X3.8976Y-4.6213
X3.8976Y-4.7213
X3.8976Y-4.8213
X3.8976Y-4.9213
X3.8976Y-5.0213
X3.9961Y-5.2756
X4.0961Y-5.2756
X5.9433Y-2.874
X6.0433Y-2.874
T5
X4.5926Y-5.1232
X4.5926Y-5.261
X4.5926Y-5.3988
X5.0847Y-5.1232
X5.0847Y-5.261
X5.0847Y-5.3988
X5.5769Y-5.1232
X5.5769Y-5.261
X5.5769Y-5.3988
X6.069Y-5.1232
X6.069Y-5.261
X6.069Y-5.3988
X6.6496Y-3.0829
X6.6496Y-3.2207
X6.6496Y-3.3585
X6.6496Y-3.7655
X6.6496Y-3.9032
X6.6496Y-4.041
X6.6496Y-4.4347
X6.6496Y-4.5725
X6.6496Y-4.7103
X6.6496Y-5.1104
X6.6496Y-5.2482
X6.6496Y-5.386
M30
