%TF.GenerationSoftware,KiCad,Pcbnew,8.0.5*%
%TF.CreationDate,2024-10-27T16:25:35-04:00*%
%TF.ProjectId,Jetson_Extension_Board,4a657473-6f6e-45f4-9578-74656e73696f,rev?*%
%TF.SameCoordinates,Original*%
%TF.FileFunction,Legend,Top*%
%TF.FilePolarity,Positive*%
%FSLAX46Y46*%
G04 Gerber Fmt 4.6, Leading zero omitted, Abs format (unit mm)*
G04 Created by KiCad (PCBNEW 8.0.5) date 2024-10-27 16:25:35*
%MOMM*%
%LPD*%
G01*
G04 APERTURE LIST*
%ADD10C,0.127000*%
%ADD11C,0.300000*%
%ADD12C,0.200000*%
%ADD13C,0.120000*%
%ADD14C,0.150000*%
%ADD15C,0.000000*%
%ADD16C,0.100000*%
G04 APERTURE END LIST*
D10*
X153067972Y-92114067D02*
X154096067Y-92114067D01*
X154096067Y-92114067D02*
X154217019Y-92053590D01*
X154217019Y-92053590D02*
X154277496Y-91993114D01*
X154277496Y-91993114D02*
X154337972Y-91872162D01*
X154337972Y-91872162D02*
X154337972Y-91630257D01*
X154337972Y-91630257D02*
X154277496Y-91509305D01*
X154277496Y-91509305D02*
X154217019Y-91448828D01*
X154217019Y-91448828D02*
X154096067Y-91388352D01*
X154096067Y-91388352D02*
X153067972Y-91388352D01*
X153491305Y-90239305D02*
X154337972Y-90239305D01*
X153007496Y-90541686D02*
X153914638Y-90844067D01*
X153914638Y-90844067D02*
X153914638Y-90057876D01*
X124837972Y-84388352D02*
X124233210Y-84811686D01*
X124837972Y-85114067D02*
X123567972Y-85114067D01*
X123567972Y-85114067D02*
X123567972Y-84630257D01*
X123567972Y-84630257D02*
X123628448Y-84509305D01*
X123628448Y-84509305D02*
X123688924Y-84448828D01*
X123688924Y-84448828D02*
X123809876Y-84388352D01*
X123809876Y-84388352D02*
X123991305Y-84388352D01*
X123991305Y-84388352D02*
X124112257Y-84448828D01*
X124112257Y-84448828D02*
X124172734Y-84509305D01*
X124172734Y-84509305D02*
X124233210Y-84630257D01*
X124233210Y-84630257D02*
X124233210Y-85114067D01*
X124837972Y-83178828D02*
X124837972Y-83904543D01*
X124837972Y-83541686D02*
X123567972Y-83541686D01*
X123567972Y-83541686D02*
X123749400Y-83662638D01*
X123749400Y-83662638D02*
X123870353Y-83783590D01*
X123870353Y-83783590D02*
X123930829Y-83904543D01*
X171748790Y-108067972D02*
X171748790Y-108975115D01*
X171748790Y-108975115D02*
X171688313Y-109156543D01*
X171688313Y-109156543D02*
X171567361Y-109277496D01*
X171567361Y-109277496D02*
X171385932Y-109337972D01*
X171385932Y-109337972D02*
X171264980Y-109337972D01*
X172534980Y-108612257D02*
X172414028Y-108551781D01*
X172414028Y-108551781D02*
X172353551Y-108491305D01*
X172353551Y-108491305D02*
X172293075Y-108370353D01*
X172293075Y-108370353D02*
X172293075Y-108309876D01*
X172293075Y-108309876D02*
X172353551Y-108188924D01*
X172353551Y-108188924D02*
X172414028Y-108128448D01*
X172414028Y-108128448D02*
X172534980Y-108067972D01*
X172534980Y-108067972D02*
X172776885Y-108067972D01*
X172776885Y-108067972D02*
X172897837Y-108128448D01*
X172897837Y-108128448D02*
X172958313Y-108188924D01*
X172958313Y-108188924D02*
X173018790Y-108309876D01*
X173018790Y-108309876D02*
X173018790Y-108370353D01*
X173018790Y-108370353D02*
X172958313Y-108491305D01*
X172958313Y-108491305D02*
X172897837Y-108551781D01*
X172897837Y-108551781D02*
X172776885Y-108612257D01*
X172776885Y-108612257D02*
X172534980Y-108612257D01*
X172534980Y-108612257D02*
X172414028Y-108672734D01*
X172414028Y-108672734D02*
X172353551Y-108733210D01*
X172353551Y-108733210D02*
X172293075Y-108854162D01*
X172293075Y-108854162D02*
X172293075Y-109096067D01*
X172293075Y-109096067D02*
X172353551Y-109217019D01*
X172353551Y-109217019D02*
X172414028Y-109277496D01*
X172414028Y-109277496D02*
X172534980Y-109337972D01*
X172534980Y-109337972D02*
X172776885Y-109337972D01*
X172776885Y-109337972D02*
X172897837Y-109277496D01*
X172897837Y-109277496D02*
X172958313Y-109217019D01*
X172958313Y-109217019D02*
X173018790Y-109096067D01*
X173018790Y-109096067D02*
X173018790Y-108854162D01*
X173018790Y-108854162D02*
X172958313Y-108733210D01*
X172958313Y-108733210D02*
X172897837Y-108672734D01*
X172897837Y-108672734D02*
X172776885Y-108612257D01*
X143248790Y-140023343D02*
X143248790Y-140930486D01*
X143248790Y-140930486D02*
X143188313Y-141111914D01*
X143188313Y-141111914D02*
X143067361Y-141232867D01*
X143067361Y-141232867D02*
X142885932Y-141293343D01*
X142885932Y-141293343D02*
X142764980Y-141293343D01*
X143732599Y-140023343D02*
X144518790Y-140023343D01*
X144518790Y-140023343D02*
X144095456Y-140507152D01*
X144095456Y-140507152D02*
X144276885Y-140507152D01*
X144276885Y-140507152D02*
X144397837Y-140567628D01*
X144397837Y-140567628D02*
X144458313Y-140628105D01*
X144458313Y-140628105D02*
X144518790Y-140749057D01*
X144518790Y-140749057D02*
X144518790Y-141051438D01*
X144518790Y-141051438D02*
X144458313Y-141172390D01*
X144458313Y-141172390D02*
X144397837Y-141232867D01*
X144397837Y-141232867D02*
X144276885Y-141293343D01*
X144276885Y-141293343D02*
X143914028Y-141293343D01*
X143914028Y-141293343D02*
X143793075Y-141232867D01*
X143793075Y-141232867D02*
X143732599Y-141172390D01*
X131248790Y-140067972D02*
X131248790Y-140975115D01*
X131248790Y-140975115D02*
X131188313Y-141156543D01*
X131188313Y-141156543D02*
X131067361Y-141277496D01*
X131067361Y-141277496D02*
X130885932Y-141337972D01*
X130885932Y-141337972D02*
X130764980Y-141337972D01*
X132397837Y-140491305D02*
X132397837Y-141337972D01*
X132095456Y-140007496D02*
X131793075Y-140914638D01*
X131793075Y-140914638D02*
X132579266Y-140914638D01*
X173704504Y-99218779D02*
X173795218Y-99249017D01*
X173795218Y-99249017D02*
X173946409Y-99249017D01*
X173946409Y-99249017D02*
X174006885Y-99218779D01*
X174006885Y-99218779D02*
X174037123Y-99188540D01*
X174037123Y-99188540D02*
X174067361Y-99128064D01*
X174067361Y-99128064D02*
X174067361Y-99067588D01*
X174067361Y-99067588D02*
X174037123Y-99007112D01*
X174037123Y-99007112D02*
X174006885Y-98976874D01*
X174006885Y-98976874D02*
X173946409Y-98946636D01*
X173946409Y-98946636D02*
X173825456Y-98916398D01*
X173825456Y-98916398D02*
X173764980Y-98886159D01*
X173764980Y-98886159D02*
X173734742Y-98855921D01*
X173734742Y-98855921D02*
X173704504Y-98795445D01*
X173704504Y-98795445D02*
X173704504Y-98734969D01*
X173704504Y-98734969D02*
X173734742Y-98674493D01*
X173734742Y-98674493D02*
X173764980Y-98644255D01*
X173764980Y-98644255D02*
X173825456Y-98614017D01*
X173825456Y-98614017D02*
X173976647Y-98614017D01*
X173976647Y-98614017D02*
X174067361Y-98644255D01*
X174339504Y-99249017D02*
X174339504Y-98825683D01*
X174339504Y-98614017D02*
X174309266Y-98644255D01*
X174309266Y-98644255D02*
X174339504Y-98674493D01*
X174339504Y-98674493D02*
X174369742Y-98644255D01*
X174369742Y-98644255D02*
X174339504Y-98614017D01*
X174339504Y-98614017D02*
X174339504Y-98674493D01*
X174914028Y-98825683D02*
X174914028Y-99339731D01*
X174914028Y-99339731D02*
X174883790Y-99400207D01*
X174883790Y-99400207D02*
X174853552Y-99430445D01*
X174853552Y-99430445D02*
X174793075Y-99460683D01*
X174793075Y-99460683D02*
X174702361Y-99460683D01*
X174702361Y-99460683D02*
X174641885Y-99430445D01*
X174914028Y-99218779D02*
X174853552Y-99249017D01*
X174853552Y-99249017D02*
X174732599Y-99249017D01*
X174732599Y-99249017D02*
X174672123Y-99218779D01*
X174672123Y-99218779D02*
X174641885Y-99188540D01*
X174641885Y-99188540D02*
X174611647Y-99128064D01*
X174611647Y-99128064D02*
X174611647Y-98946636D01*
X174611647Y-98946636D02*
X174641885Y-98886159D01*
X174641885Y-98886159D02*
X174672123Y-98855921D01*
X174672123Y-98855921D02*
X174732599Y-98825683D01*
X174732599Y-98825683D02*
X174853552Y-98825683D01*
X174853552Y-98825683D02*
X174914028Y-98855921D01*
X175639743Y-98614017D02*
X176032838Y-98614017D01*
X176032838Y-98614017D02*
X175821171Y-98855921D01*
X175821171Y-98855921D02*
X175911886Y-98855921D01*
X175911886Y-98855921D02*
X175972362Y-98886159D01*
X175972362Y-98886159D02*
X176002600Y-98916398D01*
X176002600Y-98916398D02*
X176032838Y-98976874D01*
X176032838Y-98976874D02*
X176032838Y-99128064D01*
X176032838Y-99128064D02*
X176002600Y-99188540D01*
X176002600Y-99188540D02*
X175972362Y-99218779D01*
X175972362Y-99218779D02*
X175911886Y-99249017D01*
X175911886Y-99249017D02*
X175730457Y-99249017D01*
X175730457Y-99249017D02*
X175669981Y-99218779D01*
X175669981Y-99218779D02*
X175639743Y-99188540D01*
X132385932Y-90067972D02*
X132385932Y-91096067D01*
X132385932Y-91096067D02*
X132446409Y-91217019D01*
X132446409Y-91217019D02*
X132506885Y-91277496D01*
X132506885Y-91277496D02*
X132627837Y-91337972D01*
X132627837Y-91337972D02*
X132869742Y-91337972D01*
X132869742Y-91337972D02*
X132990694Y-91277496D01*
X132990694Y-91277496D02*
X133051171Y-91217019D01*
X133051171Y-91217019D02*
X133111647Y-91096067D01*
X133111647Y-91096067D02*
X133111647Y-90067972D01*
X134381647Y-91337972D02*
X133655932Y-91337972D01*
X134018789Y-91337972D02*
X134018789Y-90067972D01*
X134018789Y-90067972D02*
X133897837Y-90249400D01*
X133897837Y-90249400D02*
X133776885Y-90370353D01*
X133776885Y-90370353D02*
X133655932Y-90430829D01*
X134204504Y-133885446D02*
X134295218Y-133915684D01*
X134295218Y-133915684D02*
X134446409Y-133915684D01*
X134446409Y-133915684D02*
X134506885Y-133885446D01*
X134506885Y-133885446D02*
X134537123Y-133855207D01*
X134537123Y-133855207D02*
X134567361Y-133794731D01*
X134567361Y-133794731D02*
X134567361Y-133734255D01*
X134567361Y-133734255D02*
X134537123Y-133673779D01*
X134537123Y-133673779D02*
X134506885Y-133643541D01*
X134506885Y-133643541D02*
X134446409Y-133613303D01*
X134446409Y-133613303D02*
X134325456Y-133583065D01*
X134325456Y-133583065D02*
X134264980Y-133552826D01*
X134264980Y-133552826D02*
X134234742Y-133522588D01*
X134234742Y-133522588D02*
X134204504Y-133462112D01*
X134204504Y-133462112D02*
X134204504Y-133401636D01*
X134204504Y-133401636D02*
X134234742Y-133341160D01*
X134234742Y-133341160D02*
X134264980Y-133310922D01*
X134264980Y-133310922D02*
X134325456Y-133280684D01*
X134325456Y-133280684D02*
X134476647Y-133280684D01*
X134476647Y-133280684D02*
X134567361Y-133310922D01*
X134839504Y-133915684D02*
X134839504Y-133492350D01*
X134839504Y-133280684D02*
X134809266Y-133310922D01*
X134809266Y-133310922D02*
X134839504Y-133341160D01*
X134839504Y-133341160D02*
X134869742Y-133310922D01*
X134869742Y-133310922D02*
X134839504Y-133280684D01*
X134839504Y-133280684D02*
X134839504Y-133341160D01*
X135414028Y-133492350D02*
X135414028Y-134006398D01*
X135414028Y-134006398D02*
X135383790Y-134066874D01*
X135383790Y-134066874D02*
X135353552Y-134097112D01*
X135353552Y-134097112D02*
X135293075Y-134127350D01*
X135293075Y-134127350D02*
X135202361Y-134127350D01*
X135202361Y-134127350D02*
X135141885Y-134097112D01*
X135414028Y-133885446D02*
X135353552Y-133915684D01*
X135353552Y-133915684D02*
X135232599Y-133915684D01*
X135232599Y-133915684D02*
X135172123Y-133885446D01*
X135172123Y-133885446D02*
X135141885Y-133855207D01*
X135141885Y-133855207D02*
X135111647Y-133794731D01*
X135111647Y-133794731D02*
X135111647Y-133613303D01*
X135111647Y-133613303D02*
X135141885Y-133552826D01*
X135141885Y-133552826D02*
X135172123Y-133522588D01*
X135172123Y-133522588D02*
X135232599Y-133492350D01*
X135232599Y-133492350D02*
X135353552Y-133492350D01*
X135353552Y-133492350D02*
X135414028Y-133522588D01*
X136139743Y-133280684D02*
X136532838Y-133280684D01*
X136532838Y-133280684D02*
X136321171Y-133522588D01*
X136321171Y-133522588D02*
X136411886Y-133522588D01*
X136411886Y-133522588D02*
X136472362Y-133552826D01*
X136472362Y-133552826D02*
X136502600Y-133583065D01*
X136502600Y-133583065D02*
X136532838Y-133643541D01*
X136532838Y-133643541D02*
X136532838Y-133794731D01*
X136532838Y-133794731D02*
X136502600Y-133855207D01*
X136502600Y-133855207D02*
X136472362Y-133885446D01*
X136472362Y-133885446D02*
X136411886Y-133915684D01*
X136411886Y-133915684D02*
X136230457Y-133915684D01*
X136230457Y-133915684D02*
X136169981Y-133885446D01*
X136169981Y-133885446D02*
X136139743Y-133855207D01*
X121704504Y-133885446D02*
X121795218Y-133915684D01*
X121795218Y-133915684D02*
X121946409Y-133915684D01*
X121946409Y-133915684D02*
X122006885Y-133885446D01*
X122006885Y-133885446D02*
X122037123Y-133855207D01*
X122037123Y-133855207D02*
X122067361Y-133794731D01*
X122067361Y-133794731D02*
X122067361Y-133734255D01*
X122067361Y-133734255D02*
X122037123Y-133673779D01*
X122037123Y-133673779D02*
X122006885Y-133643541D01*
X122006885Y-133643541D02*
X121946409Y-133613303D01*
X121946409Y-133613303D02*
X121825456Y-133583065D01*
X121825456Y-133583065D02*
X121764980Y-133552826D01*
X121764980Y-133552826D02*
X121734742Y-133522588D01*
X121734742Y-133522588D02*
X121704504Y-133462112D01*
X121704504Y-133462112D02*
X121704504Y-133401636D01*
X121704504Y-133401636D02*
X121734742Y-133341160D01*
X121734742Y-133341160D02*
X121764980Y-133310922D01*
X121764980Y-133310922D02*
X121825456Y-133280684D01*
X121825456Y-133280684D02*
X121976647Y-133280684D01*
X121976647Y-133280684D02*
X122067361Y-133310922D01*
X122339504Y-133915684D02*
X122339504Y-133492350D01*
X122339504Y-133280684D02*
X122309266Y-133310922D01*
X122309266Y-133310922D02*
X122339504Y-133341160D01*
X122339504Y-133341160D02*
X122369742Y-133310922D01*
X122369742Y-133310922D02*
X122339504Y-133280684D01*
X122339504Y-133280684D02*
X122339504Y-133341160D01*
X122914028Y-133492350D02*
X122914028Y-134006398D01*
X122914028Y-134006398D02*
X122883790Y-134066874D01*
X122883790Y-134066874D02*
X122853552Y-134097112D01*
X122853552Y-134097112D02*
X122793075Y-134127350D01*
X122793075Y-134127350D02*
X122702361Y-134127350D01*
X122702361Y-134127350D02*
X122641885Y-134097112D01*
X122914028Y-133885446D02*
X122853552Y-133915684D01*
X122853552Y-133915684D02*
X122732599Y-133915684D01*
X122732599Y-133915684D02*
X122672123Y-133885446D01*
X122672123Y-133885446D02*
X122641885Y-133855207D01*
X122641885Y-133855207D02*
X122611647Y-133794731D01*
X122611647Y-133794731D02*
X122611647Y-133613303D01*
X122611647Y-133613303D02*
X122641885Y-133552826D01*
X122641885Y-133552826D02*
X122672123Y-133522588D01*
X122672123Y-133522588D02*
X122732599Y-133492350D01*
X122732599Y-133492350D02*
X122853552Y-133492350D01*
X122853552Y-133492350D02*
X122914028Y-133522588D01*
X123669981Y-133341160D02*
X123700219Y-133310922D01*
X123700219Y-133310922D02*
X123760695Y-133280684D01*
X123760695Y-133280684D02*
X123911886Y-133280684D01*
X123911886Y-133280684D02*
X123972362Y-133310922D01*
X123972362Y-133310922D02*
X124002600Y-133341160D01*
X124002600Y-133341160D02*
X124032838Y-133401636D01*
X124032838Y-133401636D02*
X124032838Y-133462112D01*
X124032838Y-133462112D02*
X124002600Y-133552826D01*
X124002600Y-133552826D02*
X123639743Y-133915684D01*
X123639743Y-133915684D02*
X124032838Y-133915684D01*
X109204504Y-133885446D02*
X109295218Y-133915684D01*
X109295218Y-133915684D02*
X109446409Y-133915684D01*
X109446409Y-133915684D02*
X109506885Y-133885446D01*
X109506885Y-133885446D02*
X109537123Y-133855207D01*
X109537123Y-133855207D02*
X109567361Y-133794731D01*
X109567361Y-133794731D02*
X109567361Y-133734255D01*
X109567361Y-133734255D02*
X109537123Y-133673779D01*
X109537123Y-133673779D02*
X109506885Y-133643541D01*
X109506885Y-133643541D02*
X109446409Y-133613303D01*
X109446409Y-133613303D02*
X109325456Y-133583065D01*
X109325456Y-133583065D02*
X109264980Y-133552826D01*
X109264980Y-133552826D02*
X109234742Y-133522588D01*
X109234742Y-133522588D02*
X109204504Y-133462112D01*
X109204504Y-133462112D02*
X109204504Y-133401636D01*
X109204504Y-133401636D02*
X109234742Y-133341160D01*
X109234742Y-133341160D02*
X109264980Y-133310922D01*
X109264980Y-133310922D02*
X109325456Y-133280684D01*
X109325456Y-133280684D02*
X109476647Y-133280684D01*
X109476647Y-133280684D02*
X109567361Y-133310922D01*
X109839504Y-133915684D02*
X109839504Y-133492350D01*
X109839504Y-133280684D02*
X109809266Y-133310922D01*
X109809266Y-133310922D02*
X109839504Y-133341160D01*
X109839504Y-133341160D02*
X109869742Y-133310922D01*
X109869742Y-133310922D02*
X109839504Y-133280684D01*
X109839504Y-133280684D02*
X109839504Y-133341160D01*
X110414028Y-133492350D02*
X110414028Y-134006398D01*
X110414028Y-134006398D02*
X110383790Y-134066874D01*
X110383790Y-134066874D02*
X110353552Y-134097112D01*
X110353552Y-134097112D02*
X110293075Y-134127350D01*
X110293075Y-134127350D02*
X110202361Y-134127350D01*
X110202361Y-134127350D02*
X110141885Y-134097112D01*
X110414028Y-133885446D02*
X110353552Y-133915684D01*
X110353552Y-133915684D02*
X110232599Y-133915684D01*
X110232599Y-133915684D02*
X110172123Y-133885446D01*
X110172123Y-133885446D02*
X110141885Y-133855207D01*
X110141885Y-133855207D02*
X110111647Y-133794731D01*
X110111647Y-133794731D02*
X110111647Y-133613303D01*
X110111647Y-133613303D02*
X110141885Y-133552826D01*
X110141885Y-133552826D02*
X110172123Y-133522588D01*
X110172123Y-133522588D02*
X110232599Y-133492350D01*
X110232599Y-133492350D02*
X110353552Y-133492350D01*
X110353552Y-133492350D02*
X110414028Y-133522588D01*
X111532838Y-133915684D02*
X111169981Y-133915684D01*
X111351409Y-133915684D02*
X111351409Y-133280684D01*
X111351409Y-133280684D02*
X111290933Y-133371398D01*
X111290933Y-133371398D02*
X111230457Y-133431874D01*
X111230457Y-133431874D02*
X111169981Y-133462112D01*
X173704504Y-116385446D02*
X173795218Y-116415684D01*
X173795218Y-116415684D02*
X173946409Y-116415684D01*
X173946409Y-116415684D02*
X174006885Y-116385446D01*
X174006885Y-116385446D02*
X174037123Y-116355207D01*
X174037123Y-116355207D02*
X174067361Y-116294731D01*
X174067361Y-116294731D02*
X174067361Y-116234255D01*
X174067361Y-116234255D02*
X174037123Y-116173779D01*
X174037123Y-116173779D02*
X174006885Y-116143541D01*
X174006885Y-116143541D02*
X173946409Y-116113303D01*
X173946409Y-116113303D02*
X173825456Y-116083065D01*
X173825456Y-116083065D02*
X173764980Y-116052826D01*
X173764980Y-116052826D02*
X173734742Y-116022588D01*
X173734742Y-116022588D02*
X173704504Y-115962112D01*
X173704504Y-115962112D02*
X173704504Y-115901636D01*
X173704504Y-115901636D02*
X173734742Y-115841160D01*
X173734742Y-115841160D02*
X173764980Y-115810922D01*
X173764980Y-115810922D02*
X173825456Y-115780684D01*
X173825456Y-115780684D02*
X173976647Y-115780684D01*
X173976647Y-115780684D02*
X174067361Y-115810922D01*
X174339504Y-116415684D02*
X174339504Y-115992350D01*
X174339504Y-115780684D02*
X174309266Y-115810922D01*
X174309266Y-115810922D02*
X174339504Y-115841160D01*
X174339504Y-115841160D02*
X174369742Y-115810922D01*
X174369742Y-115810922D02*
X174339504Y-115780684D01*
X174339504Y-115780684D02*
X174339504Y-115841160D01*
X174914028Y-115992350D02*
X174914028Y-116506398D01*
X174914028Y-116506398D02*
X174883790Y-116566874D01*
X174883790Y-116566874D02*
X174853552Y-116597112D01*
X174853552Y-116597112D02*
X174793075Y-116627350D01*
X174793075Y-116627350D02*
X174702361Y-116627350D01*
X174702361Y-116627350D02*
X174641885Y-116597112D01*
X174914028Y-116385446D02*
X174853552Y-116415684D01*
X174853552Y-116415684D02*
X174732599Y-116415684D01*
X174732599Y-116415684D02*
X174672123Y-116385446D01*
X174672123Y-116385446D02*
X174641885Y-116355207D01*
X174641885Y-116355207D02*
X174611647Y-116294731D01*
X174611647Y-116294731D02*
X174611647Y-116113303D01*
X174611647Y-116113303D02*
X174641885Y-116052826D01*
X174641885Y-116052826D02*
X174672123Y-116022588D01*
X174672123Y-116022588D02*
X174732599Y-115992350D01*
X174732599Y-115992350D02*
X174853552Y-115992350D01*
X174853552Y-115992350D02*
X174914028Y-116022588D01*
X175669981Y-115841160D02*
X175700219Y-115810922D01*
X175700219Y-115810922D02*
X175760695Y-115780684D01*
X175760695Y-115780684D02*
X175911886Y-115780684D01*
X175911886Y-115780684D02*
X175972362Y-115810922D01*
X175972362Y-115810922D02*
X176002600Y-115841160D01*
X176002600Y-115841160D02*
X176032838Y-115901636D01*
X176032838Y-115901636D02*
X176032838Y-115962112D01*
X176032838Y-115962112D02*
X176002600Y-116052826D01*
X176002600Y-116052826D02*
X175639743Y-116415684D01*
X175639743Y-116415684D02*
X176032838Y-116415684D01*
X92567972Y-134751209D02*
X93475115Y-134751209D01*
X93475115Y-134751209D02*
X93656543Y-134811686D01*
X93656543Y-134811686D02*
X93777496Y-134932638D01*
X93777496Y-134932638D02*
X93837972Y-135114067D01*
X93837972Y-135114067D02*
X93837972Y-135235019D01*
X93837972Y-133481209D02*
X93837972Y-134206924D01*
X93837972Y-133844067D02*
X92567972Y-133844067D01*
X92567972Y-133844067D02*
X92749400Y-133965019D01*
X92749400Y-133965019D02*
X92870353Y-134085971D01*
X92870353Y-134085971D02*
X92930829Y-134206924D01*
X93837972Y-132271685D02*
X93837972Y-132997400D01*
X93837972Y-132634543D02*
X92567972Y-132634543D01*
X92567972Y-132634543D02*
X92749400Y-132755495D01*
X92749400Y-132755495D02*
X92870353Y-132876447D01*
X92870353Y-132876447D02*
X92930829Y-132997400D01*
X173704504Y-81885446D02*
X173795218Y-81915684D01*
X173795218Y-81915684D02*
X173946409Y-81915684D01*
X173946409Y-81915684D02*
X174006885Y-81885446D01*
X174006885Y-81885446D02*
X174037123Y-81855207D01*
X174037123Y-81855207D02*
X174067361Y-81794731D01*
X174067361Y-81794731D02*
X174067361Y-81734255D01*
X174067361Y-81734255D02*
X174037123Y-81673779D01*
X174037123Y-81673779D02*
X174006885Y-81643541D01*
X174006885Y-81643541D02*
X173946409Y-81613303D01*
X173946409Y-81613303D02*
X173825456Y-81583065D01*
X173825456Y-81583065D02*
X173764980Y-81552826D01*
X173764980Y-81552826D02*
X173734742Y-81522588D01*
X173734742Y-81522588D02*
X173704504Y-81462112D01*
X173704504Y-81462112D02*
X173704504Y-81401636D01*
X173704504Y-81401636D02*
X173734742Y-81341160D01*
X173734742Y-81341160D02*
X173764980Y-81310922D01*
X173764980Y-81310922D02*
X173825456Y-81280684D01*
X173825456Y-81280684D02*
X173976647Y-81280684D01*
X173976647Y-81280684D02*
X174067361Y-81310922D01*
X174339504Y-81915684D02*
X174339504Y-81492350D01*
X174339504Y-81280684D02*
X174309266Y-81310922D01*
X174309266Y-81310922D02*
X174339504Y-81341160D01*
X174339504Y-81341160D02*
X174369742Y-81310922D01*
X174369742Y-81310922D02*
X174339504Y-81280684D01*
X174339504Y-81280684D02*
X174339504Y-81341160D01*
X174914028Y-81492350D02*
X174914028Y-82006398D01*
X174914028Y-82006398D02*
X174883790Y-82066874D01*
X174883790Y-82066874D02*
X174853552Y-82097112D01*
X174853552Y-82097112D02*
X174793075Y-82127350D01*
X174793075Y-82127350D02*
X174702361Y-82127350D01*
X174702361Y-82127350D02*
X174641885Y-82097112D01*
X174914028Y-81885446D02*
X174853552Y-81915684D01*
X174853552Y-81915684D02*
X174732599Y-81915684D01*
X174732599Y-81915684D02*
X174672123Y-81885446D01*
X174672123Y-81885446D02*
X174641885Y-81855207D01*
X174641885Y-81855207D02*
X174611647Y-81794731D01*
X174611647Y-81794731D02*
X174611647Y-81613303D01*
X174611647Y-81613303D02*
X174641885Y-81552826D01*
X174641885Y-81552826D02*
X174672123Y-81522588D01*
X174672123Y-81522588D02*
X174732599Y-81492350D01*
X174732599Y-81492350D02*
X174853552Y-81492350D01*
X174853552Y-81492350D02*
X174914028Y-81522588D01*
X175972362Y-81492350D02*
X175972362Y-81915684D01*
X175821171Y-81250446D02*
X175669981Y-81704017D01*
X175669981Y-81704017D02*
X176063076Y-81704017D01*
X171748790Y-91067972D02*
X171748790Y-91975115D01*
X171748790Y-91975115D02*
X171688313Y-92156543D01*
X171688313Y-92156543D02*
X171567361Y-92277496D01*
X171567361Y-92277496D02*
X171385932Y-92337972D01*
X171385932Y-92337972D02*
X171264980Y-92337972D01*
X172414028Y-92337972D02*
X172655932Y-92337972D01*
X172655932Y-92337972D02*
X172776885Y-92277496D01*
X172776885Y-92277496D02*
X172837361Y-92217019D01*
X172837361Y-92217019D02*
X172958313Y-92035591D01*
X172958313Y-92035591D02*
X173018790Y-91793686D01*
X173018790Y-91793686D02*
X173018790Y-91309876D01*
X173018790Y-91309876D02*
X172958313Y-91188924D01*
X172958313Y-91188924D02*
X172897837Y-91128448D01*
X172897837Y-91128448D02*
X172776885Y-91067972D01*
X172776885Y-91067972D02*
X172534980Y-91067972D01*
X172534980Y-91067972D02*
X172414028Y-91128448D01*
X172414028Y-91128448D02*
X172353551Y-91188924D01*
X172353551Y-91188924D02*
X172293075Y-91309876D01*
X172293075Y-91309876D02*
X172293075Y-91612257D01*
X172293075Y-91612257D02*
X172353551Y-91733210D01*
X172353551Y-91733210D02*
X172414028Y-91793686D01*
X172414028Y-91793686D02*
X172534980Y-91854162D01*
X172534980Y-91854162D02*
X172776885Y-91854162D01*
X172776885Y-91854162D02*
X172897837Y-91793686D01*
X172897837Y-91793686D02*
X172958313Y-91733210D01*
X172958313Y-91733210D02*
X173018790Y-91612257D01*
X146704504Y-133885446D02*
X146795218Y-133915684D01*
X146795218Y-133915684D02*
X146946409Y-133915684D01*
X146946409Y-133915684D02*
X147006885Y-133885446D01*
X147006885Y-133885446D02*
X147037123Y-133855207D01*
X147037123Y-133855207D02*
X147067361Y-133794731D01*
X147067361Y-133794731D02*
X147067361Y-133734255D01*
X147067361Y-133734255D02*
X147037123Y-133673779D01*
X147037123Y-133673779D02*
X147006885Y-133643541D01*
X147006885Y-133643541D02*
X146946409Y-133613303D01*
X146946409Y-133613303D02*
X146825456Y-133583065D01*
X146825456Y-133583065D02*
X146764980Y-133552826D01*
X146764980Y-133552826D02*
X146734742Y-133522588D01*
X146734742Y-133522588D02*
X146704504Y-133462112D01*
X146704504Y-133462112D02*
X146704504Y-133401636D01*
X146704504Y-133401636D02*
X146734742Y-133341160D01*
X146734742Y-133341160D02*
X146764980Y-133310922D01*
X146764980Y-133310922D02*
X146825456Y-133280684D01*
X146825456Y-133280684D02*
X146976647Y-133280684D01*
X146976647Y-133280684D02*
X147067361Y-133310922D01*
X147339504Y-133915684D02*
X147339504Y-133492350D01*
X147339504Y-133280684D02*
X147309266Y-133310922D01*
X147309266Y-133310922D02*
X147339504Y-133341160D01*
X147339504Y-133341160D02*
X147369742Y-133310922D01*
X147369742Y-133310922D02*
X147339504Y-133280684D01*
X147339504Y-133280684D02*
X147339504Y-133341160D01*
X147914028Y-133492350D02*
X147914028Y-134006398D01*
X147914028Y-134006398D02*
X147883790Y-134066874D01*
X147883790Y-134066874D02*
X147853552Y-134097112D01*
X147853552Y-134097112D02*
X147793075Y-134127350D01*
X147793075Y-134127350D02*
X147702361Y-134127350D01*
X147702361Y-134127350D02*
X147641885Y-134097112D01*
X147914028Y-133885446D02*
X147853552Y-133915684D01*
X147853552Y-133915684D02*
X147732599Y-133915684D01*
X147732599Y-133915684D02*
X147672123Y-133885446D01*
X147672123Y-133885446D02*
X147641885Y-133855207D01*
X147641885Y-133855207D02*
X147611647Y-133794731D01*
X147611647Y-133794731D02*
X147611647Y-133613303D01*
X147611647Y-133613303D02*
X147641885Y-133552826D01*
X147641885Y-133552826D02*
X147672123Y-133522588D01*
X147672123Y-133522588D02*
X147732599Y-133492350D01*
X147732599Y-133492350D02*
X147853552Y-133492350D01*
X147853552Y-133492350D02*
X147914028Y-133522588D01*
X148972362Y-133492350D02*
X148972362Y-133915684D01*
X148821171Y-133250446D02*
X148669981Y-133704017D01*
X148669981Y-133704017D02*
X149063076Y-133704017D01*
X147067972Y-73251209D02*
X147975115Y-73251209D01*
X147975115Y-73251209D02*
X148156543Y-73311686D01*
X148156543Y-73311686D02*
X148277496Y-73432638D01*
X148277496Y-73432638D02*
X148337972Y-73614067D01*
X148337972Y-73614067D02*
X148337972Y-73735019D01*
X148337972Y-71981209D02*
X148337972Y-72706924D01*
X148337972Y-72344067D02*
X147067972Y-72344067D01*
X147067972Y-72344067D02*
X147249400Y-72465019D01*
X147249400Y-72465019D02*
X147370353Y-72585971D01*
X147370353Y-72585971D02*
X147430829Y-72706924D01*
X171748790Y-125567972D02*
X171748790Y-126475115D01*
X171748790Y-126475115D02*
X171688313Y-126656543D01*
X171688313Y-126656543D02*
X171567361Y-126777496D01*
X171567361Y-126777496D02*
X171385932Y-126837972D01*
X171385932Y-126837972D02*
X171264980Y-126837972D01*
X172232599Y-125567972D02*
X173079266Y-125567972D01*
X173079266Y-125567972D02*
X172534980Y-126837972D01*
X140337972Y-87388352D02*
X139733210Y-87811686D01*
X140337972Y-88114067D02*
X139067972Y-88114067D01*
X139067972Y-88114067D02*
X139067972Y-87630257D01*
X139067972Y-87630257D02*
X139128448Y-87509305D01*
X139128448Y-87509305D02*
X139188924Y-87448828D01*
X139188924Y-87448828D02*
X139309876Y-87388352D01*
X139309876Y-87388352D02*
X139491305Y-87388352D01*
X139491305Y-87388352D02*
X139612257Y-87448828D01*
X139612257Y-87448828D02*
X139672734Y-87509305D01*
X139672734Y-87509305D02*
X139733210Y-87630257D01*
X139733210Y-87630257D02*
X139733210Y-88114067D01*
X139188924Y-86904543D02*
X139128448Y-86844067D01*
X139128448Y-86844067D02*
X139067972Y-86723114D01*
X139067972Y-86723114D02*
X139067972Y-86420733D01*
X139067972Y-86420733D02*
X139128448Y-86299781D01*
X139128448Y-86299781D02*
X139188924Y-86239305D01*
X139188924Y-86239305D02*
X139309876Y-86178828D01*
X139309876Y-86178828D02*
X139430829Y-86178828D01*
X139430829Y-86178828D02*
X139612257Y-86239305D01*
X139612257Y-86239305D02*
X140337972Y-86965019D01*
X140337972Y-86965019D02*
X140337972Y-86178828D01*
X110958314Y-129780684D02*
X110655933Y-129780684D01*
X110655933Y-129780684D02*
X110625695Y-130083065D01*
X110625695Y-130083065D02*
X110655933Y-130052826D01*
X110655933Y-130052826D02*
X110716409Y-130022588D01*
X110716409Y-130022588D02*
X110867600Y-130022588D01*
X110867600Y-130022588D02*
X110928076Y-130052826D01*
X110928076Y-130052826D02*
X110958314Y-130083065D01*
X110958314Y-130083065D02*
X110988552Y-130143541D01*
X110988552Y-130143541D02*
X110988552Y-130294731D01*
X110988552Y-130294731D02*
X110958314Y-130355207D01*
X110958314Y-130355207D02*
X110928076Y-130385446D01*
X110928076Y-130385446D02*
X110867600Y-130415684D01*
X110867600Y-130415684D02*
X110716409Y-130415684D01*
X110716409Y-130415684D02*
X110655933Y-130385446D01*
X110655933Y-130385446D02*
X110625695Y-130355207D01*
X111169981Y-129780684D02*
X111381647Y-130415684D01*
X111381647Y-130415684D02*
X111593314Y-129780684D01*
X155748790Y-140067972D02*
X155748790Y-140975115D01*
X155748790Y-140975115D02*
X155688313Y-141156543D01*
X155688313Y-141156543D02*
X155567361Y-141277496D01*
X155567361Y-141277496D02*
X155385932Y-141337972D01*
X155385932Y-141337972D02*
X155264980Y-141337972D01*
X156293075Y-140188924D02*
X156353551Y-140128448D01*
X156353551Y-140128448D02*
X156474504Y-140067972D01*
X156474504Y-140067972D02*
X156776885Y-140067972D01*
X156776885Y-140067972D02*
X156897837Y-140128448D01*
X156897837Y-140128448D02*
X156958313Y-140188924D01*
X156958313Y-140188924D02*
X157018790Y-140309876D01*
X157018790Y-140309876D02*
X157018790Y-140430829D01*
X157018790Y-140430829D02*
X156958313Y-140612257D01*
X156958313Y-140612257D02*
X156232599Y-141337972D01*
X156232599Y-141337972D02*
X157018790Y-141337972D01*
X123825456Y-144277496D02*
X124006885Y-144337972D01*
X124006885Y-144337972D02*
X124309266Y-144337972D01*
X124309266Y-144337972D02*
X124430218Y-144277496D01*
X124430218Y-144277496D02*
X124490694Y-144217019D01*
X124490694Y-144217019D02*
X124551171Y-144096067D01*
X124551171Y-144096067D02*
X124551171Y-143975115D01*
X124551171Y-143975115D02*
X124490694Y-143854162D01*
X124490694Y-143854162D02*
X124430218Y-143793686D01*
X124430218Y-143793686D02*
X124309266Y-143733210D01*
X124309266Y-143733210D02*
X124067361Y-143672734D01*
X124067361Y-143672734D02*
X123946409Y-143612257D01*
X123946409Y-143612257D02*
X123885932Y-143551781D01*
X123885932Y-143551781D02*
X123825456Y-143430829D01*
X123825456Y-143430829D02*
X123825456Y-143309876D01*
X123825456Y-143309876D02*
X123885932Y-143188924D01*
X123885932Y-143188924D02*
X123946409Y-143128448D01*
X123946409Y-143128448D02*
X124067361Y-143067972D01*
X124067361Y-143067972D02*
X124369742Y-143067972D01*
X124369742Y-143067972D02*
X124551171Y-143128448D01*
X125821171Y-144217019D02*
X125760695Y-144277496D01*
X125760695Y-144277496D02*
X125579266Y-144337972D01*
X125579266Y-144337972D02*
X125458314Y-144337972D01*
X125458314Y-144337972D02*
X125276885Y-144277496D01*
X125276885Y-144277496D02*
X125155933Y-144156543D01*
X125155933Y-144156543D02*
X125095456Y-144035591D01*
X125095456Y-144035591D02*
X125034980Y-143793686D01*
X125034980Y-143793686D02*
X125034980Y-143612257D01*
X125034980Y-143612257D02*
X125095456Y-143370353D01*
X125095456Y-143370353D02*
X125155933Y-143249400D01*
X125155933Y-143249400D02*
X125276885Y-143128448D01*
X125276885Y-143128448D02*
X125458314Y-143067972D01*
X125458314Y-143067972D02*
X125579266Y-143067972D01*
X125579266Y-143067972D02*
X125760695Y-143128448D01*
X125760695Y-143128448D02*
X125821171Y-143188924D01*
X126365456Y-144337972D02*
X126365456Y-143067972D01*
X126365456Y-143672734D02*
X127091171Y-143672734D01*
X127091171Y-144337972D02*
X127091171Y-143067972D01*
X127695932Y-144337972D02*
X127695932Y-143067972D01*
X127695932Y-143067972D02*
X128119266Y-143975115D01*
X128119266Y-143975115D02*
X128542599Y-143067972D01*
X128542599Y-143067972D02*
X128542599Y-144337972D01*
X129147361Y-144337972D02*
X129147361Y-143067972D01*
X129570695Y-143067972D02*
X130296409Y-143067972D01*
X129933552Y-144337972D02*
X129933552Y-143067972D01*
X130538314Y-143067972D02*
X131264028Y-143067972D01*
X130901171Y-144337972D02*
X130901171Y-143067972D01*
X132473552Y-143067972D02*
X133199266Y-143067972D01*
X132836409Y-144337972D02*
X132836409Y-143067972D01*
X134348314Y-144337972D02*
X133924980Y-143733210D01*
X133622599Y-144337972D02*
X133622599Y-143067972D01*
X133622599Y-143067972D02*
X134106409Y-143067972D01*
X134106409Y-143067972D02*
X134227361Y-143128448D01*
X134227361Y-143128448D02*
X134287838Y-143188924D01*
X134287838Y-143188924D02*
X134348314Y-143309876D01*
X134348314Y-143309876D02*
X134348314Y-143491305D01*
X134348314Y-143491305D02*
X134287838Y-143612257D01*
X134287838Y-143612257D02*
X134227361Y-143672734D01*
X134227361Y-143672734D02*
X134106409Y-143733210D01*
X134106409Y-143733210D02*
X133622599Y-143733210D01*
X134892599Y-144337972D02*
X134892599Y-143067972D01*
X136162600Y-143128448D02*
X136041647Y-143067972D01*
X136041647Y-143067972D02*
X135860219Y-143067972D01*
X135860219Y-143067972D02*
X135678790Y-143128448D01*
X135678790Y-143128448D02*
X135557838Y-143249400D01*
X135557838Y-143249400D02*
X135497361Y-143370353D01*
X135497361Y-143370353D02*
X135436885Y-143612257D01*
X135436885Y-143612257D02*
X135436885Y-143793686D01*
X135436885Y-143793686D02*
X135497361Y-144035591D01*
X135497361Y-144035591D02*
X135557838Y-144156543D01*
X135557838Y-144156543D02*
X135678790Y-144277496D01*
X135678790Y-144277496D02*
X135860219Y-144337972D01*
X135860219Y-144337972D02*
X135981171Y-144337972D01*
X135981171Y-144337972D02*
X136162600Y-144277496D01*
X136162600Y-144277496D02*
X136223076Y-144217019D01*
X136223076Y-144217019D02*
X136223076Y-143793686D01*
X136223076Y-143793686D02*
X135981171Y-143793686D01*
X137432600Y-143128448D02*
X137311647Y-143067972D01*
X137311647Y-143067972D02*
X137130219Y-143067972D01*
X137130219Y-143067972D02*
X136948790Y-143128448D01*
X136948790Y-143128448D02*
X136827838Y-143249400D01*
X136827838Y-143249400D02*
X136767361Y-143370353D01*
X136767361Y-143370353D02*
X136706885Y-143612257D01*
X136706885Y-143612257D02*
X136706885Y-143793686D01*
X136706885Y-143793686D02*
X136767361Y-144035591D01*
X136767361Y-144035591D02*
X136827838Y-144156543D01*
X136827838Y-144156543D02*
X136948790Y-144277496D01*
X136948790Y-144277496D02*
X137130219Y-144337972D01*
X137130219Y-144337972D02*
X137251171Y-144337972D01*
X137251171Y-144337972D02*
X137432600Y-144277496D01*
X137432600Y-144277496D02*
X137493076Y-144217019D01*
X137493076Y-144217019D02*
X137493076Y-143793686D01*
X137493076Y-143793686D02*
X137251171Y-143793686D01*
X138037361Y-143672734D02*
X138460695Y-143672734D01*
X138642123Y-144337972D02*
X138037361Y-144337972D01*
X138037361Y-144337972D02*
X138037361Y-143067972D01*
X138037361Y-143067972D02*
X138642123Y-143067972D01*
X139912124Y-144337972D02*
X139488790Y-143733210D01*
X139186409Y-144337972D02*
X139186409Y-143067972D01*
X139186409Y-143067972D02*
X139670219Y-143067972D01*
X139670219Y-143067972D02*
X139791171Y-143128448D01*
X139791171Y-143128448D02*
X139851648Y-143188924D01*
X139851648Y-143188924D02*
X139912124Y-143309876D01*
X139912124Y-143309876D02*
X139912124Y-143491305D01*
X139912124Y-143491305D02*
X139851648Y-143612257D01*
X139851648Y-143612257D02*
X139791171Y-143672734D01*
X139791171Y-143672734D02*
X139670219Y-143733210D01*
X139670219Y-143733210D02*
X139186409Y-143733210D01*
X141424028Y-144337972D02*
X141424028Y-143067972D01*
X142028790Y-144337972D02*
X142028790Y-143067972D01*
X142028790Y-143067972D02*
X142754505Y-144337972D01*
X142754505Y-144337972D02*
X142754505Y-143067972D01*
X143359266Y-144337972D02*
X143359266Y-143067972D01*
X143359266Y-143067972D02*
X143843076Y-143067972D01*
X143843076Y-143067972D02*
X143964028Y-143128448D01*
X143964028Y-143128448D02*
X144024505Y-143188924D01*
X144024505Y-143188924D02*
X144084981Y-143309876D01*
X144084981Y-143309876D02*
X144084981Y-143491305D01*
X144084981Y-143491305D02*
X144024505Y-143612257D01*
X144024505Y-143612257D02*
X143964028Y-143672734D01*
X143964028Y-143672734D02*
X143843076Y-143733210D01*
X143843076Y-143733210D02*
X143359266Y-143733210D01*
X144629266Y-143067972D02*
X144629266Y-144096067D01*
X144629266Y-144096067D02*
X144689743Y-144217019D01*
X144689743Y-144217019D02*
X144750219Y-144277496D01*
X144750219Y-144277496D02*
X144871171Y-144337972D01*
X144871171Y-144337972D02*
X145113076Y-144337972D01*
X145113076Y-144337972D02*
X145234028Y-144277496D01*
X145234028Y-144277496D02*
X145294505Y-144217019D01*
X145294505Y-144217019D02*
X145354981Y-144096067D01*
X145354981Y-144096067D02*
X145354981Y-143067972D01*
X145778314Y-143067972D02*
X146504028Y-143067972D01*
X146141171Y-144337972D02*
X146141171Y-143067972D01*
X146866885Y-144277496D02*
X147048314Y-144337972D01*
X147048314Y-144337972D02*
X147350695Y-144337972D01*
X147350695Y-144337972D02*
X147471647Y-144277496D01*
X147471647Y-144277496D02*
X147532123Y-144217019D01*
X147532123Y-144217019D02*
X147592600Y-144096067D01*
X147592600Y-144096067D02*
X147592600Y-143975115D01*
X147592600Y-143975115D02*
X147532123Y-143854162D01*
X147532123Y-143854162D02*
X147471647Y-143793686D01*
X147471647Y-143793686D02*
X147350695Y-143733210D01*
X147350695Y-143733210D02*
X147108790Y-143672734D01*
X147108790Y-143672734D02*
X146987838Y-143612257D01*
X146987838Y-143612257D02*
X146927361Y-143551781D01*
X146927361Y-143551781D02*
X146866885Y-143430829D01*
X146866885Y-143430829D02*
X146866885Y-143309876D01*
X146866885Y-143309876D02*
X146927361Y-143188924D01*
X146927361Y-143188924D02*
X146987838Y-143128448D01*
X146987838Y-143128448D02*
X147108790Y-143067972D01*
X147108790Y-143067972D02*
X147411171Y-143067972D01*
X147411171Y-143067972D02*
X147592600Y-143128448D01*
X173704504Y-133385446D02*
X173795218Y-133415684D01*
X173795218Y-133415684D02*
X173946409Y-133415684D01*
X173946409Y-133415684D02*
X174006885Y-133385446D01*
X174006885Y-133385446D02*
X174037123Y-133355207D01*
X174037123Y-133355207D02*
X174067361Y-133294731D01*
X174067361Y-133294731D02*
X174067361Y-133234255D01*
X174067361Y-133234255D02*
X174037123Y-133173779D01*
X174037123Y-133173779D02*
X174006885Y-133143541D01*
X174006885Y-133143541D02*
X173946409Y-133113303D01*
X173946409Y-133113303D02*
X173825456Y-133083065D01*
X173825456Y-133083065D02*
X173764980Y-133052826D01*
X173764980Y-133052826D02*
X173734742Y-133022588D01*
X173734742Y-133022588D02*
X173704504Y-132962112D01*
X173704504Y-132962112D02*
X173704504Y-132901636D01*
X173704504Y-132901636D02*
X173734742Y-132841160D01*
X173734742Y-132841160D02*
X173764980Y-132810922D01*
X173764980Y-132810922D02*
X173825456Y-132780684D01*
X173825456Y-132780684D02*
X173976647Y-132780684D01*
X173976647Y-132780684D02*
X174067361Y-132810922D01*
X174339504Y-133415684D02*
X174339504Y-132992350D01*
X174339504Y-132780684D02*
X174309266Y-132810922D01*
X174309266Y-132810922D02*
X174339504Y-132841160D01*
X174339504Y-132841160D02*
X174369742Y-132810922D01*
X174369742Y-132810922D02*
X174339504Y-132780684D01*
X174339504Y-132780684D02*
X174339504Y-132841160D01*
X174914028Y-132992350D02*
X174914028Y-133506398D01*
X174914028Y-133506398D02*
X174883790Y-133566874D01*
X174883790Y-133566874D02*
X174853552Y-133597112D01*
X174853552Y-133597112D02*
X174793075Y-133627350D01*
X174793075Y-133627350D02*
X174702361Y-133627350D01*
X174702361Y-133627350D02*
X174641885Y-133597112D01*
X174914028Y-133385446D02*
X174853552Y-133415684D01*
X174853552Y-133415684D02*
X174732599Y-133415684D01*
X174732599Y-133415684D02*
X174672123Y-133385446D01*
X174672123Y-133385446D02*
X174641885Y-133355207D01*
X174641885Y-133355207D02*
X174611647Y-133294731D01*
X174611647Y-133294731D02*
X174611647Y-133113303D01*
X174611647Y-133113303D02*
X174641885Y-133052826D01*
X174641885Y-133052826D02*
X174672123Y-133022588D01*
X174672123Y-133022588D02*
X174732599Y-132992350D01*
X174732599Y-132992350D02*
X174853552Y-132992350D01*
X174853552Y-132992350D02*
X174914028Y-133022588D01*
X176032838Y-133415684D02*
X175669981Y-133415684D01*
X175851409Y-133415684D02*
X175851409Y-132780684D01*
X175851409Y-132780684D02*
X175790933Y-132871398D01*
X175790933Y-132871398D02*
X175730457Y-132931874D01*
X175730457Y-132931874D02*
X175669981Y-132962112D01*
X173674266Y-78280684D02*
X174067361Y-78280684D01*
X174067361Y-78280684D02*
X173855694Y-78522588D01*
X173855694Y-78522588D02*
X173946409Y-78522588D01*
X173946409Y-78522588D02*
X174006885Y-78552826D01*
X174006885Y-78552826D02*
X174037123Y-78583065D01*
X174037123Y-78583065D02*
X174067361Y-78643541D01*
X174067361Y-78643541D02*
X174067361Y-78794731D01*
X174067361Y-78794731D02*
X174037123Y-78855207D01*
X174037123Y-78855207D02*
X174006885Y-78885446D01*
X174006885Y-78885446D02*
X173946409Y-78915684D01*
X173946409Y-78915684D02*
X173764980Y-78915684D01*
X173764980Y-78915684D02*
X173704504Y-78885446D01*
X173704504Y-78885446D02*
X173674266Y-78855207D01*
X174339504Y-78855207D02*
X174369742Y-78885446D01*
X174369742Y-78885446D02*
X174339504Y-78915684D01*
X174339504Y-78915684D02*
X174309266Y-78885446D01*
X174309266Y-78885446D02*
X174339504Y-78855207D01*
X174339504Y-78855207D02*
X174339504Y-78915684D01*
X174581409Y-78280684D02*
X174974504Y-78280684D01*
X174974504Y-78280684D02*
X174762837Y-78522588D01*
X174762837Y-78522588D02*
X174853552Y-78522588D01*
X174853552Y-78522588D02*
X174914028Y-78552826D01*
X174914028Y-78552826D02*
X174944266Y-78583065D01*
X174944266Y-78583065D02*
X174974504Y-78643541D01*
X174974504Y-78643541D02*
X174974504Y-78794731D01*
X174974504Y-78794731D02*
X174944266Y-78855207D01*
X174944266Y-78855207D02*
X174914028Y-78885446D01*
X174914028Y-78885446D02*
X174853552Y-78915684D01*
X174853552Y-78915684D02*
X174672123Y-78915684D01*
X174672123Y-78915684D02*
X174611647Y-78885446D01*
X174611647Y-78885446D02*
X174581409Y-78855207D01*
X175155933Y-78280684D02*
X175367599Y-78915684D01*
X175367599Y-78915684D02*
X175579266Y-78280684D01*
X135111647Y-93217019D02*
X135051171Y-93277496D01*
X135051171Y-93277496D02*
X134869742Y-93337972D01*
X134869742Y-93337972D02*
X134748790Y-93337972D01*
X134748790Y-93337972D02*
X134567361Y-93277496D01*
X134567361Y-93277496D02*
X134446409Y-93156543D01*
X134446409Y-93156543D02*
X134385932Y-93035591D01*
X134385932Y-93035591D02*
X134325456Y-92793686D01*
X134325456Y-92793686D02*
X134325456Y-92612257D01*
X134325456Y-92612257D02*
X134385932Y-92370353D01*
X134385932Y-92370353D02*
X134446409Y-92249400D01*
X134446409Y-92249400D02*
X134567361Y-92128448D01*
X134567361Y-92128448D02*
X134748790Y-92067972D01*
X134748790Y-92067972D02*
X134869742Y-92067972D01*
X134869742Y-92067972D02*
X135051171Y-92128448D01*
X135051171Y-92128448D02*
X135111647Y-92188924D01*
X135534980Y-92067972D02*
X136381647Y-92067972D01*
X136381647Y-92067972D02*
X135837361Y-93337972D01*
X145067972Y-117614067D02*
X146096067Y-117614067D01*
X146096067Y-117614067D02*
X146217019Y-117553590D01*
X146217019Y-117553590D02*
X146277496Y-117493114D01*
X146277496Y-117493114D02*
X146337972Y-117372162D01*
X146337972Y-117372162D02*
X146337972Y-117130257D01*
X146337972Y-117130257D02*
X146277496Y-117009305D01*
X146277496Y-117009305D02*
X146217019Y-116948828D01*
X146217019Y-116948828D02*
X146096067Y-116888352D01*
X146096067Y-116888352D02*
X145067972Y-116888352D01*
X145188924Y-116344067D02*
X145128448Y-116283591D01*
X145128448Y-116283591D02*
X145067972Y-116162638D01*
X145067972Y-116162638D02*
X145067972Y-115860257D01*
X145067972Y-115860257D02*
X145128448Y-115739305D01*
X145128448Y-115739305D02*
X145188924Y-115678829D01*
X145188924Y-115678829D02*
X145309876Y-115618352D01*
X145309876Y-115618352D02*
X145430829Y-115618352D01*
X145430829Y-115618352D02*
X145612257Y-115678829D01*
X145612257Y-115678829D02*
X146337972Y-116404543D01*
X146337972Y-116404543D02*
X146337972Y-115618352D01*
X132111647Y-80717019D02*
X132051171Y-80777496D01*
X132051171Y-80777496D02*
X131869742Y-80837972D01*
X131869742Y-80837972D02*
X131748790Y-80837972D01*
X131748790Y-80837972D02*
X131567361Y-80777496D01*
X131567361Y-80777496D02*
X131446409Y-80656543D01*
X131446409Y-80656543D02*
X131385932Y-80535591D01*
X131385932Y-80535591D02*
X131325456Y-80293686D01*
X131325456Y-80293686D02*
X131325456Y-80112257D01*
X131325456Y-80112257D02*
X131385932Y-79870353D01*
X131385932Y-79870353D02*
X131446409Y-79749400D01*
X131446409Y-79749400D02*
X131567361Y-79628448D01*
X131567361Y-79628448D02*
X131748790Y-79567972D01*
X131748790Y-79567972D02*
X131869742Y-79567972D01*
X131869742Y-79567972D02*
X132051171Y-79628448D01*
X132051171Y-79628448D02*
X132111647Y-79688924D01*
X132837361Y-80112257D02*
X132716409Y-80051781D01*
X132716409Y-80051781D02*
X132655932Y-79991305D01*
X132655932Y-79991305D02*
X132595456Y-79870353D01*
X132595456Y-79870353D02*
X132595456Y-79809876D01*
X132595456Y-79809876D02*
X132655932Y-79688924D01*
X132655932Y-79688924D02*
X132716409Y-79628448D01*
X132716409Y-79628448D02*
X132837361Y-79567972D01*
X132837361Y-79567972D02*
X133079266Y-79567972D01*
X133079266Y-79567972D02*
X133200218Y-79628448D01*
X133200218Y-79628448D02*
X133260694Y-79688924D01*
X133260694Y-79688924D02*
X133321171Y-79809876D01*
X133321171Y-79809876D02*
X133321171Y-79870353D01*
X133321171Y-79870353D02*
X133260694Y-79991305D01*
X133260694Y-79991305D02*
X133200218Y-80051781D01*
X133200218Y-80051781D02*
X133079266Y-80112257D01*
X133079266Y-80112257D02*
X132837361Y-80112257D01*
X132837361Y-80112257D02*
X132716409Y-80172734D01*
X132716409Y-80172734D02*
X132655932Y-80233210D01*
X132655932Y-80233210D02*
X132595456Y-80354162D01*
X132595456Y-80354162D02*
X132595456Y-80596067D01*
X132595456Y-80596067D02*
X132655932Y-80717019D01*
X132655932Y-80717019D02*
X132716409Y-80777496D01*
X132716409Y-80777496D02*
X132837361Y-80837972D01*
X132837361Y-80837972D02*
X133079266Y-80837972D01*
X133079266Y-80837972D02*
X133200218Y-80777496D01*
X133200218Y-80777496D02*
X133260694Y-80717019D01*
X133260694Y-80717019D02*
X133321171Y-80596067D01*
X133321171Y-80596067D02*
X133321171Y-80354162D01*
X133321171Y-80354162D02*
X133260694Y-80233210D01*
X133260694Y-80233210D02*
X133200218Y-80172734D01*
X133200218Y-80172734D02*
X133079266Y-80112257D01*
X177725115Y-111424543D02*
X177725115Y-110819781D01*
X178087972Y-111545495D02*
X176817972Y-111122162D01*
X176817972Y-111122162D02*
X178087972Y-110698828D01*
X178087972Y-110275496D02*
X176817972Y-110275496D01*
X176817972Y-110275496D02*
X176817972Y-109973115D01*
X176817972Y-109973115D02*
X176878448Y-109791686D01*
X176878448Y-109791686D02*
X176999400Y-109670734D01*
X176999400Y-109670734D02*
X177120353Y-109610257D01*
X177120353Y-109610257D02*
X177362257Y-109549781D01*
X177362257Y-109549781D02*
X177543686Y-109549781D01*
X177543686Y-109549781D02*
X177785591Y-109610257D01*
X177785591Y-109610257D02*
X177906543Y-109670734D01*
X177906543Y-109670734D02*
X178027496Y-109791686D01*
X178027496Y-109791686D02*
X178087972Y-109973115D01*
X178087972Y-109973115D02*
X178087972Y-110275496D01*
X177967019Y-108279781D02*
X178027496Y-108340257D01*
X178027496Y-108340257D02*
X178087972Y-108521686D01*
X178087972Y-108521686D02*
X178087972Y-108642638D01*
X178087972Y-108642638D02*
X178027496Y-108824067D01*
X178027496Y-108824067D02*
X177906543Y-108945019D01*
X177906543Y-108945019D02*
X177785591Y-109005496D01*
X177785591Y-109005496D02*
X177543686Y-109065972D01*
X177543686Y-109065972D02*
X177362257Y-109065972D01*
X177362257Y-109065972D02*
X177120353Y-109005496D01*
X177120353Y-109005496D02*
X176999400Y-108945019D01*
X176999400Y-108945019D02*
X176878448Y-108824067D01*
X176878448Y-108824067D02*
X176817972Y-108642638D01*
X176817972Y-108642638D02*
X176817972Y-108521686D01*
X176817972Y-108521686D02*
X176878448Y-108340257D01*
X176878448Y-108340257D02*
X176938924Y-108279781D01*
X178087972Y-106767877D02*
X176817972Y-106767877D01*
X178087972Y-106163115D02*
X176817972Y-106163115D01*
X176817972Y-106163115D02*
X178087972Y-105437400D01*
X178087972Y-105437400D02*
X176817972Y-105437400D01*
X178087972Y-104832639D02*
X176817972Y-104832639D01*
X176817972Y-104832639D02*
X176817972Y-104348829D01*
X176817972Y-104348829D02*
X176878448Y-104227877D01*
X176878448Y-104227877D02*
X176938924Y-104167400D01*
X176938924Y-104167400D02*
X177059876Y-104106924D01*
X177059876Y-104106924D02*
X177241305Y-104106924D01*
X177241305Y-104106924D02*
X177362257Y-104167400D01*
X177362257Y-104167400D02*
X177422734Y-104227877D01*
X177422734Y-104227877D02*
X177483210Y-104348829D01*
X177483210Y-104348829D02*
X177483210Y-104832639D01*
X176817972Y-103562639D02*
X177846067Y-103562639D01*
X177846067Y-103562639D02*
X177967019Y-103502162D01*
X177967019Y-103502162D02*
X178027496Y-103441686D01*
X178027496Y-103441686D02*
X178087972Y-103320734D01*
X178087972Y-103320734D02*
X178087972Y-103078829D01*
X178087972Y-103078829D02*
X178027496Y-102957877D01*
X178027496Y-102957877D02*
X177967019Y-102897400D01*
X177967019Y-102897400D02*
X177846067Y-102836924D01*
X177846067Y-102836924D02*
X176817972Y-102836924D01*
X176817972Y-102413591D02*
X176817972Y-101687877D01*
X178087972Y-102050734D02*
X176817972Y-102050734D01*
X178027496Y-101325020D02*
X178087972Y-101143591D01*
X178087972Y-101143591D02*
X178087972Y-100841210D01*
X178087972Y-100841210D02*
X178027496Y-100720258D01*
X178027496Y-100720258D02*
X177967019Y-100659782D01*
X177967019Y-100659782D02*
X177846067Y-100599305D01*
X177846067Y-100599305D02*
X177725115Y-100599305D01*
X177725115Y-100599305D02*
X177604162Y-100659782D01*
X177604162Y-100659782D02*
X177543686Y-100720258D01*
X177543686Y-100720258D02*
X177483210Y-100841210D01*
X177483210Y-100841210D02*
X177422734Y-101083115D01*
X177422734Y-101083115D02*
X177362257Y-101204067D01*
X177362257Y-101204067D02*
X177301781Y-101264544D01*
X177301781Y-101264544D02*
X177180829Y-101325020D01*
X177180829Y-101325020D02*
X177059876Y-101325020D01*
X177059876Y-101325020D02*
X176938924Y-101264544D01*
X176938924Y-101264544D02*
X176878448Y-101204067D01*
X176878448Y-101204067D02*
X176817972Y-101083115D01*
X176817972Y-101083115D02*
X176817972Y-100780734D01*
X176817972Y-100780734D02*
X176878448Y-100599305D01*
X128967019Y-93888352D02*
X129027496Y-93948828D01*
X129027496Y-93948828D02*
X129087972Y-94130257D01*
X129087972Y-94130257D02*
X129087972Y-94251209D01*
X129087972Y-94251209D02*
X129027496Y-94432638D01*
X129027496Y-94432638D02*
X128906543Y-94553590D01*
X128906543Y-94553590D02*
X128785591Y-94614067D01*
X128785591Y-94614067D02*
X128543686Y-94674543D01*
X128543686Y-94674543D02*
X128362257Y-94674543D01*
X128362257Y-94674543D02*
X128120353Y-94614067D01*
X128120353Y-94614067D02*
X127999400Y-94553590D01*
X127999400Y-94553590D02*
X127878448Y-94432638D01*
X127878448Y-94432638D02*
X127817972Y-94251209D01*
X127817972Y-94251209D02*
X127817972Y-94130257D01*
X127817972Y-94130257D02*
X127878448Y-93948828D01*
X127878448Y-93948828D02*
X127938924Y-93888352D01*
X129087972Y-92678828D02*
X129087972Y-93404543D01*
X129087972Y-93041686D02*
X127817972Y-93041686D01*
X127817972Y-93041686D02*
X127999400Y-93162638D01*
X127999400Y-93162638D02*
X128120353Y-93283590D01*
X128120353Y-93283590D02*
X128180829Y-93404543D01*
X144467019Y-93388352D02*
X144527496Y-93448828D01*
X144527496Y-93448828D02*
X144587972Y-93630257D01*
X144587972Y-93630257D02*
X144587972Y-93751209D01*
X144587972Y-93751209D02*
X144527496Y-93932638D01*
X144527496Y-93932638D02*
X144406543Y-94053590D01*
X144406543Y-94053590D02*
X144285591Y-94114067D01*
X144285591Y-94114067D02*
X144043686Y-94174543D01*
X144043686Y-94174543D02*
X143862257Y-94174543D01*
X143862257Y-94174543D02*
X143620353Y-94114067D01*
X143620353Y-94114067D02*
X143499400Y-94053590D01*
X143499400Y-94053590D02*
X143378448Y-93932638D01*
X143378448Y-93932638D02*
X143317972Y-93751209D01*
X143317972Y-93751209D02*
X143317972Y-93630257D01*
X143317972Y-93630257D02*
X143378448Y-93448828D01*
X143378448Y-93448828D02*
X143438924Y-93388352D01*
X143317972Y-92299781D02*
X143317972Y-92541686D01*
X143317972Y-92541686D02*
X143378448Y-92662638D01*
X143378448Y-92662638D02*
X143438924Y-92723114D01*
X143438924Y-92723114D02*
X143620353Y-92844067D01*
X143620353Y-92844067D02*
X143862257Y-92904543D01*
X143862257Y-92904543D02*
X144346067Y-92904543D01*
X144346067Y-92904543D02*
X144467019Y-92844067D01*
X144467019Y-92844067D02*
X144527496Y-92783590D01*
X144527496Y-92783590D02*
X144587972Y-92662638D01*
X144587972Y-92662638D02*
X144587972Y-92420733D01*
X144587972Y-92420733D02*
X144527496Y-92299781D01*
X144527496Y-92299781D02*
X144467019Y-92239305D01*
X144467019Y-92239305D02*
X144346067Y-92178828D01*
X144346067Y-92178828D02*
X144043686Y-92178828D01*
X144043686Y-92178828D02*
X143922734Y-92239305D01*
X143922734Y-92239305D02*
X143862257Y-92299781D01*
X143862257Y-92299781D02*
X143801781Y-92420733D01*
X143801781Y-92420733D02*
X143801781Y-92662638D01*
X143801781Y-92662638D02*
X143862257Y-92783590D01*
X143862257Y-92783590D02*
X143922734Y-92844067D01*
X143922734Y-92844067D02*
X144043686Y-92904543D01*
X118748790Y-140067972D02*
X118748790Y-140975115D01*
X118748790Y-140975115D02*
X118688313Y-141156543D01*
X118688313Y-141156543D02*
X118567361Y-141277496D01*
X118567361Y-141277496D02*
X118385932Y-141337972D01*
X118385932Y-141337972D02*
X118264980Y-141337972D01*
X120018790Y-141337972D02*
X119293075Y-141337972D01*
X119655932Y-141337972D02*
X119655932Y-140067972D01*
X119655932Y-140067972D02*
X119534980Y-140249400D01*
X119534980Y-140249400D02*
X119414028Y-140370353D01*
X119414028Y-140370353D02*
X119293075Y-140430829D01*
X125734742Y-71415684D02*
X125734742Y-70780684D01*
X125734742Y-70780684D02*
X125976647Y-70780684D01*
X125976647Y-70780684D02*
X126037123Y-70810922D01*
X126037123Y-70810922D02*
X126067361Y-70841160D01*
X126067361Y-70841160D02*
X126097599Y-70901636D01*
X126097599Y-70901636D02*
X126097599Y-70992350D01*
X126097599Y-70992350D02*
X126067361Y-71052826D01*
X126067361Y-71052826D02*
X126037123Y-71083065D01*
X126037123Y-71083065D02*
X125976647Y-71113303D01*
X125976647Y-71113303D02*
X125734742Y-71113303D01*
X126460456Y-71415684D02*
X126399980Y-71385446D01*
X126399980Y-71385446D02*
X126369742Y-71355207D01*
X126369742Y-71355207D02*
X126339504Y-71294731D01*
X126339504Y-71294731D02*
X126339504Y-71113303D01*
X126339504Y-71113303D02*
X126369742Y-71052826D01*
X126369742Y-71052826D02*
X126399980Y-71022588D01*
X126399980Y-71022588D02*
X126460456Y-70992350D01*
X126460456Y-70992350D02*
X126551171Y-70992350D01*
X126551171Y-70992350D02*
X126611647Y-71022588D01*
X126611647Y-71022588D02*
X126641885Y-71052826D01*
X126641885Y-71052826D02*
X126672123Y-71113303D01*
X126672123Y-71113303D02*
X126672123Y-71294731D01*
X126672123Y-71294731D02*
X126641885Y-71355207D01*
X126641885Y-71355207D02*
X126611647Y-71385446D01*
X126611647Y-71385446D02*
X126551171Y-71415684D01*
X126551171Y-71415684D02*
X126460456Y-71415684D01*
X126883790Y-70992350D02*
X127004742Y-71415684D01*
X127004742Y-71415684D02*
X127125695Y-71113303D01*
X127125695Y-71113303D02*
X127246647Y-71415684D01*
X127246647Y-71415684D02*
X127367599Y-70992350D01*
X127851409Y-71385446D02*
X127790933Y-71415684D01*
X127790933Y-71415684D02*
X127669980Y-71415684D01*
X127669980Y-71415684D02*
X127609504Y-71385446D01*
X127609504Y-71385446D02*
X127579266Y-71324969D01*
X127579266Y-71324969D02*
X127579266Y-71083065D01*
X127579266Y-71083065D02*
X127609504Y-71022588D01*
X127609504Y-71022588D02*
X127669980Y-70992350D01*
X127669980Y-70992350D02*
X127790933Y-70992350D01*
X127790933Y-70992350D02*
X127851409Y-71022588D01*
X127851409Y-71022588D02*
X127881647Y-71083065D01*
X127881647Y-71083065D02*
X127881647Y-71143541D01*
X127881647Y-71143541D02*
X127579266Y-71204017D01*
X128153790Y-71415684D02*
X128153790Y-70992350D01*
X128153790Y-71113303D02*
X128184028Y-71052826D01*
X128184028Y-71052826D02*
X128214266Y-71022588D01*
X128214266Y-71022588D02*
X128274742Y-70992350D01*
X128274742Y-70992350D02*
X128335219Y-70992350D01*
X110202362Y-137310922D02*
X110141886Y-137280684D01*
X110141886Y-137280684D02*
X110051172Y-137280684D01*
X110051172Y-137280684D02*
X109960457Y-137310922D01*
X109960457Y-137310922D02*
X109899981Y-137371398D01*
X109899981Y-137371398D02*
X109869743Y-137431874D01*
X109869743Y-137431874D02*
X109839505Y-137552826D01*
X109839505Y-137552826D02*
X109839505Y-137643541D01*
X109839505Y-137643541D02*
X109869743Y-137764493D01*
X109869743Y-137764493D02*
X109899981Y-137824969D01*
X109899981Y-137824969D02*
X109960457Y-137885446D01*
X109960457Y-137885446D02*
X110051172Y-137915684D01*
X110051172Y-137915684D02*
X110111648Y-137915684D01*
X110111648Y-137915684D02*
X110202362Y-137885446D01*
X110202362Y-137885446D02*
X110232600Y-137855207D01*
X110232600Y-137855207D02*
X110232600Y-137643541D01*
X110232600Y-137643541D02*
X110111648Y-137643541D01*
X110504743Y-137915684D02*
X110504743Y-137280684D01*
X110504743Y-137280684D02*
X110867600Y-137915684D01*
X110867600Y-137915684D02*
X110867600Y-137280684D01*
X111169981Y-137915684D02*
X111169981Y-137280684D01*
X111169981Y-137280684D02*
X111321171Y-137280684D01*
X111321171Y-137280684D02*
X111411886Y-137310922D01*
X111411886Y-137310922D02*
X111472362Y-137371398D01*
X111472362Y-137371398D02*
X111502600Y-137431874D01*
X111502600Y-137431874D02*
X111532838Y-137552826D01*
X111532838Y-137552826D02*
X111532838Y-137643541D01*
X111532838Y-137643541D02*
X111502600Y-137764493D01*
X111502600Y-137764493D02*
X111472362Y-137824969D01*
X111472362Y-137824969D02*
X111411886Y-137885446D01*
X111411886Y-137885446D02*
X111321171Y-137915684D01*
X111321171Y-137915684D02*
X111169981Y-137915684D01*
D11*
X111006891Y-100153587D02*
X111006891Y-101939301D01*
X111006891Y-101939301D02*
X110887844Y-102296444D01*
X110887844Y-102296444D02*
X110649748Y-102534540D01*
X110649748Y-102534540D02*
X110292606Y-102653587D01*
X110292606Y-102653587D02*
X110054510Y-102653587D01*
X113149749Y-102534540D02*
X112911653Y-102653587D01*
X112911653Y-102653587D02*
X112435463Y-102653587D01*
X112435463Y-102653587D02*
X112197368Y-102534540D01*
X112197368Y-102534540D02*
X112078320Y-102296444D01*
X112078320Y-102296444D02*
X112078320Y-101344063D01*
X112078320Y-101344063D02*
X112197368Y-101105968D01*
X112197368Y-101105968D02*
X112435463Y-100986920D01*
X112435463Y-100986920D02*
X112911653Y-100986920D01*
X112911653Y-100986920D02*
X113149749Y-101105968D01*
X113149749Y-101105968D02*
X113268796Y-101344063D01*
X113268796Y-101344063D02*
X113268796Y-101582159D01*
X113268796Y-101582159D02*
X112078320Y-101820254D01*
X113983082Y-100986920D02*
X114935463Y-100986920D01*
X114340225Y-100153587D02*
X114340225Y-102296444D01*
X114340225Y-102296444D02*
X114459272Y-102534540D01*
X114459272Y-102534540D02*
X114697367Y-102653587D01*
X114697367Y-102653587D02*
X114935463Y-102653587D01*
X115649748Y-102534540D02*
X115887843Y-102653587D01*
X115887843Y-102653587D02*
X116364034Y-102653587D01*
X116364034Y-102653587D02*
X116602129Y-102534540D01*
X116602129Y-102534540D02*
X116721177Y-102296444D01*
X116721177Y-102296444D02*
X116721177Y-102177397D01*
X116721177Y-102177397D02*
X116602129Y-101939301D01*
X116602129Y-101939301D02*
X116364034Y-101820254D01*
X116364034Y-101820254D02*
X116006891Y-101820254D01*
X116006891Y-101820254D02*
X115768796Y-101701206D01*
X115768796Y-101701206D02*
X115649748Y-101463111D01*
X115649748Y-101463111D02*
X115649748Y-101344063D01*
X115649748Y-101344063D02*
X115768796Y-101105968D01*
X115768796Y-101105968D02*
X116006891Y-100986920D01*
X116006891Y-100986920D02*
X116364034Y-100986920D01*
X116364034Y-100986920D02*
X116602129Y-101105968D01*
X118149748Y-102653587D02*
X117911653Y-102534540D01*
X117911653Y-102534540D02*
X117792606Y-102415492D01*
X117792606Y-102415492D02*
X117673558Y-102177397D01*
X117673558Y-102177397D02*
X117673558Y-101463111D01*
X117673558Y-101463111D02*
X117792606Y-101225016D01*
X117792606Y-101225016D02*
X117911653Y-101105968D01*
X117911653Y-101105968D02*
X118149748Y-100986920D01*
X118149748Y-100986920D02*
X118506891Y-100986920D01*
X118506891Y-100986920D02*
X118744987Y-101105968D01*
X118744987Y-101105968D02*
X118864034Y-101225016D01*
X118864034Y-101225016D02*
X118983082Y-101463111D01*
X118983082Y-101463111D02*
X118983082Y-102177397D01*
X118983082Y-102177397D02*
X118864034Y-102415492D01*
X118864034Y-102415492D02*
X118744987Y-102534540D01*
X118744987Y-102534540D02*
X118506891Y-102653587D01*
X118506891Y-102653587D02*
X118149748Y-102653587D01*
X120054511Y-100986920D02*
X120054511Y-102653587D01*
X120054511Y-101225016D02*
X120173558Y-101105968D01*
X120173558Y-101105968D02*
X120411653Y-100986920D01*
X120411653Y-100986920D02*
X120768796Y-100986920D01*
X120768796Y-100986920D02*
X121006892Y-101105968D01*
X121006892Y-101105968D02*
X121125939Y-101344063D01*
X121125939Y-101344063D02*
X121125939Y-102653587D01*
X124221178Y-101344063D02*
X125054511Y-101344063D01*
X125411654Y-102653587D02*
X124221178Y-102653587D01*
X124221178Y-102653587D02*
X124221178Y-100153587D01*
X124221178Y-100153587D02*
X125411654Y-100153587D01*
X126244987Y-102653587D02*
X127554511Y-100986920D01*
X126244987Y-100986920D02*
X127554511Y-102653587D01*
X128149750Y-100986920D02*
X129102131Y-100986920D01*
X128506893Y-100153587D02*
X128506893Y-102296444D01*
X128506893Y-102296444D02*
X128625940Y-102534540D01*
X128625940Y-102534540D02*
X128864035Y-102653587D01*
X128864035Y-102653587D02*
X129102131Y-102653587D01*
X130887845Y-102534540D02*
X130649749Y-102653587D01*
X130649749Y-102653587D02*
X130173559Y-102653587D01*
X130173559Y-102653587D02*
X129935464Y-102534540D01*
X129935464Y-102534540D02*
X129816416Y-102296444D01*
X129816416Y-102296444D02*
X129816416Y-101344063D01*
X129816416Y-101344063D02*
X129935464Y-101105968D01*
X129935464Y-101105968D02*
X130173559Y-100986920D01*
X130173559Y-100986920D02*
X130649749Y-100986920D01*
X130649749Y-100986920D02*
X130887845Y-101105968D01*
X130887845Y-101105968D02*
X131006892Y-101344063D01*
X131006892Y-101344063D02*
X131006892Y-101582159D01*
X131006892Y-101582159D02*
X129816416Y-101820254D01*
X132078321Y-100986920D02*
X132078321Y-102653587D01*
X132078321Y-101225016D02*
X132197368Y-101105968D01*
X132197368Y-101105968D02*
X132435463Y-100986920D01*
X132435463Y-100986920D02*
X132792606Y-100986920D01*
X132792606Y-100986920D02*
X133030702Y-101105968D01*
X133030702Y-101105968D02*
X133149749Y-101344063D01*
X133149749Y-101344063D02*
X133149749Y-102653587D01*
X134221178Y-102534540D02*
X134459273Y-102653587D01*
X134459273Y-102653587D02*
X134935464Y-102653587D01*
X134935464Y-102653587D02*
X135173559Y-102534540D01*
X135173559Y-102534540D02*
X135292607Y-102296444D01*
X135292607Y-102296444D02*
X135292607Y-102177397D01*
X135292607Y-102177397D02*
X135173559Y-101939301D01*
X135173559Y-101939301D02*
X134935464Y-101820254D01*
X134935464Y-101820254D02*
X134578321Y-101820254D01*
X134578321Y-101820254D02*
X134340226Y-101701206D01*
X134340226Y-101701206D02*
X134221178Y-101463111D01*
X134221178Y-101463111D02*
X134221178Y-101344063D01*
X134221178Y-101344063D02*
X134340226Y-101105968D01*
X134340226Y-101105968D02*
X134578321Y-100986920D01*
X134578321Y-100986920D02*
X134935464Y-100986920D01*
X134935464Y-100986920D02*
X135173559Y-101105968D01*
X136364036Y-102653587D02*
X136364036Y-100986920D01*
X136364036Y-100153587D02*
X136244988Y-100272635D01*
X136244988Y-100272635D02*
X136364036Y-100391682D01*
X136364036Y-100391682D02*
X136483083Y-100272635D01*
X136483083Y-100272635D02*
X136364036Y-100153587D01*
X136364036Y-100153587D02*
X136364036Y-100391682D01*
X137911654Y-102653587D02*
X137673559Y-102534540D01*
X137673559Y-102534540D02*
X137554512Y-102415492D01*
X137554512Y-102415492D02*
X137435464Y-102177397D01*
X137435464Y-102177397D02*
X137435464Y-101463111D01*
X137435464Y-101463111D02*
X137554512Y-101225016D01*
X137554512Y-101225016D02*
X137673559Y-101105968D01*
X137673559Y-101105968D02*
X137911654Y-100986920D01*
X137911654Y-100986920D02*
X138268797Y-100986920D01*
X138268797Y-100986920D02*
X138506893Y-101105968D01*
X138506893Y-101105968D02*
X138625940Y-101225016D01*
X138625940Y-101225016D02*
X138744988Y-101463111D01*
X138744988Y-101463111D02*
X138744988Y-102177397D01*
X138744988Y-102177397D02*
X138625940Y-102415492D01*
X138625940Y-102415492D02*
X138506893Y-102534540D01*
X138506893Y-102534540D02*
X138268797Y-102653587D01*
X138268797Y-102653587D02*
X137911654Y-102653587D01*
X139816417Y-100986920D02*
X139816417Y-102653587D01*
X139816417Y-101225016D02*
X139935464Y-101105968D01*
X139935464Y-101105968D02*
X140173559Y-100986920D01*
X140173559Y-100986920D02*
X140530702Y-100986920D01*
X140530702Y-100986920D02*
X140768798Y-101105968D01*
X140768798Y-101105968D02*
X140887845Y-101344063D01*
X140887845Y-101344063D02*
X140887845Y-102653587D01*
X144816417Y-101344063D02*
X145173560Y-101463111D01*
X145173560Y-101463111D02*
X145292607Y-101582159D01*
X145292607Y-101582159D02*
X145411655Y-101820254D01*
X145411655Y-101820254D02*
X145411655Y-102177397D01*
X145411655Y-102177397D02*
X145292607Y-102415492D01*
X145292607Y-102415492D02*
X145173560Y-102534540D01*
X145173560Y-102534540D02*
X144935465Y-102653587D01*
X144935465Y-102653587D02*
X143983084Y-102653587D01*
X143983084Y-102653587D02*
X143983084Y-100153587D01*
X143983084Y-100153587D02*
X144816417Y-100153587D01*
X144816417Y-100153587D02*
X145054512Y-100272635D01*
X145054512Y-100272635D02*
X145173560Y-100391682D01*
X145173560Y-100391682D02*
X145292607Y-100629778D01*
X145292607Y-100629778D02*
X145292607Y-100867873D01*
X145292607Y-100867873D02*
X145173560Y-101105968D01*
X145173560Y-101105968D02*
X145054512Y-101225016D01*
X145054512Y-101225016D02*
X144816417Y-101344063D01*
X144816417Y-101344063D02*
X143983084Y-101344063D01*
X146840226Y-102653587D02*
X146602131Y-102534540D01*
X146602131Y-102534540D02*
X146483084Y-102415492D01*
X146483084Y-102415492D02*
X146364036Y-102177397D01*
X146364036Y-102177397D02*
X146364036Y-101463111D01*
X146364036Y-101463111D02*
X146483084Y-101225016D01*
X146483084Y-101225016D02*
X146602131Y-101105968D01*
X146602131Y-101105968D02*
X146840226Y-100986920D01*
X146840226Y-100986920D02*
X147197369Y-100986920D01*
X147197369Y-100986920D02*
X147435465Y-101105968D01*
X147435465Y-101105968D02*
X147554512Y-101225016D01*
X147554512Y-101225016D02*
X147673560Y-101463111D01*
X147673560Y-101463111D02*
X147673560Y-102177397D01*
X147673560Y-102177397D02*
X147554512Y-102415492D01*
X147554512Y-102415492D02*
X147435465Y-102534540D01*
X147435465Y-102534540D02*
X147197369Y-102653587D01*
X147197369Y-102653587D02*
X146840226Y-102653587D01*
X149816417Y-102653587D02*
X149816417Y-101344063D01*
X149816417Y-101344063D02*
X149697370Y-101105968D01*
X149697370Y-101105968D02*
X149459274Y-100986920D01*
X149459274Y-100986920D02*
X148983084Y-100986920D01*
X148983084Y-100986920D02*
X148744989Y-101105968D01*
X149816417Y-102534540D02*
X149578322Y-102653587D01*
X149578322Y-102653587D02*
X148983084Y-102653587D01*
X148983084Y-102653587D02*
X148744989Y-102534540D01*
X148744989Y-102534540D02*
X148625941Y-102296444D01*
X148625941Y-102296444D02*
X148625941Y-102058349D01*
X148625941Y-102058349D02*
X148744989Y-101820254D01*
X148744989Y-101820254D02*
X148983084Y-101701206D01*
X148983084Y-101701206D02*
X149578322Y-101701206D01*
X149578322Y-101701206D02*
X149816417Y-101582159D01*
X151006894Y-102653587D02*
X151006894Y-100986920D01*
X151006894Y-101463111D02*
X151125941Y-101225016D01*
X151125941Y-101225016D02*
X151244989Y-101105968D01*
X151244989Y-101105968D02*
X151483084Y-100986920D01*
X151483084Y-100986920D02*
X151721179Y-100986920D01*
X153625941Y-102653587D02*
X153625941Y-100153587D01*
X153625941Y-102534540D02*
X153387846Y-102653587D01*
X153387846Y-102653587D02*
X152911655Y-102653587D01*
X152911655Y-102653587D02*
X152673560Y-102534540D01*
X152673560Y-102534540D02*
X152554513Y-102415492D01*
X152554513Y-102415492D02*
X152435465Y-102177397D01*
X152435465Y-102177397D02*
X152435465Y-101463111D01*
X152435465Y-101463111D02*
X152554513Y-101225016D01*
X152554513Y-101225016D02*
X152673560Y-101105968D01*
X152673560Y-101105968D02*
X152911655Y-100986920D01*
X152911655Y-100986920D02*
X153387846Y-100986920D01*
X153387846Y-100986920D02*
X153625941Y-101105968D01*
X111602129Y-106678447D02*
X110173558Y-106678447D01*
X110887844Y-106678447D02*
X110887844Y-104178447D01*
X110887844Y-104178447D02*
X110649748Y-104535590D01*
X110649748Y-104535590D02*
X110411653Y-104773685D01*
X110411653Y-104773685D02*
X110173558Y-104892733D01*
X113149748Y-104178447D02*
X113387843Y-104178447D01*
X113387843Y-104178447D02*
X113625939Y-104297495D01*
X113625939Y-104297495D02*
X113744986Y-104416542D01*
X113744986Y-104416542D02*
X113864034Y-104654638D01*
X113864034Y-104654638D02*
X113983081Y-105130828D01*
X113983081Y-105130828D02*
X113983081Y-105726066D01*
X113983081Y-105726066D02*
X113864034Y-106202257D01*
X113864034Y-106202257D02*
X113744986Y-106440352D01*
X113744986Y-106440352D02*
X113625939Y-106559400D01*
X113625939Y-106559400D02*
X113387843Y-106678447D01*
X113387843Y-106678447D02*
X113149748Y-106678447D01*
X113149748Y-106678447D02*
X112911653Y-106559400D01*
X112911653Y-106559400D02*
X112792605Y-106440352D01*
X112792605Y-106440352D02*
X112673558Y-106202257D01*
X112673558Y-106202257D02*
X112554510Y-105726066D01*
X112554510Y-105726066D02*
X112554510Y-105130828D01*
X112554510Y-105130828D02*
X112673558Y-104654638D01*
X112673558Y-104654638D02*
X112792605Y-104416542D01*
X112792605Y-104416542D02*
X112911653Y-104297495D01*
X112911653Y-104297495D02*
X113149748Y-104178447D01*
X116840224Y-104059400D02*
X114697367Y-107273685D01*
X117554510Y-104416542D02*
X117673558Y-104297495D01*
X117673558Y-104297495D02*
X117911653Y-104178447D01*
X117911653Y-104178447D02*
X118506891Y-104178447D01*
X118506891Y-104178447D02*
X118744986Y-104297495D01*
X118744986Y-104297495D02*
X118864034Y-104416542D01*
X118864034Y-104416542D02*
X118983081Y-104654638D01*
X118983081Y-104654638D02*
X118983081Y-104892733D01*
X118983081Y-104892733D02*
X118864034Y-105249876D01*
X118864034Y-105249876D02*
X117435462Y-106678447D01*
X117435462Y-106678447D02*
X118983081Y-106678447D01*
X119816414Y-104178447D02*
X121483081Y-104178447D01*
X121483081Y-104178447D02*
X120411652Y-106678447D01*
X124221176Y-104059400D02*
X122078319Y-107273685D01*
X124935462Y-104416542D02*
X125054510Y-104297495D01*
X125054510Y-104297495D02*
X125292605Y-104178447D01*
X125292605Y-104178447D02*
X125887843Y-104178447D01*
X125887843Y-104178447D02*
X126125938Y-104297495D01*
X126125938Y-104297495D02*
X126244986Y-104416542D01*
X126244986Y-104416542D02*
X126364033Y-104654638D01*
X126364033Y-104654638D02*
X126364033Y-104892733D01*
X126364033Y-104892733D02*
X126244986Y-105249876D01*
X126244986Y-105249876D02*
X124816414Y-106678447D01*
X124816414Y-106678447D02*
X126364033Y-106678447D01*
X127911652Y-104178447D02*
X128149747Y-104178447D01*
X128149747Y-104178447D02*
X128387843Y-104297495D01*
X128387843Y-104297495D02*
X128506890Y-104416542D01*
X128506890Y-104416542D02*
X128625938Y-104654638D01*
X128625938Y-104654638D02*
X128744985Y-105130828D01*
X128744985Y-105130828D02*
X128744985Y-105726066D01*
X128744985Y-105726066D02*
X128625938Y-106202257D01*
X128625938Y-106202257D02*
X128506890Y-106440352D01*
X128506890Y-106440352D02*
X128387843Y-106559400D01*
X128387843Y-106559400D02*
X128149747Y-106678447D01*
X128149747Y-106678447D02*
X127911652Y-106678447D01*
X127911652Y-106678447D02*
X127673557Y-106559400D01*
X127673557Y-106559400D02*
X127554509Y-106440352D01*
X127554509Y-106440352D02*
X127435462Y-106202257D01*
X127435462Y-106202257D02*
X127316414Y-105726066D01*
X127316414Y-105726066D02*
X127316414Y-105130828D01*
X127316414Y-105130828D02*
X127435462Y-104654638D01*
X127435462Y-104654638D02*
X127554509Y-104416542D01*
X127554509Y-104416542D02*
X127673557Y-104297495D01*
X127673557Y-104297495D02*
X127911652Y-104178447D01*
X129697366Y-104416542D02*
X129816414Y-104297495D01*
X129816414Y-104297495D02*
X130054509Y-104178447D01*
X130054509Y-104178447D02*
X130649747Y-104178447D01*
X130649747Y-104178447D02*
X130887842Y-104297495D01*
X130887842Y-104297495D02*
X131006890Y-104416542D01*
X131006890Y-104416542D02*
X131125937Y-104654638D01*
X131125937Y-104654638D02*
X131125937Y-104892733D01*
X131125937Y-104892733D02*
X131006890Y-105249876D01*
X131006890Y-105249876D02*
X129578318Y-106678447D01*
X129578318Y-106678447D02*
X131125937Y-106678447D01*
X133268794Y-105011780D02*
X133268794Y-106678447D01*
X132673556Y-104059400D02*
X132078318Y-105845114D01*
X132078318Y-105845114D02*
X133625937Y-105845114D01*
X137911651Y-106678447D02*
X137078318Y-105487971D01*
X136483080Y-106678447D02*
X136483080Y-104178447D01*
X136483080Y-104178447D02*
X137435461Y-104178447D01*
X137435461Y-104178447D02*
X137673556Y-104297495D01*
X137673556Y-104297495D02*
X137792603Y-104416542D01*
X137792603Y-104416542D02*
X137911651Y-104654638D01*
X137911651Y-104654638D02*
X137911651Y-105011780D01*
X137911651Y-105011780D02*
X137792603Y-105249876D01*
X137792603Y-105249876D02*
X137673556Y-105368923D01*
X137673556Y-105368923D02*
X137435461Y-105487971D01*
X137435461Y-105487971D02*
X136483080Y-105487971D01*
X139935461Y-106559400D02*
X139697365Y-106678447D01*
X139697365Y-106678447D02*
X139221175Y-106678447D01*
X139221175Y-106678447D02*
X138983080Y-106559400D01*
X138983080Y-106559400D02*
X138864032Y-106321304D01*
X138864032Y-106321304D02*
X138864032Y-105368923D01*
X138864032Y-105368923D02*
X138983080Y-105130828D01*
X138983080Y-105130828D02*
X139221175Y-105011780D01*
X139221175Y-105011780D02*
X139697365Y-105011780D01*
X139697365Y-105011780D02*
X139935461Y-105130828D01*
X139935461Y-105130828D02*
X140054508Y-105368923D01*
X140054508Y-105368923D02*
X140054508Y-105607019D01*
X140054508Y-105607019D02*
X138864032Y-105845114D01*
X140887841Y-105011780D02*
X141483079Y-106678447D01*
X141483079Y-106678447D02*
X142078318Y-105011780D01*
X143030699Y-106440352D02*
X143149746Y-106559400D01*
X143149746Y-106559400D02*
X143030699Y-106678447D01*
X143030699Y-106678447D02*
X142911651Y-106559400D01*
X142911651Y-106559400D02*
X143030699Y-106440352D01*
X143030699Y-106440352D02*
X143030699Y-106678447D01*
X146006889Y-104416542D02*
X146125937Y-104297495D01*
X146125937Y-104297495D02*
X146364032Y-104178447D01*
X146364032Y-104178447D02*
X146959270Y-104178447D01*
X146959270Y-104178447D02*
X147197365Y-104297495D01*
X147197365Y-104297495D02*
X147316413Y-104416542D01*
X147316413Y-104416542D02*
X147435460Y-104654638D01*
X147435460Y-104654638D02*
X147435460Y-104892733D01*
X147435460Y-104892733D02*
X147316413Y-105249876D01*
X147316413Y-105249876D02*
X145887841Y-106678447D01*
X145887841Y-106678447D02*
X147435460Y-106678447D01*
D10*
X174067361Y-85310922D02*
X174006885Y-85280684D01*
X174006885Y-85280684D02*
X173916171Y-85280684D01*
X173916171Y-85280684D02*
X173825456Y-85310922D01*
X173825456Y-85310922D02*
X173764980Y-85371398D01*
X173764980Y-85371398D02*
X173734742Y-85431874D01*
X173734742Y-85431874D02*
X173704504Y-85552826D01*
X173704504Y-85552826D02*
X173704504Y-85643541D01*
X173704504Y-85643541D02*
X173734742Y-85764493D01*
X173734742Y-85764493D02*
X173764980Y-85824969D01*
X173764980Y-85824969D02*
X173825456Y-85885446D01*
X173825456Y-85885446D02*
X173916171Y-85915684D01*
X173916171Y-85915684D02*
X173976647Y-85915684D01*
X173976647Y-85915684D02*
X174067361Y-85885446D01*
X174067361Y-85885446D02*
X174097599Y-85855207D01*
X174097599Y-85855207D02*
X174097599Y-85643541D01*
X174097599Y-85643541D02*
X173976647Y-85643541D01*
X174369742Y-85915684D02*
X174369742Y-85280684D01*
X174369742Y-85280684D02*
X174732599Y-85915684D01*
X174732599Y-85915684D02*
X174732599Y-85280684D01*
X175034980Y-85915684D02*
X175034980Y-85280684D01*
X175034980Y-85280684D02*
X175186170Y-85280684D01*
X175186170Y-85280684D02*
X175276885Y-85310922D01*
X175276885Y-85310922D02*
X175337361Y-85371398D01*
X175337361Y-85371398D02*
X175367599Y-85431874D01*
X175367599Y-85431874D02*
X175397837Y-85552826D01*
X175397837Y-85552826D02*
X175397837Y-85643541D01*
X175397837Y-85643541D02*
X175367599Y-85764493D01*
X175367599Y-85764493D02*
X175337361Y-85824969D01*
X175337361Y-85824969D02*
X175276885Y-85885446D01*
X175276885Y-85885446D02*
X175186170Y-85915684D01*
X175186170Y-85915684D02*
X175034980Y-85915684D01*
X170748790Y-74067972D02*
X170748790Y-74975115D01*
X170748790Y-74975115D02*
X170688313Y-75156543D01*
X170688313Y-75156543D02*
X170567361Y-75277496D01*
X170567361Y-75277496D02*
X170385932Y-75337972D01*
X170385932Y-75337972D02*
X170264980Y-75337972D01*
X172018790Y-75337972D02*
X171293075Y-75337972D01*
X171655932Y-75337972D02*
X171655932Y-74067972D01*
X171655932Y-74067972D02*
X171534980Y-74249400D01*
X171534980Y-74249400D02*
X171414028Y-74370353D01*
X171414028Y-74370353D02*
X171293075Y-74430829D01*
X172804980Y-74067972D02*
X172925933Y-74067972D01*
X172925933Y-74067972D02*
X173046885Y-74128448D01*
X173046885Y-74128448D02*
X173107361Y-74188924D01*
X173107361Y-74188924D02*
X173167837Y-74309876D01*
X173167837Y-74309876D02*
X173228314Y-74551781D01*
X173228314Y-74551781D02*
X173228314Y-74854162D01*
X173228314Y-74854162D02*
X173167837Y-75096067D01*
X173167837Y-75096067D02*
X173107361Y-75217019D01*
X173107361Y-75217019D02*
X173046885Y-75277496D01*
X173046885Y-75277496D02*
X172925933Y-75337972D01*
X172925933Y-75337972D02*
X172804980Y-75337972D01*
X172804980Y-75337972D02*
X172684028Y-75277496D01*
X172684028Y-75277496D02*
X172623552Y-75217019D01*
X172623552Y-75217019D02*
X172563075Y-75096067D01*
X172563075Y-75096067D02*
X172502599Y-74854162D01*
X172502599Y-74854162D02*
X172502599Y-74551781D01*
X172502599Y-74551781D02*
X172563075Y-74309876D01*
X172563075Y-74309876D02*
X172623552Y-74188924D01*
X172623552Y-74188924D02*
X172684028Y-74128448D01*
X172684028Y-74128448D02*
X172804980Y-74067972D01*
X129062618Y-73080922D02*
X129062618Y-71810922D01*
X129062618Y-71810922D02*
X129364999Y-71810922D01*
X129364999Y-71810922D02*
X129546428Y-71871398D01*
X129546428Y-71871398D02*
X129667380Y-71992350D01*
X129667380Y-71992350D02*
X129727857Y-72113303D01*
X129727857Y-72113303D02*
X129788333Y-72355207D01*
X129788333Y-72355207D02*
X129788333Y-72536636D01*
X129788333Y-72536636D02*
X129727857Y-72778541D01*
X129727857Y-72778541D02*
X129667380Y-72899493D01*
X129667380Y-72899493D02*
X129546428Y-73020446D01*
X129546428Y-73020446D02*
X129364999Y-73080922D01*
X129364999Y-73080922D02*
X129062618Y-73080922D01*
X130997857Y-73080922D02*
X130272142Y-73080922D01*
X130634999Y-73080922D02*
X130634999Y-71810922D01*
X130634999Y-71810922D02*
X130514047Y-71992350D01*
X130514047Y-71992350D02*
X130393095Y-72113303D01*
X130393095Y-72113303D02*
X130272142Y-72173779D01*
X117306666Y-78320446D02*
X117488095Y-78380922D01*
X117488095Y-78380922D02*
X117790476Y-78380922D01*
X117790476Y-78380922D02*
X117911428Y-78320446D01*
X117911428Y-78320446D02*
X117971904Y-78259969D01*
X117971904Y-78259969D02*
X118032381Y-78139017D01*
X118032381Y-78139017D02*
X118032381Y-78018065D01*
X118032381Y-78018065D02*
X117971904Y-77897112D01*
X117971904Y-77897112D02*
X117911428Y-77836636D01*
X117911428Y-77836636D02*
X117790476Y-77776160D01*
X117790476Y-77776160D02*
X117548571Y-77715684D01*
X117548571Y-77715684D02*
X117427619Y-77655207D01*
X117427619Y-77655207D02*
X117367142Y-77594731D01*
X117367142Y-77594731D02*
X117306666Y-77473779D01*
X117306666Y-77473779D02*
X117306666Y-77352826D01*
X117306666Y-77352826D02*
X117367142Y-77231874D01*
X117367142Y-77231874D02*
X117427619Y-77171398D01*
X117427619Y-77171398D02*
X117548571Y-77110922D01*
X117548571Y-77110922D02*
X117850952Y-77110922D01*
X117850952Y-77110922D02*
X118032381Y-77171398D01*
X118455714Y-77110922D02*
X118758095Y-78380922D01*
X118758095Y-78380922D02*
X119000000Y-77473779D01*
X119000000Y-77473779D02*
X119241905Y-78380922D01*
X119241905Y-78380922D02*
X119544286Y-77110922D01*
X120693334Y-78380922D02*
X119967619Y-78380922D01*
X120330476Y-78380922D02*
X120330476Y-77110922D01*
X120330476Y-77110922D02*
X120209524Y-77292350D01*
X120209524Y-77292350D02*
X120088572Y-77413303D01*
X120088572Y-77413303D02*
X119967619Y-77473779D01*
X131288333Y-75580922D02*
X130864999Y-74976160D01*
X130562618Y-75580922D02*
X130562618Y-74310922D01*
X130562618Y-74310922D02*
X131046428Y-74310922D01*
X131046428Y-74310922D02*
X131167380Y-74371398D01*
X131167380Y-74371398D02*
X131227857Y-74431874D01*
X131227857Y-74431874D02*
X131288333Y-74552826D01*
X131288333Y-74552826D02*
X131288333Y-74734255D01*
X131288333Y-74734255D02*
X131227857Y-74855207D01*
X131227857Y-74855207D02*
X131167380Y-74915684D01*
X131167380Y-74915684D02*
X131046428Y-74976160D01*
X131046428Y-74976160D02*
X130562618Y-74976160D01*
X131711666Y-74310922D02*
X132497857Y-74310922D01*
X132497857Y-74310922D02*
X132074523Y-74794731D01*
X132074523Y-74794731D02*
X132255952Y-74794731D01*
X132255952Y-74794731D02*
X132376904Y-74855207D01*
X132376904Y-74855207D02*
X132437380Y-74915684D01*
X132437380Y-74915684D02*
X132497857Y-75036636D01*
X132497857Y-75036636D02*
X132497857Y-75339017D01*
X132497857Y-75339017D02*
X132437380Y-75459969D01*
X132437380Y-75459969D02*
X132376904Y-75520446D01*
X132376904Y-75520446D02*
X132255952Y-75580922D01*
X132255952Y-75580922D02*
X131893095Y-75580922D01*
X131893095Y-75580922D02*
X131772142Y-75520446D01*
X131772142Y-75520446D02*
X131711666Y-75459969D01*
%TO.C,J3*%
X137452500Y-127780000D02*
X144652500Y-127780000D01*
X137452500Y-139480000D02*
X137452500Y-127780000D01*
X144652500Y-127780000D02*
X144652500Y-139480000D01*
X144652500Y-139480000D02*
X137452500Y-139480000D01*
D12*
X141752500Y-140230000D02*
G75*
G02*
X141552500Y-140230000I-100000J0D01*
G01*
X141552500Y-140230000D02*
G75*
G02*
X141752500Y-140230000I100000J0D01*
G01*
D13*
%TO.C,R2*%
X141090000Y-88189564D02*
X141090000Y-86735436D01*
X142910000Y-88189564D02*
X142910000Y-86735436D01*
D10*
%TO.C,J7*%
X165900000Y-127455000D02*
X173100000Y-127455000D01*
X165900000Y-139155000D02*
X165900000Y-127455000D01*
X173100000Y-127455000D02*
X173100000Y-139155000D01*
X173100000Y-139155000D02*
X165900000Y-139155000D01*
D12*
X169000000Y-126705000D02*
G75*
G02*
X168800000Y-126705000I-100000J0D01*
G01*
X168800000Y-126705000D02*
G75*
G02*
X169000000Y-126705000I100000J0D01*
G01*
D10*
%TO.C,J4*%
X124952500Y-127780000D02*
X132152500Y-127780000D01*
X124952500Y-139480000D02*
X124952500Y-127780000D01*
X132152500Y-127780000D02*
X132152500Y-139480000D01*
X132152500Y-139480000D02*
X124952500Y-139480000D01*
D12*
X129252500Y-140230000D02*
G75*
G02*
X129052500Y-140230000I-100000J0D01*
G01*
X129052500Y-140230000D02*
G75*
G02*
X129252500Y-140230000I100000J0D01*
G01*
D14*
%TO.C,U4*%
X154892500Y-89837500D02*
X155117500Y-89837500D01*
X154892500Y-93087500D02*
X154892500Y-89837500D01*
X154892500Y-93087500D02*
X155117500Y-93087500D01*
X158142500Y-89837500D02*
X157917500Y-89837500D01*
X158142500Y-93087500D02*
X157917500Y-93087500D01*
X158142500Y-93087500D02*
X158142500Y-89837500D01*
D13*
X155117500Y-93562500D02*
X154787500Y-93802500D01*
X154787500Y-93322500D01*
X155117500Y-93562500D01*
G36*
X155117500Y-93562500D02*
G01*
X154787500Y-93802500D01*
X154787500Y-93322500D01*
X155117500Y-93562500D01*
G37*
%TO.C,J6*%
X95130000Y-77950000D02*
X96460000Y-77950000D01*
X95130000Y-79280000D02*
X95130000Y-77950000D01*
X95130000Y-80550000D02*
X95130000Y-128870000D01*
X95130000Y-80550000D02*
X97730000Y-80550000D01*
X95130000Y-128870000D02*
X100330000Y-128870000D01*
X97730000Y-77950000D02*
X100330000Y-77950000D01*
X97730000Y-80550000D02*
X97730000Y-77950000D01*
X100330000Y-77950000D02*
X100330000Y-128870000D01*
D10*
%TO.C,J10*%
X165900000Y-75955000D02*
X173100000Y-75955000D01*
X165900000Y-87655000D02*
X165900000Y-75955000D01*
X173100000Y-75955000D02*
X173100000Y-87655000D01*
X173100000Y-87655000D02*
X165900000Y-87655000D01*
D12*
X169000000Y-75205000D02*
G75*
G02*
X168800000Y-75205000I-100000J0D01*
G01*
X168800000Y-75205000D02*
G75*
G02*
X169000000Y-75205000I100000J0D01*
G01*
D13*
%TO.C,J11*%
X95090000Y-132670000D02*
X96420000Y-132670000D01*
X95090000Y-134000000D02*
X95090000Y-132670000D01*
X97690000Y-132670000D02*
X105370000Y-132670000D01*
X97690000Y-135330000D02*
X97690000Y-132670000D01*
X97690000Y-135330000D02*
X105370000Y-135330000D01*
X105370000Y-135330000D02*
X105370000Y-132670000D01*
%TO.C,C7*%
X134313748Y-93765000D02*
X135736252Y-93765000D01*
X134313748Y-95585000D02*
X135736252Y-95585000D01*
D10*
%TO.C,J8*%
X165900000Y-110292500D02*
X173100000Y-110292500D01*
X165900000Y-121992500D02*
X165900000Y-110292500D01*
X173100000Y-110292500D02*
X173100000Y-121992500D01*
X173100000Y-121992500D02*
X165900000Y-121992500D01*
D12*
X169000000Y-109542500D02*
G75*
G02*
X168800000Y-109542500I-100000J0D01*
G01*
X168800000Y-109542500D02*
G75*
G02*
X169000000Y-109542500I100000J0D01*
G01*
D10*
%TO.C,J9*%
X165900000Y-93292500D02*
X173100000Y-93292500D01*
X165900000Y-104992500D02*
X165900000Y-93292500D01*
X173100000Y-93292500D02*
X173100000Y-104992500D01*
X173100000Y-104992500D02*
X165900000Y-104992500D01*
D12*
X169000000Y-92542500D02*
G75*
G02*
X168800000Y-92542500I-100000J0D01*
G01*
X168800000Y-92542500D02*
G75*
G02*
X169000000Y-92542500I100000J0D01*
G01*
D13*
%TO.C,J1*%
X149630000Y-71670000D02*
X150960000Y-71670000D01*
X149630000Y-73000000D02*
X149630000Y-71670000D01*
X152230000Y-71670000D02*
X154830000Y-71670000D01*
X152230000Y-74330000D02*
X152230000Y-71670000D01*
X152230000Y-74330000D02*
X154830000Y-74330000D01*
X154830000Y-74330000D02*
X154830000Y-71670000D01*
%TO.C,C8*%
X133236252Y-81340500D02*
X131813748Y-81340500D01*
X133236252Y-83160500D02*
X131813748Y-83160500D01*
%TO.C,C6*%
X141090000Y-92813748D02*
X141090000Y-94236252D01*
X142910000Y-92813748D02*
X142910000Y-94236252D01*
%TO.C,SW1*%
X111900000Y-72050000D02*
X113100000Y-72050000D01*
X111900000Y-76250000D02*
X111900000Y-72050000D01*
X113100000Y-76250000D02*
X111900000Y-76250000D01*
X120750000Y-76250000D02*
X121100000Y-76250000D01*
X121100000Y-72050000D02*
X119900000Y-72050000D01*
X121100000Y-76250000D02*
X121100000Y-72050000D01*
X120000000Y-76730000D02*
X120000000Y-76250000D01*
X120480000Y-76250000D01*
X120000000Y-76730000D01*
G36*
X120000000Y-76730000D02*
G01*
X120000000Y-76250000D01*
X120480000Y-76250000D01*
X120000000Y-76730000D01*
G37*
D15*
%TO.C,G\u002A\u002A\u002A*%
G36*
X154183249Y-106235458D02*
G01*
X154370430Y-106392755D01*
X154624145Y-106627275D01*
X154919183Y-106916400D01*
X154984421Y-106982334D01*
X155775976Y-107786667D01*
X158639750Y-107786667D01*
X161503525Y-107786667D01*
X161592752Y-108019500D01*
X161638368Y-108232063D01*
X161661181Y-108539689D01*
X161663247Y-108899000D01*
X161646623Y-109266618D01*
X161613365Y-109599166D01*
X161565530Y-109853266D01*
X161505175Y-109985539D01*
X161499334Y-109989902D01*
X161367794Y-110021677D01*
X161105873Y-110047731D01*
X160752495Y-110065239D01*
X160377500Y-110071370D01*
X159944579Y-110075234D01*
X159654800Y-110087732D01*
X159482054Y-110112231D01*
X159400232Y-110152098D01*
X159382667Y-110199667D01*
X159433219Y-110283925D01*
X159604622Y-110321889D01*
X159758155Y-110326667D01*
X160179314Y-110364916D01*
X160466311Y-110476785D01*
X160606927Y-110654599D01*
X160733042Y-110801438D01*
X160931671Y-110881313D01*
X161416947Y-111056277D01*
X161776008Y-111340986D01*
X162002663Y-111728016D01*
X162090723Y-112209944D01*
X162091684Y-112272488D01*
X162041577Y-112727998D01*
X161923595Y-113014834D01*
X161821031Y-113192667D01*
X161775031Y-113292004D01*
X161775745Y-113298744D01*
X161864282Y-113310695D01*
X162058901Y-113329381D01*
X162117624Y-113334409D01*
X162435172Y-113397152D01*
X162612837Y-113533162D01*
X162671683Y-113763080D01*
X162667781Y-113873473D01*
X162605465Y-114123103D01*
X162450301Y-114271331D01*
X162430667Y-114281639D01*
X162301146Y-114304500D01*
X162021504Y-114324695D01*
X161610933Y-114342216D01*
X161088624Y-114357053D01*
X160473770Y-114369195D01*
X159785561Y-114378633D01*
X159043189Y-114385357D01*
X158265846Y-114389358D01*
X157472724Y-114390626D01*
X156683013Y-114389151D01*
X155915907Y-114384924D01*
X155190596Y-114377934D01*
X154526271Y-114368172D01*
X153942126Y-114355629D01*
X153457350Y-114340295D01*
X153091137Y-114322159D01*
X152862677Y-114301213D01*
X152797993Y-114286510D01*
X152611591Y-114111331D01*
X152536022Y-113851199D01*
X152564224Y-113637413D01*
X152673654Y-113511599D01*
X152876480Y-113399350D01*
X153101663Y-113329335D01*
X153278161Y-113330227D01*
X153299888Y-113340505D01*
X153421146Y-113368185D01*
X153461774Y-113274826D01*
X155657334Y-113274826D01*
X155732092Y-113301439D01*
X155917006Y-113319664D01*
X156153034Y-113327884D01*
X156381133Y-113324480D01*
X156542261Y-113307837D01*
X156569221Y-113299805D01*
X156548572Y-113226559D01*
X156469896Y-113052826D01*
X156421054Y-112954706D01*
X156275447Y-112501279D01*
X156279613Y-112190314D01*
X157032826Y-112190314D01*
X157050324Y-112415170D01*
X157149227Y-112679883D01*
X157306458Y-112818296D01*
X157568391Y-112865174D01*
X157652566Y-112866667D01*
X157922004Y-112841782D01*
X158088706Y-112751675D01*
X158150199Y-112678495D01*
X158279203Y-112375979D01*
X158260145Y-112083956D01*
X158102793Y-111842147D01*
X157915437Y-111723964D01*
X157603602Y-111666225D01*
X157329553Y-111743082D01*
X157127794Y-111926968D01*
X157032826Y-112190314D01*
X156279613Y-112190314D01*
X156281504Y-112049208D01*
X156424075Y-111628946D01*
X156688007Y-111270942D01*
X156877073Y-111135433D01*
X158584449Y-111135433D01*
X158603498Y-111192792D01*
X158639668Y-111236834D01*
X158909189Y-111663348D01*
X159030486Y-112138781D01*
X158998372Y-112626807D01*
X158884444Y-112951090D01*
X158794696Y-113159478D01*
X158756698Y-113295090D01*
X158760337Y-113316782D01*
X158851391Y-113329028D01*
X159050274Y-113333029D01*
X159295741Y-113329849D01*
X159526545Y-113320553D01*
X159681437Y-113306203D01*
X159705932Y-113300359D01*
X159679485Y-113232908D01*
X159580578Y-113077282D01*
X159539263Y-113018112D01*
X159374017Y-112651730D01*
X159331153Y-112230061D01*
X159341374Y-112175582D01*
X160103462Y-112175582D01*
X160134092Y-112459934D01*
X160291386Y-112718500D01*
X160499964Y-112841195D01*
X160770450Y-112870350D01*
X161030984Y-112809136D01*
X161198199Y-112678495D01*
X161300896Y-112450753D01*
X161330000Y-112274000D01*
X161262311Y-111962091D01*
X161069248Y-111759657D01*
X160765818Y-111681739D01*
X160738678Y-111681334D01*
X160421938Y-111748758D01*
X160204805Y-111926016D01*
X160103462Y-112175582D01*
X159341374Y-112175582D01*
X159409320Y-111813421D01*
X159573167Y-111504008D01*
X159713262Y-111309649D01*
X159796249Y-111172788D01*
X159806000Y-111144175D01*
X159728175Y-111117883D01*
X159522006Y-111098320D01*
X159228450Y-111088996D01*
X159157878Y-111088667D01*
X158834117Y-111091240D01*
X158652148Y-111104206D01*
X158584449Y-111135433D01*
X156877073Y-111135433D01*
X157058151Y-111005649D01*
X157456500Y-110873642D01*
X157664925Y-110808888D01*
X157770070Y-110722085D01*
X157774000Y-110703045D01*
X157846990Y-110558980D01*
X158024976Y-110424066D01*
X158246484Y-110338456D01*
X158350228Y-110326667D01*
X158496583Y-110290558D01*
X158514964Y-110220834D01*
X158438130Y-110170776D01*
X158235740Y-110133594D01*
X157893095Y-110107558D01*
X157414870Y-110091361D01*
X156349924Y-110067722D01*
X156085505Y-110514694D01*
X155927720Y-110777516D01*
X155792548Y-110995924D01*
X155725934Y-111098011D01*
X155683896Y-111224694D01*
X155723584Y-111406782D01*
X155813391Y-111611575D01*
X155969678Y-112078416D01*
X155964926Y-112513760D01*
X155826667Y-112888780D01*
X155721345Y-113100600D01*
X155662087Y-113249482D01*
X155657334Y-113274826D01*
X153461774Y-113274826D01*
X153462677Y-113272752D01*
X153420294Y-113082641D01*
X153358117Y-112944985D01*
X153241002Y-112648177D01*
X153209615Y-112330009D01*
X153216379Y-112202778D01*
X153962034Y-112202778D01*
X154003690Y-112505502D01*
X154095801Y-112678495D01*
X154289007Y-112822214D01*
X154559359Y-112873191D01*
X154841500Y-112830153D01*
X155064667Y-112697334D01*
X155212845Y-112454561D01*
X155223700Y-112198601D01*
X155123047Y-111961655D01*
X154936698Y-111775928D01*
X154690468Y-111673621D01*
X154410170Y-111686938D01*
X154291760Y-111733114D01*
X154061010Y-111931074D01*
X153962034Y-112202778D01*
X153216379Y-112202778D01*
X153218802Y-112157204D01*
X153330224Y-111669196D01*
X153568830Y-111290163D01*
X153925377Y-111028774D01*
X154390620Y-110893699D01*
X154583080Y-110877659D01*
X154840357Y-110855871D01*
X154999133Y-110787529D01*
X155130119Y-110632568D01*
X155194271Y-110531340D01*
X155316930Y-110319808D01*
X155391026Y-110169165D01*
X155400691Y-110136167D01*
X155323607Y-110108039D01*
X155115076Y-110086297D01*
X154812952Y-110074149D01*
X154651700Y-110072667D01*
X154236544Y-110062749D01*
X153967529Y-110030948D01*
X153822513Y-109974192D01*
X153802268Y-109954825D01*
X153753795Y-109798940D01*
X153728142Y-109476125D01*
X153727214Y-109312703D01*
X154472000Y-109312703D01*
X157668167Y-109290518D01*
X160864334Y-109268334D01*
X160864334Y-108929667D01*
X160864334Y-108591000D01*
X157668167Y-108568815D01*
X154472000Y-108546631D01*
X154472000Y-108929667D01*
X154472000Y-109312703D01*
X153727214Y-109312703D01*
X153725367Y-108987248D01*
X153726500Y-108929667D01*
X153728401Y-108832992D01*
X153752334Y-107829000D01*
X154154500Y-107803195D01*
X154388976Y-107780469D01*
X154533913Y-107751632D01*
X154556667Y-107736716D01*
X154505048Y-107609577D01*
X154386409Y-107447530D01*
X154255074Y-107316645D01*
X154180047Y-107278667D01*
X154107962Y-107346615D01*
X153956650Y-107538297D01*
X153739163Y-107835466D01*
X153468556Y-108219877D01*
X153157881Y-108673284D01*
X152820191Y-109177441D01*
X152802050Y-109204834D01*
X152394249Y-109821653D01*
X152070710Y-110313470D01*
X151821832Y-110696220D01*
X151638015Y-110985841D01*
X151509660Y-111198267D01*
X151427167Y-111349436D01*
X151380936Y-111455284D01*
X151361367Y-111531748D01*
X151358862Y-111594764D01*
X151359137Y-111600185D01*
X151364084Y-112084232D01*
X151311888Y-112414427D01*
X151196077Y-112598493D01*
X151010182Y-112644152D01*
X150747731Y-112559126D01*
X150615475Y-112487686D01*
X150356975Y-112310479D01*
X150052567Y-112064951D01*
X149791135Y-111826123D01*
X149436192Y-111413217D01*
X149237335Y-111017987D01*
X149193206Y-110675009D01*
X149900000Y-110675009D01*
X149953681Y-110815887D01*
X150091782Y-111023145D01*
X150217500Y-111175597D01*
X150397538Y-111370490D01*
X150496600Y-111449947D01*
X150543485Y-111427465D01*
X150563876Y-111337936D01*
X150628971Y-111145963D01*
X150755183Y-110906398D01*
X150796404Y-110841938D01*
X150987175Y-110560768D01*
X151185095Y-110273618D01*
X151207147Y-110242000D01*
X151337377Y-110034770D01*
X151412397Y-109875206D01*
X151419119Y-109843670D01*
X151348199Y-109760769D01*
X151164574Y-109696990D01*
X150924686Y-109663509D01*
X150684976Y-109671499D01*
X150616789Y-109684824D01*
X150449209Y-109789416D01*
X150254989Y-109996471D01*
X150072994Y-110252299D01*
X149942087Y-110503214D01*
X149900000Y-110675009D01*
X149193206Y-110675009D01*
X149185963Y-110618714D01*
X149219181Y-110381843D01*
X149345661Y-110026430D01*
X149551415Y-109648739D01*
X149795785Y-109314462D01*
X150004696Y-109112635D01*
X150295328Y-108978041D01*
X150679038Y-108907302D01*
X151090266Y-108905048D01*
X151463451Y-108975910D01*
X151539870Y-109004226D01*
X151767216Y-109082945D01*
X151902040Y-109078276D01*
X151963153Y-109034235D01*
X152040915Y-108931100D01*
X152192767Y-108711070D01*
X152401449Y-108399831D01*
X152649698Y-108023065D01*
X152858545Y-107702000D01*
X153201506Y-107178167D01*
X153470646Y-106783719D01*
X153678899Y-106502618D01*
X153839201Y-106318829D01*
X153964486Y-106216315D01*
X154067690Y-106179040D01*
X154087813Y-106178000D01*
X154183249Y-106235458D01*
G37*
D13*
%TO.C,C1*%
X125590000Y-92763748D02*
X125590000Y-94186252D01*
X127410000Y-92763748D02*
X127410000Y-94186252D01*
%TO.C,U2*%
X126495000Y-111370000D02*
X126495000Y-121650000D01*
X126495000Y-121650000D02*
X144515000Y-121650000D01*
X126555000Y-113860000D02*
X126555000Y-119160000D01*
X126555000Y-119160000D02*
X144455000Y-119160000D01*
X144455000Y-113860000D02*
X126555000Y-113860000D01*
X144455000Y-115510000D02*
X144455000Y-113860000D01*
X144455000Y-119160000D02*
X144455000Y-117510000D01*
X144515000Y-111370000D02*
X126495000Y-111370000D01*
X144515000Y-121650000D02*
X144515000Y-111370000D01*
X144455000Y-117510000D02*
G75*
G02*
X144455000Y-115510000I0J1000000D01*
G01*
D10*
%TO.C,J2*%
X149952500Y-127780000D02*
X157152500Y-127780000D01*
X149952500Y-139480000D02*
X149952500Y-127780000D01*
X157152500Y-127780000D02*
X157152500Y-139480000D01*
X157152500Y-139480000D02*
X149952500Y-139480000D01*
D12*
X154252500Y-140230000D02*
G75*
G02*
X154052500Y-140230000I-100000J0D01*
G01*
X154052500Y-140230000D02*
G75*
G02*
X154252500Y-140230000I100000J0D01*
G01*
D13*
%TO.C,R1*%
X125590000Y-85264564D02*
X125590000Y-83810436D01*
X127410000Y-85264564D02*
X127410000Y-83810436D01*
D10*
%TO.C,J5*%
X112452500Y-127780000D02*
X119652500Y-127780000D01*
X112452500Y-139480000D02*
X112452500Y-127780000D01*
X119652500Y-127780000D02*
X119652500Y-139480000D01*
X119652500Y-139480000D02*
X112452500Y-139480000D01*
D12*
X116752500Y-140230000D02*
G75*
G02*
X116552500Y-140230000I-100000J0D01*
G01*
X116552500Y-140230000D02*
G75*
G02*
X116752500Y-140230000I100000J0D01*
G01*
D13*
%TO.C,R3*%
X127272936Y-74090000D02*
X128727064Y-74090000D01*
X127272936Y-75910000D02*
X128727064Y-75910000D01*
%TO.C,U1*%
X130540000Y-85652500D02*
X130540000Y-85912500D01*
X130540000Y-85652500D02*
X130800000Y-85652500D01*
X130540000Y-89672500D02*
X130540000Y-89412500D01*
X130540000Y-89672500D02*
X130800000Y-89672500D01*
X135960000Y-85652500D02*
X135700000Y-85652500D01*
X135960000Y-85652500D02*
X135960000Y-85912500D01*
D16*
X135960000Y-90032500D02*
X135960000Y-89672500D01*
X136320000Y-89672500D01*
X135960000Y-90032500D01*
G36*
X135960000Y-90032500D02*
G01*
X135960000Y-89672500D01*
X136320000Y-89672500D01*
X135960000Y-90032500D01*
G37*
%TD*%
M02*
