%TF.GenerationSoftware,KiCad,Pcbnew,8.0.5*%
%TF.CreationDate,2024-10-29T23:26:29-04:00*%
%TF.ProjectId,Jetson_Extension_Board,4a657473-6f6e-45f4-9578-74656e73696f,rev?*%
%TF.SameCoordinates,Original*%
%TF.FileFunction,Copper,L1,Top*%
%TF.FilePolarity,Positive*%
%FSLAX46Y46*%
G04 Gerber Fmt 4.6, Leading zero omitted, Abs format (unit mm)*
G04 Created by KiCad (PCBNEW 8.0.5) date 2024-10-29 23:26:29*
%MOMM*%
%LPD*%
G01*
G04 APERTURE LIST*
G04 Aperture macros list*
%AMRoundRect*
0 Rectangle with rounded corners*
0 $1 Rounding radius*
0 $2 $3 $4 $5 $6 $7 $8 $9 X,Y pos of 4 corners*
0 Add a 4 corners polygon primitive as box body*
4,1,4,$2,$3,$4,$5,$6,$7,$8,$9,$2,$3,0*
0 Add four circle primitives for the rounded corners*
1,1,$1+$1,$2,$3*
1,1,$1+$1,$4,$5*
1,1,$1+$1,$6,$7*
1,1,$1+$1,$8,$9*
0 Add four rect primitives between the rounded corners*
20,1,$1+$1,$2,$3,$4,$5,0*
20,1,$1+$1,$4,$5,$6,$7,0*
20,1,$1+$1,$6,$7,$8,$9,0*
20,1,$1+$1,$8,$9,$2,$3,0*%
G04 Aperture macros list end*
%TA.AperFunction,ComponentPad*%
%ADD10R,2.100000X2.100000*%
%TD*%
%TA.AperFunction,ComponentPad*%
%ADD11C,2.100000*%
%TD*%
%TA.AperFunction,SMDPad,CuDef*%
%ADD12RoundRect,0.250000X0.625000X-0.312500X0.625000X0.312500X-0.625000X0.312500X-0.625000X-0.312500X0*%
%TD*%
%TA.AperFunction,SMDPad,CuDef*%
%ADD13R,0.250000X1.100000*%
%TD*%
%TA.AperFunction,ComponentPad*%
%ADD14R,1.700000X1.700000*%
%TD*%
%TA.AperFunction,ComponentPad*%
%ADD15O,1.700000X1.700000*%
%TD*%
%TA.AperFunction,SMDPad,CuDef*%
%ADD16RoundRect,0.250000X-0.325000X-0.650000X0.325000X-0.650000X0.325000X0.650000X-0.325000X0.650000X0*%
%TD*%
%TA.AperFunction,SMDPad,CuDef*%
%ADD17RoundRect,0.250000X0.325000X0.650000X-0.325000X0.650000X-0.325000X-0.650000X0.325000X-0.650000X0*%
%TD*%
%TA.AperFunction,SMDPad,CuDef*%
%ADD18R,1.100000X1.000000*%
%TD*%
%TA.AperFunction,SMDPad,CuDef*%
%ADD19RoundRect,0.250000X-0.650000X0.325000X-0.650000X-0.325000X0.650000X-0.325000X0.650000X0.325000X0*%
%TD*%
%TA.AperFunction,ComponentPad*%
%ADD20RoundRect,0.250000X0.450000X0.450000X-0.450000X0.450000X-0.450000X-0.450000X0.450000X-0.450000X0*%
%TD*%
%TA.AperFunction,ComponentPad*%
%ADD21C,1.400000*%
%TD*%
%TA.AperFunction,ComponentPad*%
%ADD22R,1.600000X1.600000*%
%TD*%
%TA.AperFunction,ComponentPad*%
%ADD23O,1.600000X1.600000*%
%TD*%
%TA.AperFunction,SMDPad,CuDef*%
%ADD24RoundRect,0.250000X-0.312500X-0.625000X0.312500X-0.625000X0.312500X0.625000X-0.312500X0.625000X0*%
%TD*%
%TA.AperFunction,SMDPad,CuDef*%
%ADD25R,0.254000X0.675000*%
%TD*%
%TA.AperFunction,SMDPad,CuDef*%
%ADD26R,0.675000X0.254000*%
%TD*%
%TA.AperFunction,ViaPad*%
%ADD27C,0.600000*%
%TD*%
%TA.AperFunction,Conductor*%
%ADD28C,0.200000*%
%TD*%
G04 APERTURE END LIST*
D10*
%TO.P,J3,1,1*%
%TO.N,GND*%
X141652500Y-137130000D03*
D11*
%TO.P,J3,2,2*%
%TO.N,Net-(J3-Pad2)*%
X141652500Y-133630000D03*
%TO.P,J3,3,3*%
%TO.N,/SchmittTrigger(74LV14)/5V*%
X141652500Y-130130000D03*
%TD*%
D12*
%TO.P,R2,1*%
%TO.N,/ADC/3.3V*%
X142000000Y-88925000D03*
%TO.P,R2,2*%
%TO.N,IMU nBOOT*%
X142000000Y-86000000D03*
%TD*%
D10*
%TO.P,J7,1,1*%
%TO.N,/ADC/3.3V*%
X168900000Y-129805000D03*
D11*
%TO.P,J7,2,2*%
%TO.N,/ADC/Signal 1*%
X168900000Y-133305000D03*
%TO.P,J7,3,3*%
%TO.N,GND*%
X168900000Y-136805000D03*
%TD*%
D10*
%TO.P,J4,1,1*%
%TO.N,GND*%
X129152500Y-137130000D03*
D11*
%TO.P,J4,2,2*%
%TO.N,Net-(J4-Pad2)*%
X129152500Y-133630000D03*
%TO.P,J4,3,3*%
%TO.N,/SchmittTrigger(74LV14)/5V*%
X129152500Y-130130000D03*
%TD*%
D13*
%TO.P,U4,1,ADDR*%
%TO.N,unconnected-(U4-ADDR-Pad1)*%
X155517500Y-93612500D03*
%TO.P,U4,2,ALERT/RDY*%
%TO.N,ADC ALERT*%
X156017500Y-93612500D03*
%TO.P,U4,3,GND*%
%TO.N,GND*%
X156517500Y-93612500D03*
%TO.P,U4,4,AIN0*%
%TO.N,/ADC/Signal 1*%
X157017500Y-93612500D03*
%TO.P,U4,5,AIN1*%
%TO.N,/ADC/Signal 2*%
X157517500Y-93612500D03*
%TO.P,U4,6,AIN2*%
%TO.N,/ADC/Signal 3*%
X157517500Y-89312500D03*
%TO.P,U4,7,AIN3*%
%TO.N,/ADC/Signal 4*%
X157017500Y-89312500D03*
%TO.P,U4,8,VDD*%
%TO.N,/ADC/3.3V*%
X156517500Y-89312500D03*
%TO.P,U4,9,SDA*%
%TO.N,/I2C_2_SDA*%
X156017500Y-89312500D03*
%TO.P,U4,10,SCL*%
%TO.N,/I2C_2_SCL*%
X155517500Y-89312500D03*
%TD*%
D14*
%TO.P,J6,1,Pin_1*%
%TO.N,3.3V*%
X96460000Y-79280000D03*
D15*
%TO.P,J6,2,Pin_2*%
%TO.N,5V*%
X99000000Y-79280000D03*
%TO.P,J6,3,Pin_3*%
%TO.N,/I2C_2_SDA*%
X96460000Y-81820000D03*
%TO.P,J6,4,Pin_4*%
%TO.N,5V*%
X99000000Y-81820000D03*
%TO.P,J6,5,Pin_5*%
%TO.N,/I2C_2_SCL*%
X96460000Y-84360000D03*
%TO.P,J6,6,Pin_6*%
%TO.N,GND*%
X99000000Y-84360000D03*
%TO.P,J6,7,Pin_7*%
%TO.N,ADC ALERT*%
X96460000Y-86900000D03*
%TO.P,J6,8,Pin_8*%
%TO.N,/UART_2_TX*%
X99000000Y-86900000D03*
%TO.P,J6,9,Pin_9*%
%TO.N,GND*%
X96460000Y-89440000D03*
%TO.P,J6,10,Pin_10*%
%TO.N,/UART_2_RX*%
X99000000Y-89440000D03*
%TO.P,J6,11,Pin_11*%
%TO.N,/gpio50*%
X96460000Y-91980000D03*
%TO.P,J6,12,Pin_12*%
%TO.N,/gpio79*%
X99000000Y-91980000D03*
%TO.P,J6,13,Pin_13*%
%TO.N,/gpio14*%
X96460000Y-94520000D03*
%TO.P,J6,14,Pin_14*%
%TO.N,GND*%
X99000000Y-94520000D03*
%TO.P,J6,15,Pin_15*%
%TO.N,/gpio194*%
X96460000Y-97060000D03*
%TO.P,J6,16,Pin_16*%
%TO.N,/gpio232*%
X99000000Y-97060000D03*
%TO.P,J6,17,Pin_17*%
%TO.N,3.3V*%
X96460000Y-99600000D03*
%TO.P,J6,18,Pin_18*%
%TO.N,/gpio15*%
X99000000Y-99600000D03*
%TO.P,J6,19,Pin_19*%
%TO.N,/gpio16*%
X96460000Y-102140000D03*
%TO.P,J6,20,Pin_20*%
%TO.N,GND*%
X99000000Y-102140000D03*
%TO.P,J6,21,Pin_21*%
%TO.N,/gpio17*%
X96460000Y-104680000D03*
%TO.P,J6,22,Pin_22*%
%TO.N,/gpio13*%
X99000000Y-104680000D03*
%TO.P,J6,23,Pin_23*%
%TO.N,/gpio18*%
X96460000Y-107220000D03*
%TO.P,J6,24,Pin_24*%
%TO.N,/gpio19*%
X99000000Y-107220000D03*
%TO.P,J6,25,Pin_25*%
%TO.N,GND*%
X96460000Y-109760000D03*
%TO.P,J6,26,Pin_26*%
%TO.N,/gpio20*%
X99000000Y-109760000D03*
%TO.P,J6,27,Pin_27*%
%TO.N,/I2C_1_SDA*%
X96460000Y-112300000D03*
%TO.P,J6,28,Pin_28*%
%TO.N,/I2C_1_SCL*%
X99000000Y-112300000D03*
%TO.P,J6,29,Pin_29*%
%TO.N,IMU nRESET*%
X96460000Y-114840000D03*
%TO.P,J6,30,Pin_30*%
%TO.N,GND*%
X99000000Y-114840000D03*
%TO.P,J6,31,Pin_31*%
%TO.N,IMU INT*%
X96460000Y-117380000D03*
%TO.P,J6,32,Pin_32*%
%TO.N,ST 1*%
X99000000Y-117380000D03*
%TO.P,J6,33,Pin_33*%
%TO.N,IMU nBOOT*%
X96460000Y-119920000D03*
%TO.P,J6,34,Pin_34*%
%TO.N,GND*%
X99000000Y-119920000D03*
%TO.P,J6,35,Pin_35*%
%TO.N,COM 3*%
X96460000Y-122460000D03*
%TO.P,J6,36,Pin_36*%
%TO.N,ST 2*%
X99000000Y-122460000D03*
%TO.P,J6,37,Pin_37*%
%TO.N,/gpio12*%
X96460000Y-125000000D03*
%TO.P,J6,38,Pin_38*%
%TO.N,ST 3*%
X99000000Y-125000000D03*
%TO.P,J6,39,Pin_39*%
%TO.N,GND*%
X96460000Y-127540000D03*
%TO.P,J6,40,Pin_40*%
%TO.N,ST 4*%
X99000000Y-127540000D03*
%TD*%
D10*
%TO.P,J10,1,1*%
%TO.N,/ADC/3.3V*%
X168900000Y-78305000D03*
D11*
%TO.P,J10,2,2*%
%TO.N,/ADC/Signal 4*%
X168900000Y-81805000D03*
%TO.P,J10,3,3*%
%TO.N,GND*%
X168900000Y-85305000D03*
%TD*%
D14*
%TO.P,J11,1,Pin_1*%
%TO.N,ST 1*%
X96420000Y-134000000D03*
D15*
%TO.P,J11,2,Pin_2*%
%TO.N,ST 2*%
X98960000Y-134000000D03*
%TO.P,J11,3,Pin_3*%
%TO.N,ST 3*%
X101500000Y-134000000D03*
%TO.P,J11,4,Pin_4*%
%TO.N,ST 4*%
X104040000Y-134000000D03*
%TD*%
D16*
%TO.P,C7,1*%
%TO.N,GND*%
X133550000Y-94675000D03*
%TO.P,C7,2*%
%TO.N,/ADC/3.3V*%
X136500000Y-94675000D03*
%TD*%
D10*
%TO.P,J8,1,1*%
%TO.N,/ADC/3.3V*%
X168900000Y-112642500D03*
D11*
%TO.P,J8,2,2*%
%TO.N,/ADC/Signal 2*%
X168900000Y-116142500D03*
%TO.P,J8,3,3*%
%TO.N,GND*%
X168900000Y-119642500D03*
%TD*%
D10*
%TO.P,J9,1,1*%
%TO.N,/ADC/3.3V*%
X168900000Y-95642500D03*
D11*
%TO.P,J9,2,2*%
%TO.N,/ADC/Signal 3*%
X168900000Y-99142500D03*
%TO.P,J9,3,3*%
%TO.N,GND*%
X168900000Y-102642500D03*
%TD*%
D14*
%TO.P,J1,1,Pin_1*%
%TO.N,/I2C_2_SCL*%
X150960000Y-73000000D03*
D15*
%TO.P,J1,2,Pin_2*%
%TO.N,/I2C_2_SDA*%
X153500000Y-73000000D03*
%TD*%
D17*
%TO.P,C8,1*%
%TO.N,Net-(U1-CAP)*%
X134000000Y-82250500D03*
%TO.P,C8,2*%
%TO.N,GND*%
X131050000Y-82250500D03*
%TD*%
D18*
%TO.P,D1,1*%
%TO.N,GND*%
X126150000Y-72500000D03*
%TO.P,D1,2*%
%TO.N,Net-(D1-Pad2)*%
X127850000Y-72500000D03*
%TD*%
D19*
%TO.P,C6,1*%
%TO.N,GND*%
X142000000Y-92050000D03*
%TO.P,C6,2*%
%TO.N,/ADC/3.3V*%
X142000000Y-95000000D03*
%TD*%
D20*
%TO.P,SW1,1,A*%
%TO.N,3.3V*%
X119000000Y-75800000D03*
D21*
%TO.P,SW1,2,B*%
%TO.N,/ADC/3.3V*%
X116500000Y-75800000D03*
%TO.P,SW1,3,C*%
%TO.N,GND*%
X114000000Y-75800000D03*
%TO.P,SW1,4,A*%
%TO.N,5V*%
X114000000Y-72500000D03*
%TO.P,SW1,5,B*%
%TO.N,/SchmittTrigger(74LV14)/5V*%
X116500000Y-72500000D03*
%TO.P,SW1,6,C*%
%TO.N,GND*%
X119000000Y-72500000D03*
%TD*%
D19*
%TO.P,C1,1*%
%TO.N,GND*%
X126500000Y-92000000D03*
%TO.P,C1,2*%
%TO.N,/ADC/3.3V*%
X126500000Y-94950000D03*
%TD*%
D22*
%TO.P,U2,1*%
%TO.N,Net-(J2-Pad2)*%
X143125000Y-112700000D03*
D23*
%TO.P,U2,2*%
%TO.N,ST 1*%
X140585000Y-112700000D03*
%TO.P,U2,3*%
%TO.N,Net-(J3-Pad2)*%
X138045000Y-112700000D03*
%TO.P,U2,4*%
%TO.N,ST 2*%
X135505000Y-112700000D03*
%TO.P,U2,5*%
%TO.N,Net-(J4-Pad2)*%
X132965000Y-112700000D03*
%TO.P,U2,6*%
%TO.N,ST 3*%
X130425000Y-112700000D03*
%TO.P,U2,7,GND*%
%TO.N,GND*%
X127885000Y-112700000D03*
%TO.P,U2,8*%
%TO.N,ST 4*%
X127885000Y-120320000D03*
%TO.P,U2,9*%
%TO.N,Net-(J5-Pad2)*%
X130425000Y-120320000D03*
%TO.P,U2,10*%
%TO.N,unconnected-(U2-Pad10)*%
X132965000Y-120320000D03*
%TO.P,U2,11*%
%TO.N,unconnected-(U2-Pad11)*%
X135505000Y-120320000D03*
%TO.P,U2,12*%
%TO.N,unconnected-(U2-Pad12)*%
X138045000Y-120320000D03*
%TO.P,U2,13*%
%TO.N,unconnected-(U2-Pad13)*%
X140585000Y-120320000D03*
%TO.P,U2,14,5V*%
%TO.N,/SchmittTrigger(74LV14)/5V*%
X143125000Y-120320000D03*
%TD*%
D10*
%TO.P,J2,1,1*%
%TO.N,GND*%
X154152500Y-137130000D03*
D11*
%TO.P,J2,2,2*%
%TO.N,Net-(J2-Pad2)*%
X154152500Y-133630000D03*
%TO.P,J2,3,3*%
%TO.N,/SchmittTrigger(74LV14)/5V*%
X154152500Y-130130000D03*
%TD*%
D12*
%TO.P,R1,1*%
%TO.N,/ADC/3.3V*%
X126500000Y-86000000D03*
%TO.P,R1,2*%
%TO.N,IMU nRESET*%
X126500000Y-83075000D03*
%TD*%
D10*
%TO.P,J5,1,1*%
%TO.N,GND*%
X116652500Y-137130000D03*
D11*
%TO.P,J5,2,2*%
%TO.N,Net-(J5-Pad2)*%
X116652500Y-133630000D03*
%TO.P,J5,3,3*%
%TO.N,/SchmittTrigger(74LV14)/5V*%
X116652500Y-130130000D03*
%TD*%
D24*
%TO.P,R3,1*%
%TO.N,/SchmittTrigger(74LV14)/5V*%
X126537500Y-75000000D03*
%TO.P,R3,2*%
%TO.N,Net-(D1-Pad2)*%
X129462500Y-75000000D03*
%TD*%
D25*
%TO.P,U1,1,PIN1*%
%TO.N,unconnected-(U1-PIN1-Pad1)*%
X135500000Y-89325000D03*
D26*
%TO.P,U1,2,GND*%
%TO.N,GND*%
X135637500Y-88412500D03*
%TO.P,U1,3,VDD*%
%TO.N,/ADC/3.3V*%
X135637500Y-87912500D03*
%TO.P,U1,4,~{BOOT_LOAD_PIN}*%
%TO.N,IMU nBOOT*%
X135637500Y-87412500D03*
%TO.P,U1,5,PS1*%
%TO.N,GND*%
X135637500Y-86912500D03*
D25*
%TO.P,U1,6,PS0*%
X135500000Y-86000000D03*
%TO.P,U1,7,PIN7*%
%TO.N,unconnected-(U1-PIN7-Pad7)*%
X135000000Y-86000000D03*
%TO.P,U1,8,PIN8*%
%TO.N,unconnected-(U1-PIN8-Pad8)*%
X134500000Y-86000000D03*
%TO.P,U1,9,CAP*%
%TO.N,Net-(U1-CAP)*%
X134000000Y-86000000D03*
%TO.P,U1,10,BL_IND*%
%TO.N,GND*%
X133500000Y-86000000D03*
%TO.P,U1,11,~{RESET}*%
%TO.N,IMU nRESET*%
X133000000Y-86000000D03*
%TO.P,U1,12,PIN12*%
%TO.N,unconnected-(U1-PIN12-Pad12)*%
X132500000Y-86000000D03*
%TO.P,U1,13,PIN13*%
%TO.N,unconnected-(U1-PIN13-Pad13)*%
X132000000Y-86000000D03*
%TO.P,U1,14,INT*%
%TO.N,IMU INT*%
X131500000Y-86000000D03*
%TO.P,U1,15,GNDIO*%
%TO.N,GND*%
X131000000Y-86000000D03*
D26*
%TO.P,U1,16,GNDIO*%
X130862500Y-86912500D03*
%TO.P,U1,17,COM3*%
%TO.N,COM 3*%
X130862500Y-87412500D03*
%TO.P,U1,18,COM2*%
%TO.N,GND*%
X130862500Y-87912500D03*
%TO.P,U1,19,COM1*%
%TO.N,/I2C_2_SCL*%
X130862500Y-88412500D03*
D25*
%TO.P,U1,20,COM0*%
%TO.N,/I2C_2_SDA*%
X131000000Y-89325000D03*
%TO.P,U1,21,PIN21*%
%TO.N,unconnected-(U1-PIN21-Pad21)*%
X131500000Y-89325000D03*
%TO.P,U1,22,PIN22*%
%TO.N,unconnected-(U1-PIN22-Pad22)*%
X132000000Y-89325000D03*
%TO.P,U1,23,PIN23*%
%TO.N,unconnected-(U1-PIN23-Pad23)*%
X132500000Y-89325000D03*
%TO.P,U1,24,PIN24*%
%TO.N,unconnected-(U1-PIN24-Pad24)*%
X133000000Y-89325000D03*
%TO.P,U1,25,GNDIO*%
%TO.N,GND*%
X133500000Y-89325000D03*
%TO.P,U1,26,XOUT32*%
%TO.N,unconnected-(U1-XOUT32-Pad26)*%
X134000000Y-89325000D03*
%TO.P,U1,27,XIN32*%
%TO.N,unconnected-(U1-XIN32-Pad27)*%
X134500000Y-89325000D03*
%TO.P,U1,28,VDDIO*%
%TO.N,/ADC/3.3V*%
X135000000Y-89325000D03*
%TD*%
D27*
%TO.N,IMU nBOOT*%
X134064000Y-87669000D03*
%TO.N,IMU nRESET*%
X125392000Y-84257100D03*
%TO.N,/I2C_2_SDA*%
X142439000Y-96246800D03*
%TO.N,/I2C_2_SCL*%
X136700000Y-89618300D03*
X132196000Y-87597300D03*
%TO.N,ADC ALERT*%
X140055000Y-93192400D03*
%TO.N,/SchmittTrigger(74LV14)/5V*%
X125000000Y-75000000D03*
%TD*%
D28*
%TO.N,GND*%
X96038900Y-123730000D02*
X95302800Y-124466000D01*
X156518000Y-92760800D02*
X156518000Y-93186600D01*
X168900000Y-102642000D02*
X168900000Y-102642500D01*
X97750000Y-93270000D02*
X99000000Y-94520000D01*
X122399972Y-73600028D02*
X121300000Y-72500000D01*
X97750000Y-113590000D02*
X97750000Y-111050000D01*
X168900000Y-102642000D02*
X159018000Y-92760800D01*
X134725000Y-88685800D02*
X134998000Y-88412500D01*
X97750000Y-88150000D02*
X97750000Y-85610000D01*
X97750000Y-111050000D02*
X96460000Y-109760000D01*
X131548000Y-87618000D02*
X131254000Y-87912500D01*
X133500000Y-86826300D02*
X133500000Y-86000000D01*
X133500000Y-89325000D02*
X133500000Y-88685800D01*
X131548000Y-86912500D02*
X131548000Y-87618000D01*
X99000000Y-119920000D02*
X99000000Y-120485686D01*
X130298000Y-87912500D02*
X126500000Y-91710500D01*
X154152000Y-137130000D02*
X141652500Y-137130000D01*
X130862000Y-86912500D02*
X130862500Y-86912500D01*
X133500000Y-86000000D02*
X133500000Y-84700500D01*
X95302800Y-124466000D02*
X95302800Y-126382800D01*
X133500000Y-84700500D02*
X131050000Y-82250500D01*
X131254000Y-87912500D02*
X130862500Y-87912500D01*
X114000000Y-75800000D02*
X116007000Y-73792800D01*
X97057600Y-123730000D02*
X96038900Y-123730000D01*
X142050000Y-92000000D02*
X142000000Y-92050000D01*
X155757200Y-92000000D02*
X142050000Y-92000000D01*
X135638000Y-86912500D02*
X135637500Y-86912500D01*
X159018000Y-92760800D02*
X156518000Y-92760800D01*
X116007000Y-73792800D02*
X117707000Y-73792800D01*
X97750000Y-85610000D02*
X99000000Y-84360000D01*
X133414000Y-86912500D02*
X133414000Y-88599600D01*
X133500000Y-88685800D02*
X134725000Y-88685800D01*
X156518000Y-93612000D02*
X156518000Y-93186600D01*
X116652500Y-137130000D02*
X116652000Y-137130000D01*
X131068000Y-86707000D02*
X131000000Y-86639200D01*
X134998000Y-88412500D02*
X135637500Y-88412500D01*
X126649863Y-77850137D02*
X122399972Y-73600028D01*
X133414000Y-88599600D02*
X133500000Y-88685800D01*
X123500000Y-72500000D02*
X122399972Y-73600028D01*
X97730000Y-123057600D02*
X97057600Y-123730000D01*
X96460000Y-89440000D02*
X97750000Y-90730000D01*
X134998000Y-86912500D02*
X134912000Y-86826300D01*
X121300000Y-72500000D02*
X119000000Y-72500000D01*
X142000000Y-92050000D02*
X136175000Y-92050000D01*
X117707000Y-73792800D02*
X119000000Y-72500000D01*
X130862500Y-87912500D02*
X130298000Y-87912500D01*
X135637500Y-88412500D02*
X135638000Y-88412500D01*
X135500000Y-86844800D02*
X135500000Y-86000000D01*
X96460000Y-89440000D02*
X97750000Y-88150000D01*
X131000000Y-86639200D02*
X131000000Y-86000000D01*
X131068000Y-86912500D02*
X131548000Y-86912500D01*
X131548000Y-86912500D02*
X133414000Y-86912500D01*
X156517500Y-93612500D02*
X156518000Y-93612000D01*
X131068000Y-86912500D02*
X131068000Y-86707000D01*
X99000000Y-114840000D02*
X97750000Y-113590000D01*
X135637500Y-86912500D02*
X135432000Y-86912500D01*
X126500000Y-91710500D02*
X126500000Y-92000000D01*
X130862500Y-86912500D02*
X131068000Y-86912500D01*
X99000000Y-120485686D02*
X97730000Y-121755686D01*
X97750000Y-90730000D02*
X97750000Y-93270000D01*
X135432000Y-86912500D02*
X135500000Y-86844800D01*
X129152500Y-137130000D02*
X116652500Y-137130000D01*
X123500000Y-72500000D02*
X126150000Y-72500000D01*
X156518000Y-92760800D02*
X155757200Y-92000000D01*
X135432000Y-86912500D02*
X134998000Y-86912500D01*
X131050000Y-82250500D02*
X126649863Y-77850137D01*
X136175000Y-92050000D02*
X133550000Y-94675000D01*
X133414000Y-86912500D02*
X133500000Y-86826300D01*
X95302800Y-126382800D02*
X96460000Y-127540000D01*
X141652500Y-137130000D02*
X129152500Y-137130000D01*
X134912000Y-86826300D02*
X133500000Y-86826300D01*
X97730000Y-121755686D02*
X97730000Y-123057600D01*
X154152000Y-137130000D02*
X154152500Y-137130000D01*
%TO.N,3.3V*%
X96460000Y-79280000D02*
X97611700Y-80431700D01*
X97611700Y-80431700D02*
X114368000Y-80431700D01*
X114368000Y-80431700D02*
X119000000Y-75800000D01*
%TO.N,Net-(U1-CAP)*%
X134000000Y-86000000D02*
X134000000Y-82250500D01*
%TO.N,5V*%
X100152000Y-79280000D02*
X106932000Y-72500000D01*
X99000000Y-79280000D02*
X100152000Y-79280000D01*
X106932000Y-72500000D02*
X114000000Y-72500000D01*
%TO.N,ST 4*%
X118872000Y-120320000D02*
X105192000Y-134000000D01*
X127885000Y-120320000D02*
X118872000Y-120320000D01*
X99000000Y-127540000D02*
X99000000Y-128384000D01*
X99000000Y-128384000D02*
X104616000Y-134000000D01*
X105192000Y-134000000D02*
X104616000Y-134000000D01*
X104040000Y-134000000D02*
X104616000Y-134000000D01*
%TO.N,IMU nBOOT*%
X140588000Y-87412500D02*
X135637500Y-87412500D01*
X142000000Y-86000000D02*
X140588000Y-87412500D01*
X135637500Y-87412500D02*
X134320000Y-87412500D01*
X134320000Y-87412500D02*
X134064000Y-87669000D01*
%TO.N,IMU nRESET*%
X125392000Y-84257100D02*
X126500000Y-83148800D01*
X133000000Y-86000000D02*
X133000000Y-85360800D01*
X126500000Y-83148800D02*
X126500000Y-83075000D01*
X131730000Y-84090900D02*
X127442000Y-84090900D01*
X127442000Y-84090900D02*
X126500000Y-83148800D01*
X133000000Y-85360800D02*
X131730000Y-84090900D01*
%TO.N,/I2C_2_SDA*%
X102466400Y-71087200D02*
X95250000Y-78303600D01*
X153500000Y-73000000D02*
X151587200Y-71087200D01*
X131000000Y-89325000D02*
X131000000Y-89500000D01*
X156017500Y-89312500D02*
X156017500Y-75517500D01*
X131000000Y-89500000D02*
X126666900Y-93833100D01*
X142362000Y-96323600D02*
X142439000Y-96246800D01*
X95250000Y-80610000D02*
X96460000Y-81820000D01*
X125812725Y-96323600D02*
X142362000Y-96323600D01*
X125000000Y-95510875D02*
X125812725Y-96323600D01*
X151587200Y-71087200D02*
X102466400Y-71087200D01*
X156017500Y-75517500D02*
X153500000Y-73000000D01*
X125000000Y-94471515D02*
X125000000Y-95510875D01*
X126666900Y-93833100D02*
X125638415Y-93833100D01*
X95250000Y-78303600D02*
X95250000Y-80610000D01*
X125638415Y-93833100D02*
X125000000Y-94471515D01*
%TO.N,/I2C_2_SCL*%
X150960000Y-83903300D02*
X150960000Y-73000000D01*
X136700000Y-89618300D02*
X136872000Y-89790200D01*
X155518000Y-88460800D02*
X155518000Y-88673700D01*
X132196000Y-87717800D02*
X132196000Y-87597300D01*
X130862500Y-88412500D02*
X131502000Y-88412500D01*
X131502000Y-88412500D02*
X132196000Y-87717800D01*
X155518000Y-88673700D02*
X155518000Y-88886600D01*
X136872000Y-89790200D02*
X145073000Y-89790200D01*
X130862000Y-88412500D02*
X130862500Y-88412500D01*
X150960000Y-83903300D02*
X155518000Y-88460800D01*
X155517500Y-88674200D02*
X155517500Y-89312500D01*
X155518000Y-88673700D02*
X155517500Y-88674200D01*
X145073000Y-89790200D02*
X150960000Y-83903300D01*
%TO.N,ST 1*%
X139024000Y-111139000D02*
X140585000Y-112700000D01*
X100152000Y-117380000D02*
X106392000Y-111139000D01*
X99000000Y-117380000D02*
X100152000Y-117380000D01*
X106392000Y-111139000D02*
X139024000Y-111139000D01*
%TO.N,ADC ALERT*%
X156018000Y-94251200D02*
X156017500Y-94250700D01*
X142955000Y-93192400D02*
X145262600Y-95500000D01*
X145262600Y-95500000D02*
X154769200Y-95500000D01*
X154769200Y-95500000D02*
X156018000Y-94251200D01*
X140055000Y-93192400D02*
X142955000Y-93192400D01*
X156017500Y-94250700D02*
X156017500Y-93612500D01*
X156018000Y-94251200D02*
X156018000Y-94038300D01*
%TO.N,ST 3*%
X99000000Y-125000000D02*
X100152000Y-125000000D01*
X111184000Y-113968000D02*
X129157000Y-113968000D01*
X129157000Y-113968000D02*
X130425000Y-112700000D01*
X100152000Y-125000000D02*
X111184000Y-113968000D01*
%TO.N,IMU INT*%
X105729000Y-108490000D02*
X96046700Y-108490000D01*
X131500000Y-85250000D02*
X131000000Y-84750000D01*
X96046700Y-108490000D02*
X95253300Y-109283000D01*
X128858000Y-85360800D02*
X105729000Y-108490000D01*
X95253300Y-109283000D02*
X95253300Y-116173300D01*
X131000000Y-84750000D02*
X129468800Y-84750000D01*
X95253300Y-116173300D02*
X96460000Y-117380000D01*
X131500000Y-86000000D02*
X131500000Y-85250000D01*
X129468800Y-84750000D02*
X128858000Y-85360800D01*
%TO.N,COM 3*%
X99630000Y-116110000D02*
X98628600Y-116110000D01*
X97730000Y-121190000D02*
X96460000Y-122460000D01*
X98628600Y-116110000D02*
X97730000Y-117009000D01*
X128328000Y-87412500D02*
X99630000Y-116110000D01*
X97730000Y-117009000D02*
X97730000Y-121190000D01*
X130862500Y-87412500D02*
X128328000Y-87412500D01*
%TO.N,ST 2*%
X99000000Y-122460000D02*
X100152000Y-122460000D01*
X134374000Y-111569000D02*
X135505000Y-112700000D01*
X111043000Y-111569000D02*
X134374000Y-111569000D01*
X100152000Y-122460000D02*
X111043000Y-111569000D01*
%TO.N,/ADC/Signal 4*%
X162705000Y-88000000D02*
X157403249Y-88000000D01*
X157403249Y-88000000D02*
X157018000Y-88385272D01*
X157017500Y-88674200D02*
X157017500Y-89312500D01*
X157018000Y-88673700D02*
X157017500Y-88674200D01*
X157018000Y-88385272D02*
X157018000Y-88673700D01*
X168900000Y-81805000D02*
X162705000Y-88000000D01*
X157018000Y-88673700D02*
X157018000Y-88886600D01*
%TO.N,/ADC/Signal 3*%
X157517500Y-89312500D02*
X158062500Y-89312500D01*
X158062500Y-89312500D02*
X167892500Y-99142500D01*
X167892500Y-99142500D02*
X168900000Y-99142500D01*
%TO.N,/ADC/Signal 1*%
X157017500Y-121421500D02*
X157017500Y-93612500D01*
X168900000Y-133305000D02*
X157018000Y-121422000D01*
X157018000Y-121422000D02*
X157017500Y-121421500D01*
%TO.N,/ADC/Signal 2*%
X168900000Y-116142000D02*
X168900000Y-116142500D01*
X160750000Y-107992500D02*
X168900000Y-116142500D01*
X160750000Y-97000000D02*
X160750000Y-107992500D01*
X157517500Y-93612500D02*
X157517500Y-93767500D01*
X157517500Y-93767500D02*
X160750000Y-97000000D01*
%TO.N,/ADC/3.3V*%
X117526000Y-74773800D02*
X119711000Y-74773800D01*
X136500000Y-94675000D02*
X136825000Y-95000000D01*
X129243900Y-71487200D02*
X143500000Y-85743300D01*
X156518000Y-89308100D02*
X156518000Y-89303700D01*
X136237500Y-87912500D02*
X137250000Y-88925000D01*
X136277000Y-88925000D02*
X137250000Y-88925000D01*
X135000000Y-89325000D02*
X135000000Y-89964200D01*
X116500000Y-75800000D02*
X115485000Y-76814900D01*
X156518000Y-89308100D02*
X156518000Y-89310300D01*
X168900000Y-129805000D02*
X170500000Y-128205000D01*
X136500000Y-94675000D02*
X135251400Y-95923600D01*
X136099000Y-89103100D02*
X136099000Y-89867400D01*
X124790000Y-79852700D02*
X124790000Y-84506200D01*
X136099000Y-89867400D02*
X136731600Y-90500000D01*
X156518000Y-89242400D02*
X156518000Y-89241900D01*
X143500000Y-87425000D02*
X142000000Y-88925000D01*
X130766700Y-94950000D02*
X131416000Y-94300700D01*
X156518000Y-89303700D02*
X156518000Y-89308100D01*
X156518000Y-89311400D02*
X156518000Y-89310300D01*
X126284000Y-86000000D02*
X126500000Y-86000000D01*
X166532000Y-78305000D02*
X168900000Y-78305000D01*
X131416000Y-93548700D02*
X135000000Y-89964200D01*
X112963000Y-75287000D02*
X115250000Y-73000000D01*
X156518000Y-89311400D02*
X156517500Y-89311900D01*
X156518000Y-90164200D02*
X156518000Y-89311400D01*
X115250000Y-72283900D02*
X116046700Y-71487200D01*
X156518000Y-89242400D02*
X156518000Y-89277400D01*
X156518000Y-89277400D02*
X156518000Y-89242400D01*
X135251400Y-95923600D02*
X132923600Y-95923600D01*
X136277000Y-88925000D02*
X136099000Y-89103100D01*
X156518000Y-89294900D02*
X156518000Y-89303700D01*
X156518000Y-89277400D02*
X156518000Y-89294900D01*
X170500000Y-114242500D02*
X168900000Y-112642500D01*
X131416000Y-94416000D02*
X131416000Y-94300700D01*
X115250000Y-73000000D02*
X115250000Y-72283900D01*
X132923600Y-95923600D02*
X131416000Y-94416000D01*
X156517500Y-89311900D02*
X156517500Y-89312500D01*
X135637500Y-87912500D02*
X136237500Y-87912500D01*
X156518000Y-89241900D02*
X156518000Y-88319600D01*
X156518000Y-89241900D02*
X156518000Y-89242400D01*
X113518000Y-76814900D02*
X112963000Y-76260500D01*
X137250000Y-88925000D02*
X142000000Y-88925000D01*
X136002000Y-89964200D02*
X136099000Y-89867400D01*
X115485000Y-76814900D02*
X113518000Y-76814900D01*
X112963000Y-76260500D02*
X112963000Y-75287000D01*
X170500000Y-128205000D02*
X170500000Y-114242500D01*
X131416000Y-94300700D02*
X131416000Y-93548700D01*
X156518000Y-89303700D02*
X156518000Y-89294900D01*
X156518000Y-89294900D02*
X156518000Y-89277400D01*
X156518000Y-89310300D02*
X156518000Y-89308100D01*
X135000000Y-89964200D02*
X136002000Y-89964200D01*
X126500000Y-94950000D02*
X130766700Y-94950000D01*
X119711000Y-74773800D02*
X124790000Y-79852700D01*
X168900000Y-112642500D02*
X168900000Y-112642000D01*
X116046700Y-71487200D02*
X129243900Y-71487200D01*
X156518000Y-89310300D02*
X156518000Y-89311400D01*
X156518000Y-89312500D02*
X156518000Y-89311400D01*
X136731600Y-90500000D02*
X156182200Y-90500000D01*
X116500000Y-75800000D02*
X117526000Y-74773800D01*
X156182200Y-90500000D02*
X156518000Y-90164200D01*
X143500000Y-85743300D02*
X143500000Y-87425000D01*
X156518000Y-88319600D02*
X166532000Y-78305000D01*
X124790000Y-84506200D02*
X126284000Y-86000000D01*
X136825000Y-95000000D02*
X142000000Y-95000000D01*
%TO.N,/SchmittTrigger(74LV14)/5V*%
X116652500Y-130130000D02*
X116652000Y-130130000D01*
X154152000Y-130130000D02*
X154152500Y-130130000D01*
X154152000Y-130130000D02*
X141652500Y-130130000D01*
X141652500Y-130130000D02*
X129152500Y-130130000D01*
X125000000Y-75000000D02*
X126537500Y-75000000D01*
X129152500Y-130130000D02*
X116652500Y-130130000D01*
%TO.N,Net-(D1-Pad2)*%
X129462500Y-74112500D02*
X127850000Y-72500000D01*
X129462500Y-75000000D02*
X129462500Y-74112500D01*
%TD*%
M02*
