M48
; DRILL file {KiCad 8.0.7} date 2025-02-27T22:21:26-0500
; FORMAT={-:-/ absolute / inch / decimal}
; #@! TF.CreationDate,2025-02-27T22:21:26-05:00
; #@! TF.GenerationSoftware,Kicad,Pcbnew,8.0.7
; #@! TF.FileFunction,Plated,1,2,PTH
FMAT,2
INCH
; #@! TA.AperFunction,Plated,PTH,ViaDrill
T1C0.0118
; #@! TA.AperFunction,Plated,PTH,ComponentDrill
T2C0.0315
; #@! TA.AperFunction,Plated,PTH,ComponentDrill
T3C0.0354
; #@! TA.AperFunction,Plated,PTH,ComponentDrill
T4C0.0394
; #@! TA.AperFunction,Plated,PTH,ComponentDrill
T5C0.0551
; #@! TA.AperFunction,Plated,PTH,ComponentDrill
T6C0.0669
%
G90
G05
T1
X3.4213Y-4.8189
X3.4275Y-4.5138
X3.4488Y-4.8661
X3.5748Y-4.4173
X3.578Y-3.583
X3.5787Y-4.1024
X3.685Y-4.6102
X3.7165Y-3.8622
X3.7362Y-4.4803
X3.9726Y-4.4846
X3.9803Y-3.874
X3.9881Y-4.2975
X3.9904Y-4.5198
X4.0871Y-4.0141
X4.2202Y-3.1971
X4.3162Y-4.7096
X4.4449Y-4.5
X4.5452Y-4.6944
X4.6598Y-4.9528
X4.7362Y-4.4606
X4.9032Y-5.2879
X5.0959Y-4.832
X5.2244Y-3.9843
X5.3717Y-4.9216
X5.399Y-5.3082
X5.4618Y-4.8358
X5.5763Y-4.1335
X5.7033Y-3.8223
X6.0346Y-4.4846
X6.1491Y-4.632
T2
X5.0348Y-4.437
X5.0348Y-4.737
X5.1348Y-4.437
X5.1348Y-4.737
X5.2348Y-4.437
X5.2348Y-4.737
X5.3348Y-4.437
X5.3348Y-4.737
X5.4348Y-4.437
X5.4348Y-4.737
X5.5348Y-4.437
X5.5348Y-4.737
X5.6348Y-4.437
X5.6348Y-4.737
T3
X5.0197Y-3.0118
X5.0197Y-3.1417
X5.1181Y-3.0118
X5.1181Y-3.1417
X5.2165Y-3.0118
X5.2165Y-3.1417
T4
X3.5276Y-3.1638
X3.5276Y-3.2638
X3.5276Y-3.3638
X3.5276Y-3.4638
X3.5276Y-3.5638
X3.5276Y-3.6638
X3.5276Y-3.7638
X3.5276Y-3.8638
X3.5276Y-3.9638
X3.5276Y-4.0638
X3.5276Y-4.1638
X3.5276Y-4.2638
X3.5276Y-4.3638
X3.5276Y-4.4638
X3.5276Y-4.5638
X3.5276Y-4.6638
X3.5276Y-4.7638
X3.5276Y-4.8638
X3.5276Y-4.9638
X3.5276Y-5.0638
X3.6276Y-3.1638
X3.6276Y-3.2638
X3.6276Y-3.3638
X3.6276Y-3.4638
X3.6276Y-3.5638
X3.6276Y-3.6638
X3.6276Y-3.7638
X3.6276Y-3.8638
X3.6276Y-3.9638
X3.6276Y-4.0638
X3.6276Y-4.1638
X3.6276Y-4.2638
X3.6276Y-4.3638
X3.6276Y-4.4638
X3.6276Y-4.5638
X3.6276Y-4.6638
X3.6276Y-4.7638
X3.6276Y-4.8638
X3.6276Y-4.9638
X3.6276Y-5.0638
X3.8335Y-4.8083
X3.8986Y-3.6278
X3.8986Y-3.7278
X3.8986Y-3.8278
X3.8986Y-3.9278
X3.8986Y-4.0278
X3.8986Y-4.1278
X3.9335Y-4.8083
X4.0335Y-4.8083
X4.1335Y-4.8083
X4.2335Y-4.8083
X4.3335Y-4.8083
X4.5984Y-3.7272
X4.5984Y-3.8272
X4.5984Y-3.9272
X4.5984Y-4.0272
X5.7031Y-4.9528
X5.8031Y-4.9528
T5
X3.9606Y-5.2426
X3.9606Y-5.3804
X3.9606Y-5.5182
X4.4528Y-5.2426
X4.4528Y-5.3804
X4.4528Y-5.5182
X4.9449Y-5.2426
X4.9449Y-5.3804
X4.9449Y-5.5182
X5.437Y-5.2426
X5.437Y-5.3804
X5.437Y-5.5182
X5.9291Y-5.2426
X5.9291Y-5.3804
X5.9291Y-5.5182
X6.3031Y-3.0315
X6.3031Y-3.1693
X6.3031Y-3.3071
X6.3031Y-3.5543
X6.3031Y-3.6921
X6.3031Y-3.8299
X6.3031Y-4.0771
X6.3031Y-4.2149
X6.3031Y-4.3527
X6.3031Y-4.5999
X6.3031Y-4.7377
X6.3031Y-4.8755
X6.4213Y-5.2426
X6.4213Y-5.3804
X6.4213Y-5.5182
T6
X3.9807Y-2.9728
X4.1776Y-2.9728
X4.3744Y-2.9728
X4.5713Y-2.9728
X5.6693Y-3.0177
X5.8661Y-3.0177
M30
