%TF.GenerationSoftware,KiCad,Pcbnew,8.0.7*%
%TF.CreationDate,2025-02-27T22:21:09-05:00*%
%TF.ProjectId,Jetson_Extension_Board,4a657473-6f6e-45f4-9578-74656e73696f,rev?*%
%TF.SameCoordinates,Original*%
%TF.FileFunction,Copper,L2,Bot*%
%TF.FilePolarity,Positive*%
%FSLAX46Y46*%
G04 Gerber Fmt 4.6, Leading zero omitted, Abs format (unit mm)*
G04 Created by KiCad (PCBNEW 8.0.7) date 2025-02-27 22:21:09*
%MOMM*%
%LPD*%
G01*
G04 APERTURE LIST*
G04 Aperture macros list*
%AMRoundRect*
0 Rectangle with rounded corners*
0 $1 Rounding radius*
0 $2 $3 $4 $5 $6 $7 $8 $9 X,Y pos of 4 corners*
0 Add a 4 corners polygon primitive as box body*
4,1,4,$2,$3,$4,$5,$6,$7,$8,$9,$2,$3,0*
0 Add four circle primitives for the rounded corners*
1,1,$1+$1,$2,$3*
1,1,$1+$1,$4,$5*
1,1,$1+$1,$6,$7*
1,1,$1+$1,$8,$9*
0 Add four rect primitives between the rounded corners*
20,1,$1+$1,$2,$3,$4,$5,0*
20,1,$1+$1,$4,$5,$6,$7,0*
20,1,$1+$1,$6,$7,$8,$9,0*
20,1,$1+$1,$8,$9,$2,$3,0*%
G04 Aperture macros list end*
%TA.AperFunction,ComponentPad*%
%ADD10R,2.100000X2.100000*%
%TD*%
%TA.AperFunction,ComponentPad*%
%ADD11C,2.100000*%
%TD*%
%TA.AperFunction,ComponentPad*%
%ADD12R,2.550000X2.550000*%
%TD*%
%TA.AperFunction,ComponentPad*%
%ADD13C,2.550000*%
%TD*%
%TA.AperFunction,ComponentPad*%
%ADD14R,1.700000X1.700000*%
%TD*%
%TA.AperFunction,ComponentPad*%
%ADD15O,1.700000X1.700000*%
%TD*%
%TA.AperFunction,ComponentPad*%
%ADD16RoundRect,0.250000X0.450000X0.450000X-0.450000X0.450000X-0.450000X-0.450000X0.450000X-0.450000X0*%
%TD*%
%TA.AperFunction,ComponentPad*%
%ADD17C,1.400000*%
%TD*%
%TA.AperFunction,ComponentPad*%
%ADD18R,1.600000X1.600000*%
%TD*%
%TA.AperFunction,ComponentPad*%
%ADD19O,1.600000X1.600000*%
%TD*%
%TA.AperFunction,ViaPad*%
%ADD20C,0.600000*%
%TD*%
%TA.AperFunction,Conductor*%
%ADD21C,0.200000*%
%TD*%
%TA.AperFunction,Conductor*%
%ADD22C,0.400000*%
%TD*%
G04 APERTURE END LIST*
D10*
%TO.P,J3,1,1*%
%TO.N,GND*%
X125600000Y-140162500D03*
D11*
%TO.P,J3,2,2*%
%TO.N,Net-(J3-Pad2)*%
X125600000Y-136662500D03*
%TO.P,J3,3,3*%
%TO.N,/SchmittTrigger(74LV14)/5V*%
X125600000Y-133162500D03*
%TD*%
D10*
%TO.P,J7,1,1*%
%TO.N,/ADC/3.3V*%
X160100000Y-116837500D03*
D11*
%TO.P,J7,2,2*%
%TO.N,/ADC/Signal 1*%
X160100000Y-120337500D03*
%TO.P,J7,3,3*%
%TO.N,GND*%
X160100000Y-123837500D03*
%TD*%
D10*
%TO.P,J4,1,1*%
%TO.N,GND*%
X113100000Y-140162500D03*
D11*
%TO.P,J4,2,2*%
%TO.N,Net-(J4-Pad2)*%
X113100000Y-136662500D03*
%TO.P,J4,3,3*%
%TO.N,/SchmittTrigger(74LV14)/5V*%
X113100000Y-133162500D03*
%TD*%
D12*
%TO.P,NucleoReset,1,1*%
%TO.N,GND*%
X144000000Y-76650000D03*
D13*
%TO.P,NucleoReset,2,2*%
%TO.N,/gpio13*%
X149000000Y-76650000D03*
%TD*%
D14*
%TO.P,J6,1,Pin_1*%
%TO.N,3.3V*%
X92140000Y-128620000D03*
D15*
%TO.P,J6,2,Pin_2*%
%TO.N,5V*%
X89600000Y-128620000D03*
%TO.P,J6,3,Pin_3*%
%TO.N,SDA*%
X92140000Y-126080000D03*
%TO.P,J6,4,Pin_4*%
%TO.N,5V*%
X89600000Y-126080000D03*
%TO.P,J6,5,Pin_5*%
%TO.N,SCL*%
X92140000Y-123540000D03*
%TO.P,J6,6,Pin_6*%
%TO.N,GND*%
X89600000Y-123540000D03*
%TO.P,J6,7,Pin_7*%
%TO.N,ADC ALERT*%
X92140000Y-121000000D03*
%TO.P,J6,8,Pin_8*%
%TO.N,/UART_2_TX*%
X89600000Y-121000000D03*
%TO.P,J6,9,Pin_9*%
%TO.N,GND*%
X92140000Y-118460000D03*
%TO.P,J6,10,Pin_10*%
%TO.N,/UART_2_RX*%
X89600000Y-118460000D03*
%TO.P,J6,11,Pin_11*%
%TO.N,/gpio50*%
X92140000Y-115920000D03*
%TO.P,J6,12,Pin_12*%
%TO.N,/gpio79*%
X89600000Y-115920000D03*
%TO.P,J6,13,Pin_13*%
%TO.N,/gpio14*%
X92140000Y-113380000D03*
%TO.P,J6,14,Pin_14*%
%TO.N,GND*%
X89600000Y-113380000D03*
%TO.P,J6,15,Pin_15*%
%TO.N,/gpio194*%
X92140000Y-110840000D03*
%TO.P,J6,16,Pin_16*%
%TO.N,/gpio232*%
X89600000Y-110840000D03*
%TO.P,J6,17,Pin_17*%
%TO.N,3.3V*%
X92140000Y-108300000D03*
%TO.P,J6,18,Pin_18*%
%TO.N,/gpio15*%
X89600000Y-108300000D03*
%TO.P,J6,19,Pin_19*%
%TO.N,/gpio16*%
X92140000Y-105760000D03*
%TO.P,J6,20,Pin_20*%
%TO.N,GND*%
X89600000Y-105760000D03*
%TO.P,J6,21,Pin_21*%
%TO.N,ST 6*%
X92140000Y-103220000D03*
%TO.P,J6,22,Pin_22*%
%TO.N,/gpio13*%
X89600000Y-103220000D03*
%TO.P,J6,23,Pin_23*%
%TO.N,ST 5*%
X92140000Y-100680000D03*
%TO.P,J6,24,Pin_24*%
%TO.N,/gpio19*%
X89600000Y-100680000D03*
%TO.P,J6,25,Pin_25*%
%TO.N,GND*%
X92140000Y-98140000D03*
%TO.P,J6,26,Pin_26*%
%TO.N,/gpio20*%
X89600000Y-98140000D03*
%TO.P,J6,27,Pin_27*%
%TO.N,/I2C_1_SDA*%
X92140000Y-95600000D03*
%TO.P,J6,28,Pin_28*%
%TO.N,/I2C_1_SCL*%
X89600000Y-95600000D03*
%TO.P,J6,29,Pin_29*%
%TO.N,IMU nRESET*%
X92140000Y-93060000D03*
%TO.P,J6,30,Pin_30*%
%TO.N,GND*%
X89600000Y-93060000D03*
%TO.P,J6,31,Pin_31*%
%TO.N,IMU INT*%
X92140000Y-90520000D03*
%TO.P,J6,32,Pin_32*%
%TO.N,ST 1*%
X89600000Y-90520000D03*
%TO.P,J6,33,Pin_33*%
%TO.N,/gpio38*%
X92140000Y-87980000D03*
%TO.P,J6,34,Pin_34*%
%TO.N,GND*%
X89600000Y-87980000D03*
%TO.P,J6,35,Pin_35*%
%TO.N,COM 3*%
X92140000Y-85440000D03*
%TO.P,J6,36,Pin_36*%
%TO.N,ST 2*%
X89600000Y-85440000D03*
%TO.P,J6,37,Pin_37*%
%TO.N,/gpio12*%
X92140000Y-82900000D03*
%TO.P,J6,38,Pin_38*%
%TO.N,ST 3*%
X89600000Y-82900000D03*
%TO.P,J6,39,Pin_39*%
%TO.N,GND*%
X92140000Y-80360000D03*
%TO.P,J6,40,Pin_40*%
%TO.N,ST 4*%
X89600000Y-80360000D03*
%TD*%
D10*
%TO.P,J10,1,1*%
%TO.N,/ADC/3.3V*%
X160100000Y-77000000D03*
D11*
%TO.P,J10,2,2*%
%TO.N,/ADC/Signal 4*%
X160100000Y-80500000D03*
%TO.P,J10,3,3*%
%TO.N,GND*%
X160100000Y-84000000D03*
%TD*%
D14*
%TO.P,J11,1,Pin_1*%
%TO.N,ST 6*%
X110070000Y-122130000D03*
D15*
%TO.P,J11,2,Pin_2*%
%TO.N,ST 5*%
X107530000Y-122130000D03*
%TO.P,J11,3,Pin_3*%
%TO.N,ST 4*%
X104990000Y-122130000D03*
%TO.P,J11,4,Pin_4*%
%TO.N,ST 3*%
X102450000Y-122130000D03*
%TO.P,J11,5,Pin_5*%
%TO.N,ST 2*%
X99910000Y-122130000D03*
%TO.P,J11,6,Pin_6*%
%TO.N,ST 1*%
X97370000Y-122130000D03*
%TD*%
D10*
%TO.P,J8,1,1*%
%TO.N,/ADC/3.3V*%
X160100000Y-103558300D03*
D11*
%TO.P,J8,2,2*%
%TO.N,/ADC/Signal 2*%
X160100000Y-107058300D03*
%TO.P,J8,3,3*%
%TO.N,GND*%
X160100000Y-110558300D03*
%TD*%
D10*
%TO.P,J9,1,1*%
%TO.N,/ADC/3.3V*%
X160100000Y-90279200D03*
D11*
%TO.P,J9,2,2*%
%TO.N,/ADC/Signal 3*%
X160100000Y-93779200D03*
%TO.P,J9,3,3*%
%TO.N,GND*%
X160100000Y-97279200D03*
%TD*%
D14*
%TO.P,J1,1,Pin_1*%
%TO.N,SCL*%
X144860000Y-125800000D03*
D15*
%TO.P,J1,2,Pin_2*%
%TO.N,SDA*%
X147400000Y-125800000D03*
%TD*%
D12*
%TO.P,J19,1,Pin_1*%
%TO.N,SCL*%
X101110000Y-75510000D03*
D13*
%TO.P,J19,2,Pin_2*%
%TO.N,SDA*%
X106110000Y-75510000D03*
%TO.P,J19,3,Pin_3*%
%TO.N,GND*%
X111110000Y-75510000D03*
%TO.P,J19,4,Pin_4*%
%TO.N,3.3V*%
X116110000Y-75510000D03*
%TD*%
D14*
%TO.P,J14,1,Pin_1*%
%TO.N,IMU nRESET*%
X99025000Y-92145000D03*
D15*
%TO.P,J14,2,Pin_2*%
%TO.N,SCL*%
X99025000Y-94685000D03*
%TO.P,J14,3,Pin_3*%
%TO.N,SDA*%
X99025000Y-97225000D03*
%TO.P,J14,4,Pin_4*%
%TO.N,GND*%
X99025000Y-99765000D03*
%TO.P,J14,5,Pin_5*%
%TO.N,/ADC/3.3V*%
X99025000Y-102305000D03*
%TO.P,J14,6,Pin_6*%
%TO.N,unconnected-(J14-Pin_6-Pad6)*%
X99025000Y-104845000D03*
%TD*%
D16*
%TO.P,SW1,1,A*%
%TO.N,GND*%
X132500000Y-79800000D03*
D17*
%TO.P,SW1,2,B*%
%TO.N,/ADC/3.3V*%
X130000000Y-79800000D03*
%TO.P,SW1,3,C*%
%TO.N,3.3V*%
X127500000Y-79800000D03*
%TO.P,SW1,4,A*%
%TO.N,5V*%
X127500000Y-76500000D03*
%TO.P,SW1,5,B*%
%TO.N,/SchmittTrigger(74LV14)/5V*%
X130000000Y-76500000D03*
%TO.P,SW1,6,C*%
%TO.N,GND*%
X132500000Y-76500000D03*
%TD*%
D10*
%TO.P,J13,1,1*%
%TO.N,GND*%
X163100000Y-140162500D03*
D11*
%TO.P,J13,2,2*%
%TO.N,Net-(J13-Pad2)*%
X163100000Y-136662500D03*
%TO.P,J13,3,3*%
%TO.N,/SchmittTrigger(74LV14)/5V*%
X163100000Y-133162500D03*
%TD*%
D10*
%TO.P,J12,1,1*%
%TO.N,GND*%
X150600000Y-140162500D03*
D11*
%TO.P,J12,2,2*%
%TO.N,Net-(J12-Pad2)*%
X150600000Y-136662500D03*
%TO.P,J12,3,3*%
%TO.N,/SchmittTrigger(74LV14)/5V*%
X150600000Y-133162500D03*
%TD*%
D18*
%TO.P,U2,1*%
%TO.N,Net-(J2-Pad2)*%
X143125000Y-112700000D03*
D19*
%TO.P,U2,2*%
%TO.N,ST 1*%
X140585000Y-112700000D03*
%TO.P,U2,3*%
%TO.N,Net-(J3-Pad2)*%
X138045000Y-112700000D03*
%TO.P,U2,4*%
%TO.N,ST 2*%
X135505000Y-112700000D03*
%TO.P,U2,5*%
%TO.N,Net-(J4-Pad2)*%
X132965000Y-112700000D03*
%TO.P,U2,6*%
%TO.N,ST 3*%
X130425000Y-112700000D03*
%TO.P,U2,7,GND*%
%TO.N,GND*%
X127885000Y-112700000D03*
%TO.P,U2,8*%
%TO.N,ST 4*%
X127885000Y-120320000D03*
%TO.P,U2,9*%
%TO.N,Net-(J5-Pad2)*%
X130425000Y-120320000D03*
%TO.P,U2,10*%
%TO.N,ST 5*%
X132965000Y-120320000D03*
%TO.P,U2,11*%
%TO.N,Net-(J12-Pad2)*%
X135505000Y-120320000D03*
%TO.P,U2,12*%
%TO.N,ST 6*%
X138045000Y-120320000D03*
%TO.P,U2,13*%
%TO.N,Net-(J13-Pad2)*%
X140585000Y-120320000D03*
%TO.P,U2,14,3.3V*%
%TO.N,/SchmittTrigger(74LV14)/5V*%
X143125000Y-120320000D03*
%TD*%
D10*
%TO.P,J2,1,1*%
%TO.N,GND*%
X138100000Y-140162500D03*
D11*
%TO.P,J2,2,2*%
%TO.N,Net-(J2-Pad2)*%
X138100000Y-136662500D03*
%TO.P,J2,3,3*%
%TO.N,/SchmittTrigger(74LV14)/5V*%
X138100000Y-133162500D03*
%TD*%
D10*
%TO.P,J5,1,1*%
%TO.N,GND*%
X100600000Y-140162500D03*
D11*
%TO.P,J5,2,2*%
%TO.N,Net-(J5-Pad2)*%
X100600000Y-136662500D03*
%TO.P,J5,3,3*%
%TO.N,/SchmittTrigger(74LV14)/5V*%
X100600000Y-133162500D03*
%TD*%
D14*
%TO.P,J15,1,Pin_1*%
%TO.N,COM 3*%
X116800000Y-94670000D03*
D15*
%TO.P,J15,2,Pin_2*%
%TO.N,IMU INT*%
X116800000Y-97210000D03*
%TO.P,J15,3,Pin_3*%
%TO.N,GND*%
X116800000Y-99750000D03*
%TO.P,J15,4,Pin_4*%
X116800000Y-102290000D03*
%TD*%
D20*
%TO.N,GND*%
X132700000Y-101200000D03*
X101100000Y-98400000D03*
X87600000Y-123600000D03*
X120300000Y-113300000D03*
X90900000Y-104200000D03*
X93600000Y-117100000D03*
X90800000Y-112200000D03*
X115447587Y-119238761D03*
X90881031Y-91007343D03*
X94400000Y-98100000D03*
%TO.N,5V*%
X94900000Y-113800000D03*
%TO.N,Net-(J5-Pad2)*%
X124541000Y-134313000D03*
%TO.N,ST 4*%
X107194000Y-81205200D03*
X109632000Y-119624000D03*
%TO.N,SCL*%
X118360000Y-125800000D03*
X112900000Y-114300000D03*
%TO.N,SDA*%
X100903000Y-113909000D03*
%TO.N,ST 1*%
X138730000Y-122829000D03*
%TO.N,ST 3*%
X129435000Y-122733000D03*
X101357000Y-114803000D03*
X87058600Y-114650000D03*
%TO.N,/gpio13*%
X144865000Y-97086600D03*
%TO.N,ST 2*%
X136440000Y-125008000D03*
X86900000Y-122400000D03*
%TO.N,ST 6*%
X101297000Y-109156000D03*
%TO.N,/ADC/Signal 4*%
X153278000Y-113909000D03*
%TO.N,/ADC/Signal 2*%
X156188000Y-117653000D03*
%TO.N,/SchmittTrigger(74LV14)/5V*%
X141639000Y-104990000D03*
%TO.N,ST 5*%
X103813000Y-101958000D03*
%TO.N,Net-(J12-Pad2)*%
X137134000Y-134828000D03*
%TD*%
D21*
%TO.N,GND*%
X90881031Y-89261031D02*
X90881031Y-91007343D01*
X89600000Y-124283000D02*
X89600000Y-123540000D01*
X89600000Y-87980000D02*
X90881031Y-89261031D01*
%TO.N,Net-(J2-Pad2)*%
X138100000Y-136662000D02*
X138100000Y-136662500D01*
X143708000Y-121422000D02*
X143708000Y-131054000D01*
X144292000Y-120838000D02*
X143708000Y-121422000D01*
X143125000Y-112700000D02*
X143125000Y-113802000D01*
X143708000Y-131054000D02*
X138100000Y-136662000D01*
X144292000Y-114968000D02*
X144292000Y-120838000D01*
X143125000Y-113802000D02*
X144292000Y-114968000D01*
D22*
%TO.N,5V*%
X90850000Y-124830000D02*
X89600000Y-126080000D01*
X90850000Y-120522233D02*
X90850000Y-124830000D01*
X91622233Y-119750000D02*
X90850000Y-120522233D01*
X89600000Y-128620000D02*
X89600000Y-126080000D01*
X92657767Y-119750000D02*
X91622233Y-119750000D01*
X94900000Y-117507767D02*
X92657767Y-119750000D01*
X94900000Y-113800000D02*
X94900000Y-117507767D01*
D21*
%TO.N,Net-(J3-Pad2)*%
X134088000Y-128174000D02*
X125600000Y-136662000D01*
X134088000Y-112559000D02*
X134088000Y-128174000D01*
X138045000Y-112700000D02*
X138045000Y-113802000D01*
X137549000Y-113802000D02*
X136607000Y-112859000D01*
X135049000Y-111598000D02*
X134088000Y-112559000D01*
X125600000Y-136662000D02*
X125600000Y-136662500D01*
X135961000Y-111598000D02*
X135049000Y-111598000D01*
X136607000Y-112244000D02*
X135961000Y-111598000D01*
X136607000Y-112859000D02*
X136607000Y-112244000D01*
X138045000Y-113802000D02*
X137549000Y-113802000D01*
%TO.N,Net-(J4-Pad2)*%
X113100000Y-136662500D02*
X113100000Y-136662000D01*
X132965000Y-112700000D02*
X131863000Y-112700000D01*
X129976000Y-111571000D02*
X129155000Y-112392000D01*
X129155000Y-113540000D02*
X119508000Y-123188000D01*
X129155000Y-112392000D02*
X129155000Y-113540000D01*
X131863000Y-112700000D02*
X131863000Y-112562000D01*
X130872000Y-111571000D02*
X129976000Y-111571000D01*
X119508000Y-130255000D02*
X113100000Y-136662000D01*
X119508000Y-123188000D02*
X119508000Y-130255000D01*
X131863000Y-112562000D02*
X130872000Y-111571000D01*
%TO.N,Net-(J5-Pad2)*%
X124248000Y-132528000D02*
X124248000Y-134020000D01*
X124248000Y-134020000D02*
X124541000Y-134313000D01*
X130425000Y-120320000D02*
X130425000Y-126351000D01*
X130425000Y-126351000D02*
X124248000Y-132528000D01*
%TO.N,ST 4*%
X109632000Y-83643900D02*
X107194000Y-81205200D01*
X109632000Y-119624000D02*
X109632000Y-83643900D01*
%TO.N,SCL*%
X112900000Y-120340000D02*
X118360000Y-125800000D01*
X92140000Y-123540000D02*
X95641800Y-120038200D01*
X98756500Y-95836700D02*
X99025000Y-95836700D01*
X99025000Y-94685000D02*
X99025000Y-94325100D01*
X99025000Y-95836700D02*
X99025000Y-94685000D01*
X112900000Y-114300000D02*
X112900000Y-120340000D01*
X99025000Y-94325100D02*
X101110000Y-92240100D01*
X95641800Y-98951400D02*
X98756500Y-95836700D01*
X101110000Y-92240100D02*
X101110000Y-75510000D01*
X95641800Y-120038200D02*
X95641800Y-98951400D01*
%TO.N,SDA*%
X100903000Y-113909000D02*
X100755000Y-114058000D01*
X99293500Y-98376700D02*
X100695000Y-99778500D01*
X99293500Y-97493500D02*
X99025000Y-97225000D01*
X100695000Y-99778500D02*
X100695000Y-113701000D01*
X100755000Y-116582000D02*
X92408500Y-124928000D01*
X100695000Y-113701000D02*
X100903000Y-113909000D01*
X99293500Y-98376700D02*
X99293500Y-97493500D01*
X100755000Y-114058000D02*
X100755000Y-116582000D01*
X99293500Y-98376700D02*
X106110000Y-91560200D01*
X92408500Y-125811500D02*
X92140000Y-126080000D01*
X92408500Y-124928000D02*
X92408500Y-125811500D01*
X106110000Y-91560200D02*
X106110000Y-75510000D01*
%TO.N,ST 1*%
X89105400Y-129784000D02*
X88424000Y-129103000D01*
X89156100Y-101950000D02*
X90052800Y-101950000D01*
X90767800Y-92571000D02*
X89868500Y-91671700D01*
X97370000Y-125560000D02*
X93145600Y-129784000D01*
X89868500Y-90788500D02*
X89600000Y-90520000D01*
X88424000Y-129103000D02*
X88424000Y-102682000D01*
X140585000Y-113802000D02*
X139174000Y-115213000D01*
X89868500Y-91671700D02*
X89868500Y-90788500D01*
X139174000Y-115213000D02*
X139174000Y-122385000D01*
X140585000Y-112700000D02*
X140585000Y-113802000D01*
X93145600Y-129784000D02*
X89105400Y-129784000D01*
X90052800Y-101950000D02*
X90767800Y-101235000D01*
X139174000Y-122385000D02*
X138730000Y-122829000D01*
X90767800Y-101235000D02*
X90767800Y-92571000D01*
X88424000Y-102682000D02*
X89156100Y-101950000D01*
X97370000Y-122130000D02*
X97370000Y-125560000D01*
%TO.N,ST 3*%
X129435000Y-122733000D02*
X129295000Y-122593000D01*
X130425000Y-113802000D02*
X130425000Y-112700000D01*
X89312100Y-84051700D02*
X86409900Y-86953900D01*
X86409900Y-114001300D02*
X87058600Y-114650000D01*
X129295000Y-114932000D02*
X130425000Y-113802000D01*
X102450000Y-120978000D02*
X101357000Y-119885000D01*
X101357000Y-119885000D02*
X101357000Y-114803000D01*
X102450000Y-122130000D02*
X102450000Y-120978000D01*
X86409900Y-86953900D02*
X86409900Y-114001300D01*
X89600000Y-84051700D02*
X89312100Y-84051700D01*
X129295000Y-122593000D02*
X129295000Y-114932000D01*
X89600000Y-82900000D02*
X89600000Y-84051700D01*
%TO.N,/gpio13*%
X144865000Y-97086600D02*
X144865000Y-82135100D01*
X149000000Y-78000000D02*
X149000000Y-76650000D01*
X144865000Y-82135100D02*
X149000000Y-78000000D01*
%TO.N,ST 2*%
X135505000Y-113802000D02*
X136609000Y-114905000D01*
X87658600Y-121641400D02*
X87658600Y-88245200D01*
X135505000Y-112700000D02*
X135505000Y-113802000D01*
X136609000Y-114905000D02*
X136609000Y-124839000D01*
X136609000Y-124839000D02*
X136440000Y-125008000D01*
X89312100Y-86591700D02*
X89600000Y-86591700D01*
X87658600Y-88245200D02*
X89312100Y-86591700D01*
X89600000Y-86591700D02*
X89600000Y-85440000D01*
X86900000Y-122400000D02*
X87658600Y-121641400D01*
%TO.N,ST 6*%
X101297000Y-109156000D02*
X101470369Y-109329369D01*
X101958000Y-117208000D02*
X106260000Y-121510000D01*
X101470369Y-109329631D02*
X101958000Y-109818000D01*
X106260000Y-122525000D02*
X107021000Y-123286000D01*
X101470369Y-109329369D02*
X101470369Y-109329631D01*
X108050000Y-123286000D02*
X109206000Y-122130000D01*
X109206000Y-122130000D02*
X110070000Y-122130000D01*
X107021000Y-123286000D02*
X108050000Y-123286000D01*
X101958000Y-109818000D02*
X101958000Y-117208000D01*
X106260000Y-121510000D02*
X106260000Y-122525000D01*
%TO.N,/ADC/Signal 4*%
X153278000Y-87322000D02*
X160100000Y-80500000D01*
X153278000Y-113909000D02*
X153278000Y-87322000D01*
%TO.N,/ADC/Signal 2*%
X156188000Y-110971000D02*
X158338100Y-108820100D01*
X156188000Y-117653000D02*
X156188000Y-110971000D01*
X158338200Y-108820100D02*
X160100000Y-107058300D01*
X158338100Y-108820100D02*
X158338200Y-108820100D01*
%TO.N,/ADC/3.3V*%
X160100000Y-116837500D02*
X160100000Y-116838000D01*
X160100000Y-103558000D02*
X160100000Y-103558300D01*
%TO.N,/SchmittTrigger(74LV14)/5V*%
X143125000Y-119218000D02*
X143125000Y-120320000D01*
X138100000Y-133162500D02*
X138100000Y-126747200D01*
X141996000Y-105347000D02*
X141996000Y-118090000D01*
X141639000Y-90671800D02*
X141639000Y-104990000D01*
X141996000Y-118090000D02*
X143125000Y-119218000D01*
X141639000Y-104990000D02*
X141996000Y-105347000D01*
X138100000Y-126747200D02*
X143125000Y-121722200D01*
X143125000Y-120320000D02*
X143125000Y-121722200D01*
X130000000Y-76500000D02*
X131118000Y-77617600D01*
X131118000Y-80150200D02*
X141639000Y-90671800D01*
X131118000Y-77617600D02*
X131118000Y-80150200D01*
%TO.N,ST 5*%
X107530000Y-122130000D02*
X107530000Y-120978000D01*
X107530000Y-120978000D02*
X103813000Y-117261000D01*
X103813000Y-117261000D02*
X103813000Y-101958000D01*
%TO.N,Net-(J12-Pad2)*%
X135505000Y-120320000D02*
X135505000Y-133199000D01*
X135505000Y-133199000D02*
X137134000Y-134828000D01*
%TD*%
%TA.AperFunction,Conductor*%
%TO.N,GND*%
G36*
X89134075Y-123347007D02*
G01*
X89100000Y-123474174D01*
X89100000Y-123605826D01*
X89134075Y-123732993D01*
X89166988Y-123790000D01*
X88848500Y-123790000D01*
X88781461Y-123770315D01*
X88735706Y-123717511D01*
X88724500Y-123666000D01*
X88724500Y-123414000D01*
X88744185Y-123346961D01*
X88796989Y-123301206D01*
X88848500Y-123290000D01*
X89166988Y-123290000D01*
X89134075Y-123347007D01*
G37*
%TD.AperFunction*%
%TA.AperFunction,Conductor*%
G36*
X97899243Y-97221440D02*
G01*
X97955176Y-97263312D01*
X97979312Y-97325467D01*
X97989699Y-97430932D01*
X98001169Y-97468743D01*
X98049768Y-97628954D01*
X98147315Y-97811450D01*
X98147317Y-97811452D01*
X98278589Y-97971410D01*
X98330486Y-98014000D01*
X98438550Y-98102685D01*
X98621046Y-98200232D01*
X98687551Y-98220405D01*
X98745989Y-98258702D01*
X98774446Y-98322514D01*
X98763887Y-98391581D01*
X98717663Y-98443975D01*
X98683650Y-98458841D01*
X98561514Y-98491567D01*
X98561507Y-98491570D01*
X98347422Y-98591399D01*
X98347420Y-98591400D01*
X98153926Y-98726886D01*
X98153920Y-98726891D01*
X97986891Y-98893920D01*
X97986886Y-98893926D01*
X97851400Y-99087420D01*
X97851399Y-99087422D01*
X97751570Y-99301507D01*
X97751567Y-99301513D01*
X97694364Y-99514999D01*
X97694364Y-99515000D01*
X98591988Y-99515000D01*
X98559075Y-99572007D01*
X98525000Y-99699174D01*
X98525000Y-99830826D01*
X98559075Y-99957993D01*
X98591988Y-100015000D01*
X97694364Y-100015000D01*
X97751567Y-100228486D01*
X97751570Y-100228492D01*
X97851399Y-100442578D01*
X97986894Y-100636082D01*
X98153917Y-100803105D01*
X98347421Y-100938600D01*
X98561507Y-101038429D01*
X98561516Y-101038433D01*
X98683649Y-101071158D01*
X98743310Y-101107523D01*
X98773839Y-101170369D01*
X98765545Y-101239745D01*
X98721059Y-101293623D01*
X98687552Y-101309593D01*
X98621046Y-101329767D01*
X98490358Y-101399622D01*
X98438550Y-101427315D01*
X98438548Y-101427316D01*
X98438547Y-101427317D01*
X98278589Y-101558589D01*
X98147317Y-101718547D01*
X98049769Y-101901043D01*
X97989699Y-102099067D01*
X97969417Y-102305000D01*
X97989699Y-102510932D01*
X97989700Y-102510934D01*
X98049768Y-102708954D01*
X98147315Y-102891450D01*
X98147317Y-102891452D01*
X98278589Y-103051410D01*
X98375209Y-103130702D01*
X98438550Y-103182685D01*
X98621046Y-103280232D01*
X98819066Y-103340300D01*
X98819065Y-103340300D01*
X98837529Y-103342118D01*
X99025000Y-103360583D01*
X99230934Y-103340300D01*
X99428954Y-103280232D01*
X99611450Y-103182685D01*
X99771410Y-103051410D01*
X99902685Y-102891450D01*
X100000232Y-102708954D01*
X100060300Y-102510934D01*
X100080583Y-102305000D01*
X100060300Y-102099066D01*
X100000232Y-101901046D01*
X99902685Y-101718550D01*
X99850702Y-101655209D01*
X99771410Y-101558589D01*
X99611452Y-101427317D01*
X99611453Y-101427317D01*
X99611450Y-101427315D01*
X99428954Y-101329768D01*
X99362447Y-101309593D01*
X99304009Y-101271296D01*
X99275553Y-101207484D01*
X99286113Y-101138417D01*
X99332337Y-101086023D01*
X99366350Y-101071158D01*
X99488483Y-101038433D01*
X99488492Y-101038429D01*
X99702578Y-100938600D01*
X99896082Y-100803105D01*
X100063105Y-100636082D01*
X100168925Y-100484958D01*
X100223503Y-100441333D01*
X100293001Y-100434141D01*
X100355356Y-100465663D01*
X100390769Y-100525893D01*
X100394500Y-100556082D01*
X100394500Y-113740563D01*
X100405534Y-113781744D01*
X100408497Y-113831481D01*
X100401465Y-113880398D01*
X100397353Y-113909000D01*
X100398651Y-113918026D01*
X100417834Y-114051456D01*
X100431765Y-114081959D01*
X100441156Y-114102523D01*
X100443294Y-114107203D01*
X100454500Y-114158715D01*
X100454500Y-116406157D01*
X100434815Y-116473196D01*
X100418179Y-116493841D01*
X93396748Y-123514850D01*
X93335423Y-123548333D01*
X93265732Y-123543346D01*
X93209800Y-123501473D01*
X93185666Y-123439321D01*
X93175300Y-123334066D01*
X93115232Y-123136046D01*
X93112264Y-123130493D01*
X93107620Y-123121804D01*
X93093379Y-123053401D01*
X93118380Y-122988157D01*
X93129290Y-122975679D01*
X95882260Y-120222711D01*
X95894360Y-120201753D01*
X95921821Y-120154189D01*
X95942300Y-120077762D01*
X95942300Y-104845000D01*
X97969417Y-104845000D01*
X97989699Y-105050932D01*
X98005926Y-105104424D01*
X98049768Y-105248954D01*
X98147315Y-105431450D01*
X98147317Y-105431452D01*
X98278589Y-105591410D01*
X98306725Y-105614500D01*
X98438550Y-105722685D01*
X98621046Y-105820232D01*
X98819066Y-105880300D01*
X98819065Y-105880300D01*
X98837529Y-105882118D01*
X99025000Y-105900583D01*
X99230934Y-105880300D01*
X99428954Y-105820232D01*
X99611450Y-105722685D01*
X99771410Y-105591410D01*
X99902685Y-105431450D01*
X100000232Y-105248954D01*
X100060300Y-105050934D01*
X100080583Y-104845000D01*
X100060300Y-104639066D01*
X100000232Y-104441046D01*
X99902685Y-104258550D01*
X99850702Y-104195209D01*
X99771410Y-104098589D01*
X99611452Y-103967317D01*
X99611453Y-103967317D01*
X99611450Y-103967315D01*
X99428954Y-103869768D01*
X99230934Y-103809700D01*
X99230932Y-103809699D01*
X99230934Y-103809699D01*
X99025000Y-103789417D01*
X98819067Y-103809699D01*
X98621043Y-103869769D01*
X98510898Y-103928643D01*
X98438550Y-103967315D01*
X98438548Y-103967316D01*
X98438547Y-103967317D01*
X98278589Y-104098589D01*
X98147317Y-104258547D01*
X98049769Y-104441043D01*
X97989699Y-104639067D01*
X97969417Y-104845000D01*
X95942300Y-104845000D01*
X95942300Y-99127232D01*
X95961985Y-99060193D01*
X95978614Y-99039556D01*
X97768230Y-97249939D01*
X97829551Y-97216456D01*
X97899243Y-97221440D01*
G37*
%TD.AperFunction*%
%TA.AperFunction,Conductor*%
G36*
X88212460Y-88218824D02*
G01*
X88268393Y-88260696D01*
X88288901Y-88302913D01*
X88326566Y-88443483D01*
X88326570Y-88443492D01*
X88426399Y-88657578D01*
X88561894Y-88851082D01*
X88728917Y-89018105D01*
X88922421Y-89153600D01*
X89136507Y-89253429D01*
X89136516Y-89253433D01*
X89258649Y-89286158D01*
X89318310Y-89322523D01*
X89348839Y-89385369D01*
X89340545Y-89454745D01*
X89296059Y-89508623D01*
X89262552Y-89524593D01*
X89196046Y-89544767D01*
X89065358Y-89614622D01*
X89013550Y-89642315D01*
X89013548Y-89642316D01*
X89013547Y-89642317D01*
X88853589Y-89773589D01*
X88722317Y-89933547D01*
X88624769Y-90116043D01*
X88564699Y-90314067D01*
X88544417Y-90520000D01*
X88564699Y-90725932D01*
X88586035Y-90796266D01*
X88624768Y-90923954D01*
X88722315Y-91106450D01*
X88722317Y-91106452D01*
X88853589Y-91266410D01*
X88950209Y-91345702D01*
X89013550Y-91397685D01*
X89196046Y-91495232D01*
X89262551Y-91515405D01*
X89320989Y-91553702D01*
X89349446Y-91617514D01*
X89338887Y-91686581D01*
X89292663Y-91738975D01*
X89258650Y-91753841D01*
X89136514Y-91786567D01*
X89136507Y-91786570D01*
X88922422Y-91886399D01*
X88922420Y-91886400D01*
X88728926Y-92021886D01*
X88728920Y-92021891D01*
X88561891Y-92188920D01*
X88561886Y-92188926D01*
X88426400Y-92382420D01*
X88426399Y-92382422D01*
X88326570Y-92596507D01*
X88326567Y-92596513D01*
X88269364Y-92809999D01*
X88269364Y-92810000D01*
X89166988Y-92810000D01*
X89134075Y-92867007D01*
X89100000Y-92994174D01*
X89100000Y-93125826D01*
X89134075Y-93252993D01*
X89166988Y-93310000D01*
X88269364Y-93310000D01*
X88326567Y-93523486D01*
X88326570Y-93523492D01*
X88426399Y-93737578D01*
X88561894Y-93931082D01*
X88728917Y-94098105D01*
X88922421Y-94233600D01*
X89136507Y-94333429D01*
X89136516Y-94333433D01*
X89258649Y-94366158D01*
X89318310Y-94402523D01*
X89348839Y-94465369D01*
X89340545Y-94534745D01*
X89296059Y-94588623D01*
X89262552Y-94604593D01*
X89196046Y-94624767D01*
X89083361Y-94685000D01*
X89013550Y-94722315D01*
X89013548Y-94722316D01*
X89013547Y-94722317D01*
X88853589Y-94853589D01*
X88722317Y-95013547D01*
X88722315Y-95013550D01*
X88718120Y-95021399D01*
X88624769Y-95196043D01*
X88564699Y-95394067D01*
X88544417Y-95600000D01*
X88564699Y-95805932D01*
X88591373Y-95893865D01*
X88624768Y-96003954D01*
X88722315Y-96186450D01*
X88732700Y-96199104D01*
X88853589Y-96346410D01*
X88935365Y-96413521D01*
X89013550Y-96477685D01*
X89196046Y-96575232D01*
X89394066Y-96635300D01*
X89394065Y-96635300D01*
X89412529Y-96637118D01*
X89600000Y-96655583D01*
X89805934Y-96635300D01*
X90003954Y-96575232D01*
X90186450Y-96477685D01*
X90264635Y-96413521D01*
X90328945Y-96386208D01*
X90397813Y-96397999D01*
X90449373Y-96445152D01*
X90467300Y-96509374D01*
X90467300Y-97230625D01*
X90447615Y-97297664D01*
X90394811Y-97343419D01*
X90325653Y-97353363D01*
X90264636Y-97326479D01*
X90186453Y-97262317D01*
X90186451Y-97262316D01*
X90186450Y-97262315D01*
X90003954Y-97164768D01*
X89805934Y-97104700D01*
X89805932Y-97104699D01*
X89805934Y-97104699D01*
X89600000Y-97084417D01*
X89394067Y-97104699D01*
X89196043Y-97164769D01*
X89099345Y-97216456D01*
X89013550Y-97262315D01*
X89013548Y-97262316D01*
X89013547Y-97262317D01*
X88853589Y-97393589D01*
X88722317Y-97553547D01*
X88624769Y-97736043D01*
X88564699Y-97934067D01*
X88544417Y-98140000D01*
X88564699Y-98345932D01*
X88589890Y-98428975D01*
X88624768Y-98543954D01*
X88722315Y-98726450D01*
X88722317Y-98726452D01*
X88853589Y-98886410D01*
X88935365Y-98953521D01*
X89013550Y-99017685D01*
X89196046Y-99115232D01*
X89394066Y-99175300D01*
X89394065Y-99175300D01*
X89412529Y-99177118D01*
X89600000Y-99195583D01*
X89805934Y-99175300D01*
X90003954Y-99115232D01*
X90186450Y-99017685D01*
X90264635Y-98953521D01*
X90328945Y-98926208D01*
X90397813Y-98937999D01*
X90449373Y-98985152D01*
X90467300Y-99049374D01*
X90467300Y-99770625D01*
X90447615Y-99837664D01*
X90394811Y-99883419D01*
X90325653Y-99893363D01*
X90264636Y-99866479D01*
X90186453Y-99802317D01*
X90186451Y-99802316D01*
X90186450Y-99802315D01*
X90003954Y-99704768D01*
X89805934Y-99644700D01*
X89805932Y-99644699D01*
X89805934Y-99644699D01*
X89600000Y-99624417D01*
X89394067Y-99644699D01*
X89222752Y-99696667D01*
X89196050Y-99704767D01*
X89196043Y-99704769D01*
X89132126Y-99738934D01*
X89013550Y-99802315D01*
X89013548Y-99802316D01*
X89013547Y-99802317D01*
X88853589Y-99933589D01*
X88722317Y-100093547D01*
X88624769Y-100276043D01*
X88564699Y-100474067D01*
X88544417Y-100680000D01*
X88564699Y-100885932D01*
X88564700Y-100885934D01*
X88624768Y-101083954D01*
X88722315Y-101266450D01*
X88774279Y-101329769D01*
X88853590Y-101426410D01*
X88968329Y-101520574D01*
X89007663Y-101578319D01*
X89009534Y-101648164D01*
X88974810Y-101705514D01*
X88975212Y-101705916D01*
X88973578Y-101707549D01*
X88973347Y-101707932D01*
X88972083Y-101709044D01*
X88949516Y-101731612D01*
X88949510Y-101731618D01*
X88244478Y-102436553D01*
X88244444Y-102436584D01*
X88213012Y-102468015D01*
X88213011Y-102468016D01*
X88183432Y-102497591D01*
X88182658Y-102498516D01*
X88181791Y-102499527D01*
X88180784Y-102500849D01*
X88179680Y-102502196D01*
X88177698Y-102500571D01*
X88132709Y-102538251D01*
X88063393Y-102547031D01*
X88000334Y-102516942D01*
X87963553Y-102457538D01*
X87959100Y-102424607D01*
X87959100Y-88421032D01*
X87978785Y-88353993D01*
X87995414Y-88333356D01*
X88081447Y-88247323D01*
X88142768Y-88213840D01*
X88212460Y-88218824D01*
G37*
%TD.AperFunction*%
%TA.AperFunction,Conductor*%
G36*
X117050000Y-101856988D02*
G01*
X116992993Y-101824075D01*
X116865826Y-101790000D01*
X116734174Y-101790000D01*
X116607007Y-101824075D01*
X116550000Y-101856988D01*
X116550000Y-100183012D01*
X116607007Y-100215925D01*
X116734174Y-100250000D01*
X116865826Y-100250000D01*
X116992993Y-100215925D01*
X117050000Y-100183012D01*
X117050000Y-101856988D01*
G37*
%TD.AperFunction*%
%TA.AperFunction,Conductor*%
G36*
X174343463Y-71420185D02*
G01*
X174389218Y-71472989D01*
X174400424Y-71524338D01*
X174499836Y-147475338D01*
X174480239Y-147542403D01*
X174427495Y-147588227D01*
X174375836Y-147599500D01*
X174351621Y-147599500D01*
X174351203Y-147599499D01*
X85524082Y-147300417D01*
X85457110Y-147280507D01*
X85411533Y-147227549D01*
X85400500Y-147176418D01*
X85400500Y-147110000D01*
X85409016Y-143874038D01*
X87399500Y-143874038D01*
X87399500Y-144125961D01*
X87438910Y-144374785D01*
X87516760Y-144614383D01*
X87631132Y-144838848D01*
X87779201Y-145042649D01*
X87779205Y-145042654D01*
X87957345Y-145220794D01*
X87957350Y-145220798D01*
X88135117Y-145349952D01*
X88161155Y-145368870D01*
X88304184Y-145441747D01*
X88385616Y-145483239D01*
X88385618Y-145483239D01*
X88385621Y-145483241D01*
X88625215Y-145561090D01*
X88874038Y-145600500D01*
X88874039Y-145600500D01*
X89125961Y-145600500D01*
X89125962Y-145600500D01*
X89374785Y-145561090D01*
X89614379Y-145483241D01*
X89838845Y-145368870D01*
X90042656Y-145220793D01*
X90220793Y-145042656D01*
X90368870Y-144838845D01*
X90483241Y-144614379D01*
X90561090Y-144374785D01*
X90600500Y-144125962D01*
X90600500Y-143874038D01*
X169399500Y-143874038D01*
X169399500Y-144125961D01*
X169438910Y-144374785D01*
X169516760Y-144614383D01*
X169631132Y-144838848D01*
X169779201Y-145042649D01*
X169779205Y-145042654D01*
X169957345Y-145220794D01*
X169957350Y-145220798D01*
X170135117Y-145349952D01*
X170161155Y-145368870D01*
X170304184Y-145441747D01*
X170385616Y-145483239D01*
X170385618Y-145483239D01*
X170385621Y-145483241D01*
X170625215Y-145561090D01*
X170874038Y-145600500D01*
X170874039Y-145600500D01*
X171125961Y-145600500D01*
X171125962Y-145600500D01*
X171374785Y-145561090D01*
X171614379Y-145483241D01*
X171838845Y-145368870D01*
X172042656Y-145220793D01*
X172220793Y-145042656D01*
X172368870Y-144838845D01*
X172483241Y-144614379D01*
X172561090Y-144374785D01*
X172600500Y-144125962D01*
X172600500Y-143874038D01*
X172561090Y-143625215D01*
X172483241Y-143385621D01*
X172483239Y-143385618D01*
X172483239Y-143385616D01*
X172441747Y-143304184D01*
X172368870Y-143161155D01*
X172349952Y-143135117D01*
X172220798Y-142957350D01*
X172220794Y-142957345D01*
X172042654Y-142779205D01*
X172042649Y-142779201D01*
X171838848Y-142631132D01*
X171838847Y-142631131D01*
X171838845Y-142631130D01*
X171768747Y-142595413D01*
X171614383Y-142516760D01*
X171374785Y-142438910D01*
X171125962Y-142399500D01*
X170874038Y-142399500D01*
X170749626Y-142419205D01*
X170625214Y-142438910D01*
X170385616Y-142516760D01*
X170161151Y-142631132D01*
X169957350Y-142779201D01*
X169957345Y-142779205D01*
X169779205Y-142957345D01*
X169779201Y-142957350D01*
X169631132Y-143161151D01*
X169516760Y-143385616D01*
X169438910Y-143625214D01*
X169399500Y-143874038D01*
X90600500Y-143874038D01*
X90561090Y-143625215D01*
X90483241Y-143385621D01*
X90483239Y-143385618D01*
X90483239Y-143385616D01*
X90441747Y-143304184D01*
X90368870Y-143161155D01*
X90349952Y-143135117D01*
X90220798Y-142957350D01*
X90220794Y-142957345D01*
X90042654Y-142779205D01*
X90042649Y-142779201D01*
X89838848Y-142631132D01*
X89838847Y-142631131D01*
X89838845Y-142631130D01*
X89768747Y-142595413D01*
X89614383Y-142516760D01*
X89374785Y-142438910D01*
X89125962Y-142399500D01*
X88874038Y-142399500D01*
X88749626Y-142419205D01*
X88625214Y-142438910D01*
X88385616Y-142516760D01*
X88161151Y-142631132D01*
X87957350Y-142779201D01*
X87957345Y-142779205D01*
X87779205Y-142957345D01*
X87779201Y-142957350D01*
X87631132Y-143161151D01*
X87516760Y-143385616D01*
X87438910Y-143625214D01*
X87399500Y-143874038D01*
X85409016Y-143874038D01*
X85421672Y-139064655D01*
X99050000Y-139064655D01*
X99050000Y-139912500D01*
X99945879Y-139912500D01*
X99926901Y-139958318D01*
X99900000Y-140093556D01*
X99900000Y-140231444D01*
X99926901Y-140366682D01*
X99945879Y-140412500D01*
X99050000Y-140412500D01*
X99050000Y-141260344D01*
X99056401Y-141319872D01*
X99056403Y-141319879D01*
X99106645Y-141454586D01*
X99106649Y-141454593D01*
X99192809Y-141569687D01*
X99192812Y-141569690D01*
X99307906Y-141655850D01*
X99307913Y-141655854D01*
X99442620Y-141706096D01*
X99442627Y-141706098D01*
X99502155Y-141712499D01*
X99502172Y-141712500D01*
X100350000Y-141712500D01*
X100350000Y-140816620D01*
X100395818Y-140835599D01*
X100531056Y-140862500D01*
X100668944Y-140862500D01*
X100804182Y-140835599D01*
X100850000Y-140816620D01*
X100850000Y-141712500D01*
X101697828Y-141712500D01*
X101697844Y-141712499D01*
X101757372Y-141706098D01*
X101757379Y-141706096D01*
X101892086Y-141655854D01*
X101892093Y-141655850D01*
X102007187Y-141569690D01*
X102007190Y-141569687D01*
X102093350Y-141454593D01*
X102093354Y-141454586D01*
X102143596Y-141319879D01*
X102143598Y-141319872D01*
X102149999Y-141260344D01*
X102150000Y-141260327D01*
X102150000Y-140412500D01*
X101254121Y-140412500D01*
X101273099Y-140366682D01*
X101300000Y-140231444D01*
X101300000Y-140093556D01*
X101273099Y-139958318D01*
X101254121Y-139912500D01*
X102150000Y-139912500D01*
X102150000Y-139064672D01*
X102149999Y-139064655D01*
X111550000Y-139064655D01*
X111550000Y-139912500D01*
X112445879Y-139912500D01*
X112426901Y-139958318D01*
X112400000Y-140093556D01*
X112400000Y-140231444D01*
X112426901Y-140366682D01*
X112445879Y-140412500D01*
X111550000Y-140412500D01*
X111550000Y-141260344D01*
X111556401Y-141319872D01*
X111556403Y-141319879D01*
X111606645Y-141454586D01*
X111606649Y-141454593D01*
X111692809Y-141569687D01*
X111692812Y-141569690D01*
X111807906Y-141655850D01*
X111807913Y-141655854D01*
X111942620Y-141706096D01*
X111942627Y-141706098D01*
X112002155Y-141712499D01*
X112002172Y-141712500D01*
X112850000Y-141712500D01*
X112850000Y-140816620D01*
X112895818Y-140835599D01*
X113031056Y-140862500D01*
X113168944Y-140862500D01*
X113304182Y-140835599D01*
X113350000Y-140816620D01*
X113350000Y-141712500D01*
X114197828Y-141712500D01*
X114197844Y-141712499D01*
X114257372Y-141706098D01*
X114257379Y-141706096D01*
X114392086Y-141655854D01*
X114392093Y-141655850D01*
X114507187Y-141569690D01*
X114507190Y-141569687D01*
X114593350Y-141454593D01*
X114593354Y-141454586D01*
X114643596Y-141319879D01*
X114643598Y-141319872D01*
X114649999Y-141260344D01*
X114650000Y-141260327D01*
X114650000Y-140412500D01*
X113754121Y-140412500D01*
X113773099Y-140366682D01*
X113800000Y-140231444D01*
X113800000Y-140093556D01*
X113773099Y-139958318D01*
X113754121Y-139912500D01*
X114650000Y-139912500D01*
X114650000Y-139064672D01*
X114649999Y-139064655D01*
X124050000Y-139064655D01*
X124050000Y-139912500D01*
X124945879Y-139912500D01*
X124926901Y-139958318D01*
X124900000Y-140093556D01*
X124900000Y-140231444D01*
X124926901Y-140366682D01*
X124945879Y-140412500D01*
X124050000Y-140412500D01*
X124050000Y-141260344D01*
X124056401Y-141319872D01*
X124056403Y-141319879D01*
X124106645Y-141454586D01*
X124106649Y-141454593D01*
X124192809Y-141569687D01*
X124192812Y-141569690D01*
X124307906Y-141655850D01*
X124307913Y-141655854D01*
X124442620Y-141706096D01*
X124442627Y-141706098D01*
X124502155Y-141712499D01*
X124502172Y-141712500D01*
X125350000Y-141712500D01*
X125350000Y-140816620D01*
X125395818Y-140835599D01*
X125531056Y-140862500D01*
X125668944Y-140862500D01*
X125804182Y-140835599D01*
X125850000Y-140816620D01*
X125850000Y-141712500D01*
X126697828Y-141712500D01*
X126697844Y-141712499D01*
X126757372Y-141706098D01*
X126757379Y-141706096D01*
X126892086Y-141655854D01*
X126892093Y-141655850D01*
X127007187Y-141569690D01*
X127007190Y-141569687D01*
X127093350Y-141454593D01*
X127093354Y-141454586D01*
X127143596Y-141319879D01*
X127143598Y-141319872D01*
X127149999Y-141260344D01*
X127150000Y-141260327D01*
X127150000Y-140412500D01*
X126254121Y-140412500D01*
X126273099Y-140366682D01*
X126300000Y-140231444D01*
X126300000Y-140093556D01*
X126273099Y-139958318D01*
X126254121Y-139912500D01*
X127150000Y-139912500D01*
X127150000Y-139064672D01*
X127149999Y-139064655D01*
X136550000Y-139064655D01*
X136550000Y-139912500D01*
X137445879Y-139912500D01*
X137426901Y-139958318D01*
X137400000Y-140093556D01*
X137400000Y-140231444D01*
X137426901Y-140366682D01*
X137445879Y-140412500D01*
X136550000Y-140412500D01*
X136550000Y-141260344D01*
X136556401Y-141319872D01*
X136556403Y-141319879D01*
X136606645Y-141454586D01*
X136606649Y-141454593D01*
X136692809Y-141569687D01*
X136692812Y-141569690D01*
X136807906Y-141655850D01*
X136807913Y-141655854D01*
X136942620Y-141706096D01*
X136942627Y-141706098D01*
X137002155Y-141712499D01*
X137002172Y-141712500D01*
X137850000Y-141712500D01*
X137850000Y-140816620D01*
X137895818Y-140835599D01*
X138031056Y-140862500D01*
X138168944Y-140862500D01*
X138304182Y-140835599D01*
X138350000Y-140816620D01*
X138350000Y-141712500D01*
X139197828Y-141712500D01*
X139197844Y-141712499D01*
X139257372Y-141706098D01*
X139257379Y-141706096D01*
X139392086Y-141655854D01*
X139392093Y-141655850D01*
X139507187Y-141569690D01*
X139507190Y-141569687D01*
X139593350Y-141454593D01*
X139593354Y-141454586D01*
X139643596Y-141319879D01*
X139643598Y-141319872D01*
X139649999Y-141260344D01*
X139650000Y-141260327D01*
X139650000Y-140412500D01*
X138754121Y-140412500D01*
X138773099Y-140366682D01*
X138800000Y-140231444D01*
X138800000Y-140093556D01*
X138773099Y-139958318D01*
X138754121Y-139912500D01*
X139650000Y-139912500D01*
X139650000Y-139064672D01*
X139649999Y-139064655D01*
X149050000Y-139064655D01*
X149050000Y-139912500D01*
X149945879Y-139912500D01*
X149926901Y-139958318D01*
X149900000Y-140093556D01*
X149900000Y-140231444D01*
X149926901Y-140366682D01*
X149945879Y-140412500D01*
X149050000Y-140412500D01*
X149050000Y-141260344D01*
X149056401Y-141319872D01*
X149056403Y-141319879D01*
X149106645Y-141454586D01*
X149106649Y-141454593D01*
X149192809Y-141569687D01*
X149192812Y-141569690D01*
X149307906Y-141655850D01*
X149307913Y-141655854D01*
X149442620Y-141706096D01*
X149442627Y-141706098D01*
X149502155Y-141712499D01*
X149502172Y-141712500D01*
X150350000Y-141712500D01*
X150350000Y-140816620D01*
X150395818Y-140835599D01*
X150531056Y-140862500D01*
X150668944Y-140862500D01*
X150804182Y-140835599D01*
X150850000Y-140816620D01*
X150850000Y-141712500D01*
X151697828Y-141712500D01*
X151697844Y-141712499D01*
X151757372Y-141706098D01*
X151757379Y-141706096D01*
X151892086Y-141655854D01*
X151892093Y-141655850D01*
X152007187Y-141569690D01*
X152007190Y-141569687D01*
X152093350Y-141454593D01*
X152093354Y-141454586D01*
X152143596Y-141319879D01*
X152143598Y-141319872D01*
X152149999Y-141260344D01*
X152150000Y-141260327D01*
X152150000Y-140412500D01*
X151254121Y-140412500D01*
X151273099Y-140366682D01*
X151300000Y-140231444D01*
X151300000Y-140093556D01*
X151273099Y-139958318D01*
X151254121Y-139912500D01*
X152150000Y-139912500D01*
X152150000Y-139064672D01*
X152149999Y-139064655D01*
X161550000Y-139064655D01*
X161550000Y-139912500D01*
X162445879Y-139912500D01*
X162426901Y-139958318D01*
X162400000Y-140093556D01*
X162400000Y-140231444D01*
X162426901Y-140366682D01*
X162445879Y-140412500D01*
X161550000Y-140412500D01*
X161550000Y-141260344D01*
X161556401Y-141319872D01*
X161556403Y-141319879D01*
X161606645Y-141454586D01*
X161606649Y-141454593D01*
X161692809Y-141569687D01*
X161692812Y-141569690D01*
X161807906Y-141655850D01*
X161807913Y-141655854D01*
X161942620Y-141706096D01*
X161942627Y-141706098D01*
X162002155Y-141712499D01*
X162002172Y-141712500D01*
X162850000Y-141712500D01*
X162850000Y-140816620D01*
X162895818Y-140835599D01*
X163031056Y-140862500D01*
X163168944Y-140862500D01*
X163304182Y-140835599D01*
X163350000Y-140816620D01*
X163350000Y-141712500D01*
X164197828Y-141712500D01*
X164197844Y-141712499D01*
X164257372Y-141706098D01*
X164257379Y-141706096D01*
X164392086Y-141655854D01*
X164392093Y-141655850D01*
X164507187Y-141569690D01*
X164507190Y-141569687D01*
X164593350Y-141454593D01*
X164593354Y-141454586D01*
X164643596Y-141319879D01*
X164643598Y-141319872D01*
X164649999Y-141260344D01*
X164650000Y-141260327D01*
X164650000Y-140412500D01*
X163754121Y-140412500D01*
X163773099Y-140366682D01*
X163800000Y-140231444D01*
X163800000Y-140093556D01*
X163773099Y-139958318D01*
X163754121Y-139912500D01*
X164650000Y-139912500D01*
X164650000Y-139064672D01*
X164649999Y-139064655D01*
X164643598Y-139005127D01*
X164643596Y-139005120D01*
X164593354Y-138870413D01*
X164593350Y-138870406D01*
X164507190Y-138755312D01*
X164507187Y-138755309D01*
X164392093Y-138669149D01*
X164392086Y-138669145D01*
X164257379Y-138618903D01*
X164257372Y-138618901D01*
X164197844Y-138612500D01*
X163350000Y-138612500D01*
X163350000Y-139508379D01*
X163304182Y-139489401D01*
X163168944Y-139462500D01*
X163031056Y-139462500D01*
X162895818Y-139489401D01*
X162850000Y-139508379D01*
X162850000Y-138612500D01*
X162002155Y-138612500D01*
X161942627Y-138618901D01*
X161942620Y-138618903D01*
X161807913Y-138669145D01*
X161807906Y-138669149D01*
X161692812Y-138755309D01*
X161692809Y-138755312D01*
X161606649Y-138870406D01*
X161606645Y-138870413D01*
X161556403Y-139005120D01*
X161556401Y-139005127D01*
X161550000Y-139064655D01*
X152149999Y-139064655D01*
X152143598Y-139005127D01*
X152143596Y-139005120D01*
X152093354Y-138870413D01*
X152093350Y-138870406D01*
X152007190Y-138755312D01*
X152007187Y-138755309D01*
X151892093Y-138669149D01*
X151892086Y-138669145D01*
X151757379Y-138618903D01*
X151757372Y-138618901D01*
X151697844Y-138612500D01*
X150850000Y-138612500D01*
X150850000Y-139508379D01*
X150804182Y-139489401D01*
X150668944Y-139462500D01*
X150531056Y-139462500D01*
X150395818Y-139489401D01*
X150350000Y-139508379D01*
X150350000Y-138612500D01*
X149502155Y-138612500D01*
X149442627Y-138618901D01*
X149442620Y-138618903D01*
X149307913Y-138669145D01*
X149307906Y-138669149D01*
X149192812Y-138755309D01*
X149192809Y-138755312D01*
X149106649Y-138870406D01*
X149106645Y-138870413D01*
X149056403Y-139005120D01*
X149056401Y-139005127D01*
X149050000Y-139064655D01*
X139649999Y-139064655D01*
X139643598Y-139005127D01*
X139643596Y-139005120D01*
X139593354Y-138870413D01*
X139593350Y-138870406D01*
X139507190Y-138755312D01*
X139507187Y-138755309D01*
X139392093Y-138669149D01*
X139392086Y-138669145D01*
X139257379Y-138618903D01*
X139257372Y-138618901D01*
X139197844Y-138612500D01*
X138350000Y-138612500D01*
X138350000Y-139508379D01*
X138304182Y-139489401D01*
X138168944Y-139462500D01*
X138031056Y-139462500D01*
X137895818Y-139489401D01*
X137850000Y-139508379D01*
X137850000Y-138612500D01*
X137002155Y-138612500D01*
X136942627Y-138618901D01*
X136942620Y-138618903D01*
X136807913Y-138669145D01*
X136807906Y-138669149D01*
X136692812Y-138755309D01*
X136692809Y-138755312D01*
X136606649Y-138870406D01*
X136606645Y-138870413D01*
X136556403Y-139005120D01*
X136556401Y-139005127D01*
X136550000Y-139064655D01*
X127149999Y-139064655D01*
X127143598Y-139005127D01*
X127143596Y-139005120D01*
X127093354Y-138870413D01*
X127093350Y-138870406D01*
X127007190Y-138755312D01*
X127007187Y-138755309D01*
X126892093Y-138669149D01*
X126892086Y-138669145D01*
X126757379Y-138618903D01*
X126757372Y-138618901D01*
X126697844Y-138612500D01*
X125850000Y-138612500D01*
X125850000Y-139508379D01*
X125804182Y-139489401D01*
X125668944Y-139462500D01*
X125531056Y-139462500D01*
X125395818Y-139489401D01*
X125350000Y-139508379D01*
X125350000Y-138612500D01*
X124502155Y-138612500D01*
X124442627Y-138618901D01*
X124442620Y-138618903D01*
X124307913Y-138669145D01*
X124307906Y-138669149D01*
X124192812Y-138755309D01*
X124192809Y-138755312D01*
X124106649Y-138870406D01*
X124106645Y-138870413D01*
X124056403Y-139005120D01*
X124056401Y-139005127D01*
X124050000Y-139064655D01*
X114649999Y-139064655D01*
X114643598Y-139005127D01*
X114643596Y-139005120D01*
X114593354Y-138870413D01*
X114593350Y-138870406D01*
X114507190Y-138755312D01*
X114507187Y-138755309D01*
X114392093Y-138669149D01*
X114392086Y-138669145D01*
X114257379Y-138618903D01*
X114257372Y-138618901D01*
X114197844Y-138612500D01*
X113350000Y-138612500D01*
X113350000Y-139508379D01*
X113304182Y-139489401D01*
X113168944Y-139462500D01*
X113031056Y-139462500D01*
X112895818Y-139489401D01*
X112850000Y-139508379D01*
X112850000Y-138612500D01*
X112002155Y-138612500D01*
X111942627Y-138618901D01*
X111942620Y-138618903D01*
X111807913Y-138669145D01*
X111807906Y-138669149D01*
X111692812Y-138755309D01*
X111692809Y-138755312D01*
X111606649Y-138870406D01*
X111606645Y-138870413D01*
X111556403Y-139005120D01*
X111556401Y-139005127D01*
X111550000Y-139064655D01*
X102149999Y-139064655D01*
X102143598Y-139005127D01*
X102143596Y-139005120D01*
X102093354Y-138870413D01*
X102093350Y-138870406D01*
X102007190Y-138755312D01*
X102007187Y-138755309D01*
X101892093Y-138669149D01*
X101892086Y-138669145D01*
X101757379Y-138618903D01*
X101757372Y-138618901D01*
X101697844Y-138612500D01*
X100850000Y-138612500D01*
X100850000Y-139508379D01*
X100804182Y-139489401D01*
X100668944Y-139462500D01*
X100531056Y-139462500D01*
X100395818Y-139489401D01*
X100350000Y-139508379D01*
X100350000Y-138612500D01*
X99502155Y-138612500D01*
X99442627Y-138618901D01*
X99442620Y-138618903D01*
X99307913Y-138669145D01*
X99307906Y-138669149D01*
X99192812Y-138755309D01*
X99192809Y-138755312D01*
X99106649Y-138870406D01*
X99106645Y-138870413D01*
X99056403Y-139005120D01*
X99056401Y-139005127D01*
X99050000Y-139064655D01*
X85421672Y-139064655D01*
X85427993Y-136662497D01*
X99344723Y-136662497D01*
X99344723Y-136662502D01*
X99363793Y-136880475D01*
X99363793Y-136880479D01*
X99420422Y-137091822D01*
X99420424Y-137091826D01*
X99420425Y-137091830D01*
X99466661Y-137190984D01*
X99512897Y-137290138D01*
X99512898Y-137290139D01*
X99638402Y-137469377D01*
X99793123Y-137624098D01*
X99972361Y-137749602D01*
X100170670Y-137842075D01*
X100382023Y-137898707D01*
X100564926Y-137914708D01*
X100599998Y-137917777D01*
X100600000Y-137917777D01*
X100600002Y-137917777D01*
X100628254Y-137915305D01*
X100817977Y-137898707D01*
X101029330Y-137842075D01*
X101227639Y-137749602D01*
X101406877Y-137624098D01*
X101561598Y-137469377D01*
X101687102Y-137290139D01*
X101779575Y-137091830D01*
X101836207Y-136880477D01*
X101855277Y-136662500D01*
X101855277Y-136662497D01*
X111844723Y-136662497D01*
X111844723Y-136662502D01*
X111863793Y-136880475D01*
X111863793Y-136880479D01*
X111920422Y-137091822D01*
X111920424Y-137091826D01*
X111920425Y-137091830D01*
X111966661Y-137190984D01*
X112012897Y-137290138D01*
X112012898Y-137290139D01*
X112138402Y-137469377D01*
X112293123Y-137624098D01*
X112472361Y-137749602D01*
X112670670Y-137842075D01*
X112882023Y-137898707D01*
X113064926Y-137914708D01*
X113099998Y-137917777D01*
X113100000Y-137917777D01*
X113100002Y-137917777D01*
X113128254Y-137915305D01*
X113317977Y-137898707D01*
X113529330Y-137842075D01*
X113727639Y-137749602D01*
X113906877Y-137624098D01*
X114061598Y-137469377D01*
X114187102Y-137290139D01*
X114279575Y-137091830D01*
X114336207Y-136880477D01*
X114355277Y-136662500D01*
X114336207Y-136444523D01*
X114279575Y-136233170D01*
X114212712Y-136089784D01*
X114202221Y-136020709D01*
X114230740Y-135956925D01*
X114237407Y-135949707D01*
X119685431Y-130502532D01*
X119685473Y-130502497D01*
X119692509Y-130495460D01*
X119692511Y-130495460D01*
X119706074Y-130481896D01*
X119722786Y-130465185D01*
X119722791Y-130465179D01*
X119722799Y-130465170D01*
X119746228Y-130441746D01*
X119748575Y-130439520D01*
X119748583Y-130439509D01*
X119750262Y-130436389D01*
X119762995Y-130414333D01*
X119770736Y-130400927D01*
X119770738Y-130400921D01*
X119785343Y-130375632D01*
X119788183Y-130371174D01*
X119788197Y-130371139D01*
X119789317Y-130366148D01*
X119799916Y-130326595D01*
X119808311Y-130295276D01*
X119808492Y-130294621D01*
X119808500Y-130294566D01*
X119808500Y-130249371D01*
X119808503Y-130215462D01*
X119808502Y-130215459D01*
X119808503Y-130207899D01*
X119808500Y-130207833D01*
X119808500Y-123363820D01*
X119828185Y-123296781D01*
X119844814Y-123276143D01*
X119908927Y-123212024D01*
X129366527Y-113753442D01*
X129366530Y-113753441D01*
X129379676Y-113740293D01*
X129390631Y-113729338D01*
X129394108Y-113726226D01*
X129395429Y-113724802D01*
X129397287Y-113721348D01*
X129416039Y-113688867D01*
X129433067Y-113659372D01*
X129435007Y-113656249D01*
X129435030Y-113656195D01*
X129435704Y-113653446D01*
X129441039Y-113633534D01*
X129445337Y-113617489D01*
X129455302Y-113580297D01*
X129455496Y-113579598D01*
X129455501Y-113579561D01*
X129455500Y-113579550D01*
X129455502Y-113579547D01*
X129455500Y-113535910D01*
X129455500Y-113442314D01*
X129475185Y-113375275D01*
X129527989Y-113329520D01*
X129597147Y-113319576D01*
X129660703Y-113348601D01*
X129675351Y-113363647D01*
X129714117Y-113410883D01*
X129866462Y-113535910D01*
X129979457Y-113596307D01*
X130029299Y-113645268D01*
X130044760Y-113713405D01*
X130020929Y-113779085D01*
X130008683Y-113793345D01*
X129110489Y-114691540D01*
X129054541Y-114747487D01*
X129054535Y-114747495D01*
X129014982Y-114816004D01*
X129014979Y-114816009D01*
X129004600Y-114854745D01*
X128994970Y-114890686D01*
X128994500Y-114892439D01*
X128994500Y-119778276D01*
X128974815Y-119845315D01*
X128922011Y-119891070D01*
X128852853Y-119901014D01*
X128789297Y-119871989D01*
X128761142Y-119836729D01*
X128720913Y-119761467D01*
X128720909Y-119761460D01*
X128595883Y-119609116D01*
X128443539Y-119484090D01*
X128443532Y-119484086D01*
X128269733Y-119391188D01*
X128269727Y-119391186D01*
X128136006Y-119350622D01*
X128081129Y-119333975D01*
X127885000Y-119314659D01*
X127688870Y-119333975D01*
X127500266Y-119391188D01*
X127326467Y-119484086D01*
X127326460Y-119484090D01*
X127174116Y-119609116D01*
X127049090Y-119761460D01*
X127049086Y-119761467D01*
X126956188Y-119935266D01*
X126898975Y-120123870D01*
X126879659Y-120320000D01*
X126898975Y-120516129D01*
X126956188Y-120704733D01*
X127049086Y-120878532D01*
X127049090Y-120878539D01*
X127174116Y-121030883D01*
X127326460Y-121155909D01*
X127326467Y-121155913D01*
X127500266Y-121248811D01*
X127500269Y-121248811D01*
X127500273Y-121248814D01*
X127688868Y-121306024D01*
X127885000Y-121325341D01*
X128081132Y-121306024D01*
X128269727Y-121248814D01*
X128443538Y-121155910D01*
X128595883Y-121030883D01*
X128720910Y-120878538D01*
X128761142Y-120803268D01*
X128810104Y-120753426D01*
X128878241Y-120737965D01*
X128943921Y-120761796D01*
X128986290Y-120817354D01*
X128994500Y-120861723D01*
X128994500Y-122465766D01*
X128983295Y-122517275D01*
X128969041Y-122548489D01*
X128949834Y-122590545D01*
X128949834Y-122590547D01*
X128929353Y-122733000D01*
X128949834Y-122875456D01*
X128974541Y-122929556D01*
X129009623Y-123006373D01*
X129103872Y-123115143D01*
X129224947Y-123192953D01*
X129224950Y-123192954D01*
X129224949Y-123192954D01*
X129332107Y-123224417D01*
X129361312Y-123232993D01*
X129363036Y-123233499D01*
X129363038Y-123233500D01*
X129363039Y-123233500D01*
X129506962Y-123233500D01*
X129506962Y-123233499D01*
X129645053Y-123192953D01*
X129766128Y-123115143D01*
X129860377Y-123006373D01*
X129887706Y-122946532D01*
X129933461Y-122893728D01*
X130000500Y-122874043D01*
X130067539Y-122893728D01*
X130113294Y-122946532D01*
X130124500Y-122998043D01*
X130124500Y-126175167D01*
X130104815Y-126242206D01*
X130088181Y-126262848D01*
X124007541Y-132343487D01*
X124007535Y-132343495D01*
X123967982Y-132412004D01*
X123967979Y-132412009D01*
X123954326Y-132462962D01*
X123947500Y-132488438D01*
X123947500Y-134059562D01*
X123961152Y-134110513D01*
X123967979Y-134135990D01*
X123967980Y-134135991D01*
X124006863Y-134203339D01*
X124007540Y-134204511D01*
X124007545Y-134204516D01*
X124012295Y-134210705D01*
X124037499Y-134275870D01*
X124036668Y-134303851D01*
X124035353Y-134312998D01*
X124035353Y-134312999D01*
X124055834Y-134455456D01*
X124096554Y-134544618D01*
X124115623Y-134586373D01*
X124209872Y-134695143D01*
X124330947Y-134772953D01*
X124330950Y-134772954D01*
X124330949Y-134772954D01*
X124469036Y-134813499D01*
X124469038Y-134813500D01*
X124469039Y-134813500D01*
X124612962Y-134813500D01*
X124612962Y-134813499D01*
X124751053Y-134772953D01*
X124872128Y-134695143D01*
X124966377Y-134586373D01*
X125026165Y-134455457D01*
X125027339Y-134447289D01*
X125056359Y-134383735D01*
X125115135Y-134345957D01*
X125182170Y-134345157D01*
X125267599Y-134368047D01*
X125382023Y-134398707D01*
X125564926Y-134414708D01*
X125599998Y-134417777D01*
X125600000Y-134417777D01*
X125600002Y-134417777D01*
X125628254Y-134415305D01*
X125817977Y-134398707D01*
X126029330Y-134342075D01*
X126227639Y-134249602D01*
X126406877Y-134124098D01*
X126561598Y-133969377D01*
X126687102Y-133790139D01*
X126779575Y-133591830D01*
X126836207Y-133380477D01*
X126855277Y-133162500D01*
X126836207Y-132944523D01*
X126779575Y-132733170D01*
X126687102Y-132534862D01*
X126687100Y-132534859D01*
X126687099Y-132534857D01*
X126561599Y-132355624D01*
X126493515Y-132287540D01*
X126406877Y-132200902D01*
X126227639Y-132075398D01*
X126227640Y-132075398D01*
X126227638Y-132075397D01*
X126128484Y-132029161D01*
X126029330Y-131982925D01*
X126029326Y-131982924D01*
X126029322Y-131982922D01*
X125817977Y-131926293D01*
X125600002Y-131907223D01*
X125594586Y-131907223D01*
X125594586Y-131905055D01*
X125535231Y-131893103D01*
X125485067Y-131844468D01*
X125469161Y-131776433D01*
X125492562Y-131710598D01*
X125505279Y-131695690D01*
X130665460Y-126535511D01*
X130682071Y-126506740D01*
X130705021Y-126466989D01*
X130725500Y-126390562D01*
X130725500Y-121366328D01*
X130745185Y-121299289D01*
X130797989Y-121253534D01*
X130804131Y-121251212D01*
X130804103Y-121251144D01*
X130809723Y-121248815D01*
X130809727Y-121248814D01*
X130983538Y-121155910D01*
X131135883Y-121030883D01*
X131260910Y-120878538D01*
X131323310Y-120761796D01*
X131353811Y-120704733D01*
X131353811Y-120704732D01*
X131353814Y-120704727D01*
X131411024Y-120516132D01*
X131430341Y-120320000D01*
X131411024Y-120123868D01*
X131353814Y-119935273D01*
X131353811Y-119935269D01*
X131353811Y-119935266D01*
X131260913Y-119761467D01*
X131260909Y-119761460D01*
X131135883Y-119609116D01*
X130983539Y-119484090D01*
X130983532Y-119484086D01*
X130809733Y-119391188D01*
X130809727Y-119391186D01*
X130676006Y-119350622D01*
X130621129Y-119333975D01*
X130425000Y-119314659D01*
X130228870Y-119333975D01*
X130040266Y-119391188D01*
X129866467Y-119484086D01*
X129866461Y-119484090D01*
X129798164Y-119540140D01*
X129733854Y-119567452D01*
X129664987Y-119555661D01*
X129613427Y-119508508D01*
X129595500Y-119444286D01*
X129595500Y-115107833D01*
X129615185Y-115040794D01*
X129631819Y-115020152D01*
X130121493Y-114530478D01*
X130665460Y-113986511D01*
X130668761Y-113980794D01*
X130677030Y-113966472D01*
X130677033Y-113966464D01*
X130677042Y-113966450D01*
X130705021Y-113917989D01*
X130725500Y-113841562D01*
X130725500Y-113746328D01*
X130745185Y-113679289D01*
X130797989Y-113633534D01*
X130804131Y-113631212D01*
X130804103Y-113631144D01*
X130809723Y-113628815D01*
X130809727Y-113628814D01*
X130983538Y-113535910D01*
X131135883Y-113410883D01*
X131260910Y-113258538D01*
X131324310Y-113139925D01*
X131353812Y-113084731D01*
X131353812Y-113084730D01*
X131353814Y-113084727D01*
X131403401Y-112921259D01*
X131441698Y-112862823D01*
X131505510Y-112834367D01*
X131574577Y-112844927D01*
X131616750Y-112878806D01*
X131616793Y-112878764D01*
X131617183Y-112879154D01*
X131620433Y-112881765D01*
X131622539Y-112884509D01*
X131622540Y-112884511D01*
X131678489Y-112940460D01*
X131678491Y-112940461D01*
X131678495Y-112940464D01*
X131740121Y-112976043D01*
X131747011Y-112980021D01*
X131823438Y-113000500D01*
X131902562Y-113000500D01*
X131918672Y-113000500D01*
X131985711Y-113020185D01*
X132031466Y-113072989D01*
X132033787Y-113079131D01*
X132033856Y-113079103D01*
X132036185Y-113084726D01*
X132129086Y-113258532D01*
X132129090Y-113258539D01*
X132254116Y-113410883D01*
X132406460Y-113535909D01*
X132406467Y-113535913D01*
X132580266Y-113628811D01*
X132580269Y-113628811D01*
X132580273Y-113628814D01*
X132768868Y-113686024D01*
X132965000Y-113705341D01*
X133161132Y-113686024D01*
X133349727Y-113628814D01*
X133370934Y-113617479D01*
X133454161Y-113572993D01*
X133523538Y-113535910D01*
X133558554Y-113507173D01*
X133584835Y-113485605D01*
X133649145Y-113458292D01*
X133718012Y-113470083D01*
X133769573Y-113517235D01*
X133787500Y-113581458D01*
X133787500Y-119438541D01*
X133767815Y-119505580D01*
X133715011Y-119551335D01*
X133645853Y-119561279D01*
X133584836Y-119534395D01*
X133523538Y-119484090D01*
X133523532Y-119484086D01*
X133349733Y-119391188D01*
X133349727Y-119391186D01*
X133216006Y-119350622D01*
X133161129Y-119333975D01*
X132965000Y-119314659D01*
X132768870Y-119333975D01*
X132580266Y-119391188D01*
X132406467Y-119484086D01*
X132406460Y-119484090D01*
X132254116Y-119609116D01*
X132129090Y-119761460D01*
X132129086Y-119761467D01*
X132036188Y-119935266D01*
X131978975Y-120123870D01*
X131959659Y-120320000D01*
X131978975Y-120516129D01*
X132036188Y-120704733D01*
X132129086Y-120878532D01*
X132129090Y-120878539D01*
X132254116Y-121030883D01*
X132406460Y-121155909D01*
X132406467Y-121155913D01*
X132580266Y-121248811D01*
X132580269Y-121248811D01*
X132580273Y-121248814D01*
X132768868Y-121306024D01*
X132965000Y-121325341D01*
X133161132Y-121306024D01*
X133349727Y-121248814D01*
X133523538Y-121155910D01*
X133563170Y-121123385D01*
X133584835Y-121105605D01*
X133649145Y-121078292D01*
X133718012Y-121090083D01*
X133769573Y-121137235D01*
X133787500Y-121201458D01*
X133787500Y-127998166D01*
X133767815Y-128065205D01*
X133751181Y-128085847D01*
X126312215Y-135524812D01*
X126250892Y-135558297D01*
X126181200Y-135553313D01*
X126172130Y-135549513D01*
X126029336Y-135482927D01*
X126029322Y-135482922D01*
X125817977Y-135426293D01*
X125600002Y-135407223D01*
X125599998Y-135407223D01*
X125454682Y-135419936D01*
X125382023Y-135426293D01*
X125382020Y-135426293D01*
X125170677Y-135482922D01*
X125170668Y-135482926D01*
X124972361Y-135575398D01*
X124972357Y-135575400D01*
X124793121Y-135700902D01*
X124638402Y-135855621D01*
X124512900Y-136034857D01*
X124512898Y-136034861D01*
X124420426Y-136233168D01*
X124420422Y-136233177D01*
X124363793Y-136444520D01*
X124363793Y-136444524D01*
X124344723Y-136662497D01*
X124344723Y-136662502D01*
X124363793Y-136880475D01*
X124363793Y-136880479D01*
X124420422Y-137091822D01*
X124420424Y-137091826D01*
X124420425Y-137091830D01*
X124466661Y-137190984D01*
X124512897Y-137290138D01*
X124512898Y-137290139D01*
X124638402Y-137469377D01*
X124793123Y-137624098D01*
X124972361Y-137749602D01*
X125170670Y-137842075D01*
X125382023Y-137898707D01*
X125564926Y-137914708D01*
X125599998Y-137917777D01*
X125600000Y-137917777D01*
X125600002Y-137917777D01*
X125628254Y-137915305D01*
X125817977Y-137898707D01*
X126029330Y-137842075D01*
X126227639Y-137749602D01*
X126406877Y-137624098D01*
X126561598Y-137469377D01*
X126687102Y-137290139D01*
X126779575Y-137091830D01*
X126836207Y-136880477D01*
X126855277Y-136662500D01*
X126836207Y-136444523D01*
X126779575Y-136233170D01*
X126712666Y-136089685D01*
X126702175Y-136020610D01*
X126730695Y-135956826D01*
X126737355Y-135949614D01*
X134328460Y-128358511D01*
X134368022Y-128289988D01*
X134388500Y-128213562D01*
X134388500Y-128134438D01*
X134388500Y-120848627D01*
X134408185Y-120781588D01*
X134460989Y-120735833D01*
X134530147Y-120725889D01*
X134593703Y-120754914D01*
X134621858Y-120790174D01*
X134669086Y-120878532D01*
X134669090Y-120878539D01*
X134794116Y-121030883D01*
X134946460Y-121155909D01*
X134946467Y-121155913D01*
X135120273Y-121248814D01*
X135125897Y-121251144D01*
X135125020Y-121253260D01*
X135174917Y-121285945D01*
X135203387Y-121349751D01*
X135204500Y-121366328D01*
X135204500Y-133238562D01*
X135218152Y-133289513D01*
X135224979Y-133314990D01*
X135243465Y-133347007D01*
X135243466Y-133347010D01*
X135264537Y-133383507D01*
X135264541Y-133383512D01*
X136594604Y-134713575D01*
X136628089Y-134774898D01*
X136629661Y-134818902D01*
X136628353Y-134827999D01*
X136648834Y-134970456D01*
X136708622Y-135101371D01*
X136708623Y-135101373D01*
X136802872Y-135210143D01*
X136923947Y-135287953D01*
X136923950Y-135287954D01*
X136923949Y-135287954D01*
X137062036Y-135328499D01*
X137062038Y-135328500D01*
X137062039Y-135328500D01*
X137205962Y-135328500D01*
X137205962Y-135328499D01*
X137344053Y-135287953D01*
X137465128Y-135210143D01*
X137559377Y-135101373D01*
X137619165Y-134970457D01*
X137639647Y-134828000D01*
X137619165Y-134685543D01*
X137559377Y-134554627D01*
X137550703Y-134544617D01*
X137521679Y-134481062D01*
X137531623Y-134411903D01*
X137577378Y-134359099D01*
X137644417Y-134339415D01*
X137676510Y-134343640D01*
X137715794Y-134354166D01*
X137882023Y-134398707D01*
X138064926Y-134414708D01*
X138099998Y-134417777D01*
X138100000Y-134417777D01*
X138100002Y-134417777D01*
X138128254Y-134415305D01*
X138317977Y-134398707D01*
X138529330Y-134342075D01*
X138727639Y-134249602D01*
X138906877Y-134124098D01*
X139061598Y-133969377D01*
X139187102Y-133790139D01*
X139279575Y-133591830D01*
X139336207Y-133380477D01*
X139355277Y-133162500D01*
X139336207Y-132944523D01*
X139279575Y-132733170D01*
X139187102Y-132534862D01*
X139187100Y-132534859D01*
X139187099Y-132534857D01*
X139061599Y-132355624D01*
X138993515Y-132287540D01*
X138906877Y-132200902D01*
X138727639Y-132075398D01*
X138727640Y-132075398D01*
X138727638Y-132075397D01*
X138628484Y-132029161D01*
X138529330Y-131982925D01*
X138529326Y-131982924D01*
X138529324Y-131982923D01*
X138492406Y-131973031D01*
X138432746Y-131936666D01*
X138402217Y-131873819D01*
X138400500Y-131853256D01*
X138400500Y-126923033D01*
X138420185Y-126855994D01*
X138436819Y-126835352D01*
X143195819Y-122076352D01*
X143257142Y-122042867D01*
X143326834Y-122047851D01*
X143382767Y-122089723D01*
X143407184Y-122155187D01*
X143407500Y-122164033D01*
X143407500Y-130878166D01*
X143387815Y-130945205D01*
X143371181Y-130965847D01*
X138812215Y-135524812D01*
X138750892Y-135558297D01*
X138681200Y-135553313D01*
X138672130Y-135549513D01*
X138529336Y-135482927D01*
X138529322Y-135482922D01*
X138317977Y-135426293D01*
X138100002Y-135407223D01*
X138099998Y-135407223D01*
X137954682Y-135419936D01*
X137882023Y-135426293D01*
X137882020Y-135426293D01*
X137670677Y-135482922D01*
X137670668Y-135482926D01*
X137472361Y-135575398D01*
X137472357Y-135575400D01*
X137293121Y-135700902D01*
X137138402Y-135855621D01*
X137012900Y-136034857D01*
X137012898Y-136034861D01*
X136920426Y-136233168D01*
X136920422Y-136233177D01*
X136863793Y-136444520D01*
X136863793Y-136444524D01*
X136844723Y-136662497D01*
X136844723Y-136662502D01*
X136863793Y-136880475D01*
X136863793Y-136880479D01*
X136920422Y-137091822D01*
X136920424Y-137091826D01*
X136920425Y-137091830D01*
X136966661Y-137190984D01*
X137012897Y-137290138D01*
X137012898Y-137290139D01*
X137138402Y-137469377D01*
X137293123Y-137624098D01*
X137472361Y-137749602D01*
X137670670Y-137842075D01*
X137882023Y-137898707D01*
X138064926Y-137914708D01*
X138099998Y-137917777D01*
X138100000Y-137917777D01*
X138100002Y-137917777D01*
X138128254Y-137915305D01*
X138317977Y-137898707D01*
X138529330Y-137842075D01*
X138727639Y-137749602D01*
X138906877Y-137624098D01*
X139061598Y-137469377D01*
X139187102Y-137290139D01*
X139279575Y-137091830D01*
X139336207Y-136880477D01*
X139355277Y-136662500D01*
X139355277Y-136662497D01*
X149344723Y-136662497D01*
X149344723Y-136662502D01*
X149363793Y-136880475D01*
X149363793Y-136880479D01*
X149420422Y-137091822D01*
X149420424Y-137091826D01*
X149420425Y-137091830D01*
X149466661Y-137190984D01*
X149512897Y-137290138D01*
X149512898Y-137290139D01*
X149638402Y-137469377D01*
X149793123Y-137624098D01*
X149972361Y-137749602D01*
X150170670Y-137842075D01*
X150382023Y-137898707D01*
X150564926Y-137914708D01*
X150599998Y-137917777D01*
X150600000Y-137917777D01*
X150600002Y-137917777D01*
X150628254Y-137915305D01*
X150817977Y-137898707D01*
X151029330Y-137842075D01*
X151227639Y-137749602D01*
X151406877Y-137624098D01*
X151561598Y-137469377D01*
X151687102Y-137290139D01*
X151779575Y-137091830D01*
X151836207Y-136880477D01*
X151855277Y-136662500D01*
X151855277Y-136662497D01*
X161844723Y-136662497D01*
X161844723Y-136662502D01*
X161863793Y-136880475D01*
X161863793Y-136880479D01*
X161920422Y-137091822D01*
X161920424Y-137091826D01*
X161920425Y-137091830D01*
X161966661Y-137190984D01*
X162012897Y-137290138D01*
X162012898Y-137290139D01*
X162138402Y-137469377D01*
X162293123Y-137624098D01*
X162472361Y-137749602D01*
X162670670Y-137842075D01*
X162882023Y-137898707D01*
X163064926Y-137914708D01*
X163099998Y-137917777D01*
X163100000Y-137917777D01*
X163100002Y-137917777D01*
X163128254Y-137915305D01*
X163317977Y-137898707D01*
X163529330Y-137842075D01*
X163727639Y-137749602D01*
X163906877Y-137624098D01*
X164061598Y-137469377D01*
X164187102Y-137290139D01*
X164279575Y-137091830D01*
X164336207Y-136880477D01*
X164355277Y-136662500D01*
X164336207Y-136444523D01*
X164279575Y-136233170D01*
X164187102Y-136034862D01*
X164187100Y-136034859D01*
X164187099Y-136034857D01*
X164061599Y-135855624D01*
X164061596Y-135855621D01*
X163906877Y-135700902D01*
X163727639Y-135575398D01*
X163727640Y-135575398D01*
X163727638Y-135575397D01*
X163619157Y-135524812D01*
X163529330Y-135482925D01*
X163529326Y-135482924D01*
X163529322Y-135482922D01*
X163317977Y-135426293D01*
X163100002Y-135407223D01*
X163099998Y-135407223D01*
X162954682Y-135419936D01*
X162882023Y-135426293D01*
X162882020Y-135426293D01*
X162670677Y-135482922D01*
X162670668Y-135482926D01*
X162472361Y-135575398D01*
X162472357Y-135575400D01*
X162293121Y-135700902D01*
X162138402Y-135855621D01*
X162012900Y-136034857D01*
X162012898Y-136034861D01*
X161920426Y-136233168D01*
X161920422Y-136233177D01*
X161863793Y-136444520D01*
X161863793Y-136444524D01*
X161844723Y-136662497D01*
X151855277Y-136662497D01*
X151836207Y-136444523D01*
X151779575Y-136233170D01*
X151687102Y-136034862D01*
X151687100Y-136034859D01*
X151687099Y-136034857D01*
X151561599Y-135855624D01*
X151561596Y-135855621D01*
X151406877Y-135700902D01*
X151227639Y-135575398D01*
X151227640Y-135575398D01*
X151227638Y-135575397D01*
X151119157Y-135524812D01*
X151029330Y-135482925D01*
X151029326Y-135482924D01*
X151029322Y-135482922D01*
X150817977Y-135426293D01*
X150600002Y-135407223D01*
X150599998Y-135407223D01*
X150454682Y-135419936D01*
X150382023Y-135426293D01*
X150382020Y-135426293D01*
X150170677Y-135482922D01*
X150170668Y-135482926D01*
X149972361Y-135575398D01*
X149972357Y-135575400D01*
X149793121Y-135700902D01*
X149638402Y-135855621D01*
X149512900Y-136034857D01*
X149512898Y-136034861D01*
X149420426Y-136233168D01*
X149420422Y-136233177D01*
X149363793Y-136444520D01*
X149363793Y-136444524D01*
X149344723Y-136662497D01*
X139355277Y-136662497D01*
X139336207Y-136444523D01*
X139279575Y-136233170D01*
X139212666Y-136089685D01*
X139202175Y-136020610D01*
X139230695Y-135956826D01*
X139237355Y-135949614D01*
X142024473Y-133162497D01*
X149344723Y-133162497D01*
X149344723Y-133162502D01*
X149363793Y-133380475D01*
X149363793Y-133380479D01*
X149420422Y-133591822D01*
X149420424Y-133591826D01*
X149420425Y-133591830D01*
X149466661Y-133690984D01*
X149512897Y-133790138D01*
X149512898Y-133790139D01*
X149638402Y-133969377D01*
X149793123Y-134124098D01*
X149972361Y-134249602D01*
X150170670Y-134342075D01*
X150170676Y-134342076D01*
X150170677Y-134342077D01*
X150182172Y-134345157D01*
X150382023Y-134398707D01*
X150564926Y-134414708D01*
X150599998Y-134417777D01*
X150600000Y-134417777D01*
X150600002Y-134417777D01*
X150628254Y-134415305D01*
X150817977Y-134398707D01*
X151029330Y-134342075D01*
X151227639Y-134249602D01*
X151406877Y-134124098D01*
X151561598Y-133969377D01*
X151687102Y-133790139D01*
X151779575Y-133591830D01*
X151836207Y-133380477D01*
X151855277Y-133162500D01*
X151855277Y-133162497D01*
X161844723Y-133162497D01*
X161844723Y-133162502D01*
X161863793Y-133380475D01*
X161863793Y-133380479D01*
X161920422Y-133591822D01*
X161920424Y-133591826D01*
X161920425Y-133591830D01*
X161966661Y-133690984D01*
X162012897Y-133790138D01*
X162012898Y-133790139D01*
X162138402Y-133969377D01*
X162293123Y-134124098D01*
X162472361Y-134249602D01*
X162670670Y-134342075D01*
X162670676Y-134342076D01*
X162670677Y-134342077D01*
X162682172Y-134345157D01*
X162882023Y-134398707D01*
X163064926Y-134414708D01*
X163099998Y-134417777D01*
X163100000Y-134417777D01*
X163100002Y-134417777D01*
X163128254Y-134415305D01*
X163317977Y-134398707D01*
X163529330Y-134342075D01*
X163727639Y-134249602D01*
X163906877Y-134124098D01*
X164061598Y-133969377D01*
X164187102Y-133790139D01*
X164279575Y-133591830D01*
X164336207Y-133380477D01*
X164355277Y-133162500D01*
X164336207Y-132944523D01*
X164279575Y-132733170D01*
X164187102Y-132534862D01*
X164187100Y-132534859D01*
X164187099Y-132534857D01*
X164061599Y-132355624D01*
X163993515Y-132287540D01*
X163906877Y-132200902D01*
X163727639Y-132075398D01*
X163727640Y-132075398D01*
X163727638Y-132075397D01*
X163628484Y-132029161D01*
X163529330Y-131982925D01*
X163529326Y-131982924D01*
X163529322Y-131982922D01*
X163317977Y-131926293D01*
X163100002Y-131907223D01*
X163099998Y-131907223D01*
X162954682Y-131919936D01*
X162882023Y-131926293D01*
X162882020Y-131926293D01*
X162670677Y-131982922D01*
X162670668Y-131982926D01*
X162472361Y-132075398D01*
X162472357Y-132075400D01*
X162293121Y-132200902D01*
X162138402Y-132355621D01*
X162012900Y-132534857D01*
X162012898Y-132534861D01*
X161920426Y-132733168D01*
X161920422Y-132733177D01*
X161863793Y-132944520D01*
X161863793Y-132944524D01*
X161844723Y-133162497D01*
X151855277Y-133162497D01*
X151836207Y-132944523D01*
X151779575Y-132733170D01*
X151687102Y-132534862D01*
X151687100Y-132534859D01*
X151687099Y-132534857D01*
X151561599Y-132355624D01*
X151493515Y-132287540D01*
X151406877Y-132200902D01*
X151227639Y-132075398D01*
X151227640Y-132075398D01*
X151227638Y-132075397D01*
X151128484Y-132029161D01*
X151029330Y-131982925D01*
X151029326Y-131982924D01*
X151029322Y-131982922D01*
X150817977Y-131926293D01*
X150600002Y-131907223D01*
X150599998Y-131907223D01*
X150454682Y-131919936D01*
X150382023Y-131926293D01*
X150382020Y-131926293D01*
X150170677Y-131982922D01*
X150170668Y-131982926D01*
X149972361Y-132075398D01*
X149972357Y-132075400D01*
X149793121Y-132200902D01*
X149638402Y-132355621D01*
X149512900Y-132534857D01*
X149512898Y-132534861D01*
X149420426Y-132733168D01*
X149420422Y-132733177D01*
X149363793Y-132944520D01*
X149363793Y-132944524D01*
X149344723Y-133162497D01*
X142024473Y-133162497D01*
X143948460Y-131238511D01*
X143988022Y-131169988D01*
X144008500Y-131093562D01*
X144008500Y-131014438D01*
X144008500Y-126974500D01*
X144028185Y-126907461D01*
X144080989Y-126861706D01*
X144132500Y-126850500D01*
X145729750Y-126850500D01*
X145729751Y-126850499D01*
X145744568Y-126847552D01*
X145788229Y-126838868D01*
X145788229Y-126838867D01*
X145788231Y-126838867D01*
X145854552Y-126794552D01*
X145898867Y-126728231D01*
X145898867Y-126728229D01*
X145898868Y-126728229D01*
X145910499Y-126669752D01*
X145910500Y-126669750D01*
X145910500Y-125800000D01*
X146344417Y-125800000D01*
X146364699Y-126005932D01*
X146385157Y-126073373D01*
X146424768Y-126203954D01*
X146522315Y-126386450D01*
X146522317Y-126386452D01*
X146653589Y-126546410D01*
X146673433Y-126562695D01*
X146813550Y-126677685D01*
X146996046Y-126775232D01*
X147194066Y-126835300D01*
X147194065Y-126835300D01*
X147212529Y-126837118D01*
X147400000Y-126855583D01*
X147605934Y-126835300D01*
X147803954Y-126775232D01*
X147986450Y-126677685D01*
X148146410Y-126546410D01*
X148277685Y-126386450D01*
X148375232Y-126203954D01*
X148435300Y-126005934D01*
X148455583Y-125800000D01*
X148435300Y-125594066D01*
X148375232Y-125396046D01*
X148277685Y-125213550D01*
X148208581Y-125129346D01*
X148146410Y-125053589D01*
X148028677Y-124956969D01*
X147986450Y-124922315D01*
X147803954Y-124824768D01*
X147605934Y-124764700D01*
X147605932Y-124764699D01*
X147605934Y-124764699D01*
X147400000Y-124744417D01*
X147194067Y-124764699D01*
X146996043Y-124824769D01*
X146956028Y-124846158D01*
X146813550Y-124922315D01*
X146813548Y-124922316D01*
X146813547Y-124922317D01*
X146653589Y-125053589D01*
X146522317Y-125213547D01*
X146522315Y-125213550D01*
X146490426Y-125273209D01*
X146424769Y-125396043D01*
X146364699Y-125594067D01*
X146344417Y-125800000D01*
X145910500Y-125800000D01*
X145910500Y-124930249D01*
X145910499Y-124930247D01*
X145898868Y-124871770D01*
X145898867Y-124871769D01*
X145854552Y-124805447D01*
X145788230Y-124761132D01*
X145788229Y-124761131D01*
X145729752Y-124749500D01*
X145729748Y-124749500D01*
X144132500Y-124749500D01*
X144065461Y-124729815D01*
X144019706Y-124677011D01*
X144008500Y-124625500D01*
X144008500Y-123837500D01*
X158545207Y-123837500D01*
X158564348Y-124080719D01*
X158621303Y-124317957D01*
X158714668Y-124543361D01*
X158838504Y-124745442D01*
X159460690Y-124123256D01*
X159479668Y-124169074D01*
X159556274Y-124283724D01*
X159653776Y-124381226D01*
X159768426Y-124457832D01*
X159814242Y-124476809D01*
X159192056Y-125098994D01*
X159394138Y-125222831D01*
X159619542Y-125316196D01*
X159856780Y-125373151D01*
X159856779Y-125373151D01*
X160100000Y-125392292D01*
X160343219Y-125373151D01*
X160580457Y-125316196D01*
X160805861Y-125222831D01*
X161007942Y-125098994D01*
X160385757Y-124476809D01*
X160431574Y-124457832D01*
X160546224Y-124381226D01*
X160643726Y-124283724D01*
X160720332Y-124169074D01*
X160739309Y-124123257D01*
X161361494Y-124745442D01*
X161485331Y-124543361D01*
X161578696Y-124317957D01*
X161635651Y-124080719D01*
X161654792Y-123837500D01*
X161635651Y-123594280D01*
X161578696Y-123357042D01*
X161485331Y-123131638D01*
X161361494Y-122929556D01*
X160739309Y-123551741D01*
X160720332Y-123505926D01*
X160643726Y-123391276D01*
X160546224Y-123293774D01*
X160431574Y-123217168D01*
X160385755Y-123198189D01*
X161007942Y-122576004D01*
X160805861Y-122452168D01*
X160580457Y-122358803D01*
X160343219Y-122301848D01*
X160343220Y-122301848D01*
X160100000Y-122282707D01*
X159856780Y-122301848D01*
X159619542Y-122358803D01*
X159394146Y-122452165D01*
X159394141Y-122452168D01*
X159192056Y-122576004D01*
X159814242Y-123198190D01*
X159768426Y-123217168D01*
X159653776Y-123293774D01*
X159556274Y-123391276D01*
X159479668Y-123505926D01*
X159460690Y-123551742D01*
X158838504Y-122929556D01*
X158714668Y-123131641D01*
X158714665Y-123131646D01*
X158621303Y-123357042D01*
X158564348Y-123594280D01*
X158545207Y-123837500D01*
X144008500Y-123837500D01*
X144008500Y-121597833D01*
X144028185Y-121530794D01*
X144044819Y-121510152D01*
X144288238Y-121266733D01*
X144532460Y-121022511D01*
X144572022Y-120953988D01*
X144592500Y-120877562D01*
X144592500Y-120798438D01*
X144592500Y-120337497D01*
X158844723Y-120337497D01*
X158844723Y-120337502D01*
X158863793Y-120555475D01*
X158863793Y-120555479D01*
X158920422Y-120766822D01*
X158920424Y-120766826D01*
X158920425Y-120766830D01*
X158941992Y-120813081D01*
X159012897Y-120965138D01*
X159012898Y-120965139D01*
X159138402Y-121144377D01*
X159293123Y-121299098D01*
X159472361Y-121424602D01*
X159670670Y-121517075D01*
X159670676Y-121517076D01*
X159670677Y-121517077D01*
X159701364Y-121525299D01*
X159882023Y-121573707D01*
X160058108Y-121589112D01*
X160099998Y-121592777D01*
X160100000Y-121592777D01*
X160100002Y-121592777D01*
X160128254Y-121590305D01*
X160317977Y-121573707D01*
X160529330Y-121517075D01*
X160727639Y-121424602D01*
X160906877Y-121299098D01*
X161061598Y-121144377D01*
X161187102Y-120965139D01*
X161279575Y-120766830D01*
X161336207Y-120555477D01*
X161355277Y-120337500D01*
X161336207Y-120119523D01*
X161294722Y-119964699D01*
X161279577Y-119908177D01*
X161279576Y-119908176D01*
X161279575Y-119908170D01*
X161187102Y-119709862D01*
X161187100Y-119709859D01*
X161187099Y-119709857D01*
X161061599Y-119530624D01*
X161005626Y-119474651D01*
X160906877Y-119375902D01*
X160751051Y-119266791D01*
X160727638Y-119250397D01*
X160573320Y-119178438D01*
X160529330Y-119157925D01*
X160529326Y-119157924D01*
X160529322Y-119157922D01*
X160317977Y-119101293D01*
X160100002Y-119082223D01*
X160099998Y-119082223D01*
X159954682Y-119094936D01*
X159882023Y-119101293D01*
X159882020Y-119101293D01*
X159670677Y-119157922D01*
X159670668Y-119157926D01*
X159472361Y-119250398D01*
X159472357Y-119250400D01*
X159293121Y-119375902D01*
X159138402Y-119530621D01*
X159012900Y-119709857D01*
X159012898Y-119709861D01*
X158920426Y-119908168D01*
X158920422Y-119908177D01*
X158863793Y-120119520D01*
X158863793Y-120119524D01*
X158844723Y-120337497D01*
X144592500Y-120337497D01*
X144592500Y-117653000D01*
X155682353Y-117653000D01*
X155702834Y-117795456D01*
X155756998Y-117914056D01*
X155762623Y-117926373D01*
X155856872Y-118035143D01*
X155977947Y-118112953D01*
X155977950Y-118112954D01*
X155977949Y-118112954D01*
X156085107Y-118144417D01*
X156114312Y-118152993D01*
X156116036Y-118153499D01*
X156116038Y-118153500D01*
X156116039Y-118153500D01*
X156259962Y-118153500D01*
X156259962Y-118153499D01*
X156398053Y-118112953D01*
X156519128Y-118035143D01*
X156613377Y-117926373D01*
X156673165Y-117795457D01*
X156693647Y-117653000D01*
X156673165Y-117510543D01*
X156613377Y-117379627D01*
X156613375Y-117379625D01*
X156613374Y-117379622D01*
X156518787Y-117270462D01*
X156489762Y-117206906D01*
X156488500Y-117189260D01*
X156488500Y-115767747D01*
X158849500Y-115767747D01*
X158849500Y-117907252D01*
X158861131Y-117965729D01*
X158861132Y-117965730D01*
X158905447Y-118032052D01*
X158971769Y-118076367D01*
X158971770Y-118076368D01*
X159030247Y-118087999D01*
X159030250Y-118088000D01*
X159030252Y-118088000D01*
X161169750Y-118088000D01*
X161169751Y-118087999D01*
X161184568Y-118085052D01*
X161228229Y-118076368D01*
X161228229Y-118076367D01*
X161228231Y-118076367D01*
X161294552Y-118032052D01*
X161338867Y-117965731D01*
X161338867Y-117965729D01*
X161338868Y-117965729D01*
X161350499Y-117907252D01*
X161350500Y-117907250D01*
X161350500Y-115767749D01*
X161350499Y-115767747D01*
X161338868Y-115709270D01*
X161338867Y-115709269D01*
X161294552Y-115642947D01*
X161228230Y-115598632D01*
X161228229Y-115598631D01*
X161169752Y-115587000D01*
X161169748Y-115587000D01*
X159030252Y-115587000D01*
X159030247Y-115587000D01*
X158971770Y-115598631D01*
X158971769Y-115598632D01*
X158905447Y-115642947D01*
X158861132Y-115709269D01*
X158861131Y-115709270D01*
X158849500Y-115767747D01*
X156488500Y-115767747D01*
X156488500Y-111146787D01*
X156508185Y-111079748D01*
X156524802Y-111059122D01*
X157025437Y-110558300D01*
X158545207Y-110558300D01*
X158564348Y-110801519D01*
X158621303Y-111038757D01*
X158714668Y-111264161D01*
X158838504Y-111466242D01*
X159460690Y-110844056D01*
X159479668Y-110889874D01*
X159556274Y-111004524D01*
X159653776Y-111102026D01*
X159768426Y-111178632D01*
X159814242Y-111197609D01*
X159192056Y-111819794D01*
X159394138Y-111943631D01*
X159619542Y-112036996D01*
X159856780Y-112093951D01*
X159856779Y-112093951D01*
X160100000Y-112113092D01*
X160343219Y-112093951D01*
X160580457Y-112036996D01*
X160805861Y-111943631D01*
X161007942Y-111819794D01*
X160385757Y-111197609D01*
X160431574Y-111178632D01*
X160546224Y-111102026D01*
X160643726Y-111004524D01*
X160720332Y-110889874D01*
X160739309Y-110844057D01*
X161361494Y-111466242D01*
X161485331Y-111264161D01*
X161578696Y-111038757D01*
X161635651Y-110801519D01*
X161654792Y-110558300D01*
X161635651Y-110315080D01*
X161578696Y-110077842D01*
X161485331Y-109852438D01*
X161361494Y-109650356D01*
X160739309Y-110272541D01*
X160720332Y-110226726D01*
X160643726Y-110112076D01*
X160546224Y-110014574D01*
X160431574Y-109937968D01*
X160385755Y-109918989D01*
X161007942Y-109296804D01*
X160805861Y-109172968D01*
X160580457Y-109079603D01*
X160343219Y-109022648D01*
X160343220Y-109022648D01*
X160100000Y-109003507D01*
X159856780Y-109022648D01*
X159619542Y-109079603D01*
X159394146Y-109172965D01*
X159394141Y-109172968D01*
X159192056Y-109296804D01*
X159814242Y-109918990D01*
X159768426Y-109937968D01*
X159653776Y-110014574D01*
X159556274Y-110112076D01*
X159479668Y-110226726D01*
X159460690Y-110272542D01*
X158838504Y-109650356D01*
X158714668Y-109852441D01*
X158714665Y-109852446D01*
X158621303Y-110077842D01*
X158564348Y-110315080D01*
X158545207Y-110558300D01*
X157025437Y-110558300D01*
X158516518Y-109066664D01*
X158517215Y-109066055D01*
X158522708Y-109060561D01*
X158522711Y-109060560D01*
X158578660Y-109004611D01*
X159387444Y-108195825D01*
X159448765Y-108162342D01*
X159518456Y-108167326D01*
X159527511Y-108171118D01*
X159670670Y-108237875D01*
X159882023Y-108294507D01*
X160064926Y-108310508D01*
X160099998Y-108313577D01*
X160100000Y-108313577D01*
X160100002Y-108313577D01*
X160128254Y-108311105D01*
X160317977Y-108294507D01*
X160529330Y-108237875D01*
X160727639Y-108145402D01*
X160906877Y-108019898D01*
X161061598Y-107865177D01*
X161187102Y-107685939D01*
X161279575Y-107487630D01*
X161336207Y-107276277D01*
X161355277Y-107058300D01*
X161353101Y-107033433D01*
X161351569Y-107015918D01*
X161336207Y-106840323D01*
X161279575Y-106628970D01*
X161187102Y-106430662D01*
X161187100Y-106430659D01*
X161187099Y-106430657D01*
X161061599Y-106251424D01*
X161033658Y-106223483D01*
X160906877Y-106096702D01*
X160727639Y-105971198D01*
X160727640Y-105971198D01*
X160727638Y-105971197D01*
X160628484Y-105924961D01*
X160529330Y-105878725D01*
X160529326Y-105878724D01*
X160529322Y-105878722D01*
X160317977Y-105822093D01*
X160100002Y-105803023D01*
X160099998Y-105803023D01*
X159954682Y-105815736D01*
X159882023Y-105822093D01*
X159882020Y-105822093D01*
X159670677Y-105878722D01*
X159670670Y-105878724D01*
X159670670Y-105878725D01*
X159645631Y-105890400D01*
X159472361Y-105971198D01*
X159472357Y-105971200D01*
X159293121Y-106096702D01*
X159138402Y-106251421D01*
X159012900Y-106430657D01*
X159012898Y-106430661D01*
X158920426Y-106628968D01*
X158920422Y-106628977D01*
X158863793Y-106840320D01*
X158863793Y-106840324D01*
X158844723Y-107058297D01*
X158844723Y-107058302D01*
X158863793Y-107276275D01*
X158863793Y-107276279D01*
X158920422Y-107487622D01*
X158920427Y-107487636D01*
X158987172Y-107630771D01*
X158997664Y-107699848D01*
X158969144Y-107763632D01*
X158962471Y-107770856D01*
X158159198Y-108574129D01*
X158158177Y-108575037D01*
X158124035Y-108609192D01*
X158124023Y-108609204D01*
X158092469Y-108640759D01*
X158092382Y-108640857D01*
X155977042Y-110756986D01*
X155947519Y-110786509D01*
X155928420Y-110819604D01*
X155928411Y-110819619D01*
X155907965Y-110855033D01*
X155897865Y-110892756D01*
X155897859Y-110892776D01*
X155887497Y-110931446D01*
X155887493Y-110931480D01*
X155887500Y-110971057D01*
X155887500Y-117189260D01*
X155867815Y-117256299D01*
X155857213Y-117270462D01*
X155762625Y-117379622D01*
X155762622Y-117379628D01*
X155702834Y-117510543D01*
X155682353Y-117653000D01*
X144592500Y-117653000D01*
X144592500Y-115015733D01*
X144592520Y-115015417D01*
X144592500Y-114967873D01*
X144592500Y-114928445D01*
X144592500Y-114928438D01*
X144592498Y-114928431D01*
X144592483Y-114928314D01*
X144592483Y-114928309D01*
X144582855Y-114892439D01*
X144582384Y-114890684D01*
X144582370Y-114890633D01*
X144575619Y-114865438D01*
X144572021Y-114852011D01*
X144572020Y-114852009D01*
X144571974Y-114851897D01*
X144552605Y-114818380D01*
X144552580Y-114818338D01*
X144532460Y-114783489D01*
X144532458Y-114783487D01*
X144532403Y-114783415D01*
X144532380Y-114783385D01*
X144504373Y-114755402D01*
X144504376Y-114755398D01*
X144504338Y-114755367D01*
X144476511Y-114727540D01*
X144476510Y-114727539D01*
X144470938Y-114721967D01*
X144470703Y-114721761D01*
X144435069Y-114686158D01*
X144300438Y-114551642D01*
X143660467Y-113912219D01*
X143658708Y-113909000D01*
X152772353Y-113909000D01*
X152792834Y-114051456D01*
X152846809Y-114169643D01*
X152852623Y-114182373D01*
X152946872Y-114291143D01*
X153067947Y-114368953D01*
X153067950Y-114368954D01*
X153067949Y-114368954D01*
X153206036Y-114409499D01*
X153206038Y-114409500D01*
X153206039Y-114409500D01*
X153349962Y-114409500D01*
X153349962Y-114409499D01*
X153488053Y-114368953D01*
X153609128Y-114291143D01*
X153703377Y-114182373D01*
X153763165Y-114051457D01*
X153783647Y-113909000D01*
X153763165Y-113766543D01*
X153703377Y-113635627D01*
X153703375Y-113635625D01*
X153703374Y-113635622D01*
X153608787Y-113526462D01*
X153579762Y-113462906D01*
X153578500Y-113445260D01*
X153578500Y-102488547D01*
X158849500Y-102488547D01*
X158849500Y-104628052D01*
X158861131Y-104686529D01*
X158861132Y-104686530D01*
X158905447Y-104752852D01*
X158971769Y-104797167D01*
X158971770Y-104797168D01*
X159030247Y-104808799D01*
X159030250Y-104808800D01*
X159030252Y-104808800D01*
X161169750Y-104808800D01*
X161169751Y-104808799D01*
X161184568Y-104805852D01*
X161228229Y-104797168D01*
X161228229Y-104797167D01*
X161228231Y-104797167D01*
X161294552Y-104752852D01*
X161338867Y-104686531D01*
X161338867Y-104686529D01*
X161338868Y-104686529D01*
X161350499Y-104628052D01*
X161350500Y-104628050D01*
X161350500Y-102488549D01*
X161350499Y-102488547D01*
X161338868Y-102430070D01*
X161338867Y-102430069D01*
X161294552Y-102363747D01*
X161228230Y-102319432D01*
X161228229Y-102319431D01*
X161169752Y-102307800D01*
X161169748Y-102307800D01*
X159030252Y-102307800D01*
X159030247Y-102307800D01*
X158971770Y-102319431D01*
X158971769Y-102319432D01*
X158905447Y-102363747D01*
X158861132Y-102430069D01*
X158861131Y-102430070D01*
X158849500Y-102488547D01*
X153578500Y-102488547D01*
X153578500Y-97279200D01*
X158545207Y-97279200D01*
X158564348Y-97522419D01*
X158621303Y-97759657D01*
X158714668Y-97985061D01*
X158838504Y-98187142D01*
X159460690Y-97564956D01*
X159479668Y-97610774D01*
X159556274Y-97725424D01*
X159653776Y-97822926D01*
X159768426Y-97899532D01*
X159814242Y-97918509D01*
X159192056Y-98540694D01*
X159394138Y-98664531D01*
X159619542Y-98757896D01*
X159856780Y-98814851D01*
X159856779Y-98814851D01*
X160100000Y-98833992D01*
X160343219Y-98814851D01*
X160580457Y-98757896D01*
X160805861Y-98664531D01*
X161007942Y-98540694D01*
X160385757Y-97918509D01*
X160431574Y-97899532D01*
X160546224Y-97822926D01*
X160643726Y-97725424D01*
X160720332Y-97610774D01*
X160739309Y-97564957D01*
X161361494Y-98187142D01*
X161485331Y-97985061D01*
X161578696Y-97759657D01*
X161635651Y-97522419D01*
X161654792Y-97279200D01*
X161635651Y-97035980D01*
X161578696Y-96798742D01*
X161485331Y-96573338D01*
X161361494Y-96371256D01*
X160739309Y-96993441D01*
X160720332Y-96947626D01*
X160643726Y-96832976D01*
X160546224Y-96735474D01*
X160431574Y-96658868D01*
X160385755Y-96639889D01*
X161007942Y-96017704D01*
X160805861Y-95893868D01*
X160580457Y-95800503D01*
X160343219Y-95743548D01*
X160343220Y-95743548D01*
X160100000Y-95724407D01*
X159856780Y-95743548D01*
X159619542Y-95800503D01*
X159394146Y-95893865D01*
X159394141Y-95893868D01*
X159192056Y-96017704D01*
X159814242Y-96639890D01*
X159768426Y-96658868D01*
X159653776Y-96735474D01*
X159556274Y-96832976D01*
X159479668Y-96947626D01*
X159460690Y-96993442D01*
X158838504Y-96371256D01*
X158714668Y-96573341D01*
X158714665Y-96573346D01*
X158621303Y-96798742D01*
X158564348Y-97035980D01*
X158545207Y-97279200D01*
X153578500Y-97279200D01*
X153578500Y-93779197D01*
X158844723Y-93779197D01*
X158844723Y-93779202D01*
X158847183Y-93807315D01*
X158858667Y-93938590D01*
X158863793Y-93997175D01*
X158863793Y-93997179D01*
X158920422Y-94208522D01*
X158920424Y-94208526D01*
X158920425Y-94208530D01*
X158954240Y-94281046D01*
X159012897Y-94406838D01*
X159012898Y-94406839D01*
X159138402Y-94586077D01*
X159293123Y-94740798D01*
X159472361Y-94866302D01*
X159670670Y-94958775D01*
X159882023Y-95015407D01*
X160064926Y-95031408D01*
X160099998Y-95034477D01*
X160100000Y-95034477D01*
X160100002Y-95034477D01*
X160128254Y-95032005D01*
X160317977Y-95015407D01*
X160529330Y-94958775D01*
X160727639Y-94866302D01*
X160906877Y-94740798D01*
X161061598Y-94586077D01*
X161187102Y-94406839D01*
X161279575Y-94208530D01*
X161336207Y-93997177D01*
X161352817Y-93807315D01*
X161355277Y-93779202D01*
X161355277Y-93779197D01*
X161349203Y-93709769D01*
X161336207Y-93561223D01*
X161279575Y-93349870D01*
X161187102Y-93151562D01*
X161187100Y-93151559D01*
X161187099Y-93151557D01*
X161061599Y-92972324D01*
X161023275Y-92934000D01*
X160906877Y-92817602D01*
X160768978Y-92721044D01*
X160727638Y-92692097D01*
X160611514Y-92637948D01*
X160529330Y-92599625D01*
X160529326Y-92599624D01*
X160529322Y-92599622D01*
X160317977Y-92542993D01*
X160100002Y-92523923D01*
X160099998Y-92523923D01*
X159954682Y-92536636D01*
X159882023Y-92542993D01*
X159882020Y-92542993D01*
X159670677Y-92599622D01*
X159670668Y-92599626D01*
X159472361Y-92692098D01*
X159472357Y-92692100D01*
X159293121Y-92817602D01*
X159138402Y-92972321D01*
X159012900Y-93151557D01*
X159012898Y-93151561D01*
X158920426Y-93349868D01*
X158920422Y-93349877D01*
X158863793Y-93561220D01*
X158863793Y-93561224D01*
X158844723Y-93779197D01*
X153578500Y-93779197D01*
X153578500Y-89209447D01*
X158849500Y-89209447D01*
X158849500Y-91348952D01*
X158861131Y-91407429D01*
X158861132Y-91407430D01*
X158905447Y-91473752D01*
X158971769Y-91518067D01*
X158971770Y-91518068D01*
X159030247Y-91529699D01*
X159030250Y-91529700D01*
X159030252Y-91529700D01*
X161169750Y-91529700D01*
X161169751Y-91529699D01*
X161184568Y-91526752D01*
X161228229Y-91518068D01*
X161228229Y-91518067D01*
X161228231Y-91518067D01*
X161294552Y-91473752D01*
X161338867Y-91407431D01*
X161338867Y-91407429D01*
X161338868Y-91407429D01*
X161350499Y-91348952D01*
X161350500Y-91348950D01*
X161350500Y-89209449D01*
X161350499Y-89209447D01*
X161338868Y-89150970D01*
X161338867Y-89150969D01*
X161294552Y-89084647D01*
X161228230Y-89040332D01*
X161228229Y-89040331D01*
X161169752Y-89028700D01*
X161169748Y-89028700D01*
X159030252Y-89028700D01*
X159030247Y-89028700D01*
X158971770Y-89040331D01*
X158971769Y-89040332D01*
X158905447Y-89084647D01*
X158861132Y-89150969D01*
X158861131Y-89150970D01*
X158849500Y-89209447D01*
X153578500Y-89209447D01*
X153578500Y-87497832D01*
X153598185Y-87430793D01*
X153614814Y-87410156D01*
X157024969Y-84000000D01*
X158545207Y-84000000D01*
X158564348Y-84243219D01*
X158621303Y-84480457D01*
X158714668Y-84705861D01*
X158838504Y-84907942D01*
X159460690Y-84285756D01*
X159479668Y-84331574D01*
X159556274Y-84446224D01*
X159653776Y-84543726D01*
X159768426Y-84620332D01*
X159814242Y-84639309D01*
X159192056Y-85261494D01*
X159394138Y-85385331D01*
X159619542Y-85478696D01*
X159856780Y-85535651D01*
X159856779Y-85535651D01*
X160100000Y-85554792D01*
X160343219Y-85535651D01*
X160580457Y-85478696D01*
X160805861Y-85385331D01*
X161007942Y-85261494D01*
X160385757Y-84639309D01*
X160431574Y-84620332D01*
X160546224Y-84543726D01*
X160643726Y-84446224D01*
X160720332Y-84331574D01*
X160739309Y-84285757D01*
X161361494Y-84907942D01*
X161485331Y-84705861D01*
X161578696Y-84480457D01*
X161635651Y-84243219D01*
X161654792Y-84000000D01*
X161635651Y-83756780D01*
X161578696Y-83519542D01*
X161485331Y-83294138D01*
X161361494Y-83092056D01*
X160739309Y-83714241D01*
X160720332Y-83668426D01*
X160643726Y-83553776D01*
X160546224Y-83456274D01*
X160431574Y-83379668D01*
X160385755Y-83360689D01*
X161007942Y-82738504D01*
X160805861Y-82614668D01*
X160580457Y-82521303D01*
X160343219Y-82464348D01*
X160343220Y-82464348D01*
X160100000Y-82445207D01*
X159856780Y-82464348D01*
X159619542Y-82521303D01*
X159394146Y-82614665D01*
X159394141Y-82614668D01*
X159192056Y-82738504D01*
X159814242Y-83360690D01*
X159768426Y-83379668D01*
X159653776Y-83456274D01*
X159556274Y-83553776D01*
X159479668Y-83668426D01*
X159460690Y-83714242D01*
X158838504Y-83092056D01*
X158714668Y-83294141D01*
X158714665Y-83294146D01*
X158621303Y-83519542D01*
X158564348Y-83756780D01*
X158545207Y-84000000D01*
X157024969Y-84000000D01*
X159387444Y-81637525D01*
X159448765Y-81604042D01*
X159518457Y-81609026D01*
X159527511Y-81612818D01*
X159670670Y-81679575D01*
X159882023Y-81736207D01*
X160064926Y-81752208D01*
X160099998Y-81755277D01*
X160100000Y-81755277D01*
X160100002Y-81755277D01*
X160128254Y-81752805D01*
X160317977Y-81736207D01*
X160529330Y-81679575D01*
X160727639Y-81587102D01*
X160906877Y-81461598D01*
X161061598Y-81306877D01*
X161187102Y-81127639D01*
X161279575Y-80929330D01*
X161336207Y-80717977D01*
X161355277Y-80500000D01*
X161336207Y-80282023D01*
X161301548Y-80152675D01*
X161279577Y-80070677D01*
X161279576Y-80070676D01*
X161279575Y-80070670D01*
X161187102Y-79872362D01*
X161187100Y-79872359D01*
X161187099Y-79872357D01*
X161061599Y-79693124D01*
X160994781Y-79626306D01*
X160906877Y-79538402D01*
X160766216Y-79439910D01*
X160727638Y-79412897D01*
X160628484Y-79366661D01*
X160529330Y-79320425D01*
X160529326Y-79320424D01*
X160529322Y-79320422D01*
X160317977Y-79263793D01*
X160100002Y-79244723D01*
X160099998Y-79244723D01*
X159954682Y-79257436D01*
X159882023Y-79263793D01*
X159882020Y-79263793D01*
X159670677Y-79320422D01*
X159670670Y-79320424D01*
X159670670Y-79320425D01*
X159661502Y-79324700D01*
X159472361Y-79412898D01*
X159472357Y-79412900D01*
X159293121Y-79538402D01*
X159138402Y-79693121D01*
X159012900Y-79872357D01*
X159012898Y-79872361D01*
X158920426Y-80070668D01*
X158920422Y-80070677D01*
X158863793Y-80282020D01*
X158863793Y-80282023D01*
X158844723Y-80500000D01*
X158862631Y-80704700D01*
X158863793Y-80717975D01*
X158863793Y-80717979D01*
X158920422Y-80929322D01*
X158920427Y-80929336D01*
X158987172Y-81072471D01*
X158997664Y-81141548D01*
X158969144Y-81205332D01*
X158962471Y-81212556D01*
X153093489Y-87081540D01*
X153037541Y-87137487D01*
X153037535Y-87137495D01*
X152997982Y-87206004D01*
X152997979Y-87206009D01*
X152977500Y-87282439D01*
X152977500Y-113445260D01*
X152957815Y-113512299D01*
X152947213Y-113526462D01*
X152852625Y-113635622D01*
X152852622Y-113635628D01*
X152792834Y-113766543D01*
X152772353Y-113909000D01*
X143658708Y-113909000D01*
X143626956Y-113850910D01*
X143631911Y-113781216D01*
X143673758Y-113725265D01*
X143739212Y-113700820D01*
X143748111Y-113700500D01*
X143944750Y-113700500D01*
X143944751Y-113700499D01*
X143959568Y-113697552D01*
X144003229Y-113688868D01*
X144003229Y-113688867D01*
X144003231Y-113688867D01*
X144069552Y-113644552D01*
X144113867Y-113578231D01*
X144113867Y-113578229D01*
X144113868Y-113578229D01*
X144124132Y-113526626D01*
X144125500Y-113519748D01*
X144125500Y-111880252D01*
X144125500Y-111880249D01*
X144125499Y-111880247D01*
X144113868Y-111821770D01*
X144113867Y-111821769D01*
X144069552Y-111755447D01*
X144003230Y-111711132D01*
X144003229Y-111711131D01*
X143944752Y-111699500D01*
X143944748Y-111699500D01*
X142420500Y-111699500D01*
X142353461Y-111679815D01*
X142307706Y-111627011D01*
X142296500Y-111575500D01*
X142296500Y-105307439D01*
X142292919Y-105294075D01*
X142276021Y-105231011D01*
X142242846Y-105173550D01*
X142236464Y-105162495D01*
X142236458Y-105162487D01*
X142178395Y-105104424D01*
X142144910Y-105043101D01*
X142143339Y-104999094D01*
X142144647Y-104990000D01*
X142124165Y-104847543D01*
X142064377Y-104716627D01*
X142064375Y-104716625D01*
X142064374Y-104716622D01*
X141969787Y-104607462D01*
X141940762Y-104543906D01*
X141939500Y-104526260D01*
X141939500Y-97086600D01*
X144359353Y-97086600D01*
X144379834Y-97229056D01*
X144432063Y-97343419D01*
X144439623Y-97359973D01*
X144533872Y-97468743D01*
X144654947Y-97546553D01*
X144654950Y-97546554D01*
X144654949Y-97546554D01*
X144793036Y-97587099D01*
X144793038Y-97587100D01*
X144793039Y-97587100D01*
X144936962Y-97587100D01*
X144936962Y-97587099D01*
X145075053Y-97546553D01*
X145196128Y-97468743D01*
X145290377Y-97359973D01*
X145350165Y-97229057D01*
X145370647Y-97086600D01*
X145350165Y-96944143D01*
X145290377Y-96813227D01*
X145290375Y-96813225D01*
X145290374Y-96813222D01*
X145195787Y-96704062D01*
X145166762Y-96640506D01*
X145165500Y-96622860D01*
X145165500Y-82310930D01*
X145185185Y-82243891D01*
X145201818Y-82223250D01*
X145467433Y-81957629D01*
X149240463Y-78184508D01*
X149261504Y-78148061D01*
X149312070Y-78099845D01*
X149348486Y-78087750D01*
X149363456Y-78085252D01*
X149472710Y-78047745D01*
X149594733Y-78005855D01*
X149809788Y-77889473D01*
X150002754Y-77739281D01*
X150168368Y-77559377D01*
X150302111Y-77354667D01*
X150400336Y-77130736D01*
X150460364Y-76893692D01*
X150460990Y-76886139D01*
X150480557Y-76650005D01*
X150480557Y-76649994D01*
X150460365Y-76406316D01*
X150460363Y-76406304D01*
X150436416Y-76311740D01*
X150400336Y-76169264D01*
X150302111Y-75945333D01*
X150292255Y-75930247D01*
X158849500Y-75930247D01*
X158849500Y-78069752D01*
X158861131Y-78128229D01*
X158861132Y-78128230D01*
X158905447Y-78194552D01*
X158971769Y-78238867D01*
X158971770Y-78238868D01*
X159030247Y-78250499D01*
X159030250Y-78250500D01*
X159030252Y-78250500D01*
X161169750Y-78250500D01*
X161169751Y-78250499D01*
X161184568Y-78247552D01*
X161228229Y-78238868D01*
X161228229Y-78238867D01*
X161228231Y-78238867D01*
X161294552Y-78194552D01*
X161338867Y-78128231D01*
X161338867Y-78128229D01*
X161338868Y-78128229D01*
X161350499Y-78069752D01*
X161350500Y-78069750D01*
X161350500Y-75930249D01*
X161350499Y-75930247D01*
X161338868Y-75871770D01*
X161338867Y-75871769D01*
X161294552Y-75805447D01*
X161228230Y-75761132D01*
X161228229Y-75761131D01*
X161169752Y-75749500D01*
X161169748Y-75749500D01*
X159030252Y-75749500D01*
X159030247Y-75749500D01*
X158971770Y-75761131D01*
X158971769Y-75761132D01*
X158905447Y-75805447D01*
X158861132Y-75871769D01*
X158861131Y-75871770D01*
X158849500Y-75930247D01*
X150292255Y-75930247D01*
X150254050Y-75871770D01*
X150168367Y-75740621D01*
X150002757Y-75560722D01*
X150002747Y-75560713D01*
X149809791Y-75410529D01*
X149809787Y-75410526D01*
X149594734Y-75294145D01*
X149594729Y-75294143D01*
X149363458Y-75214748D01*
X149182561Y-75184562D01*
X149122263Y-75174500D01*
X148877737Y-75174500D01*
X148829498Y-75182549D01*
X148636541Y-75214748D01*
X148405270Y-75294143D01*
X148405265Y-75294145D01*
X148190212Y-75410526D01*
X148190208Y-75410529D01*
X147997252Y-75560713D01*
X147997242Y-75560722D01*
X147831632Y-75740621D01*
X147697888Y-75945333D01*
X147599663Y-76169265D01*
X147539636Y-76406304D01*
X147539634Y-76406316D01*
X147519443Y-76649994D01*
X147519443Y-76650005D01*
X147539634Y-76893683D01*
X147539636Y-76893695D01*
X147599663Y-77130734D01*
X147697888Y-77354666D01*
X147831632Y-77559378D01*
X147929156Y-77665316D01*
X147997246Y-77739281D01*
X148190212Y-77889473D01*
X148190214Y-77889474D01*
X148190217Y-77889476D01*
X148365372Y-77984265D01*
X148414963Y-78033485D01*
X148430071Y-78101701D01*
X148405901Y-78167257D01*
X148394037Y-78181000D01*
X144680490Y-81894639D01*
X144680489Y-81894640D01*
X144623369Y-81951759D01*
X144620475Y-81957629D01*
X144584976Y-82019117D01*
X144584123Y-82022304D01*
X144584120Y-82022315D01*
X144564500Y-82095538D01*
X144564500Y-96622860D01*
X144544815Y-96689899D01*
X144534213Y-96704062D01*
X144439625Y-96813222D01*
X144439622Y-96813228D01*
X144379834Y-96944143D01*
X144359353Y-97086600D01*
X141939500Y-97086600D01*
X141939500Y-90671808D01*
X141939501Y-90632247D01*
X141939500Y-90632243D01*
X141939500Y-90632238D01*
X141929866Y-90596285D01*
X141919025Y-90555820D01*
X141919024Y-90555815D01*
X141891694Y-90508479D01*
X141881303Y-90490480D01*
X141879826Y-90487735D01*
X141879594Y-90487423D01*
X141843180Y-90451009D01*
X141843178Y-90451006D01*
X141843178Y-90451007D01*
X132604376Y-81211677D01*
X132570894Y-81150354D01*
X132575880Y-81080662D01*
X132617753Y-81024730D01*
X132683218Y-81000315D01*
X132692061Y-80999999D01*
X132999972Y-80999999D01*
X132999986Y-80999998D01*
X133102697Y-80989505D01*
X133269119Y-80934358D01*
X133269124Y-80934356D01*
X133418345Y-80842315D01*
X133542315Y-80718345D01*
X133634356Y-80569124D01*
X133634358Y-80569119D01*
X133689505Y-80402697D01*
X133689506Y-80402690D01*
X133699999Y-80299986D01*
X133700000Y-80299973D01*
X133700000Y-80050000D01*
X132875278Y-80050000D01*
X132919333Y-79973694D01*
X132950000Y-79859244D01*
X132950000Y-79740756D01*
X132919333Y-79626306D01*
X132875278Y-79550000D01*
X133699999Y-79550000D01*
X133699999Y-79300028D01*
X133699998Y-79300013D01*
X133689505Y-79197302D01*
X133634358Y-79030880D01*
X133634356Y-79030875D01*
X133542315Y-78881654D01*
X133418345Y-78757684D01*
X133269124Y-78665643D01*
X133269119Y-78665641D01*
X133102697Y-78610494D01*
X133102690Y-78610493D01*
X132999986Y-78600000D01*
X132750000Y-78600000D01*
X132750000Y-79424722D01*
X132673694Y-79380667D01*
X132559244Y-79350000D01*
X132440756Y-79350000D01*
X132326306Y-79380667D01*
X132250000Y-79424722D01*
X132250000Y-78600000D01*
X132000029Y-78600000D01*
X132000012Y-78600001D01*
X131897302Y-78610494D01*
X131730880Y-78665641D01*
X131730871Y-78665645D01*
X131607596Y-78741682D01*
X131540204Y-78760122D01*
X131473540Y-78739199D01*
X131428771Y-78685557D01*
X131418500Y-78636143D01*
X131418500Y-77665316D01*
X131418507Y-77665195D01*
X131418505Y-77657112D01*
X131418507Y-77657108D01*
X131418500Y-77617546D01*
X131418500Y-77578038D01*
X131418499Y-77578035D01*
X131418493Y-77577988D01*
X131418493Y-77577984D01*
X131413504Y-77559378D01*
X131407818Y-77538173D01*
X131407812Y-77538153D01*
X131398021Y-77501611D01*
X131398019Y-77501609D01*
X131398018Y-77501602D01*
X131397999Y-77501556D01*
X131377449Y-77465977D01*
X131377439Y-77465961D01*
X131372579Y-77457543D01*
X131358460Y-77433089D01*
X131358458Y-77433087D01*
X131358457Y-77433085D01*
X131358428Y-77433047D01*
X131330475Y-77405104D01*
X131330476Y-77405102D01*
X131330461Y-77405090D01*
X131302511Y-77377140D01*
X131302510Y-77377139D01*
X131296925Y-77371554D01*
X131296825Y-77371466D01*
X130872663Y-76947456D01*
X130839168Y-76886139D01*
X130842397Y-76821445D01*
X130885674Y-76688256D01*
X130905460Y-76500000D01*
X130905460Y-76499999D01*
X131294859Y-76499999D01*
X131294859Y-76500000D01*
X131315378Y-76721439D01*
X131376240Y-76935350D01*
X131475364Y-77134419D01*
X131475366Y-77134421D01*
X131491138Y-77155306D01*
X132057861Y-76588584D01*
X132080667Y-76673694D01*
X132139910Y-76776306D01*
X132223694Y-76860090D01*
X132326306Y-76919333D01*
X132411415Y-76942138D01*
X131846671Y-77506880D01*
X131962823Y-77578798D01*
X131962824Y-77578799D01*
X132170195Y-77659134D01*
X132388807Y-77700000D01*
X132611193Y-77700000D01*
X132829804Y-77659134D01*
X133037177Y-77578798D01*
X133037178Y-77578797D01*
X133153327Y-77506880D01*
X132588585Y-76942138D01*
X132673694Y-76919333D01*
X132776306Y-76860090D01*
X132860090Y-76776306D01*
X132919333Y-76673694D01*
X132942138Y-76588584D01*
X133508860Y-77155306D01*
X133508861Y-77155306D01*
X133524631Y-77134425D01*
X133524632Y-77134422D01*
X133623759Y-76935350D01*
X133684621Y-76721439D01*
X133705141Y-76500000D01*
X133705141Y-76499999D01*
X133684621Y-76278560D01*
X133623759Y-76064649D01*
X133524633Y-75865577D01*
X133524631Y-75865574D01*
X133508860Y-75844691D01*
X132942137Y-76411414D01*
X132919333Y-76326306D01*
X132860090Y-76223694D01*
X132776306Y-76139910D01*
X132673694Y-76080667D01*
X132588584Y-76057861D01*
X133153327Y-75493118D01*
X133153326Y-75493117D01*
X133037181Y-75421203D01*
X133037175Y-75421200D01*
X132829804Y-75340865D01*
X132756461Y-75327155D01*
X142225000Y-75327155D01*
X142225000Y-76400000D01*
X143183520Y-76400000D01*
X143182665Y-76402064D01*
X143150000Y-76566282D01*
X143150000Y-76733718D01*
X143182665Y-76897936D01*
X143183520Y-76900000D01*
X142225000Y-76900000D01*
X142225000Y-77972844D01*
X142231401Y-78032372D01*
X142231403Y-78032379D01*
X142281645Y-78167086D01*
X142281649Y-78167093D01*
X142367809Y-78282187D01*
X142367812Y-78282190D01*
X142482906Y-78368350D01*
X142482913Y-78368354D01*
X142617620Y-78418596D01*
X142617627Y-78418598D01*
X142677155Y-78424999D01*
X142677172Y-78425000D01*
X143750000Y-78425000D01*
X143750000Y-77466480D01*
X143752064Y-77467335D01*
X143916282Y-77500000D01*
X144083718Y-77500000D01*
X144247936Y-77467335D01*
X144250000Y-77466480D01*
X144250000Y-78425000D01*
X145322828Y-78425000D01*
X145322844Y-78424999D01*
X145382372Y-78418598D01*
X145382379Y-78418596D01*
X145517086Y-78368354D01*
X145517093Y-78368350D01*
X145632187Y-78282190D01*
X145632190Y-78282187D01*
X145718350Y-78167093D01*
X145718354Y-78167086D01*
X145768596Y-78032379D01*
X145768598Y-78032372D01*
X145774999Y-77972844D01*
X145775000Y-77972827D01*
X145775000Y-76900000D01*
X144816480Y-76900000D01*
X144817335Y-76897936D01*
X144850000Y-76733718D01*
X144850000Y-76566282D01*
X144817335Y-76402064D01*
X144816480Y-76400000D01*
X145775000Y-76400000D01*
X145775000Y-75327172D01*
X145774999Y-75327155D01*
X145768598Y-75267627D01*
X145768596Y-75267620D01*
X145718354Y-75132913D01*
X145718350Y-75132906D01*
X145632190Y-75017812D01*
X145632187Y-75017809D01*
X145517093Y-74931649D01*
X145517086Y-74931645D01*
X145382379Y-74881403D01*
X145382372Y-74881401D01*
X145322844Y-74875000D01*
X144250000Y-74875000D01*
X144250000Y-75833519D01*
X144247936Y-75832665D01*
X144083718Y-75800000D01*
X143916282Y-75800000D01*
X143752064Y-75832665D01*
X143750000Y-75833519D01*
X143750000Y-74875000D01*
X142677155Y-74875000D01*
X142617627Y-74881401D01*
X142617620Y-74881403D01*
X142482913Y-74931645D01*
X142482906Y-74931649D01*
X142367812Y-75017809D01*
X142367809Y-75017812D01*
X142281649Y-75132906D01*
X142281645Y-75132913D01*
X142231403Y-75267620D01*
X142231401Y-75267627D01*
X142225000Y-75327155D01*
X132756461Y-75327155D01*
X132611193Y-75300000D01*
X132388807Y-75300000D01*
X132170195Y-75340865D01*
X131962824Y-75421200D01*
X131962818Y-75421204D01*
X131846672Y-75493117D01*
X131846671Y-75493118D01*
X132411415Y-76057861D01*
X132326306Y-76080667D01*
X132223694Y-76139910D01*
X132139910Y-76223694D01*
X132080667Y-76326306D01*
X132057861Y-76411414D01*
X131491138Y-75844691D01*
X131491137Y-75844691D01*
X131475369Y-75865571D01*
X131376240Y-76064649D01*
X131315378Y-76278560D01*
X131294859Y-76499999D01*
X130905460Y-76499999D01*
X130885674Y-76311744D01*
X130827179Y-76131716D01*
X130732533Y-75967784D01*
X130605871Y-75827112D01*
X130576052Y-75805447D01*
X130452734Y-75715851D01*
X130452729Y-75715848D01*
X130279807Y-75638857D01*
X130279802Y-75638855D01*
X130134001Y-75607865D01*
X130094646Y-75599500D01*
X129905354Y-75599500D01*
X129872897Y-75606398D01*
X129720197Y-75638855D01*
X129720192Y-75638857D01*
X129547270Y-75715848D01*
X129547265Y-75715851D01*
X129394129Y-75827111D01*
X129267466Y-75967785D01*
X129172821Y-76131715D01*
X129172818Y-76131722D01*
X129125108Y-76278560D01*
X129114326Y-76311744D01*
X129094540Y-76500000D01*
X129114326Y-76688256D01*
X129114327Y-76688259D01*
X129172818Y-76868277D01*
X129172821Y-76868284D01*
X129267467Y-77032216D01*
X129337054Y-77109500D01*
X129394129Y-77172888D01*
X129547265Y-77284148D01*
X129547270Y-77284151D01*
X129720192Y-77361142D01*
X129720197Y-77361144D01*
X129905354Y-77400500D01*
X129905355Y-77400500D01*
X130094644Y-77400500D01*
X130094646Y-77400500D01*
X130279803Y-77361144D01*
X130310308Y-77347561D01*
X130379555Y-77338276D01*
X130442832Y-77367904D01*
X130448408Y-77373144D01*
X130781165Y-77705781D01*
X130814661Y-77767098D01*
X130817500Y-77793478D01*
X130817500Y-79039155D01*
X130797815Y-79106194D01*
X130745011Y-79151949D01*
X130675853Y-79161893D01*
X130612297Y-79132868D01*
X130610529Y-79131306D01*
X130605874Y-79127116D01*
X130605871Y-79127112D01*
X130554824Y-79090024D01*
X130452734Y-79015851D01*
X130452729Y-79015848D01*
X130279807Y-78938857D01*
X130279802Y-78938855D01*
X130134001Y-78907865D01*
X130094646Y-78899500D01*
X129905354Y-78899500D01*
X129872897Y-78906398D01*
X129720197Y-78938855D01*
X129720192Y-78938857D01*
X129547270Y-79015848D01*
X129547265Y-79015851D01*
X129394129Y-79127111D01*
X129267466Y-79267785D01*
X129172821Y-79431715D01*
X129172818Y-79431722D01*
X129114327Y-79611740D01*
X129114326Y-79611744D01*
X129094540Y-79800000D01*
X129114326Y-79988256D01*
X129114327Y-79988259D01*
X129172818Y-80168277D01*
X129172821Y-80168284D01*
X129267467Y-80332216D01*
X129330929Y-80402697D01*
X129394129Y-80472888D01*
X129547265Y-80584148D01*
X129547270Y-80584151D01*
X129720192Y-80661142D01*
X129720197Y-80661144D01*
X129905354Y-80700500D01*
X129905355Y-80700500D01*
X130094644Y-80700500D01*
X130094646Y-80700500D01*
X130279803Y-80661144D01*
X130452730Y-80584151D01*
X130605871Y-80472888D01*
X130712621Y-80354330D01*
X130772107Y-80317682D01*
X130841964Y-80319013D01*
X130892451Y-80349622D01*
X130912555Y-80369726D01*
X130912557Y-80369729D01*
X130912558Y-80369729D01*
X141302185Y-90759949D01*
X141335667Y-90821271D01*
X141338500Y-90847626D01*
X141338500Y-104526260D01*
X141318815Y-104593299D01*
X141308213Y-104607462D01*
X141213625Y-104716622D01*
X141213622Y-104716628D01*
X141153834Y-104847543D01*
X141133353Y-104990000D01*
X141153834Y-105132456D01*
X141213622Y-105263371D01*
X141213623Y-105263373D01*
X141307872Y-105372143D01*
X141428947Y-105449953D01*
X141428950Y-105449954D01*
X141428949Y-105449954D01*
X141567036Y-105490499D01*
X141567038Y-105490500D01*
X141567039Y-105490500D01*
X141571500Y-105490500D01*
X141575780Y-105491756D01*
X141575816Y-105491762D01*
X141575815Y-105491767D01*
X141638539Y-105510185D01*
X141684294Y-105562989D01*
X141695500Y-105614500D01*
X141695500Y-112160147D01*
X141675815Y-112227186D01*
X141623011Y-112272941D01*
X141553853Y-112282885D01*
X141490297Y-112253860D01*
X141462142Y-112218600D01*
X141420913Y-112141467D01*
X141420909Y-112141460D01*
X141295883Y-111989116D01*
X141143539Y-111864090D01*
X141143532Y-111864086D01*
X140969733Y-111771188D01*
X140969727Y-111771186D01*
X140781132Y-111713976D01*
X140781129Y-111713975D01*
X140585000Y-111694659D01*
X140388870Y-111713975D01*
X140200266Y-111771188D01*
X140026467Y-111864086D01*
X140026460Y-111864090D01*
X139874116Y-111989116D01*
X139749090Y-112141460D01*
X139749086Y-112141467D01*
X139656188Y-112315266D01*
X139598975Y-112503870D01*
X139579659Y-112700000D01*
X139598975Y-112896129D01*
X139598976Y-112896132D01*
X139654488Y-113079131D01*
X139656188Y-113084733D01*
X139749086Y-113258532D01*
X139749090Y-113258539D01*
X139874116Y-113410883D01*
X139980131Y-113497887D01*
X140026462Y-113535910D01*
X140139457Y-113596307D01*
X140189299Y-113645268D01*
X140204760Y-113713405D01*
X140180929Y-113779085D01*
X140168683Y-113793345D01*
X138989489Y-114972540D01*
X138933541Y-115028487D01*
X138933535Y-115028495D01*
X138893982Y-115097004D01*
X138893979Y-115097009D01*
X138888481Y-115117530D01*
X138874923Y-115168130D01*
X138873500Y-115173439D01*
X138873500Y-119443466D01*
X138853815Y-119510505D01*
X138801011Y-119556260D01*
X138731853Y-119566204D01*
X138670835Y-119539319D01*
X138603539Y-119484090D01*
X138603532Y-119484086D01*
X138429733Y-119391188D01*
X138429727Y-119391186D01*
X138296006Y-119350622D01*
X138241129Y-119333975D01*
X138045000Y-119314659D01*
X137848870Y-119333975D01*
X137660266Y-119391188D01*
X137486467Y-119484086D01*
X137486460Y-119484090D01*
X137334116Y-119609116D01*
X137209090Y-119761460D01*
X137209085Y-119761467D01*
X137142858Y-119885371D01*
X137093896Y-119935216D01*
X137025758Y-119950676D01*
X136960078Y-119926844D01*
X136917710Y-119871287D01*
X136909500Y-119826918D01*
X136909500Y-114952698D01*
X136909521Y-114952366D01*
X136909517Y-114944427D01*
X136909518Y-114944426D01*
X136909500Y-114904864D01*
X136909500Y-114865438D01*
X136909498Y-114865431D01*
X136909482Y-114865309D01*
X136909482Y-114865302D01*
X136899182Y-114826932D01*
X136899183Y-114826875D01*
X136899168Y-114826880D01*
X136889021Y-114789011D01*
X136889020Y-114789009D01*
X136889019Y-114789005D01*
X136888971Y-114788890D01*
X136888969Y-114788887D01*
X136888969Y-114788885D01*
X136868844Y-114754064D01*
X136849460Y-114720489D01*
X136849459Y-114720488D01*
X136849457Y-114720484D01*
X136849377Y-114720380D01*
X136820510Y-114691538D01*
X136820513Y-114691534D01*
X136820471Y-114691500D01*
X136787904Y-114658933D01*
X136787659Y-114658718D01*
X135921477Y-113793320D01*
X135887965Y-113732012D01*
X135892918Y-113662318D01*
X135934764Y-113606366D01*
X135950658Y-113596245D01*
X136063538Y-113535910D01*
X136215883Y-113410883D01*
X136340910Y-113258538D01*
X136340914Y-113258532D01*
X136345864Y-113249270D01*
X136394824Y-113199423D01*
X136462960Y-113183959D01*
X136528641Y-113207787D01*
X136542953Y-113220082D01*
X137302858Y-113980794D01*
X137303113Y-113981084D01*
X137308539Y-113986510D01*
X137308540Y-113986511D01*
X137336071Y-114014042D01*
X137336103Y-114014100D01*
X137336116Y-114014088D01*
X137360509Y-114038506D01*
X137364361Y-114042362D01*
X137364363Y-114042363D01*
X137364487Y-114042458D01*
X137364489Y-114042460D01*
X137390674Y-114057578D01*
X137399026Y-114062400D01*
X137399069Y-114062445D01*
X137399078Y-114062431D01*
X137418000Y-114073368D01*
X137432863Y-114081959D01*
X137432867Y-114081960D01*
X137433001Y-114082015D01*
X137433011Y-114082021D01*
X137450861Y-114086804D01*
X137471478Y-114092329D01*
X137471477Y-114092331D01*
X137471528Y-114092342D01*
X137509278Y-114102479D01*
X137509287Y-114102479D01*
X137509432Y-114102498D01*
X137509438Y-114102500D01*
X137509443Y-114102500D01*
X137549805Y-114102500D01*
X137588402Y-114102520D01*
X137588405Y-114102519D01*
X137596260Y-114102523D01*
X137596628Y-114102500D01*
X138084560Y-114102500D01*
X138084562Y-114102500D01*
X138160989Y-114082021D01*
X138229511Y-114042460D01*
X138285460Y-113986511D01*
X138325021Y-113917989D01*
X138345500Y-113841562D01*
X138345500Y-113746328D01*
X138365185Y-113679289D01*
X138417989Y-113633534D01*
X138424131Y-113631212D01*
X138424103Y-113631144D01*
X138429723Y-113628815D01*
X138429727Y-113628814D01*
X138603538Y-113535910D01*
X138755883Y-113410883D01*
X138880910Y-113258538D01*
X138944310Y-113139925D01*
X138973811Y-113084733D01*
X138973812Y-113084731D01*
X138973814Y-113084727D01*
X139031024Y-112896132D01*
X139050341Y-112700000D01*
X139031024Y-112503868D01*
X138973814Y-112315273D01*
X138973811Y-112315269D01*
X138973811Y-112315266D01*
X138880913Y-112141467D01*
X138880909Y-112141460D01*
X138755883Y-111989116D01*
X138603539Y-111864090D01*
X138603532Y-111864086D01*
X138429733Y-111771188D01*
X138429727Y-111771186D01*
X138241132Y-111713976D01*
X138241129Y-111713975D01*
X138045000Y-111694659D01*
X137848870Y-111713975D01*
X137660266Y-111771188D01*
X137486467Y-111864086D01*
X137486460Y-111864090D01*
X137334116Y-111989116D01*
X137209090Y-112141460D01*
X137209085Y-112141467D01*
X137140858Y-112269113D01*
X137091896Y-112318958D01*
X137023758Y-112334418D01*
X136958078Y-112310586D01*
X136915710Y-112255029D01*
X136907500Y-112210660D01*
X136907500Y-112204439D01*
X136907500Y-112204438D01*
X136887021Y-112128011D01*
X136874642Y-112106570D01*
X136847464Y-112059495D01*
X136847458Y-112059487D01*
X136145512Y-111357541D01*
X136145507Y-111357537D01*
X136098744Y-111330539D01*
X136098743Y-111330539D01*
X136076989Y-111317979D01*
X136000562Y-111297500D01*
X135009438Y-111297500D01*
X134958486Y-111311152D01*
X134933010Y-111317979D01*
X134911257Y-111330539D01*
X134911256Y-111330539D01*
X134864492Y-111357537D01*
X134864487Y-111357541D01*
X134016546Y-112205482D01*
X133955223Y-112238967D01*
X133885531Y-112233983D01*
X133829598Y-112192111D01*
X133819506Y-112176253D01*
X133800911Y-112141463D01*
X133800909Y-112141460D01*
X133675883Y-111989116D01*
X133523539Y-111864090D01*
X133523532Y-111864086D01*
X133349733Y-111771188D01*
X133349727Y-111771186D01*
X133161132Y-111713976D01*
X133161129Y-111713975D01*
X132965000Y-111694659D01*
X132768870Y-111713975D01*
X132580266Y-111771188D01*
X132406467Y-111864086D01*
X132406460Y-111864090D01*
X132254116Y-111989116D01*
X132129090Y-112141460D01*
X132116760Y-112164528D01*
X132067796Y-112214370D01*
X131999658Y-112229829D01*
X131933979Y-112205995D01*
X131919723Y-112193752D01*
X131056512Y-111330541D01*
X131056504Y-111330535D01*
X130987995Y-111290982D01*
X130987990Y-111290979D01*
X130962513Y-111284152D01*
X130911562Y-111270500D01*
X129936438Y-111270500D01*
X129898224Y-111280739D01*
X129860009Y-111290979D01*
X129860004Y-111290982D01*
X129791495Y-111330535D01*
X129791487Y-111330541D01*
X129144081Y-111977946D01*
X129082758Y-112011431D01*
X129013066Y-112006447D01*
X128957133Y-111964575D01*
X128954825Y-111961388D01*
X128884660Y-111861182D01*
X128723820Y-111700342D01*
X128537482Y-111569865D01*
X128331328Y-111473734D01*
X128135000Y-111421127D01*
X128135000Y-112384314D01*
X128130606Y-112379920D01*
X128039394Y-112327259D01*
X127937661Y-112300000D01*
X127832339Y-112300000D01*
X127730606Y-112327259D01*
X127639394Y-112379920D01*
X127635000Y-112384314D01*
X127635000Y-111421127D01*
X127438671Y-111473734D01*
X127232517Y-111569865D01*
X127046179Y-111700342D01*
X126885342Y-111861179D01*
X126754865Y-112047517D01*
X126658734Y-112253673D01*
X126658730Y-112253682D01*
X126606127Y-112449999D01*
X126606128Y-112450000D01*
X127569314Y-112450000D01*
X127564920Y-112454394D01*
X127512259Y-112545606D01*
X127485000Y-112647339D01*
X127485000Y-112752661D01*
X127512259Y-112854394D01*
X127564920Y-112945606D01*
X127569314Y-112950000D01*
X126606128Y-112950000D01*
X126658730Y-113146317D01*
X126658734Y-113146326D01*
X126754865Y-113352482D01*
X126885342Y-113538820D01*
X127046179Y-113699657D01*
X127232517Y-113830134D01*
X127438673Y-113926265D01*
X127438682Y-113926269D01*
X127634999Y-113978872D01*
X127635000Y-113978871D01*
X127635000Y-113015686D01*
X127639394Y-113020080D01*
X127730606Y-113072741D01*
X127832339Y-113100000D01*
X127937661Y-113100000D01*
X128039394Y-113072741D01*
X128130606Y-113020080D01*
X128135000Y-113015686D01*
X128135000Y-113993186D01*
X128152431Y-114017058D01*
X128156586Y-114086804D01*
X128123428Y-114146684D01*
X119286841Y-122984187D01*
X119286838Y-122984189D01*
X119267535Y-123003492D01*
X119267535Y-123003493D01*
X119267531Y-123003499D01*
X119267530Y-123003501D01*
X119246331Y-123040223D01*
X119227977Y-123072012D01*
X119227975Y-123072018D01*
X119227974Y-123072019D01*
X119220082Y-123101482D01*
X119220080Y-123101487D01*
X119207498Y-123148444D01*
X119207500Y-123180502D01*
X119207500Y-130079146D01*
X119187815Y-130146185D01*
X119171174Y-130166834D01*
X113812306Y-135524865D01*
X113750981Y-135558345D01*
X113681289Y-135553355D01*
X113672227Y-135549559D01*
X113672128Y-135549513D01*
X113529330Y-135482925D01*
X113529326Y-135482924D01*
X113529322Y-135482922D01*
X113317977Y-135426293D01*
X113100002Y-135407223D01*
X113099998Y-135407223D01*
X112954682Y-135419936D01*
X112882023Y-135426293D01*
X112882020Y-135426293D01*
X112670677Y-135482922D01*
X112670668Y-135482926D01*
X112472361Y-135575398D01*
X112472357Y-135575400D01*
X112293121Y-135700902D01*
X112138402Y-135855621D01*
X112012900Y-136034857D01*
X112012898Y-136034861D01*
X111920426Y-136233168D01*
X111920422Y-136233177D01*
X111863793Y-136444520D01*
X111863793Y-136444524D01*
X111844723Y-136662497D01*
X101855277Y-136662497D01*
X101836207Y-136444523D01*
X101779575Y-136233170D01*
X101687102Y-136034862D01*
X101687100Y-136034859D01*
X101687099Y-136034857D01*
X101561599Y-135855624D01*
X101561596Y-135855621D01*
X101406877Y-135700902D01*
X101227639Y-135575398D01*
X101227640Y-135575398D01*
X101227638Y-135575397D01*
X101119157Y-135524812D01*
X101029330Y-135482925D01*
X101029326Y-135482924D01*
X101029322Y-135482922D01*
X100817977Y-135426293D01*
X100600002Y-135407223D01*
X100599998Y-135407223D01*
X100454682Y-135419936D01*
X100382023Y-135426293D01*
X100382020Y-135426293D01*
X100170677Y-135482922D01*
X100170668Y-135482926D01*
X99972361Y-135575398D01*
X99972357Y-135575400D01*
X99793121Y-135700902D01*
X99638402Y-135855621D01*
X99512900Y-136034857D01*
X99512898Y-136034861D01*
X99420426Y-136233168D01*
X99420422Y-136233177D01*
X99363793Y-136444520D01*
X99363793Y-136444524D01*
X99344723Y-136662497D01*
X85427993Y-136662497D01*
X85437204Y-133162497D01*
X99344723Y-133162497D01*
X99344723Y-133162502D01*
X99363793Y-133380475D01*
X99363793Y-133380479D01*
X99420422Y-133591822D01*
X99420424Y-133591826D01*
X99420425Y-133591830D01*
X99466661Y-133690984D01*
X99512897Y-133790138D01*
X99512898Y-133790139D01*
X99638402Y-133969377D01*
X99793123Y-134124098D01*
X99972361Y-134249602D01*
X100170670Y-134342075D01*
X100170676Y-134342076D01*
X100170677Y-134342077D01*
X100182172Y-134345157D01*
X100382023Y-134398707D01*
X100564926Y-134414708D01*
X100599998Y-134417777D01*
X100600000Y-134417777D01*
X100600002Y-134417777D01*
X100628254Y-134415305D01*
X100817977Y-134398707D01*
X101029330Y-134342075D01*
X101227639Y-134249602D01*
X101406877Y-134124098D01*
X101561598Y-133969377D01*
X101687102Y-133790139D01*
X101779575Y-133591830D01*
X101836207Y-133380477D01*
X101855277Y-133162500D01*
X101855277Y-133162497D01*
X111844723Y-133162497D01*
X111844723Y-133162502D01*
X111863793Y-133380475D01*
X111863793Y-133380479D01*
X111920422Y-133591822D01*
X111920424Y-133591826D01*
X111920425Y-133591830D01*
X111966661Y-133690984D01*
X112012897Y-133790138D01*
X112012898Y-133790139D01*
X112138402Y-133969377D01*
X112293123Y-134124098D01*
X112472361Y-134249602D01*
X112670670Y-134342075D01*
X112670676Y-134342076D01*
X112670677Y-134342077D01*
X112682172Y-134345157D01*
X112882023Y-134398707D01*
X113064926Y-134414708D01*
X113099998Y-134417777D01*
X113100000Y-134417777D01*
X113100002Y-134417777D01*
X113128254Y-134415305D01*
X113317977Y-134398707D01*
X113529330Y-134342075D01*
X113727639Y-134249602D01*
X113906877Y-134124098D01*
X114061598Y-133969377D01*
X114187102Y-133790139D01*
X114279575Y-133591830D01*
X114336207Y-133380477D01*
X114355277Y-133162500D01*
X114336207Y-132944523D01*
X114279575Y-132733170D01*
X114187102Y-132534862D01*
X114187100Y-132534859D01*
X114187099Y-132534857D01*
X114061599Y-132355624D01*
X113993515Y-132287540D01*
X113906877Y-132200902D01*
X113727639Y-132075398D01*
X113727640Y-132075398D01*
X113727638Y-132075397D01*
X113628484Y-132029161D01*
X113529330Y-131982925D01*
X113529326Y-131982924D01*
X113529322Y-131982922D01*
X113317977Y-131926293D01*
X113100002Y-131907223D01*
X113099998Y-131907223D01*
X112954682Y-131919936D01*
X112882023Y-131926293D01*
X112882020Y-131926293D01*
X112670677Y-131982922D01*
X112670668Y-131982926D01*
X112472361Y-132075398D01*
X112472357Y-132075400D01*
X112293121Y-132200902D01*
X112138402Y-132355621D01*
X112012900Y-132534857D01*
X112012898Y-132534861D01*
X111920426Y-132733168D01*
X111920422Y-132733177D01*
X111863793Y-132944520D01*
X111863793Y-132944524D01*
X111844723Y-133162497D01*
X101855277Y-133162497D01*
X101836207Y-132944523D01*
X101779575Y-132733170D01*
X101687102Y-132534862D01*
X101687100Y-132534859D01*
X101687099Y-132534857D01*
X101561599Y-132355624D01*
X101493515Y-132287540D01*
X101406877Y-132200902D01*
X101227639Y-132075398D01*
X101227640Y-132075398D01*
X101227638Y-132075397D01*
X101128484Y-132029161D01*
X101029330Y-131982925D01*
X101029326Y-131982924D01*
X101029322Y-131982922D01*
X100817977Y-131926293D01*
X100600002Y-131907223D01*
X100599998Y-131907223D01*
X100454682Y-131919936D01*
X100382023Y-131926293D01*
X100382020Y-131926293D01*
X100170677Y-131982922D01*
X100170668Y-131982926D01*
X99972361Y-132075398D01*
X99972357Y-132075400D01*
X99793121Y-132200902D01*
X99638402Y-132355621D01*
X99512900Y-132534857D01*
X99512898Y-132534861D01*
X99420426Y-132733168D01*
X99420422Y-132733177D01*
X99363793Y-132944520D01*
X99363793Y-132944524D01*
X99344723Y-133162497D01*
X85437204Y-133162497D01*
X85558910Y-86914338D01*
X86109400Y-86914338D01*
X86109400Y-114040862D01*
X86128778Y-114113181D01*
X86129880Y-114117292D01*
X86135143Y-114126407D01*
X86135145Y-114126410D01*
X86162277Y-114173404D01*
X86169439Y-114185809D01*
X86169441Y-114185812D01*
X86519204Y-114535575D01*
X86552689Y-114596898D01*
X86554261Y-114640902D01*
X86552953Y-114650000D01*
X86554237Y-114658933D01*
X86573434Y-114792456D01*
X86626487Y-114908623D01*
X86633223Y-114923373D01*
X86727472Y-115032143D01*
X86848547Y-115109953D01*
X86848550Y-115109954D01*
X86848549Y-115109954D01*
X86912496Y-115128730D01*
X86964297Y-115143940D01*
X86986636Y-115150499D01*
X86986638Y-115150500D01*
X86986639Y-115150500D01*
X87130561Y-115150500D01*
X87199166Y-115130356D01*
X87269034Y-115130356D01*
X87327813Y-115168130D01*
X87356838Y-115231686D01*
X87358100Y-115249333D01*
X87358100Y-121465566D01*
X87338415Y-121532605D01*
X87321781Y-121553247D01*
X87011847Y-121863181D01*
X86950524Y-121896666D01*
X86924166Y-121899500D01*
X86828036Y-121899500D01*
X86689949Y-121940045D01*
X86568873Y-122017856D01*
X86474623Y-122126626D01*
X86474622Y-122126628D01*
X86414834Y-122257543D01*
X86394353Y-122400000D01*
X86414834Y-122542456D01*
X86463421Y-122648844D01*
X86474623Y-122673373D01*
X86568872Y-122782143D01*
X86689947Y-122859953D01*
X86689950Y-122859954D01*
X86689949Y-122859954D01*
X86797107Y-122891417D01*
X86804975Y-122893728D01*
X86828036Y-122900499D01*
X86828038Y-122900500D01*
X86828039Y-122900500D01*
X86971962Y-122900500D01*
X86971962Y-122900499D01*
X87110053Y-122859953D01*
X87231128Y-122782143D01*
X87325377Y-122673373D01*
X87385165Y-122542457D01*
X87405647Y-122400000D01*
X87404339Y-122390905D01*
X87414279Y-122321749D01*
X87439392Y-122285577D01*
X87899060Y-121825911D01*
X87899064Y-121825903D01*
X87901125Y-121823219D01*
X87903448Y-121821522D01*
X87904807Y-121820164D01*
X87905018Y-121820375D01*
X87957553Y-121782017D01*
X88027299Y-121777863D01*
X88088219Y-121812076D01*
X88120972Y-121873794D01*
X88123500Y-121898707D01*
X88123500Y-129055499D01*
X88123487Y-129055703D01*
X88123489Y-129063525D01*
X88123489Y-129063526D01*
X88123499Y-129101319D01*
X88123500Y-129101368D01*
X88123500Y-129142602D01*
X88123511Y-129142646D01*
X88123512Y-129142650D01*
X88133446Y-129179679D01*
X88133450Y-129179715D01*
X88133455Y-129179714D01*
X88143990Y-129219030D01*
X88163599Y-129252973D01*
X88163607Y-129253005D01*
X88163615Y-129253001D01*
X88183541Y-129287513D01*
X88183591Y-129287577D01*
X88183594Y-129287582D01*
X88212543Y-129316514D01*
X88212569Y-129316540D01*
X88245300Y-129349271D01*
X88245453Y-129349405D01*
X88893712Y-129997283D01*
X88920891Y-130024462D01*
X88920917Y-130024482D01*
X88920958Y-130024514D01*
X88931754Y-130030742D01*
X88954776Y-130044024D01*
X88954804Y-130044053D01*
X88954810Y-130044044D01*
X88989411Y-130064021D01*
X88989412Y-130064021D01*
X88989424Y-130064028D01*
X88989477Y-130064050D01*
X88989492Y-130064054D01*
X88989494Y-130064055D01*
X89026422Y-130073938D01*
X89065838Y-130084500D01*
X89065843Y-130084500D01*
X89065920Y-130084510D01*
X89065922Y-130084509D01*
X89065926Y-130084511D01*
X89103758Y-130084500D01*
X89103769Y-130084500D01*
X93145585Y-130084500D01*
X93145586Y-130084500D01*
X93185148Y-130084502D01*
X93185151Y-130084500D01*
X93185159Y-130084501D01*
X93185203Y-130084495D01*
X93185930Y-130084294D01*
X93218611Y-130075537D01*
X93254436Y-130065939D01*
X93258733Y-130065060D01*
X93261929Y-130064081D01*
X93262451Y-130063808D01*
X93266739Y-130061047D01*
X93291737Y-130046615D01*
X93322433Y-130028895D01*
X93326039Y-130027143D01*
X93326995Y-130026514D01*
X93330406Y-130024407D01*
X93333445Y-130021125D01*
X93351289Y-130003281D01*
X97547432Y-125807533D01*
X97547461Y-125807509D01*
X97554509Y-125800461D01*
X97554511Y-125800460D01*
X97594533Y-125760438D01*
X97607114Y-125747857D01*
X97610398Y-125744817D01*
X97612509Y-125741400D01*
X97613136Y-125740448D01*
X97614888Y-125736841D01*
X97633346Y-125704869D01*
X97633349Y-125704864D01*
X97645339Y-125684099D01*
X97647570Y-125680833D01*
X97648455Y-125679085D01*
X97650253Y-125675760D01*
X97651059Y-125673130D01*
X97651940Y-125668827D01*
X97660353Y-125637430D01*
X97660354Y-125637430D01*
X97660354Y-125637424D01*
X97670279Y-125600395D01*
X97670494Y-125599617D01*
X97670500Y-125599574D01*
X97670500Y-125560015D01*
X97670500Y-125560013D01*
X97670502Y-125520452D01*
X97670500Y-125520447D01*
X97670501Y-125512870D01*
X97670500Y-125512836D01*
X97670500Y-123228578D01*
X97690185Y-123161539D01*
X97742989Y-123115784D01*
X97758488Y-123109923D01*
X97773954Y-123105232D01*
X97956450Y-123007685D01*
X98116410Y-122876410D01*
X98247685Y-122716450D01*
X98345232Y-122533954D01*
X98405300Y-122335934D01*
X98425583Y-122130000D01*
X98854417Y-122130000D01*
X98874699Y-122335932D01*
X98886449Y-122374665D01*
X98934768Y-122533954D01*
X99032315Y-122716450D01*
X99060463Y-122750749D01*
X99163589Y-122876410D01*
X99228349Y-122929556D01*
X99323550Y-123007685D01*
X99506046Y-123105232D01*
X99704066Y-123165300D01*
X99704065Y-123165300D01*
X99722529Y-123167118D01*
X99910000Y-123185583D01*
X100115934Y-123165300D01*
X100313954Y-123105232D01*
X100496450Y-123007685D01*
X100656410Y-122876410D01*
X100787685Y-122716450D01*
X100885232Y-122533954D01*
X100945300Y-122335934D01*
X100965583Y-122130000D01*
X100945300Y-121924066D01*
X100885232Y-121726046D01*
X100787685Y-121543550D01*
X100727684Y-121470438D01*
X100656410Y-121383589D01*
X100506121Y-121260252D01*
X100496450Y-121252315D01*
X100313954Y-121154768D01*
X100115934Y-121094700D01*
X100115932Y-121094699D01*
X100115934Y-121094699D01*
X99910000Y-121074417D01*
X99704067Y-121094699D01*
X99569736Y-121135448D01*
X99506050Y-121154767D01*
X99506043Y-121154769D01*
X99445202Y-121187290D01*
X99323550Y-121252315D01*
X99323548Y-121252316D01*
X99323547Y-121252317D01*
X99163589Y-121383589D01*
X99032317Y-121543547D01*
X99032315Y-121543550D01*
X99003300Y-121597833D01*
X98934769Y-121726043D01*
X98874699Y-121924067D01*
X98854417Y-122130000D01*
X98425583Y-122130000D01*
X98405300Y-121924066D01*
X98345232Y-121726046D01*
X98247685Y-121543550D01*
X98187684Y-121470438D01*
X98116410Y-121383589D01*
X97966121Y-121260252D01*
X97956450Y-121252315D01*
X97773954Y-121154768D01*
X97575934Y-121094700D01*
X97575932Y-121094699D01*
X97575934Y-121094699D01*
X97370000Y-121074417D01*
X97164067Y-121094699D01*
X96966041Y-121154769D01*
X96931845Y-121173048D01*
X96863442Y-121187290D01*
X96798198Y-121162290D01*
X96756828Y-121105984D01*
X96752466Y-121036251D01*
X96785712Y-120976007D01*
X100844821Y-116917140D01*
X100906146Y-116883658D01*
X100975837Y-116888645D01*
X101031769Y-116930518D01*
X101056184Y-116995983D01*
X101056500Y-117004825D01*
X101056500Y-119924562D01*
X101067255Y-119964699D01*
X101076979Y-120000989D01*
X101090708Y-120024768D01*
X101090708Y-120024769D01*
X101116537Y-120069507D01*
X101116541Y-120069512D01*
X102029320Y-120982291D01*
X102062805Y-121043614D01*
X102057821Y-121113306D01*
X102015949Y-121169239D01*
X102000093Y-121179330D01*
X101950322Y-121205934D01*
X101863550Y-121252315D01*
X101863548Y-121252316D01*
X101863547Y-121252317D01*
X101703589Y-121383589D01*
X101572317Y-121543547D01*
X101572315Y-121543550D01*
X101543300Y-121597833D01*
X101474769Y-121726043D01*
X101414699Y-121924067D01*
X101394417Y-122130000D01*
X101414699Y-122335932D01*
X101426449Y-122374665D01*
X101474768Y-122533954D01*
X101572315Y-122716450D01*
X101600463Y-122750749D01*
X101703589Y-122876410D01*
X101768349Y-122929556D01*
X101863550Y-123007685D01*
X102046046Y-123105232D01*
X102244066Y-123165300D01*
X102244065Y-123165300D01*
X102262529Y-123167118D01*
X102450000Y-123185583D01*
X102655934Y-123165300D01*
X102853954Y-123105232D01*
X103036450Y-123007685D01*
X103196410Y-122876410D01*
X103327685Y-122716450D01*
X103425232Y-122533954D01*
X103485300Y-122335934D01*
X103505583Y-122130000D01*
X103485300Y-121924066D01*
X103425232Y-121726046D01*
X103327685Y-121543550D01*
X103267684Y-121470438D01*
X103196410Y-121383589D01*
X103046121Y-121260252D01*
X103036450Y-121252315D01*
X102899906Y-121179330D01*
X102853953Y-121154767D01*
X102838504Y-121150081D01*
X102780066Y-121111784D01*
X102751609Y-121047971D01*
X102750500Y-121031421D01*
X102750500Y-120938439D01*
X102745031Y-120918029D01*
X102730021Y-120862011D01*
X102722294Y-120848627D01*
X102690464Y-120793495D01*
X102690458Y-120793487D01*
X101693819Y-119796848D01*
X101660334Y-119735525D01*
X101657500Y-119709167D01*
X101657500Y-117631833D01*
X101677185Y-117564794D01*
X101729989Y-117519039D01*
X101799147Y-117509095D01*
X101862703Y-117538120D01*
X101869181Y-117544152D01*
X105199126Y-120874097D01*
X105232611Y-120935420D01*
X105227627Y-121005112D01*
X105185755Y-121061045D01*
X105120291Y-121085462D01*
X105099291Y-121085181D01*
X104990000Y-121074417D01*
X104784067Y-121094699D01*
X104649736Y-121135448D01*
X104586050Y-121154767D01*
X104586043Y-121154769D01*
X104525202Y-121187290D01*
X104403550Y-121252315D01*
X104403548Y-121252316D01*
X104403547Y-121252317D01*
X104243589Y-121383589D01*
X104112317Y-121543547D01*
X104112315Y-121543550D01*
X104083300Y-121597833D01*
X104014769Y-121726043D01*
X103954699Y-121924067D01*
X103934417Y-122130000D01*
X103954699Y-122335932D01*
X103966449Y-122374665D01*
X104014768Y-122533954D01*
X104112315Y-122716450D01*
X104140463Y-122750749D01*
X104243589Y-122876410D01*
X104308349Y-122929556D01*
X104403550Y-123007685D01*
X104586046Y-123105232D01*
X104784066Y-123165300D01*
X104784065Y-123165300D01*
X104802529Y-123167118D01*
X104990000Y-123185583D01*
X105195934Y-123165300D01*
X105393954Y-123105232D01*
X105576450Y-123007685D01*
X105736410Y-122876410D01*
X105852470Y-122734989D01*
X105910214Y-122695656D01*
X105980058Y-122693785D01*
X106036003Y-122725974D01*
X106836489Y-123526460D01*
X106895829Y-123560720D01*
X106905008Y-123566020D01*
X106905012Y-123566022D01*
X106981438Y-123586500D01*
X106981440Y-123586500D01*
X108089560Y-123586500D01*
X108089562Y-123586500D01*
X108165989Y-123566021D01*
X108234511Y-123526460D01*
X108290460Y-123470511D01*
X108812610Y-122948360D01*
X108873931Y-122914877D01*
X108943622Y-122919861D01*
X108999556Y-122961732D01*
X109021906Y-123011850D01*
X109031132Y-123058230D01*
X109075447Y-123124552D01*
X109141769Y-123168867D01*
X109141770Y-123168868D01*
X109200247Y-123180499D01*
X109200250Y-123180500D01*
X109200252Y-123180500D01*
X110939750Y-123180500D01*
X110939751Y-123180499D01*
X110954568Y-123177552D01*
X110998229Y-123168868D01*
X110998229Y-123168867D01*
X110998231Y-123168867D01*
X111064552Y-123124552D01*
X111108867Y-123058231D01*
X111108867Y-123058229D01*
X111108868Y-123058229D01*
X111119182Y-123006373D01*
X111120500Y-122999748D01*
X111120500Y-121260252D01*
X111120500Y-121260249D01*
X111120499Y-121260247D01*
X111108868Y-121201770D01*
X111108867Y-121201769D01*
X111064552Y-121135447D01*
X110998230Y-121091132D01*
X110998229Y-121091131D01*
X110939752Y-121079500D01*
X110939748Y-121079500D01*
X109200252Y-121079500D01*
X109200247Y-121079500D01*
X109141770Y-121091131D01*
X109141769Y-121091132D01*
X109075447Y-121135447D01*
X109031132Y-121201769D01*
X109031131Y-121201770D01*
X109019500Y-121260247D01*
X109019500Y-121840166D01*
X108999815Y-121907205D01*
X108983181Y-121927847D01*
X108788492Y-122122535D01*
X108727169Y-122156020D01*
X108657477Y-122151036D01*
X108601544Y-122109164D01*
X108577409Y-122047009D01*
X108565300Y-121924066D01*
X108505232Y-121726046D01*
X108407685Y-121543550D01*
X108347684Y-121470438D01*
X108276410Y-121383589D01*
X108126121Y-121260252D01*
X108116450Y-121252315D01*
X107979906Y-121179330D01*
X107933953Y-121154767D01*
X107918504Y-121150081D01*
X107860066Y-121111784D01*
X107831609Y-121047971D01*
X107830500Y-121031421D01*
X107830500Y-120938439D01*
X107825031Y-120918029D01*
X107810021Y-120862011D01*
X107802294Y-120848627D01*
X107770464Y-120793495D01*
X107770458Y-120793487D01*
X104149819Y-117172848D01*
X104116334Y-117111525D01*
X104113500Y-117085167D01*
X104113500Y-102421738D01*
X104133185Y-102354699D01*
X104143787Y-102340535D01*
X104144124Y-102340144D01*
X104144128Y-102340143D01*
X104238377Y-102231373D01*
X104298165Y-102100457D01*
X104318647Y-101958000D01*
X104298165Y-101815543D01*
X104238377Y-101684627D01*
X104144128Y-101575857D01*
X104023053Y-101498047D01*
X104023051Y-101498046D01*
X104023049Y-101498045D01*
X104023050Y-101498045D01*
X103884963Y-101457500D01*
X103884961Y-101457500D01*
X103741039Y-101457500D01*
X103741036Y-101457500D01*
X103602949Y-101498045D01*
X103481873Y-101575856D01*
X103387623Y-101684626D01*
X103387622Y-101684628D01*
X103327834Y-101815543D01*
X103307353Y-101958000D01*
X103327834Y-102100456D01*
X103387622Y-102231371D01*
X103387623Y-102231373D01*
X103481872Y-102340143D01*
X103481875Y-102340144D01*
X103482213Y-102340535D01*
X103511238Y-102404091D01*
X103512500Y-102421738D01*
X103512500Y-117300562D01*
X103523570Y-117341874D01*
X103532979Y-117376990D01*
X103532980Y-117376991D01*
X103548814Y-117404417D01*
X103552924Y-117411535D01*
X103560525Y-117424700D01*
X103572539Y-117445509D01*
X103572541Y-117445512D01*
X107109320Y-120982291D01*
X107142805Y-121043614D01*
X107137821Y-121113306D01*
X107095949Y-121169239D01*
X107080093Y-121179330D01*
X107030322Y-121205934D01*
X106943550Y-121252315D01*
X106943548Y-121252316D01*
X106943547Y-121252317D01*
X106783588Y-121383590D01*
X106750094Y-121424403D01*
X106692348Y-121463737D01*
X106622504Y-121465606D01*
X106562736Y-121429418D01*
X106544524Y-121400797D01*
X106544086Y-121401051D01*
X106534004Y-121383589D01*
X106500460Y-121325489D01*
X102294819Y-117119848D01*
X102261334Y-117058525D01*
X102258500Y-117032167D01*
X102258500Y-109817556D01*
X102258529Y-109778665D01*
X102258527Y-109778661D01*
X102258528Y-109778658D01*
X102258500Y-109778438D01*
X102252151Y-109754746D01*
X102248241Y-109740153D01*
X102248243Y-109740054D01*
X102248217Y-109740062D01*
X102244501Y-109726154D01*
X102238109Y-109702223D01*
X102238104Y-109702215D01*
X102238020Y-109702009D01*
X102218216Y-109667708D01*
X102218169Y-109667626D01*
X102198601Y-109633674D01*
X102198599Y-109633671D01*
X102198542Y-109633596D01*
X102198460Y-109633489D01*
X102170300Y-109605329D01*
X102170253Y-109605243D01*
X102170234Y-109605263D01*
X101836267Y-109270789D01*
X101802829Y-109209440D01*
X101801277Y-109165526D01*
X101802647Y-109156000D01*
X101782165Y-109013543D01*
X101722377Y-108882627D01*
X101628128Y-108773857D01*
X101507053Y-108696047D01*
X101507051Y-108696046D01*
X101507049Y-108696045D01*
X101507050Y-108696045D01*
X101368963Y-108655500D01*
X101368961Y-108655500D01*
X101225039Y-108655500D01*
X101154433Y-108676231D01*
X101084564Y-108676230D01*
X101025786Y-108638455D01*
X100996762Y-108574899D01*
X100995500Y-108557253D01*
X100995500Y-99774136D01*
X100995504Y-99738971D01*
X100995499Y-99738934D01*
X100984177Y-99696683D01*
X100984173Y-99696667D01*
X100980694Y-99683679D01*
X100975033Y-99662542D01*
X100975032Y-99662540D01*
X100975021Y-99662512D01*
X100975021Y-99662511D01*
X100953028Y-99624417D01*
X100953027Y-99624415D01*
X100953029Y-99624413D01*
X100953020Y-99624404D01*
X100947445Y-99614745D01*
X100936105Y-99595097D01*
X100935532Y-99594076D01*
X100935484Y-99594013D01*
X100912057Y-99570586D01*
X100912050Y-99570574D01*
X100912048Y-99570577D01*
X99806110Y-98464402D01*
X99772632Y-98403075D01*
X99777624Y-98333384D01*
X99806118Y-98289051D01*
X106350460Y-91744711D01*
X106390022Y-91676188D01*
X106410500Y-91599762D01*
X106410500Y-91520638D01*
X106410500Y-81205200D01*
X106688353Y-81205200D01*
X106708834Y-81347656D01*
X106739856Y-81415583D01*
X106768623Y-81478573D01*
X106862872Y-81587343D01*
X106983947Y-81665153D01*
X106983950Y-81665154D01*
X106983949Y-81665154D01*
X107122036Y-81705699D01*
X107122038Y-81705700D01*
X107218071Y-81705700D01*
X107285110Y-81725385D01*
X107305765Y-81742031D01*
X107582770Y-82019115D01*
X109295194Y-83732029D01*
X109328670Y-83793356D01*
X109331500Y-83819697D01*
X109331500Y-119160260D01*
X109311815Y-119227299D01*
X109301213Y-119241462D01*
X109206625Y-119350622D01*
X109206622Y-119350628D01*
X109146834Y-119481543D01*
X109126353Y-119624000D01*
X109146834Y-119766456D01*
X109194710Y-119871287D01*
X109206623Y-119897373D01*
X109300872Y-120006143D01*
X109421947Y-120083953D01*
X109421950Y-120083954D01*
X109421949Y-120083954D01*
X109529107Y-120115417D01*
X109557893Y-120123870D01*
X109560036Y-120124499D01*
X109560038Y-120124500D01*
X109560039Y-120124500D01*
X109703962Y-120124500D01*
X109703962Y-120124499D01*
X109842053Y-120083953D01*
X109963128Y-120006143D01*
X110057377Y-119897373D01*
X110117165Y-119766457D01*
X110137647Y-119624000D01*
X110117165Y-119481543D01*
X110057377Y-119350627D01*
X110057375Y-119350625D01*
X110057374Y-119350622D01*
X109962787Y-119241462D01*
X109933762Y-119177906D01*
X109932500Y-119160260D01*
X109932500Y-114300000D01*
X112394353Y-114300000D01*
X112414834Y-114442456D01*
X112464356Y-114550891D01*
X112474623Y-114573373D01*
X112568872Y-114682143D01*
X112568875Y-114682144D01*
X112569213Y-114682535D01*
X112598238Y-114746091D01*
X112599500Y-114763738D01*
X112599500Y-120379562D01*
X112608607Y-120413550D01*
X112619979Y-120455990D01*
X112619980Y-120455991D01*
X112627783Y-120469506D01*
X112659539Y-120524509D01*
X112659541Y-120524512D01*
X117820604Y-125685575D01*
X117854089Y-125746898D01*
X117855661Y-125790902D01*
X117854353Y-125799999D01*
X117874834Y-125942456D01*
X117903823Y-126005932D01*
X117934623Y-126073373D01*
X118028872Y-126182143D01*
X118149947Y-126259953D01*
X118149950Y-126259954D01*
X118149949Y-126259954D01*
X118288036Y-126300499D01*
X118288038Y-126300500D01*
X118288039Y-126300500D01*
X118431962Y-126300500D01*
X118431962Y-126300499D01*
X118539121Y-126269035D01*
X118570050Y-126259954D01*
X118570050Y-126259953D01*
X118570053Y-126259953D01*
X118691128Y-126182143D01*
X118785377Y-126073373D01*
X118845165Y-125942457D01*
X118865647Y-125800000D01*
X118845165Y-125657543D01*
X118785377Y-125526627D01*
X118691128Y-125417857D01*
X118570053Y-125340047D01*
X118570051Y-125340046D01*
X118570049Y-125340045D01*
X118570050Y-125340045D01*
X118431963Y-125299500D01*
X118431961Y-125299500D01*
X118335833Y-125299500D01*
X118268794Y-125279815D01*
X118248152Y-125263181D01*
X113236819Y-120251848D01*
X113203334Y-120190525D01*
X113200500Y-120164167D01*
X113200500Y-114763738D01*
X113220185Y-114696699D01*
X113230787Y-114682535D01*
X113231124Y-114682144D01*
X113231128Y-114682143D01*
X113325377Y-114573373D01*
X113385165Y-114442457D01*
X113405647Y-114300000D01*
X113385165Y-114157543D01*
X113325377Y-114026627D01*
X113231128Y-113917857D01*
X113110053Y-113840047D01*
X113110051Y-113840046D01*
X113110049Y-113840045D01*
X113110050Y-113840045D01*
X112971963Y-113799500D01*
X112971961Y-113799500D01*
X112828039Y-113799500D01*
X112828036Y-113799500D01*
X112689949Y-113840045D01*
X112568873Y-113917856D01*
X112568872Y-113917856D01*
X112568872Y-113917857D01*
X112561583Y-113926269D01*
X112474623Y-114026626D01*
X112474622Y-114026628D01*
X112414834Y-114157543D01*
X112394353Y-114300000D01*
X109932500Y-114300000D01*
X109932500Y-99499999D01*
X115469364Y-99499999D01*
X115469364Y-99500000D01*
X116366988Y-99500000D01*
X116334075Y-99557007D01*
X116300000Y-99684174D01*
X116300000Y-99815826D01*
X116334075Y-99942993D01*
X116366988Y-100000000D01*
X115469364Y-100000000D01*
X115526567Y-100213486D01*
X115526570Y-100213492D01*
X115626399Y-100427578D01*
X115761894Y-100621082D01*
X115928917Y-100788105D01*
X116115031Y-100918425D01*
X116158656Y-100973003D01*
X116165848Y-101042501D01*
X116134326Y-101104856D01*
X116115031Y-101121575D01*
X115928922Y-101251890D01*
X115928920Y-101251891D01*
X115761891Y-101418920D01*
X115761886Y-101418926D01*
X115626400Y-101612420D01*
X115626399Y-101612422D01*
X115526570Y-101826507D01*
X115526567Y-101826513D01*
X115469364Y-102039999D01*
X115469364Y-102040000D01*
X116366988Y-102040000D01*
X116334075Y-102097007D01*
X116300000Y-102224174D01*
X116300000Y-102355826D01*
X116334075Y-102482993D01*
X116366988Y-102540000D01*
X115469364Y-102540000D01*
X115526567Y-102753486D01*
X115526570Y-102753492D01*
X115626399Y-102967578D01*
X115761894Y-103161082D01*
X115928917Y-103328105D01*
X116122421Y-103463600D01*
X116336507Y-103563429D01*
X116336516Y-103563433D01*
X116550000Y-103620634D01*
X116550000Y-102723012D01*
X116607007Y-102755925D01*
X116734174Y-102790000D01*
X116865826Y-102790000D01*
X116992993Y-102755925D01*
X117050000Y-102723012D01*
X117050000Y-103620633D01*
X117263483Y-103563433D01*
X117263492Y-103563429D01*
X117477578Y-103463600D01*
X117671082Y-103328105D01*
X117838105Y-103161082D01*
X117973600Y-102967578D01*
X118073429Y-102753492D01*
X118073432Y-102753486D01*
X118130636Y-102540000D01*
X117233012Y-102540000D01*
X117265925Y-102482993D01*
X117300000Y-102355826D01*
X117300000Y-102224174D01*
X117265925Y-102097007D01*
X117233012Y-102040000D01*
X118130636Y-102040000D01*
X118130635Y-102039999D01*
X118073432Y-101826513D01*
X118073429Y-101826507D01*
X117973600Y-101612422D01*
X117973599Y-101612420D01*
X117838113Y-101418926D01*
X117838108Y-101418920D01*
X117671082Y-101251894D01*
X117484968Y-101121575D01*
X117441344Y-101066998D01*
X117434151Y-100997499D01*
X117465673Y-100935145D01*
X117484968Y-100918425D01*
X117671082Y-100788105D01*
X117838105Y-100621082D01*
X117973600Y-100427578D01*
X118073429Y-100213492D01*
X118073432Y-100213486D01*
X118130636Y-100000000D01*
X117233012Y-100000000D01*
X117265925Y-99942993D01*
X117300000Y-99815826D01*
X117300000Y-99684174D01*
X117265925Y-99557007D01*
X117233012Y-99500000D01*
X118130636Y-99500000D01*
X118130635Y-99499999D01*
X118073432Y-99286513D01*
X118073429Y-99286507D01*
X117973600Y-99072422D01*
X117973599Y-99072420D01*
X117838113Y-98878926D01*
X117838108Y-98878920D01*
X117671082Y-98711894D01*
X117477578Y-98576399D01*
X117263492Y-98476570D01*
X117263486Y-98476567D01*
X117141349Y-98443841D01*
X117081689Y-98407476D01*
X117051160Y-98344629D01*
X117059455Y-98275253D01*
X117103940Y-98221375D01*
X117137444Y-98205407D01*
X117203954Y-98185232D01*
X117386450Y-98087685D01*
X117546410Y-97956410D01*
X117677685Y-97796450D01*
X117775232Y-97613954D01*
X117835300Y-97415934D01*
X117855583Y-97210000D01*
X117835300Y-97004066D01*
X117775232Y-96806046D01*
X117677685Y-96623550D01*
X117583984Y-96509374D01*
X117546410Y-96463589D01*
X117404730Y-96347317D01*
X117386450Y-96332315D01*
X117203954Y-96234768D01*
X117005934Y-96174700D01*
X117005932Y-96174699D01*
X117005934Y-96174699D01*
X116800000Y-96154417D01*
X116594067Y-96174699D01*
X116396043Y-96234769D01*
X116367981Y-96249769D01*
X116213550Y-96332315D01*
X116213548Y-96332316D01*
X116213547Y-96332317D01*
X116053589Y-96463589D01*
X115922881Y-96622860D01*
X115922315Y-96623550D01*
X115905193Y-96655583D01*
X115824769Y-96806043D01*
X115764699Y-97004067D01*
X115744417Y-97210000D01*
X115764699Y-97415932D01*
X115769250Y-97430934D01*
X115824768Y-97613954D01*
X115922315Y-97796450D01*
X115922317Y-97796452D01*
X116053589Y-97956410D01*
X116123764Y-98014000D01*
X116213550Y-98087685D01*
X116396046Y-98185232D01*
X116462551Y-98205405D01*
X116520989Y-98243702D01*
X116549446Y-98307514D01*
X116538887Y-98376581D01*
X116492663Y-98428975D01*
X116458650Y-98443841D01*
X116336514Y-98476567D01*
X116336507Y-98476570D01*
X116122422Y-98576399D01*
X116122420Y-98576400D01*
X115928926Y-98711886D01*
X115928920Y-98711891D01*
X115761891Y-98878920D01*
X115761886Y-98878926D01*
X115626400Y-99072420D01*
X115626399Y-99072422D01*
X115526570Y-99286507D01*
X115526567Y-99286513D01*
X115469364Y-99499999D01*
X109932500Y-99499999D01*
X109932500Y-93800247D01*
X115749500Y-93800247D01*
X115749500Y-95539752D01*
X115761131Y-95598229D01*
X115761132Y-95598230D01*
X115805447Y-95664552D01*
X115871769Y-95708867D01*
X115871770Y-95708868D01*
X115930247Y-95720499D01*
X115930250Y-95720500D01*
X115930252Y-95720500D01*
X117669750Y-95720500D01*
X117669751Y-95720499D01*
X117684568Y-95717552D01*
X117728229Y-95708868D01*
X117728229Y-95708867D01*
X117728231Y-95708867D01*
X117794552Y-95664552D01*
X117838867Y-95598231D01*
X117838867Y-95598229D01*
X117838868Y-95598229D01*
X117850499Y-95539752D01*
X117850500Y-95539750D01*
X117850500Y-93800249D01*
X117850499Y-93800247D01*
X117838868Y-93741770D01*
X117838867Y-93741769D01*
X117794552Y-93675447D01*
X117728230Y-93631132D01*
X117728229Y-93631131D01*
X117669752Y-93619500D01*
X117669748Y-93619500D01*
X115930252Y-93619500D01*
X115930247Y-93619500D01*
X115871770Y-93631131D01*
X115871769Y-93631132D01*
X115805447Y-93675447D01*
X115761132Y-93741769D01*
X115761131Y-93741770D01*
X115749500Y-93800247D01*
X109932500Y-93800247D01*
X109932500Y-83643944D01*
X109932500Y-83643937D01*
X109932506Y-83604381D01*
X109932503Y-83604370D01*
X109932500Y-83604343D01*
X109932500Y-83604338D01*
X109929875Y-83594544D01*
X109922708Y-83567793D01*
X109922708Y-83567792D01*
X109922705Y-83567784D01*
X109912412Y-83529349D01*
X109912066Y-83527983D01*
X109912061Y-83527970D01*
X109911740Y-83527424D01*
X109892441Y-83493997D01*
X109892440Y-83493995D01*
X109892442Y-83493993D01*
X109892434Y-83493985D01*
X109872762Y-83459902D01*
X109872501Y-83459440D01*
X109872471Y-83459400D01*
X109869345Y-83456274D01*
X109844671Y-83431600D01*
X109844663Y-83431585D01*
X109844660Y-83431589D01*
X107733371Y-81319693D01*
X107699895Y-81258365D01*
X107698328Y-81214374D01*
X107699647Y-81205201D01*
X107688495Y-81127639D01*
X107679165Y-81062743D01*
X107619377Y-80931827D01*
X107525128Y-80823057D01*
X107404053Y-80745247D01*
X107404051Y-80745246D01*
X107404049Y-80745245D01*
X107404050Y-80745245D01*
X107265963Y-80704700D01*
X107265961Y-80704700D01*
X107122039Y-80704700D01*
X107122036Y-80704700D01*
X106983949Y-80745245D01*
X106862873Y-80823056D01*
X106768623Y-80931826D01*
X106768622Y-80931828D01*
X106708834Y-81062743D01*
X106688353Y-81205200D01*
X106410500Y-81205200D01*
X106410500Y-79800000D01*
X126594540Y-79800000D01*
X126614326Y-79988256D01*
X126614327Y-79988259D01*
X126672818Y-80168277D01*
X126672821Y-80168284D01*
X126767467Y-80332216D01*
X126830929Y-80402697D01*
X126894129Y-80472888D01*
X127047265Y-80584148D01*
X127047270Y-80584151D01*
X127220192Y-80661142D01*
X127220197Y-80661144D01*
X127405354Y-80700500D01*
X127405355Y-80700500D01*
X127594644Y-80700500D01*
X127594646Y-80700500D01*
X127779803Y-80661144D01*
X127952730Y-80584151D01*
X128105871Y-80472888D01*
X128232533Y-80332216D01*
X128327179Y-80168284D01*
X128385674Y-79988256D01*
X128405460Y-79800000D01*
X128385674Y-79611744D01*
X128327179Y-79431716D01*
X128232533Y-79267784D01*
X128105871Y-79127112D01*
X128077080Y-79106194D01*
X127952734Y-79015851D01*
X127952729Y-79015848D01*
X127779807Y-78938857D01*
X127779802Y-78938855D01*
X127634001Y-78907865D01*
X127594646Y-78899500D01*
X127405354Y-78899500D01*
X127372897Y-78906398D01*
X127220197Y-78938855D01*
X127220192Y-78938857D01*
X127047270Y-79015848D01*
X127047265Y-79015851D01*
X126894129Y-79127111D01*
X126767466Y-79267785D01*
X126672821Y-79431715D01*
X126672818Y-79431722D01*
X126614327Y-79611740D01*
X126614326Y-79611744D01*
X126594540Y-79800000D01*
X106410500Y-79800000D01*
X106410500Y-77055399D01*
X106430185Y-76988360D01*
X106482989Y-76942605D01*
X106494237Y-76938118D01*
X106645647Y-76886139D01*
X106704733Y-76865855D01*
X106919788Y-76749473D01*
X107112754Y-76599281D01*
X107278368Y-76419377D01*
X107412111Y-76214667D01*
X107510336Y-75990736D01*
X107570364Y-75753692D01*
X107570365Y-75753683D01*
X107590557Y-75510005D01*
X107590557Y-75509995D01*
X109330023Y-75509995D01*
X109330023Y-75510004D01*
X109349903Y-75775290D01*
X109349903Y-75775292D01*
X109409098Y-76034643D01*
X109409104Y-76034662D01*
X109506296Y-76282303D01*
X109639313Y-76512695D01*
X109639320Y-76512706D01*
X109690084Y-76576360D01*
X109690085Y-76576361D01*
X110355884Y-75910561D01*
X110356740Y-75912626D01*
X110449762Y-76051844D01*
X110568156Y-76170238D01*
X110707374Y-76263260D01*
X110709437Y-76264114D01*
X110042839Y-76930711D01*
X110220011Y-77051504D01*
X110220015Y-77051506D01*
X110459695Y-77166931D01*
X110459699Y-77166932D01*
X110713909Y-77245346D01*
X110713915Y-77245347D01*
X110976976Y-77284999D01*
X110976983Y-77285000D01*
X111243017Y-77285000D01*
X111243023Y-77284999D01*
X111506084Y-77245347D01*
X111506090Y-77245346D01*
X111760299Y-77166933D01*
X111999984Y-77051507D01*
X112177159Y-76930711D01*
X111510562Y-76264114D01*
X111512626Y-76263260D01*
X111651844Y-76170238D01*
X111770238Y-76051844D01*
X111863260Y-75912626D01*
X111864114Y-75910562D01*
X112529913Y-76576361D01*
X112529913Y-76576360D01*
X112580688Y-76512693D01*
X112713703Y-76282303D01*
X112810895Y-76034662D01*
X112810901Y-76034643D01*
X112870096Y-75775292D01*
X112870096Y-75775290D01*
X112889977Y-75510004D01*
X112889977Y-75509995D01*
X112889977Y-75509994D01*
X114629443Y-75509994D01*
X114629443Y-75510005D01*
X114649634Y-75753683D01*
X114649636Y-75753695D01*
X114709663Y-75990734D01*
X114807888Y-76214666D01*
X114941632Y-76419378D01*
X115107242Y-76599277D01*
X115107252Y-76599286D01*
X115300208Y-76749470D01*
X115300212Y-76749473D01*
X115510414Y-76863229D01*
X115515267Y-76865855D01*
X115515270Y-76865856D01*
X115746541Y-76945251D01*
X115746543Y-76945251D01*
X115746545Y-76945252D01*
X115987737Y-76985500D01*
X115987738Y-76985500D01*
X116232262Y-76985500D01*
X116232263Y-76985500D01*
X116473455Y-76945252D01*
X116704733Y-76865855D01*
X116919788Y-76749473D01*
X117112754Y-76599281D01*
X117204149Y-76500000D01*
X126594540Y-76500000D01*
X126614326Y-76688256D01*
X126614327Y-76688259D01*
X126672818Y-76868277D01*
X126672821Y-76868284D01*
X126767467Y-77032216D01*
X126837054Y-77109500D01*
X126894129Y-77172888D01*
X127047265Y-77284148D01*
X127047270Y-77284151D01*
X127220192Y-77361142D01*
X127220197Y-77361144D01*
X127405354Y-77400500D01*
X127405355Y-77400500D01*
X127594644Y-77400500D01*
X127594646Y-77400500D01*
X127779803Y-77361144D01*
X127952730Y-77284151D01*
X128105871Y-77172888D01*
X128232533Y-77032216D01*
X128327179Y-76868284D01*
X128385674Y-76688256D01*
X128405460Y-76500000D01*
X128385674Y-76311744D01*
X128327179Y-76131716D01*
X128232533Y-75967784D01*
X128105871Y-75827112D01*
X128076052Y-75805447D01*
X127952734Y-75715851D01*
X127952729Y-75715848D01*
X127779807Y-75638857D01*
X127779802Y-75638855D01*
X127634001Y-75607865D01*
X127594646Y-75599500D01*
X127405354Y-75599500D01*
X127372897Y-75606398D01*
X127220197Y-75638855D01*
X127220192Y-75638857D01*
X127047270Y-75715848D01*
X127047265Y-75715851D01*
X126894129Y-75827111D01*
X126767466Y-75967785D01*
X126672821Y-76131715D01*
X126672818Y-76131722D01*
X126625108Y-76278560D01*
X126614326Y-76311744D01*
X126594540Y-76500000D01*
X117204149Y-76500000D01*
X117278368Y-76419377D01*
X117412111Y-76214667D01*
X117510336Y-75990736D01*
X117570364Y-75753692D01*
X117570365Y-75753683D01*
X117590557Y-75510005D01*
X117590557Y-75509994D01*
X117570365Y-75266316D01*
X117570363Y-75266304D01*
X117542543Y-75156446D01*
X117510336Y-75029264D01*
X117442248Y-74874038D01*
X169399500Y-74874038D01*
X169399500Y-75125962D01*
X169426138Y-75294145D01*
X169438910Y-75374785D01*
X169516760Y-75614383D01*
X169587738Y-75753683D01*
X169627981Y-75832665D01*
X169631132Y-75838848D01*
X169779201Y-76042649D01*
X169779205Y-76042654D01*
X169957345Y-76220794D01*
X169957350Y-76220798D01*
X170103987Y-76327335D01*
X170161155Y-76368870D01*
X170260281Y-76419377D01*
X170385616Y-76483239D01*
X170385618Y-76483239D01*
X170385621Y-76483241D01*
X170625215Y-76561090D01*
X170874038Y-76600500D01*
X170874039Y-76600500D01*
X171125961Y-76600500D01*
X171125962Y-76600500D01*
X171374785Y-76561090D01*
X171614379Y-76483241D01*
X171838845Y-76368870D01*
X172042656Y-76220793D01*
X172220793Y-76042656D01*
X172368870Y-75838845D01*
X172483241Y-75614379D01*
X172561090Y-75374785D01*
X172600500Y-75125962D01*
X172600500Y-74874038D01*
X172561090Y-74625215D01*
X172483241Y-74385621D01*
X172483239Y-74385618D01*
X172483239Y-74385616D01*
X172424597Y-74270526D01*
X172368870Y-74161155D01*
X172349952Y-74135117D01*
X172220798Y-73957350D01*
X172220794Y-73957345D01*
X172042654Y-73779205D01*
X172042649Y-73779201D01*
X171838848Y-73631132D01*
X171838847Y-73631131D01*
X171838845Y-73631130D01*
X171768747Y-73595413D01*
X171614383Y-73516760D01*
X171374785Y-73438910D01*
X171125962Y-73399500D01*
X170874038Y-73399500D01*
X170749626Y-73419205D01*
X170625214Y-73438910D01*
X170385616Y-73516760D01*
X170161151Y-73631132D01*
X169957350Y-73779201D01*
X169957345Y-73779205D01*
X169779205Y-73957345D01*
X169779201Y-73957350D01*
X169631132Y-74161151D01*
X169516760Y-74385616D01*
X169438910Y-74625214D01*
X169428227Y-74692665D01*
X169399500Y-74874038D01*
X117442248Y-74874038D01*
X117412111Y-74805333D01*
X117278368Y-74600623D01*
X117278367Y-74600621D01*
X117112757Y-74420722D01*
X117112747Y-74420713D01*
X116919791Y-74270529D01*
X116919787Y-74270526D01*
X116704734Y-74154145D01*
X116704729Y-74154143D01*
X116473458Y-74074748D01*
X116292561Y-74044562D01*
X116232263Y-74034500D01*
X115987737Y-74034500D01*
X115939498Y-74042549D01*
X115746541Y-74074748D01*
X115515270Y-74154143D01*
X115515265Y-74154145D01*
X115300212Y-74270526D01*
X115300208Y-74270529D01*
X115107252Y-74420713D01*
X115107242Y-74420722D01*
X114941632Y-74600621D01*
X114807888Y-74805333D01*
X114709663Y-75029265D01*
X114649636Y-75266304D01*
X114649634Y-75266316D01*
X114629443Y-75509994D01*
X112889977Y-75509994D01*
X112870096Y-75244709D01*
X112870096Y-75244707D01*
X112810901Y-74985356D01*
X112810895Y-74985337D01*
X112713703Y-74737696D01*
X112580686Y-74507304D01*
X112529913Y-74443637D01*
X111864114Y-75109436D01*
X111863260Y-75107374D01*
X111770238Y-74968156D01*
X111651844Y-74849762D01*
X111512626Y-74756740D01*
X111510561Y-74755884D01*
X112177159Y-74089287D01*
X111999989Y-73968495D01*
X111999985Y-73968493D01*
X111760299Y-73853066D01*
X111506090Y-73774653D01*
X111506084Y-73774652D01*
X111243023Y-73735000D01*
X110976976Y-73735000D01*
X110713915Y-73774652D01*
X110713909Y-73774653D01*
X110459699Y-73853067D01*
X110459695Y-73853068D01*
X110220012Y-73968494D01*
X110220004Y-73968499D01*
X110042840Y-74089286D01*
X110709438Y-74755884D01*
X110707374Y-74756740D01*
X110568156Y-74849762D01*
X110449762Y-74968156D01*
X110356740Y-75107374D01*
X110355885Y-75109438D01*
X109690084Y-74443637D01*
X109639316Y-74507299D01*
X109506296Y-74737696D01*
X109409104Y-74985337D01*
X109409098Y-74985356D01*
X109349903Y-75244707D01*
X109349903Y-75244709D01*
X109330023Y-75509995D01*
X107590557Y-75509995D01*
X107590557Y-75509994D01*
X107570365Y-75266316D01*
X107570363Y-75266304D01*
X107542543Y-75156446D01*
X107510336Y-75029264D01*
X107412111Y-74805333D01*
X107278368Y-74600623D01*
X107278367Y-74600621D01*
X107112757Y-74420722D01*
X107112747Y-74420713D01*
X106919791Y-74270529D01*
X106919787Y-74270526D01*
X106704734Y-74154145D01*
X106704729Y-74154143D01*
X106473458Y-74074748D01*
X106292561Y-74044562D01*
X106232263Y-74034500D01*
X105987737Y-74034500D01*
X105939498Y-74042549D01*
X105746541Y-74074748D01*
X105515270Y-74154143D01*
X105515265Y-74154145D01*
X105300212Y-74270526D01*
X105300208Y-74270529D01*
X105107252Y-74420713D01*
X105107242Y-74420722D01*
X104941632Y-74600621D01*
X104807888Y-74805333D01*
X104709663Y-75029265D01*
X104649636Y-75266304D01*
X104649634Y-75266316D01*
X104629443Y-75509994D01*
X104629443Y-75510005D01*
X104649634Y-75753683D01*
X104649636Y-75753695D01*
X104709663Y-75990734D01*
X104807888Y-76214666D01*
X104941632Y-76419378D01*
X105107242Y-76599277D01*
X105107252Y-76599286D01*
X105300208Y-76749470D01*
X105300212Y-76749473D01*
X105510414Y-76863229D01*
X105515267Y-76865855D01*
X105515270Y-76865856D01*
X105725763Y-76938118D01*
X105782778Y-76978503D01*
X105808909Y-77043303D01*
X105809500Y-77055399D01*
X105809500Y-91384366D01*
X105789815Y-91451405D01*
X105773181Y-91472047D01*
X100245190Y-97000037D01*
X100183867Y-97033522D01*
X100114175Y-97028538D01*
X100058242Y-96986666D01*
X100038849Y-96948353D01*
X100000232Y-96821046D01*
X99902685Y-96638550D01*
X99796674Y-96509374D01*
X99771410Y-96478589D01*
X99611452Y-96347317D01*
X99611453Y-96347317D01*
X99611450Y-96347315D01*
X99428954Y-96249768D01*
X99325512Y-96218389D01*
X99267074Y-96180092D01*
X99238618Y-96116280D01*
X99249178Y-96047213D01*
X99263141Y-96024231D01*
X99265453Y-96021217D01*
X99265460Y-96021211D01*
X99265464Y-96021203D01*
X99265467Y-96021200D01*
X99287131Y-95983673D01*
X99305021Y-95952689D01*
X99325500Y-95876262D01*
X99325500Y-95783578D01*
X99345185Y-95716539D01*
X99397989Y-95670784D01*
X99413488Y-95664923D01*
X99428954Y-95660232D01*
X99611450Y-95562685D01*
X99771410Y-95431410D01*
X99902685Y-95271450D01*
X100000232Y-95088954D01*
X100060300Y-94890934D01*
X100080583Y-94685000D01*
X100060300Y-94479066D01*
X100000232Y-94281046D01*
X99902685Y-94098550D01*
X99872037Y-94061206D01*
X99844724Y-93996898D01*
X99856514Y-93928030D01*
X99880206Y-93894863D01*
X101350460Y-92424611D01*
X101390021Y-92356089D01*
X101410500Y-92279662D01*
X101410500Y-77109500D01*
X101430185Y-77042461D01*
X101482989Y-76996706D01*
X101534500Y-76985500D01*
X102404750Y-76985500D01*
X102404751Y-76985499D01*
X102419568Y-76982552D01*
X102463229Y-76973868D01*
X102463229Y-76973867D01*
X102463231Y-76973867D01*
X102529552Y-76929552D01*
X102573867Y-76863231D01*
X102573867Y-76863229D01*
X102573868Y-76863229D01*
X102585499Y-76804752D01*
X102585500Y-76804750D01*
X102585500Y-74215249D01*
X102585499Y-74215247D01*
X102573868Y-74156770D01*
X102573867Y-74156769D01*
X102529552Y-74090447D01*
X102463230Y-74046132D01*
X102463229Y-74046131D01*
X102404752Y-74034500D01*
X102404748Y-74034500D01*
X99815252Y-74034500D01*
X99815247Y-74034500D01*
X99756770Y-74046131D01*
X99756769Y-74046132D01*
X99690447Y-74090447D01*
X99646132Y-74156769D01*
X99646131Y-74156770D01*
X99634500Y-74215247D01*
X99634500Y-76804752D01*
X99646131Y-76863229D01*
X99646132Y-76863230D01*
X99690447Y-76929552D01*
X99756769Y-76973867D01*
X99756770Y-76973868D01*
X99815247Y-76985499D01*
X99815250Y-76985500D01*
X99815252Y-76985500D01*
X100685500Y-76985500D01*
X100752539Y-77005185D01*
X100798294Y-77057989D01*
X100809500Y-77109500D01*
X100809500Y-92064267D01*
X100789815Y-92131306D01*
X100773181Y-92151948D01*
X100287181Y-92637948D01*
X100225858Y-92671433D01*
X100156166Y-92666449D01*
X100100233Y-92624577D01*
X100075816Y-92559113D01*
X100075500Y-92550267D01*
X100075500Y-91275249D01*
X100075499Y-91275247D01*
X100063868Y-91216770D01*
X100063867Y-91216769D01*
X100019552Y-91150447D01*
X99953230Y-91106132D01*
X99953229Y-91106131D01*
X99894752Y-91094500D01*
X99894748Y-91094500D01*
X98155252Y-91094500D01*
X98155247Y-91094500D01*
X98096770Y-91106131D01*
X98096769Y-91106132D01*
X98030447Y-91150447D01*
X97986132Y-91216769D01*
X97986131Y-91216770D01*
X97974500Y-91275247D01*
X97974500Y-93014752D01*
X97986131Y-93073229D01*
X97986132Y-93073230D01*
X98030447Y-93139552D01*
X98096769Y-93183867D01*
X98096770Y-93183868D01*
X98155247Y-93195499D01*
X98155250Y-93195500D01*
X98155252Y-93195500D01*
X99430267Y-93195500D01*
X99497306Y-93215185D01*
X99543061Y-93267989D01*
X99553005Y-93337147D01*
X99523980Y-93400703D01*
X99517967Y-93407160D01*
X99363908Y-93561220D01*
X99312909Y-93612219D01*
X99251586Y-93645703D01*
X99213074Y-93647940D01*
X99025000Y-93629417D01*
X98819067Y-93649699D01*
X98621043Y-93709769D01*
X98533432Y-93756599D01*
X98438550Y-93807315D01*
X98438548Y-93807316D01*
X98438547Y-93807317D01*
X98278589Y-93938589D01*
X98147317Y-94098547D01*
X98049769Y-94281043D01*
X97989699Y-94479067D01*
X97969417Y-94685000D01*
X97989699Y-94890932D01*
X98010278Y-94958773D01*
X98049768Y-95088954D01*
X98147315Y-95271450D01*
X98147317Y-95271452D01*
X98278587Y-95431407D01*
X98278588Y-95431408D01*
X98278590Y-95431410D01*
X98410606Y-95539752D01*
X98424512Y-95551164D01*
X98463846Y-95608910D01*
X98465717Y-95678755D01*
X98433528Y-95734699D01*
X95457289Y-98710940D01*
X95401341Y-98766887D01*
X95401335Y-98766895D01*
X95361782Y-98835404D01*
X95361779Y-98835409D01*
X95341300Y-98911839D01*
X95341300Y-113261571D01*
X95321615Y-113328610D01*
X95268811Y-113374365D01*
X95199653Y-113384309D01*
X95150261Y-113365887D01*
X95110050Y-113340045D01*
X94971963Y-113299500D01*
X94971961Y-113299500D01*
X94828039Y-113299500D01*
X94828036Y-113299500D01*
X94689949Y-113340045D01*
X94568873Y-113417856D01*
X94474623Y-113526626D01*
X94474622Y-113526628D01*
X94414834Y-113657543D01*
X94394353Y-113800000D01*
X94414834Y-113942456D01*
X94453274Y-114026626D01*
X94474623Y-114073373D01*
X94474627Y-114073378D01*
X94479418Y-114080833D01*
X94476364Y-114082795D01*
X94498235Y-114130663D01*
X94499500Y-114148332D01*
X94499500Y-117290511D01*
X94479815Y-117357550D01*
X94463181Y-117378192D01*
X93656471Y-118184901D01*
X93595148Y-118218386D01*
X93525456Y-118213402D01*
X93469523Y-118171530D01*
X93449015Y-118129313D01*
X93413433Y-117996516D01*
X93413429Y-117996507D01*
X93313600Y-117782422D01*
X93313599Y-117782420D01*
X93178113Y-117588926D01*
X93178108Y-117588920D01*
X93011082Y-117421894D01*
X92817578Y-117286399D01*
X92603492Y-117186570D01*
X92603486Y-117186567D01*
X92481349Y-117153841D01*
X92421689Y-117117476D01*
X92391160Y-117054629D01*
X92399455Y-116985253D01*
X92443940Y-116931375D01*
X92477444Y-116915407D01*
X92543954Y-116895232D01*
X92726450Y-116797685D01*
X92886410Y-116666410D01*
X93017685Y-116506450D01*
X93115232Y-116323954D01*
X93175300Y-116125934D01*
X93195583Y-115920000D01*
X93175300Y-115714066D01*
X93115232Y-115516046D01*
X93017685Y-115333550D01*
X92911517Y-115204183D01*
X92886410Y-115173589D01*
X92743699Y-115056471D01*
X92726450Y-115042315D01*
X92543954Y-114944768D01*
X92345934Y-114884700D01*
X92345932Y-114884699D01*
X92345934Y-114884699D01*
X92140000Y-114864417D01*
X91934067Y-114884699D01*
X91790090Y-114928374D01*
X91736050Y-114944767D01*
X91736043Y-114944769D01*
X91645392Y-114993224D01*
X91553550Y-115042315D01*
X91553548Y-115042316D01*
X91553547Y-115042317D01*
X91393589Y-115173589D01*
X91264500Y-115330887D01*
X91262315Y-115333550D01*
X91232765Y-115388833D01*
X91164769Y-115516043D01*
X91104699Y-115714067D01*
X91084417Y-115920000D01*
X91104699Y-116125932D01*
X91104700Y-116125934D01*
X91164768Y-116323954D01*
X91262315Y-116506450D01*
X91262317Y-116506452D01*
X91393589Y-116666410D01*
X91434405Y-116699906D01*
X91553550Y-116797685D01*
X91736046Y-116895232D01*
X91802551Y-116915405D01*
X91860989Y-116953702D01*
X91889446Y-117017514D01*
X91878887Y-117086581D01*
X91832663Y-117138975D01*
X91798650Y-117153841D01*
X91676514Y-117186567D01*
X91676507Y-117186570D01*
X91462422Y-117286399D01*
X91462420Y-117286400D01*
X91268926Y-117421886D01*
X91268920Y-117421891D01*
X91101891Y-117588920D01*
X91101886Y-117588926D01*
X90966400Y-117782420D01*
X90966399Y-117782422D01*
X90866570Y-117996507D01*
X90866567Y-117996514D01*
X90833841Y-118118650D01*
X90797476Y-118178310D01*
X90734629Y-118208839D01*
X90665253Y-118200544D01*
X90611375Y-118156059D01*
X90595406Y-118122553D01*
X90575232Y-118056046D01*
X90477685Y-117873550D01*
X90379311Y-117753680D01*
X90346410Y-117713589D01*
X90228677Y-117616969D01*
X90186450Y-117582315D01*
X90003954Y-117484768D01*
X89805934Y-117424700D01*
X89805932Y-117424699D01*
X89805934Y-117424699D01*
X89600000Y-117404417D01*
X89394067Y-117424699D01*
X89196043Y-117484769D01*
X89131930Y-117519039D01*
X89013550Y-117582315D01*
X89013548Y-117582316D01*
X89013547Y-117582317D01*
X88927164Y-117653209D01*
X88862854Y-117680521D01*
X88793987Y-117668730D01*
X88742427Y-117621577D01*
X88724500Y-117557355D01*
X88724500Y-116822644D01*
X88744185Y-116755605D01*
X88796989Y-116709850D01*
X88866147Y-116699906D01*
X88927165Y-116726791D01*
X88975566Y-116766513D01*
X89013550Y-116797685D01*
X89196046Y-116895232D01*
X89394066Y-116955300D01*
X89394065Y-116955300D01*
X89412529Y-116957118D01*
X89600000Y-116975583D01*
X89805934Y-116955300D01*
X90003954Y-116895232D01*
X90186450Y-116797685D01*
X90346410Y-116666410D01*
X90477685Y-116506450D01*
X90575232Y-116323954D01*
X90635300Y-116125934D01*
X90655583Y-115920000D01*
X90635300Y-115714066D01*
X90575232Y-115516046D01*
X90477685Y-115333550D01*
X90371517Y-115204183D01*
X90346410Y-115173589D01*
X90203699Y-115056471D01*
X90186450Y-115042315D01*
X90003954Y-114944768D01*
X89937447Y-114924593D01*
X89879009Y-114886296D01*
X89850553Y-114822484D01*
X89861113Y-114753417D01*
X89907337Y-114701023D01*
X89941350Y-114686158D01*
X90063483Y-114653433D01*
X90063492Y-114653429D01*
X90277578Y-114553600D01*
X90471082Y-114418105D01*
X90638105Y-114251082D01*
X90773600Y-114057578D01*
X90873429Y-113843492D01*
X90873433Y-113843483D01*
X90906158Y-113721350D01*
X90942522Y-113661690D01*
X91005369Y-113631160D01*
X91074745Y-113639454D01*
X91128623Y-113683939D01*
X91144593Y-113717447D01*
X91164768Y-113783954D01*
X91262315Y-113966450D01*
X91278816Y-113986557D01*
X91393589Y-114126410D01*
X91465968Y-114185809D01*
X91553550Y-114257685D01*
X91736046Y-114355232D01*
X91934066Y-114415300D01*
X91934065Y-114415300D01*
X91952529Y-114417118D01*
X92140000Y-114435583D01*
X92345934Y-114415300D01*
X92543954Y-114355232D01*
X92726450Y-114257685D01*
X92886410Y-114126410D01*
X93017685Y-113966450D01*
X93115232Y-113783954D01*
X93175300Y-113585934D01*
X93195583Y-113380000D01*
X93175300Y-113174066D01*
X93115232Y-112976046D01*
X93017685Y-112793550D01*
X92927346Y-112683471D01*
X92886410Y-112633589D01*
X92768677Y-112536969D01*
X92726450Y-112502315D01*
X92543954Y-112404768D01*
X92345934Y-112344700D01*
X92345932Y-112344699D01*
X92345934Y-112344699D01*
X92140000Y-112324417D01*
X91934067Y-112344699D01*
X91736043Y-112404769D01*
X91643203Y-112454394D01*
X91553550Y-112502315D01*
X91553548Y-112502316D01*
X91553547Y-112502317D01*
X91393589Y-112633589D01*
X91262317Y-112793547D01*
X91164767Y-112976046D01*
X91144593Y-113042552D01*
X91106296Y-113100990D01*
X91042483Y-113129447D01*
X90973416Y-113118886D01*
X90921023Y-113072661D01*
X90906158Y-113038649D01*
X90873433Y-112916516D01*
X90873429Y-112916507D01*
X90773600Y-112702422D01*
X90773599Y-112702420D01*
X90638113Y-112508926D01*
X90638108Y-112508920D01*
X90471082Y-112341894D01*
X90277578Y-112206399D01*
X90063492Y-112106570D01*
X90063486Y-112106567D01*
X89941349Y-112073841D01*
X89881689Y-112037476D01*
X89851160Y-111974629D01*
X89859455Y-111905253D01*
X89903940Y-111851375D01*
X89937444Y-111835407D01*
X90003954Y-111815232D01*
X90186450Y-111717685D01*
X90346410Y-111586410D01*
X90477685Y-111426450D01*
X90575232Y-111243954D01*
X90635300Y-111045934D01*
X90655583Y-110840000D01*
X91084417Y-110840000D01*
X91104699Y-111045932D01*
X91104700Y-111045934D01*
X91164768Y-111243954D01*
X91262315Y-111426450D01*
X91262317Y-111426452D01*
X91393589Y-111586410D01*
X91446522Y-111629850D01*
X91553550Y-111717685D01*
X91736046Y-111815232D01*
X91934066Y-111875300D01*
X91934065Y-111875300D01*
X91952529Y-111877118D01*
X92140000Y-111895583D01*
X92345934Y-111875300D01*
X92543954Y-111815232D01*
X92726450Y-111717685D01*
X92886410Y-111586410D01*
X93017685Y-111426450D01*
X93115232Y-111243954D01*
X93175300Y-111045934D01*
X93195583Y-110840000D01*
X93175300Y-110634066D01*
X93115232Y-110436046D01*
X93017685Y-110253550D01*
X92965702Y-110190209D01*
X92886410Y-110093589D01*
X92726452Y-109962317D01*
X92726453Y-109962317D01*
X92726450Y-109962315D01*
X92543954Y-109864768D01*
X92345934Y-109804700D01*
X92345932Y-109804699D01*
X92345934Y-109804699D01*
X92140000Y-109784417D01*
X91934067Y-109804699D01*
X91736043Y-109864769D01*
X91625898Y-109923643D01*
X91553550Y-109962315D01*
X91553548Y-109962316D01*
X91553547Y-109962317D01*
X91393589Y-110093589D01*
X91262317Y-110253547D01*
X91164769Y-110436043D01*
X91104699Y-110634067D01*
X91084417Y-110840000D01*
X90655583Y-110840000D01*
X90635300Y-110634066D01*
X90575232Y-110436046D01*
X90477685Y-110253550D01*
X90425702Y-110190209D01*
X90346410Y-110093589D01*
X90186452Y-109962317D01*
X90186453Y-109962317D01*
X90186450Y-109962315D01*
X90003954Y-109864768D01*
X89805934Y-109804700D01*
X89805932Y-109804699D01*
X89805934Y-109804699D01*
X89600000Y-109784417D01*
X89394067Y-109804699D01*
X89196043Y-109864769D01*
X89085898Y-109923643D01*
X89013550Y-109962315D01*
X89013548Y-109962316D01*
X89013547Y-109962317D01*
X88927164Y-110033209D01*
X88862854Y-110060521D01*
X88793987Y-110048730D01*
X88742427Y-110001577D01*
X88724500Y-109937355D01*
X88724500Y-109202644D01*
X88744185Y-109135605D01*
X88796989Y-109089850D01*
X88866147Y-109079906D01*
X88927165Y-109106791D01*
X89007798Y-109172965D01*
X89013550Y-109177685D01*
X89196046Y-109275232D01*
X89394066Y-109335300D01*
X89394065Y-109335300D01*
X89412529Y-109337118D01*
X89600000Y-109355583D01*
X89805934Y-109335300D01*
X90003954Y-109275232D01*
X90186450Y-109177685D01*
X90346410Y-109046410D01*
X90477685Y-108886450D01*
X90575232Y-108703954D01*
X90635300Y-108505934D01*
X90655583Y-108300000D01*
X91084417Y-108300000D01*
X91104699Y-108505932D01*
X91134734Y-108604944D01*
X91164768Y-108703954D01*
X91262315Y-108886450D01*
X91262317Y-108886452D01*
X91393589Y-109046410D01*
X91434405Y-109079906D01*
X91553550Y-109177685D01*
X91736046Y-109275232D01*
X91934066Y-109335300D01*
X91934065Y-109335300D01*
X91952529Y-109337118D01*
X92140000Y-109355583D01*
X92345934Y-109335300D01*
X92543954Y-109275232D01*
X92726450Y-109177685D01*
X92886410Y-109046410D01*
X93017685Y-108886450D01*
X93115232Y-108703954D01*
X93175300Y-108505934D01*
X93195583Y-108300000D01*
X93175300Y-108094066D01*
X93115232Y-107896046D01*
X93017685Y-107713550D01*
X92965702Y-107650209D01*
X92886410Y-107553589D01*
X92726452Y-107422317D01*
X92726453Y-107422317D01*
X92726450Y-107422315D01*
X92543954Y-107324768D01*
X92345934Y-107264700D01*
X92345932Y-107264699D01*
X92345934Y-107264699D01*
X92140000Y-107244417D01*
X91934067Y-107264699D01*
X91758692Y-107317898D01*
X91736050Y-107324767D01*
X91736043Y-107324769D01*
X91625898Y-107383643D01*
X91553550Y-107422315D01*
X91553548Y-107422316D01*
X91553547Y-107422317D01*
X91393589Y-107553589D01*
X91268326Y-107706225D01*
X91262315Y-107713550D01*
X91231684Y-107770856D01*
X91164769Y-107896043D01*
X91104699Y-108094067D01*
X91084417Y-108300000D01*
X90655583Y-108300000D01*
X90635300Y-108094066D01*
X90575232Y-107896046D01*
X90477685Y-107713550D01*
X90425702Y-107650209D01*
X90346410Y-107553589D01*
X90186452Y-107422317D01*
X90186453Y-107422317D01*
X90186450Y-107422315D01*
X90003954Y-107324768D01*
X89937447Y-107304593D01*
X89879009Y-107266296D01*
X89850553Y-107202484D01*
X89861113Y-107133417D01*
X89907337Y-107081023D01*
X89941350Y-107066158D01*
X90063483Y-107033433D01*
X90063492Y-107033429D01*
X90277578Y-106933600D01*
X90471082Y-106798105D01*
X90638105Y-106631082D01*
X90773600Y-106437578D01*
X90873429Y-106223492D01*
X90873433Y-106223483D01*
X90906158Y-106101350D01*
X90942522Y-106041690D01*
X91005369Y-106011160D01*
X91074745Y-106019454D01*
X91128623Y-106063939D01*
X91144593Y-106097447D01*
X91164768Y-106163954D01*
X91262315Y-106346450D01*
X91262317Y-106346452D01*
X91393589Y-106506410D01*
X91490209Y-106585702D01*
X91553550Y-106637685D01*
X91736046Y-106735232D01*
X91934066Y-106795300D01*
X91934065Y-106795300D01*
X91952529Y-106797118D01*
X92140000Y-106815583D01*
X92345934Y-106795300D01*
X92543954Y-106735232D01*
X92726450Y-106637685D01*
X92886410Y-106506410D01*
X93017685Y-106346450D01*
X93115232Y-106163954D01*
X93175300Y-105965934D01*
X93195583Y-105760000D01*
X93175300Y-105554066D01*
X93115232Y-105356046D01*
X93017685Y-105173550D01*
X92924936Y-105060534D01*
X92886410Y-105013589D01*
X92768677Y-104916969D01*
X92726450Y-104882315D01*
X92543954Y-104784768D01*
X92345934Y-104724700D01*
X92345932Y-104724699D01*
X92345934Y-104724699D01*
X92140000Y-104704417D01*
X91934067Y-104724699D01*
X91736043Y-104784769D01*
X91625898Y-104843643D01*
X91553550Y-104882315D01*
X91553548Y-104882316D01*
X91553547Y-104882317D01*
X91393589Y-105013589D01*
X91262317Y-105173547D01*
X91164767Y-105356046D01*
X91144593Y-105422552D01*
X91106296Y-105480990D01*
X91042483Y-105509447D01*
X90973416Y-105498886D01*
X90921023Y-105452661D01*
X90906158Y-105418649D01*
X90873433Y-105296516D01*
X90873429Y-105296507D01*
X90773600Y-105082422D01*
X90773599Y-105082420D01*
X90638113Y-104888926D01*
X90638108Y-104888920D01*
X90471082Y-104721894D01*
X90277578Y-104586399D01*
X90063492Y-104486570D01*
X90063486Y-104486567D01*
X89941349Y-104453841D01*
X89881689Y-104417476D01*
X89851160Y-104354629D01*
X89859455Y-104285253D01*
X89903940Y-104231375D01*
X89937444Y-104215407D01*
X90003954Y-104195232D01*
X90186450Y-104097685D01*
X90346410Y-103966410D01*
X90477685Y-103806450D01*
X90575232Y-103623954D01*
X90635300Y-103425934D01*
X90655583Y-103220000D01*
X91084417Y-103220000D01*
X91104699Y-103425932D01*
X91134734Y-103524944D01*
X91164768Y-103623954D01*
X91262315Y-103806450D01*
X91296969Y-103848677D01*
X91393589Y-103966410D01*
X91434405Y-103999906D01*
X91553550Y-104097685D01*
X91736046Y-104195232D01*
X91934066Y-104255300D01*
X91934065Y-104255300D01*
X91952529Y-104257118D01*
X92140000Y-104275583D01*
X92345934Y-104255300D01*
X92543954Y-104195232D01*
X92726450Y-104097685D01*
X92886410Y-103966410D01*
X93017685Y-103806450D01*
X93115232Y-103623954D01*
X93175300Y-103425934D01*
X93195583Y-103220000D01*
X93175300Y-103014066D01*
X93115232Y-102816046D01*
X93017685Y-102633550D01*
X92962258Y-102566011D01*
X92886410Y-102473589D01*
X92726452Y-102342317D01*
X92726453Y-102342317D01*
X92726450Y-102342315D01*
X92543954Y-102244768D01*
X92345934Y-102184700D01*
X92345932Y-102184699D01*
X92345934Y-102184699D01*
X92140000Y-102164417D01*
X91934067Y-102184699D01*
X91736043Y-102244769D01*
X91625898Y-102303643D01*
X91553550Y-102342315D01*
X91553548Y-102342316D01*
X91553547Y-102342317D01*
X91393589Y-102473589D01*
X91262317Y-102633547D01*
X91262315Y-102633550D01*
X91239686Y-102675886D01*
X91164769Y-102816043D01*
X91104699Y-103014067D01*
X91084417Y-103220000D01*
X90655583Y-103220000D01*
X90635300Y-103014066D01*
X90575232Y-102816046D01*
X90477685Y-102633550D01*
X90346410Y-102473590D01*
X90346409Y-102473589D01*
X90236174Y-102383121D01*
X90196840Y-102325375D01*
X90194969Y-102255531D01*
X90231157Y-102195763D01*
X90236420Y-102191350D01*
X90237308Y-102190461D01*
X90237311Y-102190460D01*
X90293260Y-102134511D01*
X91008260Y-101419511D01*
X91047822Y-101350988D01*
X91055211Y-101323408D01*
X91091575Y-101263749D01*
X91154422Y-101233219D01*
X91223797Y-101241513D01*
X91270840Y-101276838D01*
X91393589Y-101426410D01*
X91431473Y-101457500D01*
X91553550Y-101557685D01*
X91736046Y-101655232D01*
X91934066Y-101715300D01*
X91934065Y-101715300D01*
X91952529Y-101717118D01*
X92140000Y-101735583D01*
X92345934Y-101715300D01*
X92543954Y-101655232D01*
X92726450Y-101557685D01*
X92886410Y-101426410D01*
X93017685Y-101266450D01*
X93115232Y-101083954D01*
X93175300Y-100885934D01*
X93195583Y-100680000D01*
X93175300Y-100474066D01*
X93115232Y-100276046D01*
X93017685Y-100093550D01*
X92906475Y-99958039D01*
X92886410Y-99933589D01*
X92726452Y-99802317D01*
X92726453Y-99802317D01*
X92726450Y-99802315D01*
X92543954Y-99704768D01*
X92477447Y-99684593D01*
X92419009Y-99646296D01*
X92390553Y-99582484D01*
X92401113Y-99513417D01*
X92447337Y-99461023D01*
X92481350Y-99446158D01*
X92603483Y-99413433D01*
X92603492Y-99413429D01*
X92817578Y-99313600D01*
X93011082Y-99178105D01*
X93178105Y-99011082D01*
X93313600Y-98817578D01*
X93413429Y-98603492D01*
X93413432Y-98603486D01*
X93470636Y-98390000D01*
X92573012Y-98390000D01*
X92605925Y-98332993D01*
X92640000Y-98205826D01*
X92640000Y-98074174D01*
X92605925Y-97947007D01*
X92573012Y-97890000D01*
X93470636Y-97890000D01*
X93470635Y-97889999D01*
X93413432Y-97676513D01*
X93413429Y-97676507D01*
X93313600Y-97462422D01*
X93313599Y-97462420D01*
X93178113Y-97268926D01*
X93178108Y-97268920D01*
X93011082Y-97101894D01*
X92817578Y-96966399D01*
X92603492Y-96866570D01*
X92603486Y-96866567D01*
X92481349Y-96833841D01*
X92421689Y-96797476D01*
X92391160Y-96734629D01*
X92399455Y-96665253D01*
X92443940Y-96611375D01*
X92477444Y-96595407D01*
X92543954Y-96575232D01*
X92726450Y-96477685D01*
X92886410Y-96346410D01*
X93017685Y-96186450D01*
X93115232Y-96003954D01*
X93175300Y-95805934D01*
X93195583Y-95600000D01*
X93175300Y-95394066D01*
X93115232Y-95196046D01*
X93017685Y-95013550D01*
X92927288Y-94903400D01*
X92886410Y-94853589D01*
X92748972Y-94740798D01*
X92726450Y-94722315D01*
X92543954Y-94624768D01*
X92345934Y-94564700D01*
X92345932Y-94564699D01*
X92345934Y-94564699D01*
X92140000Y-94544417D01*
X91934067Y-94564699D01*
X91758692Y-94617898D01*
X91736050Y-94624767D01*
X91736043Y-94624769D01*
X91625898Y-94683643D01*
X91553550Y-94722315D01*
X91553548Y-94722316D01*
X91553547Y-94722317D01*
X91393589Y-94853590D01*
X91288153Y-94982065D01*
X91230408Y-95021399D01*
X91160563Y-95023270D01*
X91100795Y-94987083D01*
X91070079Y-94924327D01*
X91068300Y-94903400D01*
X91068300Y-93756599D01*
X91087985Y-93689560D01*
X91140789Y-93643805D01*
X91209947Y-93633861D01*
X91273503Y-93662886D01*
X91288154Y-93677935D01*
X91393589Y-93806410D01*
X91490209Y-93885702D01*
X91553550Y-93937685D01*
X91736046Y-94035232D01*
X91934066Y-94095300D01*
X91934065Y-94095300D01*
X91952529Y-94097118D01*
X92140000Y-94115583D01*
X92345934Y-94095300D01*
X92543954Y-94035232D01*
X92726450Y-93937685D01*
X92886410Y-93806410D01*
X93017685Y-93646450D01*
X93115232Y-93463954D01*
X93175300Y-93265934D01*
X93195583Y-93060000D01*
X93175300Y-92854066D01*
X93115232Y-92656046D01*
X93017685Y-92473550D01*
X92946241Y-92386495D01*
X92886410Y-92313589D01*
X92768677Y-92216969D01*
X92726450Y-92182315D01*
X92543954Y-92084768D01*
X92345934Y-92024700D01*
X92345932Y-92024699D01*
X92345934Y-92024699D01*
X92140000Y-92004417D01*
X91934067Y-92024699D01*
X91736043Y-92084769D01*
X91648980Y-92131306D01*
X91553550Y-92182315D01*
X91553548Y-92182316D01*
X91553547Y-92182317D01*
X91393589Y-92313589D01*
X91258451Y-92478258D01*
X91257077Y-92477130D01*
X91209891Y-92516547D01*
X91140564Y-92525239D01*
X91077543Y-92495069D01*
X91053519Y-92461105D01*
X91051885Y-92462049D01*
X91008264Y-92386495D01*
X91008258Y-92386487D01*
X90205319Y-91583548D01*
X90171834Y-91522225D01*
X90169000Y-91495867D01*
X90169000Y-91470653D01*
X90188685Y-91403614D01*
X90214333Y-91374801D01*
X90346410Y-91266410D01*
X90477685Y-91106450D01*
X90575232Y-90923954D01*
X90635300Y-90725934D01*
X90655583Y-90520000D01*
X91084417Y-90520000D01*
X91104699Y-90725932D01*
X91126035Y-90796266D01*
X91164768Y-90923954D01*
X91262315Y-91106450D01*
X91262317Y-91106452D01*
X91393589Y-91266410D01*
X91490209Y-91345702D01*
X91553550Y-91397685D01*
X91736046Y-91495232D01*
X91934066Y-91555300D01*
X91934065Y-91555300D01*
X91952529Y-91557118D01*
X92140000Y-91575583D01*
X92345934Y-91555300D01*
X92543954Y-91495232D01*
X92726450Y-91397685D01*
X92886410Y-91266410D01*
X93017685Y-91106450D01*
X93115232Y-90923954D01*
X93175300Y-90725934D01*
X93195583Y-90520000D01*
X93175300Y-90314066D01*
X93115232Y-90116046D01*
X93017685Y-89933550D01*
X92965702Y-89870209D01*
X92886410Y-89773589D01*
X92726452Y-89642317D01*
X92726453Y-89642317D01*
X92726450Y-89642315D01*
X92543954Y-89544768D01*
X92345934Y-89484700D01*
X92345932Y-89484699D01*
X92345934Y-89484699D01*
X92140000Y-89464417D01*
X91934067Y-89484699D01*
X91758692Y-89537898D01*
X91736050Y-89544767D01*
X91736043Y-89544769D01*
X91625898Y-89603643D01*
X91553550Y-89642315D01*
X91553548Y-89642316D01*
X91553547Y-89642317D01*
X91393589Y-89773589D01*
X91262317Y-89933547D01*
X91164769Y-90116043D01*
X91104699Y-90314067D01*
X91084417Y-90520000D01*
X90655583Y-90520000D01*
X90635300Y-90314066D01*
X90575232Y-90116046D01*
X90477685Y-89933550D01*
X90425702Y-89870209D01*
X90346410Y-89773589D01*
X90186452Y-89642317D01*
X90186453Y-89642317D01*
X90186450Y-89642315D01*
X90003954Y-89544768D01*
X89937447Y-89524593D01*
X89879009Y-89486296D01*
X89850553Y-89422484D01*
X89861113Y-89353417D01*
X89907337Y-89301023D01*
X89941350Y-89286158D01*
X90063483Y-89253433D01*
X90063492Y-89253429D01*
X90277578Y-89153600D01*
X90471082Y-89018105D01*
X90638105Y-88851082D01*
X90773600Y-88657578D01*
X90873429Y-88443492D01*
X90873433Y-88443483D01*
X90906158Y-88321350D01*
X90942522Y-88261690D01*
X91005369Y-88231160D01*
X91074745Y-88239454D01*
X91128623Y-88283939D01*
X91144593Y-88317447D01*
X91164768Y-88383954D01*
X91262315Y-88566450D01*
X91262317Y-88566452D01*
X91393589Y-88726410D01*
X91490209Y-88805702D01*
X91553550Y-88857685D01*
X91736046Y-88955232D01*
X91934066Y-89015300D01*
X91934065Y-89015300D01*
X91952529Y-89017118D01*
X92140000Y-89035583D01*
X92345934Y-89015300D01*
X92543954Y-88955232D01*
X92726450Y-88857685D01*
X92886410Y-88726410D01*
X93017685Y-88566450D01*
X93115232Y-88383954D01*
X93175300Y-88185934D01*
X93195583Y-87980000D01*
X93175300Y-87774066D01*
X93115232Y-87576046D01*
X93017685Y-87393550D01*
X92942897Y-87302420D01*
X92886410Y-87233589D01*
X92759858Y-87129732D01*
X92726450Y-87102315D01*
X92543954Y-87004768D01*
X92345934Y-86944700D01*
X92345932Y-86944699D01*
X92345934Y-86944699D01*
X92140000Y-86924417D01*
X91934067Y-86944699D01*
X91736043Y-87004769D01*
X91666295Y-87042051D01*
X91553550Y-87102315D01*
X91553548Y-87102316D01*
X91553547Y-87102317D01*
X91393589Y-87233589D01*
X91262317Y-87393547D01*
X91164767Y-87576046D01*
X91144593Y-87642552D01*
X91106296Y-87700990D01*
X91042483Y-87729447D01*
X90973416Y-87718886D01*
X90921023Y-87672661D01*
X90906158Y-87638649D01*
X90873433Y-87516516D01*
X90873429Y-87516507D01*
X90773600Y-87302422D01*
X90773599Y-87302420D01*
X90638113Y-87108926D01*
X90638108Y-87108920D01*
X90471082Y-86941894D01*
X90277578Y-86806399D01*
X90063495Y-86706571D01*
X89992405Y-86687522D01*
X89932745Y-86651156D01*
X89902217Y-86588309D01*
X89900500Y-86567747D01*
X89900500Y-86538578D01*
X89920185Y-86471539D01*
X89972989Y-86425784D01*
X89988488Y-86419923D01*
X90003954Y-86415232D01*
X90186450Y-86317685D01*
X90346410Y-86186410D01*
X90477685Y-86026450D01*
X90575232Y-85843954D01*
X90635300Y-85645934D01*
X90655583Y-85440000D01*
X91084417Y-85440000D01*
X91104699Y-85645932D01*
X91104700Y-85645934D01*
X91164768Y-85843954D01*
X91262315Y-86026450D01*
X91262317Y-86026452D01*
X91393589Y-86186410D01*
X91490209Y-86265702D01*
X91553550Y-86317685D01*
X91736046Y-86415232D01*
X91934066Y-86475300D01*
X91934065Y-86475300D01*
X91952529Y-86477118D01*
X92140000Y-86495583D01*
X92345934Y-86475300D01*
X92543954Y-86415232D01*
X92726450Y-86317685D01*
X92886410Y-86186410D01*
X93017685Y-86026450D01*
X93115232Y-85843954D01*
X93175300Y-85645934D01*
X93195583Y-85440000D01*
X93175300Y-85234066D01*
X93115232Y-85036046D01*
X93017685Y-84853550D01*
X92965702Y-84790209D01*
X92886410Y-84693589D01*
X92726452Y-84562317D01*
X92726453Y-84562317D01*
X92726450Y-84562315D01*
X92543954Y-84464768D01*
X92345934Y-84404700D01*
X92345932Y-84404699D01*
X92345934Y-84404699D01*
X92140000Y-84384417D01*
X91934067Y-84404699D01*
X91736043Y-84464769D01*
X91625898Y-84523643D01*
X91553550Y-84562315D01*
X91553548Y-84562316D01*
X91553547Y-84562317D01*
X91393589Y-84693589D01*
X91262317Y-84853547D01*
X91164769Y-85036043D01*
X91104699Y-85234067D01*
X91084417Y-85440000D01*
X90655583Y-85440000D01*
X90635300Y-85234066D01*
X90575232Y-85036046D01*
X90477685Y-84853550D01*
X90425702Y-84790209D01*
X90346410Y-84693589D01*
X90186452Y-84562317D01*
X90186453Y-84562317D01*
X90186450Y-84562315D01*
X90003954Y-84464768D01*
X89900512Y-84433389D01*
X89842074Y-84395092D01*
X89813618Y-84331280D01*
X89824178Y-84262213D01*
X89838141Y-84239231D01*
X89840453Y-84236217D01*
X89840460Y-84236211D01*
X89840464Y-84236203D01*
X89840467Y-84236200D01*
X89862131Y-84198673D01*
X89880021Y-84167689D01*
X89900500Y-84091262D01*
X89900500Y-83998578D01*
X89920185Y-83931539D01*
X89972989Y-83885784D01*
X89988488Y-83879923D01*
X90003954Y-83875232D01*
X90186450Y-83777685D01*
X90346410Y-83646410D01*
X90477685Y-83486450D01*
X90575232Y-83303954D01*
X90635300Y-83105934D01*
X90655583Y-82900000D01*
X90635300Y-82694066D01*
X90575232Y-82496046D01*
X90477685Y-82313550D01*
X90403578Y-82223250D01*
X90346410Y-82153589D01*
X90186452Y-82022317D01*
X90186453Y-82022317D01*
X90186450Y-82022315D01*
X90003954Y-81924768D01*
X89805934Y-81864700D01*
X89805932Y-81864699D01*
X89805934Y-81864699D01*
X89600000Y-81844417D01*
X89394067Y-81864699D01*
X89218692Y-81917898D01*
X89196050Y-81924767D01*
X89196043Y-81924769D01*
X89085898Y-81983643D01*
X89013550Y-82022315D01*
X89013548Y-82022316D01*
X89013547Y-82022317D01*
X88853589Y-82153589D01*
X88722317Y-82313547D01*
X88624769Y-82496043D01*
X88564699Y-82694067D01*
X88544417Y-82900000D01*
X88564699Y-83105932D01*
X88564700Y-83105934D01*
X88624768Y-83303954D01*
X88722315Y-83486450D01*
X88728507Y-83493995D01*
X88853589Y-83646410D01*
X88988856Y-83757419D01*
X89028191Y-83815165D01*
X89030062Y-83885009D01*
X88997873Y-83940954D01*
X86225389Y-86713440D01*
X86169441Y-86769387D01*
X86169435Y-86769395D01*
X86129882Y-86837904D01*
X86129879Y-86837909D01*
X86120819Y-86871721D01*
X86109400Y-86914338D01*
X85558910Y-86914338D01*
X85576158Y-80360000D01*
X88544417Y-80360000D01*
X88564699Y-80565932D01*
X88570225Y-80584148D01*
X88624768Y-80763954D01*
X88722315Y-80946450D01*
X88722317Y-80946452D01*
X88853589Y-81106410D01*
X88904176Y-81147925D01*
X89013550Y-81237685D01*
X89196046Y-81335232D01*
X89394066Y-81395300D01*
X89394065Y-81395300D01*
X89412529Y-81397118D01*
X89600000Y-81415583D01*
X89805934Y-81395300D01*
X90003954Y-81335232D01*
X90186450Y-81237685D01*
X90346410Y-81106410D01*
X90477685Y-80946450D01*
X90575232Y-80763954D01*
X90595406Y-80697446D01*
X90633702Y-80639010D01*
X90697514Y-80610553D01*
X90766581Y-80621112D01*
X90818975Y-80667336D01*
X90833841Y-80701349D01*
X90866567Y-80823486D01*
X90866570Y-80823492D01*
X90966399Y-81037578D01*
X91101894Y-81231082D01*
X91268917Y-81398105D01*
X91462421Y-81533600D01*
X91676507Y-81633429D01*
X91676516Y-81633433D01*
X91798649Y-81666158D01*
X91858310Y-81702523D01*
X91888839Y-81765369D01*
X91880545Y-81834745D01*
X91836059Y-81888623D01*
X91802552Y-81904593D01*
X91736046Y-81924767D01*
X91605358Y-81994622D01*
X91553550Y-82022315D01*
X91553548Y-82022316D01*
X91553547Y-82022317D01*
X91393589Y-82153589D01*
X91262317Y-82313547D01*
X91164769Y-82496043D01*
X91104699Y-82694067D01*
X91084417Y-82900000D01*
X91104699Y-83105932D01*
X91104700Y-83105934D01*
X91164768Y-83303954D01*
X91262315Y-83486450D01*
X91268507Y-83493995D01*
X91393589Y-83646410D01*
X91490209Y-83725702D01*
X91553550Y-83777685D01*
X91736046Y-83875232D01*
X91934066Y-83935300D01*
X91934065Y-83935300D01*
X91952529Y-83937118D01*
X92140000Y-83955583D01*
X92345934Y-83935300D01*
X92543954Y-83875232D01*
X92726450Y-83777685D01*
X92886410Y-83646410D01*
X93017685Y-83486450D01*
X93115232Y-83303954D01*
X93175300Y-83105934D01*
X93195583Y-82900000D01*
X93175300Y-82694066D01*
X93115232Y-82496046D01*
X93017685Y-82313550D01*
X92943578Y-82223250D01*
X92886410Y-82153589D01*
X92726452Y-82022317D01*
X92726453Y-82022317D01*
X92726450Y-82022315D01*
X92543954Y-81924768D01*
X92477447Y-81904593D01*
X92419009Y-81866296D01*
X92390553Y-81802484D01*
X92401113Y-81733417D01*
X92447337Y-81681023D01*
X92481350Y-81666158D01*
X92603483Y-81633433D01*
X92603492Y-81633429D01*
X92817578Y-81533600D01*
X93011082Y-81398105D01*
X93178105Y-81231082D01*
X93313600Y-81037578D01*
X93413429Y-80823492D01*
X93413432Y-80823486D01*
X93470636Y-80610000D01*
X92573012Y-80610000D01*
X92605925Y-80552993D01*
X92640000Y-80425826D01*
X92640000Y-80294174D01*
X92605925Y-80167007D01*
X92573012Y-80110000D01*
X93470636Y-80110000D01*
X93470635Y-80109999D01*
X93413432Y-79896513D01*
X93413429Y-79896507D01*
X93313600Y-79682422D01*
X93313599Y-79682420D01*
X93178113Y-79488926D01*
X93178108Y-79488920D01*
X93011082Y-79321894D01*
X92817578Y-79186399D01*
X92603492Y-79086570D01*
X92603486Y-79086567D01*
X92390000Y-79029364D01*
X92390000Y-79926988D01*
X92332993Y-79894075D01*
X92205826Y-79860000D01*
X92074174Y-79860000D01*
X91947007Y-79894075D01*
X91890000Y-79926988D01*
X91890000Y-79029364D01*
X91889999Y-79029364D01*
X91676513Y-79086567D01*
X91676507Y-79086570D01*
X91462422Y-79186399D01*
X91462420Y-79186400D01*
X91268926Y-79321886D01*
X91268920Y-79321891D01*
X91101891Y-79488920D01*
X91101886Y-79488926D01*
X90966400Y-79682420D01*
X90966399Y-79682422D01*
X90866570Y-79896507D01*
X90866567Y-79896514D01*
X90833841Y-80018650D01*
X90797476Y-80078310D01*
X90734629Y-80108839D01*
X90665253Y-80100544D01*
X90611375Y-80056059D01*
X90595406Y-80022553D01*
X90575232Y-79956046D01*
X90477685Y-79773550D01*
X90425702Y-79710209D01*
X90346410Y-79613589D01*
X90228677Y-79516969D01*
X90186450Y-79482315D01*
X90003954Y-79384768D01*
X89805934Y-79324700D01*
X89805932Y-79324699D01*
X89805934Y-79324699D01*
X89600000Y-79304417D01*
X89394067Y-79324699D01*
X89196043Y-79384769D01*
X89143415Y-79412900D01*
X89013550Y-79482315D01*
X89013548Y-79482316D01*
X89013547Y-79482317D01*
X88853589Y-79613589D01*
X88722317Y-79773547D01*
X88624769Y-79956043D01*
X88564699Y-80154067D01*
X88544417Y-80360000D01*
X85576158Y-80360000D01*
X85590595Y-74874038D01*
X87399500Y-74874038D01*
X87399500Y-75125962D01*
X87426138Y-75294145D01*
X87438910Y-75374785D01*
X87516760Y-75614383D01*
X87587738Y-75753683D01*
X87627981Y-75832665D01*
X87631132Y-75838848D01*
X87779201Y-76042649D01*
X87779205Y-76042654D01*
X87957345Y-76220794D01*
X87957350Y-76220798D01*
X88103987Y-76327335D01*
X88161155Y-76368870D01*
X88260281Y-76419377D01*
X88385616Y-76483239D01*
X88385618Y-76483239D01*
X88385621Y-76483241D01*
X88625215Y-76561090D01*
X88874038Y-76600500D01*
X88874039Y-76600500D01*
X89125961Y-76600500D01*
X89125962Y-76600500D01*
X89374785Y-76561090D01*
X89614379Y-76483241D01*
X89838845Y-76368870D01*
X90042656Y-76220793D01*
X90220793Y-76042656D01*
X90368870Y-75838845D01*
X90483241Y-75614379D01*
X90561090Y-75374785D01*
X90600500Y-75125962D01*
X90600500Y-74874038D01*
X90561090Y-74625215D01*
X90483241Y-74385621D01*
X90483239Y-74385618D01*
X90483239Y-74385616D01*
X90424597Y-74270526D01*
X90368870Y-74161155D01*
X90349952Y-74135117D01*
X90220798Y-73957350D01*
X90220794Y-73957345D01*
X90042654Y-73779205D01*
X90042649Y-73779201D01*
X89838848Y-73631132D01*
X89838847Y-73631131D01*
X89838845Y-73631130D01*
X89768747Y-73595413D01*
X89614383Y-73516760D01*
X89374785Y-73438910D01*
X89125962Y-73399500D01*
X88874038Y-73399500D01*
X88749626Y-73419205D01*
X88625214Y-73438910D01*
X88385616Y-73516760D01*
X88161151Y-73631132D01*
X87957350Y-73779201D01*
X87957345Y-73779205D01*
X87779205Y-73957345D01*
X87779201Y-73957350D01*
X87631132Y-74161151D01*
X87516760Y-74385616D01*
X87438910Y-74625214D01*
X87428227Y-74692665D01*
X87399500Y-74874038D01*
X85590595Y-74874038D01*
X85599411Y-71524174D01*
X85619272Y-71457186D01*
X85672197Y-71411570D01*
X85723411Y-71400500D01*
X174276424Y-71400500D01*
X174343463Y-71420185D01*
G37*
%TD.AperFunction*%
%TD*%
M02*
