%TF.GenerationSoftware,KiCad,Pcbnew,8.0.5*%
%TF.CreationDate,2024-10-20T15:20:27-04:00*%
%TF.ProjectId,Jetson_Extension_Board,4a657473-6f6e-45f4-9578-74656e73696f,rev?*%
%TF.SameCoordinates,Original*%
%TF.FileFunction,Copper,L2,Bot*%
%TF.FilePolarity,Positive*%
%FSLAX46Y46*%
G04 Gerber Fmt 4.6, Leading zero omitted, Abs format (unit mm)*
G04 Created by KiCad (PCBNEW 8.0.5) date 2024-10-20 15:20:27*
%MOMM*%
%LPD*%
G01*
G04 APERTURE LIST*
%TA.AperFunction,ComponentPad*%
%ADD10R,2.100000X2.100000*%
%TD*%
%TA.AperFunction,ComponentPad*%
%ADD11C,2.100000*%
%TD*%
%TA.AperFunction,ComponentPad*%
%ADD12R,1.700000X1.700000*%
%TD*%
%TA.AperFunction,ComponentPad*%
%ADD13O,1.700000X1.700000*%
%TD*%
%TA.AperFunction,ComponentPad*%
%ADD14R,1.600000X1.600000*%
%TD*%
%TA.AperFunction,ComponentPad*%
%ADD15O,1.600000X1.600000*%
%TD*%
%TA.AperFunction,ViaPad*%
%ADD16C,0.600000*%
%TD*%
%TA.AperFunction,Conductor*%
%ADD17C,0.200000*%
%TD*%
G04 APERTURE END LIST*
D10*
%TO.P,J3,1,1*%
%TO.N,GND*%
X147766667Y-154162500D03*
D11*
%TO.P,J3,2,2*%
%TO.N,Net-(J3-Pad2)*%
X147766667Y-150662500D03*
%TO.P,J3,3,3*%
%TO.N,5V*%
X147766667Y-147162500D03*
%TD*%
D10*
%TO.P,J7,1,1*%
%TO.N,3.3V*%
X167000000Y-142000000D03*
D11*
%TO.P,J7,2,2*%
%TO.N,/ADC/Signal 1*%
X167000000Y-145500000D03*
%TO.P,J7,3,3*%
%TO.N,GND*%
X167000000Y-149000000D03*
%TD*%
D10*
%TO.P,J4,1,1*%
%TO.N,GND*%
X136933334Y-154162500D03*
D11*
%TO.P,J4,2,2*%
%TO.N,Net-(J4-Pad2)*%
X136933334Y-150662500D03*
%TO.P,J4,3,3*%
%TO.N,5V*%
X136933334Y-147162500D03*
%TD*%
D12*
%TO.P,J6,1,Pin_1*%
%TO.N,3.3V*%
X114000000Y-98560000D03*
D13*
%TO.P,J6,2,Pin_2*%
%TO.N,5V*%
X116540000Y-98560000D03*
%TO.P,J6,3,Pin_3*%
%TO.N,/I2C_2_SDA*%
X114000000Y-101100000D03*
%TO.P,J6,4,Pin_4*%
%TO.N,5V*%
X116540000Y-101100000D03*
%TO.P,J6,5,Pin_5*%
%TO.N,/I2C_2_SCL*%
X114000000Y-103640000D03*
%TO.P,J6,6,Pin_6*%
%TO.N,GND*%
X116540000Y-103640000D03*
%TO.P,J6,7,Pin_7*%
%TO.N,ADC ALERT*%
X114000000Y-106180000D03*
%TO.P,J6,8,Pin_8*%
%TO.N,/UART_2_TX*%
X116540000Y-106180000D03*
%TO.P,J6,9,Pin_9*%
%TO.N,GND*%
X114000000Y-108720000D03*
%TO.P,J6,10,Pin_10*%
%TO.N,/UART_2_RX*%
X116540000Y-108720000D03*
%TO.P,J6,11,Pin_11*%
%TO.N,/gpio50*%
X114000000Y-111260000D03*
%TO.P,J6,12,Pin_12*%
%TO.N,/gpio79*%
X116540000Y-111260000D03*
%TO.P,J6,13,Pin_13*%
%TO.N,/gpio14*%
X114000000Y-113800000D03*
%TO.P,J6,14,Pin_14*%
%TO.N,GND*%
X116540000Y-113800000D03*
%TO.P,J6,15,Pin_15*%
%TO.N,/gpio194*%
X114000000Y-116340000D03*
%TO.P,J6,16,Pin_16*%
%TO.N,/gpio232*%
X116540000Y-116340000D03*
%TO.P,J6,17,Pin_17*%
%TO.N,3.3V*%
X114000000Y-118880000D03*
%TO.P,J6,18,Pin_18*%
%TO.N,/gpio15*%
X116540000Y-118880000D03*
%TO.P,J6,19,Pin_19*%
%TO.N,/gpio16*%
X114000000Y-121420000D03*
%TO.P,J6,20,Pin_20*%
%TO.N,GND*%
X116540000Y-121420000D03*
%TO.P,J6,21,Pin_21*%
%TO.N,/gpio17*%
X114000000Y-123960000D03*
%TO.P,J6,22,Pin_22*%
%TO.N,/gpio13*%
X116540000Y-123960000D03*
%TO.P,J6,23,Pin_23*%
%TO.N,/gpio18*%
X114000000Y-126500000D03*
%TO.P,J6,24,Pin_24*%
%TO.N,/gpio19*%
X116540000Y-126500000D03*
%TO.P,J6,25,Pin_25*%
%TO.N,GND*%
X114000000Y-129040000D03*
%TO.P,J6,26,Pin_26*%
%TO.N,/gpio20*%
X116540000Y-129040000D03*
%TO.P,J6,27,Pin_27*%
%TO.N,/I2C_1_SDA*%
X114000000Y-131580000D03*
%TO.P,J6,28,Pin_28*%
%TO.N,/I2C_1_SCL*%
X116540000Y-131580000D03*
%TO.P,J6,29,Pin_29*%
%TO.N,IMU nRESET*%
X114000000Y-134120000D03*
%TO.P,J6,30,Pin_30*%
%TO.N,GND*%
X116540000Y-134120000D03*
%TO.P,J6,31,Pin_31*%
%TO.N,IMU INT*%
X114000000Y-136660000D03*
%TO.P,J6,32,Pin_32*%
%TO.N,ST 1*%
X116540000Y-136660000D03*
%TO.P,J6,33,Pin_33*%
%TO.N,IMU nBOOT*%
X114000000Y-139200000D03*
%TO.P,J6,34,Pin_34*%
%TO.N,GND*%
X116540000Y-139200000D03*
%TO.P,J6,35,Pin_35*%
%TO.N,COM 3*%
X114000000Y-141740000D03*
%TO.P,J6,36,Pin_36*%
%TO.N,ST 2*%
X116540000Y-141740000D03*
%TO.P,J6,37,Pin_37*%
%TO.N,/gpio12*%
X114000000Y-144280000D03*
%TO.P,J6,38,Pin_38*%
%TO.N,ST 3*%
X116540000Y-144280000D03*
%TO.P,J6,39,Pin_39*%
%TO.N,GND*%
X114000000Y-146820000D03*
%TO.P,J6,40,Pin_40*%
%TO.N,ST 4*%
X116540000Y-146820000D03*
%TD*%
D10*
%TO.P,J10,1,1*%
%TO.N,3.3V*%
X167000000Y-96500000D03*
D11*
%TO.P,J10,2,2*%
%TO.N,/ADC/Signal 4*%
X167000000Y-100000000D03*
%TO.P,J10,3,3*%
%TO.N,GND*%
X167000000Y-103500000D03*
%TD*%
D10*
%TO.P,J8,1,1*%
%TO.N,3.3V*%
X167000000Y-126833332D03*
D11*
%TO.P,J8,2,2*%
%TO.N,/ADC/Signal 2*%
X167000000Y-130333332D03*
%TO.P,J8,3,3*%
%TO.N,GND*%
X167000000Y-133833332D03*
%TD*%
D10*
%TO.P,J9,1,1*%
%TO.N,3.3V*%
X167000000Y-111666666D03*
D11*
%TO.P,J9,2,2*%
%TO.N,/ADC/Signal 3*%
X167000000Y-115166666D03*
%TO.P,J9,3,3*%
%TO.N,GND*%
X167000000Y-118666666D03*
%TD*%
D14*
%TO.P,U2,1*%
%TO.N,Net-(J2-Pad2)*%
X151260000Y-128662500D03*
D15*
%TO.P,U2,2*%
%TO.N,ST 1*%
X148720000Y-128662500D03*
%TO.P,U2,3*%
%TO.N,Net-(J3-Pad2)*%
X146180000Y-128662500D03*
%TO.P,U2,4*%
%TO.N,ST 2*%
X143640000Y-128662500D03*
%TO.P,U2,5*%
%TO.N,Net-(J4-Pad2)*%
X141100000Y-128662500D03*
%TO.P,U2,6*%
%TO.N,ST 3*%
X138560000Y-128662500D03*
%TO.P,U2,7,GND*%
%TO.N,GND*%
X136020000Y-128662500D03*
%TO.P,U2,8*%
%TO.N,ST 4*%
X136020000Y-136282500D03*
%TO.P,U2,9*%
%TO.N,Net-(J5-Pad2)*%
X138560000Y-136282500D03*
%TO.P,U2,10*%
%TO.N,unconnected-(U2-Pad10)*%
X141100000Y-136282500D03*
%TO.P,U2,11*%
%TO.N,unconnected-(U2-Pad11)*%
X143640000Y-136282500D03*
%TO.P,U2,12*%
%TO.N,unconnected-(U2-Pad12)*%
X146180000Y-136282500D03*
%TO.P,U2,13*%
%TO.N,unconnected-(U2-Pad13)*%
X148720000Y-136282500D03*
%TO.P,U2,14,5V*%
%TO.N,5V*%
X151260000Y-136282500D03*
%TD*%
D10*
%TO.P,J2,1,1*%
%TO.N,GND*%
X158600000Y-154162500D03*
D11*
%TO.P,J2,2,2*%
%TO.N,Net-(J2-Pad2)*%
X158600000Y-150662500D03*
%TO.P,J2,3,3*%
%TO.N,5V*%
X158600000Y-147162500D03*
%TD*%
D10*
%TO.P,J5,1,1*%
%TO.N,GND*%
X126100000Y-154162500D03*
D11*
%TO.P,J5,2,2*%
%TO.N,Net-(J5-Pad2)*%
X126100000Y-150662500D03*
%TO.P,J5,3,3*%
%TO.N,5V*%
X126100000Y-147162500D03*
%TD*%
D16*
%TO.N,GND*%
X154051000Y-107061000D03*
X131064000Y-118207500D03*
X138557000Y-118491000D03*
X140335000Y-120269000D03*
%TO.N,3.3V*%
X122682000Y-99441000D03*
X156591000Y-115132500D03*
X111633000Y-118745000D03*
%TO.N,IMU nBOOT*%
X119888000Y-130810000D03*
X147320000Y-113030000D03*
%TO.N,IMU nRESET*%
X127762000Y-121158000D03*
%TO.N,/I2C_2_SDA*%
X140081000Y-117221000D03*
X151130000Y-100330000D03*
X149098000Y-96647000D03*
%TO.N,/I2C_2_SCL*%
X138938000Y-114620000D03*
X144653000Y-95885000D03*
X149987000Y-102489000D03*
%TO.N,IMU INT*%
X141097000Y-110617000D03*
%TO.N,COM 3*%
X138303000Y-110744000D03*
X123825000Y-117221000D03*
%TD*%
D17*
%TO.N,GND*%
X147766667Y-154162500D02*
X158600000Y-154162500D01*
X154051000Y-107061000D02*
X163439000Y-107061000D01*
X169000000Y-105500000D02*
X167000000Y-103500000D01*
X140335000Y-120269000D02*
X138557000Y-118491000D01*
X120947500Y-118207500D02*
X121793000Y-118207500D01*
X136933334Y-154162500D02*
X147766667Y-154162500D01*
X131064000Y-118207500D02*
X121793000Y-118207500D01*
X121342500Y-154162500D02*
X126100000Y-154162500D01*
X169500000Y-121166666D02*
X167000000Y-118666666D01*
X169500000Y-131333332D02*
X169500000Y-121166666D01*
X126100000Y-154162500D02*
X136933334Y-154162500D01*
X163439000Y-107061000D02*
X167000000Y-103500000D01*
X167000000Y-118666666D02*
X169000000Y-116666666D01*
X167000000Y-149000000D02*
X169000000Y-147000000D01*
X158600000Y-154162500D02*
X161837500Y-154162500D01*
X169000000Y-116666666D02*
X169000000Y-105500000D01*
X116540000Y-113800000D02*
X120947500Y-118207500D01*
X121793000Y-118207500D02*
X119752500Y-118207500D01*
X169000000Y-135833332D02*
X167000000Y-133833332D01*
X161837500Y-154162500D02*
X167000000Y-149000000D01*
X169000000Y-147000000D02*
X169000000Y-135833332D01*
X167000000Y-133833332D02*
X169500000Y-131333332D01*
X114000000Y-146820000D02*
X121342500Y-154162500D01*
X119752500Y-118207500D02*
X116540000Y-121420000D01*
%TO.N,3.3V*%
X111633000Y-118745000D02*
X111633000Y-109220654D01*
X160056834Y-111666666D02*
X167000000Y-111666666D01*
X113523654Y-107330000D02*
X117016346Y-107330000D01*
X156591000Y-115132500D02*
X160056834Y-111666666D01*
X111633000Y-109220654D02*
X113523654Y-107330000D01*
X122682000Y-101664346D02*
X122682000Y-99441000D01*
X117016346Y-107330000D02*
X122682000Y-101664346D01*
%TO.N,Net-(J2-Pad2)*%
X158600000Y-150662500D02*
X155500000Y-147562500D01*
X153162500Y-128662500D02*
X151260000Y-128662500D01*
X155500000Y-131000000D02*
X153162500Y-128662500D01*
X155500000Y-147562500D02*
X155500000Y-131000000D01*
%TO.N,5V*%
X116540000Y-98560000D02*
X116540000Y-101100000D01*
%TO.N,Net-(J3-Pad2)*%
X145500000Y-146000000D02*
X147500000Y-144000000D01*
X145500000Y-148395833D02*
X145500000Y-146000000D01*
X147766667Y-150662500D02*
X145500000Y-148395833D01*
X147500000Y-144000000D02*
X147500000Y-129982500D01*
X147500000Y-129982500D02*
X146180000Y-128662500D01*
%TO.N,Net-(J4-Pad2)*%
X139827000Y-129935500D02*
X141100000Y-128662500D01*
X139827000Y-147768834D02*
X139827000Y-129935500D01*
X136933334Y-150662500D02*
X139827000Y-147768834D01*
%TO.N,Net-(J5-Pad2)*%
X126100000Y-150662500D02*
X138560000Y-138202500D01*
X138560000Y-138202500D02*
X138560000Y-136282500D01*
%TO.N,ST 4*%
X127077500Y-136282500D02*
X116540000Y-146820000D01*
X136020000Y-136282500D02*
X127077500Y-136282500D01*
%TO.N,IMU nBOOT*%
X144307000Y-110017000D02*
X140681000Y-110017000D01*
X147320000Y-113030000D02*
X144307000Y-110017000D01*
X140681000Y-110017000D02*
X119888000Y-130810000D01*
%TO.N,IMU nRESET*%
X115316000Y-130683000D02*
X115316000Y-132804000D01*
X127762000Y-121158000D02*
X118618000Y-130302000D01*
X115316000Y-132804000D02*
X114000000Y-134120000D01*
X115697000Y-130302000D02*
X115316000Y-130683000D01*
X118618000Y-130302000D02*
X115697000Y-130302000D01*
%TO.N,/I2C_2_SDA*%
X140081000Y-117221000D02*
X147701000Y-117221000D01*
X151130000Y-100330000D02*
X151130000Y-98679000D01*
X147701000Y-117221000D02*
X151130000Y-113792000D01*
X151130000Y-98679000D02*
X149098000Y-96647000D01*
X151130000Y-113792000D02*
X151130000Y-100330000D01*
%TO.N,/I2C_2_SCL*%
X149987000Y-101219000D02*
X149987000Y-102489000D01*
X139253000Y-114935000D02*
X147320000Y-114935000D01*
X147320000Y-114935000D02*
X149987000Y-112268000D01*
X144653000Y-95885000D02*
X149987000Y-101219000D01*
X149987000Y-112268000D02*
X149987000Y-102489000D01*
X138938000Y-114620000D02*
X139253000Y-114935000D01*
%TO.N,ST 1*%
X145279500Y-125222000D02*
X127978000Y-125222000D01*
X148720000Y-128662500D02*
X145279500Y-125222000D01*
X127978000Y-125222000D02*
X116540000Y-136660000D01*
%TO.N,ST 3*%
X116540000Y-144280000D02*
X126073000Y-134747000D01*
X126073000Y-134747000D02*
X132475500Y-134747000D01*
X132475500Y-134747000D02*
X138560000Y-128662500D01*
%TO.N,IMU INT*%
X115278000Y-135382000D02*
X114000000Y-136660000D01*
X117094000Y-135382000D02*
X115278000Y-135382000D01*
X141097000Y-110617000D02*
X141097000Y-111379000D01*
X141097000Y-111379000D02*
X117094000Y-135382000D01*
%TO.N,COM 3*%
X138303000Y-110744000D02*
X131826000Y-117221000D01*
X131826000Y-117221000D02*
X123825000Y-117221000D01*
%TO.N,ST 2*%
X116540000Y-141740000D02*
X132042000Y-126238000D01*
X132042000Y-126238000D02*
X141215500Y-126238000D01*
X141215500Y-126238000D02*
X143640000Y-128662500D01*
%TD*%
M02*
