%TF.GenerationSoftware,KiCad,Pcbnew,8.0.5*%
%TF.CreationDate,2024-10-20T15:20:27-04:00*%
%TF.ProjectId,Jetson_Extension_Board,4a657473-6f6e-45f4-9578-74656e73696f,rev?*%
%TF.SameCoordinates,Original*%
%TF.FileFunction,Copper,L1,Top*%
%TF.FilePolarity,Positive*%
%FSLAX46Y46*%
G04 Gerber Fmt 4.6, Leading zero omitted, Abs format (unit mm)*
G04 Created by KiCad (PCBNEW 8.0.5) date 2024-10-20 15:20:27*
%MOMM*%
%LPD*%
G01*
G04 APERTURE LIST*
G04 Aperture macros list*
%AMRoundRect*
0 Rectangle with rounded corners*
0 $1 Rounding radius*
0 $2 $3 $4 $5 $6 $7 $8 $9 X,Y pos of 4 corners*
0 Add a 4 corners polygon primitive as box body*
4,1,4,$2,$3,$4,$5,$6,$7,$8,$9,$2,$3,0*
0 Add four circle primitives for the rounded corners*
1,1,$1+$1,$2,$3*
1,1,$1+$1,$4,$5*
1,1,$1+$1,$6,$7*
1,1,$1+$1,$8,$9*
0 Add four rect primitives between the rounded corners*
20,1,$1+$1,$2,$3,$4,$5,0*
20,1,$1+$1,$4,$5,$6,$7,0*
20,1,$1+$1,$6,$7,$8,$9,0*
20,1,$1+$1,$8,$9,$2,$3,0*%
G04 Aperture macros list end*
%TA.AperFunction,ComponentPad*%
%ADD10R,2.100000X2.100000*%
%TD*%
%TA.AperFunction,ComponentPad*%
%ADD11C,2.100000*%
%TD*%
%TA.AperFunction,SMDPad,CuDef*%
%ADD12RoundRect,0.250000X0.625000X-0.312500X0.625000X0.312500X-0.625000X0.312500X-0.625000X-0.312500X0*%
%TD*%
%TA.AperFunction,SMDPad,CuDef*%
%ADD13R,0.250000X1.100000*%
%TD*%
%TA.AperFunction,ComponentPad*%
%ADD14R,1.700000X1.700000*%
%TD*%
%TA.AperFunction,ComponentPad*%
%ADD15O,1.700000X1.700000*%
%TD*%
%TA.AperFunction,SMDPad,CuDef*%
%ADD16RoundRect,0.250000X-0.325000X-0.650000X0.325000X-0.650000X0.325000X0.650000X-0.325000X0.650000X0*%
%TD*%
%TA.AperFunction,SMDPad,CuDef*%
%ADD17RoundRect,0.250000X0.325000X0.650000X-0.325000X0.650000X-0.325000X-0.650000X0.325000X-0.650000X0*%
%TD*%
%TA.AperFunction,SMDPad,CuDef*%
%ADD18RoundRect,0.250000X-0.650000X0.325000X-0.650000X-0.325000X0.650000X-0.325000X0.650000X0.325000X0*%
%TD*%
%TA.AperFunction,ComponentPad*%
%ADD19R,1.600000X1.600000*%
%TD*%
%TA.AperFunction,ComponentPad*%
%ADD20O,1.600000X1.600000*%
%TD*%
%TA.AperFunction,SMDPad,CuDef*%
%ADD21R,0.254000X0.675000*%
%TD*%
%TA.AperFunction,SMDPad,CuDef*%
%ADD22R,0.675000X0.254000*%
%TD*%
%TA.AperFunction,ViaPad*%
%ADD23C,0.600000*%
%TD*%
%TA.AperFunction,Conductor*%
%ADD24C,0.200000*%
%TD*%
G04 APERTURE END LIST*
D10*
%TO.P,J3,1,1*%
%TO.N,GND*%
X147766667Y-154162500D03*
D11*
%TO.P,J3,2,2*%
%TO.N,Net-(J3-Pad2)*%
X147766667Y-150662500D03*
%TO.P,J3,3,3*%
%TO.N,5V*%
X147766667Y-147162500D03*
%TD*%
D12*
%TO.P,R2,1*%
%TO.N,3.3V*%
X151097500Y-115132500D03*
%TO.P,R2,2*%
%TO.N,IMU nBOOT*%
X151097500Y-112207500D03*
%TD*%
D10*
%TO.P,J7,1,1*%
%TO.N,3.3V*%
X167000000Y-142000000D03*
D11*
%TO.P,J7,2,2*%
%TO.N,/ADC/Signal 1*%
X167000000Y-145500000D03*
%TO.P,J7,3,3*%
%TO.N,GND*%
X167000000Y-149000000D03*
%TD*%
D10*
%TO.P,J4,1,1*%
%TO.N,GND*%
X136933334Y-154162500D03*
D11*
%TO.P,J4,2,2*%
%TO.N,Net-(J4-Pad2)*%
X136933334Y-150662500D03*
%TO.P,J4,3,3*%
%TO.N,5V*%
X136933334Y-147162500D03*
%TD*%
D13*
%TO.P,U4,1,ADDR*%
%TO.N,unconnected-(U4-ADDR-Pad1)*%
X153000000Y-103650000D03*
%TO.P,U4,2,ALERT/RDY*%
%TO.N,ADC ALERT*%
X153500000Y-103650000D03*
%TO.P,U4,3,GND*%
%TO.N,GND*%
X154000000Y-103650000D03*
%TO.P,U4,4,AIN0*%
%TO.N,/ADC/Signal 1*%
X154500000Y-103650000D03*
%TO.P,U4,5,AIN1*%
%TO.N,/ADC/Signal 2*%
X155000000Y-103650000D03*
%TO.P,U4,6,AIN2*%
%TO.N,/ADC/Signal 3*%
X155000000Y-99350000D03*
%TO.P,U4,7,AIN3*%
%TO.N,/ADC/Signal 4*%
X154500000Y-99350000D03*
%TO.P,U4,8,VDD*%
%TO.N,3.3V*%
X154000000Y-99350000D03*
%TO.P,U4,9,SDA*%
%TO.N,/I2C_2_SDA*%
X153500000Y-99350000D03*
%TO.P,U4,10,SCL*%
%TO.N,/I2C_2_SCL*%
X153000000Y-99350000D03*
%TD*%
D14*
%TO.P,J6,1,Pin_1*%
%TO.N,3.3V*%
X114000000Y-98560000D03*
D15*
%TO.P,J6,2,Pin_2*%
%TO.N,5V*%
X116540000Y-98560000D03*
%TO.P,J6,3,Pin_3*%
%TO.N,/I2C_2_SDA*%
X114000000Y-101100000D03*
%TO.P,J6,4,Pin_4*%
%TO.N,5V*%
X116540000Y-101100000D03*
%TO.P,J6,5,Pin_5*%
%TO.N,/I2C_2_SCL*%
X114000000Y-103640000D03*
%TO.P,J6,6,Pin_6*%
%TO.N,GND*%
X116540000Y-103640000D03*
%TO.P,J6,7,Pin_7*%
%TO.N,ADC ALERT*%
X114000000Y-106180000D03*
%TO.P,J6,8,Pin_8*%
%TO.N,/UART_2_TX*%
X116540000Y-106180000D03*
%TO.P,J6,9,Pin_9*%
%TO.N,GND*%
X114000000Y-108720000D03*
%TO.P,J6,10,Pin_10*%
%TO.N,/UART_2_RX*%
X116540000Y-108720000D03*
%TO.P,J6,11,Pin_11*%
%TO.N,/gpio50*%
X114000000Y-111260000D03*
%TO.P,J6,12,Pin_12*%
%TO.N,/gpio79*%
X116540000Y-111260000D03*
%TO.P,J6,13,Pin_13*%
%TO.N,/gpio14*%
X114000000Y-113800000D03*
%TO.P,J6,14,Pin_14*%
%TO.N,GND*%
X116540000Y-113800000D03*
%TO.P,J6,15,Pin_15*%
%TO.N,/gpio194*%
X114000000Y-116340000D03*
%TO.P,J6,16,Pin_16*%
%TO.N,/gpio232*%
X116540000Y-116340000D03*
%TO.P,J6,17,Pin_17*%
%TO.N,3.3V*%
X114000000Y-118880000D03*
%TO.P,J6,18,Pin_18*%
%TO.N,/gpio15*%
X116540000Y-118880000D03*
%TO.P,J6,19,Pin_19*%
%TO.N,/gpio16*%
X114000000Y-121420000D03*
%TO.P,J6,20,Pin_20*%
%TO.N,GND*%
X116540000Y-121420000D03*
%TO.P,J6,21,Pin_21*%
%TO.N,/gpio17*%
X114000000Y-123960000D03*
%TO.P,J6,22,Pin_22*%
%TO.N,/gpio13*%
X116540000Y-123960000D03*
%TO.P,J6,23,Pin_23*%
%TO.N,/gpio18*%
X114000000Y-126500000D03*
%TO.P,J6,24,Pin_24*%
%TO.N,/gpio19*%
X116540000Y-126500000D03*
%TO.P,J6,25,Pin_25*%
%TO.N,GND*%
X114000000Y-129040000D03*
%TO.P,J6,26,Pin_26*%
%TO.N,/gpio20*%
X116540000Y-129040000D03*
%TO.P,J6,27,Pin_27*%
%TO.N,/I2C_1_SDA*%
X114000000Y-131580000D03*
%TO.P,J6,28,Pin_28*%
%TO.N,/I2C_1_SCL*%
X116540000Y-131580000D03*
%TO.P,J6,29,Pin_29*%
%TO.N,IMU nRESET*%
X114000000Y-134120000D03*
%TO.P,J6,30,Pin_30*%
%TO.N,GND*%
X116540000Y-134120000D03*
%TO.P,J6,31,Pin_31*%
%TO.N,IMU INT*%
X114000000Y-136660000D03*
%TO.P,J6,32,Pin_32*%
%TO.N,ST 1*%
X116540000Y-136660000D03*
%TO.P,J6,33,Pin_33*%
%TO.N,IMU nBOOT*%
X114000000Y-139200000D03*
%TO.P,J6,34,Pin_34*%
%TO.N,GND*%
X116540000Y-139200000D03*
%TO.P,J6,35,Pin_35*%
%TO.N,COM 3*%
X114000000Y-141740000D03*
%TO.P,J6,36,Pin_36*%
%TO.N,ST 2*%
X116540000Y-141740000D03*
%TO.P,J6,37,Pin_37*%
%TO.N,/gpio12*%
X114000000Y-144280000D03*
%TO.P,J6,38,Pin_38*%
%TO.N,ST 3*%
X116540000Y-144280000D03*
%TO.P,J6,39,Pin_39*%
%TO.N,GND*%
X114000000Y-146820000D03*
%TO.P,J6,40,Pin_40*%
%TO.N,ST 4*%
X116540000Y-146820000D03*
%TD*%
D10*
%TO.P,J10,1,1*%
%TO.N,3.3V*%
X167000000Y-96500000D03*
D11*
%TO.P,J10,2,2*%
%TO.N,/ADC/Signal 4*%
X167000000Y-100000000D03*
%TO.P,J10,3,3*%
%TO.N,GND*%
X167000000Y-103500000D03*
%TD*%
D16*
%TO.P,C7,1*%
%TO.N,GND*%
X142647500Y-120882500D03*
%TO.P,C7,2*%
%TO.N,3.3V*%
X145597500Y-120882500D03*
%TD*%
D10*
%TO.P,J8,1,1*%
%TO.N,3.3V*%
X167000000Y-126833332D03*
D11*
%TO.P,J8,2,2*%
%TO.N,/ADC/Signal 2*%
X167000000Y-130333332D03*
%TO.P,J8,3,3*%
%TO.N,GND*%
X167000000Y-133833332D03*
%TD*%
D10*
%TO.P,J9,1,1*%
%TO.N,3.3V*%
X167000000Y-111666666D03*
D11*
%TO.P,J9,2,2*%
%TO.N,/ADC/Signal 3*%
X167000000Y-115166666D03*
%TO.P,J9,3,3*%
%TO.N,GND*%
X167000000Y-118666666D03*
%TD*%
D17*
%TO.P,C8,1*%
%TO.N,Net-(U1-CAP)*%
X143097500Y-108458000D03*
%TO.P,C8,2*%
%TO.N,GND*%
X140147500Y-108458000D03*
%TD*%
D18*
%TO.P,C6,1*%
%TO.N,GND*%
X151097500Y-118257500D03*
%TO.P,C6,2*%
%TO.N,3.3V*%
X151097500Y-121207500D03*
%TD*%
%TO.P,C1,1*%
%TO.N,GND*%
X135597500Y-118207500D03*
%TO.P,C1,2*%
%TO.N,3.3V*%
X135597500Y-121157500D03*
%TD*%
D19*
%TO.P,U2,1*%
%TO.N,Net-(J2-Pad2)*%
X151260000Y-128662500D03*
D20*
%TO.P,U2,2*%
%TO.N,ST 1*%
X148720000Y-128662500D03*
%TO.P,U2,3*%
%TO.N,Net-(J3-Pad2)*%
X146180000Y-128662500D03*
%TO.P,U2,4*%
%TO.N,ST 2*%
X143640000Y-128662500D03*
%TO.P,U2,5*%
%TO.N,Net-(J4-Pad2)*%
X141100000Y-128662500D03*
%TO.P,U2,6*%
%TO.N,ST 3*%
X138560000Y-128662500D03*
%TO.P,U2,7,GND*%
%TO.N,GND*%
X136020000Y-128662500D03*
%TO.P,U2,8*%
%TO.N,ST 4*%
X136020000Y-136282500D03*
%TO.P,U2,9*%
%TO.N,Net-(J5-Pad2)*%
X138560000Y-136282500D03*
%TO.P,U2,10*%
%TO.N,unconnected-(U2-Pad10)*%
X141100000Y-136282500D03*
%TO.P,U2,11*%
%TO.N,unconnected-(U2-Pad11)*%
X143640000Y-136282500D03*
%TO.P,U2,12*%
%TO.N,unconnected-(U2-Pad12)*%
X146180000Y-136282500D03*
%TO.P,U2,13*%
%TO.N,unconnected-(U2-Pad13)*%
X148720000Y-136282500D03*
%TO.P,U2,14,5V*%
%TO.N,5V*%
X151260000Y-136282500D03*
%TD*%
D10*
%TO.P,J2,1,1*%
%TO.N,GND*%
X158600000Y-154162500D03*
D11*
%TO.P,J2,2,2*%
%TO.N,Net-(J2-Pad2)*%
X158600000Y-150662500D03*
%TO.P,J2,3,3*%
%TO.N,5V*%
X158600000Y-147162500D03*
%TD*%
D12*
%TO.P,R1,1*%
%TO.N,3.3V*%
X135597500Y-112207500D03*
%TO.P,R1,2*%
%TO.N,IMU nRESET*%
X135597500Y-109282500D03*
%TD*%
D10*
%TO.P,J5,1,1*%
%TO.N,GND*%
X126100000Y-154162500D03*
D11*
%TO.P,J5,2,2*%
%TO.N,Net-(J5-Pad2)*%
X126100000Y-150662500D03*
%TO.P,J5,3,3*%
%TO.N,5V*%
X126100000Y-147162500D03*
%TD*%
D21*
%TO.P,U1,1,PIN1*%
%TO.N,unconnected-(U1-PIN1-Pad1)*%
X144597500Y-115532500D03*
D22*
%TO.P,U1,2,GND*%
%TO.N,GND*%
X144735000Y-114620000D03*
%TO.P,U1,3,VDD*%
%TO.N,3.3V*%
X144735000Y-114120000D03*
%TO.P,U1,4,~{BOOT_LOAD_PIN}*%
%TO.N,IMU nBOOT*%
X144735000Y-113620000D03*
%TO.P,U1,5,PS1*%
%TO.N,GND*%
X144735000Y-113120000D03*
D21*
%TO.P,U1,6,PS0*%
X144597500Y-112207500D03*
%TO.P,U1,7,PIN7*%
%TO.N,unconnected-(U1-PIN7-Pad7)*%
X144097500Y-112207500D03*
%TO.P,U1,8,PIN8*%
%TO.N,unconnected-(U1-PIN8-Pad8)*%
X143597500Y-112207500D03*
%TO.P,U1,9,CAP*%
%TO.N,Net-(U1-CAP)*%
X143097500Y-112207500D03*
%TO.P,U1,10,BL_IND*%
%TO.N,GND*%
X142597500Y-112207500D03*
%TO.P,U1,11,~{RESET}*%
%TO.N,IMU nRESET*%
X142097500Y-112207500D03*
%TO.P,U1,12,PIN12*%
%TO.N,unconnected-(U1-PIN12-Pad12)*%
X141597500Y-112207500D03*
%TO.P,U1,13,PIN13*%
%TO.N,unconnected-(U1-PIN13-Pad13)*%
X141097500Y-112207500D03*
%TO.P,U1,14,INT*%
%TO.N,IMU INT*%
X140597500Y-112207500D03*
%TO.P,U1,15,GNDIO*%
%TO.N,GND*%
X140097500Y-112207500D03*
D22*
%TO.P,U1,16,GNDIO*%
X139960000Y-113120000D03*
%TO.P,U1,17,COM3*%
%TO.N,COM 3*%
X139960000Y-113620000D03*
%TO.P,U1,18,COM2*%
%TO.N,GND*%
X139960000Y-114120000D03*
%TO.P,U1,19,COM1*%
%TO.N,/I2C_2_SCL*%
X139960000Y-114620000D03*
D21*
%TO.P,U1,20,COM0*%
%TO.N,/I2C_2_SDA*%
X140097500Y-115532500D03*
%TO.P,U1,21,PIN21*%
%TO.N,unconnected-(U1-PIN21-Pad21)*%
X140597500Y-115532500D03*
%TO.P,U1,22,PIN22*%
%TO.N,unconnected-(U1-PIN22-Pad22)*%
X141097500Y-115532500D03*
%TO.P,U1,23,PIN23*%
%TO.N,unconnected-(U1-PIN23-Pad23)*%
X141597500Y-115532500D03*
%TO.P,U1,24,PIN24*%
%TO.N,unconnected-(U1-PIN24-Pad24)*%
X142097500Y-115532500D03*
%TO.P,U1,25,GNDIO*%
%TO.N,GND*%
X142597500Y-115532500D03*
%TO.P,U1,26,XOUT32*%
%TO.N,unconnected-(U1-XOUT32-Pad26)*%
X143097500Y-115532500D03*
%TO.P,U1,27,XIN32*%
%TO.N,unconnected-(U1-XIN32-Pad27)*%
X143597500Y-115532500D03*
%TO.P,U1,28,VDDIO*%
%TO.N,3.3V*%
X144097500Y-115532500D03*
%TD*%
D23*
%TO.N,GND*%
X154051000Y-107061000D03*
X131064000Y-118207500D03*
X138557000Y-118491000D03*
X140335000Y-120269000D03*
%TO.N,3.3V*%
X122682000Y-99441000D03*
X156591000Y-115132500D03*
X111633000Y-118745000D03*
%TO.N,IMU nBOOT*%
X119888000Y-130810000D03*
X147320000Y-113030000D03*
%TO.N,IMU nRESET*%
X127762000Y-121158000D03*
%TO.N,/I2C_2_SDA*%
X140081000Y-117221000D03*
X151130000Y-100330000D03*
X149098000Y-96647000D03*
%TO.N,/I2C_2_SCL*%
X138938000Y-114620000D03*
X144653000Y-95885000D03*
X149987000Y-102489000D03*
%TO.N,IMU INT*%
X141097000Y-110617000D03*
%TO.N,COM 3*%
X138303000Y-110744000D03*
X123825000Y-117221000D03*
%TD*%
D24*
%TO.N,GND*%
X113030000Y-140462000D02*
X113157000Y-140462000D01*
X140097500Y-112982500D02*
X139960000Y-113120000D01*
X151511000Y-108331000D02*
X151892000Y-108331000D01*
X115189000Y-109909000D02*
X114000000Y-108720000D01*
X142597500Y-115532500D02*
X142597500Y-114968000D01*
X139286529Y-114120000D02*
X138503765Y-113337235D01*
X118110000Y-106934000D02*
X118110000Y-105210000D01*
X114000000Y-146820000D02*
X111252000Y-144072000D01*
X142597500Y-114968000D02*
X142945500Y-114620000D01*
X139572500Y-108458000D02*
X140147500Y-108458000D01*
X113284000Y-135382000D02*
X112649000Y-136017000D01*
X118110000Y-105210000D02*
X116540000Y-103640000D01*
X145518500Y-113120000D02*
X146431000Y-112207500D01*
X143092000Y-113120000D02*
X144018000Y-114046000D01*
X146431000Y-112207500D02*
X147634500Y-112207500D01*
X112649000Y-140081000D02*
X113030000Y-140462000D01*
X111252000Y-144072000D02*
X111252000Y-141986000D01*
X139960000Y-113120000D02*
X142945500Y-113120000D01*
X136020000Y-127510000D02*
X142647500Y-120882500D01*
X144018000Y-114467500D02*
X144170500Y-114620000D01*
X115316000Y-132896000D02*
X115316000Y-130356000D01*
X115278000Y-135382000D02*
X113284000Y-135382000D01*
X137541000Y-110489500D02*
X139572500Y-108458000D01*
X112776000Y-140462000D02*
X113157000Y-140462000D01*
X116540000Y-134120000D02*
X115316000Y-132896000D01*
X153416000Y-121920000D02*
X153416000Y-120576000D01*
X139960000Y-114120000D02*
X139286529Y-114120000D01*
X144272000Y-114620000D02*
X144735000Y-114620000D01*
X138503765Y-113337235D02*
X138338000Y-113503000D01*
X143926500Y-122082500D02*
X144526000Y-122682000D01*
X154000000Y-107010000D02*
X154051000Y-107061000D01*
X117714000Y-107330000D02*
X118110000Y-106934000D01*
X139960000Y-113120000D02*
X139917000Y-113120000D01*
X154000000Y-103650000D02*
X154000000Y-107010000D01*
X138338000Y-118272000D02*
X138557000Y-118491000D01*
X114712314Y-140462000D02*
X115974314Y-139200000D01*
X144597500Y-112207500D02*
X146431000Y-112207500D01*
X140097500Y-112207500D02*
X140097500Y-112982500D01*
X134747000Y-123952000D02*
X139578000Y-123952000D01*
X113157000Y-140462000D02*
X114712314Y-140462000D01*
X116540000Y-134120000D02*
X115278000Y-135382000D01*
X137541000Y-112374471D02*
X137541000Y-110489500D01*
X114000000Y-108720000D02*
X115390000Y-107330000D01*
X116540000Y-113800000D02*
X115189000Y-112449000D01*
X135597500Y-118207500D02*
X131064000Y-118207500D01*
X139578000Y-123952000D02*
X142647500Y-120882500D01*
X142945500Y-113120000D02*
X143092000Y-113120000D01*
X133858000Y-123063000D02*
X134747000Y-123952000D01*
X151892000Y-108331000D02*
X153162000Y-107061000D01*
X144735000Y-113120000D02*
X145518500Y-113120000D01*
X115390000Y-107330000D02*
X117714000Y-107330000D01*
X115974314Y-139200000D02*
X116540000Y-139200000D01*
X144018000Y-114046000D02*
X144018000Y-114467500D01*
X153162000Y-107061000D02*
X154051000Y-107061000D01*
X144170500Y-114620000D02*
X144272000Y-114620000D01*
X142597500Y-112207500D02*
X142597500Y-112772000D01*
X115189000Y-112449000D02*
X115189000Y-109909000D01*
X136020000Y-128662500D02*
X136020000Y-127510000D01*
X140905236Y-120839236D02*
X140462000Y-120396000D01*
X142597500Y-112772000D02*
X142945500Y-113120000D01*
X133858000Y-119947000D02*
X133858000Y-123063000D01*
X153416000Y-120576000D02*
X151097500Y-118257500D01*
X112649000Y-136017000D02*
X112649000Y-140081000D01*
X140147500Y-108458000D02*
X140147500Y-112157500D01*
X138338000Y-113503000D02*
X138338000Y-118272000D01*
X147634500Y-112207500D02*
X151511000Y-108331000D01*
X142647500Y-120882500D02*
X143847500Y-122082500D01*
X142945500Y-113120000D02*
X144735000Y-113120000D01*
X144526000Y-122682000D02*
X152654000Y-122682000D01*
X152654000Y-122682000D02*
X153416000Y-121920000D01*
X115316000Y-130356000D02*
X114000000Y-129040000D01*
X142647500Y-120882500D02*
X140948500Y-120882500D01*
X142945500Y-114620000D02*
X144272000Y-114620000D01*
X138503765Y-113337235D02*
X137541000Y-112374471D01*
X143847500Y-122082500D02*
X143926500Y-122082500D01*
X135597500Y-118207500D02*
X133858000Y-119947000D01*
X140147500Y-112157500D02*
X140097500Y-112207500D01*
X111252000Y-141986000D02*
X112776000Y-140462000D01*
%TO.N,3.3V*%
X144097500Y-119382500D02*
X144097500Y-117983000D01*
X122682000Y-99441000D02*
X120650000Y-97409000D01*
X169000000Y-139500000D02*
X167000000Y-141500000D01*
X148590000Y-118745000D02*
X148590000Y-117640000D01*
X168500000Y-113166666D02*
X168500000Y-125333332D01*
X151097500Y-121207500D02*
X148635000Y-118745000D01*
X115152000Y-97410000D02*
X115151000Y-97409000D01*
X150085000Y-114120000D02*
X151097500Y-115132500D01*
X111768000Y-118880000D02*
X111633000Y-118745000D01*
X156647500Y-115132500D02*
X156718000Y-115062000D01*
X135597500Y-121157500D02*
X137629000Y-119126000D01*
X144735000Y-114120000D02*
X150085000Y-114120000D01*
X119126000Y-97409000D02*
X119125000Y-97410000D01*
X167000000Y-96500000D02*
X156075000Y-96500000D01*
X145597500Y-120882500D02*
X150772500Y-120882500D01*
X151097500Y-115132500D02*
X156591000Y-115132500D01*
X145597500Y-120882500D02*
X144097500Y-119382500D01*
X167000000Y-141500000D02*
X167000000Y-142000000D01*
X168500000Y-125333332D02*
X167000000Y-126833332D01*
X137629000Y-119126000D02*
X143841000Y-119126000D01*
X152635785Y-97410000D02*
X152634785Y-97409000D01*
X135597500Y-112207500D02*
X137629000Y-114239000D01*
X114000000Y-118880000D02*
X111768000Y-118880000D01*
X167000000Y-126833332D02*
X169000000Y-128833332D01*
X154000000Y-98575000D02*
X152835000Y-97410000D01*
X137629000Y-114239000D02*
X137629000Y-119126000D01*
X156075000Y-96500000D02*
X154000000Y-98575000D01*
X169000000Y-98500000D02*
X169000000Y-109666666D01*
X152835000Y-97410000D02*
X152635785Y-97410000D01*
X115151000Y-97409000D02*
X114000000Y-98560000D01*
X169000000Y-109666666D02*
X167000000Y-111666666D01*
X148635000Y-118745000D02*
X148590000Y-118745000D01*
X148590000Y-117640000D02*
X151097500Y-115132500D01*
X143841000Y-119126000D02*
X145597500Y-120882500D01*
X167000000Y-96500000D02*
X169000000Y-98500000D01*
X119125000Y-97410000D02*
X115152000Y-97410000D01*
X152634785Y-97409000D02*
X119126000Y-97409000D01*
X150772500Y-120882500D02*
X151097500Y-121207500D01*
X144097500Y-117983000D02*
X144097500Y-115532500D01*
X167000000Y-111666666D02*
X168500000Y-113166666D01*
X154000000Y-99350000D02*
X154000000Y-98575000D01*
X156591000Y-115132500D02*
X156647500Y-115132500D01*
X169000000Y-128833332D02*
X169000000Y-139500000D01*
%TO.N,Net-(U1-CAP)*%
X143097500Y-108458000D02*
X143097500Y-112207500D01*
%TO.N,5V*%
X126100000Y-147162500D02*
X126100000Y-110660000D01*
X126100000Y-147162500D02*
X136933334Y-147162500D01*
X147766667Y-147162500D02*
X147766667Y-139775833D01*
X147766667Y-139775833D02*
X151260000Y-136282500D01*
X136933334Y-147162500D02*
X147766667Y-147162500D01*
X126100000Y-110660000D02*
X116540000Y-101100000D01*
X158600000Y-147162500D02*
X147766667Y-147162500D01*
%TO.N,IMU nBOOT*%
X149685000Y-113620000D02*
X151097500Y-112207500D01*
X115278000Y-137922000D02*
X114000000Y-139200000D01*
X119888000Y-136017000D02*
X117983000Y-137922000D01*
X144735000Y-113620000D02*
X149685000Y-113620000D01*
X144735000Y-113620000D02*
X146730000Y-113620000D01*
X119888000Y-130810000D02*
X119888000Y-136017000D01*
X146730000Y-113620000D02*
X147320000Y-113030000D01*
X117983000Y-137922000D02*
X115278000Y-137922000D01*
%TO.N,IMU nRESET*%
X137622000Y-107258000D02*
X137622000Y-107234000D01*
X140256244Y-106807000D02*
X142097500Y-108648256D01*
X142097500Y-108648256D02*
X142097500Y-112207500D01*
X135597500Y-109282500D02*
X127762000Y-117118000D01*
X135597500Y-109282500D02*
X137622000Y-107258000D01*
X138049000Y-106807000D02*
X140256244Y-106807000D01*
X127762000Y-117118000D02*
X127762000Y-121158000D01*
X137622000Y-107234000D02*
X138049000Y-106807000D01*
%TO.N,/I2C_2_SDA*%
X113613000Y-96647000D02*
X149098000Y-96647000D01*
X140097500Y-115532500D02*
X140097500Y-117204500D01*
X140097500Y-117204500D02*
X140081000Y-117221000D01*
X112850000Y-97410000D02*
X113613000Y-96647000D01*
X153500000Y-100125000D02*
X153295000Y-100330000D01*
X114000000Y-101100000D02*
X112850000Y-99950000D01*
X112850000Y-99950000D02*
X112850000Y-97410000D01*
X153500000Y-99350000D02*
X153500000Y-100125000D01*
X153295000Y-100330000D02*
X151130000Y-100330000D01*
%TO.N,/I2C_2_SCL*%
X114000000Y-103640000D02*
X112450000Y-102090000D01*
X153000000Y-99350000D02*
X151261471Y-99350000D01*
X112450000Y-102090000D02*
X112450000Y-97244314D01*
X138938000Y-114620000D02*
X139960000Y-114620000D01*
X113809314Y-95885000D02*
X144653000Y-95885000D01*
X112450000Y-97244314D02*
X113809314Y-95885000D01*
X151261471Y-99350000D02*
X149987000Y-100624471D01*
X149987000Y-100624471D02*
X149987000Y-102489000D01*
X144653000Y-95885000D02*
X144780000Y-95885000D01*
X149987000Y-102489000D02*
X149987000Y-102616000D01*
%TO.N,ADC ALERT*%
X115951654Y-99822000D02*
X115316000Y-100457654D01*
X118491000Y-99822000D02*
X115951654Y-99822000D01*
X115316000Y-100457654D02*
X115316000Y-104864000D01*
X153500000Y-103650000D02*
X153500000Y-104425000D01*
X123169000Y-104500000D02*
X118491000Y-99822000D01*
X153500000Y-104425000D02*
X153425000Y-104500000D01*
X153425000Y-104500000D02*
X123169000Y-104500000D01*
X115316000Y-104864000D02*
X114000000Y-106180000D01*
%TO.N,IMU INT*%
X140597500Y-111116500D02*
X141097000Y-110617000D01*
X140597500Y-112207500D02*
X140597500Y-111116500D01*
%TO.N,COM 3*%
X116078000Y-140462000D02*
X115390000Y-141150000D01*
X115390000Y-141404000D02*
X115054000Y-141740000D01*
X139395500Y-113620000D02*
X138303000Y-112527500D01*
X115390000Y-141150000D02*
X115390000Y-141404000D01*
X123825000Y-117221000D02*
X123825000Y-135763000D01*
X138303000Y-112527500D02*
X138303000Y-110744000D01*
X139960000Y-113620000D02*
X139395500Y-113620000D01*
X123825000Y-135763000D02*
X119126000Y-140462000D01*
X119126000Y-140462000D02*
X116078000Y-140462000D01*
X115054000Y-141740000D02*
X114000000Y-141740000D01*
%TO.N,/ADC/Signal 4*%
X154500000Y-99350000D02*
X154500000Y-98640686D01*
X154640686Y-98500000D02*
X165500000Y-98500000D01*
X165500000Y-98500000D02*
X167000000Y-100000000D01*
X154500000Y-98640686D02*
X154640686Y-98500000D01*
%TO.N,/ADC/Signal 3*%
X160000000Y-108166666D02*
X167000000Y-115166666D01*
X155000000Y-99350000D02*
X156350000Y-99350000D01*
X160000000Y-103000000D02*
X160000000Y-108166666D01*
X156350000Y-99350000D02*
X160000000Y-103000000D01*
%TO.N,/ADC/Signal 1*%
X163000000Y-129000000D02*
X158000000Y-124000000D01*
X163000000Y-141500000D02*
X163000000Y-129000000D01*
X167000000Y-145500000D02*
X163000000Y-141500000D01*
X154500000Y-105500000D02*
X154500000Y-103650000D01*
X158000000Y-124000000D02*
X158000000Y-109000000D01*
X158000000Y-109000000D02*
X154500000Y-105500000D01*
%TO.N,/ADC/Signal 2*%
X167000000Y-130333332D02*
X159000000Y-122333332D01*
X155150000Y-103650000D02*
X155000000Y-103650000D01*
X159000000Y-107500000D02*
X155150000Y-103650000D01*
X159000000Y-122333332D02*
X159000000Y-107500000D01*
%TD*%
M02*
